<?xml version="1.0" encoding="UTF-8" standalone="no"?>
<!DOCTYPE svg PUBLIC "-//W3C//DTD SVG 1.1//EN" "http://www.w3.org/Graphics/SVG/1.1/DTD/svg11.dtd">
<svg width="1920px" height="1080px" version="1.1" xmlns="http://www.w3.org/2000/svg" xmlns:xlink="http://www.w3.org/1999/xlink" xml:space="preserve" xmlns:serif="http://www.serif.com/" style="fill-rule:evenodd;clip-rule:evenodd;stroke-miterlimit:10;">
    <g id="Ebene-1" serif:id="Ebene 1">
        <g>
            <path d="M1415.68,4.086C1459.43,12.864 1493.17,45.769 1500.24,86.62C1519.51,97.855 1532.89,118.575 1534.69,142.605C1534.82,142.607 1534.94,142.606 1535.07,142.608C1612.49,144.347 1673.71,206.711 1671.81,281.901C1670.79,322.281 1651.76,358.141 1622.38,382.427C1631.42,400.025 1636.25,419.686 1635.73,440.346C1633.89,512.801 1566.95,570.069 1486.21,568.255C1467.75,567.84 1450.17,564.365 1434.05,558.397C1427.87,566.492 1425.2,571.493 1414.59,583.592C1389.46,608.607 1359.98,628.321 1324.74,636.133C1307.44,639.969 1288.3,640.81 1272.72,632.797C1257.14,624.784 1247.31,605.649 1255.31,590.854C1251.19,599.542 1242.45,606.687 1232.3,607.515C1222.14,608.343 1211.35,601.574 1210.06,592.152C1205.87,606.637 1194,619.002 1179.01,624.489C1164.02,629.976 1146.28,628.454 1132.61,620.507C1129.5,618.7 1126.55,616.541 1124.46,613.74C1117.77,604.774 1121.6,592.453 1126.7,582.623C1116.87,595.934 1103.4,607.226 1087.27,613.164C1076.35,617.181 1065.99,617.852 1053.73,618.248C1017.36,619.961 986.742,589.365 987.639,553.907C987.692,551.846 987.849,549.812 988.1,547.807C979.76,550.357 970.625,549.577 961.651,551.457C868.131,571.053 845.158,513.817 869.469,461.912C875.607,448.807 868.363,464.521 884.858,433.98C792.835,421.005 728.284,350.675 730.466,264.491C732.838,170.76 819.045,96.669 923.012,99.004C930.568,99.174 938.004,99.754 945.306,100.699C961.074,73.723 991.618,55.76 1026.28,56.539C1040.32,56.854 1053.54,60.212 1065.25,65.932C1082.22,47.753 1108.03,36.411 1136.68,37.055C1173.99,37.892 1205.49,58.786 1218.45,87.85C1228.29,75.317 1243.38,67.438 1260.12,67.814C1270.06,68.037 1279.27,71.139 1287.04,76.335C1299.74,32.468 1343.64,0.656 1395.02,1.811C1402.1,1.969 1409.01,2.747 1415.68,4.086" style="fill:white;fill-rule:nonzero;"/>
            <path d="M1415.15,6.006C1439.62,11.067 1462.24,23.804 1478.13,43.26C1485.85,52.712 1491.82,63.615 1495.45,75.271C1496.74,79.428 1496.67,86.562 1500.38,89.025C1505.87,92.673 1510.92,96.594 1515.34,101.524C1525.51,112.897 1531.42,127.455 1532.7,142.604C1532.79,143.686 1533.54,144.584 1534.69,144.595C1575.5,145.011 1615.23,164.488 1640.77,196.23C1667.7,229.687 1676.69,275.136 1664.31,316.303C1656.67,341.714 1641.28,364.06 1620.97,381.02C1620.27,381.605 1620.29,382.691 1620.66,383.432C1640.5,422.696 1637.13,469.37 1612.14,505.44C1589.95,537.478 1553.84,558.01 1515.71,564.251C1488.53,568.698 1460.43,565.891 1434.58,556.477C1433.69,556.151 1432.84,556.72 1432.34,557.393C1424.26,568.042 1416.92,578.875 1407.09,588.061C1395.52,598.869 1382.92,608.601 1369.19,616.524C1355.17,624.615 1340.03,630.711 1324.21,634.213C1308.27,637.742 1290.26,638.971 1275.11,631.763C1260.88,624.997 1249.12,607.451 1257.02,591.859L1253.59,589.849C1249.49,598.027 1241.72,604.762 1232.3,605.524C1223.36,606.246 1213.66,600.864 1211.98,591.624C1211.61,589.588 1208.67,589.876 1208.14,591.624C1201.84,612.197 1181.96,625.534 1160.76,625.753C1149.88,625.865 1137.41,622.835 1128.98,615.603C1119.02,607.065 1123.36,593.61 1128.42,583.629C1129.6,581.294 1126.5,579.599 1124.98,581.619C1117.02,592.233 1107.02,601.316 1095.21,607.472C1082.45,614.127 1068.79,615.72 1054.6,616.227C1031.55,617.049 1009.83,605.744 998.012,585.723C991.21,574.203 988.595,561.061 990.091,547.808C990.239,546.499 988.703,545.57 987.571,545.888C980.741,547.801 973.704,547.803 966.71,548.65C960.675,549.38 954.754,550.873 948.737,551.751C938.352,553.266 927.757,553.893 917.283,553.011C902.326,551.753 886.964,546.994 876.235,536.026C856.141,515.488 861.163,484.121 872.312,460.523C876.456,451.752 881.962,443.518 886.577,434.984C887.121,433.98 886.72,432.252 885.387,432.06C849.198,426.837 814.34,412.382 786.768,388.074C761.037,365.389 742.782,334.993 735.738,301.354C728.578,267.167 733.028,231.031 748.651,199.767C764.062,168.928 789.262,143.708 819.123,126.718C857.25,105.024 901.935,97.254 945.306,102.69C945.982,102.774 946.7,102.251 947.026,101.704C970.78,61.792 1022.75,47.82 1064.24,67.65C1065.03,68.028 1066.01,68.015 1066.65,67.339C1108.44,23.306 1190.71,31.807 1216.73,88.854C1217.23,89.95 1219.1,90.198 1219.86,89.258C1236.11,69.112 1264.04,63.831 1286.04,78.054C1287.14,78.769 1288.61,78.047 1288.96,76.863C1304.77,23.616 1362.47,-4.165 1415.15,6.006C1417.65,6.49 1418.73,2.652 1416.21,2.166C1361.38,-8.419 1301.58,20.372 1285.12,75.805C1286.09,75.408 1287.07,75.012 1288.04,74.615C1264.69,59.513 1234.36,64.967 1217.04,86.442L1220.17,86.845C1199.53,41.584 1142.14,24.255 1097.39,41.978C1084.69,47.005 1073.24,54.615 1063.84,64.524C1064.64,64.42 1065.44,64.316 1066.25,64.212C1022.8,43.447 968.509,57.821 943.587,99.694C944.161,99.365 944.733,99.037 945.306,98.708C870.426,89.323 790.48,120.955 750.988,187.202C732.647,217.967 725.198,254.188 729.767,289.705C734.215,324.278 750.031,356.602 774.252,381.631C803.458,411.812 843.03,429.94 884.329,435.9L883.139,432.975C878.687,441.208 873.339,449.156 869.308,457.595C863.074,470.644 858.544,484.47 858.467,499.069C858.396,512.323 862.19,525.534 870.719,535.841C880.452,547.604 895.134,553.823 909.942,556.116C921.496,557.905 933.264,557.654 944.847,556.253C952.194,555.365 959.384,553.567 966.71,552.631C974.057,551.693 981.447,551.739 988.63,549.728C987.789,549.088 986.949,548.448 986.11,547.808C983.351,572.222 995.012,596.13 1015.46,609.622C1025.41,616.184 1037.13,619.936 1049.05,620.278C1063.64,620.695 1079.03,619.113 1092.48,613.189C1106.96,606.811 1118.98,596.205 1128.42,583.629L1124.98,581.619C1119.92,591.594 1115.44,604.674 1122.74,614.746C1129.86,624.555 1144.61,628.759 1156.09,629.587C1180.66,631.362 1204.66,616.588 1211.98,592.683L1208.14,592.683C1210.04,603.107 1220.78,609.782 1230.97,609.572C1242.28,609.339 1252.09,601.701 1257.02,591.859C1258.17,589.576 1254.75,587.558 1253.59,589.849C1247.15,602.537 1251.79,617.054 1261.35,626.817C1273.02,638.736 1290.73,641.775 1306.76,640.759C1341.92,638.532 1374.9,620.982 1401.32,598.531C1409.24,591.803 1416.6,584.71 1423.07,576.573C1427.5,570.995 1431.47,565.078 1435.77,559.402C1435.02,559.707 1434.27,560.013 1433.53,560.317C1477.02,576.156 1526.84,573.077 1567.46,550.571C1601.49,531.713 1628.02,499.174 1635.51,460.554C1640.74,433.604 1636.45,405.868 1624.1,381.423L1623.79,383.835C1660.42,353.241 1679.41,305.642 1672.31,258.242C1666.07,216.672 1639.73,179.912 1603.3,159.283C1582.54,147.531 1558.58,140.857 1534.69,140.614C1535.36,141.277 1536.02,141.941 1536.68,142.604C1535.55,129.277 1531.24,116.394 1523.49,105.428C1519.78,100.169 1515.4,95.393 1510.42,91.308C1508.21,89.497 1505.78,88.026 1503.52,86.294C1501.09,84.426 1501.14,80.835 1500.36,77.908C1493.93,53.86 1478.13,33.128 1457.58,19.315C1445.08,10.913 1430.94,5.213 1416.21,2.166C1413.71,1.649 1412.64,5.486 1415.15,6.006" style="fill:rgb(1,3,3);fill-rule:nonzero;"/>
            <path d="M530.324,503.561C530.324,567.203 478.732,618.794 415.091,618.794C351.449,618.794 299.857,567.203 299.857,503.561C299.857,439.919 351.449,388.327 415.091,388.327C478.732,388.327 530.324,439.919 530.324,503.561" style="fill:white;fill-rule:nonzero;"/>
            <path d="M530.324,503.561C530.324,439.962 478.69,388.327 415.091,388.327C351.492,388.327 299.857,439.962 299.857,503.561C299.857,567.16 351.492,618.794 415.091,618.794C478.69,618.794 530.324,567.16 530.324,503.561Z" style="fill:none;stroke:rgb(29,29,27);stroke-width:6.53px;"/>
            <path d="M393.785,552.215C404.822,578.063 432.455,595.87 460.554,595.241" style="fill:white;fill-rule:nonzero;"/>
            <path d="M391.449,553.58C403.231,580.409 431.3,598.301 460.554,597.946C464.032,597.903 464.041,592.494 460.554,592.536C433.02,592.87 407.173,576.02 396.121,550.85C394.724,547.669 390.061,550.419 391.449,553.58" style="fill:rgb(29,29,27);fill-rule:nonzero;"/>
            <path d="M458.132,440.003C469.544,477.37 463.306,519.725 441.606,552.215" style="fill:white;fill-rule:nonzero;"/>
            <path d="M455.524,440.722C466.599,477.758 460.548,518.585 439.27,550.849C437.347,553.765 442.031,556.478 443.941,553.58C465.969,520.179 472.201,477.611 460.74,439.283C459.745,435.956 454.522,437.373 455.524,440.722" style="fill:rgb(29,29,27);fill-rule:nonzero;"/>
            <path d="M483.322,442.995C496.02,477.58 491.907,517.913 472.487,549.223" style="fill:white;fill-rule:nonzero;"/>
            <path d="M480.713,443.714C493.05,477.992 489.163,516.764 470.152,547.858C468.331,550.836 473.009,553.557 474.823,550.588C494.526,518.362 498.726,477.83 485.93,442.276C484.76,439.024 479.531,440.428 480.713,443.714" style="fill:rgb(29,29,27);fill-rule:nonzero;"/>
            <path d="M383.666,616.344C356.869,748.462 352.101,885.019 369.618,1018.68" style="fill:white;fill-rule:nonzero;"/>
            <path d="M381.057,615.625C360.174,718.967 352.534,824.927 358.59,930.191C360.291,959.779 363.084,989.295 366.914,1018.68C367.357,1022.09 372.773,1022.13 372.324,1018.68C358.804,914.945 358.553,809.561 371.675,705.768C375.435,676.03 380.337,646.444 386.274,617.064C386.961,613.664 381.748,612.21 381.057,615.625" style="fill:rgb(29,29,27);fill-rule:nonzero;"/>
            <path d="M381.818,649.95C401.685,666.632 424.094,679.971 446.391,693.232C476.125,710.915 505.86,728.598 535.593,746.282C536.377,746.748 537.225,747.23 538.134,747.17C539.513,747.078 540.475,745.813 541.245,744.665C576.147,692.585 611.05,640.503 645.953,588.422" style="fill:white;fill-rule:nonzero;"/>
            <path d="M379.906,651.863C398.35,667.243 418.748,679.901 439.332,692.178C461.207,705.225 483.115,718.219 505.006,731.239C510.39,734.44 515.772,737.642 521.155,740.843L529.614,745.874C531.977,747.279 534.607,749.525 537.415,749.778C540.971,750.1 542.809,747.158 544.578,744.542C548.425,738.854 552.223,733.134 556.046,727.43C570.506,705.854 584.966,684.277 599.425,662.701C615.713,638.397 632.001,614.093 648.289,589.788C650.233,586.888 645.549,584.176 643.618,587.056C616.36,627.73 589.103,668.402 561.845,709.075C555.031,719.243 548.216,729.412 541.402,739.58C540.733,740.58 539.872,742.645 538.909,743.3C536.745,744.773 537.035,743.584 535.421,743.032C532.781,742.129 530.147,739.895 527.731,738.459C522.091,735.105 516.452,731.751 510.813,728.397C489.794,715.896 468.774,703.398 447.756,690.895C425.671,677.759 403.517,664.537 383.732,648.037C381.075,645.822 377.228,649.629 379.906,651.863" style="fill:rgb(29,29,27);fill-rule:nonzero;"/>
            <path d="M375.651,649.82C309.504,754.311 278.12,880.407 287.571,1003.71" style="fill:white;fill-rule:nonzero;"/>
            <path d="M373.316,648.455C321.779,730.117 291.228,824.533 284.583,920.843C282.68,948.434 282.791,976.136 284.866,1003.71C285.126,1007.16 290.538,1007.19 290.276,1003.71C283.064,907.872 300.204,810.525 339.531,722.827C350.634,698.068 363.506,674.131 377.987,651.185C379.851,648.233 375.171,645.515 373.316,648.455" style="fill:rgb(29,29,27);fill-rule:nonzero;"/>
            <path d="M291.108,1020.67C288.144,1032.1 287.173,1044.05 288.252,1055.81C288.868,1062.54 290.14,1069.43 283.414,1075.58C281.344,1076.9 276.35,1077.06 273.589,1076.05C270.778,1075.01 269.93,1074.78 268.077,1072.51C267.746,1072.1 266.954,1068.36 266.802,1067.86C264.557,1060.49 267.458,1054.3 269.604,1047.97C272.579,1039.18 274.144,1029.9 273.903,1020.63C272.674,1029.87 270.436,1038.97 267.24,1047.73C266.346,1050.18 266.955,1053.93 262.533,1056.14C259.641,1057.59 259.707,1060.43 255.137,1059.57C250.221,1056.58 249.032,1049.54 249.585,1044.89C250.848,1034.26 257.969,1025.27 261.078,1015.02C263.913,1005.68 263.344,995.483 264.433,986.267C266.871,978.582 277.453,972.224 284.252,972.224C293.957,972.224 299.323,974.941 304.779,978.942C308.971,982.015 312.115,986.368 314.287,991.09C317.111,997.233 318.379,1004.04 321.571,1009.99C325.274,1016.91 331.334,1022.26 335.906,1028.58C337.796,1031.19 339.255,1036.03 339.247,1039.25C339.228,1046.38 339.677,1049.23 328.873,1049.51C320.492,1048.35 315.519,1040.26 312.67,1033.33C310.553,1028.17 309.052,1022.71 306.111,1017.97C306.085,1028.94 306.083,1040.11 310.887,1050.32C312.23,1053.18 312.959,1056.27 313.296,1059.4C313.62,1062.41 314.22,1066.58 312.472,1069.73C308.627,1076.67 303.383,1074.9 298.909,1073.44C291.127,1067.79 290.349,1059.53 291.127,1051.75C291.562,1047.38 292.466,1043.08 292.821,1038.7C293.314,1032.64 292.734,1026.5 291.108,1020.67" style="fill:white;fill-rule:nonzero;"/>
            <path d="M287.978,1019.8C285.309,1030.46 284.111,1041.47 284.753,1052.45C285.189,1059.9 287.839,1076.47 274.95,1073.07C266.461,1070.82 269.458,1058.22 271.547,1052.22C275.131,1041.93 277.309,1031.56 277.149,1020.63C277.097,1017.13 271.295,1016.02 270.773,1019.77C269.345,1030 265.882,1039.39 263.535,1049.35C263.024,1051.52 262.371,1052.25 260.462,1053.61C259.641,1054.19 258.358,1055.89 257.468,1056.15C253.758,1057.24 252.669,1049.42 252.708,1046.87C252.854,1037.27 259.301,1028.65 262.737,1020.02C266.55,1010.44 266.518,1000.29 267.309,990.161C267.99,981.46 277.478,975.255 285.83,975.494C294.639,975.746 303.162,979.927 308.319,987.185C314.096,995.317 314.905,1005.77 320.26,1014.16C325.23,1021.94 334.981,1028.4 335.951,1038.12C336.134,1039.95 336.651,1043.91 335.121,1045.3C334.156,1046.18 331.492,1046.2 330.277,1046.21C327.579,1046.23 325.327,1045.2 323.26,1043.51C315.125,1036.85 313.999,1025 308.915,1016.34C307.285,1013.56 302.871,1014.75 302.866,1017.97C302.846,1027.86 302.869,1038.07 306.246,1047.5C307.979,1052.34 309.901,1056.61 310.304,1061.84C310.659,1066.46 309.205,1072.33 303.474,1071.38C294.653,1069.91 293.678,1058.89 294.372,1051.75C294.904,1046.28 296.136,1040.91 296.23,1035.39C296.32,1030.12 295.568,1024.89 294.237,1019.8C293.182,1015.76 286.918,1017.48 287.978,1021.53C289.897,1028.87 290.056,1036.07 288.994,1043.55C288.199,1049.15 287.2,1054.73 287.926,1060.39C289.081,1069.38 295.224,1078.01 304.982,1078.01C316.241,1078.01 317.6,1065.43 316.224,1056.98C315.202,1050.71 311.884,1045.21 310.638,1038.97C309.262,1032.08 309.344,1024.97 309.357,1017.97C307.341,1018.52 305.325,1019.07 303.309,1019.61C308.999,1029.31 310.208,1041.61 319.632,1048.89C325.114,1053.13 337.639,1055.41 341.459,1047.61C345.438,1039.49 340.618,1029.04 335.499,1022.82C331.298,1017.71 326.572,1012.99 323.671,1006.97C320.858,1001.12 319.608,994.662 316.782,988.813C307.654,969.928 280.366,961.067 265.314,978.54C261.402,983.081 260.958,987.536 260.602,993.336C260.159,1000.58 259.959,1007.89 257.724,1014.86C254.158,1025.96 245.49,1036.22 246.269,1048.46C246.581,1053.36 248.37,1058.79 252.564,1061.72C257.293,1065.02 261.061,1061.24 264.763,1058.59C269.371,1055.3 269.754,1050.56 271.459,1045.49C274.083,1037.68 275.895,1029.65 277.032,1021.49C274.907,1021.21 272.782,1020.92 270.656,1020.63C270.764,1028.02 269.873,1035.28 267.916,1042.41C266.276,1048.38 263.392,1054.12 262.851,1060.36C262.502,1064.39 263.154,1070.08 265.107,1073.79C266.848,1077.09 270.81,1078.84 274.282,1079.58C278.57,1080.49 283.679,1080.09 286.815,1076.78C290.405,1072.99 291.984,1068.1 292.014,1062.95C292.052,1056.63 290.949,1050.37 291.1,1044.01C291.281,1036.4 292.389,1028.91 294.237,1021.53C295.252,1017.48 288.993,1015.75 287.978,1019.8" style="fill:rgb(1,3,3);fill-rule:nonzero;"/>
            <path d="M656.871,588.242C654.265,589.028 651.455,588.415 648.85,587.626C643.006,585.856 637.363,583.167 632.78,579.133C628.198,575.1 624.73,569.641 623.748,563.616C622.19,554.06 627.622,543.788 636.398,539.699C642.01,537.083 648.411,536.901 654.603,536.861" style="fill:white;fill-rule:nonzero;"/>
            <path d="M656.152,585.633C649.194,587.011 639.768,581.68 634.694,577.221C629.752,572.881 625.997,566.604 626.192,559.855C626.371,553.683 629.503,547.588 634.508,543.935C640.274,539.726 647.765,539.63 654.602,539.566C658.082,539.533 658.091,534.123 654.602,534.156C645.8,534.237 636.733,534.882 629.751,540.852C624.002,545.767 620.497,553.529 620.792,561.111C621.115,569.368 625.741,576.895 632.035,582.027C638.612,587.391 648.929,592.564 657.59,590.85C661.002,590.175 659.558,584.959 656.152,585.633" style="fill:rgb(29,29,27);fill-rule:nonzero;"/>
            <path d="M629,542.521C625.407,537.128 622.058,531.572 618.966,525.877C614.652,517.93 610.749,508.71 613.462,500.084C614.356,497.242 616.162,494.451 618.971,493.462C621.598,492.537 624.596,493.405 626.832,495.063C629.068,496.723 630.675,499.078 632.153,501.437C638.584,511.699 643.429,522.952 646.463,534.676" style="fill:white;fill-rule:nonzero;"/>
            <path d="M631.336,541.156C626.9,534.442 622.51,527.494 619.09,520.195C617.265,516.3 615.667,512.129 615.333,507.801C615.051,504.157 615.555,498.317 619.194,496.327C626.426,492.37 632.949,507.876 635.242,512.432C638.937,519.771 641.745,527.461 643.855,535.395C644.749,538.757 649.969,537.331 649.072,533.958C646.303,523.548 642.276,513.493 636.924,504.136C633.161,497.56 626.79,487.308 617.606,491.126C609.135,494.649 609,506.529 610.98,513.953C613.846,524.703 620.595,534.701 626.664,543.886C628.574,546.778 633.262,544.072 631.336,541.156" style="fill:rgb(29,29,27);fill-rule:nonzero;"/>
            <path d="M653.164,534.722C652.228,525.168 652.993,515.449 655.41,506.159C657.127,499.566 660.052,492.722 665.911,489.246C666.439,488.933 667.002,488.647 667.612,488.582C669.273,488.408 670.628,489.885 671.448,491.34C675.42,498.395 673.782,507.144 672.033,515.049L667.836,534.017C667.401,535.982 666.786,538.192 664.996,539.112" style="fill:white;fill-rule:nonzero;"/>
            <path d="M655.869,534.722C655.15,526.498 655.486,518.259 657.234,510.174C658.002,506.625 658.936,503.019 660.496,499.724C661.456,497.695 664.566,491.723 667.276,491.582C671.05,491.385 671.243,500.877 671.18,502.876C671.06,506.751 670.246,510.554 669.424,514.33C668.548,518.357 667.644,522.377 666.754,526.4C666.15,529.13 666.008,535.023 663.63,536.776C660.859,538.82 663.554,543.518 666.361,541.447C670.238,538.586 670.604,534.016 671.589,529.563C672.882,523.718 674.294,517.886 675.429,512.009C676.339,507.296 677.006,502.441 676.304,497.654C675.739,493.797 674.167,488.122 670.162,486.399C662.813,483.237 656.472,494.919 654.466,500.181C650.341,510.997 649.459,523.283 650.46,534.722C650.76,538.164 656.172,538.197 655.869,534.722" style="fill:rgb(29,29,27);fill-rule:nonzero;"/>
            <path d="M644.625,558.252C649.607,558.446 654.475,560.742 657.792,564.465" style="fill:white;fill-rule:nonzero;"/>
            <path d="M644.625,560.957C649.035,561.232 652.88,563.165 655.88,566.377C658.261,568.928 662.081,565.095 659.705,562.552C655.722,558.286 650.428,555.908 644.625,555.546C641.148,555.331 641.161,560.741 644.625,560.957" style="fill:rgb(29,29,27);fill-rule:nonzero;"/>
            <path d="M667.452,556.863C666.535,559.983 666.292,563.659 668.32,566.2C671.162,569.761 677.135,569.072 680.501,566.004C683.868,562.936 685.295,558.336 686.583,553.966C687.1,552.21 687.617,550.454 688.134,548.698C689.054,545.574 689.983,542.398 689.996,539.141C690.008,535.884 689.266,532.104 686.548,530.31C678.71,525.137 671.66,525.491 667.452,556.863" style="fill:white;fill-rule:nonzero;"/>
            <path d="M664.844,556.144C663.437,561.685 664.003,568.512 670.23,570.712C675.417,572.543 680.983,570.036 684.216,565.906C688.39,560.573 690.025,552.722 691.632,546.274C693.04,540.623 693.769,533.075 688.925,528.778C685.056,525.344 679.092,523.659 674.734,527.084C667.014,533.152 666.054,547.393 664.844,556.144C664.373,559.549 669.584,561.021 670.06,557.583C671.097,550.087 672.033,541.684 675.529,534.84C676.888,532.179 678.588,529.871 681.777,530.842C690.233,533.417 686.757,543.802 684.944,549.955C683.656,554.329 682.685,559.637 679.543,563.127C677.98,564.862 675.172,566.456 672.712,565.805C668.977,564.817 669.3,560.579 670.06,557.583C670.918,554.207 665.701,552.766 664.844,556.144" style="fill:rgb(29,29,27);fill-rule:nonzero;"/>
            <path d="M655.73,588.268C661.313,589.339 667.175,587.054 671.397,583.248C675.62,579.442 681.264,569.775 683.292,564.464" style="fill:white;fill-rule:nonzero;"/>
            <path d="M655.011,590.876C670.999,593.149 680.694,578.188 685.901,565.183C687.195,561.952 681.964,560.547 680.683,563.746C676.777,573.502 668.846,587.421 656.45,585.66C653.044,585.176 651.573,590.388 655.011,590.876" style="fill:rgb(29,29,27);fill-rule:nonzero;"/>
            <path d="M653.294,537.834C658.626,537.654 663.99,538.442 669.044,540.148C673.611,541.689 678.356,544.49 679.589,549.149C679.914,550.378 679.945,551.769 679.26,552.841C678.877,553.439 678.302,553.89 677.699,554.264C674.215,556.423 669.836,556.248 665.737,556.227C661.637,556.206 657.133,556.576 654.203,559.444" style="fill:white;fill-rule:nonzero;"/>
            <path d="M653.294,540.539C658.398,540.458 663.488,541.053 668.325,542.756C671.33,543.814 680.632,548.764 675.436,552.351C672.063,554.682 666.141,553.304 662.271,553.649C658.435,553.99 655.251,555.046 652.29,557.531C649.62,559.771 653.464,563.582 656.116,561.356C661.854,556.539 685.925,562.686 682.198,548.429C679.247,537.148 662.813,534.979 653.294,535.128C649.817,535.183 649.806,540.594 653.294,540.539" style="fill:rgb(29,29,27);fill-rule:nonzero;"/>
            <path d="M864.983,498.986C864.983,562.628 916.575,614.22 980.216,614.22C1043.86,614.22 1095.45,562.628 1095.45,498.986C1095.45,435.345 1043.86,383.753 980.216,383.753C916.575,383.753 864.983,435.345 864.983,498.986" style="fill:white;fill-rule:nonzero;"/>
            <path d="M864.983,498.987C864.983,562.586 916.617,614.22 980.216,614.22C1043.82,614.22 1095.45,562.586 1095.45,498.987C1095.45,435.387 1043.82,383.753 980.216,383.753C916.617,383.753 864.983,435.387 864.983,498.987Z" style="fill:none;stroke:rgb(29,29,27);stroke-width:6.53px;"/>
            <path d="M1011.64,611.77C1038.44,743.887 1043.2,880.444 1025.69,1014.11" style="fill:white;fill-rule:nonzero;"/>
            <path d="M1009.03,612.489C1029.82,715.366 1037.33,820.83 1031.31,925.617C1029.61,955.204 1026.81,984.721 1022.98,1014.11C1022.53,1017.55 1027.95,1017.52 1028.39,1014.11C1042.06,909.221 1042.17,802.64 1028.6,697.735C1024.84,668.679 1020.05,639.769 1014.25,611.051C1013.56,607.64 1008.34,609.085 1009.03,612.489" style="fill:rgb(29,29,27);fill-rule:nonzero;"/>
            <path d="M1017.53,643.122C992.384,665.081 967.565,687.694 940.359,707.12C911.366,727.822 879.869,744.611 849.576,763.262C849.318,763.42 844.731,766.45 844.551,766.255C844.42,766.111 846.285,762.482 846.669,761.659C848.607,757.514 850.551,753.374 852.5,749.235C855.619,742.618 858.754,736.008 861.911,729.41C866.504,719.809 871.149,710.235 875.835,700.681C881.954,688.201 888.148,675.754 893.823,663.062C903.835,640.664 912.799,617.793 921.846,594.994C923.272,591.4 917.464,589.841 916.053,593.398C901.972,628.883 887.271,663.742 870.468,698.01C865.385,708.379 860.351,718.771 855.378,729.191C852.004,736.259 848.655,743.339 845.325,750.427C843.426,754.469 841.533,758.513 839.645,762.559C838.37,765.291 837.04,767.773 839.62,770.17C845.256,775.405 852.777,768.327 857.63,765.381C865.779,760.434 873.996,755.598 882.212,750.763C898.392,741.242 914.584,731.715 930.238,721.342C963.017,699.618 992.227,673.177 1021.78,647.37C1024.7,644.822 1020.43,640.587 1017.53,643.122" style="fill:rgb(29,29,27);fill-rule:nonzero;"/>
            <path d="M1019.65,645.246C1085.8,749.737 1117.19,875.832 1107.74,999.139" style="fill:white;fill-rule:nonzero;"/>
            <path d="M1017.32,646.611C1068.62,727.903 1099.05,821.924 1105.42,917.83C1107.22,944.904 1107.07,972.083 1105.03,999.139C1104.77,1002.61 1110.18,1002.6 1110.44,999.139C1117.69,902.831 1100.36,805.144 1061.09,716.951C1049.83,691.686 1036.75,667.268 1021.99,643.881C1020.14,640.944 1015.45,643.656 1017.32,646.611" style="fill:rgb(29,29,27);fill-rule:nonzero;"/>
            <path d="M920.51,586.509C920.593,579.666 920.513,572.761 919.03,566.08C917.548,559.4 914.556,552.891 909.562,548.214C908.116,546.859 906.334,545.609 904.355,545.699C901.705,545.818 899.701,548.394 899.277,551.012C898.853,553.631 899.617,556.278 900.328,558.834C901.672,563.656 902.863,568.565 903.063,573.568C903.576,586.422 897.534,599.009 898.894,611.803C899.771,620.048 903.845,627.912 910.075,633.384C916.305,638.855 924.63,641.881 932.92,641.686L933.837,642.029C945.088,638.098 955.876,632.846 965.91,626.415C967.818,625.192 969.765,623.858 970.901,621.896C972.42,619.273 972.192,615.884 970.849,613.164C969.508,610.446 967.186,608.323 964.665,606.639C967.066,601.47 965.281,594.711 960.642,591.4L960.049,591.839C966.723,587.681 973.639,583.909 980.75,580.551C984.797,578.64 988.965,576.826 992.402,573.959C994.984,571.805 997.225,568.53 996.363,565.279C995.686,562.722 993.256,560.99 990.764,560.103C987.697,559.01 984.299,558.877 981.156,559.723C979.532,560.161 977.987,560.849 976.456,561.547C964.165,567.144 952.214,573.487 940.691,580.528C937.81,582.289 934.871,584.127 931.556,584.768L932.852,584.145C928.523,586.143 923.752,587.177 918.984,587.154" style="fill:white;fill-rule:nonzero;"/>
            <path d="M923.215,586.509C923.309,577.01 923.062,567.274 919.451,558.345C917.144,552.642 912.116,543.54 905.078,543.075C897.771,542.593 895.758,550.751 896.92,556.449C897.891,561.209 899.542,565.754 900.105,570.608C900.722,575.93 900.123,581.186 899.151,586.426C897.513,595.255 895.13,604.129 896.364,613.172C897.396,620.731 900.893,627.877 906.167,633.386C911.59,639.053 918.996,642.782 926.73,643.956C929.806,644.422 933.142,645.086 936.087,644.094C940.395,642.641 944.631,640.791 948.757,638.887C953.677,636.618 958.476,634.089 963.129,631.316C966.668,629.205 971.089,626.977 973.236,623.262C977.477,615.924 971.912,608.439 966.031,604.302C966.446,605.321 966.86,606.339 967.274,607.358C969.802,601.021 967.879,593.748 962.555,589.488C961.692,588.797 960.297,588.309 959.276,589.065C959.079,589.211 958.881,589.357 958.683,589.503C955.954,591.523 958.38,596.047 961.414,594.175C966.674,590.927 972.049,587.882 977.571,585.102C982.6,582.571 988.014,580.54 992.596,577.212C999.597,572.13 1002.22,562.548 993.038,558.145C982.839,553.255 971.851,560.545 962.917,565.055C957.392,567.845 951.945,570.791 946.582,573.883C941.548,576.786 936.545,580.754 930.837,582.16C931.533,583.807 932.227,585.455 932.922,587.103C933.353,586.896 933.786,586.688 934.218,586.48C937.398,584.951 934.616,580.458 931.487,581.809C927.456,583.551 923.366,584.363 918.984,584.448C915.507,584.517 915.496,589.927 918.984,589.859C924.361,589.753 929.287,588.61 934.218,586.48C933.307,584.923 932.398,583.367 931.487,581.809L930.191,582.433C927.352,583.797 929.389,588.087 932.275,587.376C939.994,585.476 946.849,579.882 953.719,576.057C961.917,571.492 970.344,566.898 979.048,563.363C983.155,561.696 994.428,560.486 993.367,567.647C992.689,572.226 986.496,574.812 982.766,576.618C974.539,580.602 966.47,584.696 958.683,589.503C959.594,591.061 960.504,592.617 961.414,594.175C961.612,594.029 961.81,593.882 962.007,593.736C960.914,593.595 959.822,593.454 958.729,593.313C962.716,596.504 963.947,601.182 962.057,605.919C961.591,607.087 962.392,608.335 963.301,608.974C966.749,611.399 971.122,615.923 968.565,620.531C966.623,624.031 960.939,626.378 957.59,628.281C953.822,630.421 949.963,632.402 946.027,634.216C942.507,635.838 937.908,638.599 934.097,639.249C931.078,639.763 926.445,638.592 923.529,637.734C920.016,636.7 916.666,635.065 913.723,632.877C907.038,627.904 902.57,620.069 901.599,611.803C900.556,602.913 903.369,594.157 904.793,585.477C906.048,577.835 905.957,570.536 904.198,562.967C903.418,559.611 899.471,550.999 903.628,548.682C907.469,546.541 912.847,556.721 913.918,559.082C917.806,567.645 917.895,577.283 917.805,586.509C917.77,589.991 923.181,589.994 923.215,586.509" style="fill:rgb(29,29,27);fill-rule:nonzero;"/>
            <path d="M1105.21,995.341C1108.18,1006.77 1109.15,1018.72 1108.07,1030.49C1107.45,1037.21 1106.18,1044.1 1112.91,1050.25C1114.98,1051.58 1119.97,1051.74 1122.73,1050.72C1125.54,1049.69 1126.39,1049.45 1128.25,1047.18C1128.58,1046.78 1129.37,1043.04 1129.52,1042.54C1131.76,1035.16 1128.86,1028.98 1126.72,1022.64C1123.74,1013.86 1122.18,1004.57 1122.42,995.303C1123.65,1004.54 1125.89,1013.65 1129.08,1022.4C1129.98,1024.86 1129.37,1028.61 1133.79,1030.82C1136.68,1032.27 1136.62,1035.1 1141.18,1034.24C1146.1,1031.25 1147.29,1024.22 1146.74,1019.57C1145.47,1008.93 1138.35,999.947 1135.24,989.698C1132.41,980.357 1132.98,970.158 1131.89,960.941C1129.45,953.255 1118.87,946.898 1112.07,946.898C1102.37,946.898 1097,949.616 1091.54,953.616C1087.35,956.69 1084.21,961.042 1082.04,965.765C1079.21,971.906 1077.94,978.71 1074.75,984.668C1071.05,991.582 1064.99,996.939 1060.41,1003.26C1058.53,1005.87 1057.07,1010.7 1057.08,1013.92C1057.09,1021.06 1056.64,1023.91 1067.45,1024.18C1075.83,1023.02 1080.8,1014.94 1083.65,1008C1085.77,1002.84 1087.27,997.384 1090.21,992.649C1090.24,1003.62 1090.24,1014.78 1085.43,1025C1084.09,1027.85 1083.36,1030.94 1083.03,1034.08C1082.7,1037.08 1082.1,1041.25 1083.85,1044.41C1087.69,1051.34 1092.94,1049.58 1097.41,1048.12C1105.19,1042.46 1105.97,1034.2 1105.19,1026.42C1104.76,1022.06 1103.86,1017.75 1103.5,1013.38C1103.01,1007.32 1103.59,1001.17 1105.21,995.341" style="fill:white;fill-rule:nonzero;"/>
            <path d="M1102.08,996.203C1103.93,1003.59 1105.03,1011.07 1105.22,1018.69C1105.38,1025.04 1104.27,1031.31 1104.31,1037.63C1104.34,1042.78 1105.9,1047.67 1109.51,1051.45C1112.65,1054.76 1117.75,1055.16 1122.04,1054.25C1125.49,1053.52 1129.51,1051.77 1131.21,1048.46C1133.14,1044.73 1133.85,1039.09 1133.47,1035.03C1132.89,1028.79 1130.05,1023.07 1128.4,1017.08C1126.44,1009.95 1125.56,1002.69 1125.66,995.303C1123.54,995.59 1121.41,995.879 1119.29,996.166C1120.28,1003.23 1121.76,1010.21 1123.86,1017.03C1124.66,1019.65 1125.73,1022.21 1126.36,1024.87C1126.87,1027.02 1127.29,1029.01 1128.7,1030.79C1130.07,1032.51 1132.02,1033.46 1133.68,1034.84C1135.31,1036.18 1136.55,1037.31 1138.74,1037.57C1143.57,1038.14 1146.89,1034.09 1148.55,1029.99C1152.87,1019.34 1147.14,1008.38 1142.56,998.88C1139.37,992.288 1137.18,985.84 1136.43,978.519C1135.81,972.447 1136.61,965.409 1134.83,959.559C1132.17,950.829 1121.3,944.119 1112.54,943.671C1102.15,943.139 1091.37,947.727 1084.63,955.679C1076.03,965.835 1075.45,979.859 1067.03,990.196C1063.37,994.693 1058.61,998.907 1056.17,1004.24C1054.21,1008.51 1053.57,1013.1 1053.88,1017.77C1054.54,1027.37 1065.55,1029.43 1073.17,1025.78C1085.52,1019.86 1086.8,1004.87 1093.01,994.287C1091,993.741 1088.98,993.194 1086.96,992.649C1086.98,999.39 1087.05,1006.22 1085.83,1012.88C1084.62,1019.41 1081.16,1025.13 1080.1,1031.65C1078.72,1040.1 1080.08,1052.69 1091.34,1052.69C1101.09,1052.69 1107.25,1044.05 1108.39,1035.06C1109.08,1029.67 1108.2,1024.37 1107.45,1019.04C1106.34,1011.25 1106.34,1003.86 1108.34,996.203C1109.4,992.159 1103.14,990.432 1102.08,994.477C1099.29,1005.17 1100.66,1014.85 1101.86,1025.6C1102.67,1032.9 1102.02,1044.53 1092.85,1046.05C1080.71,1048.07 1087.96,1027.82 1089.81,1022.92C1093.43,1013.29 1093.48,1002.8 1093.46,992.649C1093.45,989.429 1089.04,988.23 1087.41,991.01C1082.74,998.958 1081.49,1008.89 1075.33,1015.96C1072.53,1019.17 1069.14,1021.22 1064.77,1020.8C1061.93,1020.53 1060.6,1020.25 1060.36,1017.4C1059.5,1007.26 1066.24,1001.48 1072.09,994.217C1078.46,986.3 1080.53,977.608 1084.4,968.454C1091.1,952.617 1113.78,942.233 1126.52,957.948C1129.72,961.888 1129.17,967.219 1129.46,972.032C1129.77,977.182 1130.15,982.372 1131.29,987.419C1133.48,997.153 1139.56,1005.3 1142.4,1014.78C1143.71,1019.16 1144.41,1024.28 1142.13,1028.5C1141.04,1030.53 1140.18,1031.6 1138.27,1030.25C1136.93,1029.29 1134.45,1027.66 1133.61,1026.44C1132.68,1025.07 1132.66,1023.12 1132.21,1021.54C1131.39,1018.65 1130.25,1015.84 1129.41,1012.94C1127.67,1006.87 1126.42,1000.69 1125.55,994.44C1125.03,990.732 1119.23,991.764 1119.17,995.303C1119.02,1005.95 1121.03,1016.19 1124.54,1026.21C1126.67,1032.32 1130.14,1045.39 1121.37,1047.74C1108.87,1051.09 1111.02,1035.36 1111.51,1027.96C1112.26,1016.7 1111.08,1005.41 1108.34,994.477C1107.33,990.427 1101.07,992.143 1102.08,996.203" style="fill:rgb(1,3,3);fill-rule:nonzero;"/>
            <path d="M934.985,561.007C945.777,546.798 963.63,539.794 981.125,536.279" style="fill:white;fill-rule:nonzero;"/>
            <path d="M936.897,562.92C947.908,548.856 964.842,542.392 981.844,538.887C985.251,538.185 983.81,532.968 980.405,533.671C962.603,537.341 944.594,544.378 933.071,559.094C930.949,561.806 934.752,565.66 936.897,562.92" style="fill:rgb(29,29,27);fill-rule:nonzero;"/>
            <path d="M936.051,416.383C926.089,430.308 917.933,445.696 913.571,462.253C909.209,478.81 908.77,496.603 913.864,512.951" style="fill:white;fill-rule:nonzero;"/>
            <path d="M933.716,415.018C913.548,443.454 900.861,479.004 911.255,513.669C912.252,516.995 917.476,515.578 916.472,512.231C906.472,478.882 919.034,445.037 938.387,417.748C940.404,414.903 935.716,412.198 933.716,415.018" style="fill:rgb(29,29,27);fill-rule:nonzero;"/>
            <path d="M972.531,410.727C949.337,436.537 940.951,474.814 951.23,507.959" style="fill:white;fill-rule:nonzero;"/>
            <path d="M970.619,408.814C946.801,435.718 938.222,474.243 948.622,508.678C949.625,512.002 954.849,510.586 953.838,507.24C944.012,474.703 951.889,438.116 974.445,412.64C976.744,410.041 972.932,406.202 970.619,408.814" style="fill:rgb(29,29,27);fill-rule:nonzero;"/>
            <path d="M1412.38,320.626C1407.92,319.197 1403.18,321.836 1399.93,324.933C1396.68,328.031 1393.92,331.814 1389.67,333.61C1386.47,334.959 1382.55,335.127 1380.06,337.418C1377.58,339.713 1377.43,343.557 1378.88,346.551C1380.34,349.545 1383.1,351.831 1385.95,353.792C1393.54,359.004 1402.27,362.557 1410.98,365.939C1421.07,369.863 1431.32,373.641 1442.06,375.56C1447.17,376.474 1452.51,376.951 1457.51,375.697C1462.51,374.444 1467.13,371.182 1468.61,366.6C1469.71,363.187 1468.81,359.128 1465.92,356.719C1464.88,355.858 1463.57,355.147 1463.08,353.947C1462.23,351.854 1464.3,349.847 1465.08,347.752C1465.98,345.38 1465.18,342.755 1464.27,340.368C1463.46,338.256 1462.48,336.069 1460.58,334.671C1459.12,333.602 1457.28,333.111 1455.46,332.767C1447.38,331.234 1438.9,332.099 1430.94,330.058C1424.21,328.332 1418.28,324.641 1412.49,321.009" style="fill:rgb(250,213,42);fill-rule:nonzero;"/>
            <path d="M1416.58,156.337L1411.13,176.396C1406.28,194.287 1401.39,212.516 1402.44,230.954C1403.5,249.392 1411.44,268.413 1427.56,278.919C1431.88,281.735 1436.67,283.872 1441.56,285.686C1445.6,287.185 1449.75,288.477 1454.03,289.134C1471.81,291.857 1489.86,283.105 1501.86,270.454C1513.85,257.804 1520.82,241.706 1526.98,225.768C1532.44,211.632 1537.81,199.196 1541.61,184.585C1505.36,161.688 1460.94,151.581 1417.24,156.286" style="fill:rgb(250,213,42);fill-rule:nonzero;"/>
            <path d="M1415.11,155.931C1405.09,192.856 1386.82,242.545 1419.1,274.077C1432.59,287.26 1454.6,294.264 1473,289.554C1491.89,284.721 1506.21,270.575 1515.73,254.095C1521.44,244.204 1525.56,233.548 1529.71,222.939C1534.6,210.429 1539.62,197.996 1543.08,184.99C1543.26,184.32 1542.96,183.63 1542.38,183.268C1505.22,160.013 1460.77,150.251 1417.24,154.761C1415.3,154.961 1415.28,158.014 1417.24,157.812C1460.28,153.352 1504.09,162.902 1540.84,185.902C1540.61,185.328 1540.37,184.754 1540.14,184.18C1537.49,194.169 1533.94,203.846 1530.18,213.462C1526.46,222.94 1522.95,232.539 1518.65,241.774C1510.6,259.071 1499.13,275.199 1481.33,283.371C1462.92,291.821 1440.97,287.667 1425.17,275.33C1411.2,264.422 1404.54,246.533 1403.89,229.226C1402.95,204.602 1411.68,180.211 1418.05,156.741C1418.56,154.845 1415.62,154.035 1415.11,155.931" style="fill:rgb(29,29,27);fill-rule:nonzero;"/>
            <path d="M1395.56,181.073C1399.58,182.897 1404.65,181.612 1407.9,178.731C1411.14,175.85 1412.79,171.674 1413.43,167.516C1414.33,161.669 1413.04,154.949 1407.98,151.458C1406.06,150.133 1403.76,149.389 1401.46,148.803C1397.65,147.833 1393.68,147.246 1389.76,147.659C1381.12,148.57 1373.6,154.442 1369.74,161.787C1365.89,169.132 1365.38,177.732 1366.88,185.803C1367.65,190.005 1368.96,194.135 1370.97,197.956C1377.58,210.496 1391.23,218.825 1397.51,231.51C1398.38,233.269 1399.11,235.171 1398.94,237.105C1398.77,239.037 1397.47,240.996 1395.47,241.475C1393.48,241.953 1391.07,240.357 1391.34,238.433C1390.28,238.393 1389.21,238.353 1388.14,238.313L1388.05,238.552C1387.02,242.47 1392.27,246.004 1396.32,244.68C1400.38,243.358 1402.46,238.85 1402.07,234.828C1401.67,230.807 1399.36,227.198 1396.93,223.868C1391.7,216.691 1385.67,210.049 1380.68,202.725C1375.69,195.401 1371.71,187.183 1371.25,178.491C1370.78,169.801 1374.33,160.581 1381.89,155.578C1389.45,150.575 1401.13,151.073 1406.97,157.811C1408.21,159.232 1409.17,160.889 1409.58,162.682C1410.28,165.7 1409.39,168.908 1407.69,171.551C1405.62,174.772 1400.92,177.372 1397.77,175.051L1397.38,175.271C1396.63,177.105 1395.88,178.939 1395.12,180.774" style="fill:rgb(250,213,42);fill-rule:nonzero;"/>
            <path d="M1395.15,182.544C1406.65,186.785 1414.78,175.24 1415.2,164.969C1415.75,151.829 1404.95,146.319 1393.13,146.01C1381.49,145.705 1371.16,153.546 1366.98,164.191C1362.22,176.337 1364.62,191.381 1371.69,202.149C1375.47,207.911 1380.45,212.744 1385.16,217.723C1387.69,220.398 1390.18,223.121 1392.37,226.084C1393.42,227.506 1394.39,228.988 1395.26,230.527C1395.58,231.103 1395.91,231.683 1396.19,232.28C1397.12,233.617 1397.4,235.06 1397.02,236.609C1397.51,239.281 1396.13,239.889 1392.87,238.434C1392.8,237.588 1392.22,236.942 1391.34,236.909C1390.28,236.868 1389.21,236.828 1388.14,236.787C1387.43,236.76 1386.9,237.288 1386.67,237.907C1385.45,241.195 1388.15,244.485 1391.02,245.729C1394.6,247.285 1398.54,246.177 1401.02,243.229C1408.55,234.284 1398.42,223.075 1392.93,216.181C1383.98,204.93 1372.85,192.454 1372.73,177.185C1372.63,163.66 1383.85,150.601 1398.19,154.34C1401.52,155.206 1404.65,156.965 1406.58,159.883C1409.5,164.313 1408.23,170.813 1403.44,173.526C1401.09,174.857 1398.91,172.746 1396.81,173.844C1395.05,174.763 1394.34,178.694 1393.65,180.368C1392.9,182.183 1395.86,182.973 1396.59,181.179C1396.96,180.278 1397.7,177.245 1398.32,176.765C1398.45,176.664 1397.58,177.017 1398.88,177.217C1400.88,177.522 1402.6,177.359 1404.44,176.429C1408.5,174.374 1411.16,169.808 1411.34,165.298C1411.75,154.846 1399.6,149.889 1390.85,150.86C1380.41,152.02 1372.73,160.246 1370.44,170.249C1367.6,182.654 1373.31,194.924 1380.31,204.86C1385.26,211.892 1391.1,218.251 1396.07,225.268C1398.56,228.787 1401.43,233.232 1400.37,237.747C1399.9,239.78 1398.81,241.486 1397.02,242.546C1394.81,243.848 1388.09,242.803 1389.62,238.717C1389.12,239.091 1388.63,239.464 1388.14,239.838C1389.21,239.878 1390.28,239.919 1391.34,239.959C1390.84,239.451 1390.33,238.942 1389.82,238.434C1390.12,242.343 1394.36,244.343 1397.66,242.1C1403.02,238.457 1399.48,231.42 1396.88,227.28C1388.88,214.563 1374.86,206.331 1369.93,191.616C1364.52,175.464 1369.11,152.46 1388.81,149.315C1398.46,147.774 1411.11,151.193 1412.11,162.386C1412.9,171.367 1406.61,183.53 1395.97,179.602C1394.12,178.921 1393.33,181.869 1395.15,182.544" style="fill:rgb(29,29,27);fill-rule:nonzero;"/>
            <path d="M1544.51,222.269C1540.08,221.758 1536.55,218.095 1535.47,214.019C1534.39,209.941 1535.41,205.591 1537.25,201.765C1539.85,196.386 1544.79,191.39 1551.05,191.03C1553.43,190.893 1555.79,191.436 1558.06,192.114C1561.82,193.236 1565.5,194.764 1568.56,197.107C1575.31,202.272 1578.27,211.043 1577.3,219.184C1576.32,227.324 1571.82,234.82 1565.93,240.849C1562.86,243.989 1559.39,246.8 1555.51,248.99C1542.76,256.179 1526.49,256.24 1513.93,263.713C1512.18,264.749 1510.48,265.976 1509.51,267.692C1508.55,269.406 1508.52,271.714 1509.92,273.133C1511.33,274.552 1514.27,274.434 1515.14,272.676C1516.06,273.185 1516.98,273.695 1517.9,274.203L1517.84,274.451C1516.47,278.276 1510.02,278.572 1507.37,275.397C1504.72,272.223 1505.55,267.368 1508.19,264.186C1510.83,261.003 1514.85,259.143 1518.8,257.576C1527.31,254.199 1536.2,251.683 1544.6,248.061C1553.01,244.438 1561.07,239.55 1566.45,232.474C1571.83,225.399 1574.13,215.835 1570.64,207.777C1567.15,199.72 1557.04,194.194 1548.25,196.887C1546.4,197.455 1544.64,198.36 1543.26,199.657C1540.94,201.839 1539.86,204.995 1539.77,208.084C1539.66,211.848 1542.12,216.426 1546.1,216.076L1546.3,216.459C1545.88,218.386 1545.47,220.313 1545.05,222.241" style="fill:rgb(250,213,42);fill-rule:nonzero;"/>
            <path d="M1544.91,220.798C1535.66,219.114 1535.37,208.921 1538.87,201.963C1542.31,195.11 1548.66,191.331 1556.28,193.199C1570.21,196.612 1578.89,208.691 1574.99,223.022C1571.31,236.543 1559.27,246.898 1546.39,251.333C1535.24,255.17 1522.77,256.277 1512.64,262.719C1509.36,264.807 1505.85,268.595 1507.85,272.774C1509.43,276.053 1513.98,276.564 1516.22,273.755C1515.6,273.835 1514.99,273.914 1514.37,273.994C1515.29,274.503 1516.21,275.012 1517.13,275.521C1516.9,274.946 1516.67,274.373 1516.43,273.798C1515.96,275.656 1513.38,276.139 1511.82,275.957C1509.58,275.697 1508.31,274.393 1507.63,272.312C1506.05,267.399 1510.55,263.356 1514.39,261.247C1521.14,257.53 1528.98,255.55 1536.21,252.953C1548.07,248.692 1560.58,243.244 1568.17,232.675C1574.4,224.013 1576.38,211.328 1569.2,202.589C1563.12,195.182 1550.72,191.446 1542.74,198.128C1538.72,201.482 1537.05,207.791 1539.15,212.642C1539.95,214.499 1541.35,216.384 1543.32,217.13C1543.6,217.237 1545.36,217.806 1544.97,217.307C1544.57,216.805 1543.71,221.211 1543.58,221.835C1543.16,223.749 1546.1,224.567 1546.52,222.646C1546.99,220.493 1548.51,217.379 1547.42,215.305C1547.17,214.828 1546.62,214.561 1546.1,214.55C1540.16,214.424 1540.7,205.987 1542.89,202.512C1545.66,198.106 1551.63,197.071 1556.38,198.1C1564.2,199.797 1570.08,206.41 1570.72,214.378C1572.16,232.41 1553.79,243.001 1539.43,248.524C1531.91,251.415 1524.13,253.647 1516.71,256.794C1511.16,259.145 1505.1,262.807 1504.33,269.389C1503.83,273.6 1505.95,277.705 1510.23,278.811C1513.64,279.694 1518.4,278.452 1519.38,274.609C1519.54,273.965 1519.27,273.216 1518.67,272.886C1517.75,272.378 1516.83,271.868 1515.91,271.359C1515.37,271.063 1514.48,271.07 1514.06,271.598C1514.98,270.446 1508.97,269.989 1512.06,266.927C1512.67,266.325 1513.46,265.82 1514.18,265.354C1515.57,264.448 1517.07,263.692 1518.57,262.996C1522.01,261.4 1525.65,260.258 1529.29,259.236C1536.2,257.3 1543.27,255.896 1549.96,253.26C1561.49,248.717 1571.73,239.503 1576.51,227.932C1580.82,217.489 1579.51,204.628 1570.67,196.872C1562.41,189.621 1548.64,186.17 1540.27,194.79C1532.41,202.878 1529.61,221.103 1544.1,223.74C1546.02,224.089 1546.85,221.149 1544.91,220.798" style="fill:rgb(29,29,27);fill-rule:nonzero;"/>
            <path d="M1378.97,338.112C1377.69,344.64 1376.12,351.117 1374.27,357.521L1374.43,358.067C1382.62,368.14 1395.67,373.43 1408.27,377.931C1417.25,381.141 1426.36,384.18 1435.83,385.69C1445.3,387.201 1455.22,387.126 1464.3,384.2L1464.49,384.601C1467.49,377.391 1469.64,369.869 1470.9,362.217L1465.22,356.102C1468.27,356.472 1470.36,359.671 1469.94,362.547C1469.52,365.423 1467.12,367.789 1464.31,368.992C1461.51,370.196 1458.34,370.407 1455.26,370.379C1440.12,370.249 1425.65,364.875 1411.59,359.58C1406.02,357.484 1400.45,355.387 1395,353.045C1390.5,351.115 1386.04,348.99 1382.27,345.984C1381.02,344.984 1379.8,343.818 1379.36,342.327C1378.67,339.99 1380.18,337.443 1382.38,336.17C1384.57,334.898 1387.27,334.674 1389.84,334.809L1393.22,325.162C1392.53,329.33 1391.51,333.449 1390.15,337.471L1390.69,337.415C1393.8,342.583 1399.53,345.794 1405.12,348.528C1410.24,351.028 1415.46,353.329 1420.78,355.426C1427.58,358.11 1434.61,360.475 1441.93,361.31C1449.25,362.146 1456.95,361.361 1463.43,358.041L1463.62,356.715C1464.89,352.113 1465.75,347.412 1466.19,342.678L1455.84,334.369C1451.46,337.405 1445.8,338.484 1440.38,338.128C1434.96,337.773 1429.73,336.082 1424.76,334.011C1419.23,331.709 1413.85,328.858 1409.67,324.744L1409.87,324.338C1423.5,314.819 1433.1,300.325 1436.19,284.612L1456.89,289.738C1450.33,303.303 1450.1,319.457 1456.27,333.182L1456.14,332.356C1460.1,333.151 1461.48,333.689 1464.12,336.579C1465.65,338.253 1466.89,340.39 1466.57,342.579C1466.35,344.04 1465.45,345.357 1464.3,346.353C1460.41,349.709 1454.43,349.395 1449.21,348.645C1435.97,346.74 1422.97,343.352 1410.57,338.575C1404.99,336.426 1399.43,333.929 1395.08,329.995C1394.31,329.29 1393.55,328.499 1393.27,327.515C1392.55,324.882 1395.54,322.716 1398.23,321.734C1403.43,319.835 1409.15,319.228 1414.67,319.988" style="fill:rgb(250,213,42);fill-rule:nonzero;"/>
            <path d="M1377.5,337.707C1376.3,343.704 1374.81,349.602 1373.26,355.513C1372.39,358.812 1373.66,359.756 1376.15,362.223C1382.92,368.93 1391.66,373.161 1400.43,376.626C1420.52,384.575 1443.16,392.202 1464.71,385.671C1464.14,385.438 1463.56,385.203 1462.99,384.97C1463.05,385.104 1463.11,385.237 1463.18,385.371C1463.8,386.7 1465.53,386.083 1465.96,385.007C1467.64,380.877 1469.11,376.681 1470.27,372.375C1470.97,369.73 1473.15,364.495 1472.37,361.811C1471.67,359.413 1467.97,356.83 1466.3,355.023L1464.81,357.573C1468.97,358.579 1469.31,363.039 1466.5,365.778C1464.34,367.877 1461.24,368.534 1458.36,368.774C1454.18,369.12 1449.79,368.703 1445.67,368.104C1437.37,366.897 1429.31,364.389 1421.43,361.592C1413.69,358.848 1405.98,355.96 1398.39,352.829C1394.52,351.23 1390.61,349.576 1387.02,347.405C1385.09,346.242 1382.14,344.723 1381.14,342.617C1378.37,336.776 1387.24,336.28 1389.84,336.336C1390.55,336.35 1391.09,335.844 1391.31,335.215C1392.44,331.999 1393.57,328.783 1394.69,325.567C1393.71,325.296 1392.73,325.027 1391.75,324.756C1391.02,328.942 1390,333.024 1388.68,337.066C1388.4,337.938 1389.18,339.099 1390.15,338.997C1389.84,339.03 1392.99,342.617 1393.67,343.212C1395.57,344.87 1397.67,346.256 1399.86,347.501C1405.39,350.647 1411.32,353.191 1417.19,355.614C1428.85,360.423 1441.41,364.667 1454.18,362.58C1457.74,361.998 1463.81,361.219 1465.05,357.465C1465.89,354.9 1466.37,352.03 1466.83,349.371C1467.14,347.558 1468.31,344.028 1467.66,342.272C1467.06,340.636 1464.38,339.281 1463.1,338.253C1461.04,336.599 1458.98,334.946 1456.92,333.291C1456.4,332.875 1455.68,332.663 1455.07,333.053C1441.69,341.577 1421.35,333.616 1410.75,323.666C1410.83,324.282 1410.91,324.899 1410.99,325.515C1411.48,324.523 1413.48,323.573 1414.36,322.862C1416.2,321.387 1417.96,319.816 1419.63,318.154C1422.54,315.261 1425.17,312.089 1427.51,308.72C1432.47,301.576 1435.88,293.52 1437.66,285.017C1437.03,285.372 1436.41,285.727 1435.78,286.082C1442.68,287.792 1449.58,289.501 1456.48,291.209L1455.57,288.969C1448.88,303.351 1448.67,319.394 1454.95,333.952C1455.69,335.676 1457.97,334.324 1457.74,332.777C1457.7,332.502 1457.66,332.226 1457.62,331.951C1456.99,332.577 1456.36,333.202 1455.74,333.828C1458.89,334.491 1463.29,336.035 1464.42,339.553C1466.68,346.631 1458.1,347.827 1453.22,347.55C1444.09,347.03 1434.72,344.62 1425.96,342.117C1417.57,339.719 1408.74,337.026 1401.19,332.55C1399.62,331.617 1396.62,330.225 1395.79,328.548C1395.23,327.445 1396.23,324.665 1397.28,323.854C1398.21,323.133 1399.68,322.843 1400.79,322.508C1405.31,321.147 1410.01,320.978 1414.67,321.514C1416.61,321.738 1416.6,318.685 1414.67,318.463C1409.86,317.91 1385.95,319.217 1392.61,329.518C1395.53,334.027 1402.33,336.819 1407.01,338.784C1413.68,341.577 1420.59,343.844 1427.56,345.73C1434.6,347.636 1441.78,349.146 1449.01,350.142C1453.97,350.826 1459.62,351.275 1464.05,348.435C1467.75,346.062 1469.13,341.962 1467.05,338.013C1464.84,333.814 1460.97,331.817 1456.55,330.886C1455.33,330.628 1454.5,331.596 1454.67,332.762C1454.71,333.037 1454.76,333.312 1454.8,333.588C1455.73,333.196 1456.66,332.805 1457.59,332.412C1451.78,318.957 1452.03,303.789 1458.2,290.509C1458.6,289.649 1458.32,288.523 1457.29,288.268C1450.39,286.558 1443.49,284.85 1436.59,283.141C1435.83,282.953 1434.89,283.382 1434.72,284.207C1432.94,292.695 1429.52,300.681 1424.48,307.752C1421.98,311.27 1419.1,314.519 1415.95,317.462C1413.84,319.431 1409.6,321.445 1408.35,323.975C1408.06,324.572 1408.08,325.339 1408.59,325.823C1420.2,336.712 1441.98,345.004 1456.61,335.687C1456,335.607 1455.38,335.528 1454.76,335.449C1457.67,337.785 1462.04,340.143 1464.28,343.09C1465.14,344.221 1464.87,343.689 1464.32,345.624C1463.56,348.296 1463.41,351.275 1462.75,354C1462.18,356.355 1462.49,357.11 1460.17,357.841C1457.25,358.764 1454.5,359.586 1451.42,359.894C1440.7,360.97 1430.22,357.559 1420.39,353.637C1410.89,349.848 1397.9,345.6 1392.01,336.646C1391.73,336.227 1391.23,335.833 1390.69,335.89C1390.51,335.908 1390.33,335.927 1390.15,335.946L1391.62,337.876C1392.94,333.834 1393.96,329.753 1394.69,325.567C1395.03,323.642 1392.41,322.884 1391.75,324.756C1390.62,327.972 1389.5,331.188 1388.37,334.404L1389.84,333.284C1385.29,333.189 1379.84,334.135 1378.1,339.007C1376.42,343.69 1380.64,346.898 1384.11,349.182C1389.61,352.812 1395.98,355.181 1402.09,357.58C1408.75,360.195 1415.45,362.745 1422.21,365.093C1434.11,369.23 1449.06,374.132 1461.81,371.363C1466.05,370.444 1470.69,367.611 1471.41,362.953C1472.02,358.977 1469.41,355.547 1465.62,354.631C1464.13,354.269 1463.1,356.058 1464.14,357.181C1465.58,358.733 1469.32,361.802 1469.44,363.327C1469.51,364.164 1468.4,367.199 1468.13,368.334C1467.75,369.955 1467.34,371.568 1466.88,373.169C1465.8,376.92 1464.49,380.582 1463.02,384.195C1463.95,384.075 1464.88,383.953 1465.81,383.831C1465.75,383.698 1465.68,383.564 1465.62,383.43C1465.35,382.84 1464.5,382.548 1463.9,382.729C1444.14,388.719 1423.9,382.124 1405.29,375.231C1396.91,372.128 1388.37,368.554 1381.39,362.845C1379.86,361.59 1378.04,360.169 1376.87,358.562C1375.6,356.804 1376.26,356.127 1376.86,353.915C1378.23,348.824 1379.41,343.688 1380.44,338.518C1380.82,336.601 1377.88,335.779 1377.5,337.707" style="fill:rgb(29,29,27);fill-rule:nonzero;"/>
            <path d="M1087.48,331.925C1040.5,332.73 993.747,343.548 951.717,363.335L951.531,363.393C944.93,344.856 946.043,324.497 951.11,305.538C956.177,286.578 965.017,268.732 973.84,251.034C977.911,242.869 982.071,234.38 982.145,225.359C982.217,216.339 976.985,206.608 967.782,204.107C957.552,201.326 947.174,208.198 940.373,215.918C933.736,223.452 928.556,232.523 927.844,242.29L929.55,244.978C918.53,242.966 907.663,240.212 897.058,236.745L898.789,236.63C896.924,229.028 899.552,221.076 903.173,214.06C913.355,194.327 933.054,178.08 956.18,175.457C979.305,172.834 1004.58,186.544 1009.92,207.899C1014.9,227.799 1003.03,247.483 994.439,266.258C985.853,285.022 980.255,304.995 977.89,325.306L977.985,327.545C989.17,317.267 1004.71,312.568 1019.74,308.534C1041.07,302.808 1062.6,297.751 1084.29,293.375" style="fill:rgb(33,109,180);fill-rule:nonzero;"/>
            <path d="M1087.48,330.4C1063.88,330.863 1040.35,333.718 1017.34,339.041C1005.82,341.707 994.435,344.983 983.261,348.856C977.561,350.832 971.917,352.967 966.334,355.254C961.307,357.315 956.289,360.328 951.125,361.922L953.001,362.987C939.974,325.079 957.686,286.902 974.401,253.322C980.744,240.578 988.333,225.101 979.752,211.523C971.775,198.9 956.574,200.436 945.89,208.652C939.147,213.838 933.49,221.121 929.928,228.835C928.228,232.517 927.025,236.397 926.513,240.425C926.199,242.894 926.94,243.712 928.233,245.748C928.807,245.001 929.381,244.255 929.955,243.507C918.95,241.458 908.117,238.716 897.464,235.274C897.328,236.272 897.193,237.271 897.058,238.27C897.635,238.231 898.212,238.193 898.789,238.156C899.82,238.087 900.469,237.239 900.26,236.225C898.144,225.952 903.256,215.809 908.837,207.476C913.756,200.131 920.009,193.608 927.212,188.472C941.204,178.497 958.787,174.001 975.608,178.477C990.649,182.479 1005.01,193.289 1008.63,209.069C1013.31,229.501 1000.4,249.182 992.432,267.013C987.841,277.281 984.088,287.918 981.281,298.811C978.947,307.875 976.061,318.122 976.459,327.545C976.516,328.901 978.069,329.512 979.064,328.624C992.291,316.814 1010.17,312.588 1026.89,308.219C1046.03,303.218 1065.31,298.774 1084.69,294.846C1086.62,294.456 1085.8,291.514 1083.88,291.904C1063.36,296.065 1042.95,300.802 1022.7,306.165C1006.49,310.458 989.702,315.043 976.906,326.467C977.774,326.826 978.642,327.185 979.51,327.545C979.082,317.4 982.403,306.137 985.08,296.409C988.28,284.782 992.628,273.571 997.788,262.679C1006.21,244.906 1017.64,224.248 1010.37,204.128C1004.93,189.063 990.363,178.884 975.206,175.227C957.96,171.065 939.98,175.659 925.673,185.837C917.843,191.408 911.111,198.458 905.834,206.486C899.935,215.464 895.068,226.105 897.318,237.036C897.808,236.391 898.298,235.748 898.789,235.105C898.212,235.143 897.635,235.181 897.058,235.219C895.352,235.332 894.975,237.673 896.653,238.215C907.306,241.659 918.138,244.401 929.145,246.45C930.368,246.677 931.634,245.417 930.868,244.209C929.428,241.942 929.293,241.223 929.927,238.351C930.804,234.378 932.271,230.617 934.254,227.064C937.929,220.479 943.01,214.346 949.201,209.991C955.59,205.495 964.32,202.893 971.446,207.343C977.124,210.888 980.293,217.625 980.599,224.179C980.99,232.612 977.227,240.714 973.599,248.094C970,255.416 966.307,262.69 962.878,270.096C956.377,284.139 950.584,298.668 947.609,313.909C944.369,330.514 944.527,347.697 950.06,363.798C950.321,364.56 951.107,365.119 951.936,364.863C957.095,363.271 962.138,360.253 967.146,358.196C972.217,356.112 977.346,354.163 982.517,352.341C993.671,348.413 1005.03,345.082 1016.54,342.36C1039.8,336.857 1063.59,333.92 1087.48,333.451C1089.44,333.413 1089.45,330.361 1087.48,330.4" style="fill:rgb(29,29,27);fill-rule:nonzero;"/>
            <path d="M1082.96,298.662C1083.2,298.41 1083.44,298.157 1083.68,297.905C1083.25,297.256 1083.08,296.457 1083.21,295.704C1084.07,306.956 1084.92,318.207 1085.78,329.458" style="fill:rgb(33,109,180);fill-rule:nonzero;"/>
            <path d="M1084.04,299.741C1084.28,299.488 1084.52,299.236 1084.76,298.983C1085.1,298.623 1085.35,297.994 1085.15,297.5C1085.01,296.901 1084.88,296.302 1084.74,295.704L1081.69,295.704C1082.54,306.955 1083.4,318.206 1084.25,329.458C1084.4,331.403 1087.45,331.419 1087.3,329.458C1086.45,318.206 1085.59,306.955 1084.74,295.704C1084.59,293.771 1081.66,293.716 1081.69,295.704C1081.68,294.899 1081.73,297.745 1081.88,297.583C1080.54,299.011 1082.69,301.173 1084.04,299.741" style="fill:rgb(29,29,27);fill-rule:nonzero;"/>
            <path d="M1153.74,122.078C1167.85,123.327 1182.05,123.705 1196.22,123.207L1198.26,124.075C1207.46,152.304 1216.65,180.534 1225.84,208.764C1234.11,180.565 1243.72,152.716 1254.66,125.335L1255.33,124.542C1267.31,125.505 1279.38,125.469 1291.35,124.437L1292.37,126.362C1276.99,174.12 1260.45,221.547 1242.76,268.591L1239.25,270.411C1227.77,269.496 1216.3,268.582 1204.82,267.667L1205.04,266.085C1185.71,219.599 1167.59,172.665 1150.7,125.342" style="fill:rgb(164,45,81);fill-rule:nonzero;"/>
            <path d="M1153.74,123.603C1164.92,124.564 1176.14,125.035 1187.36,124.93C1189.86,124.906 1192.63,124.47 1195.11,124.725C1197.69,124.991 1197.37,126.264 1198.17,128.714C1199.92,134.079 1201.66,139.441 1203.41,144.806C1210.4,166.261 1217.39,187.715 1224.37,209.17C1224.83,210.587 1226.88,210.651 1227.32,209.17C1233.17,189.246 1239.66,169.513 1246.82,150.019C1248.52,145.409 1250.25,140.814 1252.01,136.232C1252.95,133.806 1253.88,131.375 1254.85,128.964C1255.06,128.446 1255.69,126.211 1256.07,126.017C1256.58,125.765 1259.98,126.391 1260.47,126.419C1265.33,126.695 1270.19,126.802 1275.06,126.75C1277.64,126.721 1280.21,126.649 1282.78,126.53C1283.93,126.477 1285.07,126.415 1286.21,126.344C1285.95,126.36 1290.75,125.853 1290.19,125.508C1291.84,126.522 1287.87,135.32 1287.35,136.907C1285.61,142.239 1283.86,147.567 1282.09,152.89C1278.84,162.699 1275.53,172.49 1272.18,182.267C1265.27,202.386 1258.17,222.437 1250.86,242.412C1248.82,247.964 1246.78,253.509 1244.71,259.049C1243.45,262.449 1243.02,267.921 1238.92,268.864C1236.93,269.322 1233.58,268.434 1231.5,268.268C1228.63,268.04 1225.76,267.811 1222.89,267.582C1216.87,267.102 1210.85,266.622 1204.82,266.142C1205.31,266.785 1205.8,267.428 1206.29,268.072C1206.89,263.669 1203.8,259.152 1202.14,255.132C1199.58,248.907 1197.05,242.674 1194.53,236.433C1189.61,224.226 1184.77,211.985 1180.01,199.712C1170.39,174.914 1161.12,149.984 1152.17,124.936C1151.51,123.1 1148.57,123.891 1149.23,125.747C1157.88,149.969 1166.84,174.081 1176.11,198.069C1180.76,210.073 1185.48,222.046 1190.28,233.986C1192.57,239.688 1194.88,245.383 1197.2,251.069C1198.42,254.049 1199.65,257.027 1200.88,260.002C1201.77,262.176 1203.67,264.933 1203.35,267.262C1203.21,268.292 1203.74,269.106 1204.82,269.193C1214,269.924 1223.18,270.656 1232.36,271.388C1236.01,271.679 1241.32,272.871 1244.08,269.362C1245.08,268.096 1245.54,265.529 1246.1,264.015C1246.93,261.8 1247.76,259.584 1248.58,257.367C1250.23,252.934 1251.87,248.496 1253.49,244.057C1256.54,235.732 1259.56,227.395 1262.53,219.045C1268.69,201.797 1274.69,184.495 1280.54,167.141C1283.37,158.748 1286.16,150.344 1288.92,141.926C1290.39,137.442 1291.94,132.972 1293.3,128.452C1294.02,126.056 1293.79,125.781 1292.67,123.667C1292.43,123.227 1291.86,122.87 1291.35,122.912C1279.9,123.854 1268.51,123.814 1257.05,123.148C1253.7,122.954 1253.42,124.339 1252.23,127.347C1250.1,132.718 1248.02,138.111 1245.99,143.522C1238,164.863 1230.8,186.495 1224.37,208.358L1227.32,208.358C1219.68,184.928 1212.05,161.497 1204.42,138.066C1203.5,135.243 1202.58,132.42 1201.66,129.597C1201.13,127.96 1200.64,124.446 1199.46,123.15C1197.46,120.948 1193.41,121.778 1190.9,121.828C1178.5,122.074 1166.1,121.614 1153.74,120.552C1151.78,120.384 1151.79,123.435 1153.74,123.603" style="fill:rgb(29,29,27);fill-rule:nonzero;"/>
            <path d="M1222.5,469.671C1222.89,475.129 1223.62,480.565 1224.68,485.942C1224.78,486.453 1224.91,487.008 1225.35,487.333C1225.7,487.6 1226.18,487.648 1226.64,487.685C1236.21,488.464 1245.8,488.9 1255.41,488.993C1255.68,488.996 1255.97,488.996 1256.21,488.882C1256.86,488.586 1256.89,487.746 1256.84,487.073C1256.65,484.365 1256.8,481.638 1257.26,478.96L1257.03,479.671C1257.51,474.494 1257.99,469.316 1258.47,464.138C1259.39,454.23 1260.34,444.197 1263.85,434.815C1270.79,416.253 1287.52,400.688 1288.42,381.026C1288.69,375.08 1287.44,369.153 1285.66,363.443C1283.07,355.148 1279.27,347.082 1273.53,340.337C1261.88,326.658 1242.69,319.561 1224.09,320.277C1205.81,320.98 1187.97,328.927 1175.79,341.788C1162.14,356.218 1156.02,375.831 1154.61,395.118L1155.06,397.129C1166.03,398.023 1177,398.918 1187.97,399.812L1187.55,399.55C1185.97,390.237 1185.68,380.559 1188.47,371.502C1191.25,362.443 1197.41,354.035 1206.31,349.715C1209.66,348.088 1213.32,347.067 1217.02,346.404C1221.26,345.644 1225.65,345.345 1229.89,346.1C1238.69,347.667 1246.15,353.816 1250.07,361.398C1253.99,368.981 1254.63,377.82 1253.07,386.126C1251.51,394.432 1247.87,402.275 1243.56,409.67C1238.76,417.907 1233.1,425.723 1229.1,434.326C1223.31,446.76 1221.16,460.676 1222.94,474.149" style="fill:rgb(29,29,27);fill-rule:nonzero;"/>
            <path d="M1220.48,469.671C1220.7,472.582 1220.99,475.48 1221.39,478.373C1221.76,481.069 1221.84,484.745 1222.94,487.244C1224.72,491.278 1232.45,490.15 1235.93,490.352C1242.18,490.715 1249.47,491.898 1255.67,490.976C1260.6,490.244 1258.69,482.967 1259.2,479.497C1259.58,476.979 1256.13,475.888 1255.31,478.423C1255.23,478.661 1255.16,478.898 1255.08,479.135C1256.4,479.313 1257.72,479.493 1259.05,479.671C1260.27,466.538 1260.61,452.839 1264.25,440.093C1267.39,429.079 1273.97,419.677 1279.78,409.957C1284.63,401.861 1289.12,393.254 1290.21,383.744C1291.49,372.593 1287.79,360.878 1282.87,350.979C1263.23,311.471 1207.61,309.327 1177.35,337.407C1168.87,345.282 1162.7,355.298 1158.66,366.095C1156.44,372.03 1154.87,378.204 1153.85,384.456C1153.14,388.786 1152.16,393.348 1153.11,397.666C1153.31,398.582 1154.2,399.078 1155.06,399.148C1166.03,400.043 1177,400.937 1187.97,401.831C1190.06,402.001 1190.59,399.051 1188.99,398.067C1188.61,397.835 1188.48,390.313 1188.43,388.764C1188.28,384.513 1188.51,380.241 1189.38,376.073C1190.76,369.485 1193.65,363.239 1198.24,358.262C1207.82,347.858 1226.4,343.877 1238.64,351.722C1251.55,359.989 1253.9,376.406 1250.03,390.212C1246.02,404.573 1236.4,416.121 1229.48,429.066C1222.07,442.928 1219.03,458.53 1220.92,474.149C1221.23,476.696 1225.27,476.728 1224.96,474.149C1222.69,455.436 1228,438.69 1237.78,422.881C1246.43,408.891 1256.11,394.345 1255.87,377.211C1255.68,363.246 1247.88,349.838 1234.29,345.157C1220.38,340.365 1202.74,346.131 1193.67,357.403C1188.65,363.638 1185.83,371.198 1184.81,379.093C1184.22,383.682 1184.22,388.325 1184.65,392.929C1184.89,395.477 1184.53,400.066 1186.95,401.555L1187.97,397.793C1177,396.898 1166.03,396.003 1155.06,395.11C1155.71,395.604 1156.36,396.098 1157.01,396.592C1156.13,392.63 1157.29,388.042 1157.99,384.089C1158.89,379.048 1160.14,374.071 1161.82,369.232C1165.21,359.419 1170.46,350.199 1177.71,342.714C1191.69,328.274 1212.49,320.727 1232.47,322.497C1253,324.316 1271.19,335.542 1280.05,354.408C1284.75,364.406 1288.02,376.189 1285.55,387.193C1283.47,396.501 1278.29,404.726 1273.35,412.748C1267.59,422.094 1262.06,431.437 1259.52,442.23C1256.64,454.432 1256.16,467.228 1255.01,479.671C1254.79,482.03 1258.3,482.277 1258.97,480.208C1259.05,479.971 1259.13,479.734 1259.2,479.497C1257.91,479.139 1256.61,478.781 1255.31,478.423C1255.04,480.219 1254.8,481.999 1254.75,483.819C1254.72,484.904 1254.75,485.989 1254.82,487.073C1253.89,486.939 1252.96,486.89 1252.02,486.926C1247.5,486.749 1242.99,486.686 1238.47,486.453C1236.21,486.337 1233.96,486.2 1231.71,486.046C1230.58,485.969 1229.45,485.887 1228.33,485.8C1226.77,485.984 1226.1,485.314 1226.32,483.79C1225.4,481.856 1225.4,478.267 1225.15,476.208C1224.88,474.034 1224.69,471.855 1224.52,469.671C1224.32,467.097 1220.28,467.075 1220.48,469.671" style="fill:rgb(29,29,27);fill-rule:nonzero;"/>
            <path d="M1224.31,510.335C1225.03,520.259 1225.75,530.184 1226.47,540.108C1226.5,540.39 1226.52,540.688 1226.69,540.919C1226.99,541.31 1227.57,541.361 1228.08,541.375C1238.27,541.664 1248.47,541.952 1258.66,542.242C1258.9,542.248 1259.16,542.247 1259.35,542.103C1259.55,541.945 1259.58,541.675 1259.6,541.43C1260.45,530.921 1260.47,520.352 1259.66,509.839C1259.63,509.524 1259.59,509.184 1259.37,508.946C1259.14,508.699 1258.77,508.627 1258.42,508.577C1256.73,508.33 1255.01,508.24 1253.3,508.167C1244.02,507.771 1234.7,507.9 1225.44,508.55L1224.31,510.335Z" style="fill:rgb(29,29,27);fill-rule:nonzero;"/>
            <path d="M1222.56,510.335L1224.21,533.103C1224.51,537.16 1223.36,542.19 1228.08,543.125C1231.69,543.841 1236.1,543.352 1239.77,543.456C1243.67,543.567 1247.57,543.677 1251.47,543.788C1253.39,543.843 1258.3,544.844 1260.02,543.703C1261.44,542.762 1261.36,541.283 1261.49,539.679C1262.08,532.097 1262.15,524.452 1261.83,516.854C1261.73,514.525 1262.31,510.479 1261.06,508.481C1260.06,506.889 1258.58,506.807 1256.72,506.628C1249.27,505.908 1241.61,506.083 1234.14,506.343C1231.54,506.434 1227.35,505.783 1224.97,506.862C1223.87,507.363 1223.42,508.456 1222.79,509.451C1221.58,511.36 1224.61,513.118 1225.82,511.217C1226.86,509.573 1226.42,510.125 1228.05,510.132C1230.65,510.145 1233.27,509.862 1235.88,509.789C1241.1,509.643 1246.34,509.659 1251.56,509.849C1254.37,509.951 1257.19,509.323 1258.09,512.469C1258.75,514.793 1258.38,517.978 1258.44,520.366C1258.57,525.635 1258.49,530.909 1258.21,536.171C1258.04,539.225 1258.27,540.197 1255.07,540.39C1252.41,540.55 1249.63,540.236 1246.97,540.16C1241.57,540.007 1236.17,539.855 1230.78,539.701C1229.88,539.676 1228.98,539.651 1228.08,539.625C1228.09,539.202 1228.09,538.78 1228.1,538.356C1227.73,537.445 1227.91,535.842 1227.84,534.853C1227.65,532.227 1227.46,529.6 1227.27,526.973C1226.86,521.427 1226.46,515.881 1226.06,510.335C1225.89,508.101 1222.39,508.084 1222.56,510.335" style="fill:rgb(29,29,27);fill-rule:nonzero;"/>
            <path d="M1296.97,472.172C1296.38,465.778 1296.41,453.005 1306.35,455.094C1311.49,456.173 1315.89,458.185 1320.74,454.966C1324.15,452.705 1326.1,448.847 1328.21,445.484C1329.49,443.45 1330.87,441.229 1332.96,439.925C1335.9,438.086 1339.65,438.575 1342.95,438.41C1348.2,438.149 1352.55,436.705 1356.05,432.664C1358.94,429.327 1360.89,423.788 1365.05,421.817C1368.38,420.239 1372.55,421.853 1376.07,421.784C1378.94,421.726 1381.77,421.11 1384.42,420.028C1389.52,417.951 1393.66,414.221 1396.14,409.303C1397.89,405.803 1392.63,402.71 1390.87,406.222C1387.63,412.653 1381.11,416.1 1373.98,415.596C1367.85,415.16 1362.78,414.689 1358.24,419.455C1354.92,422.927 1353.13,428.42 1348.9,430.947C1343.54,434.157 1336.4,431.229 1330.73,434.18C1326.64,436.308 1324.22,440.344 1321.88,444.145C1320.73,446.028 1319.55,448.261 1317.74,449.627C1315.04,451.67 1312.16,450.379 1309.27,449.571C1303.9,448.069 1298.85,448.904 1294.93,453.128C1290.1,458.333 1290.26,465.549 1290.87,472.172C1291.23,476.049 1297.33,476.087 1296.97,472.172" style="fill:rgb(29,29,27);fill-rule:nonzero;"/>
            <path d="M1272.35,246.334C1274.62,246.149 1276.87,246.061 1279.13,246.314C1281.32,246.558 1282.11,246.239 1281.08,248.463C1280,250.781 1278.1,252.574 1277.28,255.058C1275.76,259.666 1278.04,263.493 1281.77,266.138C1282.72,266.813 1284.05,267.356 1284.92,268.113C1287.84,270.641 1286.02,271.859 1284.19,273.914C1282.63,275.68 1280.99,277.491 1280.36,279.827C1279.68,282.322 1280.2,284.938 1281.35,287.202C1282.73,289.912 1286.42,292.479 1287.04,295.377C1287.14,294.593 1287.24,293.809 1287.34,293.026C1286.57,294.757 1284.85,296.071 1283.72,297.603C1282.45,299.33 1281.47,301.158 1280.66,303.142C1279.07,307.05 1278.56,311.196 1279.03,315.38C1279.46,319.239 1285.57,319.283 1285.13,315.38C1284.57,310.336 1285.57,305.413 1288.57,301.241C1290.73,298.25 1294.39,296.067 1292.38,291.929C1290.06,287.163 1283.54,284.279 1288.08,278.693C1290.39,275.854 1293.23,273.124 1292.78,269.099C1292.33,265.077 1288.86,263.564 1285.88,261.565C1283.41,259.91 1282.33,258.27 1283.84,255.446C1284.66,253.919 1285.82,252.591 1286.61,251.038C1288,248.273 1288.88,244.647 1286.3,242.27C1283.1,239.336 1276.26,239.913 1272.35,240.232C1268.47,240.55 1268.43,246.654 1272.35,246.334" style="fill:rgb(29,29,27);fill-rule:nonzero;"/>
            <path d="M1068.4,373.207C1071.42,371.763 1076.86,369.315 1078.55,373.62C1079.65,376.432 1078.36,379.816 1077.81,382.613C1076.94,387.111 1076.69,392.436 1080.26,395.906C1084.39,399.932 1090.55,398.578 1095.7,398.426C1098.76,398.337 1102.36,398.383 1104.07,401.362C1105.32,403.534 1105.31,406.43 1105.88,408.815C1106.86,412.928 1109.2,416.489 1113.52,417.571C1118.2,418.744 1124.69,414.793 1128.77,417.148C1132.31,419.188 1131.16,426.19 1132.49,429.644C1134.04,433.673 1137.67,435.995 1142,435.622C1144.72,435.387 1147.11,434.127 1149.6,433.113C1151.08,432.51 1152.64,431.808 1154.26,431.872C1156.41,431.956 1157.88,433.387 1159.55,434.563C1163.49,437.342 1169.59,438.377 1172.36,433.468C1174.29,430.045 1169.02,426.965 1167.09,430.388C1165.86,432.56 1160.34,427.574 1159.33,427.043C1157.29,425.968 1155.17,425.562 1152.89,425.829C1149.22,426.257 1141.06,432.162 1138.44,428.086C1136.29,424.763 1137.51,419.671 1135.74,416.023C1133.83,412.098 1129.95,410.348 1125.71,410.542C1121.09,410.753 1113.97,414.322 1112.02,408.201C1110.67,403.988 1110.95,399.4 1107.67,395.988C1103.87,392.037 1098.09,392.142 1093.03,392.47C1090.16,392.655 1086.06,393.489 1084.12,390.882C1082.34,388.486 1083.68,384.531 1084.21,381.934C1085.22,377.092 1085.78,371.271 1081.78,367.548C1077.04,363.136 1070.38,365.516 1065.32,367.939C1061.78,369.636 1064.88,374.898 1068.4,373.207" style="fill:rgb(29,29,27);fill-rule:nonzero;"/>
            <path d="M1170.43,710.141C1176.37,699.431 1172.5,685.915 1161.79,679.977C1151.08,674.039 1137.56,677.913 1131.62,688.623C1125.69,699.332 1129.56,712.848 1140.27,718.786C1150.98,724.724 1164.5,720.851 1170.43,710.141Z" style="fill:none;stroke:rgb(1,3,3);stroke-width:4.52px;"/>
            <path d="M1242.27,696.693C1249.35,683.925 1244.73,667.811 1231.96,660.731C1219.19,653.652 1203.08,658.271 1196,671.039C1188.92,683.807 1193.54,699.92 1206.3,707C1219.07,714.079 1235.19,709.461 1242.27,696.693Z" style="fill:none;stroke:rgb(1,3,3);stroke-width:4.52px;"/>
            <path d="M1104.09,686.669C1108.57,678.586 1105.64,668.384 1097.56,663.902C1089.48,659.419 1079.28,662.343 1074.79,670.427C1070.31,678.51 1073.24,688.712 1081.32,693.194C1089.4,697.677 1099.6,694.753 1104.09,686.669Z" style="fill:none;stroke:rgb(1,3,3);stroke-width:3.41px;"/>
        </g>
    </g>
</svg>
