<svg version="1.1" xmlns="http://www.w3.org/2000/svg" viewBox="0 0 1151.0363558776928 447.069706627044" width="1151.0363558776928" height="447.069706627044">
  <!-- svg-source:excalidraw -->
  
  <defs>
    <style class="style-fonts">
      @font-face {
        font-family: "Virgil";
        src: url("https://file%2B.vscode-resource.vscode-cdn.net/c%3A/Users/bauz/.vscode/extensions/pomdtr.excalidraw-editor-3.5.1/public//dist/excalidraw-assets/Virgil.woff2");
      }
      @font-face {
        font-family: "Cascadia";
        src: url("https://file%2B.vscode-resource.vscode-cdn.net/c%3A/Users/bauz/.vscode/extensions/pomdtr.excalidraw-editor-3.5.1/public//dist/excalidraw-assets/Cascadia.woff2");
      }
    </style>
  </defs>
  <rect x="0" y="0" width="1151.0363558776928" height="447.069706627044" fill="#ffffff"></rect><g stroke-linecap="round"><g transform="translate(705.9980081685469 324.05348741728506) rotate(0 26.66027280477374 -24.29359666571918)" fill-rule="evenodd"><path d="M0 0 L38.77 22.05 L52.89 13.62 L53.37 -47.72 L14.07 -70.64 L-0.05 -61.62 L0 0" stroke="none" stroke-width="0" fill="#ced4da" fill-rule="evenodd"></path><path d="M0 0 C10.97 6.24, 21.93 12.47, 38.77 22.05 M0 0 C7.94 4.52, 15.88 9.03, 38.77 22.05 M38.77 22.05 C44.36 18.72, 49.95 15.38, 52.89 13.62 M38.77 22.05 C43.04 19.5, 47.31 16.96, 52.89 13.62 M52.89 13.62 C53.01 -1.46, 53.13 -16.54, 53.37 -47.72 M52.89 13.62 C53.04 -5.81, 53.19 -25.24, 53.37 -47.72 M53.37 -47.72 C41.65 -54.55, 29.93 -61.39, 14.07 -70.64 M53.37 -47.72 C45.45 -52.34, 37.53 -56.96, 14.07 -70.64 M14.07 -70.64 C8.93 -67.35, 3.78 -64.07, -0.05 -61.62 M14.07 -70.64 C8.82 -67.29, 3.57 -63.93, -0.05 -61.62 M-0.05 -61.62 C-0.04 -47.17, -0.03 -32.72, 0 0 M-0.05 -61.62 C-0.03 -38.56, -0.01 -15.51, 0 0 M0 0 C0 0, 0 0, 0 0 M0 0 C0 0, 0 0, 0 0" stroke="#495057" stroke-width="2" fill="none"></path></g></g><mask></mask><g stroke-linecap="round"><g transform="translate(706.048297563045 262.5282803669012) rotate(0 19.765625 41.58288043478251)"><path d="M0 0 C11.17 6.58, 22.34 13.16, 39.53 23.28 M0 0 C11.27 6.64, 22.54 13.28, 39.53 23.28 M39.53 23.28 C39.42 38.56, 39.31 53.84, 39.1 83.17 M39.53 23.28 C39.44 35.97, 39.35 48.67, 39.1 83.17" stroke="#495057" stroke-width="2" fill="none"></path></g></g><mask></mask><g stroke-linecap="round"><g transform="translate(745.796938867393 285.55817167124917) rotate(0 6.689967105263349 -4.255756578947285)"><path d="M0 0 C2.77 -1.76, 5.54 -3.52, 13.38 -8.51 M0 0 C4.75 -3.02, 9.5 -6.04, 13.38 -8.51" stroke="#495057" stroke-width="2" fill="none"></path></g></g><mask></mask><g stroke-linecap="round"><g transform="translate(705.7908604921065 314.66286274676406) rotate(0 26.294518525839635 11.509046052631675)"><path d="M0 0 C8.06 4.74, 16.12 9.48, 39.14 23.02 M0 0 C15.35 9.03, 30.7 18.05, 39.14 23.02 M39.14 23.02 C44.42 19.63, 49.7 16.24, 52.59 14.39 M39.14 23.02 C42.59 20.8, 46.05 18.59, 52.59 14.39" stroke="#495057" stroke-width="2" fill="none"></path></g></g><mask></mask><g stroke-linecap="round"><g transform="translate(706.5288467621297 295.0289954698752) rotate(0 26.34886635192663 11.509046052631675)"><path d="M0 0 C13.62 8.01, 27.23 16.02, 39.14 23.02 M0 0 C15.01 8.83, 30.03 17.66, 39.14 23.02 M39.14 23.02 C42.48 20.89, 45.83 18.76, 52.7 14.39 M39.14 23.02 C42.23 21.05, 45.32 19.09, 52.7 14.39" stroke="#495057" stroke-width="2" fill="none"></path></g></g><mask></mask><g stroke-linecap="round"><g transform="translate(706.0082517964545 284.1708719000818) rotate(0 26.185822873665643 11.509046052631675)"><path d="M0 0 C15.34 9.02, 30.69 18.05, 39.14 23.02 M0 0 C7.98 4.69, 15.96 9.39, 39.14 23.02 M39.14 23.02 C43.44 20.28, 47.75 17.55, 52.37 14.61 M39.14 23.02 C43.66 20.14, 48.19 17.27, 52.37 14.61" stroke="#495057" stroke-width="2" fill="none"></path></g></g><mask></mask><g stroke-linecap="round"><g transform="translate(706.0082517964545 273.87796572159243) rotate(0 26.24017069975264 11.509046052631675)"><path d="M0 0 C15.28 8.98, 30.55 17.97, 39.14 23.02 M0 0 C8.54 5.02, 17.07 10.04, 39.14 23.02 M39.14 23.02 C41.9 21.25, 44.66 19.49, 52.48 14.5 M39.14 23.02 C43.19 20.43, 47.24 17.85, 52.48 14.5" stroke="#495057" stroke-width="2" fill="none"></path></g></g><mask></mask><g stroke-linecap="round"><g transform="translate(718.7136365035656 280.1330495250319) rotate(0 6.827560795873296 -9.279661016949149)"><path d="M0 0 C-0.05 -3.94, -0.09 -7.88, -0.12 -10.59 M0 0 C-0.03 -2.48, -0.06 -4.97, -0.12 -10.59 M-0.12 -10.59 C5.08 -13.57, 10.28 -16.55, 13.78 -18.56 M-0.12 -10.59 C4.16 -13.05, 8.45 -15.51, 13.78 -18.56" stroke="#495057" stroke-width="2" fill="none"></path></g></g><mask></mask><g stroke-linecap="round"><g transform="translate(735.7991191859539 290.3946560099249) rotate(0 6.962048636698228 -9.666543846721197)"><path d="M0 0 C-0.05 -3.36, -0.11 -6.71, -0.17 -10.74 M0 0 C-0.04 -2.27, -0.07 -4.54, -0.17 -10.74 M-0.17 -10.74 C4.95 -13.82, 10.08 -16.91, 14.09 -19.33 M-0.17 -10.74 C2.94 -12.61, 6.05 -14.48, 14.09 -19.33" stroke="#495057" stroke-width="2" fill="none"></path></g></g><mask></mask><g stroke-linecap="round"><g transform="translate(713.289907690006 278.72921754271704) rotate(0 0.02394988946207377 4.39941046425929)"><path d="M0 0 C0.01 1.77, 0.02 3.54, 0.05 8.8 M0 0 C0.02 2.86, 0.03 5.73, 0.05 8.8" stroke="#495057" stroke-width="2" fill="none"></path></g></g><mask></mask><g stroke-linecap="round"><g transform="translate(730.6812120378329 288.9466088470655) rotate(0 0.02394988946207377 4.39941046425929)"><path d="M0 0 C0.02 3.03, 0.03 6.05, 0.05 8.8 M0 0 C0.02 3.09, 0.03 6.18, 0.05 8.8" stroke="#495057" stroke-width="2" fill="none"></path></g></g><mask></mask><g stroke-linecap="round"><g transform="translate(706.3114554577817 305.46377807857164) rotate(0 26.34886635192663 11.509046052631675)"><path d="M0 0 C13.06 7.68, 26.12 15.36, 39.14 23.02 M0 0 C10.73 6.31, 21.47 12.63, 39.14 23.02 M39.14 23.02 C43.06 20.53, 46.98 18.03, 52.7 14.39 M39.14 23.02 C43.96 19.95, 48.79 16.88, 52.7 14.39" stroke="#495057" stroke-width="2" fill="none"></path></g></g><mask></mask><g stroke-linecap="round"><g transform="translate(735.0290381247889 301.77269580358745) rotate(0 0.02394988946207377 4.39941046425929)"><path d="M0 0 C0.02 3.08, 0.03 6.17, 0.05 8.8 M0 0 C0.01 1.85, 0.02 3.7, 0.05 8.8" stroke="#495057" stroke-width="2" fill="none"></path></g></g><mask></mask><g stroke-linecap="round"><g transform="translate(718.0725163856589 293.07704362967445) rotate(0 0.02394988946207377 3.8559322033897843)"><path d="M0 0 C0.02 2.74, 0.03 5.49, 0.05 7.71 M0 0 C0.01 1.73, 0.02 3.46, 0.05 7.71" stroke="#495057" stroke-width="2" fill="none"></path></g></g><mask></mask><g stroke-linecap="round"><g transform="translate(729.3768642117459 308.294434934022) rotate(0 0.02394988946207377 4.39941046425929)"><path d="M0 0 C0.02 2.84, 0.03 5.68, 0.05 8.8 M0 0 C0.02 3.39, 0.04 6.79, 0.05 8.8" stroke="#495057" stroke-width="2" fill="none"></path></g></g><mask></mask><g stroke-linecap="round"><g transform="translate(712.2029511682679 299.1640001514139) rotate(0 0.02394988946207377 4.39941046425929)"><path d="M0 0 C0.01 1.87, 0.02 3.74, 0.05 8.8 M0 0 C0.01 2.3, 0.03 4.6, 0.05 8.8" stroke="#495057" stroke-width="2" fill="none"></path></g></g><mask></mask><g stroke-linecap="round"><g transform="translate(718.5072989943549 313.51182623836996) rotate(0 0.02394988946207377 4.39941046425929)"><path d="M0 0 C0.01 1.96, 0.02 3.93, 0.05 8.8 M0 0 C0.02 3.24, 0.04 6.49, 0.05 8.8" stroke="#495057" stroke-width="2" fill="none"></path></g></g><mask></mask><g stroke-linecap="round"><g transform="translate(733.9420816030499 321.990087107935) rotate(0 0.02394988946207377 4.0733235077377685)"><path d="M0 0 C0.01 1.7, 0.02 3.39, 0.05 8.15 M0 0 C0.01 1.82, 0.02 3.63, 0.05 8.15" stroke="#495057" stroke-width="2" fill="none"></path></g></g><mask></mask><g stroke-linecap="round"><g transform="translate(728.9420816030499 328.29443493402243) rotate(0 0.02394988946207377 3.8559322033897843)"><path d="M0 0 C0.02 2.66, 0.03 5.32, 0.05 7.71 M0 0 C0.02 2.49, 0.03 4.98, 0.05 7.71" stroke="#495057" stroke-width="2" fill="none"></path></g></g><mask></mask><g stroke-linecap="round"><g transform="translate(712.8551250813109 319.8161740644574) rotate(0 0.02394988946207377 3.8559322033897843)"><path d="M0 0 C0.01 1.99, 0.02 3.98, 0.05 7.71 M0 0 C0.02 3.07, 0.04 6.14, 0.05 7.71" stroke="#495057" stroke-width="2" fill="none"></path></g></g><mask></mask><g transform="translate(228.45089487687915 337.56639618553993) rotate(0 27.48998260498047 12.5)"><text x="0" y="0" font-family="Virgil, Segoe UI Emoji" font-size="20px" fill="#000000" text-anchor="start" style="white-space: pre;" direction="ltr" dominant-baseline="text-before-edge">Maria</text></g><g stroke-linecap="round"><g transform="translate(225.66367422837175 327.9134701755612) rotate(0 25.819645202628976 -21.79569932933711)" fill-rule="evenodd"><path d="M13.47 -38.64 C13.47 -38.64, 13.47 -38.64, 13.47 -38.64 M13.47 -38.64 C13.47 -38.64, 13.47 -38.64, 13.47 -38.64 M7.04 -19.05 C11.7 -24.41, 16.36 -29.77, 26.72 -41.69 M7.04 -19.05 C12 -24.75, 16.95 -30.45, 26.72 -41.69 M0.61 0.53 C13.03 -13.75, 25.45 -28.04, 35.39 -39.47 M0.61 0.53 C7.58 -7.48, 14.54 -15.49, 35.39 -39.47 M11.24 0.5 C18.01 -7.28, 24.78 -15.07, 40.77 -33.46 M11.24 0.5 C17.36 -6.54, 23.48 -13.57, 40.77 -33.46 M21.87 0.47 C28.31 -6.93, 34.74 -14.33, 46.81 -28.21 M21.87 0.47 C27.82 -6.37, 33.76 -13.2, 46.81 -28.21 M29.22 4.2 C36.99 -4.73, 44.75 -13.66, 50.87 -20.7 M29.22 4.2 C36.96 -4.7, 44.7 -13.6, 50.87 -20.7 M41.82 1.91 C45.97 -2.86, 50.11 -7.63, 54.94 -13.19 M41.82 1.91 C44.67 -1.37, 47.51 -4.64, 54.94 -13.19 M0 0 C0 0, 0 0, 0 0 M0 0 C0 0, 0 0, 0 0 M12.04 -0.13 C8.43 -3.27, 4.83 -6.4, 1.47 -9.32 M12.04 -0.13 C8.34 -3.35, 4.63 -6.58, 1.47 -9.32 M24.84 0.39 C16.95 -6.47, 9.06 -13.33, 2.95 -18.64 M24.84 0.39 C18.56 -5.07, 12.28 -10.53, 2.95 -18.64 M30.08 -5.65 C21.75 -12.9, 13.41 -20.14, 6.69 -25.99 M30.08 -5.65 C21.47 -13.14, 12.85 -20.63, 6.69 -25.99 M45.9 -2.5 C33.17 -13.56, 20.44 -24.63, 9.67 -33.99 M45.9 -2.5 C36.9 -10.32, 27.9 -18.14, 9.67 -33.99 M52.66 -7.23 C41.58 -16.86, 30.5 -26.48, 14.92 -40.03 M52.66 -7.23 C44.64 -14.2, 36.62 -21.17, 14.92 -40.03 M51.11 -19.17 C41.57 -27.46, 32.03 -35.76, 20.92 -45.41 M51.11 -19.17 C39.97 -28.86, 28.82 -38.55, 20.92 -45.41" stroke="#ced4da" stroke-width="1" fill="none"></path><path d="M0 0 C0.92 -4.85, 1.58 -21.76, 5.52 -29.07 C9.46 -36.38, 17.61 -43.34, 23.65 -43.87 C29.69 -44.4, 37.51 -39.05, 41.78 -32.24 C46.05 -25.43, 56.23 -8.39, 49.27 -3.02 C42.31 2.36, 8.21 -0.5, 0 0 M0 0 C0.92 -4.85, 1.58 -21.76, 5.52 -29.07 C9.46 -36.38, 17.61 -43.34, 23.65 -43.87 C29.69 -44.4, 37.51 -39.05, 41.78 -32.24 C46.05 -25.43, 56.23 -8.39, 49.27 -3.02 C42.31 2.36, 8.21 -0.5, 0 0" stroke="#000000" stroke-width="2" fill="none"></path></g></g><mask></mask><g stroke-linecap="round" transform="translate(238.11754506468742 261.2224223897048) rotate(0 12.612971703843215 11.036350240862845)"><path d="M2.98 3.91 C2.98 3.91, 2.98 3.91, 2.98 3.91 M2.98 3.91 C2.98 3.91, 2.98 3.91, 2.98 3.91 M2.45 16.71 C5.78 12.89, 9.1 9.07, 16.23 0.86 M2.45 16.71 C7.3 11.13, 12.15 5.55, 16.23 0.86 M8.49 21.96 C13.31 16.41, 18.13 10.87, 23.58 4.6 M8.49 21.96 C12.58 17.26, 16.66 12.56, 23.58 4.6 M4.36 19.37 C4.36 19.37, 4.36 19.37, 4.36 19.37 M4.36 19.37 C4.36 19.37, 4.36 19.37, 4.36 19.37 M17.91 20.55 C13.15 16.41, 8.39 12.27, 1.31 6.11 M17.91 20.55 C13.91 17.07, 9.92 13.59, 1.31 6.11 M24.67 15.82 C19.9 11.67, 15.12 7.52, 7.31 0.73 M24.67 15.82 C20.35 12.06, 16.02 8.3, 7.31 0.73" stroke="#ced4da" stroke-width="1" fill="none"></path><path d="M25.23 11.04 C25.23 11.68, 25.16 12.32, 25.03 12.95 C24.91 13.58, 24.71 14.21, 24.47 14.81 C24.22 15.41, 23.9 16, 23.54 16.55 C23.17 17.11, 22.74 17.64, 22.28 18.13 C21.81 18.62, 21.28 19.08, 20.72 19.49 C20.16 19.9, 19.55 20.27, 18.92 20.59 C18.29 20.91, 17.61 21.19, 16.93 21.41 C16.24 21.63, 15.52 21.79, 14.8 21.91 C14.08 22.02, 13.34 22.07, 12.61 22.07 C11.88 22.07, 11.14 22.02, 10.42 21.91 C9.7 21.79, 8.99 21.63, 8.3 21.41 C7.61 21.19, 6.94 20.91, 6.31 20.59 C5.67 20.27, 5.06 19.9, 4.51 19.49 C3.95 19.08, 3.42 18.62, 2.95 18.13 C2.48 17.64, 2.05 17.11, 1.69 16.55 C1.32 16, 1.01 15.41, 0.76 14.81 C0.51 14.21, 0.32 13.58, 0.19 12.95 C0.06 12.32, 0 11.68, 0 11.04 C0 10.4, 0.06 9.75, 0.19 9.12 C0.32 8.49, 0.51 7.86, 0.76 7.26 C1.01 6.66, 1.32 6.07, 1.69 5.52 C2.05 4.96, 2.48 4.43, 2.95 3.94 C3.42 3.45, 3.95 2.99, 4.51 2.58 C5.06 2.17, 5.67 1.8, 6.31 1.48 C6.94 1.16, 7.61 0.88, 8.3 0.67 C8.99 0.45, 9.7 0.28, 10.42 0.17 C11.14 0.06, 11.88 0, 12.61 0 C13.34 0, 14.08 0.06, 14.8 0.17 C15.52 0.28, 16.24 0.45, 16.93 0.67 C17.61 0.88, 18.29 1.16, 18.92 1.48 C19.55 1.8, 20.16 2.17, 20.72 2.58 C21.28 2.99, 21.81 3.45, 22.28 3.94 C22.74 4.43, 23.17 4.96, 23.54 5.52 C23.9 6.07, 24.22 6.66, 24.47 7.26 C24.71 7.86, 24.91 8.49, 25.03 9.12 C25.16 9.75, 25.19 10.72, 25.23 11.04 C25.26 11.36, 25.26 10.72, 25.23 11.04" stroke="#000000" stroke-width="2" fill="none"></path></g><g transform="translate(797.2133573263069 335.71076086541467) rotate(0 23.439979553222656 12.5)"><text x="0" y="0" font-family="Virgil, Segoe UI Emoji" font-size="20px" fill="#000000" text-anchor="start" style="white-space: pre;" direction="ltr" dominant-baseline="text-before-edge">Reto</text></g><g stroke-linecap="round"><g transform="translate(794.4261366777997 326.05783485543594) rotate(0 25.819645202628976 -21.79569932933711)" fill-rule="evenodd"><path d="M13.47 -38.64 C13.47 -38.64, 13.47 -38.64, 13.47 -38.64 M13.47 -38.64 C13.47 -38.64, 13.47 -38.64, 13.47 -38.64 M7.04 -19.05 C11.7 -24.41, 16.36 -29.77, 26.72 -41.69 M7.04 -19.05 C12 -24.75, 16.95 -30.45, 26.72 -41.69 M0.61 0.53 C13.03 -13.75, 25.45 -28.04, 35.39 -39.47 M0.61 0.53 C7.58 -7.48, 14.54 -15.49, 35.39 -39.47 M11.24 0.5 C18.01 -7.28, 24.78 -15.07, 40.77 -33.46 M11.24 0.5 C17.36 -6.54, 23.48 -13.57, 40.77 -33.46 M21.87 0.47 C28.31 -6.93, 34.74 -14.33, 46.81 -28.21 M21.87 0.47 C27.82 -6.37, 33.76 -13.2, 46.81 -28.21 M29.22 4.2 C36.99 -4.73, 44.75 -13.66, 50.87 -20.7 M29.22 4.2 C36.96 -4.7, 44.7 -13.6, 50.87 -20.7 M41.82 1.91 C45.97 -2.86, 50.11 -7.63, 54.94 -13.19 M41.82 1.91 C44.67 -1.37, 47.51 -4.64, 54.94 -13.19 M0 0 C0 0, 0 0, 0 0 M0 0 C0 0, 0 0, 0 0 M12.04 -0.13 C8.43 -3.27, 4.83 -6.4, 1.47 -9.32 M12.04 -0.13 C8.34 -3.35, 4.63 -6.58, 1.47 -9.32 M24.84 0.39 C16.95 -6.47, 9.06 -13.33, 2.95 -18.64 M24.84 0.39 C18.56 -5.07, 12.28 -10.53, 2.95 -18.64 M30.08 -5.65 C21.75 -12.9, 13.41 -20.14, 6.69 -25.99 M30.08 -5.65 C21.47 -13.14, 12.85 -20.63, 6.69 -25.99 M45.9 -2.5 C33.17 -13.56, 20.44 -24.63, 9.67 -33.99 M45.9 -2.5 C36.9 -10.32, 27.9 -18.14, 9.67 -33.99 M52.66 -7.23 C41.58 -16.86, 30.5 -26.48, 14.92 -40.03 M52.66 -7.23 C44.64 -14.2, 36.62 -21.17, 14.92 -40.03 M51.11 -19.17 C41.57 -27.46, 32.03 -35.76, 20.92 -45.41 M51.11 -19.17 C39.97 -28.86, 28.82 -38.55, 20.92 -45.41" stroke="#ced4da" stroke-width="1" fill="none"></path><path d="M0 0 C0.92 -4.85, 1.58 -21.76, 5.52 -29.07 C9.46 -36.38, 17.61 -43.34, 23.65 -43.87 C29.69 -44.4, 37.51 -39.05, 41.78 -32.24 C46.05 -25.43, 56.23 -8.39, 49.27 -3.02 C42.31 2.36, 8.21 -0.5, 0 0 M0 0 C0.92 -4.85, 1.58 -21.76, 5.52 -29.07 C9.46 -36.38, 17.61 -43.34, 23.65 -43.87 C29.69 -44.4, 37.51 -39.05, 41.78 -32.24 C46.05 -25.43, 56.23 -8.39, 49.27 -3.02 C42.31 2.36, 8.21 -0.5, 0 0" stroke="#000000" stroke-width="2" fill="none"></path></g></g><mask></mask><g stroke-linecap="round" transform="translate(806.8800075141154 259.3667870695795) rotate(0 12.612971703843186 11.036350240862845)"><path d="M2.98 3.91 C2.98 3.91, 2.98 3.91, 2.98 3.91 M2.98 3.91 C2.98 3.91, 2.98 3.91, 2.98 3.91 M2.45 16.71 C5.78 12.89, 9.1 9.07, 16.23 0.86 M2.45 16.71 C7.3 11.13, 12.15 5.55, 16.23 0.86 M8.49 21.96 C13.31 16.41, 18.13 10.87, 23.58 4.6 M8.49 21.96 C12.58 17.26, 16.66 12.56, 23.58 4.6 M4.36 19.37 C4.36 19.37, 4.36 19.37, 4.36 19.37 M4.36 19.37 C4.36 19.37, 4.36 19.37, 4.36 19.37 M17.91 20.55 C13.15 16.41, 8.39 12.27, 1.31 6.11 M17.91 20.55 C13.91 17.07, 9.92 13.59, 1.31 6.11 M24.67 15.82 C19.9 11.67, 15.12 7.52, 7.31 0.73 M24.67 15.82 C20.35 12.06, 16.02 8.3, 7.31 0.73" stroke="#ced4da" stroke-width="1" fill="none"></path><path d="M25.23 11.04 C25.23 11.68, 25.16 12.32, 25.03 12.95 C24.91 13.58, 24.71 14.21, 24.47 14.81 C24.22 15.41, 23.9 16, 23.54 16.55 C23.17 17.11, 22.74 17.64, 22.28 18.13 C21.81 18.62, 21.28 19.08, 20.72 19.49 C20.16 19.9, 19.55 20.27, 18.92 20.59 C18.29 20.91, 17.61 21.19, 16.93 21.41 C16.24 21.63, 15.52 21.79, 14.8 21.91 C14.08 22.02, 13.34 22.07, 12.61 22.07 C11.88 22.07, 11.14 22.02, 10.42 21.91 C9.7 21.79, 8.99 21.63, 8.3 21.41 C7.61 21.19, 6.94 20.91, 6.31 20.59 C5.67 20.27, 5.06 19.9, 4.51 19.49 C3.95 19.08, 3.42 18.62, 2.95 18.13 C2.48 17.64, 2.05 17.11, 1.69 16.55 C1.32 16, 1.01 15.41, 0.76 14.81 C0.51 14.21, 0.32 13.58, 0.19 12.95 C0.06 12.32, 0 11.68, 0 11.04 C0 10.4, 0.06 9.75, 0.19 9.12 C0.32 8.49, 0.51 7.86, 0.76 7.26 C1.01 6.66, 1.32 6.07, 1.69 5.52 C2.05 4.96, 2.48 4.43, 2.95 3.94 C3.42 3.45, 3.95 2.99, 4.51 2.58 C5.06 2.17, 5.67 1.8, 6.31 1.48 C6.94 1.16, 7.61 0.88, 8.3 0.67 C8.99 0.45, 9.7 0.28, 10.42 0.17 C11.14 0.06, 11.88 0, 12.61 0 C13.34 0, 14.08 0.06, 14.8 0.17 C15.52 0.28, 16.24 0.45, 16.93 0.67 C17.61 0.88, 18.29 1.16, 18.92 1.48 C19.55 1.8, 20.16 2.17, 20.72 2.58 C21.28 2.99, 21.81 3.45, 22.28 3.94 C22.74 4.43, 23.17 4.96, 23.54 5.52 C23.9 6.07, 24.22 6.66, 24.47 7.26 C24.71 7.86, 24.91 8.49, 25.03 9.12 C25.16 9.75, 25.19 10.72, 25.23 11.04 C25.26 11.36, 25.26 10.72, 25.23 11.04" stroke="#000000" stroke-width="2" fill="none"></path></g><g stroke-linecap="round" transform="translate(507.94497590538936 50.80902063771707) rotate(0 18.63417999847718 34.78380266382396)"><path d="M0 0 C0 0, 0 0, 0 0 M0 0 C0 0, 0 0, 0 0 M0.13 12.04 C3.49 8.17, 6.86 4.31, 10.63 -0.03 M0.13 12.04 C2.66 9.13, 5.19 6.22, 10.63 -0.03 M0.27 24.08 C8.07 15.11, 15.87 6.13, 21.26 -0.07 M0.27 24.08 C7.16 16.15, 14.06 8.22, 21.26 -0.07 M-0.26 36.88 C8.5 26.8, 17.27 16.72, 31.89 -0.1 M-0.26 36.88 C12.06 22.71, 24.38 8.54, 31.89 -0.1 M-0.12 48.92 C13.94 32.74, 28 16.57, 39.9 2.88 M-0.12 48.92 C14.81 31.74, 29.73 14.57, 39.9 2.88 M0.01 60.96 C15.88 42.7, 31.76 24.44, 40.03 14.92 M0.01 60.96 C8.55 51.14, 17.08 41.32, 40.03 14.92 M1.45 71.49 C9.84 61.85, 18.22 52.2, 40.16 26.96 M1.45 71.49 C11.43 60.02, 21.4 48.54, 40.16 26.96 M12.09 71.46 C20.49 61.79, 28.9 52.12, 40.3 39 M12.09 71.46 C20.24 62.08, 28.39 52.7, 40.3 39 M22.72 71.42 C29.2 63.97, 35.68 56.51, 40.43 51.04 M22.72 71.42 C26.43 67.15, 30.14 62.89, 40.43 51.04 M33.35 71.39 C34.94 69.55, 36.53 67.72, 39.91 63.84 M33.35 71.39 C34.87 69.64, 36.39 67.89, 39.91 63.84 M0.27 69.8 C0.27 69.8, 0.27 69.8, 0.27 69.8 M0.27 69.8 C0.27 69.8, 0.27 69.8, 0.27 69.8 M12.31 69.67 C9.19 66.96, 6.08 64.25, 0.24 59.17 M12.31 69.67 C9.57 67.28, 6.82 64.9, 0.24 59.17 M24.35 69.54 C17.98 63.99, 11.6 58.45, 0.2 48.54 M24.35 69.54 C17.28 63.39, 10.21 57.24, 0.2 48.54 M36.39 69.4 C27.97 62.08, 19.55 54.76, 0.17 37.91 M36.39 69.4 C24.6 59.15, 12.8 48.89, 0.17 37.91 M42.4 64.02 C31.22 54.31, 20.05 44.59, 0.13 27.28 M42.4 64.02 C31.87 54.87, 21.34 45.72, 0.13 27.28 M42.36 53.39 C33.29 45.5, 24.21 37.62, 0.1 16.65 M42.36 53.39 C27.98 40.89, 13.6 28.39, 0.1 16.65 M42.33 42.76 C31.71 33.53, 21.08 24.29, 0.06 6.02 M42.33 42.76 C28.75 30.96, 15.17 19.16, 0.06 6.02 M42.29 32.13 C29.7 21.18, 17.1 10.23, 2.29 -2.64 M42.29 32.13 C28.33 19.99, 14.36 7.85, 2.29 -2.64 M42.26 21.5 C34.5 14.76, 26.74 8.01, 14.33 -2.77 M42.26 21.5 C33.69 14.05, 25.12 6.6, 14.33 -2.77 M42.22 10.87 C38.99 8.06, 35.76 5.25, 26.38 -2.91 M42.22 10.87 C35.98 5.44, 29.73 0.01, 26.38 -2.91" stroke="#ced4da" stroke-width="1" fill="none"></path><path d="M0 0 C8.48 0, 16.95 0, 37.27 0 M0 0 C13.97 0, 27.95 0, 37.27 0 M37.27 0 C37.27 14.91, 37.27 29.82, 37.27 69.57 M37.27 0 C37.27 21.65, 37.27 43.29, 37.27 69.57 M37.27 69.57 C24.94 69.57, 12.62 69.57, 0 69.57 M37.27 69.57 C29.02 69.57, 20.77 69.57, 0 69.57 M0 69.57 C0 49.02, 0 28.48, 0 0 M0 69.57 C0 42.19, 0 14.81, 0 0" stroke="#000000" stroke-width="2" fill="none"></path></g><g transform="translate(465.56171056790095 131.7745396658599) rotate(0 61.19994354248047 12.5)"><text x="0" y="0" font-family="Virgil, Segoe UI Emoji" font-size="20px" fill="#000000" text-anchor="start" style="white-space: pre;" direction="ltr" dominant-baseline="text-before-edge">Relay-Server</text></g><g stroke-linecap="round"><g transform="translate(512.4295332385198 58.504971303672775) rotate(0 14.286204665499099 1.1368683772161603e-13)"><path d="M0 0 C4.76 0, 23.81 0, 28.57 0 M0 0 C4.76 0, 23.81 0, 28.57 0" stroke="#000000" stroke-width="2" fill="none"></path></g></g><mask></mask><g stroke-linecap="round"><g transform="translate(512.2929512383669 64.90876908128114) rotate(0 14.286204665499099 1.1368683772161603e-13)"><path d="M0 0 C4.76 0, 23.81 0, 28.57 0 M0 0 C4.76 0, 23.81 0, 28.57 0" stroke="#000000" stroke-width="2" fill="none"></path></g></g><mask></mask><g stroke-linecap="round"><g transform="translate(512.2620659046277 71.3125668588904) rotate(0 14.286204665499099 1.1368683772161603e-13)"><path d="M0 0 C4.76 0, 23.81 0, 28.57 0 M0 0 C4.76 0, 23.81 0, 28.57 0" stroke="#000000" stroke-width="2" fill="none"></path></g></g><mask></mask><g stroke-linecap="round"><g transform="translate(512.2620659046277 77.71636463649922) rotate(0 14.286204665499099 1.1368683772161603e-13)"><path d="M0 0 C4.76 0, 23.81 0, 28.57 0 M0 0 C4.76 0, 23.81 0, 28.57 0" stroke="#000000" stroke-width="2" fill="none"></path></g></g><mask></mask><g stroke-linecap="round"><g transform="translate(340.0382900059739 336.3248594762653) rotate(0.8330005424890489 27.139656399879954 -24.730424592910822)" fill-rule="evenodd"><path d="M0 0 L39.47 22.45 L53.84 13.87 L54.33 -48.58 L14.32 -71.91 L-0.05 -62.73 L0 0" stroke="none" stroke-width="0" fill="#ced4da" fill-rule="evenodd"></path><path d="M0 0 C11.16 6.35, 22.32 12.7, 39.47 22.45 M0 0 C8.08 4.6, 16.17 9.19, 39.47 22.45 M39.47 22.45 C45.16 19.05, 50.84 15.66, 53.84 13.87 M39.47 22.45 C43.82 19.86, 48.16 17.26, 53.84 13.87 M53.84 13.87 C53.96 -1.49, 54.08 -16.84, 54.33 -48.58 M53.84 13.87 C54 -5.91, 54.15 -25.7, 54.33 -48.58 M54.33 -48.58 C42.4 -55.54, 30.47 -62.49, 14.32 -71.91 M54.33 -48.58 C46.27 -53.28, 38.21 -57.98, 14.32 -71.91 M14.32 -71.91 C9.09 -68.57, 3.85 -65.22, -0.05 -62.73 M14.32 -71.91 C8.98 -68.5, 3.64 -65.08, -0.05 -62.73 M-0.05 -62.73 C-0.04 -48.02, -0.03 -33.31, 0 0 M-0.05 -62.73 C-0.03 -39.26, -0.01 -15.78, 0 0 M0 0 C0 0, 0 0, 0 0 M0 0 C0 0, 0 0, 0 0" stroke="#495057" stroke-width="2" fill="none"></path></g></g><mask></mask><g stroke-linecap="round"><g transform="translate(340.0258233761764 273.5915943846253) rotate(0.8330005424890489 20.121034580442256 42.33059036497227)"><path d="M0 0 C11.37 6.7, 22.74 13.39, 40.24 23.7 M0 0 C11.47 6.76, 22.95 13.51, 40.24 23.7 M40.24 23.7 C40.13 39.25, 40.02 54.8, 39.8 84.66 M40.24 23.7 C40.15 36.62, 40.05 49.54, 39.8 84.66" stroke="#495057" stroke-width="2" fill="none"></path></g></g><mask></mask><g stroke-linecap="round"><g transform="translate(380.8238812953548 297.4327914138335) rotate(0.8330005424890489 6.8102607161182505 -4.332280172822408)"><path d="M0 0 C2.82 -1.79, 5.64 -3.59, 13.62 -8.66 M0 0 C4.84 -3.08, 9.67 -6.15, 13.62 -8.66" stroke="#495057" stroke-width="2" fill="none"></path></g></g><mask></mask><g stroke-linecap="round"><g transform="translate(339.4365944819122 326.7540599689148) rotate(0.8330005424890489 26.767325421508275 11.715992467372246)"><path d="M0 0 C8.2 4.83, 16.41 9.65, 39.84 23.43 M0 0 C15.62 9.19, 31.25 18.38, 39.84 23.43 M39.84 23.43 C45.22 19.98, 50.6 16.54, 53.53 14.65 M39.84 23.43 C43.36 21.18, 46.88 18.92, 53.53 14.65" stroke="#495057" stroke-width="2" fill="none"></path></g></g><mask></mask><g stroke-linecap="round"><g transform="translate(340.478336847704 306.7809907119089) rotate(0.8330005424890489 26.82265048651726 11.715992467372246)"><path d="M0 0 C13.86 8.15, 27.72 16.3, 39.84 23.43 M0 0 C15.28 8.99, 30.57 17.98, 39.84 23.43 M39.84 23.43 C43.25 21.27, 46.65 19.1, 53.65 14.65 M39.84 23.43 C42.99 21.43, 46.13 19.43, 53.65 14.65" stroke="#495057" stroke-width="2" fill="none"></path></g></g><mask></mask><g stroke-linecap="round"><g transform="translate(340.10914933418724 295.71867574319066) rotate(0.8330005424890489 26.656675291490274 11.715992467372246)"><path d="M0 0 C15.62 9.19, 31.24 18.37, 39.84 23.43 M0 0 C8.12 4.78, 16.25 9.55, 39.84 23.43 M39.84 23.43 C44.23 20.65, 48.61 17.86, 53.31 14.87 M39.84 23.43 C44.45 20.51, 49.05 17.58, 53.31 14.87" stroke="#495057" stroke-width="2" fill="none"></path></g></g><mask></mask><g stroke-linecap="round"><g transform="translate(340.26147337504483 285.24260247169593) rotate(0.8330005424890489 26.71200035649929 11.715992467372246)"><path d="M0 0 C15.55 9.15, 31.1 18.29, 39.84 23.43 M0 0 C8.69 5.11, 17.38 10.22, 39.84 23.43 M39.84 23.43 C42.65 21.64, 45.47 19.84, 53.42 14.76 M39.84 23.43 C43.96 20.8, 48.09 18.17, 53.42 14.76" stroke="#495057" stroke-width="2" fill="none"></path></g></g><mask></mask><g stroke-linecap="round"><g transform="translate(353.4111280763357 291.5124601542005) rotate(0.8330005424890489 6.95032850587009 -9.446520422036542)"><path d="M0 0 C-0.05 -4.01, -0.09 -8.02, -0.12 -10.78 M0 0 C-0.03 -2.53, -0.06 -5.06, -0.12 -10.78 M-0.12 -10.78 C5.17 -13.82, 10.46 -16.85, 14.02 -18.89 M-0.12 -10.78 C4.24 -13.28, 8.6 -15.78, 14.02 -18.89" stroke="#495057" stroke-width="2" fill="none"></path></g></g><mask></mask><g stroke-linecap="round"><g transform="translate(370.6558345876333 302.2123672286021) rotate(0.8330005424890489 7.0872345989427 -9.84035986786347)"><path d="M0 0 C-0.05 -3.42, -0.11 -6.83, -0.17 -10.93 M0 0 C-0.04 -2.31, -0.07 -4.62, -0.17 -10.93 M-0.17 -10.93 C5.04 -14.07, 10.26 -17.22, 14.35 -19.68 M-0.17 -10.93 C2.99 -12.84, 6.16 -14.74, 14.35 -19.68" stroke="#495057" stroke-width="2" fill="none"></path></g></g><mask></mask><g stroke-linecap="round"><g transform="translate(347.709522162143 289.90110643379813) rotate(0.8330005424890489 0.024380537122624446 4.478517126826034)"><path d="M0 0 C0.01 1.8, 0.02 3.6, 0.05 8.96 M0 0 C0.02 2.92, 0.03 5.83, 0.05 8.96" stroke="#495057" stroke-width="2" fill="none"></path></g></g><mask></mask><g stroke-linecap="round"><g transform="translate(365.2604596348349 300.5585020756038) rotate(0.8330005424890489 0.024380537122624446 4.478517126826034)"><path d="M0 0 C0.02 3.08, 0.03 6.16, 0.05 8.96 M0 0 C0.02 3.15, 0.03 6.29, 0.05 8.96" stroke="#495057" stroke-width="2" fill="none"></path></g></g><mask></mask><g stroke-linecap="round"><g transform="translate(340.1026303871244 317.3990632955914) rotate(0.8330005424890489 26.822650486517233 11.715992467372246)"><path d="M0 0 C13.3 7.82, 26.59 15.64, 39.84 23.43 M0 0 C10.93 6.43, 21.85 12.85, 39.84 23.43 M39.84 23.43 C43.83 20.89, 47.82 18.36, 53.65 14.65 M39.84 23.43 C44.76 20.31, 49.67 17.18, 53.65 14.65" stroke="#495057" stroke-width="2" fill="none"></path></g></g><mask></mask><g stroke-linecap="round"><g transform="translate(369.49617737697065 313.67818319865967) rotate(0.8330005424890489 0.024380537122624446 4.478517126826034)"><path d="M0 0 C0.02 3.14, 0.03 6.28, 0.05 8.96 M0 0 C0.01 1.88, 0.02 3.77, 0.05 8.96" stroke="#495057" stroke-width="2" fill="none"></path></g></g><mask></mask><g stroke-linecap="round"><g transform="translate(352.3733158748215 304.57621869813596) rotate(0.8330005424890489 0.024380537122624446 3.9252664767365957)"><path d="M0 0 C0.02 2.79, 0.03 5.59, 0.05 7.85 M0 0 C0.01 1.76, 0.02 3.52, 0.05 7.85" stroke="#495057" stroke-width="2" fill="none"></path></g></g><mask></mask><g stroke-linecap="round"><g transform="translate(363.646460206415 320.23284000503287) rotate(0.8330005424890489 0.024380537122624446 4.478517126826034)"><path d="M0 0 C0.02 2.89, 0.03 5.78, 0.05 8.96 M0 0 C0.02 3.45, 0.04 6.91, 0.05 8.96" stroke="#495057" stroke-width="2" fill="none"></path></g></g><mask></mask><g stroke-linecap="round"><g transform="translate(346.30071319049466 310.6850460074415) rotate(0.8330005424890489 0.024380537122624446 4.478517126826034)"><path d="M0 0 C0.01 1.9, 0.02 3.81, 0.05 8.96 M0 0 C0.01 2.34, 0.03 4.69, 0.05 8.96" stroke="#495057" stroke-width="2" fill="none"></path></g></g><mask></mask><g stroke-linecap="round"><g transform="translate(352.50540180101655 325.3826207838838) rotate(0.8330005424890489 0.024380537122624446 4.478517126826034)"><path d="M0 0 C0.01 2, 0.02 4, 0.05 8.96 M0 0 C0.02 3.3, 0.04 6.61, 0.05 8.96" stroke="#495057" stroke-width="2" fill="none"></path></g></g><mask></mask><g stroke-linecap="round"><g transform="translate(368.0954116130483 334.2408809817946) rotate(0.8330005424890489 0.024380537122624446 4.146566736772542)"><path d="M0 0 C0.01 1.73, 0.02 3.45, 0.05 8.29 M0 0 C0.01 1.85, 0.02 3.7, 0.05 8.29" stroke="#495057" stroke-width="2" fill="none"></path></g></g><mask></mask><g stroke-linecap="round"><g transform="translate(362.9159596253468 340.58393615302816) rotate(0.8330005424890489 0.024380537122624446 3.9252664767365957)"><path d="M0 0 C0.02 2.71, 0.03 5.42, 0.05 7.85 M0 0 C0.02 2.53, 0.03 5.07, 0.05 7.85" stroke="#495057" stroke-width="2" fill="none"></path></g></g><mask></mask><g stroke-linecap="round"><g transform="translate(346.66694512127765 331.7160591875631) rotate(0.8330005424890489 0.024380537122624446 3.9252664767365957)"><path d="M0 0 C0.01 2.02, 0.03 4.05, 0.05 7.85 M0 0 C0.02 3.13, 0.04 6.25, 0.05 7.85" stroke="#495057" stroke-width="2" fill="none"></path></g></g><mask></mask><g stroke-linecap="round"><g transform="translate(358.74590495274896 262.5986429090763) rotate(0 75.86858042834197 -88.03324824653019)"><path d="M0.58 -1.09 C25.77 -30.6, 126.82 -147.75, 152.31 -177.02 M-0.57 0.95 C24.35 -28.38, 125.66 -146.22, 151.31 -175.59" stroke="#000000" stroke-width="1" fill="none"></path></g></g><mask></mask><g stroke-linecap="round"><g transform="translate(546.693954264171 84.28895969673302) rotate(0 81.20970264316861 87.26077510862069)"><path d="M0.96 -0.11 C27.91 28.91, 135.27 145.14, 162.41 174.48 M0.01 -1.22 C26.71 27.93, 134.07 146.54, 161.34 175.74" stroke="#000000" stroke-width="1" fill="none"></path></g></g><mask></mask><g transform="translate(76.82380341004239 390.60823273322126) rotate(0 217.8878631591797 10)"><text x="0" y="0" font-family="Virgil, Segoe UI Emoji" font-size="16px" fill="#000000" text-anchor="start" style="white-space: pre;" direction="ltr" dominant-baseline="text-before-edge">Marias IP | Marias Port |        Ziel-IP | Sender-Port</text></g><g stroke-linecap="round"><g transform="translate(45.499123928876486 412.59580925528655) rotate(0 224.21384869554717 -0.6940157970134635)"><path d="M0.86 -1.1 C75.69 -1.16, 374.29 -0.65, 448.57 -0.76 M-0.14 0.94 C74.65 0.6, 373.31 -2.11, 448.14 -2.33" stroke="#000000" stroke-width="1" fill="none"></path></g></g><mask></mask><g transform="translate(702.2206210144114 386.7309225530671) rotate(0 219.40786743164068 10)"><text x="0" y="0" font-family="Virgil, Segoe UI Emoji" font-size="16px" fill="#000000" text-anchor="start" style="white-space: pre;" direction="ltr" dominant-baseline="text-before-edge"> Retos IP |  Retos Port |        Ziel-IP | Sender-Port</text></g><g stroke-linecap="round"><g transform="translate(670.8959415332456 408.71849907513223) rotate(0 224.2138486955472 -0.6940157970134635)"><path d="M0.86 -1.1 C75.69 -1.16, 374.29 -0.65, 448.57 -0.76 M-0.14 0.94 C74.65 0.6, 373.31 -2.11, 448.14 -2.33" stroke="#000000" stroke-width="1" fill="none"></path></g></g><mask></mask><g transform="translate(396.0834655761719 328.04770046280646) rotate(0 42.1875 9.599999999999994)"><text x="0" y="0" font-family="Cascadia, Segoe UI Emoji" font-size="16px" fill="#364fc7" text-anchor="start" style="white-space: pre;" direction="ltr" dominant-baseline="text-before-edge">10.74.0.3</text></g><g transform="translate(603.4699935913086 317.5476546864393) rotate(0 51.5625 9.599999999999994)"><text x="0" y="0" font-family="Cascadia, Segoe UI Emoji" font-size="16px" fill="#364fc7" text-anchor="start" style="white-space: pre;" direction="ltr" dominant-baseline="text-before-edge">10.32.12.35</text></g><g stroke-linecap="round" transform="translate(348.1726893559844 10) rotate(0 139.51234382320683 14.714187250400414)"><path d="M7.36 0 M7.36 0 C92.66 -1.67, 179.03 -0.93, 271.67 0 M7.36 0 C60.73 -1.13, 114.4 -1.21, 271.67 0 M271.67 0 C274.94 -1.87, 279.58 4.34, 279.02 7.36 M271.67 0 C277.95 1.67, 278.5 3.08, 279.02 7.36 M279.02 7.36 C279.21 10.27, 280.22 12.18, 279.02 22.07 M279.02 7.36 C278.95 10.22, 278.75 14.5, 279.02 22.07 M279.02 22.07 C280.87 27.63, 277.09 28.73, 271.67 29.43 M279.02 22.07 C279.54 27.01, 275.57 31.72, 271.67 29.43 M271.67 29.43 C177.68 29.5, 86.53 31.22, 7.36 29.43 M271.67 29.43 C192.49 31.66, 115 32.1, 7.36 29.43 M7.36 29.43 C4.34 30.6, -1.68 27.01, 0 22.07 M7.36 29.43 C1.37 28.94, -0.29 27.52, 0 22.07 M0 22.07 C0.52 19.63, -0.91 15.38, 0 7.36 M0 22.07 C0.22 17.01, -0.64 11.33, 0 7.36 M0 7.36 C1.91 4.32, 3.76 -1.45, 7.36 0 M0 7.36 C-1.22 0.35, 2.99 1.27, 7.36 0" stroke="#5c940d" stroke-width="1" fill="none"></path></g><g transform="translate(371.19197744501537 11.906503351675639) rotate(0 123.046875 12)"><text x="0" y="0" font-family="Cascadia, Segoe UI Emoji" font-size="20px" fill="#5c940d" text-anchor="start" style="white-space: pre;" direction="ltr" dominant-baseline="text-before-edge">Reto: 10.32.12.45:???</text></g><g stroke-linecap="round"><g transform="translate(271.09460786941054 290.56772301954715) rotate(0 269.15853519679416 -124.00278707752331)"><path d="M537.2 1.05 C489.96 -40.28, 343.17 -246.17, 253.51 -247.5 C163.86 -248.84, 41.43 -47.33, -0.73 -6.98 M539.05 0.56 C491.79 -41.13, 342.49 -247.96, 252.95 -249.06 C163.4 -250.15, 43.75 -46.3, 1.78 -6.03" stroke="#5c940d" stroke-width="1" fill="none"></path></g><g transform="translate(271.09460786941054 290.56772301954715) rotate(0 269.15853519679416 -124.00278707752331)"><path d="M13.01 -33.28 C11.05 -29.35, 5.92 -20.78, 3.27 -5.91 M11.06 -34.64 C8.86 -25.41, 4.13 -15.1, 2.05 -5.38" stroke="#5c940d" stroke-width="1" fill="none"></path></g><g transform="translate(271.09460786941054 290.56772301954715) rotate(0 269.15853519679416 -124.00278707752331)"><path d="M29.09 -20.54 C23.46 -19.57, 14.71 -13.87, 3.27 -5.91 M27.14 -21.9 C19.76 -16.84, 9.76 -10.72, 2.05 -5.38" stroke="#5c940d" stroke-width="1" fill="none"></path></g></g><mask></mask><g transform="translate(642.3356747604307 413.94046358790814) rotate(0 206.25 9.600000000000023)"><text x="0" y="0" font-family="Cascadia, Segoe UI Emoji" font-size="16px" fill="#000000" text-anchor="start" style="white-space: pre;" direction="ltr" dominant-baseline="text-before-edge">    ...         |           |             | </text></g><g transform="translate(10 417.86970662704397) rotate(0 206.25 9.600000000000023)"><text x="0" y="0" font-family="Cascadia, Segoe UI Emoji" font-size="16px" fill="#000000" text-anchor="start" style="white-space: pre;" direction="ltr" dominant-baseline="text-before-edge">    ...         |           |             | </text></g></svg>