<svg version="1.1" xmlns="http://www.w3.org/2000/svg" viewBox="0 0 596.3059163818206 335.9017402276976" width="596.3059163818206" height="335.9017402276976">
  <!-- svg-source:excalidraw -->
  
  <defs>
    <style class="style-fonts">
      @font-face {
        font-family: "Virgil";
        src: url("https://file%2B.vscode-resource.vscode-cdn.net/c%3A/Users/bauz/.vscode/extensions/pomdtr.excalidraw-editor-3.5.1/public//dist/excalidraw-assets/Virgil.woff2");
      }
      @font-face {
        font-family: "Cascadia";
        src: url("https://file%2B.vscode-resource.vscode-cdn.net/c%3A/Users/bauz/.vscode/extensions/pomdtr.excalidraw-editor-3.5.1/public//dist/excalidraw-assets/Cascadia.woff2");
      }
    </style>
  </defs>
  <rect x="0" y="0" width="596.3059163818206" height="335.9017402276976" fill="#ffffff"></rect><g transform="translate(12.7872206485074 300.9017402276976) rotate(0 22.339981079101562 12.5)"><text x="0" y="0" font-family="Virgil, Segoe UI Emoji" font-size="20px" fill="#000000" text-anchor="start" style="white-space: pre;" direction="ltr" dominant-baseline="text-before-edge">User</text></g><g stroke-linecap="round"><g transform="translate(10 291.24881421771886) rotate(0 25.819645202628976 -21.79569932933711)" fill-rule="evenodd"><path d="M13.47 -38.64 C13.47 -38.64, 13.47 -38.64, 13.47 -38.64 M13.47 -38.64 C13.47 -38.64, 13.47 -38.64, 13.47 -38.64 M7.04 -19.05 C11.7 -24.41, 16.36 -29.77, 26.72 -41.69 M7.04 -19.05 C12 -24.75, 16.95 -30.45, 26.72 -41.69 M0.61 0.53 C13.03 -13.75, 25.45 -28.04, 35.39 -39.47 M0.61 0.53 C7.58 -7.48, 14.54 -15.49, 35.39 -39.47 M11.24 0.5 C18.01 -7.28, 24.78 -15.07, 40.77 -33.46 M11.24 0.5 C17.36 -6.54, 23.48 -13.57, 40.77 -33.46 M21.87 0.47 C28.31 -6.93, 34.74 -14.33, 46.81 -28.21 M21.87 0.47 C27.82 -6.37, 33.76 -13.2, 46.81 -28.21 M29.22 4.2 C36.99 -4.73, 44.75 -13.66, 50.87 -20.7 M29.22 4.2 C36.96 -4.7, 44.7 -13.6, 50.87 -20.7 M41.82 1.91 C45.97 -2.86, 50.11 -7.63, 54.94 -13.19 M41.82 1.91 C44.67 -1.37, 47.51 -4.64, 54.94 -13.19 M0 0 C0 0, 0 0, 0 0 M0 0 C0 0, 0 0, 0 0 M12.04 -0.13 C8.43 -3.27, 4.83 -6.4, 1.47 -9.32 M12.04 -0.13 C8.34 -3.35, 4.63 -6.58, 1.47 -9.32 M24.84 0.39 C16.95 -6.47, 9.06 -13.33, 2.95 -18.64 M24.84 0.39 C18.56 -5.07, 12.28 -10.53, 2.95 -18.64 M30.08 -5.65 C21.75 -12.9, 13.41 -20.14, 6.69 -25.99 M30.08 -5.65 C21.47 -13.14, 12.85 -20.63, 6.69 -25.99 M45.9 -2.5 C33.17 -13.56, 20.44 -24.63, 9.67 -33.99 M45.9 -2.5 C36.9 -10.32, 27.9 -18.14, 9.67 -33.99 M52.66 -7.23 C41.58 -16.86, 30.5 -26.48, 14.92 -40.03 M52.66 -7.23 C44.64 -14.2, 36.62 -21.17, 14.92 -40.03 M51.11 -19.17 C41.57 -27.46, 32.03 -35.76, 20.92 -45.41 M51.11 -19.17 C39.97 -28.86, 28.82 -38.55, 20.92 -45.41" stroke="#ced4da" stroke-width="1" fill="none"></path><path d="M0 0 C0.92 -4.85, 1.58 -21.76, 5.52 -29.07 C9.46 -36.38, 17.61 -43.34, 23.65 -43.87 C29.69 -44.4, 37.51 -39.05, 41.78 -32.24 C46.05 -25.43, 56.23 -8.39, 49.27 -3.02 C42.31 2.36, 8.21 -0.5, 0 0 M0 0 C0.92 -4.85, 1.58 -21.76, 5.52 -29.07 C9.46 -36.38, 17.61 -43.34, 23.65 -43.87 C29.69 -44.4, 37.51 -39.05, 41.78 -32.24 C46.05 -25.43, 56.23 -8.39, 49.27 -3.02 C42.31 2.36, 8.21 -0.5, 0 0" stroke="#000000" stroke-width="2" fill="none"></path></g></g><mask></mask><g stroke-linecap="round" transform="translate(22.453870836315673 224.55776643186243) rotate(0 12.612971703843215 11.036350240862845)"><path d="M2.98 3.91 C2.98 3.91, 2.98 3.91, 2.98 3.91 M2.98 3.91 C2.98 3.91, 2.98 3.91, 2.98 3.91 M2.45 16.71 C5.78 12.89, 9.1 9.07, 16.23 0.86 M2.45 16.71 C7.3 11.13, 12.15 5.55, 16.23 0.86 M8.49 21.96 C13.31 16.41, 18.13 10.87, 23.58 4.6 M8.49 21.96 C12.58 17.26, 16.66 12.56, 23.58 4.6 M4.36 19.37 C4.36 19.37, 4.36 19.37, 4.36 19.37 M4.36 19.37 C4.36 19.37, 4.36 19.37, 4.36 19.37 M17.91 20.55 C13.15 16.41, 8.39 12.27, 1.31 6.11 M17.91 20.55 C13.91 17.07, 9.92 13.59, 1.31 6.11 M24.67 15.82 C19.9 11.67, 15.12 7.52, 7.31 0.73 M24.67 15.82 C20.35 12.06, 16.02 8.3, 7.31 0.73" stroke="#ced4da" stroke-width="1" fill="none"></path><path d="M25.23 11.04 C25.23 11.68, 25.16 12.32, 25.03 12.95 C24.91 13.58, 24.71 14.21, 24.47 14.81 C24.22 15.41, 23.9 16, 23.54 16.55 C23.17 17.11, 22.74 17.64, 22.28 18.13 C21.81 18.62, 21.28 19.08, 20.72 19.49 C20.16 19.9, 19.55 20.27, 18.92 20.59 C18.29 20.91, 17.61 21.19, 16.93 21.41 C16.24 21.63, 15.52 21.79, 14.8 21.91 C14.08 22.02, 13.34 22.07, 12.61 22.07 C11.88 22.07, 11.14 22.02, 10.42 21.91 C9.7 21.79, 8.99 21.63, 8.3 21.41 C7.61 21.19, 6.94 20.91, 6.31 20.59 C5.67 20.27, 5.06 19.9, 4.51 19.49 C3.95 19.08, 3.42 18.62, 2.95 18.13 C2.48 17.64, 2.05 17.11, 1.69 16.55 C1.32 16, 1.01 15.41, 0.76 14.81 C0.51 14.21, 0.32 13.58, 0.19 12.95 C0.06 12.32, 0 11.68, 0 11.04 C0 10.4, 0.06 9.75, 0.19 9.12 C0.32 8.49, 0.51 7.86, 0.76 7.26 C1.01 6.66, 1.32 6.07, 1.69 5.52 C2.05 4.96, 2.48 4.43, 2.95 3.94 C3.42 3.45, 3.95 2.99, 4.51 2.58 C5.06 2.17, 5.67 1.8, 6.31 1.48 C6.94 1.16, 7.61 0.88, 8.3 0.67 C8.99 0.45, 9.7 0.28, 10.42 0.17 C11.14 0.06, 11.88 0, 12.61 0 C13.34 0, 14.08 0.06, 14.8 0.17 C15.52 0.28, 16.24 0.45, 16.93 0.67 C17.61 0.88, 18.29 1.16, 18.92 1.48 C19.55 1.8, 20.16 2.17, 20.72 2.58 C21.28 2.99, 21.81 3.45, 22.28 3.94 C22.74 4.43, 23.17 4.96, 23.54 5.52 C23.9 6.07, 24.22 6.66, 24.47 7.26 C24.71 7.86, 24.91 8.49, 25.03 9.12 C25.16 9.75, 25.19 10.72, 25.23 11.04 C25.26 11.36, 25.26 10.72, 25.23 11.04" stroke="#000000" stroke-width="2" fill="none"></path></g><g transform="translate(537.4538466250699 294.9017402276976) rotate(0 22.339981079101562 12.5)"><text x="0" y="0" font-family="Virgil, Segoe UI Emoji" font-size="20px" fill="#000000" text-anchor="start" style="white-space: pre;" direction="ltr" dominant-baseline="text-before-edge">User</text></g><g stroke-linecap="round"><g transform="translate(534.6666259765627 285.24881421771886) rotate(0 25.819645202628976 -21.79569932933711)" fill-rule="evenodd"><path d="M13.47 -38.64 C13.47 -38.64, 13.47 -38.64, 13.47 -38.64 M13.47 -38.64 C13.47 -38.64, 13.47 -38.64, 13.47 -38.64 M7.04 -19.05 C11.7 -24.41, 16.36 -29.77, 26.72 -41.69 M7.04 -19.05 C12 -24.75, 16.95 -30.45, 26.72 -41.69 M0.61 0.53 C13.03 -13.75, 25.45 -28.04, 35.39 -39.47 M0.61 0.53 C7.58 -7.48, 14.54 -15.49, 35.39 -39.47 M11.24 0.5 C18.01 -7.28, 24.78 -15.07, 40.77 -33.46 M11.24 0.5 C17.36 -6.54, 23.48 -13.57, 40.77 -33.46 M21.87 0.47 C28.31 -6.93, 34.74 -14.33, 46.81 -28.21 M21.87 0.47 C27.82 -6.37, 33.76 -13.2, 46.81 -28.21 M29.22 4.2 C36.99 -4.73, 44.75 -13.66, 50.87 -20.7 M29.22 4.2 C36.96 -4.7, 44.7 -13.6, 50.87 -20.7 M41.82 1.91 C45.97 -2.86, 50.11 -7.63, 54.94 -13.19 M41.82 1.91 C44.67 -1.37, 47.51 -4.64, 54.94 -13.19 M0 0 C0 0, 0 0, 0 0 M0 0 C0 0, 0 0, 0 0 M12.04 -0.13 C8.43 -3.27, 4.83 -6.4, 1.47 -9.32 M12.04 -0.13 C8.34 -3.35, 4.63 -6.58, 1.47 -9.32 M24.84 0.39 C16.95 -6.47, 9.06 -13.33, 2.95 -18.64 M24.84 0.39 C18.56 -5.07, 12.28 -10.53, 2.95 -18.64 M30.08 -5.65 C21.75 -12.9, 13.41 -20.14, 6.69 -25.99 M30.08 -5.65 C21.47 -13.14, 12.85 -20.63, 6.69 -25.99 M45.9 -2.5 C33.17 -13.56, 20.44 -24.63, 9.67 -33.99 M45.9 -2.5 C36.9 -10.32, 27.9 -18.14, 9.67 -33.99 M52.66 -7.23 C41.58 -16.86, 30.5 -26.48, 14.92 -40.03 M52.66 -7.23 C44.64 -14.2, 36.62 -21.17, 14.92 -40.03 M51.11 -19.17 C41.57 -27.46, 32.03 -35.76, 20.92 -45.41 M51.11 -19.17 C39.97 -28.86, 28.82 -38.55, 20.92 -45.41" stroke="#ced4da" stroke-width="1" fill="none"></path><path d="M0 0 C0.92 -4.85, 1.58 -21.76, 5.52 -29.07 C9.46 -36.38, 17.61 -43.34, 23.65 -43.87 C29.69 -44.4, 37.51 -39.05, 41.78 -32.24 C46.05 -25.43, 56.23 -8.39, 49.27 -3.02 C42.31 2.36, 8.21 -0.5, 0 0 M0 0 C0.92 -4.85, 1.58 -21.76, 5.52 -29.07 C9.46 -36.38, 17.61 -43.34, 23.65 -43.87 C29.69 -44.4, 37.51 -39.05, 41.78 -32.24 C46.05 -25.43, 56.23 -8.39, 49.27 -3.02 C42.31 2.36, 8.21 -0.5, 0 0" stroke="#000000" stroke-width="2" fill="none"></path></g></g><mask></mask><g stroke-linecap="round" transform="translate(547.1204968128784 218.55776643186243) rotate(0 12.612971703843186 11.036350240862845)"><path d="M2.98 3.91 C2.98 3.91, 2.98 3.91, 2.98 3.91 M2.98 3.91 C2.98 3.91, 2.98 3.91, 2.98 3.91 M2.45 16.71 C5.78 12.89, 9.1 9.07, 16.23 0.86 M2.45 16.71 C7.3 11.13, 12.15 5.55, 16.23 0.86 M8.49 21.96 C13.31 16.41, 18.13 10.87, 23.58 4.6 M8.49 21.96 C12.58 17.26, 16.66 12.56, 23.58 4.6 M4.36 19.37 C4.36 19.37, 4.36 19.37, 4.36 19.37 M4.36 19.37 C4.36 19.37, 4.36 19.37, 4.36 19.37 M17.91 20.55 C13.15 16.41, 8.39 12.27, 1.31 6.11 M17.91 20.55 C13.91 17.07, 9.92 13.59, 1.31 6.11 M24.67 15.82 C19.9 11.67, 15.12 7.52, 7.31 0.73 M24.67 15.82 C20.35 12.06, 16.02 8.3, 7.31 0.73" stroke="#ced4da" stroke-width="1" fill="none"></path><path d="M25.23 11.04 C25.23 11.68, 25.16 12.32, 25.03 12.95 C24.91 13.58, 24.71 14.21, 24.47 14.81 C24.22 15.41, 23.9 16, 23.54 16.55 C23.17 17.11, 22.74 17.64, 22.28 18.13 C21.81 18.62, 21.28 19.08, 20.72 19.49 C20.16 19.9, 19.55 20.27, 18.92 20.59 C18.29 20.91, 17.61 21.19, 16.93 21.41 C16.24 21.63, 15.52 21.79, 14.8 21.91 C14.08 22.02, 13.34 22.07, 12.61 22.07 C11.88 22.07, 11.14 22.02, 10.42 21.91 C9.7 21.79, 8.99 21.63, 8.3 21.41 C7.61 21.19, 6.94 20.91, 6.31 20.59 C5.67 20.27, 5.06 19.9, 4.51 19.49 C3.95 19.08, 3.42 18.62, 2.95 18.13 C2.48 17.64, 2.05 17.11, 1.69 16.55 C1.32 16, 1.01 15.41, 0.76 14.81 C0.51 14.21, 0.32 13.58, 0.19 12.95 C0.06 12.32, 0 11.68, 0 11.04 C0 10.4, 0.06 9.75, 0.19 9.12 C0.32 8.49, 0.51 7.86, 0.76 7.26 C1.01 6.66, 1.32 6.07, 1.69 5.52 C2.05 4.96, 2.48 4.43, 2.95 3.94 C3.42 3.45, 3.95 2.99, 4.51 2.58 C5.06 2.17, 5.67 1.8, 6.31 1.48 C6.94 1.16, 7.61 0.88, 8.3 0.67 C8.99 0.45, 9.7 0.28, 10.42 0.17 C11.14 0.06, 11.88 0, 12.61 0 C13.34 0, 14.08 0.06, 14.8 0.17 C15.52 0.28, 16.24 0.45, 16.93 0.67 C17.61 0.88, 18.29 1.16, 18.92 1.48 C19.55 1.8, 20.16 2.17, 20.72 2.58 C21.28 2.99, 21.81 3.45, 22.28 3.94 C22.74 4.43, 23.17 4.96, 23.54 5.52 C23.9 6.07, 24.22 6.66, 24.47 7.26 C24.71 7.86, 24.91 8.49, 25.03 9.12 C25.16 9.75, 25.19 10.72, 25.23 11.04 C25.26 11.36, 25.26 10.72, 25.23 11.04" stroke="#000000" stroke-width="2" fill="none"></path></g><g stroke-linecap="round" transform="translate(248.18546520415237 10) rotate(0 18.63417999847718 34.78380266382396)"><path d="M0 0 C0 0, 0 0, 0 0 M0 0 C0 0, 0 0, 0 0 M0.13 12.04 C3.49 8.17, 6.86 4.31, 10.63 -0.03 M0.13 12.04 C2.66 9.13, 5.19 6.22, 10.63 -0.03 M0.27 24.08 C8.07 15.11, 15.87 6.13, 21.26 -0.07 M0.27 24.08 C7.16 16.15, 14.06 8.22, 21.26 -0.07 M-0.26 36.88 C8.5 26.8, 17.27 16.72, 31.89 -0.1 M-0.26 36.88 C12.06 22.71, 24.38 8.54, 31.89 -0.1 M-0.12 48.92 C13.94 32.74, 28 16.57, 39.9 2.88 M-0.12 48.92 C14.81 31.74, 29.73 14.57, 39.9 2.88 M0.01 60.96 C15.88 42.7, 31.76 24.44, 40.03 14.92 M0.01 60.96 C8.55 51.14, 17.08 41.32, 40.03 14.92 M1.45 71.49 C9.84 61.85, 18.22 52.2, 40.16 26.96 M1.45 71.49 C11.43 60.02, 21.4 48.54, 40.16 26.96 M12.09 71.46 C20.49 61.79, 28.9 52.12, 40.3 39 M12.09 71.46 C20.24 62.08, 28.39 52.7, 40.3 39 M22.72 71.42 C29.2 63.97, 35.68 56.51, 40.43 51.04 M22.72 71.42 C26.43 67.15, 30.14 62.89, 40.43 51.04 M33.35 71.39 C34.94 69.55, 36.53 67.72, 39.91 63.84 M33.35 71.39 C34.87 69.64, 36.39 67.89, 39.91 63.84 M0.27 69.8 C0.27 69.8, 0.27 69.8, 0.27 69.8 M0.27 69.8 C0.27 69.8, 0.27 69.8, 0.27 69.8 M12.31 69.67 C9.19 66.96, 6.08 64.25, 0.24 59.17 M12.31 69.67 C9.57 67.28, 6.82 64.9, 0.24 59.17 M24.35 69.54 C17.98 63.99, 11.6 58.45, 0.2 48.54 M24.35 69.54 C17.28 63.39, 10.21 57.24, 0.2 48.54 M36.39 69.4 C27.97 62.08, 19.55 54.76, 0.17 37.91 M36.39 69.4 C24.6 59.15, 12.8 48.89, 0.17 37.91 M42.4 64.02 C31.22 54.31, 20.05 44.59, 0.13 27.28 M42.4 64.02 C31.87 54.87, 21.34 45.72, 0.13 27.28 M42.36 53.39 C33.29 45.5, 24.21 37.62, 0.1 16.65 M42.36 53.39 C27.98 40.89, 13.6 28.39, 0.1 16.65 M42.33 42.76 C31.71 33.53, 21.08 24.29, 0.06 6.02 M42.33 42.76 C28.75 30.96, 15.17 19.16, 0.06 6.02 M42.29 32.13 C29.7 21.18, 17.1 10.23, 2.29 -2.64 M42.29 32.13 C28.33 19.99, 14.36 7.85, 2.29 -2.64 M42.26 21.5 C34.5 14.76, 26.74 8.01, 14.33 -2.77 M42.26 21.5 C33.69 14.05, 25.12 6.6, 14.33 -2.77 M42.22 10.87 C38.99 8.06, 35.76 5.25, 26.38 -2.91 M42.22 10.87 C35.98 5.44, 29.73 0.01, 26.38 -2.91" stroke="#ced4da" stroke-width="1" fill="none"></path><path d="M0 0 C8.48 0, 16.95 0, 37.27 0 M0 0 C13.97 0, 27.95 0, 37.27 0 M37.27 0 C37.27 14.91, 37.27 29.82, 37.27 69.57 M37.27 0 C37.27 21.65, 37.27 43.29, 37.27 69.57 M37.27 69.57 C24.94 69.57, 12.62 69.57, 0 69.57 M37.27 69.57 C29.02 69.57, 20.77 69.57, 0 69.57 M0 69.57 C0 49.02, 0 28.48, 0 0 M0 69.57 C0 42.19, 0 14.81, 0 0" stroke="#000000" stroke-width="2" fill="none"></path></g><g transform="translate(235.31964520262898 89.45950665956002) rotate(0 30.84996795654297 12.5)"><text x="0" y="0" font-family="Virgil, Segoe UI Emoji" font-size="20px" fill="#000000" text-anchor="start" style="white-space: pre;" direction="ltr" dominant-baseline="text-before-edge">Server</text></g><g stroke-linecap="round"><g transform="translate(252.67002253728276 17.695950665955706) rotate(0 14.286204665499099 1.1368683772161603e-13)"><path d="M0 0 C4.76 0, 23.81 0, 28.57 0 M0 0 C4.76 0, 23.81 0, 28.57 0" stroke="#000000" stroke-width="2" fill="none"></path></g></g><mask></mask><g stroke-linecap="round"><g transform="translate(252.53344053712988 24.099748443564067) rotate(0 14.286204665499099 1.1368683772161603e-13)"><path d="M0 0 C4.76 0, 23.81 0, 28.57 0 M0 0 C4.76 0, 23.81 0, 28.57 0" stroke="#000000" stroke-width="2" fill="none"></path></g></g><mask></mask><g stroke-linecap="round"><g transform="translate(252.50255520339067 30.503546221173337) rotate(0 14.286204665499099 1.1368683772161603e-13)"><path d="M0 0 C4.76 0, 23.81 0, 28.57 0 M0 0 C4.76 0, 23.81 0, 28.57 0" stroke="#000000" stroke-width="2" fill="none"></path></g></g><mask></mask><g stroke-linecap="round"><g transform="translate(252.50255520339067 36.90734399878215) rotate(0 14.286204665499099 1.1368683772161603e-13)"><path d="M0 0 C4.76 0, 23.81 0, 28.57 0 M0 0 C4.76 0, 23.81 0, 28.57 0" stroke="#000000" stroke-width="2" fill="none"></path></g></g><mask></mask><g stroke-linecap="round"><g transform="translate(70.81964520262898 254.56309683563939) rotate(0 223.28408411048818 -104.33584968363243)"><path d="M-0.17 0.66 C32.95 -34.21, 123.12 -208.92, 197.87 -209.33 C272.61 -209.74, 406.54 -36, 448.29 -1.81 M-1.72 -0.04 C31.31 -34.78, 121.89 -207.74, 196.85 -208.32 C271.81 -208.9, 405.97 -37.63, 448.02 -3.53" stroke="#000000" stroke-width="1" fill="none"></path></g><g transform="translate(70.81964520262898 254.56309683563939) rotate(0 223.28408411048818 -104.33584968363243)"><path d="M422.01 -16.6 C425.4 -11.83, 435.21 -8.79, 446.09 -3.64 M420.16 -16.91 C427.24 -13.69, 433.85 -10.77, 447.28 -4.38" stroke="#000000" stroke-width="1" fill="none"></path></g><g transform="translate(70.81964520262898 254.56309683563939) rotate(0 223.28408411048818 -104.33584968363243)"><path d="M436.62 -31.02 C436.67 -22.99, 443.16 -16.68, 446.09 -3.64 M434.76 -31.33 C438.48 -24.71, 441.69 -18.43, 447.28 -4.38" stroke="#000000" stroke-width="1" fill="none"></path></g></g><mask></mask><g stroke-linecap="round"><g transform="translate(287.32005388687924 262.232271372764) rotate(0 15.831017594807065 -107.33325769920572)"><path d="M256.5 0.66 C212.41 -35.2, 71.45 -214.92, -8.73 -215.33 C-88.91 -215.74, -188.61 -37, -224.57 -1.8 M254.95 -0.04 C210.77 -35.77, 70.22 -213.74, -9.75 -214.32 C-89.71 -214.9, -189.17 -38.63, -224.84 -3.52" stroke="#000000" stroke-width="1" fill="none"></path></g><g transform="translate(287.32005388687924 262.232271372764) rotate(0 15.831017594807065 -107.33325769920572)"><path d="M-214.67 -32.33 C-219.52 -24.03, -217.93 -17.42, -226.77 -3.63 M-216.52 -32.65 C-217.83 -25.68, -219.65 -19.09, -225.58 -4.37" stroke="#000000" stroke-width="1" fill="none"></path></g><g transform="translate(287.32005388687924 262.232271372764) rotate(0 15.831017594807065 -107.33325769920572)"><path d="M-198.41 -19.81 C-206.94 -14.38, -209.05 -10.61, -226.77 -3.63 M-200.27 -20.12 C-205.4 -16.05, -211.01 -12.37, -225.58 -4.37" stroke="#000000" stroke-width="1" fill="none"></path></g></g><mask></mask><g transform="translate(250.81964520262898 189.89644034149876) rotate(0 16.775985717773438 22.5)"><text x="0" y="0" font-family="Virgil, Segoe UI Emoji" font-size="36px" fill="#000000" text-anchor="start" style="white-space: pre;" direction="ltr" dominant-baseline="text-before-edge">??</text></g></svg>