<svg version="1.1" xmlns="http://www.w3.org/2000/svg" viewBox="0 0 1148.6691317873963 408.46376663980834" width="1148.6691317873963" height="408.46376663980834">
  <!-- svg-source:excalidraw -->
  
  <defs>
    <style class="style-fonts">
      @font-face {
        font-family: "Virgil";
        src: url("https://file%2B.vscode-resource.vscode-cdn.net/c%3A/Users/bauz/.vscode/extensions/pomdtr.excalidraw-editor-3.5.1/public//dist/excalidraw-assets/Virgil.woff2");
      }
      @font-face {
        font-family: "Cascadia";
        src: url("https://file%2B.vscode-resource.vscode-cdn.net/c%3A/Users/bauz/.vscode/extensions/pomdtr.excalidraw-editor-3.5.1/public//dist/excalidraw-assets/Cascadia.woff2");
      }
    </style>
  </defs>
  <rect x="0" y="0" width="1148.6691317873963" height="408.46376663980834" fill="#ffffff"></rect><g stroke-linecap="round" transform="translate(285.01297204960406 377.30119899629705) rotate(0 56.52623270562589 10.581283821755648)"><path d="M1.41 1.22 C1.41 1.22, 1.41 1.22, 1.41 1.22 M1.41 1.22 C1.41 1.22, 1.41 1.22, 1.41 1.22 M1.8 6.87 C2.9 5.96, 3.8 4.01, 6.4 1.58 M1.8 6.87 C3.28 5.05, 4.34 3.52, 6.4 1.58 M2.2 12.51 C3.7 10.1, 9.51 6.29, 12.04 1.19 M2.2 12.51 C5.28 8.68, 10.38 3.49, 12.04 1.19 M1.28 19.66 C6.2 14.25, 10.92 6.54, 17.03 1.55 M1.28 19.66 C4.07 15.25, 7.65 12.14, 17.03 1.55 M4.3 22.29 C10 15.41, 14.09 10.01, 22.67 1.16 M4.3 22.29 C7.95 18.4, 12.22 12.95, 22.67 1.16 M9.94 21.89 C16.43 15.44, 23.85 7.75, 27.66 1.52 M9.94 21.89 C13.48 16.71, 17.16 12.82, 27.66 1.52 M14.93 22.25 C19.76 13.82, 28.9 7.75, 33.3 1.12 M14.93 22.25 C20.36 17.07, 24.7 11.04, 33.3 1.12 M20.57 21.86 C23.92 19.01, 28.08 12.21, 38.29 1.48 M20.57 21.86 C27.2 14.35, 32.28 8.05, 38.29 1.48 M25.56 22.22 C33.5 13.2, 38.77 7.6, 43.93 1.09 M25.56 22.22 C32.84 13.56, 39 6.06, 43.93 1.09 M31.2 21.82 C37.52 16.45, 42.06 7.86, 48.92 1.45 M31.2 21.82 C37.17 15.39, 43.08 7.79, 48.92 1.45 M36.19 22.18 C41.31 16.65, 48.62 9.36, 54.56 1.05 M36.19 22.18 C40.82 17.36, 45.48 11.69, 54.56 1.05 M41.18 22.54 C46.82 14.75, 55.02 6.5, 59.55 1.41 M41.18 22.54 C46.27 15.96, 53.16 9.45, 59.55 1.41 M46.82 22.15 C53.85 17.28, 57.82 8.38, 64.53 1.77 M46.82 22.15 C53.46 14.4, 60.24 7.84, 64.53 1.77 M51.81 22.51 C59.58 14.73, 65.23 10.15, 70.18 1.38 M51.81 22.51 C59.02 15.14, 66.53 6.42, 70.18 1.38 M57.45 22.11 C61.04 14.51, 68.7 7.57, 75.16 1.74 M57.45 22.11 C63.26 16.35, 68.57 10.8, 75.16 1.74 M62.44 22.47 C65.41 19.14, 69.86 13.29, 80.81 1.34 M62.44 22.47 C69.23 15.05, 75.51 7.27, 80.81 1.34 M68.08 22.08 C72.09 16.47, 80.26 8.59, 85.79 1.7 M68.08 22.08 C71.38 17.64, 76.22 14.23, 85.79 1.7 M73.07 22.44 C76.37 17.7, 80.48 13.06, 91.44 1.31 M73.07 22.44 C78.71 17.61, 83.2 12.73, 91.44 1.31 M78.71 22.05 C81.54 18.9, 87.92 14.17, 96.42 1.67 M78.71 22.05 C83.25 15.62, 88.85 11, 96.42 1.67 M83.7 22.41 C89.49 16.39, 94.57 10.73, 102.07 1.27 M83.7 22.41 C89.16 16.91, 93.94 11.96, 102.07 1.27 M89.34 22.01 C96.53 14.57, 101.11 9.45, 107.05 1.63 M89.34 22.01 C95.68 14.94, 101.9 7.84, 107.05 1.63 M94.33 22.37 C99.11 17.81, 103.3 12.06, 112.04 1.99 M94.33 22.37 C100.32 17.31, 103.96 11.37, 112.04 1.99 M99.31 22.73 C104.5 16.76, 108.68 10.68, 115.06 4.62 M99.31 22.73 C103.22 18.8, 107.57 13.01, 115.06 4.62 M104.96 22.34 C106.94 18.4, 110.99 17.14, 114.8 11.02 M104.96 22.34 C109.46 17.35, 112.2 14.31, 114.8 11.02" stroke="#fab005" stroke-width="0.5" fill="none"></path><path d="M5.29 0 M5.29 0 C31.82 -0.76, 56.4 -2.08, 107.76 0 M5.29 0 C33.55 1.38, 60.7 1.35, 107.76 0 M107.76 0 C109.98 -0.97, 113.25 0.18, 113.05 5.29 M107.76 0 C109.67 0.53, 112.69 2.04, 113.05 5.29 M113.05 5.29 C112.51 7.35, 112.39 12.3, 113.05 15.87 M113.05 5.29 C113.42 7.78, 112.63 11.28, 113.05 15.87 M113.05 15.87 C114.94 20.6, 112.74 20.71, 107.76 21.16 M113.05 15.87 C113.68 17.25, 112.04 23.06, 107.76 21.16 M107.76 21.16 C74.35 20.33, 45.84 20.4, 5.29 21.16 M107.76 21.16 C80.53 21.55, 51.65 20.88, 5.29 21.16 M5.29 21.16 C1.06 21.61, 0.03 18.53, 0 15.87 M5.29 21.16 C4.06 22.31, 0.55 19.69, 0 15.87 M0 15.87 C1.03 13.7, -0.22 12.59, 0 5.29 M0 15.87 C0.41 13.86, 0.28 10.41, 0 5.29 M0 5.29 C0.04 0.82, 1.34 -0.25, 5.29 0 M0 5.29 C0.55 0.11, 4.02 -1.03, 5.29 0" stroke="#e67700" stroke-width="1" fill="none"></path></g><g stroke-linecap="round" transform="translate(417.5572787633806 376.048154240557) rotate(0 29.51614836192249 10.442039631166153)"><path d="M1.39 1.21 C1.39 1.21, 1.39 1.21, 1.39 1.21 M1.39 1.21 C1.39 1.21, 1.39 1.21, 1.39 1.21 M1.78 6.85 C2.88 5.94, 3.78 3.99, 6.38 1.57 M1.78 6.85 C3.26 5.04, 4.32 3.5, 6.38 1.57 M2.18 12.49 C3.68 10.09, 9.49 6.28, 12.02 1.17 M2.18 12.49 C5.26 8.67, 10.36 3.47, 12.02 1.17 M1.92 18.89 C6.63 13.72, 11.14 6.24, 17.01 1.53 M1.92 18.89 C4.57 14.64, 8.02 11.67, 17.01 1.53 M4.28 22.27 C9.98 15.39, 14.07 9.99, 22.65 1.14 M4.28 22.27 C7.94 18.38, 12.2 12.94, 22.65 1.14 M9.92 21.88 C16.41 15.42, 23.83 7.73, 27.64 1.5 M9.92 21.88 C13.47 16.69, 17.15 12.81, 27.64 1.5 M14.91 22.24 C19.74 13.81, 28.88 7.73, 33.28 1.1 M14.91 22.24 C20.34 17.06, 24.68 11.03, 33.28 1.1 M20.55 21.84 C23.9 19, 28.06 12.19, 38.27 1.46 M20.55 21.84 C27.18 14.33, 32.26 8.04, 38.27 1.46 M25.54 22.2 C33.23 13.46, 38.25 8.14, 43.25 1.82 M25.54 22.2 C32.58 13.82, 38.5 6.6, 43.25 1.82 M31.18 21.81 C37.51 16.44, 42.04 7.84, 48.9 1.43 M31.18 21.81 C37.15 15.37, 43.06 7.77, 48.9 1.43 M36.17 22.17 C41.09 16.86, 48.21 9.8, 53.88 1.79 M36.17 22.17 C40.65 17.52, 45.16 12.03, 53.88 1.79 M41.16 22.53 C46.55 15.03, 54.48 7.09, 58.87 2.15 M41.16 22.53 C46.05 16.16, 52.75 9.88, 58.87 2.15 M46.8 22.13 C52.78 18.52, 55.67 10.87, 61.23 5.53 M46.8 22.13 C52.29 15.74, 57.89 10.55, 61.23 5.53 M51.79 22.49 C56.29 18.16, 59.24 16.21, 61.63 11.17 M51.79 22.49 C55.7 18.72, 59.8 13.95, 61.63 11.17" stroke="#fab005" stroke-width="0.5" fill="none"></path><path d="M5.22 0 M5.22 0 C18.94 -0.95, 36.53 -1.35, 53.81 0 M5.22 0 C20.15 -0.01, 34.61 0.47, 53.81 0 M53.81 0 C55.35 -1.77, 59.06 0.8, 59.03 5.22 M53.81 0 C58.4 -0.26, 58.34 3, 59.03 5.22 M59.03 5.22 C59.09 9.44, 58.8 13.52, 59.03 15.66 M59.03 5.22 C59.18 8.95, 58.88 11.86, 59.03 15.66 M59.03 15.66 C57.9 20.31, 56.48 20.47, 53.81 20.88 M59.03 15.66 C60.99 20.31, 55.41 18.64, 53.81 20.88 M53.81 20.88 C40.23 20.59, 27.2 19.29, 5.22 20.88 M53.81 20.88 C41.65 21.76, 27.1 21.54, 5.22 20.88 M5.22 20.88 C3.15 19.67, 1.74 20.17, 0 15.66 M5.22 20.88 C3.78 20.32, 1.18 17.56, 0 15.66 M0 15.66 C0.16 12.67, 0 10.09, 0 5.22 M0 15.66 C0.15 12.05, -0.38 9.35, 0 5.22 M0 5.22 C1.31 1.76, 3.3 0.83, 5.22 0 M0 5.22 C0.82 1.63, 1.69 1.42, 5.22 0" stroke="#e67700" stroke-width="1" fill="none"></path></g><g stroke-linecap="round"><g transform="translate(703.6307840782504 283.244466779568) rotate(0 26.66027280477374 -24.29359666571918)" fill-rule="evenodd"><path d="M0 0 L38.77 22.05 L52.89 13.62 L53.37 -47.72 L14.07 -70.64 L-0.05 -61.62 L0 0" stroke="none" stroke-width="0" fill="#ced4da" fill-rule="evenodd"></path><path d="M0 0 C10.97 6.24, 21.93 12.47, 38.77 22.05 M0 0 C7.94 4.52, 15.88 9.03, 38.77 22.05 M38.77 22.05 C44.36 18.72, 49.95 15.38, 52.89 13.62 M38.77 22.05 C43.04 19.5, 47.31 16.96, 52.89 13.62 M52.89 13.62 C53.01 -1.46, 53.13 -16.54, 53.37 -47.72 M52.89 13.62 C53.04 -5.81, 53.19 -25.24, 53.37 -47.72 M53.37 -47.72 C41.65 -54.55, 29.93 -61.39, 14.07 -70.64 M53.37 -47.72 C45.45 -52.34, 37.53 -56.96, 14.07 -70.64 M14.07 -70.64 C8.93 -67.35, 3.78 -64.07, -0.05 -61.62 M14.07 -70.64 C8.82 -67.29, 3.57 -63.93, -0.05 -61.62 M-0.05 -61.62 C-0.04 -47.17, -0.03 -32.72, 0 0 M-0.05 -61.62 C-0.03 -38.56, -0.01 -15.51, 0 0 M0 0 C0 0, 0 0, 0 0 M0 0 C0 0, 0 0, 0 0" stroke="#495057" stroke-width="2" fill="none"></path></g></g><mask></mask><g stroke-linecap="round"><g transform="translate(703.6810734727485 221.7192597291841) rotate(0 19.765625 41.58288043478251)"><path d="M0 0 C11.17 6.58, 22.34 13.16, 39.53 23.28 M0 0 C11.27 6.64, 22.54 13.28, 39.53 23.28 M39.53 23.28 C39.42 38.56, 39.31 53.84, 39.1 83.17 M39.53 23.28 C39.44 35.97, 39.35 48.67, 39.1 83.17" stroke="#495057" stroke-width="2" fill="none"></path></g></g><mask></mask><g stroke-linecap="round"><g transform="translate(743.4297147770965 244.7491510335321) rotate(0 6.689967105263349 -4.255756578947285)"><path d="M0 0 C2.77 -1.76, 5.54 -3.52, 13.38 -8.51 M0 0 C4.75 -3.02, 9.5 -6.04, 13.38 -8.51" stroke="#495057" stroke-width="2" fill="none"></path></g></g><mask></mask><g stroke-linecap="round"><g transform="translate(703.42363640181 273.853842109047) rotate(0 26.294518525839635 11.509046052631675)"><path d="M0 0 C8.06 4.74, 16.12 9.48, 39.14 23.02 M0 0 C15.35 9.03, 30.7 18.05, 39.14 23.02 M39.14 23.02 C44.42 19.63, 49.7 16.24, 52.59 14.39 M39.14 23.02 C42.59 20.8, 46.05 18.59, 52.59 14.39" stroke="#495057" stroke-width="2" fill="none"></path></g></g><mask></mask><g stroke-linecap="round"><g transform="translate(704.1616226718331 254.21997483215813) rotate(0 26.34886635192663 11.509046052631675)"><path d="M0 0 C13.62 8.01, 27.23 16.02, 39.14 23.02 M0 0 C15.01 8.83, 30.03 17.66, 39.14 23.02 M39.14 23.02 C42.48 20.89, 45.83 18.76, 52.7 14.39 M39.14 23.02 C42.23 21.05, 45.32 19.09, 52.7 14.39" stroke="#495057" stroke-width="2" fill="none"></path></g></g><mask></mask><g stroke-linecap="round"><g transform="translate(703.641027706158 243.36185126236472) rotate(0 26.185822873665643 11.509046052631675)"><path d="M0 0 C15.34 9.02, 30.69 18.05, 39.14 23.02 M0 0 C7.98 4.69, 15.96 9.39, 39.14 23.02 M39.14 23.02 C43.44 20.28, 47.75 17.55, 52.37 14.61 M39.14 23.02 C43.66 20.14, 48.19 17.27, 52.37 14.61" stroke="#495057" stroke-width="2" fill="none"></path></g></g><mask></mask><g stroke-linecap="round"><g transform="translate(703.641027706158 233.06894508387535) rotate(0 26.24017069975264 11.509046052631675)"><path d="M0 0 C15.28 8.98, 30.55 17.97, 39.14 23.02 M0 0 C8.54 5.02, 17.07 10.04, 39.14 23.02 M39.14 23.02 C41.9 21.25, 44.66 19.49, 52.48 14.5 M39.14 23.02 C43.19 20.43, 47.24 17.85, 52.48 14.5" stroke="#495057" stroke-width="2" fill="none"></path></g></g><mask></mask><g stroke-linecap="round"><g transform="translate(716.346412413269 239.3240288873148) rotate(0 6.827560795873296 -9.279661016949149)"><path d="M0 0 C-0.05 -3.94, -0.09 -7.88, -0.12 -10.59 M0 0 C-0.03 -2.48, -0.06 -4.97, -0.12 -10.59 M-0.12 -10.59 C5.08 -13.57, 10.28 -16.55, 13.78 -18.56 M-0.12 -10.59 C4.16 -13.05, 8.45 -15.51, 13.78 -18.56" stroke="#495057" stroke-width="2" fill="none"></path></g></g><mask></mask><g stroke-linecap="round"><g transform="translate(733.4318950956574 249.58563537220783) rotate(0 6.962048636698228 -9.666543846721197)"><path d="M0 0 C-0.05 -3.36, -0.11 -6.71, -0.17 -10.74 M0 0 C-0.04 -2.27, -0.07 -4.54, -0.17 -10.74 M-0.17 -10.74 C4.95 -13.82, 10.08 -16.91, 14.09 -19.33 M-0.17 -10.74 C2.94 -12.61, 6.05 -14.48, 14.09 -19.33" stroke="#495057" stroke-width="2" fill="none"></path></g></g><mask></mask><g stroke-linecap="round"><g transform="translate(710.9226835997094 237.92019690499995) rotate(0 0.02394988946207377 4.39941046425929)"><path d="M0 0 C0.01 1.77, 0.02 3.54, 0.05 8.8 M0 0 C0.02 2.86, 0.03 5.73, 0.05 8.8" stroke="#495057" stroke-width="2" fill="none"></path></g></g><mask></mask><g stroke-linecap="round"><g transform="translate(728.3139879475364 248.1375882093484) rotate(0 0.02394988946207377 4.39941046425929)"><path d="M0 0 C0.02 3.03, 0.03 6.05, 0.05 8.8 M0 0 C0.02 3.09, 0.03 6.18, 0.05 8.8" stroke="#495057" stroke-width="2" fill="none"></path></g></g><mask></mask><g stroke-linecap="round"><g transform="translate(703.9442313674851 264.65475744085455) rotate(0 26.34886635192663 11.509046052631675)"><path d="M0 0 C13.06 7.68, 26.12 15.36, 39.14 23.02 M0 0 C10.73 6.31, 21.47 12.63, 39.14 23.02 M39.14 23.02 C43.06 20.53, 46.98 18.03, 52.7 14.39 M39.14 23.02 C43.96 19.95, 48.79 16.88, 52.7 14.39" stroke="#495057" stroke-width="2" fill="none"></path></g></g><mask></mask><g stroke-linecap="round"><g transform="translate(732.6618140344924 260.96367516587037) rotate(0 0.02394988946207377 4.39941046425929)"><path d="M0 0 C0.02 3.08, 0.03 6.17, 0.05 8.8 M0 0 C0.01 1.85, 0.02 3.7, 0.05 8.8" stroke="#495057" stroke-width="2" fill="none"></path></g></g><mask></mask><g stroke-linecap="round"><g transform="translate(715.7052922953624 252.26802299195737) rotate(0 0.02394988946207377 3.8559322033897843)"><path d="M0 0 C0.02 2.74, 0.03 5.49, 0.05 7.71 M0 0 C0.01 1.73, 0.02 3.46, 0.05 7.71" stroke="#495057" stroke-width="2" fill="none"></path></g></g><mask></mask><g stroke-linecap="round"><g transform="translate(727.0096401214494 267.4854142963049) rotate(0 0.02394988946207377 4.39941046425929)"><path d="M0 0 C0.02 2.84, 0.03 5.68, 0.05 8.8 M0 0 C0.02 3.39, 0.04 6.79, 0.05 8.8" stroke="#495057" stroke-width="2" fill="none"></path></g></g><mask></mask><g stroke-linecap="round"><g transform="translate(709.8357270779713 258.35497951369683) rotate(0 0.02394988946207377 4.39941046425929)"><path d="M0 0 C0.01 1.87, 0.02 3.74, 0.05 8.8 M0 0 C0.01 2.3, 0.03 4.6, 0.05 8.8" stroke="#495057" stroke-width="2" fill="none"></path></g></g><mask></mask><g stroke-linecap="round"><g transform="translate(716.1400749040583 272.7028056006529) rotate(0 0.02394988946207377 4.39941046425929)"><path d="M0 0 C0.01 1.96, 0.02 3.93, 0.05 8.8 M0 0 C0.02 3.24, 0.04 6.49, 0.05 8.8" stroke="#495057" stroke-width="2" fill="none"></path></g></g><mask></mask><g stroke-linecap="round"><g transform="translate(731.5748575127534 281.1810664702179) rotate(0 0.02394988946207377 4.0733235077377685)"><path d="M0 0 C0.01 1.7, 0.02 3.39, 0.05 8.15 M0 0 C0.01 1.82, 0.02 3.63, 0.05 8.15" stroke="#495057" stroke-width="2" fill="none"></path></g></g><mask></mask><g stroke-linecap="round"><g transform="translate(726.5748575127534 287.48541429630535) rotate(0 0.02394988946207377 3.8559322033897843)"><path d="M0 0 C0.02 2.66, 0.03 5.32, 0.05 7.71 M0 0 C0.02 2.49, 0.03 4.98, 0.05 7.71" stroke="#495057" stroke-width="2" fill="none"></path></g></g><mask></mask><g stroke-linecap="round"><g transform="translate(710.4879009910144 279.00715342674033) rotate(0 0.02394988946207377 3.8559322033897843)"><path d="M0 0 C0.01 1.99, 0.02 3.98, 0.05 7.71 M0 0 C0.02 3.07, 0.04 6.14, 0.05 7.71" stroke="#495057" stroke-width="2" fill="none"></path></g></g><mask></mask><g transform="translate(226.08367078658262 296.75737554782285) rotate(0 27.48998260498047 12.5)"><text x="0" y="0" font-family="Virgil, Segoe UI Emoji" font-size="20px" fill="#000000" text-anchor="start" style="white-space: pre;" direction="ltr" dominant-baseline="text-before-edge">Maria</text></g><g stroke-linecap="round"><g transform="translate(223.29645013807522 287.1044495378441) rotate(0 25.819645202628976 -21.79569932933711)" fill-rule="evenodd"><path d="M13.47 -38.64 C13.47 -38.64, 13.47 -38.64, 13.47 -38.64 M13.47 -38.64 C13.47 -38.64, 13.47 -38.64, 13.47 -38.64 M7.04 -19.05 C11.7 -24.41, 16.36 -29.77, 26.72 -41.69 M7.04 -19.05 C12 -24.75, 16.95 -30.45, 26.72 -41.69 M0.61 0.53 C13.03 -13.75, 25.45 -28.04, 35.39 -39.47 M0.61 0.53 C7.58 -7.48, 14.54 -15.49, 35.39 -39.47 M11.24 0.5 C18.01 -7.28, 24.78 -15.07, 40.77 -33.46 M11.24 0.5 C17.36 -6.54, 23.48 -13.57, 40.77 -33.46 M21.87 0.47 C28.31 -6.93, 34.74 -14.33, 46.81 -28.21 M21.87 0.47 C27.82 -6.37, 33.76 -13.2, 46.81 -28.21 M29.22 4.2 C36.99 -4.73, 44.75 -13.66, 50.87 -20.7 M29.22 4.2 C36.96 -4.7, 44.7 -13.6, 50.87 -20.7 M41.82 1.91 C45.97 -2.86, 50.11 -7.63, 54.94 -13.19 M41.82 1.91 C44.67 -1.37, 47.51 -4.64, 54.94 -13.19 M0 0 C0 0, 0 0, 0 0 M0 0 C0 0, 0 0, 0 0 M12.04 -0.13 C8.43 -3.27, 4.83 -6.4, 1.47 -9.32 M12.04 -0.13 C8.34 -3.35, 4.63 -6.58, 1.47 -9.32 M24.84 0.39 C16.95 -6.47, 9.06 -13.33, 2.95 -18.64 M24.84 0.39 C18.56 -5.07, 12.28 -10.53, 2.95 -18.64 M30.08 -5.65 C21.75 -12.9, 13.41 -20.14, 6.69 -25.99 M30.08 -5.65 C21.47 -13.14, 12.85 -20.63, 6.69 -25.99 M45.9 -2.5 C33.17 -13.56, 20.44 -24.63, 9.67 -33.99 M45.9 -2.5 C36.9 -10.32, 27.9 -18.14, 9.67 -33.99 M52.66 -7.23 C41.58 -16.86, 30.5 -26.48, 14.92 -40.03 M52.66 -7.23 C44.64 -14.2, 36.62 -21.17, 14.92 -40.03 M51.11 -19.17 C41.57 -27.46, 32.03 -35.76, 20.92 -45.41 M51.11 -19.17 C39.97 -28.86, 28.82 -38.55, 20.92 -45.41" stroke="#ced4da" stroke-width="1" fill="none"></path><path d="M0 0 C0.92 -4.85, 1.58 -21.76, 5.52 -29.07 C9.46 -36.38, 17.61 -43.34, 23.65 -43.87 C29.69 -44.4, 37.51 -39.05, 41.78 -32.24 C46.05 -25.43, 56.23 -8.39, 49.27 -3.02 C42.31 2.36, 8.21 -0.5, 0 0 M0 0 C0.92 -4.85, 1.58 -21.76, 5.52 -29.07 C9.46 -36.38, 17.61 -43.34, 23.65 -43.87 C29.69 -44.4, 37.51 -39.05, 41.78 -32.24 C46.05 -25.43, 56.23 -8.39, 49.27 -3.02 C42.31 2.36, 8.21 -0.5, 0 0" stroke="#000000" stroke-width="2" fill="none"></path></g></g><mask></mask><g stroke-linecap="round" transform="translate(235.7503209743909 220.4134017519877) rotate(0 12.612971703843215 11.036350240862845)"><path d="M2.98 3.91 C2.98 3.91, 2.98 3.91, 2.98 3.91 M2.98 3.91 C2.98 3.91, 2.98 3.91, 2.98 3.91 M2.45 16.71 C5.78 12.89, 9.1 9.07, 16.23 0.86 M2.45 16.71 C7.3 11.13, 12.15 5.55, 16.23 0.86 M8.49 21.96 C13.31 16.41, 18.13 10.87, 23.58 4.6 M8.49 21.96 C12.58 17.26, 16.66 12.56, 23.58 4.6 M4.36 19.37 C4.36 19.37, 4.36 19.37, 4.36 19.37 M4.36 19.37 C4.36 19.37, 4.36 19.37, 4.36 19.37 M17.91 20.55 C13.15 16.41, 8.39 12.27, 1.31 6.11 M17.91 20.55 C13.91 17.07, 9.92 13.59, 1.31 6.11 M24.67 15.82 C19.9 11.67, 15.12 7.52, 7.31 0.73 M24.67 15.82 C20.35 12.06, 16.02 8.3, 7.31 0.73" stroke="#ced4da" stroke-width="1" fill="none"></path><path d="M25.23 11.04 C25.23 11.68, 25.16 12.32, 25.03 12.95 C24.91 13.58, 24.71 14.21, 24.47 14.81 C24.22 15.41, 23.9 16, 23.54 16.55 C23.17 17.11, 22.74 17.64, 22.28 18.13 C21.81 18.62, 21.28 19.08, 20.72 19.49 C20.16 19.9, 19.55 20.27, 18.92 20.59 C18.29 20.91, 17.61 21.19, 16.93 21.41 C16.24 21.63, 15.52 21.79, 14.8 21.91 C14.08 22.02, 13.34 22.07, 12.61 22.07 C11.88 22.07, 11.14 22.02, 10.42 21.91 C9.7 21.79, 8.99 21.63, 8.3 21.41 C7.61 21.19, 6.94 20.91, 6.31 20.59 C5.67 20.27, 5.06 19.9, 4.51 19.49 C3.95 19.08, 3.42 18.62, 2.95 18.13 C2.48 17.64, 2.05 17.11, 1.69 16.55 C1.32 16, 1.01 15.41, 0.76 14.81 C0.51 14.21, 0.32 13.58, 0.19 12.95 C0.06 12.32, 0 11.68, 0 11.04 C0 10.4, 0.06 9.75, 0.19 9.12 C0.32 8.49, 0.51 7.86, 0.76 7.26 C1.01 6.66, 1.32 6.07, 1.69 5.52 C2.05 4.96, 2.48 4.43, 2.95 3.94 C3.42 3.45, 3.95 2.99, 4.51 2.58 C5.06 2.17, 5.67 1.8, 6.31 1.48 C6.94 1.16, 7.61 0.88, 8.3 0.67 C8.99 0.45, 9.7 0.28, 10.42 0.17 C11.14 0.06, 11.88 0, 12.61 0 C13.34 0, 14.08 0.06, 14.8 0.17 C15.52 0.28, 16.24 0.45, 16.93 0.67 C17.61 0.88, 18.29 1.16, 18.92 1.48 C19.55 1.8, 20.16 2.17, 20.72 2.58 C21.28 2.99, 21.81 3.45, 22.28 3.94 C22.74 4.43, 23.17 4.96, 23.54 5.52 C23.9 6.07, 24.22 6.66, 24.47 7.26 C24.71 7.86, 24.91 8.49, 25.03 9.12 C25.16 9.75, 25.19 10.72, 25.23 11.04 C25.26 11.36, 25.26 10.72, 25.23 11.04" stroke="#000000" stroke-width="2" fill="none"></path></g><g transform="translate(794.8461332360104 294.9017402276976) rotate(0 23.439979553222656 12.5)"><text x="0" y="0" font-family="Virgil, Segoe UI Emoji" font-size="20px" fill="#000000" text-anchor="start" style="white-space: pre;" direction="ltr" dominant-baseline="text-before-edge">Reto</text></g><g stroke-linecap="round"><g transform="translate(792.0589125875032 285.24881421771886) rotate(0 25.819645202628976 -21.79569932933711)" fill-rule="evenodd"><path d="M13.47 -38.64 C13.47 -38.64, 13.47 -38.64, 13.47 -38.64 M13.47 -38.64 C13.47 -38.64, 13.47 -38.64, 13.47 -38.64 M7.04 -19.05 C11.7 -24.41, 16.36 -29.77, 26.72 -41.69 M7.04 -19.05 C12 -24.75, 16.95 -30.45, 26.72 -41.69 M0.61 0.53 C13.03 -13.75, 25.45 -28.04, 35.39 -39.47 M0.61 0.53 C7.58 -7.48, 14.54 -15.49, 35.39 -39.47 M11.24 0.5 C18.01 -7.28, 24.78 -15.07, 40.77 -33.46 M11.24 0.5 C17.36 -6.54, 23.48 -13.57, 40.77 -33.46 M21.87 0.47 C28.31 -6.93, 34.74 -14.33, 46.81 -28.21 M21.87 0.47 C27.82 -6.37, 33.76 -13.2, 46.81 -28.21 M29.22 4.2 C36.99 -4.73, 44.75 -13.66, 50.87 -20.7 M29.22 4.2 C36.96 -4.7, 44.7 -13.6, 50.87 -20.7 M41.82 1.91 C45.97 -2.86, 50.11 -7.63, 54.94 -13.19 M41.82 1.91 C44.67 -1.37, 47.51 -4.64, 54.94 -13.19 M0 0 C0 0, 0 0, 0 0 M0 0 C0 0, 0 0, 0 0 M12.04 -0.13 C8.43 -3.27, 4.83 -6.4, 1.47 -9.32 M12.04 -0.13 C8.34 -3.35, 4.63 -6.58, 1.47 -9.32 M24.84 0.39 C16.95 -6.47, 9.06 -13.33, 2.95 -18.64 M24.84 0.39 C18.56 -5.07, 12.28 -10.53, 2.95 -18.64 M30.08 -5.65 C21.75 -12.9, 13.41 -20.14, 6.69 -25.99 M30.08 -5.65 C21.47 -13.14, 12.85 -20.63, 6.69 -25.99 M45.9 -2.5 C33.17 -13.56, 20.44 -24.63, 9.67 -33.99 M45.9 -2.5 C36.9 -10.32, 27.9 -18.14, 9.67 -33.99 M52.66 -7.23 C41.58 -16.86, 30.5 -26.48, 14.92 -40.03 M52.66 -7.23 C44.64 -14.2, 36.62 -21.17, 14.92 -40.03 M51.11 -19.17 C41.57 -27.46, 32.03 -35.76, 20.92 -45.41 M51.11 -19.17 C39.97 -28.86, 28.82 -38.55, 20.92 -45.41" stroke="#ced4da" stroke-width="1" fill="none"></path><path d="M0 0 C0.92 -4.85, 1.58 -21.76, 5.52 -29.07 C9.46 -36.38, 17.61 -43.34, 23.65 -43.87 C29.69 -44.4, 37.51 -39.05, 41.78 -32.24 C46.05 -25.43, 56.23 -8.39, 49.27 -3.02 C42.31 2.36, 8.21 -0.5, 0 0 M0 0 C0.92 -4.85, 1.58 -21.76, 5.52 -29.07 C9.46 -36.38, 17.61 -43.34, 23.65 -43.87 C29.69 -44.4, 37.51 -39.05, 41.78 -32.24 C46.05 -25.43, 56.23 -8.39, 49.27 -3.02 C42.31 2.36, 8.21 -0.5, 0 0" stroke="#000000" stroke-width="2" fill="none"></path></g></g><mask></mask><g stroke-linecap="round" transform="translate(804.5127834238189 218.55776643186243) rotate(0 12.612971703843186 11.036350240862845)"><path d="M2.98 3.91 C2.98 3.91, 2.98 3.91, 2.98 3.91 M2.98 3.91 C2.98 3.91, 2.98 3.91, 2.98 3.91 M2.45 16.71 C5.78 12.89, 9.1 9.07, 16.23 0.86 M2.45 16.71 C7.3 11.13, 12.15 5.55, 16.23 0.86 M8.49 21.96 C13.31 16.41, 18.13 10.87, 23.58 4.6 M8.49 21.96 C12.58 17.26, 16.66 12.56, 23.58 4.6 M4.36 19.37 C4.36 19.37, 4.36 19.37, 4.36 19.37 M4.36 19.37 C4.36 19.37, 4.36 19.37, 4.36 19.37 M17.91 20.55 C13.15 16.41, 8.39 12.27, 1.31 6.11 M17.91 20.55 C13.91 17.07, 9.92 13.59, 1.31 6.11 M24.67 15.82 C19.9 11.67, 15.12 7.52, 7.31 0.73 M24.67 15.82 C20.35 12.06, 16.02 8.3, 7.31 0.73" stroke="#ced4da" stroke-width="1" fill="none"></path><path d="M25.23 11.04 C25.23 11.68, 25.16 12.32, 25.03 12.95 C24.91 13.58, 24.71 14.21, 24.47 14.81 C24.22 15.41, 23.9 16, 23.54 16.55 C23.17 17.11, 22.74 17.64, 22.28 18.13 C21.81 18.62, 21.28 19.08, 20.72 19.49 C20.16 19.9, 19.55 20.27, 18.92 20.59 C18.29 20.91, 17.61 21.19, 16.93 21.41 C16.24 21.63, 15.52 21.79, 14.8 21.91 C14.08 22.02, 13.34 22.07, 12.61 22.07 C11.88 22.07, 11.14 22.02, 10.42 21.91 C9.7 21.79, 8.99 21.63, 8.3 21.41 C7.61 21.19, 6.94 20.91, 6.31 20.59 C5.67 20.27, 5.06 19.9, 4.51 19.49 C3.95 19.08, 3.42 18.62, 2.95 18.13 C2.48 17.64, 2.05 17.11, 1.69 16.55 C1.32 16, 1.01 15.41, 0.76 14.81 C0.51 14.21, 0.32 13.58, 0.19 12.95 C0.06 12.32, 0 11.68, 0 11.04 C0 10.4, 0.06 9.75, 0.19 9.12 C0.32 8.49, 0.51 7.86, 0.76 7.26 C1.01 6.66, 1.32 6.07, 1.69 5.52 C2.05 4.96, 2.48 4.43, 2.95 3.94 C3.42 3.45, 3.95 2.99, 4.51 2.58 C5.06 2.17, 5.67 1.8, 6.31 1.48 C6.94 1.16, 7.61 0.88, 8.3 0.67 C8.99 0.45, 9.7 0.28, 10.42 0.17 C11.14 0.06, 11.88 0, 12.61 0 C13.34 0, 14.08 0.06, 14.8 0.17 C15.52 0.28, 16.24 0.45, 16.93 0.67 C17.61 0.88, 18.29 1.16, 18.92 1.48 C19.55 1.8, 20.16 2.17, 20.72 2.58 C21.28 2.99, 21.81 3.45, 22.28 3.94 C22.74 4.43, 23.17 4.96, 23.54 5.52 C23.9 6.07, 24.22 6.66, 24.47 7.26 C24.71 7.86, 24.91 8.49, 25.03 9.12 C25.16 9.75, 25.19 10.72, 25.23 11.04 C25.26 11.36, 25.26 10.72, 25.23 11.04" stroke="#000000" stroke-width="2" fill="none"></path></g><g stroke-linecap="round" transform="translate(505.5777518150928 10) rotate(0 18.63417999847718 34.78380266382396)"><path d="M0 0 C0 0, 0 0, 0 0 M0 0 C0 0, 0 0, 0 0 M0.13 12.04 C3.49 8.17, 6.86 4.31, 10.63 -0.03 M0.13 12.04 C2.66 9.13, 5.19 6.22, 10.63 -0.03 M0.27 24.08 C8.07 15.11, 15.87 6.13, 21.26 -0.07 M0.27 24.08 C7.16 16.15, 14.06 8.22, 21.26 -0.07 M-0.26 36.88 C8.5 26.8, 17.27 16.72, 31.89 -0.1 M-0.26 36.88 C12.06 22.71, 24.38 8.54, 31.89 -0.1 M-0.12 48.92 C13.94 32.74, 28 16.57, 39.9 2.88 M-0.12 48.92 C14.81 31.74, 29.73 14.57, 39.9 2.88 M0.01 60.96 C15.88 42.7, 31.76 24.44, 40.03 14.92 M0.01 60.96 C8.55 51.14, 17.08 41.32, 40.03 14.92 M1.45 71.49 C9.84 61.85, 18.22 52.2, 40.16 26.96 M1.45 71.49 C11.43 60.02, 21.4 48.54, 40.16 26.96 M12.09 71.46 C20.49 61.79, 28.9 52.12, 40.3 39 M12.09 71.46 C20.24 62.08, 28.39 52.7, 40.3 39 M22.72 71.42 C29.2 63.97, 35.68 56.51, 40.43 51.04 M22.72 71.42 C26.43 67.15, 30.14 62.89, 40.43 51.04 M33.35 71.39 C34.94 69.55, 36.53 67.72, 39.91 63.84 M33.35 71.39 C34.87 69.64, 36.39 67.89, 39.91 63.84 M0.27 69.8 C0.27 69.8, 0.27 69.8, 0.27 69.8 M0.27 69.8 C0.27 69.8, 0.27 69.8, 0.27 69.8 M12.31 69.67 C9.19 66.96, 6.08 64.25, 0.24 59.17 M12.31 69.67 C9.57 67.28, 6.82 64.9, 0.24 59.17 M24.35 69.54 C17.98 63.99, 11.6 58.45, 0.2 48.54 M24.35 69.54 C17.28 63.39, 10.21 57.24, 0.2 48.54 M36.39 69.4 C27.97 62.08, 19.55 54.76, 0.17 37.91 M36.39 69.4 C24.6 59.15, 12.8 48.89, 0.17 37.91 M42.4 64.02 C31.22 54.31, 20.05 44.59, 0.13 27.28 M42.4 64.02 C31.87 54.87, 21.34 45.72, 0.13 27.28 M42.36 53.39 C33.29 45.5, 24.21 37.62, 0.1 16.65 M42.36 53.39 C27.98 40.89, 13.6 28.39, 0.1 16.65 M42.33 42.76 C31.71 33.53, 21.08 24.29, 0.06 6.02 M42.33 42.76 C28.75 30.96, 15.17 19.16, 0.06 6.02 M42.29 32.13 C29.7 21.18, 17.1 10.23, 2.29 -2.64 M42.29 32.13 C28.33 19.99, 14.36 7.85, 2.29 -2.64 M42.26 21.5 C34.5 14.76, 26.74 8.01, 14.33 -2.77 M42.26 21.5 C33.69 14.05, 25.12 6.6, 14.33 -2.77 M42.22 10.87 C38.99 8.06, 35.76 5.25, 26.38 -2.91 M42.22 10.87 C35.98 5.44, 29.73 0.01, 26.38 -2.91" stroke="#ced4da" stroke-width="1" fill="none"></path><path d="M0 0 C8.48 0, 16.95 0, 37.27 0 M0 0 C13.97 0, 27.95 0, 37.27 0 M37.27 0 C37.27 14.91, 37.27 29.82, 37.27 69.57 M37.27 0 C37.27 21.65, 37.27 43.29, 37.27 69.57 M37.27 69.57 C24.94 69.57, 12.62 69.57, 0 69.57 M37.27 69.57 C29.02 69.57, 20.77 69.57, 0 69.57 M0 69.57 C0 49.02, 0 28.48, 0 0 M0 69.57 C0 42.19, 0 14.81, 0 0" stroke="#000000" stroke-width="2" fill="none"></path></g><g transform="translate(463.1944864776044 90.96551902814281) rotate(0 61.19994354248047 12.5)"><text x="0" y="0" font-family="Virgil, Segoe UI Emoji" font-size="20px" fill="#000000" text-anchor="start" style="white-space: pre;" direction="ltr" dominant-baseline="text-before-edge">Relay-Server</text></g><g stroke-linecap="round"><g transform="translate(510.0623091482232 17.695950665955706) rotate(0 14.286204665499099 1.1368683772161603e-13)"><path d="M0 0 C4.76 0, 23.81 0, 28.57 0 M0 0 C4.76 0, 23.81 0, 28.57 0" stroke="#000000" stroke-width="2" fill="none"></path></g></g><mask></mask><g stroke-linecap="round"><g transform="translate(509.92572714807034 24.099748443564067) rotate(0 14.286204665499099 1.1368683772161603e-13)"><path d="M0 0 C4.76 0, 23.81 0, 28.57 0 M0 0 C4.76 0, 23.81 0, 28.57 0" stroke="#000000" stroke-width="2" fill="none"></path></g></g><mask></mask><g stroke-linecap="round"><g transform="translate(509.89484181433113 30.503546221173337) rotate(0 14.286204665499099 1.1368683772161603e-13)"><path d="M0 0 C4.76 0, 23.81 0, 28.57 0 M0 0 C4.76 0, 23.81 0, 28.57 0" stroke="#000000" stroke-width="2" fill="none"></path></g></g><mask></mask><g stroke-linecap="round"><g transform="translate(509.89484181433113 36.90734399878215) rotate(0 14.286204665499099 1.1368683772161603e-13)"><path d="M0 0 C4.76 0, 23.81 0, 28.57 0 M0 0 C4.76 0, 23.81 0, 28.57 0" stroke="#000000" stroke-width="2" fill="none"></path></g></g><mask></mask><g stroke-linecap="round"><g transform="translate(337.6710659156774 295.51583883854823) rotate(0.8330005424890489 27.139656399879954 -24.730424592910822)" fill-rule="evenodd"><path d="M0 0 L39.47 22.45 L53.84 13.87 L54.33 -48.58 L14.32 -71.91 L-0.05 -62.73 L0 0" stroke="none" stroke-width="0" fill="#ced4da" fill-rule="evenodd"></path><path d="M0 0 C11.16 6.35, 22.32 12.7, 39.47 22.45 M0 0 C8.08 4.6, 16.17 9.19, 39.47 22.45 M39.47 22.45 C45.16 19.05, 50.84 15.66, 53.84 13.87 M39.47 22.45 C43.82 19.86, 48.16 17.26, 53.84 13.87 M53.84 13.87 C53.96 -1.49, 54.08 -16.84, 54.33 -48.58 M53.84 13.87 C54 -5.91, 54.15 -25.7, 54.33 -48.58 M54.33 -48.58 C42.4 -55.54, 30.47 -62.49, 14.32 -71.91 M54.33 -48.58 C46.27 -53.28, 38.21 -57.98, 14.32 -71.91 M14.32 -71.91 C9.09 -68.57, 3.85 -65.22, -0.05 -62.73 M14.32 -71.91 C8.98 -68.5, 3.64 -65.08, -0.05 -62.73 M-0.05 -62.73 C-0.04 -48.02, -0.03 -33.31, 0 0 M-0.05 -62.73 C-0.03 -39.26, -0.01 -15.78, 0 0 M0 0 C0 0, 0 0, 0 0 M0 0 C0 0, 0 0, 0 0" stroke="#495057" stroke-width="2" fill="none"></path></g></g><mask></mask><g stroke-linecap="round"><g transform="translate(337.65859928587986 232.7825737469082) rotate(0.8330005424890489 20.121034580442256 42.33059036497227)"><path d="M0 0 C11.37 6.7, 22.74 13.39, 40.24 23.7 M0 0 C11.47 6.76, 22.95 13.51, 40.24 23.7 M40.24 23.7 C40.13 39.25, 40.02 54.8, 39.8 84.66 M40.24 23.7 C40.15 36.62, 40.05 49.54, 39.8 84.66" stroke="#495057" stroke-width="2" fill="none"></path></g></g><mask></mask><g stroke-linecap="round"><g transform="translate(378.45665720505826 256.62377077611643) rotate(0.8330005424890489 6.8102607161182505 -4.332280172822408)"><path d="M0 0 C2.82 -1.79, 5.64 -3.59, 13.62 -8.66 M0 0 C4.84 -3.08, 9.67 -6.15, 13.62 -8.66" stroke="#495057" stroke-width="2" fill="none"></path></g></g><mask></mask><g stroke-linecap="round"><g transform="translate(337.0693703916157 285.94503933119773) rotate(0.8330005424890489 26.767325421508275 11.715992467372246)"><path d="M0 0 C8.2 4.83, 16.41 9.65, 39.84 23.43 M0 0 C15.62 9.19, 31.25 18.38, 39.84 23.43 M39.84 23.43 C45.22 19.98, 50.6 16.54, 53.53 14.65 M39.84 23.43 C43.36 21.18, 46.88 18.92, 53.53 14.65" stroke="#495057" stroke-width="2" fill="none"></path></g></g><mask></mask><g stroke-linecap="round"><g transform="translate(338.11111275740745 265.9719700741918) rotate(0.8330005424890489 26.82265048651726 11.715992467372246)"><path d="M0 0 C13.86 8.15, 27.72 16.3, 39.84 23.43 M0 0 C15.28 8.99, 30.57 17.98, 39.84 23.43 M39.84 23.43 C43.25 21.27, 46.65 19.1, 53.65 14.65 M39.84 23.43 C42.99 21.43, 46.13 19.43, 53.65 14.65" stroke="#495057" stroke-width="2" fill="none"></path></g></g><mask></mask><g stroke-linecap="round"><g transform="translate(337.7419252438907 254.90965510547358) rotate(0.8330005424890489 26.656675291490274 11.715992467372246)"><path d="M0 0 C15.62 9.19, 31.24 18.37, 39.84 23.43 M0 0 C8.12 4.78, 16.25 9.55, 39.84 23.43 M39.84 23.43 C44.23 20.65, 48.61 17.86, 53.31 14.87 M39.84 23.43 C44.45 20.51, 49.05 17.58, 53.31 14.87" stroke="#495057" stroke-width="2" fill="none"></path></g></g><mask></mask><g stroke-linecap="round"><g transform="translate(337.8942492847483 244.43358183397885) rotate(0.8330005424890489 26.71200035649929 11.715992467372246)"><path d="M0 0 C15.55 9.15, 31.1 18.29, 39.84 23.43 M0 0 C8.69 5.11, 17.38 10.22, 39.84 23.43 M39.84 23.43 C42.65 21.64, 45.47 19.84, 53.42 14.76 M39.84 23.43 C43.96 20.8, 48.09 18.17, 53.42 14.76" stroke="#495057" stroke-width="2" fill="none"></path></g></g><mask></mask><g stroke-linecap="round"><g transform="translate(351.04390398603914 250.7034395164834) rotate(0.8330005424890489 6.95032850587009 -9.446520422036542)"><path d="M0 0 C-0.05 -4.01, -0.09 -8.02, -0.12 -10.78 M0 0 C-0.03 -2.53, -0.06 -5.06, -0.12 -10.78 M-0.12 -10.78 C5.17 -13.82, 10.46 -16.85, 14.02 -18.89 M-0.12 -10.78 C4.24 -13.28, 8.6 -15.78, 14.02 -18.89" stroke="#495057" stroke-width="2" fill="none"></path></g></g><mask></mask><g stroke-linecap="round"><g transform="translate(368.2886104973368 261.403346590885) rotate(0.8330005424890489 7.0872345989427 -9.84035986786347)"><path d="M0 0 C-0.05 -3.42, -0.11 -6.83, -0.17 -10.93 M0 0 C-0.04 -2.31, -0.07 -4.62, -0.17 -10.93 M-0.17 -10.93 C5.04 -14.07, 10.26 -17.22, 14.35 -19.68 M-0.17 -10.93 C2.99 -12.84, 6.16 -14.74, 14.35 -19.68" stroke="#495057" stroke-width="2" fill="none"></path></g></g><mask></mask><g stroke-linecap="round"><g transform="translate(345.34229807184647 249.09208579608105) rotate(0.8330005424890489 0.024380537122624446 4.478517126826034)"><path d="M0 0 C0.01 1.8, 0.02 3.6, 0.05 8.96 M0 0 C0.02 2.92, 0.03 5.83, 0.05 8.96" stroke="#495057" stroke-width="2" fill="none"></path></g></g><mask></mask><g stroke-linecap="round"><g transform="translate(362.89323554453836 259.74948143788674) rotate(0.8330005424890489 0.024380537122624446 4.478517126826034)"><path d="M0 0 C0.02 3.08, 0.03 6.16, 0.05 8.96 M0 0 C0.02 3.15, 0.03 6.29, 0.05 8.96" stroke="#495057" stroke-width="2" fill="none"></path></g></g><mask></mask><g stroke-linecap="round"><g transform="translate(337.7354062968279 276.59004265787433) rotate(0.8330005424890489 26.822650486517233 11.715992467372246)"><path d="M0 0 C13.3 7.82, 26.59 15.64, 39.84 23.43 M0 0 C10.93 6.43, 21.85 12.85, 39.84 23.43 M39.84 23.43 C43.83 20.89, 47.82 18.36, 53.65 14.65 M39.84 23.43 C44.76 20.31, 49.67 17.18, 53.65 14.65" stroke="#495057" stroke-width="2" fill="none"></path></g></g><mask></mask><g stroke-linecap="round"><g transform="translate(367.1289532866741 272.8691625609426) rotate(0.8330005424890489 0.024380537122624446 4.478517126826034)"><path d="M0 0 C0.02 3.14, 0.03 6.28, 0.05 8.96 M0 0 C0.01 1.88, 0.02 3.77, 0.05 8.96" stroke="#495057" stroke-width="2" fill="none"></path></g></g><mask></mask><g stroke-linecap="round"><g transform="translate(350.006091784525 263.7671980604189) rotate(0.8330005424890489 0.024380537122624446 3.9252664767365957)"><path d="M0 0 C0.02 2.79, 0.03 5.59, 0.05 7.85 M0 0 C0.01 1.76, 0.02 3.52, 0.05 7.85" stroke="#495057" stroke-width="2" fill="none"></path></g></g><mask></mask><g stroke-linecap="round"><g transform="translate(361.27923611611845 279.4238193673158) rotate(0.8330005424890489 0.024380537122624446 4.478517126826034)"><path d="M0 0 C0.02 2.89, 0.03 5.78, 0.05 8.96 M0 0 C0.02 3.45, 0.04 6.91, 0.05 8.96" stroke="#495057" stroke-width="2" fill="none"></path></g></g><mask></mask><g stroke-linecap="round"><g transform="translate(343.93348910019813 269.8760253697244) rotate(0.8330005424890489 0.024380537122624446 4.478517126826034)"><path d="M0 0 C0.01 1.9, 0.02 3.81, 0.05 8.96 M0 0 C0.01 2.34, 0.03 4.69, 0.05 8.96" stroke="#495057" stroke-width="2" fill="none"></path></g></g><mask></mask><g stroke-linecap="round"><g transform="translate(350.13817771072 284.5736001461667) rotate(0.8330005424890489 0.024380537122624446 4.478517126826034)"><path d="M0 0 C0.01 2, 0.02 4, 0.05 8.96 M0 0 C0.02 3.3, 0.04 6.61, 0.05 8.96" stroke="#495057" stroke-width="2" fill="none"></path></g></g><mask></mask><g stroke-linecap="round"><g transform="translate(365.7281875227518 293.4318603440775) rotate(0.8330005424890489 0.024380537122624446 4.146566736772542)"><path d="M0 0 C0.01 1.73, 0.02 3.45, 0.05 8.29 M0 0 C0.01 1.85, 0.02 3.7, 0.05 8.29" stroke="#495057" stroke-width="2" fill="none"></path></g></g><mask></mask><g stroke-linecap="round"><g transform="translate(360.54873553505024 299.7749155153111) rotate(0.8330005424890489 0.024380537122624446 3.9252664767365957)"><path d="M0 0 C0.02 2.71, 0.03 5.42, 0.05 7.85 M0 0 C0.02 2.53, 0.03 5.07, 0.05 7.85" stroke="#495057" stroke-width="2" fill="none"></path></g></g><mask></mask><g stroke-linecap="round"><g transform="translate(344.2997210309811 290.907038549846) rotate(0.8330005424890489 0.024380537122624446 3.9252664767365957)"><path d="M0 0 C0.01 2.02, 0.03 4.05, 0.05 7.85 M0 0 C0.02 3.13, 0.04 6.25, 0.05 7.85" stroke="#495057" stroke-width="2" fill="none"></path></g></g><mask></mask><g stroke-linecap="round" transform="translate(348.5474937574275 266.36705341528506) rotate(0 8.734783495945209 10.391358495583432)"><path d="M11.83 0.26 C13.34 0.86, 14.8 3.74, 15.74 5.84 C16.69 7.95, 17.77 10.8, 17.5 12.91 C17.23 15.02, 15.74 17.15, 14.14 18.53 C12.53 19.9, 9.79 21.31, 7.87 21.15 C5.94 20.99, 3.91 19.27, 2.61 17.57 C1.31 15.87, 0.2 13.24, 0.06 10.97 C-0.07 8.69, 0.8 5.63, 1.81 3.92 C2.82 2.21, 4.2 0.9, 6.12 0.7 C8.03 0.5, 11.6 2.03, 13.32 2.75 C15.04 3.46, 16.43 5.06, 16.44 4.99 M8.65 -0.2 C10.54 -0.35, 12.75 0.28, 14.33 1.47 C15.9 2.67, 17.92 4.64, 18.08 6.98 C18.24 9.32, 16.09 13.45, 15.28 15.52 C14.47 17.58, 14.69 18.72, 13.22 19.38 C11.74 20.04, 8.25 19.98, 6.43 19.47 C4.61 18.96, 3.16 18.05, 2.28 16.32 C1.4 14.59, 0.88 11.38, 1.16 9.09 C1.45 6.79, 2.78 4.3, 4.02 2.55 C5.26 0.79, 7.61 -1.12, 8.59 -1.43 C9.58 -1.75, 9.92 0.37, 9.93 0.66" stroke="none" stroke-width="0" fill="#40c057"></path><path d="M7.27 -0.7 C9.02 -1.15, 10.7 1.03, 12.36 2.42 C14.01 3.81, 16.46 5.6, 17.19 7.63 C17.92 9.66, 17.55 12.58, 16.75 14.6 C15.95 16.62, 14 18.6, 12.41 19.75 C10.82 20.9, 8.89 21.93, 7.22 21.5 C5.55 21.06, 3.71 18.92, 2.38 17.12 C1.06 15.32, -0.59 12.89, -0.71 10.71 C-0.83 8.54, 0.41 5.71, 1.66 4.07 C2.92 2.42, 5.68 1.54, 6.83 0.85 C7.98 0.16, 8.43 -0.24, 8.56 -0.07 M10.74 -0.91 C12.3 -0.72, 13.77 1.33, 15.02 2.97 C16.26 4.62, 18.11 6.54, 18.21 8.97 C18.32 11.39, 17.06 15.42, 15.63 17.5 C14.2 19.59, 11.28 21.28, 9.64 21.46 C7.99 21.64, 7.52 19.8, 5.77 18.6 C4.02 17.41, 0.16 16.03, -0.87 14.3 C-1.89 12.57, -1.13 10.43, -0.39 8.24 C0.35 6.06, 1.6 2.33, 3.58 1.2 C5.55 0.06, 10.24 1.44, 11.46 1.41 C12.68 1.39, 10.95 1.19, 10.91 1.04" stroke="#000000" stroke-width="1" fill="none"></path></g><g stroke-linecap="round"><g transform="translate(356.3786808624524 221.78962227135924) rotate(0 75.86858042834197 -88.03324824653019)"><path d="M0.58 -1.09 C25.77 -30.6, 126.82 -147.75, 152.31 -177.02 M-0.57 0.95 C24.35 -28.38, 125.66 -146.22, 151.31 -175.59" stroke="#000000" stroke-width="1" fill="none"></path></g></g><mask></mask><g stroke-linecap="round"><g transform="translate(544.3267301738745 43.47993905901595) rotate(0 81.20970264316861 87.26077510862069)"><path d="M0.96 -0.11 C27.91 28.91, 135.27 145.14, 162.41 174.48 M0.01 -1.22 C26.71 27.93, 134.07 146.54, 161.34 175.74" stroke="#000000" stroke-width="1" fill="none"></path></g></g><mask></mask><g transform="translate(74.45657931974586 349.7992120955042) rotate(0 217.8878631591797 10)"><text x="0" y="0" font-family="Virgil, Segoe UI Emoji" font-size="16px" fill="#000000" text-anchor="start" style="white-space: pre;" direction="ltr" dominant-baseline="text-before-edge">Marias IP | Marias Port |        Ziel-IP | Sender-Port</text></g><g stroke-linecap="round"><g transform="translate(43.131899838579955 371.78678861756947) rotate(0 224.21384869554717 -0.6940157970134635)"><path d="M0.86 -1.1 C75.69 -1.16, 374.29 -0.65, 448.57 -0.76 M-0.14 0.94 C74.65 0.6, 373.31 -2.11, 448.14 -2.33" stroke="#000000" stroke-width="1" fill="none"></path></g></g><mask></mask><g transform="translate(10 377.81067263846) rotate(0 229.6875 9.600000000000023)"><text x="0" y="0" font-family="Cascadia, Segoe UI Emoji" font-size="16px" fill="#000000" text-anchor="start" style="white-space: pre;" direction="ltr" dominant-baseline="text-before-edge">    192.168.0.5 |    141414 | 10.32.12.35 | 22222</text></g><g transform="translate(699.8533969241149 345.92190191535) rotate(0 219.40786743164068 10)"><text x="0" y="0" font-family="Virgil, Segoe UI Emoji" font-size="16px" fill="#000000" text-anchor="start" style="white-space: pre;" direction="ltr" dominant-baseline="text-before-edge"> Retos IP |  Retos Port |        Ziel-IP | Sender-Port</text></g><g stroke-linecap="round"><g transform="translate(668.5287174429491 367.90947843741515) rotate(0 224.2138486955472 -0.6940157970134635)"><path d="M0.86 -1.1 C75.69 -1.16, 374.29 -0.65, 448.57 -0.76 M-0.14 0.94 C74.65 0.6, 373.31 -2.11, 448.14 -2.33" stroke="#000000" stroke-width="1" fill="none"></path></g></g><mask></mask><g transform="translate(431.88274539212534 208.17202333094878) rotate(0 103.125 19.19999999999999)"><text x="0" y="0" font-family="Cascadia, Segoe UI Emoji" font-size="16px" fill="#000000" text-anchor="start" style="white-space: pre;" direction="ltr" dominant-baseline="text-before-edge">An: 10.74.0.3:22222</text><text x="0" y="19.2" font-family="Cascadia, Segoe UI Emoji" font-size="16px" fill="#000000" text-anchor="start" style="white-space: pre;" direction="ltr" dominant-baseline="text-before-edge">Von: 10.32.12.35:31313</text></g><g stroke-linecap="round" transform="translate(432.2634242281954 191.2781105646692) rotate(179.8513210661042 103.97781252638356 33.269152834483805)"><path d="M16.63 0 M16.63 0 C72.12 1.08, 125.6 -0.21, 191.32 0 M16.63 0 C70.87 -2.56, 127.59 -1.83, 191.32 0 M191.32 0 C203.06 -0.7, 209.2 7.07, 207.96 16.63 M191.32 0 C203.78 -0.63, 210.07 5.46, 207.96 16.63 M207.96 16.63 C207.75 27.76, 207.14 36.74, 207.96 49.9 M207.96 16.63 C207.77 27.55, 208.43 36.52, 207.96 49.9 M207.96 49.9 C208.89 61.52, 200.52 67.32, 191.32 66.54 M207.96 49.9 C206.97 61.19, 201.99 65.67, 191.32 66.54 M191.32 66.54 C148.72 64.91, 106.67 65.75, 16.63 66.54 M191.32 66.54 C142.12 68.79, 95.38 67.31, 16.63 66.54 M16.63 66.54 C5.96 67.22, 0.02 60.7, 0 49.9 M16.63 66.54 C4.2 67.84, -0.12 62.15, 0 49.9 M0 49.9 C0.38 39.72, -1.01 31.01, 0 16.63 M0 49.9 C-0.38 38.58, 1.2 27.39, 0 16.63 M0 16.63 C-0.5 6.64, 7.46 -0.66, 16.63 0 M0 16.63 C0.9 6.68, 7.59 1.65, 16.63 0" stroke="#000000" stroke-width="1" fill="none"></path></g><g stroke-linecap="round"><g transform="translate(642.3083015709525 246.78389163779696) rotate(179.8513210661042 18.391440474252306 0.27450608536096865)"><path d="M0.53 1.17 C6.51 1.23, 29.43 -0.41, 35.14 -0.62 M-0.65 0.74 C5.78 1.05, 31.15 0.64, 37.43 0.74" stroke="#000000" stroke-width="1" fill="none"></path></g></g><mask></mask><g stroke-linecap="round"><g transform="translate(644.5685875674404 232.1268004716821) rotate(179.8513210661042 7.415968756314783 0.3147694846294371)"><path d="M-0.02 1 C2.62 0.9, 13.9 -0.3, 16.32 -0.37 M-1.49 0.48 C1.05 0.51, 13.51 0.56, 15.98 0.82" stroke="#000000" stroke-width="1" fill="none"></path></g></g><mask></mask><g stroke-linecap="round"><g transform="translate(645.0289392403707 217.82843014077827) rotate(179.8513210661042 15.309245518998864 0.43428789286176084)"><path d="M-0.14 0.92 C4.72 1.25, 24.85 1.24, 30.03 1.36 M-1.68 0.36 C3.5 0.38, 26.98 -0.39, 32.3 -0.49" stroke="#000000" stroke-width="1" fill="none"></path></g></g><mask></mask><g stroke-linecap="round"><g transform="translate(642.7760948244513 208.25948004093954) rotate(179.8513210661042 8.281068073664699 0.1772460184194813)"><path d="M-0.12 -0.83 C2.66 -1.01, 13.15 -1.02, 15.95 -0.94 M-1.64 1.34 C1.58 1.3, 15.28 0.32, 18.2 0.24" stroke="#000000" stroke-width="1" fill="none"></path></g></g><mask></mask><g transform="translate(393.71624148587534 287.2386798250894) rotate(0 42.1875 9.599999999999994)"><text x="0" y="0" font-family="Cascadia, Segoe UI Emoji" font-size="16px" fill="#364fc7" text-anchor="start" style="white-space: pre;" direction="ltr" dominant-baseline="text-before-edge">10.74.0.3</text></g><g transform="translate(601.1027695010121 276.7386340487222) rotate(0 51.5625 9.599999999999994)"><text x="0" y="0" font-family="Cascadia, Segoe UI Emoji" font-size="16px" fill="#364fc7" text-anchor="start" style="white-space: pre;" direction="ltr" dominant-baseline="text-before-edge">10.32.12.35</text></g><g stroke-linecap="round"><g transform="translate(356.88277590970347 274.8386493075113) rotate(0 -39.79927221768537 0.23577385321260635)"><path d="M-0.44 -1.03 C-13.98 -0.74, -67.08 1.07, -80.58 1.5 M1.53 1.05 C-12.17 0.99, -67.17 -0.11, -81.13 -0.36" stroke="#000000" stroke-width="1" fill="none"></path></g><g transform="translate(356.88277590970347 274.8386493075113) rotate(0 -39.79927221768537 0.23577385321260635)"><path d="M-54.46 -8.83 C-62.06 -6.85, -72.07 -4, -81.18 1.47 M-53.21 -10.2 C-64.08 -5.19, -76.24 -1.5, -81.87 -0.54" stroke="#000000" stroke-width="1" fill="none"></path></g><g transform="translate(356.88277590970347 274.8386493075113) rotate(0 -39.79927221768537 0.23577385321260635)"><path d="M-54.85 11.69 C-62.27 6.35, -72.15 1.87, -81.18 1.47 M-53.6 10.32 C-64.23 7.2, -76.24 2.76, -81.87 -0.54" stroke="#000000" stroke-width="1" fill="none"></path></g></g><mask></mask><g stroke-linecap="round" transform="translate(710.6129726923394 254.95650495555458) rotate(0 8.734783495945237 10.391358495583432)"><path d="M11.83 0.26 C13.34 0.86, 14.8 3.74, 15.74 5.84 C16.69 7.95, 17.77 10.8, 17.5 12.91 C17.23 15.02, 15.74 17.15, 14.14 18.53 C12.53 19.9, 9.79 21.31, 7.87 21.15 C5.94 20.99, 3.91 19.27, 2.61 17.57 C1.31 15.87, 0.2 13.24, 0.06 10.97 C-0.07 8.69, 0.8 5.63, 1.81 3.92 C2.82 2.21, 4.2 0.9, 6.12 0.7 C8.03 0.5, 11.6 2.03, 13.32 2.75 C15.04 3.46, 16.43 5.06, 16.44 4.99 M8.65 -0.2 C10.54 -0.35, 12.75 0.28, 14.33 1.47 C15.9 2.67, 17.92 4.64, 18.08 6.98 C18.24 9.32, 16.09 13.45, 15.28 15.52 C14.47 17.58, 14.69 18.72, 13.22 19.38 C11.74 20.04, 8.25 19.98, 6.43 19.47 C4.61 18.96, 3.16 18.05, 2.28 16.32 C1.4 14.59, 0.88 11.38, 1.16 9.09 C1.45 6.79, 2.78 4.3, 4.02 2.55 C5.26 0.79, 7.61 -1.12, 8.59 -1.43 C9.58 -1.75, 9.92 0.37, 9.93 0.66" stroke="none" stroke-width="0" fill="#40c057"></path><path d="M7.27 -0.7 C9.02 -1.15, 10.7 1.03, 12.36 2.42 C14.01 3.81, 16.46 5.6, 17.19 7.63 C17.92 9.66, 17.55 12.58, 16.75 14.6 C15.95 16.62, 14 18.6, 12.41 19.75 C10.82 20.9, 8.89 21.93, 7.22 21.5 C5.55 21.06, 3.71 18.92, 2.38 17.12 C1.06 15.32, -0.59 12.89, -0.71 10.71 C-0.83 8.54, 0.41 5.71, 1.66 4.07 C2.92 2.42, 5.68 1.54, 6.83 0.85 C7.98 0.16, 8.43 -0.24, 8.56 -0.07 M10.74 -0.91 C12.3 -0.72, 13.77 1.33, 15.02 2.97 C16.26 4.62, 18.11 6.54, 18.21 8.97 C18.32 11.39, 17.06 15.42, 15.63 17.5 C14.2 19.59, 11.28 21.28, 9.64 21.46 C7.99 21.64, 7.52 19.8, 5.77 18.6 C4.02 17.41, 0.16 16.03, -0.87 14.3 C-1.89 12.57, -1.13 10.43, -0.39 8.24 C0.35 6.06, 1.6 2.33, 3.58 1.2 C5.55 0.06, 10.24 1.44, 11.46 1.41 C12.68 1.39, 10.95 1.19, 10.91 1.04" stroke="#000000" stroke-width="1" fill="none"></path></g><g stroke-linecap="round"><g transform="translate(719.5494324038441 263.50533631923) rotate(0 -163.9958954205597 5.687572961496187)"><path d="M0.27 1.19 C-54.12 2.79, -272.63 7.78, -327.32 9.04 M-1.05 0.77 C-55.51 2.62, -273.62 9.07, -328.26 10.6" stroke="#000000" stroke-width="1" fill="none"></path></g></g><mask></mask><g stroke-linecap="round"><g transform="translate(757.5699695525255 263.92797188833896) rotate(0 17.789803374547375 0.889080069010646)"><path d="M-0.06 0.55 C6.02 0.73, 30.99 1.8, 37.13 2.08 M-1.55 -0.21 C4.32 -0.5, 29.98 0.05, 36.22 0.09" stroke="#000000" stroke-width="1" fill="none"></path></g></g><mask></mask><g transform="translate(639.0563287777733 373.858091655957) rotate(0 229.68750000000006 9.599999999999994)"><text x="0" y="0" font-family="Cascadia, Segoe UI Emoji" font-size="16px" fill="#000000" text-anchor="start" style="white-space: pre;" direction="ltr" dominant-baseline="text-before-edge">    192.168.0.8 |     12121 |   10.74.0.3 | 31313</text></g></svg>