<svg xmlns="http://www.w3.org/2000/svg" version="1.1" xmlns:xlink="http://www.w3.org/1999/xlink" xmlns:svgjs="http://svgjs.dev/svgjs" width="1000" height="1000" viewBox="0 0 1000 1000"><rect width="1000" height="1000" fill="#232a40"></rect><g transform="matrix(0.7,0,0,0.7,149.57577511422335,393.19733156555316)"><svg viewBox="0 0 396 121" data-background-color="#232a40" preserveAspectRatio="xMidYMid meet" height="305" width="1000" xmlns="http://www.w3.org/2000/svg" xmlns:xlink="http://www.w3.org/1999/xlink"><defs></defs><g id="tight-bounds" transform="matrix(1,0,0,1,0.23999007823934448,0.029849557695882822)"><svg viewBox="0 0 395.5199999999999 120.94017496424071" height="120.94017496424071" width="395.5199999999999"><g><svg viewBox="0 0 395.5199999999999 120.94017496424071" height="120.94017496424071" width="395.5199999999999"><g><svg viewBox="0 0 597.1539170297469 182.5948098861228" height="120.94017496424071" width="395.5199999999999"><g transform="matrix(1,0,0,1,201.63391702974698,53.915426664432715)"><svg viewBox="0 0 395.5199999999999 74.76395655725736" height="74.76395655725736" width="395.5199999999999"><g><svg viewBox="0 0 395.5199999999999 74.76395655725736" height="74.76395655725736" width="395.5199999999999"><g><svg viewBox="0 0 395.5199999999999 40.32410567703662" height="40.32410567703662" width="395.5199999999999"><g transform="matrix(1,0,0,1,0,0)"><svg width="395.5199999999999" viewBox="2.200000047683716 -35.45000076293945 353.90997314453125 36.08000183105469" height="40.32410567703662" data-palette-color="#f7f7f7"><g class="undefined-text-0" data-fill-palette-color="primary" id="text-0"><path d="M13.11-4.64L13.11-4.64Q13.11-3.81 13.37-3.25 13.62-2.69 14.1-2.34 14.58-2 15.27-1.86 15.97-1.71 16.82-1.71L16.82-1.71Q17.02-1.71 17.02-1.51L17.02-1.51 17.02-0.2Q17.02-0.12 16.99-0.06 16.97 0 16.82 0L16.82 0 2.39 0Q2.27 0 2.23-0.07 2.2-0.15 2.2-0.2L2.2-0.2 2.2-1.51Q2.2-1.56 2.23-1.64 2.27-1.71 2.39-1.71L2.39-1.71Q3.25-1.71 3.94-1.82 4.64-1.93 5.13-2.29 5.62-2.66 5.88-3.34 6.15-4.03 6.15-5.2L6.15-5.2 6.15-29.79Q6.15-30.62 5.9-31.18 5.64-31.74 5.16-32.08 4.69-32.42 3.99-32.57 3.3-32.71 2.44-32.71L2.44-32.71Q2.25-32.71 2.25-32.91L2.25-32.91 2.25-34.23Q2.25-34.42 2.44-34.42L2.44-34.42 16.87-34.42Q16.99-34.42 17.03-34.35 17.07-34.28 17.07-34.23L17.07-34.23 17.07-32.91Q17.07-32.86 17.03-32.79 16.99-32.71 16.87-32.71L16.87-32.71Q16.02-32.71 15.32-32.6 14.62-32.5 14.14-32.13 13.65-31.76 13.38-31.08 13.11-30.4 13.11-29.22L13.11-29.22 13.11-4.64ZM20.92 0L20.92 0Q20.87 0 20.8-0.06 20.73-0.12 20.73-0.2L20.73-0.2 20.73-1.27Q20.73-1.46 20.92-1.46L20.92-1.46Q21.19-1.46 21.53-1.46 21.87-1.46 22.2-1.49 22.53-1.51 22.8-1.54 23.07-1.56 23.22-1.64L23.22-1.64Q23.83-1.93 24.22-2.42 24.61-2.91 24.81-3.54 25.02-4.17 25.1-4.93 25.17-5.69 25.17-6.54L25.17-6.54 25.17-30.93Q25.17-31.59 24.64-31.99 24.12-32.4 23.42-32.6 22.73-32.81 22.01-32.89 21.29-32.96 20.92-32.96L20.92-32.96Q20.8-32.96 20.76-33.03 20.73-33.11 20.73-33.15L20.73-33.15 20.73-34.23Q20.73-34.28 20.76-34.35 20.8-34.42 20.92-34.42L20.92-34.42 31.98-34.42 53.02-11.13Q53.15-11.01 53.2-10.95 53.24-10.89 53.32-10.89L53.32-10.89Q53.42-10.89 53.44-10.96 53.46-11.04 53.46-11.11L53.46-11.11 53.46-25.61Q53.46-28.03 53.29-29.48 53.12-30.93 52.66-31.7 52.19-32.47 51.41-32.71 50.63-32.96 49.41-32.96L49.41-32.96 48.17-32.96Q48.04-32.96 48.01-33.03 47.97-33.11 47.97-33.15L47.97-33.15 47.97-34.23Q47.97-34.28 48.01-34.35 48.04-34.42 48.17-34.42L48.17-34.42 61.59-34.42Q61.74-34.42 61.77-34.35 61.79-34.28 61.79-34.23L61.79-34.23 61.79-33.15Q61.79-33.11 61.75-33.03 61.72-32.96 61.59-32.96L61.59-32.96Q61.11-32.96 60.34-32.76 59.57-32.57 58.84-32.2 58.1-31.84 57.58-31.3 57.05-30.76 57.05-30.08L57.05-30.08 57.05-1.2Q57.05-0.78 56.86-0.5 56.66-0.22 56.36-0.05 56.05 0.12 55.7 0.21 55.34 0.29 55.05 0.29L55.05 0.29Q54.56 0.29 53.92 0.09 53.27-0.12 52.63-0.83L52.63-0.83 29.59-26.39Q29.42-26.56 29.34-26.6 29.27-26.64 29.15-26.64L29.15-26.64Q29.03-26.64 29.03-26.39L29.03-26.39 29.03-4.59Q29.03-3.91 29.36-3.41 29.68-2.91 30.2-2.55 30.71-2.2 31.33-1.99 31.96-1.78 32.55-1.66 33.15-1.54 33.63-1.5 34.1-1.46 34.35-1.46L34.35-1.46Q34.47-1.46 34.52-1.37L34.52-1.37Q34.54-1.32 34.54-1.27L34.54-1.27 34.54-0.2Q34.54-0.15 34.51-0.07 34.47 0 34.35 0L34.35 0 20.92 0ZM84.32-20L84.32-20Q84.66-20 85.22-20.06 85.79-20.12 86.31-20.42 86.84-20.73 87.21-21.37 87.59-22.02 87.59-23.19L87.59-23.19Q87.59-23.39 87.79-23.39L87.79-23.39 88.74-23.39Q88.94-23.39 88.94-23.19L88.94-23.19 88.94-13.38Q88.94-13.26 88.86-13.22 88.79-13.18 88.74-13.18L88.74-13.18 87.79-13.18Q87.67-13.18 87.63-13.26 87.59-13.33 87.59-13.38L87.59-13.38Q87.59-14.7 87.21-15.42 86.84-16.14 86.32-16.48 85.81-16.82 85.26-16.88 84.71-16.94 84.37-16.94L84.37-16.94 76.22-16.94Q75.92-16.94 75.78-16.76 75.63-16.58 75.63-16.28L75.63-16.28 75.63-4.59Q75.63-3.93 75.89-3.48 76.14-3.03 76.59-2.7 77.05-2.37 77.66-2.12 78.27-1.88 79-1.66L79-1.66Q79.37-1.54 79.78-1.44 80.2-1.34 80.46-1.34L80.46-1.34Q80.61-1.34 80.63-1.26 80.66-1.17 80.66-1.15L80.66-1.15 80.66-0.2Q80.66-0.15 80.62-0.07 80.59 0 80.46 0L80.46 0 64.94 0Q64.81 0 64.78-0.07 64.74-0.15 64.74-0.2L64.74-0.2 64.74-1.15Q64.74-1.2 64.77-1.27 64.79-1.34 64.94-1.34L64.94-1.34Q65.2-1.34 65.63-1.45 66.06-1.56 66.28-1.66L66.28-1.66Q67.33-2.12 68-2.89 68.67-3.66 68.67-4.76L68.67-4.76 68.67-30.76Q68.67-31.69 68.16-32.23 67.65-32.76 67-33.03 66.35-33.3 65.78-33.37 65.2-33.45 65.06-33.45L65.06-33.45 64.96-33.45Q64.84-33.45 64.8-33.52 64.77-33.59 64.77-33.64L64.77-33.64 64.77-34.23Q64.77-34.28 64.8-34.35 64.84-34.42 64.96-34.42L64.96-34.42 89.08-34.42Q89.37-34.38 89.52-34.29 89.67-34.2 89.67-33.86L89.67-33.86 89.67-27.22Q89.67-26.93 89.5-26.86 89.33-26.78 89.11-26.78L89.11-26.78 88.62-26.78Q88.57-26.81 88.48-27.21 88.4-27.61 88.25-28.16 88.11-28.71 87.9-29.26 87.69-29.81 87.42-30.13L87.42-30.13Q87.08-30.49 86.76-30.74 86.45-30.98 86.05-31.13 85.66-31.27 85.15-31.32 84.64-31.37 83.91-31.37L83.91-31.37 76.12-31.37Q75.63-31.37 75.63-30.88L75.63-30.88 75.63-20.56Q75.63-20 76.22-20L76.22-20 84.32-20ZM114.25 0.63L114.25 0.63Q113.4 0.63 112.11 0.49 110.83 0.34 109.31-0.05 107.78-0.44 106.12-1.07 104.46-1.71 102.86-2.7 101.26-3.69 99.82-5.04 98.38-6.4 97.29-8.19 96.21-9.99 95.56-12.28 94.91-14.58 94.91-17.43L94.91-17.43Q94.91-19.97 95.61-22.29 96.31-24.61 97.6-26.61 98.89-28.61 100.74-30.25 102.58-31.88 104.85-33.03 107.12-34.18 109.78-34.81 112.44-35.45 115.37-35.45L115.37-35.45Q117.91-35.45 120.29-34.83 122.67-34.2 124.75-33.07 126.82-31.93 128.54-30.35 130.27-28.76 131.51-26.81 132.76-24.85 133.44-22.6 134.12-20.34 134.12-17.9L134.12-17.9Q134.12-15.6 133.46-13.34 132.81-11.08 131.56-9.02 130.31-6.96 128.54-5.2 126.77-3.44 124.58-2.14 122.38-0.83 119.77-0.1 117.16 0.63 114.25 0.63ZM102.09-18.33L102.09-18.33Q102.09-16.36 102.49-14.38 102.9-12.4 103.68-10.57 104.46-8.74 105.61-7.14 106.76-5.54 108.22-4.36 109.68-3.17 111.48-2.5 113.27-1.83 115.37-1.83L115.37-1.83Q118.33-1.83 120.5-3.09 122.67-4.35 124.1-6.42 125.53-8.5 126.23-11.19 126.92-13.89 126.92-16.77L126.92-16.77Q126.92-18.87 126.52-20.89 126.12-22.9 125.35-24.72 124.58-26.54 123.44-28.06 122.31-29.59 120.83-30.71 119.35-31.84 117.56-32.46 115.76-33.08 113.66-33.08L113.66-33.08Q111.78-33.08 110.2-32.5 108.61-31.91 107.33-30.9 106.05-29.88 105.07-28.48 104.09-27.08 103.43-25.44 102.78-23.8 102.43-21.98 102.09-20.17 102.09-18.33ZM137.88-0.98L137.88-1.27Q137.88-1.29 137.91-1.38 137.93-1.46 138.08-1.46L138.08-1.46Q138.22-1.46 138.54-1.51 138.86-1.56 139.2-1.61 139.54-1.66 139.83-1.72 140.13-1.78 140.25-1.81L140.25-1.81Q141.64-2.12 142.19-2.84 142.74-3.56 142.74-4.64L142.74-4.64 142.74-29.44Q142.74-30.66 142.23-31.37 141.71-32.08 141.04-32.43 140.37-32.79 139.75-32.87 139.13-32.96 138.91-32.96L138.91-32.96 137.98-32.96Q137.86-32.96 137.82-33.03 137.78-33.11 137.78-33.15L137.78-33.15 137.78-34.23Q137.78-34.28 137.81-34.34 137.83-34.4 137.98-34.42L137.98-34.42Q138-34.42 138.09-34.42 138.17-34.42 138.44-34.44 138.71-34.45 139.22-34.46 139.74-34.47 140.66-34.5L140.66-34.5Q142.01-34.52 143.53-34.57 145.06-34.62 146.62-34.67 148.18-34.72 149.71-34.75 151.24-34.79 152.58-34.79L152.58-34.79 155.04-34.79Q156.97-34.79 158.97-34.13 160.98-33.47 162.6-32.19 164.22-30.91 165.26-29 166.3-27.1 166.3-24.61L166.3-24.61Q166.3-23 165.86-21.74 165.42-20.48 164.65-19.52 163.88-18.55 162.82-17.82 161.76-17.09 160.51-16.53L160.51-16.53 167.91-4.81Q168.86-3.3 170.13-2.06 171.4-0.83 173.09-0.34L173.09-0.34Q173.28-0.29 173.32-0.21 173.35-0.12 173.35 0L173.35 0Q173.35 0.37 173.16 0.49 172.96 0.61 172.55 0.61L172.55 0.61Q171.52 0.61 170.22 0.48 168.91 0.34 167.59 0.04 166.27-0.27 165.09-0.76 163.91-1.25 163.1-1.98L163.1-1.98Q162.32-2.66 161.51-3.71 160.71-4.76 159.89-5.97 159.07-7.18 158.28-8.48 157.49-9.79 156.74-11.04 156-12.28 155.31-13.35 154.63-14.43 154.07-15.19L154.07-15.19 150.26-15.45Q150.23-15.45 150.06-15.45 149.89-15.45 149.82-15.41L149.82-15.41Q149.75-15.36 149.72-15.31 149.7-15.26 149.7-15.11L149.7-15.11 149.7-4.71Q149.7-4.05 149.87-3.56 150.04-3.08 150.44-2.72 150.84-2.37 151.49-2.15 152.14-1.93 153.07-1.81L153.07-1.81Q153.21-1.78 153.49-1.73 153.77-1.68 154.1-1.62 154.43-1.56 154.75-1.51 155.07-1.46 155.29-1.46L155.29-1.46Q155.43-1.46 155.46-1.39 155.48-1.32 155.48-1.27L155.48-1.27 155.48-0.2Q155.48-0.15 155.45-0.07 155.41 0 155.29 0L155.29 0 138.08 0Q137.95 0 137.92-0.34 137.88-0.68 137.88-0.98L137.88-0.98ZM149.7-18.63L149.75-17.9Q149.77-17.7 149.86-17.54 149.94-17.38 150.21-17.36L150.21-17.36Q150.43-17.33 150.87-17.27 151.31-17.21 152.09-17.21L152.09-17.21Q154.24-17.21 155.63-17.87 157.02-18.53 157.83-19.64 158.63-20.75 158.94-22.19 159.24-23.63 159.24-25.2L159.24-25.2Q159.24-26.83 158.73-28.3 158.22-29.76 157.3-30.83 156.39-31.91 155.1-32.54 153.82-33.18 152.28-33.18L152.28-33.18Q151.94-33.18 151.75-33.17 151.55-33.15 151.37-33.14 151.19-33.13 150.95-33.12 150.72-33.11 150.31-33.08L150.31-33.08Q150.16-33.08 149.93-33.02 149.7-32.96 149.7-32.69L149.7-32.69 149.7-18.63ZM174.28-0.2L174.28-1.27Q174.28-1.32 174.32-1.39 174.35-1.46 174.47-1.46L174.47-1.46Q176.09-1.46 176.98-1.84 177.87-2.22 178.3-2.89 178.72-3.56 178.82-4.49 178.92-5.42 178.97-6.49L178.97-6.49Q179.11-9.64 179.32-12.61 179.53-15.58 179.72-18.44 179.92-21.31 180.07-24.12 180.21-26.93 180.21-29.76L180.21-29.76 180.21-30.66Q180.21-31.23 179.85-31.65 179.48-32.08 178.98-32.37 178.48-32.67 177.97-32.81 177.45-32.96 177.16-32.96L177.16-32.96Q176.97-32.96 176.97-33.15L176.97-33.15 176.97-34.23Q176.97-34.28 176.99-34.35 177.01-34.42 177.16-34.42L177.16-34.42 185.8-34.42Q186.07-34.38 186.24-34.24 186.41-34.11 186.56-33.89L186.56-33.89 197.18-10.21Q197.35-9.79 197.62-9.79L197.62-9.79Q197.89-9.79 198.01-9.91 198.13-10.03 198.21-10.23L198.21-10.23 208.7-33.45Q208.95-33.91 209.19-34.17 209.44-34.42 209.68-34.42L209.68-34.42 218.27-34.42Q218.42-34.42 218.44-34.35 218.47-34.28 218.47-34.23L218.47-34.23 218.47-33.15Q218.47-33.11 218.43-33.03 218.4-32.96 218.27-32.96L218.27-32.96Q218.22-32.96 217.7-32.86 217.18-32.76 216.55-32.48 215.93-32.2 215.42-31.68 214.9-31.15 214.9-30.3L214.9-30.3 216.32-4.3Q216.34-3.59 216.7-3.1 217.05-2.61 217.57-2.29 218.08-1.98 218.65-1.82 219.23-1.66 219.73-1.57 220.23-1.49 220.58-1.48 220.93-1.46 220.96-1.46L220.96-1.46Q221.08-1.46 221.12-1.39 221.15-1.32 221.15-1.27L221.15-1.27 221.15-0.2Q221.15-0.15 221.12-0.07 221.08 0 220.96 0L220.96 0 204.89 0Q204.7 0 204.7-0.2L204.7-0.2 204.7-1.27Q204.7-1.46 204.89-1.46L204.89-1.46Q205.48-1.46 206.23-1.53 206.97-1.59 207.65-1.81 208.34-2.03 208.8-2.45 209.26-2.88 209.26-3.59L209.26-3.59 208.14-23.54Q208.12-23.78 208.02-23.78L208.02-23.78Q207.92-23.78 207.82-23.56L207.82-23.56 197.13-0.42Q197.01-0.15 196.8-0.07 196.59 0 196.08 0L196.08 0Q195.2 0 194.78-0.05 194.35-0.1 194.2-0.44L194.2-0.44 183.8-23.36Q183.73-23.54 183.69-23.62 183.65-23.71 183.56-23.71L183.56-23.71Q183.39-23.71 183.39-23.39L183.39-23.39Q183.39-22.66 183.31-21.24 183.24-19.82 183.12-18.05 183-16.28 182.87-14.31 182.75-12.33 182.63-10.47 182.51-8.62 182.43-7.02 182.36-5.42 182.36-4.39L182.36-4.39 182.36-3.39Q182.46-2.93 182.85-2.56 183.24-2.2 183.83-1.95 184.41-1.71 185.12-1.59 185.83-1.46 186.61-1.46L186.61-1.46Q186.73-1.46 186.74-1.39 186.76-1.32 186.76-1.27L186.76-1.27 186.76-0.2Q186.76 0 186.61 0L186.61 0 174.47 0Q174.28 0 174.28-0.2L174.28-0.2ZM222.3-0.2L222.3-1.15Q222.3-1.34 222.49-1.34L222.49-1.34Q222.96-1.37 223.58-1.48 224.2-1.59 224.85-1.94 225.5-2.29 226.11-2.99 226.72-3.69 227.13-4.91L227.13-4.91 236.95-33.37Q236.95-33.35 236.96-33.4 236.97-33.45 236.97-33.5L236.97-33.5Q236.97-33.67 236.84-33.92 236.7-34.18 236.7-34.3L236.7-34.3Q236.7-34.42 236.8-34.42L236.8-34.42 243.88-34.42Q243.93-34.4 244.02-34.38 244.1-34.35 244.15-34.23L244.15-34.23 254.48-5.25Q254.72-4.57 254.94-4.08 255.16-3.59 255.47-3.21 255.77-2.83 256.24-2.53 256.7-2.22 257.43-1.9L257.43-1.9Q257.77-1.73 258.36-1.54 258.94-1.34 259.48-1.34L259.48-1.34Q259.6-1.34 259.64-1.27 259.68-1.2 259.68-1.12L259.68-1.12 259.68-0.2Q259.68-0.15 259.64-0.07 259.6 0 259.48 0L259.48 0 242.34 0Q242.22 0 242.18-0.07 242.15-0.15 242.15-0.2L242.15-0.2 242.15-1.15Q242.15-1.2 242.18-1.27 242.22-1.34 242.34-1.34L242.34-1.34Q242.44-1.34 242.54-1.35 242.64-1.37 242.69-1.37L242.69-1.37Q242.95-1.39 243.45-1.42 243.95-1.44 244.54-1.5 245.13-1.56 245.72-1.7 246.32-1.83 246.81-2.09 247.3-2.34 247.62-2.76 247.93-3.17 247.93-3.78L247.93-3.78Q247.93-3.93 247.89-4.13L247.89-4.13 244.69-12.94Q244.66-12.99 244.6-13.16 244.54-13.33 244.41-13.51 244.27-13.7 244.06-13.84 243.86-13.99 243.56-13.99L243.56-13.99 234.75-13.99Q234.43-13.99 234.21-13.84 233.99-13.7 233.85-13.53 233.7-13.35 233.62-13.18 233.53-13.01 233.53-12.99L233.53-12.99Q232.75-10.69 232.21-9.12 231.67-7.54 231.32-6.52 230.97-5.49 230.77-4.93 230.58-4.37 230.49-4.11 230.4-3.86 230.39-3.8 230.38-3.74 230.38-3.74L230.38-3.74Q230.38-3.66 230.4-3.58 230.43-3.49 230.45-3.42L230.45-3.42Q230.65-2.81 231.17-2.4 231.7-2 232.38-1.77 233.07-1.54 233.79-1.44 234.51-1.34 235.07-1.34L235.07-1.34 235.7-1.34Q235.82-1.34 235.86-1.27 235.9-1.2 235.9-1.15L235.9-1.15 235.9-0.2Q235.9-0.15 235.86-0.07 235.82 0 235.7 0L235.7 0 222.49 0Q222.3 0 222.3-0.2L222.3-0.2ZM238.17-26.39L235.09-17.5Q235.04-17.38 235.02-17.26 234.99-17.14 234.99-17.02L234.99-17.02Q234.99-16.87 235.07-16.78 235.14-16.7 235.36-16.7L235.36-16.7 242.69-16.7Q242.95-16.7 243.04-16.81 243.12-16.92 243.12-17.07L243.12-17.07Q243.12-17.19 243.1-17.29 243.08-17.38 243.03-17.5L243.03-17.5 239.78-26.42Q239.66-26.76 239.41-26.92 239.17-27.08 238.97-27.08L238.97-27.08Q238.78-27.08 238.53-26.89 238.29-26.71 238.17-26.39L238.17-26.39ZM274.64-30.69L274.64-30.69Q274.64-31.2 274.43-31.26 274.23-31.32 273.93-31.37L273.93-31.37 265.66-31.37Q264.75-31.18 264.24-30.65 263.73-30.13 263.43-29.42 263.14-28.71 263-27.89 262.85-27.08 262.68-26.32L262.68-26.32Q262.63-26.1 262.58-25.79 262.53-25.49 262.48-25.44L262.48-25.44Q262.43-25.37 262.31-25.37L262.31-25.37 261.51-25.37Q261.36-25.37 261.36-25.46L261.36-25.46 261.36-26.27 262.26-34.62Q262.31-34.89 262.48-35.13 262.65-35.38 263.02-35.38L263.02-35.38Q263.19-35.38 263.35-35.28 263.51-35.18 263.65-35.05 263.8-34.91 263.94-34.79 264.07-34.67 264.22-34.62L264.22-34.62Q264.51-34.5 264.77-34.46 265.02-34.42 265.34-34.42L265.34-34.42 290.92-34.42Q291.24-34.42 291.5-34.46 291.75-34.5 292.05-34.62L292.05-34.62Q292.19-34.67 292.33-34.79 292.46-34.91 292.61-35.05 292.76-35.18 292.91-35.28 293.07-35.38 293.24-35.38L293.24-35.38Q293.61-35.38 293.78-35.13 293.95-34.89 294-34.62L294-34.62 294.9-26.27 294.9-25.46Q294.9-25.37 294.76-25.37L294.76-25.37 293.95-25.37Q293.83-25.37 293.78-25.44L293.78-25.44Q293.73-25.49 293.68-25.79 293.63-26.1 293.59-26.32L293.59-26.32Q293.42-27.08 293.27-27.89 293.12-28.71 292.83-29.42 292.54-30.13 292.02-30.65 291.51-31.18 290.61-31.37L290.61-31.37 282.31-31.37Q282.01-31.32 281.81-31.26 281.6-31.2 281.6-30.69L281.6-30.69 281.6-4.76Q281.6-4.03 281.96-3.45 282.33-2.88 282.95-2.44 283.58-2 284.42-1.73 285.26-1.46 286.21-1.37L286.21-1.37Q286.48-1.34 286.9-1.34 287.31-1.34 287.6-1.34L287.6-1.34Q287.73-1.34 287.76-1.27 287.8-1.2 287.8-1.15L287.8-1.15 287.8-0.2Q287.8-0.15 287.76-0.07 287.73 0 287.6 0L287.6 0 268.63 0Q268.51 0 268.48-0.07 268.44-0.15 268.44-0.2L268.44-0.2 268.44-1.15Q268.44-1.2 268.48-1.27 268.51-1.34 268.63-1.34L268.63-1.34Q268.9-1.34 269.33-1.34 269.76-1.34 270.03-1.37L270.03-1.37Q270.98-1.46 271.82-1.73 272.66-2 273.29-2.44 273.91-2.88 274.27-3.45 274.64-4.03 274.64-4.76L274.64-4.76 274.64-30.69ZM309.57-4.64L309.57-4.64Q309.57-3.81 309.83-3.25 310.09-2.69 310.56-2.34 311.04-2 311.74-1.86 312.43-1.71 313.29-1.71L313.29-1.71Q313.48-1.71 313.48-1.51L313.48-1.51 313.48-0.2Q313.48-0.12 313.46-0.06 313.43 0 313.29 0L313.29 0 298.86 0Q298.73 0 298.7-0.07 298.66-0.15 298.66-0.2L298.66-0.2 298.66-1.51Q298.66-1.56 298.7-1.64 298.73-1.71 298.86-1.71L298.86-1.71Q299.71-1.71 300.41-1.82 301.1-1.93 301.59-2.29 302.08-2.66 302.35-3.34 302.62-4.03 302.62-5.2L302.62-5.2 302.62-29.79Q302.62-30.62 302.36-31.18 302.1-31.74 301.63-32.08 301.15-32.42 300.46-32.57 299.76-32.71 298.91-32.71L298.91-32.71Q298.71-32.71 298.71-32.91L298.71-32.91 298.71-34.23Q298.71-34.42 298.91-34.42L298.91-34.42 313.33-34.42Q313.46-34.42 313.49-34.35 313.53-34.28 313.53-34.23L313.53-34.23 313.53-32.91Q313.53-32.86 313.49-32.79 313.46-32.71 313.33-32.71L313.33-32.71Q312.48-32.71 311.78-32.6 311.09-32.5 310.6-32.13 310.11-31.76 309.84-31.08 309.57-30.4 309.57-29.22L309.57-29.22 309.57-4.64ZM321.78-4.27L321.78-30.15Q321.78-30.98 321.33-31.54 320.88-32.1 320.17-32.46 319.46-32.81 318.59-32.98 317.73-33.15 316.9-33.2L316.9-33.2Q316.7-33.2 316.7-33.4L316.7-33.4 316.7-34.23Q316.7-34.42 316.87-34.42L316.87-34.42 333.42-34.42Q333.55-34.42 333.58-34.35 333.62-34.28 333.62-34.23L333.62-34.23 333.62-33.4Q333.62-33.25 333.42-33.25L333.42-33.25Q332.72-33.25 331.9-33.13 331.08-33.01 330.37-32.67 329.67-32.32 329.2-31.71 328.74-31.1 328.74-30.1L328.74-30.1 328.74-20.07Q328.74-19.04 328.81-18.48 328.88-17.92 329.15-17.92L329.15-17.92Q329.3-17.92 329.43-17.93 329.57-17.94 329.69-18.02L329.69-18.02Q331.08-18.65 332.19-19.56 333.3-20.46 334.24-21.53 335.18-22.61 336-23.8 336.82-25 337.62-26.25L337.62-26.25Q338.06-26.93 338.55-27.6 339.04-28.27 339.44-28.91 339.85-29.54 340.11-30.14 340.38-30.74 340.38-31.32L340.38-31.32Q340.38-31.98 340.07-32.36 339.75-32.74 339.26-32.92 338.77-33.11 338.21-33.15 337.65-33.2 337.16-33.2L337.16-33.2 336.92-33.2Q336.79-33.2 336.76-33.28 336.72-33.35 336.72-33.4L336.72-33.4 336.72-34.23Q336.72-34.28 336.75-34.35 336.77-34.42 336.92-34.42L336.92-34.42 351.76-34.42Q351.88-34.42 351.92-34.35 351.96-34.28 351.96-34.23L351.96-34.23 351.96-33.4Q351.96-33.33 351.88-33.22 351.81-33.11 351.66-33.11L351.66-33.11Q350.17-33.06 348.96-32.86 347.76-32.67 346.75-32.2 345.75-31.74 344.91-30.92 344.07-30.1 343.31-28.83L343.31-28.83Q342.02-26.64 340.99-25.07 339.97-23.51 339.17-22.44 338.38-21.36 337.82-20.7 337.26-20.04 336.88-19.62 336.5-19.19 336.29-18.91 336.09-18.63 336.04-18.36L336.04-18.36Q336.16-18.12 336.6-17.71 337.04-17.31 337.76-16.65 338.48-15.99 339.48-15.01 340.48-14.04 341.75-12.61 343.02-11.18 344.56-9.24 346.1-7.3 347.88-4.76L347.88-4.76Q348.73-3.52 350.03-2.76 351.32-2 352.93-1.66L352.93-1.66Q353.76-1.46 354.25-1.37 354.74-1.27 355.03-1.23 355.32-1.2 355.51-1.18 355.69-1.17 355.91-1.17L355.91-1.17Q356.03-1.17 356.07-1.1 356.11-1.03 356.11-0.98L356.11-0.98 356.11-0.2Q356.11 0 355.91 0L355.91 0 337.75 0Q337.55 0 337.55-0.2L337.55-0.2 337.55-1.03Q337.55-1.2 337.75-1.22L337.75-1.22Q338.06-1.27 338.64-1.26 339.21-1.25 339.76-1.32 340.31-1.39 340.72-1.66 341.14-1.93 341.14-2.54L341.14-2.54Q341.09-2.95 340.59-3.76 340.09-4.57 339.36-5.53 338.62-6.49 337.78-7.5 336.94-8.5 336.23-9.3L336.23-9.3Q335.38-10.25 334.61-11.24 333.84-12.23 333.03-13.05 332.23-13.87 331.35-14.38 330.47-14.89 329.45-14.89L329.45-14.89 328.98-14.89Q328.79-14.89 328.76-14.81 328.74-14.72 328.74-14.55L328.74-14.55 328.74-4.22Q328.74-3.13 329.19-2.51 329.64-1.9 330.34-1.61 331.03-1.32 331.86-1.25 332.69-1.17 333.42-1.17L333.42-1.17Q333.55-1.17 333.58-1.1 333.62-1.03 333.62-0.98L333.62-0.98 333.62-0.2Q333.62-0.15 333.58-0.07 333.55 0 333.42 0L333.42 0 316.87 0Q316.7 0 316.7-0.2L316.7-0.2 316.7-1.03Q316.7-1.22 316.9-1.22L316.9-1.22Q317.73-1.25 318.59-1.43 319.46-1.61 320.17-1.97 320.88-2.32 321.33-2.88 321.78-3.44 321.78-4.27L321.78-4.27Z" fill="#f7f7f7" data-fill-palette-color="primary"></path></g></svg></g></svg></g><g transform="matrix(1,0,0,1,0,49.84365924884872)"><svg viewBox="0 0 82.23698111774848 24.92029730840863" height="24.92029730840863" width="82.23698111774848"><g transform="matrix(1,0,0,1,0,0)"><svg width="82.23698111774848" viewBox="1.4900000095367432 -30.979999542236328 104.7300033569336 31.739999771118164" height="24.92029730840863" data-palette-color="#dad9d9"><path d="M16.06 0.76Q19.8 0.76 22.62 0.12 25.44-0.51 27.81-1.93L27.81-1.93 27.81-10.72 30.83-11.72 31.13-13.55 17.55-13.55 17.26-11.52 23.02-10.6 23.02-2.91Q22.34-2.51 21.23-2.2 20.12-1.88 18.82-1.88L18.82-1.88Q15.09-1.88 12.35-3.81 9.62-5.74 8.18-8.91 6.74-12.08 6.74-15.8L6.74-15.8Q6.74-20.09 8.04-22.9 9.35-25.71 11.56-27.03 13.77-28.34 16.53-28.34L16.53-28.34Q19.26-28.34 21.2-27.5 23.14-26.66 24.22-25.56L24.22-25.56 25.1-20.9 27.22-20.53 27.81-28.39Q26.03-29.52 23.51-30.14 21-30.76 17.99-30.76L17.99-30.76Q13.75-30.76 9.95-28.74 6.15-26.71 3.82-22.92 1.49-19.14 1.49-14.11L1.49-14.11Q1.49-9.84 3.13-6.48 4.76-3.13 8.03-1.18 11.3 0.76 16.06 0.76L16.06 0.76ZM45.02 0Q49.66 0 52.56-1.31 55.47-2.61 56.74-4.7 58.01-6.79 58.01-9.28L58.01-9.28Q58.01-10.96 57.13-12.55 56.25-14.14 54.54-15.21 52.83-16.28 50.44-16.41L50.44-16.41 50.44-16.58Q53.07-17.53 54.27-19.47 55.47-21.41 55.47-23.61L55.47-23.61Q55.47-25.54 54.33-27.15 53.2-28.76 50.8-29.72 48.41-30.69 44.8-30.69L44.8-30.69Q41.94-30.69 39.24-30.4 36.55-30.1 32.79-29.57L32.79-29.57 32.54-27.69 36.72-26.95 36.72-2.95 32.64-1.81 32.37 0 45.02 0ZM41.4-28.42Q42.55-28.59 43.36-28.59L43.36-28.59Q47.41-28.59 49.14-26.73 50.88-24.88 50.88-22.19L50.88-22.19Q50.88-20.12 50.08-18.79 49.29-17.46 47.7-16.8L47.7-16.8 41.4-16.8 41.4-28.42ZM41.4-14.77L46.85-14.77Q48.87-14.77 50.31-13.85 51.76-12.94 52.49-11.5 53.22-10.06 53.22-8.47L53.22-8.47Q53.22-6.86 52.48-5.46 51.73-4.05 50.27-3.2 48.8-2.34 46.77-2.34L46.77-2.34 41.4-2.34 41.4-14.77ZM68.48 0.59Q71.28 0.59 73.79-0.57 76.29-1.73 77.81-3.86 79.34-5.98 79.34-8.72L79.34-8.72Q79.34-10.67 78.34-12.11 77.34-13.55 75.9-14.54 74.46-15.53 72.02-16.82L72.02-16.82Q69.67-18.09 68.32-18.99 66.96-19.9 66.02-21.22 65.08-22.53 65.08-24.29L65.08-24.29Q65.08-26.59 66.33-27.76 67.57-28.93 69.53-28.93L69.53-28.93Q70.43-28.93 71.31-28.55 72.19-28.17 72.81-27.62 73.43-27.08 73.68-26.61L73.68-26.61 74.29-21.95 76.7-21.66Q76.78-22.71 76.97-25.05 77.17-27.39 77.24-28.54L77.24-28.54Q74.31-30.98 70.36-30.98L70.36-30.98Q67.89-30.98 65.72-29.96 63.54-28.93 62.2-26.98 60.86-25.02 60.86-22.36L60.86-22.36Q60.86-20.07 61.97-18.38 63.08-16.7 64.66-15.61 66.23-14.53 68.79-13.16L68.79-13.16Q70.87-12.04 72.05-11.25 73.24-10.47 74.04-9.41 74.85-8.35 74.85-7.01L74.85-7.01Q74.85-5.3 73.98-4.15 73.12-3 71.78-2.44 70.45-1.88 69.06-1.88L69.06-1.88Q67.45-1.88 66.1-2.59 64.74-3.3 64.03-4.32L64.03-4.32 63.08-8.91 60.59-9.25 60.27-2.25Q61.52-1.03 63.73-0.22 65.94 0.59 68.48 0.59L68.48 0.59ZM81.14 0L105.31 0 106.22-8.08 104.14-8.4 100.94-2.34 90.15-2.34 90.15-27.37 94.33-28.52 94.57-30.37 81.14-30.37 80.83-28.52 85.42-27.27 85.42-2.95 81.36-1.81 81.14 0Z" opacity="1" transform="matrix(1,0,0,1,0,0)" fill="#dad9d9" class="undefined-text-1" data-fill-palette-color="secondary" id="text-1"></path></svg></g></svg></g></svg></g></svg></g><g><svg viewBox="0 0 182.5948098861228 182.5948098861228" height="182.5948098861228" width="182.5948098861228"><g><svg></svg></g><g id="icon-0"><svg viewBox="0 0 182.5948098861228 182.5948098861228" height="182.5948098861228" width="182.5948098861228"><g><path d="M0 91.297c0-50.422 40.875-91.297 91.297-91.297 50.422 0 91.297 40.875 91.298 91.297 0 50.422-40.875 91.297-91.298 91.298-50.422 0-91.297-40.875-91.297-91.298zM91.297 178.958c48.414 0 87.661-39.247 87.661-87.661 0-48.414-39.247-87.661-87.661-87.661-48.414 0-87.661 39.247-87.661 87.661 0 48.414 39.247 87.661 87.661 87.661z" data-fill-palette-color="accent" fill="#7df8f5" stroke="transparent"></path></g><g transform="matrix(1,0,0,1,37.95371663049881,37.95371663049881)"><svg viewBox="0 0 106.68737662512517 106.68737662512517" height="106.68737662512517" width="106.68737662512517"><g><svg xmlns="http://www.w3.org/2000/svg" xmlns:xlink="http://www.w3.org/1999/xlink" version="1.1" x="0" y="0" viewBox="0 0 100 100" enable-background="new 0 0 100 100" xml:space="preserve" height="106.68737662512517" width="106.68737662512517" class="icon-x-0" data-fill-palette-color="accent" id="x-0"><path d="M50 0C22.379 0 0 22.379 0 50s22.379 50 50 50 50-22.379 50-50S77.621 0 50 0zM91.109 56.475c-1.34-0.105-2.657-0.232-3.928-0.396-0.646-2.661-2.588-4.826-5.123-5.802-0.402-4.626-1.24-8.879-2.303-12.671 1.725-1.514 2.824-3.703 2.824-6.173 0-0.183-0.041-0.35-0.053-0.529 1.766-0.488 3.162-0.725 4.048-0.834 3.243 5.925 5.09 12.716 5.09 19.93C91.667 52.206 91.443 54.357 91.109 56.475zM69.738 83.712l-0.17 0.366c-4.655-0.737-8.756-2.075-12.362-3.833 0.375-1.074 0.619-2.209 0.619-3.414 0-3.967-2.255-7.386-5.538-9.144 0.939-4.117 2.115-7.771 3.459-11.039 0.549 0.086 1.1 0.168 1.672 0.168 2.173 0 4.188-0.668 5.855-1.803 2.312 1.282 4.822 2.445 7.539 3.467 0.176 3.053 1.961 5.66 4.549 6.971C74.482 71.204 72.727 77.328 69.738 83.712zM32.874 87.943l-0.5-0.603c-4.199-5.013-7.947-19.315-5.546-34.981 1.146 3.509 2.555 6.982 4.297 10.34 1.701 3.279 3.898 6.779 6.661 10.168-0.509 1.221-0.793 2.56-0.793 3.963 0 4.365 2.682 8.093 6.478 9.646-0.057 1.506-0.098 3.032-0.105 4.606C39.686 90.495 36.166 89.434 32.874 87.943zM36.039 10.791c0.171 1.811 0.484 4.199 1.054 6.95-2.922 2.828-5.379 5.823-7.401 8.883 0.265-5.77 1.363-10.819 3.117-14.535C33.861 11.609 34.939 11.186 36.039 10.791zM57.129 12.268c2.319 1.217 6.93 5.847 11.076 13.412-1.412 1.505-2.291 3.52-2.291 5.753 0 0.333 0.061 0.647 0.098 0.968-1.623 1.257-3.246 2.666-4.846 4.297-1.164-0.447-2.421-0.72-3.748-0.72-1.917 0-3.691 0.554-5.232 1.457-4.343-5.75-6.82-11.902-8.231-17.159C47.566 17.22 51.904 14.478 57.129 12.268zM67.146 50.028c0.424-1.135 0.688-2.348 0.688-3.629 0-2.128-0.644-4.102-1.733-5.75 1.002-1.005 2.015-1.913 3.027-2.734 1.314 1.021 2.93 1.656 4.708 1.746 0.884 3.235 1.587 6.824 1.953 10.718-1.156 0.497-2.147 1.266-2.962 2.197C70.805 51.807 68.917 50.956 67.146 50.028zM45.968 66.568c-1.388 0.191-2.673 0.651-3.829 1.336-2.145-2.747-3.877-5.555-5.248-8.195-1.722-3.316-3.109-6.775-4.191-10.266 2.828-1.859 4.708-5.054 4.708-8.695 0-3.251-1.53-6.12-3.87-8.032 1.506-2.604 3.341-5.184 5.525-7.662 1.791 5.404 4.595 11.361 8.944 16.939-0.627 1.343-1.005 2.824-1.005 4.407 0 2.869 1.16 5.469 3.04 7.353C48.434 57.527 47.055 61.792 45.968 66.568zM82.715 24.28c-0.898 0.22-1.904 0.5-2.999 0.851-1.46-1.286-3.353-2.096-5.464-2.096-0.122 0-0.24 0.033-0.361 0.037-2.572-4.765-5.433-8.708-8.168-11.633C72.449 14.188 78.279 18.652 82.715 24.28zM50.297 8.35c-2.848 1.465-5.432 3.08-7.775 4.81-0.221-1.656-0.334-3.036-0.387-4.057 2.551-0.489 5.176-0.77 7.865-0.77C50.102 8.333 50.195 8.346 50.297 8.35zM8.333 50c0-13.31 6.299-25.155 16.048-32.788-0.887 4.146-1.314 8.85-1.199 13.859-3.861 1.526-6.608 5.278-6.608 9.676 0 3.438 1.685 6.458 4.252 8.354C18.677 60.71 19.641 72.376 22.27 81.01 13.741 73.373 8.333 62.32 8.333 50zM49.833 91.659v-0.216c0.004-1.555 0.045-3.049 0.099-4.525 1.159-0.289 2.245-0.749 3.215-1.387 3.06 1.595 6.453 2.925 10.196 3.906-4.194 1.424-8.671 2.229-13.342 2.229C49.943 91.667 49.891 91.659 49.833 91.659zM77.596 81.132c2.014-5.269 3.305-10.358 4.012-15.202 1.945-0.635 3.574-1.945 4.61-3.674 1.128 0.146 2.308 0.248 3.487 0.354C87.398 69.85 83.15 76.205 77.596 81.132z" fill="#7df8f5" data-fill-palette-color="accent"></path></svg></g></svg></g></svg></g></svg></g></svg></g></svg></g></svg><rect width="395.5199999999999" height="120.94017496424071" fill="none" stroke="none" visibility="hidden"></rect></g></svg></g></svg>