<?xml version="1.0" encoding="utf-8"?>
<svg viewBox="40.565 141.402 376.248 160.766" xmlns="http://www.w3.org/2000/svg" xmlns:bx="https://boxy-svg.com">
  <defs>
    <marker id="marker-0" viewBox="0 0 100 100" overflow="visible" orient="auto" refX="50" refY="50" markerWidth="15" markerHeight="15" bx:pinned="true">
      <title>Arrow</title>
      <path d="M 9.72 -55.043 L 59.717 44.95 L -40.277 44.95 L 9.72 -55.043 Z" style="fill: rgb(255, 0, 0);" transform="matrix(-0.000068, 1, -1, -0.000062, 44.954273, 40.279476)" bx:shape="triangle -40.277 -55.043 99.994 99.993 0.5 0 1@f4ab8835"/>
    </marker>
  </defs>
  <path d="M 249.386 201.607 C 250.138 201.494 250.888 201.352 251.647 201.299 C 254.812 208.234 257.94 215.185 261.094 222.126 C 261.069 222.144 261.018 222.177 260.994 222.194 C 238.977 226.015 216.957 229.82 194.943 233.65 C 194.922 233.633 194.878 233.602 194.858 233.585 C 194.835 233.416 194.791 233.252 194.735 233.092 C 192.739 227.369 190.745 221.646 188.753 215.921 C 188.178 214.251 187.567 212.592 187.029 210.91 C 191.413 210.225 195.806 209.604 200.192 208.936 C 216.591 206.496 232.987 204.046 249.386 201.607 Z" fill="#E0C8B0" stroke="#E0C8B0" style="" stroke-width=".0938"/>
  <path d="M 278.573 201.282 C 283.942 205.778 289.291 210.304 294.649 214.816 C 297.516 217.218 300.372 219.634 303.231 222.045 C 303.458 222.183 303.178 222.385 303.093 222.523 C 297.213 229.624 291.342 236.733 285.46 243.831 C 285.374 243.773 285.29 243.717 285.207 243.66 C 285.058 243.761 284.894 243.847 284.781 243.99 C 284.623 244.235 284.58 244.55 284.351 244.749 C 284.191 244.892 284.095 245.082 284.039 245.286 C 277.251 238.449 270.473 231.599 263.671 224.773 C 263.133 224.208 262.571 223.667 262.032 223.105 C 261.717 222.804 261.438 222.463 261.087 222.204 L 260.998 222.194 C 261.023 222.177 261.072 222.144 261.097 222.126 C 261.507 221.743 261.821 221.268 262.2 220.854 C 266.847 215.289 271.497 209.728 276.143 204.164 C 276.955 203.204 277.745 202.227 278.573 201.282 Z" fill="#D5B699" stroke="#D5B699" style="" stroke-width=".0938"/>
  <path d="M 172.857 221.564 C 174.089 222.166 175.275 222.865 176.482 223.515 C 182.417 226.76 188.35 230.005 194.283 233.251 C 194.479 233.355 194.676 233.456 194.859 233.585 C 194.881 233.602 194.924 233.633 194.944 233.65 C 194.969 233.669 195.017 233.708 195.041 233.727 C 198.24 239.252 201.487 244.749 204.695 250.268 C 205.93 252.436 207.216 254.578 208.464 256.741 C 209.119 257.831 209.734 258.943 210.402 260.026 C 209.995 260.01 209.683 259.706 209.34 259.526 C 204.591 256.819 199.826 254.135 195.088 251.408 C 195.069 251.585 195.052 251.764 195.042 251.944 C 195.023 251.786 195.008 251.627 194.994 251.47 C 192.466 249.968 189.908 248.511 187.381 247.008 C 186.947 246.418 186.653 245.729 186.262 245.107 C 182.71 238.877 179.156 232.649 175.603 226.421 C 174.692 224.8 173.74 223.2 172.857 221.564 Z" fill="#D3B9A0" stroke="#D3B9A0" style="" stroke-width=".0938"/>
  <path d="M 194.944 233.65 C 216.959 229.82 238.979 226.015 260.996 222.194 L 261.085 222.204 C 260.801 231.546 260.419 240.883 260.136 250.223 C 243.784 253.514 227.43 256.798 211.079 260.094 C 210.916 260.123 210.753 260.152 210.59 260.177 C 210.561 260.172 210.505 260.158 210.477 260.152 C 210.451 260.107 210.426 260.066 210.402 260.026 C 209.734 258.943 209.119 257.831 208.464 256.741 C 207.216 254.578 205.93 252.436 204.695 250.268 C 204.757 250.095 204.744 249.911 204.629 249.765 C 204.096 248.947 203.651 248.078 203.148 247.242 C 202.684 246.322 202.109 245.465 201.615 244.562 C 200.991 243.527 200.466 242.436 199.832 241.406 C 199.112 240.247 198.452 239.049 197.795 237.854 C 197.048 236.59 196.336 235.303 195.592 234.035 C 195.49 233.822 195.235 233.804 195.041 233.727 C 195.017 233.708 194.969 233.669 194.944 233.65 Z" fill="#A08165" stroke="#A08165" style="" stroke-width=".0938"/>
  <path d="M 261.089 222.204 C 261.442 222.463 261.72 222.804 262.036 223.105 C 262.574 223.667 263.135 224.208 263.673 224.773 C 263.495 230.656 263.282 236.539 263.107 242.424 C 263.023 243.541 263.058 244.663 262.98 245.781 C 262.936 247.08 262.937 248.379 262.853 249.676 C 261.949 249.856 261.045 250.041 260.141 250.223 C 260.423 240.883 260.805 231.546 261.089 222.204 Z" fill="#78492D" stroke="#78492D" style="" stroke-width=".0938"/>
  <path d="M 263.668 224.773 C 270.471 231.599 277.249 238.449 284.037 245.286 C 284.03 245.323 284.014 245.394 284.006 245.43 C 276.95 246.825 269.902 248.267 262.85 249.676 C 262.933 248.379 262.931 247.08 262.976 245.781 C 263.054 244.663 263.017 243.541 263.103 242.424 C 263.276 236.539 263.49 230.656 263.668 224.773 Z" fill="#916945" stroke="#916945" style="" stroke-width=".0938"/>
  <path d="M 195.041 233.727 C 195.235 233.804 195.49 233.822 195.592 234.035 C 196.336 235.303 197.048 236.59 197.795 237.854 C 198.452 239.049 199.112 240.247 199.832 241.406 C 200.466 242.436 200.991 243.527 201.615 244.562 C 202.109 245.465 202.684 246.322 203.148 247.242 C 203.651 248.078 204.096 248.947 204.629 249.765 C 204.744 249.911 204.757 250.095 204.695 250.268 C 201.487 244.749 198.24 239.252 195.041 233.727 Z" fill="#927153" stroke="#927153" style="" stroke-width=".0938"/>
  <path d="M 195.088 251.408 C 199.826 254.135 204.591 256.819 209.34 259.526 C 209.683 259.706 209.995 260.01 210.402 260.026 C 210.426 260.066 210.451 260.107 210.477 260.152 C 210.489 260.222 210.512 260.363 210.524 260.434 C 211.336 274.347 212.137 288.259 212.964 302.168 C 207.378 292.539 201.816 282.897 196.237 273.263 C 196.125 273.094 196.135 272.884 196.126 272.69 C 195.773 265.775 195.388 258.859 195.042 251.944 C 195.052 251.764 195.069 251.585 195.088 251.408 Z" fill="#C1A389" stroke="#C1A389" style="" stroke-width=".0938"/>
  <path style="stroke-width: 1px; fill: rgba(216, 216, 216, 0); paint-order: stroke; marker-end: url(#marker-0); stroke: rgb(255, 0, 0);" d="M 401.904 202.074 C 322.973 161.691 266.983 160.736 233.934 199.209" stroke-width=".0938" transform="matrix(0.93067, -0.36586, 0.36586, 0.93067, -46.21479, 129.248306)"/>
  <text style="white-space: pre; fill: rgb(51, 51, 51); font-family: Arial, sans-serif; font-size: 20.5px;" x="405.41" y="175.082">7</text>
  <text style="white-space: pre; fill: rgb(51, 51, 51); font-family: Arial, sans-serif; font-size: 40.4px;" x="224.267" y="260.283">7</text>
  <path d="M 284.782 243.99 C 284.895 243.847 285.059 243.761 285.208 243.66 C 285.29 243.717 285.376 243.773 285.461 243.831 C 285.07 244.37 284.572 244.828 284.22 245.393 C 288.705 245.916 293.191 246.424 297.675 246.945 C 297.745 246.941 297.804 246.967 297.851 247.021 C 293.745 247.88 289.637 248.736 285.53 249.596 C 285.012 249.711 284.49 249.806 283.977 249.941 C 282.25 250.244 280.543 250.654 278.821 250.993 C 260.232 254.879 241.642 258.764 223.052 262.645 C 222.235 262.795 221.429 263.025 220.608 263.127 C 217.792 262.347 214.989 261.503 212.178 260.694 C 211.654 260.505 211.087 260.44 210.593 260.177 C 210.755 260.152 210.919 260.123 211.081 260.094 C 227.434 256.798 243.787 253.514 260.139 250.223 C 261.043 250.041 261.947 249.856 262.852 249.676 C 269.905 248.267 276.952 246.825 284.008 245.43 C 284.016 245.394 284.032 245.323 284.04 245.286 C 284.096 245.082 284.192 244.892 284.352 244.749 C 284.581 244.55 284.624 244.235 284.782 243.99 Z" fill="#D5B79D" stroke="#D5B79D" style="" stroke-width=".0938"/>
  <path d="M 278.82 250.993 C 280.541 250.654 282.248 250.244 283.975 249.941 C 283.493 261.727 283.006 273.515 282.524 285.302 C 282.514 285.593 282.515 285.887 282.47 286.177 C 259.301 291.502 236.134 296.839 212.965 302.168 C 212.138 288.259 211.337 274.347 210.525 260.434 C 210.513 260.363 210.49 260.222 210.478 260.152 C 210.506 260.158 210.563 260.172 210.591 260.177 C 211.086 260.44 211.652 260.505 212.177 260.694 C 214.988 261.503 217.791 262.347 220.606 263.127 C 221.427 263.025 222.234 262.795 223.05 262.645 C 241.641 258.764 260.23 254.879 278.82 250.993 Z" fill="#AF8B67" stroke="#AF8B67" style="" stroke-width=".0938"/>
  <text style="white-space: pre; fill: rgb(51, 51, 51); font-family: Arial, sans-serif; font-size: 12.9px;" x="3049.731" y="1628.527" transform="matrix(0.981374, -0.192109, 0.192109, 0.981374, -3074.131592, -730.297913)" stroke-width=".0938">anzahl</text>
  <text style="white-space: pre; fill: rgb(51, 51, 51); font-family: Arial, sans-serif; font-size: 20.5px;" x="40.565" y="184.385">12</text>
  <path style="stroke-width: 1px; fill: rgba(216, 216, 216, 0); paint-order: stroke; marker-end: url(#marker-0); stroke: rgb(255, 0, 0);" d="M 247.684 218.224 C 213.979 180.085 156.74 175.061 88.256 204.623" stroke-width=".0938" transform="matrix(0.972714, 0.232009, -0.232009, 0.972714, 30.088573, -41.451805)"/>
</svg>