<?xml version="1.0" encoding="utf-8"?>
<!-- Generator: Adobe Illustrator 27.0.1, SVG Export Plug-In . SVG Version: 6.00 Build 0)  -->
<svg version="1.1" id="Ebene_1" xmlns="http://www.w3.org/2000/svg" xmlns:xlink="http://www.w3.org/1999/xlink" x="0px" y="0px"
	 viewBox="0 0 500 450" style="enable-background:new 0 0 500 450;" xml:space="preserve">
<style type="text/css">
	.st0{fill:#3366CC;}
	.st1{fill:#FFFFFF;}
	.st2{stroke:#000000;stroke-linecap:round;stroke-linejoin:round;stroke-dasharray:4;}
	.st3{fill:#D8D8D8;stroke:#000000;}
	.st4{fill:none;stroke:#000000;stroke-linecap:round;stroke-linejoin:round;stroke-dasharray:4;}
</style>
<path class="st0" d="M22.8,107.1h105.8l16.4,17.2v4.3H5.5v-4.3L22.8,107.1 M31.1,7.6h88.4c4.1,0,7,3.3,7,7.2v67.2
	c0,6.2-3.2,9.1-9.3,9.1H91.7c0.4,1.8,0.9,3.6,2.1,5c0.8,1,2,1.7,3.4,1.8c0.6,0,1.2,0,1.7,0.4c0.8,0.6,0.8,1.9,0,2.5
	c-0.3,0.2-0.8,0.3-1.2,0.3H53.1c-0.6,0-1.1,0-1.7-0.2c-0.3-0.1-0.6-0.5-0.5-0.8c0.2-0.7,0.8-1.3,1.3-1.7c0.7-0.6,1.7-0.7,2.5-1.2
	c2.2-1.2,3.5-3.6,3.8-6.1H31.3c-3.8,0-7.3-3.5-7.3-7.7V14.9C24,11,27.2,7.6,31.1,7.6L31.1,7.6z"/>
<path class="st1" d="M128.6,116.5c-0.7,0.2-1.5,0.5-2,1.1c-0.2,0.3-0.2,0.8,0,1.1c0.4,0.4,0.9,0.7,1.4,0.9c1.4,0.5,3,0.4,4.4-0.1
	c0.6-0.2,1.3-0.6,1.3-1.3c0-0.7-0.7-1.1-1.3-1.3C131.2,116.2,129.8,116.2,128.6,116.5L128.6,116.5z M119.4,116.5
	c-0.7,0.2-1.4,0.4-1.9,0.9c-0.3,0.3-0.4,0.8-0.1,1.2c0.4,0.5,1,0.8,1.6,1c1.3,0.4,2.8,0.4,4.1-0.1c0.6-0.2,1.3-0.7,1.4-1.4
	c0-0.6-0.6-1-1.2-1.3C122.1,116.3,120.7,116.2,119.4,116.5 M109.6,116.4c-0.8,0.2-1.6,0.5-2.1,1.1c-0.3,0.4-0.1,1,0.2,1.3
	c0.8,0.7,1.9,0.9,2.9,1c1.1,0,2.2-0.1,3.1-0.7c0.4-0.2,0.9-0.7,0.8-1.2c-0.1-0.6-0.7-0.9-1.2-1.1
	C112.2,116.3,110.8,116.2,109.6,116.4 M99.7,116.4c-0.7,0.1-1.3,0.4-1.8,0.8c-0.3,0.3-0.5,0.6-0.3,1c0.2,0.6,0.8,0.9,1.4,1.2
	c1.5,0.5,3.2,0.5,4.7-0.1c0.5-0.2,1-0.6,1.1-1.1c0.1-0.6-0.5-1-0.9-1.3C102.5,116.3,101,116.2,99.7,116.4 M89.6,116.4
	c-0.8,0.2-1.6,0.5-2.1,1.1c-0.3,0.4-0.1,0.9,0.2,1.2c0.5,0.4,1.1,0.7,1.7,0.8c1.3,0.3,2.8,0.3,4-0.3c0.5-0.2,1-0.6,1.1-1.1
	c0.1-0.6-0.5-1-0.9-1.3C92.4,116.2,91,116.2,89.6,116.4 M79.5,116.4c-0.8,0.2-1.6,0.5-2.1,1.1c-0.3,0.4-0.1,0.9,0.2,1.2
	c0.5,0.5,1.2,0.7,1.9,0.8c1.3,0.3,2.7,0.2,4-0.4c0.5-0.2,1-0.6,1-1.2c0-0.6-0.5-0.9-0.9-1.2C82.4,116.3,80.9,116.2,79.5,116.4
	 M69.5,116.4c-0.7,0.1-1.3,0.4-1.8,0.8c-0.3,0.3-0.5,0.7-0.3,1.1c0.3,0.6,1,0.9,1.6,1.1c1.5,0.5,3.2,0.4,4.6-0.3
	c0.5-0.2,1-0.6,1-1.2c0-0.6-0.5-0.9-0.9-1.2C72.3,116.3,70.8,116.2,69.5,116.4 M59.6,116.4c-0.7,0.1-1.4,0.3-1.9,0.8
	c-0.3,0.3-0.6,0.8-0.4,1.2c0.3,0.6,1,0.9,1.6,1.1c1.4,0.4,3.1,0.4,4.5-0.2c0.5-0.2,1.1-0.6,1.1-1.3c0-0.6-0.5-0.9-0.9-1.2
	C62.3,116.3,60.9,116.2,59.6,116.4 M49.4,116.4c-0.7,0.1-1.4,0.4-1.9,0.9c-0.2,0.2-0.4,0.6-0.3,1c0.2,0.6,0.9,1,1.5,1.2
	c1.5,0.5,3.1,0.5,4.6-0.2c0.5-0.2,1-0.6,1.1-1.1c0.1-0.6-0.4-1-0.9-1.3C52.2,116.3,50.7,116.2,49.4,116.4 M39.3,116.4
	c-0.8,0.2-1.6,0.5-2.1,1.1c-0.3,0.5,0,1.1,0.4,1.4c0.9,0.6,2,0.8,3,0.9c1,0,2.1-0.2,2.9-0.7c0.4-0.2,0.7-0.6,0.7-1.1
	c0-0.6-0.5-0.9-0.9-1.2C42.1,116.2,40.7,116.2,39.3,116.4 M29.4,116.4c-0.7,0.1-1.4,0.4-2,0.9c-0.3,0.3-0.5,0.7-0.3,1.1
	c0.3,0.6,1,0.9,1.6,1.1c1.5,0.4,3.2,0.4,4.6-0.3c0.5-0.2,1-0.6,1-1.2c0-0.6-0.5-0.9-0.9-1.2C32.1,116.3,30.7,116.2,29.4,116.4
	 M19.2,116.4c-0.8,0.2-1.7,0.5-2.1,1.2c-0.2,0.4,0,0.9,0.3,1.2c0.5,0.4,1.1,0.7,1.7,0.8c1.4,0.3,2.9,0.3,4.1-0.4
	c0.5-0.2,1-0.6,1-1.2c0-0.6-0.5-0.9-0.9-1.2C22,116.2,20.5,116.2,19.2,116.4 M124.3,110.8c-0.8,0.1-1.7,0.4-2.3,1
	c-0.3,0.4-0.4,1,0,1.3c0.6,0.7,1.5,0.9,2.4,1c1.3,0.2,2.7,0.1,3.8-0.6c0.4-0.2,0.8-0.7,0.8-1.2c-0.1-0.5-0.5-0.9-1-1.1
	C126.8,110.7,125.5,110.6,124.3,110.8 M114.7,110.8c-0.8,0.1-1.7,0.4-2.3,0.9c-0.3,0.3-0.5,0.8-0.3,1.2c0.4,0.6,1.1,0.9,1.7,1.1
	c1.4,0.4,2.9,0.4,4.3-0.2c0.5-0.2,1-0.6,1.1-1.1c0.1-0.6-0.4-1-0.8-1.3C117.3,110.7,116,110.6,114.7,110.8 M104.8,110.8
	c-0.8,0.1-1.7,0.4-2.3,1c-0.3,0.3-0.4,0.9-0.1,1.2c0.5,0.7,1.4,0.9,2.1,1.1c1.2,0.2,2.5,0.2,3.6-0.3c0.6-0.2,1.2-0.6,1.3-1.3
	c0-0.6-0.5-1-1-1.3C107.3,110.7,106,110.6,104.8,110.8 M94.7,110.8c-0.8,0.1-1.7,0.4-2.3,1c-0.3,0.3-0.3,0.9,0,1.3
	c0.6,0.7,1.5,1,2.4,1.1c1.3,0.2,2.7,0,3.8-0.6c0.4-0.2,0.8-0.6,0.7-1.1c-0.1-0.5-0.6-0.9-1-1.1C97.2,110.7,95.9,110.6,94.7,110.8
	 M84.6,110.8c-0.8,0.1-1.7,0.4-2.3,1c-0.3,0.3-0.4,0.9-0.1,1.2c0.5,0.7,1.4,1,2.3,1.1c1.3,0.2,2.6,0.1,3.8-0.5
	c0.5-0.2,1.1-0.7,1-1.3c-0.1-0.6-0.7-1-1.2-1.2C87,110.7,85.8,110.6,84.6,110.8 M74.6,110.8c-0.8,0.1-1.7,0.4-2.3,1
	c-0.3,0.3-0.3,0.9,0,1.3c0.6,0.7,1.5,0.9,2.3,1c1.3,0.2,2.7,0.1,3.9-0.6c0.4-0.2,0.9-0.7,0.8-1.2c-0.1-0.5-0.6-0.9-1-1.1
	C77.1,110.7,75.8,110.6,74.6,110.8 M64.5,110.8c-0.8,0.1-1.7,0.4-2.3,1c-0.3,0.4-0.3,0.9,0,1.3c0.6,0.6,1.5,0.9,2.3,1
	c1.3,0.2,2.8,0.1,3.9-0.6c0.4-0.2,0.8-0.6,0.7-1.1c-0.1-0.6-0.6-1-1.1-1.2C67,110.7,65.7,110.6,64.5,110.8 M54.5,110.8
	c-0.8,0.1-1.7,0.4-2.3,1c-0.3,0.3-0.4,0.9-0.1,1.2c0.5,0.7,1.4,1,2.3,1.1c1.3,0.2,2.7,0.1,3.9-0.5c0.5-0.2,1-0.7,0.9-1.2
	c-0.1-0.6-0.6-1-1.1-1.2C56.9,110.7,55.6,110.6,54.5,110.8 M44.4,110.8c-0.8,0.1-1.7,0.4-2.3,1c-0.3,0.3-0.3,0.9,0,1.3
	c0.6,0.6,1.4,0.9,2.2,1c1.2,0.2,2.5,0.1,3.7-0.4c0.5-0.2,1.1-0.6,1.1-1.2c0-0.6-0.5-1-0.9-1.2C47,110.7,45.6,110.6,44.4,110.8
	 M34.3,110.8c-0.9,0.2-1.8,0.4-2.4,1.1c-0.3,0.3-0.3,0.9,0,1.2c0.6,0.6,1.5,0.9,2.3,1c1.3,0.2,2.7,0.1,3.9-0.6
	c0.4-0.2,0.9-0.7,0.8-1.2c-0.1-0.6-0.6-0.9-1.1-1.2C36.8,110.7,35.5,110.6,34.3,110.8 M24.3,110.8c-0.8,0.1-1.7,0.4-2.3,1
	c-0.3,0.4-0.3,0.9,0,1.3c0.6,0.6,1.5,0.9,2.3,1c1.3,0.2,2.7,0.1,3.9-0.6c0.4-0.2,0.9-0.7,0.8-1.2c-0.1-0.6-0.6-0.9-1.1-1.2
	C26.7,110.7,25.5,110.6,24.3,110.8 M74.7,76c-1.6,0.3-2.7,2.1-2.2,3.7c0.4,1.4,2.1,2.4,3.6,1.9c1.4-0.4,2.4-2,2-3.4
	C77.8,76.8,76.2,75.7,74.7,76L74.7,76z M35.8,19.5V68h78.4V19.5H35.8z"/>
<path class="st0" d="M287.9,399h98.6l15.3,16v4H271.9v-4L287.9,399 M295.7,306.2h82.4c3.9,0,6.5,3,6.5,6.7v62.6c0,5.7-3,8.5-8.7,8.5
	h-23.9c0.4,1.7,0.9,3.3,2,4.7c0.8,1,1.9,1.6,3.1,1.7c0.5,0,1.1,0,1.5,0.4c0.7,0.6,0.7,1.8,0,2.3c-0.3,0.2-0.7,0.3-1.1,0.3h-41.4
	c-0.5,0-1.1,0-1.5-0.2c-0.3-0.1-0.5-0.4-0.5-0.8c0.2-0.7,0.7-1.2,1.2-1.6c0.7-0.5,1.6-0.7,2.3-1.1c2-1.1,3.3-3.4,3.5-5.7h-25.3
	c-3.5,0-6.8-3.3-6.8-7.2v-63.8C289,309.4,292.1,306.2,295.7,306.2L295.7,306.2z"/>
<path class="st1" d="M386.5,407.7c-0.7,0.2-1.4,0.4-1.8,1c-0.2,0.3-0.2,0.7,0,1c0.3,0.4,0.8,0.6,1.3,0.8c1.3,0.4,2.8,0.4,4.1-0.1
	c0.5-0.2,1.2-0.6,1.2-1.2c0-0.6-0.7-1-1.2-1.2C388.9,407.5,387.6,407.4,386.5,407.7L386.5,407.7z M377.9,407.7
	c-0.6,0.1-1.3,0.4-1.7,0.9c-0.3,0.3-0.4,0.8-0.1,1.1c0.4,0.5,0.9,0.8,1.5,0.9c1.3,0.4,2.6,0.3,3.9-0.1c0.6-0.2,1.3-0.6,1.3-1.3
	c0-0.6-0.6-1-1.1-1.2C380.4,407.5,379.1,407.4,377.9,407.7 M368.8,407.7c-0.7,0.2-1.5,0.4-2,1.1c-0.3,0.4-0.1,0.9,0.2,1.2
	c0.8,0.6,1.8,0.8,2.7,0.9c1,0,2-0.1,2.9-0.6c0.4-0.2,0.9-0.6,0.7-1.2c-0.1-0.5-0.6-0.9-1.1-1.1C371.2,407.5,369.9,407.4,368.8,407.7
	 M359.5,407.7c-0.6,0.1-1.2,0.3-1.7,0.8c-0.2,0.2-0.4,0.6-0.3,1c0.2,0.6,0.8,0.9,1.3,1.1c1.4,0.5,3,0.5,4.4-0.1
	c0.4-0.2,0.9-0.5,1-1.1c0.1-0.6-0.4-1-0.9-1.2C362.2,407.5,360.8,407.4,359.5,407.7 M350.2,407.7c-0.7,0.2-1.5,0.4-1.9,1.1
	c-0.3,0.4-0.1,0.9,0.2,1.2c0.4,0.4,1,0.6,1.6,0.8c1.2,0.3,2.6,0.2,3.8-0.3c0.4-0.2,0.9-0.5,1-1.1c0.1-0.6-0.4-1-0.9-1.2
	C352.8,407.5,351.4,407.4,350.2,407.7 M340.8,407.7c-0.7,0.2-1.5,0.4-1.9,1.1c-0.3,0.4-0.1,0.9,0.2,1.2c0.5,0.4,1.1,0.7,1.8,0.8
	c1.2,0.2,2.6,0.2,3.7-0.4c0.4-0.2,0.9-0.6,0.9-1.1c0-0.5-0.5-0.9-0.9-1.1C343.4,407.5,342.1,407.4,340.8,407.7 M331.4,407.7
	c-0.6,0.1-1.2,0.3-1.7,0.8c-0.3,0.3-0.5,0.7-0.3,1.1c0.3,0.6,0.9,0.9,1.5,1c1.4,0.4,2.9,0.4,4.2-0.2c0.4-0.2,0.9-0.6,0.9-1.1
	c0-0.5-0.5-0.9-0.9-1.1C334.1,407.5,332.7,407.4,331.4,407.7 M322.2,407.6c-0.6,0.1-1.3,0.3-1.8,0.7c-0.3,0.3-0.6,0.7-0.4,1.1
	c0.3,0.6,0.9,0.9,1.5,1c1.3,0.4,2.9,0.4,4.2-0.2c0.5-0.2,1-0.6,1-1.2c0-0.5-0.5-0.9-0.9-1.1C324.7,407.5,323.4,407.4,322.2,407.6
	 M312.7,407.7c-0.6,0.1-1.3,0.4-1.8,0.8c-0.2,0.2-0.4,0.6-0.3,0.9c0.2,0.6,0.8,0.9,1.4,1.1c1.4,0.5,2.9,0.4,4.2-0.2
	c0.4-0.2,1-0.5,1-1.1c0.1-0.6-0.4-1-0.9-1.2C315.3,407.5,313.9,407.4,312.7,407.7 M303.3,407.7c-0.7,0.2-1.5,0.4-1.9,1.1
	c-0.3,0.4,0,1,0.4,1.3c0.8,0.6,1.9,0.8,2.8,0.8c0.9,0,1.9-0.1,2.7-0.7c0.3-0.2,0.7-0.5,0.7-1c0-0.5-0.5-0.9-0.9-1.1
	C305.9,407.5,304.6,407.4,303.3,407.7 M294.1,407.6c-0.7,0.1-1.3,0.3-1.8,0.8c-0.3,0.3-0.5,0.7-0.3,1.1c0.3,0.6,0.9,0.9,1.5,1
	c1.4,0.4,2.9,0.4,4.2-0.2c0.4-0.2,0.9-0.6,0.9-1.1c0-0.5-0.5-0.9-0.9-1.1C296.6,407.5,295.3,407.4,294.1,407.6 M284.6,407.7
	c-0.7,0.2-1.6,0.4-2,1.2c-0.2,0.4,0,0.8,0.3,1.1c0.4,0.4,1,0.6,1.6,0.8c1.3,0.3,2.7,0.2,3.9-0.3c0.4-0.2,0.9-0.6,0.9-1.1
	c0-0.5-0.5-0.9-0.9-1.1C287.2,407.5,285.8,407.4,284.6,407.7 M382.5,402.4c-0.8,0.1-1.6,0.4-2.2,0.9c-0.3,0.3-0.3,0.9,0,1.2
	c0.6,0.6,1.4,0.9,2.2,1c1.2,0.2,2.5,0.1,3.5-0.6c0.4-0.2,0.8-0.6,0.7-1.1c-0.1-0.5-0.5-0.8-0.9-1
	C384.8,402.3,383.6,402.2,382.5,402.4 M373.5,402.4c-0.8,0.1-1.5,0.3-2.1,0.9c-0.3,0.3-0.4,0.7-0.2,1.1c0.3,0.6,1,0.9,1.6,1
	c1.3,0.4,2.7,0.3,4-0.2c0.5-0.2,0.9-0.5,1.1-1c0.1-0.5-0.3-0.9-0.7-1.2C376,402.3,374.7,402.2,373.5,402.4 M364.3,402.4
	c-0.8,0.1-1.6,0.4-2.2,1c-0.3,0.3-0.3,0.8-0.1,1.1c0.5,0.6,1.3,0.9,2,1c1.1,0.2,2.3,0.1,3.4-0.3c0.5-0.2,1.2-0.6,1.2-1.2
	c0-0.6-0.5-1-1-1.2C366.6,402.3,365.4,402.2,364.3,402.4 M354.9,402.4c-0.8,0.1-1.6,0.4-2.2,1c-0.3,0.3-0.3,0.9,0,1.2
	c0.6,0.6,1.4,0.9,2.3,1c1.2,0.1,2.5,0,3.6-0.6c0.4-0.2,0.7-0.6,0.7-1.1c-0.1-0.5-0.5-0.8-1-1.1C357.2,402.3,356,402.2,354.9,402.4
	 M345.5,402.4c-0.8,0.1-1.6,0.4-2.2,1c-0.3,0.3-0.3,0.8-0.1,1.1c0.5,0.6,1.3,0.9,2.1,1c1.2,0.2,2.4,0.1,3.5-0.4
	c0.5-0.2,1-0.6,0.9-1.2c-0.1-0.6-0.6-0.9-1.1-1.1C347.7,402.3,346.6,402.2,345.5,402.4 M336.2,402.4c-0.8,0.1-1.6,0.4-2.2,1
	c-0.3,0.3-0.3,0.9,0,1.2c0.5,0.6,1.4,0.9,2.1,1c1.2,0.2,2.5,0.1,3.6-0.5c0.4-0.2,0.8-0.6,0.8-1.1c-0.1-0.5-0.5-0.8-1-1.1
	C338.5,402.3,337.3,402.2,336.2,402.4 M326.8,402.4c-0.8,0.1-1.6,0.4-2.2,1c-0.3,0.3-0.3,0.9,0,1.2c0.5,0.6,1.4,0.9,2.1,1
	c1.2,0.2,2.6,0.1,3.7-0.6c0.4-0.2,0.7-0.6,0.7-1.1c-0.1-0.5-0.6-0.9-1-1.1C329.1,402.3,327.9,402.2,326.8,402.4 M317.4,402.4
	c-0.8,0.1-1.6,0.4-2.2,1c-0.3,0.3-0.3,0.8-0.1,1.1c0.5,0.6,1.3,0.9,2.1,1c1.2,0.2,2.5,0.1,3.6-0.5c0.4-0.2,0.9-0.6,0.9-1.2
	c-0.1-0.5-0.6-0.9-1-1.1C319.7,402.3,318.5,402.2,317.4,402.4 M308.1,402.4c-0.8,0.1-1.6,0.4-2.2,1c-0.3,0.3-0.3,0.9,0,1.2
	c0.5,0.6,1.3,0.8,2,1c1.1,0.2,2.4,0.1,3.4-0.4c0.5-0.2,1-0.6,1-1.1c0-0.5-0.4-0.9-0.9-1.1C310.5,402.3,309.2,402.2,308.1,402.4
	 M298.7,402.4c-0.8,0.1-1.7,0.4-2.2,1c-0.3,0.3-0.2,0.8,0,1.1c0.5,0.6,1.4,0.9,2.2,1c1.2,0.2,2.5,0.1,3.6-0.5
	c0.4-0.2,0.8-0.6,0.8-1.1c-0.1-0.5-0.6-0.9-1-1.1C300.9,402.3,299.8,402.2,298.7,402.4 M289.3,402.4c-0.8,0.1-1.6,0.4-2.2,1
	c-0.3,0.3-0.3,0.9,0,1.2c0.5,0.6,1.4,0.9,2.1,1c1.2,0.2,2.5,0.1,3.6-0.5c0.4-0.2,0.8-0.6,0.8-1.1c-0.1-0.5-0.6-0.9-1-1.1
	C291.6,402.3,290.4,402.2,289.3,402.4 M336.3,370c-1.5,0.3-2.5,2-2,3.4c0.4,1.3,2,2.2,3.3,1.8c1.3-0.4,2.2-1.8,1.9-3.2
	C339.2,370.7,337.7,369.7,336.3,370L336.3,370z M300,317.3v45.2h73.1v-45.2H300z"/>
<path class="st2" d="M0,0"/>
<path class="st2" d="M0,0"/>
<path class="st3" d="M580.3,147.2"/>
<path class="st4" d="M95.1,78.5C326.4,67,381.1,81.8,384.1,99c5.5,30.6-147.3,103.3-171.9,115c-12.4,5.9-40.8,19.1-75.2,43
	c-36.5,25.4-82.9,57.6-76.8,84.4c5.3,23.4,48.4,33,71.4,38.1c28.7,6.4,51,5,77.4,3.2c46.7-3.2,90.3-6.8,130.5-10.6"/>
</svg>
