<?xml version="1.0" encoding="UTF-8"?><svg xmlns="http://www.w3.org/2000/svg" xmlns:xlink="http://www.w3.org/1999/xlink" fill-opacity="1" color-rendering="auto" color-interpolation="auto" text-rendering="auto" stroke="black" stroke-linecap="square" width="608" stroke-miterlimit="10" shape-rendering="auto" stroke-opacity="1" fill="black" stroke-dasharray="none" font-weight="normal" stroke-width="1" height="455" font-family="'Dialog'" font-style="normal" stroke-linejoin="miter" font-size="12px" stroke-dashoffset="0" image-rendering="auto">
  <!--Generated by ySVG 2.6-->
  <defs id="genericDefs"/>
  <g>
    <defs id="defs1">
      <clipPath clipPathUnits="userSpaceOnUse" id="clipPath1">
        <path d="M0 0 L608 0 L608 455 L0 455 L0 0 Z"/>
      </clipPath>
      <clipPath clipPathUnits="userSpaceOnUse" id="clipPath2">
        <path d="M308 184 L916 184 L916 639 L308 639 L308 184 Z"/>
      </clipPath>
    </defs>
    <g fill="white" text-rendering="geometricPrecision" shape-rendering="geometricPrecision" transform="matrix(1,0,0,1,-308,-184)" stroke="white">
      <circle r="31" clip-path="url(#clipPath2)" cx="354" cy="593" stroke="none"/>
    </g>
    <g text-rendering="geometricPrecision" stroke-miterlimit="1.45" shape-rendering="geometricPrecision" transform="matrix(1,0,0,1,-308,-184)" stroke-linecap="butt">
      <circle fill="none" r="31" clip-path="url(#clipPath2)" cx="354" cy="593"/>
      <text x="341.6016" xml:space="preserve" y="597.5352" clip-path="url(#clipPath2)" font-family="sans-serif" stroke="none">Finn</text>
    </g>
    <g fill="white" text-rendering="geometricPrecision" shape-rendering="geometricPrecision" transform="matrix(1,0,0,1,-308,-184)" stroke="white">
      <circle r="31" clip-path="url(#clipPath2)" cx="604" cy="230" stroke="none"/>
    </g>
    <g text-rendering="geometricPrecision" stroke-miterlimit="1.45" shape-rendering="geometricPrecision" transform="matrix(1,0,0,1,-308,-184)" stroke-linecap="butt">
      <circle fill="none" r="31" clip-path="url(#clipPath2)" cx="604" cy="230"/>
      <text x="591.8389" xml:space="preserve" y="234.5352" clip-path="url(#clipPath2)" font-family="sans-serif" stroke="none">Max</text>
    </g>
    <g fill="white" text-rendering="geometricPrecision" shape-rendering="geometricPrecision" transform="matrix(1,0,0,1,-308,-184)" stroke="white">
      <circle r="31" clip-path="url(#clipPath2)" cx="440" cy="353" stroke="none"/>
    </g>
    <g text-rendering="geometricPrecision" stroke-miterlimit="1.45" shape-rendering="geometricPrecision" transform="matrix(1,0,0,1,-308,-184)" stroke-linecap="butt">
      <circle fill="none" r="31" clip-path="url(#clipPath2)" cx="440" cy="353"/>
      <text x="426.8926" xml:space="preserve" y="357.5352" clip-path="url(#clipPath2)" font-family="sans-serif" stroke="none">Gian</text>
    </g>
    <g fill="white" text-rendering="geometricPrecision" shape-rendering="geometricPrecision" transform="matrix(1,0,0,1,-308,-184)" stroke="white">
      <circle r="31" clip-path="url(#clipPath2)" cx="366" cy="482" stroke="none"/>
    </g>
    <g text-rendering="geometricPrecision" stroke-miterlimit="1.45" shape-rendering="geometricPrecision" transform="matrix(1,0,0,1,-308,-184)" stroke-linecap="butt">
      <circle fill="none" r="31" clip-path="url(#clipPath2)" cx="366" cy="482"/>
      <text x="341.874" xml:space="preserve" y="486.5352" clip-path="url(#clipPath2)" font-family="sans-serif" stroke="none">﻿Geremia</text>
    </g>
    <g fill="white" text-rendering="geometricPrecision" shape-rendering="geometricPrecision" transform="matrix(1,0,0,1,-308,-184)" stroke="white">
      <circle r="31" clip-path="url(#clipPath2)" cx="497" cy="482" stroke="none"/>
    </g>
    <g text-rendering="geometricPrecision" stroke-miterlimit="1.45" shape-rendering="geometricPrecision" transform="matrix(1,0,0,1,-308,-184)" stroke-linecap="butt">
      <circle fill="none" r="31" clip-path="url(#clipPath2)" cx="497" cy="482"/>
      <text x="483.3037" xml:space="preserve" y="486.5352" clip-path="url(#clipPath2)" font-family="sans-serif" stroke="none">Janis</text>
    </g>
    <g fill="white" text-rendering="geometricPrecision" shape-rendering="geometricPrecision" transform="matrix(1,0,0,1,-308,-184)" stroke="white">
      <circle r="31" clip-path="url(#clipPath2)" cx="504" cy="593" stroke="none"/>
    </g>
    <g text-rendering="geometricPrecision" stroke-miterlimit="1.45" shape-rendering="geometricPrecision" transform="matrix(1,0,0,1,-308,-184)" stroke-linecap="butt">
      <circle fill="none" r="31" clip-path="url(#clipPath2)" cx="504" cy="593"/>
      <text x="479.9824" xml:space="preserve" y="597.5352" clip-path="url(#clipPath2)" font-family="sans-serif" stroke="none">Kenneth</text>
    </g>
    <g fill="white" text-rendering="geometricPrecision" shape-rendering="geometricPrecision" transform="matrix(1,0,0,1,-308,-184)" stroke="white">
      <circle r="31" clip-path="url(#clipPath2)" cx="682" cy="593" stroke="none"/>
    </g>
    <g text-rendering="geometricPrecision" stroke-miterlimit="1.45" shape-rendering="geometricPrecision" transform="matrix(1,0,0,1,-308,-184)" stroke-linecap="butt">
      <circle fill="none" r="31" clip-path="url(#clipPath2)" cx="682" cy="593"/>
      <text x="664.1904" xml:space="preserve" y="597.5352" clip-path="url(#clipPath2)" font-family="sans-serif" stroke="none">Pascal</text>
    </g>
    <g fill="white" text-rendering="geometricPrecision" shape-rendering="geometricPrecision" transform="matrix(1,0,0,1,-308,-184)" stroke="white">
      <circle r="31" clip-path="url(#clipPath2)" cx="756" cy="353" stroke="none"/>
    </g>
    <g text-rendering="geometricPrecision" stroke-miterlimit="1.45" shape-rendering="geometricPrecision" transform="matrix(1,0,0,1,-308,-184)" stroke-linecap="butt">
      <circle fill="none" r="31" clip-path="url(#clipPath2)" cx="756" cy="353"/>
      <text x="735.8818" xml:space="preserve" y="357.5352" clip-path="url(#clipPath2)" font-family="sans-serif" stroke="none">Roman</text>
    </g>
    <g fill="white" text-rendering="geometricPrecision" shape-rendering="geometricPrecision" transform="matrix(1,0,0,1,-308,-184)" stroke="white">
      <circle r="31" clip-path="url(#clipPath2)" cx="706" cy="482" stroke="none"/>
    </g>
    <g text-rendering="geometricPrecision" stroke-miterlimit="1.45" shape-rendering="geometricPrecision" transform="matrix(1,0,0,1,-308,-184)" stroke-linecap="butt">
      <circle fill="none" r="31" clip-path="url(#clipPath2)" cx="706" cy="482"/>
      <text x="686.2041" xml:space="preserve" y="486.5352" clip-path="url(#clipPath2)" font-family="sans-serif" stroke="none">Philipp</text>
    </g>
    <g fill="white" text-rendering="geometricPrecision" shape-rendering="geometricPrecision" transform="matrix(1,0,0,1,-308,-184)" stroke="white">
      <circle r="31" clip-path="url(#clipPath2)" cx="837" cy="482" stroke="none"/>
    </g>
    <g text-rendering="geometricPrecision" stroke-miterlimit="1.45" shape-rendering="geometricPrecision" transform="matrix(1,0,0,1,-308,-184)" stroke-linecap="butt">
      <circle fill="none" r="31" clip-path="url(#clipPath2)" cx="837" cy="482"/>
      <text x="808.5352" xml:space="preserve" y="486.5352" clip-path="url(#clipPath2)" font-family="sans-serif" stroke="none">Samantha</text>
    </g>
    <g fill="white" text-rendering="geometricPrecision" shape-rendering="geometricPrecision" transform="matrix(1,0,0,1,-308,-184)" stroke="white">
      <circle r="31" clip-path="url(#clipPath2)" cx="870" cy="593" stroke="none"/>
    </g>
    <g text-rendering="geometricPrecision" stroke-miterlimit="1.45" shape-rendering="geometricPrecision" transform="matrix(1,0,0,1,-308,-184)" stroke-linecap="butt">
      <circle fill="none" r="31" clip-path="url(#clipPath2)" cx="870" cy="593"/>
      <text x="848.2354" xml:space="preserve" y="597.5352" clip-path="url(#clipPath2)" font-family="sans-serif" stroke="none">Vincent</text>
      <path fill="none" d="M579.2 248.6 L471.2 329.6" clip-path="url(#clipPath2)"/>
      <path d="M464.8 334.4 L477.4 331.2 L472 329 L471.4 323.2 Z" clip-path="url(#clipPath2)" stroke="none"/>
      <path fill="none" d="M424.5748 379.8898 L385.4059 448.1708" clip-path="url(#clipPath2)"/>
      <path d="M381.4252 455.1101 L391.7333 447.1891 L385.9035 447.3034 L383.0591 442.2132 Z" clip-path="url(#clipPath2)" stroke="none"/>
      <path fill="none" d="M362.6681 512.8204 L358.1918 554.226" clip-path="url(#clipPath2)"/>
      <path d="M357.3319 562.1796 L363.5928 550.7866 L358.2993 553.2318 L353.6507 549.7117 Z" clip-path="url(#clipPath2)" stroke="none"/>
      <path fill="none" d="M452.5291 381.3553 L481.2376 446.3272" clip-path="url(#clipPath2)"/>
      <path d="M484.4709 453.6447 L484.1944 440.6476 L480.8335 445.4125 L475.0475 444.6893 Z" clip-path="url(#clipPath2)" stroke="none"/>
      <path fill="none" d="M498.9511 512.9385 L501.5454 554.0773" clip-path="url(#clipPath2)"/>
      <path d="M502.0489 562.0615 L506.2838 549.7706 L501.4825 553.0793 L496.3036 550.4 Z" clip-path="url(#clipPath2)" stroke="none"/>
      <path fill="none" d="M628.0983 249.5006 L725.6828 328.467" clip-path="url(#clipPath2)"/>
      <path d="M731.9017 333.4994 L725.7186 322.064 L724.9055 327.838 L719.4281 329.8376 Z" clip-path="url(#clipPath2)" stroke="none"/>
      <path fill="none" d="M744.7966 381.9048 L720.0946 445.636" clip-path="url(#clipPath2)"/>
      <path d="M717.2034 453.0952 L726.2023 443.7133 L720.456 444.7036 L716.8782 440.0993 Z" clip-path="url(#clipPath2)" stroke="none"/>
      <path fill="none" d="M699.4487 512.2999 L690.242 554.8809" clip-path="url(#clipPath2)"/>
      <path d="M688.5513 562.7002 L695.9744 552.0279 L690.4534 553.9034 L686.2003 549.9146 Z" clip-path="url(#clipPath2)" stroke="none"/>
      <path fill="none" d="M772.4848 379.2536 L816.261 448.9713" clip-path="url(#clipPath2)"/>
      <path d="M820.5152 455.7464 L818.3684 442.9249 L815.7292 448.1244 L809.8995 448.2426 Z" clip-path="url(#clipPath2)" stroke="none"/>
      <path fill="none" d="M845.8341 511.7146 L858.8862 555.6171" clip-path="url(#clipPath2)"/>
      <path d="M861.1659 563.2854 L862.539 550.3581 L858.6012 554.6586 L852.9536 553.2078 Z" clip-path="url(#clipPath2)" stroke="none"/>
    </g>
  </g>
</svg>
