<?xml version="1.0" encoding="UTF-8" standalone="no"?>
<!DOCTYPE svg PUBLIC "-//W3C//DTD SVG 1.1//EN" "http://www.w3.org/Graphics/SVG/1.1/DTD/svg11.dtd">
<svg width="528px" height="272px" version="1.1" xmlns="http://www.w3.org/2000/svg" xmlns:xlink="http://www.w3.org/1999/xlink" xml:space="preserve" xmlns:serif="http://www.serif.com/" style="fill-rule:evenodd;clip-rule:evenodd;stroke-linecap:round;stroke-linejoin:round;stroke-miterlimit:1.5;">
    <rect x="16" y="159" width="496" height="96" style="fill:rgb(165,214,167);stroke:black;stroke-width:2px;"/>
    <path d="M466.5,112L471,103L475.5,112L471,107.5L466.5,112Z"/>
    <path d="M471,190L471,107.5" style="fill:none;stroke:black;stroke-width:2px;"/>
    <path d="M438,202.5L447,207L438,211.5L442.5,207L438,202.5Z"/>
    <path d="M97,207L442.5,207" style="fill:none;stroke:black;stroke-width:2px;"/>
    <path d="M61.5,167.299L57,176.299L52.5,167.299L57,171.799L61.5,167.299Z"/>
    <path d="M57,103L57,171.799" style="fill:none;stroke:black;stroke-width:2px;"/>
    <text x="336.895px" y="30.506px" style="font-family:'ArialMT', 'Arial', sans-serif;font-size:20px;">Empfänger</text>
    <text x="213.899px" y="85.561px" style="font-family:'ArialMT', 'Arial', sans-serif;font-size:20px;">Information</text>
    <text x="69.796px" y="136px" style="font-family:'ArialMT', 'Arial', sans-serif;font-size:20px;">Codierung</text>
    <text x="237.232px" y="197.041px" style="font-family:'ArialMT', 'Arial', sans-serif;font-size:20px;">Daten</text>
    <text x="184.84px" y="246.561px" style="font-family:'ArialMT', 'Arial', sans-serif;font-size:20px;">Informationskanal</text>
    <text x="345.457px" y="131.791px" style="font-family:'ArialMT', 'Arial', sans-serif;font-size:20px;">Decodierung</text>
    <path d="M406,57.5L415,62L406,66.5L410.5,62L406,57.5Z"/>
    <path d="M112,62L410.5,62" style="fill:none;stroke:black;stroke-width:2px;stroke-dasharray:2,2;"/>
    <text x="99.102px" y="30.506px" style="font-family:'ArialMT', 'Arial', sans-serif;font-size:20px;">Sender</text>
    <g>
        <path d="M94.822,54.356C94.822,75.57 77.625,92.767 56.411,92.767C35.197,92.767 18,75.57 18,54.356C18,33.142 35.197,15.945 56.411,15.945C77.625,15.945 94.822,33.142 94.822,54.356" style="fill:white;fill-rule:nonzero;"/>
        <path d="M94.822,54.356C94.822,33.157 77.611,15.945 56.411,15.945C35.211,15.945 18,33.157 18,54.356C18,75.556 35.211,92.767 56.411,92.767C77.611,92.767 94.822,75.556 94.822,54.356Z" style="fill:none;stroke:rgb(30,28,26);stroke-width:2.18px;stroke-linecap:butt;stroke-linejoin:miter;stroke-miterlimit:10;"/>
        <path d="M49.309,70.574C52.988,79.19 62.199,85.126 71.565,84.916" style="fill:white;fill-rule:nonzero;"/>
        <path d="M48.531,71.029C52.458,79.972 61.814,85.936 71.565,85.818C72.725,85.804 72.728,84 71.565,84.015C62.388,84.126 53.772,78.509 50.088,70.119C49.622,69.059 48.068,69.976 48.531,71.029" style="fill:rgb(30,28,26);fill-rule:nonzero;"/>
        <path d="M70.758,33.17C74.562,45.626 72.483,59.744 65.25,70.574" style="fill:white;fill-rule:nonzero;"/>
        <path d="M69.889,33.41C73.581,45.755 71.563,59.364 64.471,70.119C63.83,71.091 65.391,71.995 66.028,71.029C73.371,59.895 75.448,45.706 71.628,32.93C71.296,31.821 69.555,32.294 69.889,33.41" style="fill:rgb(30,28,26);fill-rule:nonzero;"/>
        <path d="M79.155,34.168C83.388,45.696 82.017,59.14 75.543,69.577" style="fill:white;fill-rule:nonzero;"/>
        <path d="M78.285,34.407C82.398,45.833 81.102,58.757 74.765,69.122C74.158,70.115 75.717,71.022 76.322,70.032C82.89,59.29 84.29,45.779 80.024,33.928C79.634,32.844 77.891,33.312 78.285,34.407" style="fill:rgb(30,28,26);fill-rule:nonzero;"/>
    </g>
    <g>
        <path d="M58.854,223.572C57.985,223.834 57.049,223.63 56.18,223.367C54.233,222.777 52.352,221.881 50.824,220.536C49.297,219.192 48.141,217.372 47.813,215.364C47.294,212.178 49.105,208.755 52.03,207.391C53.901,206.519 56.034,206.459 58.098,206.445" style="fill:white;fill-rule:nonzero;"/>
        <path d="M58.614,222.703C56.295,223.162 53.153,221.385 51.462,219.899C49.814,218.452 48.563,216.36 48.628,214.11C48.687,212.053 49.732,210.021 51.4,208.803C53.322,207.401 55.819,207.368 58.098,207.347C59.258,207.336 59.261,205.533 58.098,205.544C55.164,205.571 52.141,205.786 49.814,207.776C47.898,209.414 46.729,212.002 46.828,214.529C46.936,217.281 48.477,219.79 50.576,221.501C52.768,223.289 56.207,225.013 59.094,224.442C60.231,224.217 59.75,222.478 58.614,222.703" style="fill:rgb(30,28,26);fill-rule:nonzero;"/>
        <path d="M49.564,208.332C48.366,206.534 47.25,204.683 46.219,202.784C44.781,200.135 43.48,197.062 44.385,194.186C44.682,193.239 45.285,192.309 46.221,191.979C47.096,191.671 48.096,191.96 48.841,192.513C49.587,193.066 50.122,193.851 50.615,194.637C52.758,198.058 54.374,201.809 55.385,205.717" style="fill:white;fill-rule:nonzero;"/>
        <path d="M50.342,207.877C48.864,205.639 47.401,203.323 46.261,200.89C45.652,199.592 45.119,198.202 45.008,196.759C44.914,195.544 45.082,193.598 46.295,192.934C48.706,191.615 50.88,196.784 51.644,198.303C52.876,200.749 53.812,203.312 54.515,205.957C54.814,207.078 56.553,206.602 56.254,205.478C55.332,202.008 53.989,198.656 52.205,195.537C50.951,193.345 48.827,189.928 45.766,191.201C42.942,192.375 42.897,196.335 43.557,198.809C44.512,202.393 46.762,205.726 48.785,208.787C49.422,209.751 50.984,208.849 50.342,207.877" style="fill:rgb(30,28,26);fill-rule:nonzero;"/>
        <path d="M57.618,205.733C57.307,202.548 57.561,199.308 58.367,196.212C58.939,194.014 59.914,191.733 61.868,190.574C62.043,190.47 62.231,190.374 62.434,190.352C62.988,190.294 63.44,190.787 63.713,191.272C65.037,193.623 64.491,196.54 63.908,199.175L62.509,205.497C62.364,206.152 62.159,206.889 61.562,207.196" style="fill:white;fill-rule:nonzero;"/>
        <path d="M58.52,205.733C58.28,202.991 58.393,200.245 58.975,197.55C59.231,196.367 59.542,195.165 60.063,194.066C60.383,193.39 61.419,191.4 62.323,191.352C63.58,191.287 63.645,194.451 63.624,195.117C63.584,196.409 63.313,197.676 63.039,198.935C62.747,200.277 62.445,201.618 62.149,202.959C61.947,203.868 61.9,205.833 61.107,206.417C60.183,207.099 61.082,208.664 62.018,207.974C63.31,207.021 63.432,205.497 63.76,204.013C64.191,202.065 64.662,200.121 65.04,198.162C65.344,196.59 65.566,194.972 65.332,193.376C65.143,192.091 64.619,190.199 63.284,189.625C60.835,188.571 58.721,192.465 58.052,194.219C56.677,197.824 56.383,201.92 56.717,205.733C56.817,206.88 58.621,206.891 58.52,205.733" style="fill:rgb(30,28,26);fill-rule:nonzero;"/>
        <path d="M54.772,213.576C56.433,213.64 58.055,214.406 59.161,215.647" style="fill:white;fill-rule:nonzero;"/>
        <path d="M54.772,214.477C56.242,214.569 57.524,215.214 58.524,216.284C59.318,217.134 60.591,215.857 59.799,215.009C58.471,213.587 56.707,212.794 54.772,212.674C53.613,212.602 53.617,214.406 54.772,214.477" style="fill:rgb(30,28,26);fill-rule:nonzero;"/>
        <path d="M62.381,213.113C62.076,214.153 61.994,215.378 62.671,216.225C63.618,217.412 65.609,217.182 66.731,216.16C67.853,215.137 68.329,213.604 68.758,212.147C68.931,211.562 69.103,210.977 69.275,210.391C69.582,209.35 69.891,208.291 69.896,207.205C69.9,206.12 69.653,204.86 68.747,204.262C66.134,202.537 63.784,202.656 62.381,213.113" style="fill:white;fill-rule:nonzero;"/>
        <path d="M61.512,212.873C61.043,214.72 61.231,216.996 63.307,217.729C65.036,218.34 66.892,217.504 67.969,216.127C69.36,214.35 69.905,211.733 70.441,209.583C70.911,207.7 71.153,205.184 69.539,203.751C68.249,202.607 66.261,202.045 64.808,203.187C62.235,205.209 61.915,209.956 61.512,212.873C61.355,214.008 63.092,214.499 63.251,213.353C63.596,210.854 63.908,208.053 65.074,205.772C65.526,204.885 66.093,204.116 67.156,204.439C69.975,205.297 68.816,208.759 68.212,210.81C67.783,212.268 67.459,214.038 66.411,215.201C65.89,215.779 64.954,216.31 64.135,216.094C62.889,215.764 62.997,214.352 63.251,213.353C63.536,212.228 61.797,211.747 61.512,212.873" style="fill:rgb(30,28,26);fill-rule:nonzero;"/>
        <path d="M58.474,223.581C60.335,223.938 62.289,223.176 63.696,221.908C65.104,220.639 66.985,217.417 67.661,215.647" style="fill:white;fill-rule:nonzero;"/>
        <path d="M58.234,224.451C63.564,225.208 66.795,220.221 68.531,215.886C68.962,214.809 67.219,214.341 66.792,215.407C65.49,218.659 62.846,223.299 58.714,222.712C57.578,222.55 57.088,224.288 58.234,224.451" style="fill:rgb(30,28,26);fill-rule:nonzero;"/>
        <path d="M57.662,206.77C59.439,206.71 61.227,206.973 62.912,207.541C64.434,208.055 66.016,208.988 66.427,210.541C66.535,210.951 66.545,211.415 66.317,211.772C66.189,211.972 65.998,212.122 65.797,212.247C64.636,212.966 63.176,212.908 61.809,212.901C60.443,212.894 58.941,213.017 57.965,213.973" style="fill:white;fill-rule:nonzero;"/>
        <path d="M57.662,207.671C59.363,207.645 61.06,207.843 62.672,208.411C63.674,208.763 66.774,210.413 65.042,211.609C63.918,212.386 61.944,211.927 60.654,212.042C59.376,212.155 58.314,212.507 57.327,213.336C56.437,214.082 57.718,215.352 58.602,214.61C60.515,213.005 68.539,215.054 67.296,210.302C66.313,206.541 60.835,205.818 57.662,205.868C56.503,205.886 56.499,207.69 57.662,207.671" style="fill:rgb(30,28,26);fill-rule:nonzero;"/>
    </g>
    <g>
        <path d="M472.854,230.126C471.985,230.388 471.049,230.183 470.18,229.92C468.233,229.331 466.352,228.434 464.824,227.09C463.297,225.745 462.141,223.925 461.813,221.917C461.294,218.732 463.105,215.308 466.03,213.945C467.901,213.073 470.034,213.012 472.098,212.999" style="fill:white;fill-rule:nonzero;"/>
        <path d="M472.614,229.256C470.295,229.715 467.153,227.938 465.462,226.452C463.814,225.006 462.563,222.913 462.628,220.663C462.687,218.606 463.732,216.574 465.4,215.357C467.322,213.954 469.819,213.922 472.098,213.9C473.258,213.889 473.261,212.086 472.098,212.097C469.164,212.124 466.141,212.339 463.814,214.329C461.898,215.967 460.729,218.555 460.828,221.082C460.936,223.835 462.477,226.343 464.576,228.054C466.768,229.842 470.207,231.566 473.094,230.995C474.231,230.77 473.75,229.031 472.614,229.256" style="fill:rgb(30,28,26);fill-rule:nonzero;"/>
        <path d="M463.564,214.885C462.366,213.088 461.25,211.236 460.219,209.337C458.781,206.688 457.48,203.615 458.385,200.74C458.682,199.792 459.285,198.862 460.221,198.532C461.096,198.224 462.096,198.513 462.841,199.066C463.587,199.619 464.122,200.404 464.615,201.191C466.758,204.611 468.374,208.362 469.385,212.27" style="fill:white;fill-rule:nonzero;"/>
        <path d="M464.342,214.43C462.864,212.192 461.401,209.876 460.261,207.443C459.652,206.145 459.119,204.755 459.008,203.312C458.914,202.097 459.082,200.151 460.295,199.487C462.706,198.168 464.88,203.337 465.644,204.856C466.876,207.302 467.812,209.865 468.515,212.51C468.814,213.631 470.553,213.155 470.254,212.031C469.332,208.561 467.989,205.209 466.205,202.09C464.951,199.898 462.827,196.481 459.766,197.754C456.942,198.928 456.897,202.888 457.557,205.363C458.512,208.946 460.762,212.279 462.785,215.34C463.422,216.304 464.984,215.402 464.342,214.43" style="fill:rgb(30,28,26);fill-rule:nonzero;"/>
        <path d="M471.618,212.286C471.307,209.101 471.561,205.862 472.367,202.765C472.939,200.567 473.914,198.286 475.868,197.127C476.043,197.023 476.231,196.927 476.434,196.906C476.988,196.848 477.44,197.34 477.713,197.825C479.037,200.177 478.491,203.093 477.908,205.728L476.509,212.051C476.364,212.706 476.159,213.442 475.562,213.749" style="fill:white;fill-rule:nonzero;"/>
        <path d="M472.52,212.286C472.28,209.544 472.393,206.798 472.975,204.103C473.231,202.92 473.542,201.718 474.063,200.62C474.383,199.944 475.419,197.953 476.323,197.906C477.58,197.84 477.645,201.004 477.624,201.67C477.584,202.962 477.313,204.23 477.039,205.488C476.747,206.831 476.445,208.171 476.149,209.512C475.947,210.422 475.9,212.386 475.107,212.97C474.183,213.652 475.082,215.218 476.018,214.527C477.31,213.574 477.432,212.05 477.76,210.566C478.191,208.618 478.662,206.674 479.04,204.715C479.344,203.144 479.566,201.525 479.332,199.93C479.143,198.644 478.619,196.752 477.284,196.178C474.835,195.124 472.721,199.018 472.052,200.772C470.677,204.377 470.383,208.473 470.717,212.286C470.817,213.433 472.621,213.444 472.52,212.286" style="fill:rgb(30,28,26);fill-rule:nonzero;"/>
        <path d="M468.772,220.129C470.433,220.194 472.055,220.959 473.161,222.2" style="fill:white;fill-rule:nonzero;"/>
        <path d="M468.772,221.031C470.242,221.122 471.524,221.767 472.524,222.837C473.318,223.688 474.591,222.41 473.799,221.563C472.471,220.14 470.707,219.348 468.772,219.227C467.613,219.155 467.617,220.959 468.772,221.031" style="fill:rgb(30,28,26);fill-rule:nonzero;"/>
        <path d="M476.381,219.666C476.076,220.706 475.994,221.931 476.671,222.778C477.618,223.965 479.609,223.736 480.731,222.713C481.853,221.69 482.329,220.157 482.758,218.7C482.931,218.115 483.103,217.53 483.275,216.944C483.582,215.903 483.891,214.844 483.896,213.759C483.9,212.673 483.653,211.413 482.747,210.815C480.134,209.091 477.784,209.209 476.381,219.666" style="fill:white;fill-rule:nonzero;"/>
        <path d="M475.512,219.426C475.043,221.273 475.231,223.549 477.307,224.282C479.036,224.893 480.892,224.057 481.969,222.68C483.36,220.903 483.905,218.286 484.441,216.136C484.911,214.253 485.153,211.737 483.539,210.304C482.249,209.16 480.261,208.598 478.808,209.74C476.235,211.762 475.915,216.509 475.512,219.426C475.355,220.561 477.092,221.052 477.251,219.906C477.596,217.408 477.908,214.606 479.074,212.325C479.526,211.438 480.093,210.669 481.156,210.992C483.975,211.851 482.816,215.312 482.212,217.363C481.783,218.821 481.459,220.591 480.411,221.754C479.89,222.332 478.954,222.864 478.135,222.647C476.889,222.317 476.997,220.905 477.251,219.906C477.536,218.781 475.797,218.301 475.512,219.426" style="fill:rgb(30,28,26);fill-rule:nonzero;"/>
        <path d="M472.474,230.134C474.335,230.491 476.289,229.73 477.696,228.461C479.104,227.192 480.985,223.97 481.661,222.2" style="fill:white;fill-rule:nonzero;"/>
        <path d="M472.234,231.004C477.564,231.761 480.795,226.774 482.531,222.439C482.962,221.362 481.219,220.894 480.792,221.96C479.49,225.212 476.846,229.852 472.714,229.265C471.578,229.104 471.088,230.841 472.234,231.004" style="fill:rgb(30,28,26);fill-rule:nonzero;"/>
        <path d="M471.662,213.323C473.439,213.263 475.227,213.526 476.912,214.094C478.434,214.608 480.016,215.542 480.427,217.095C480.535,217.504 480.545,217.968 480.317,218.325C480.189,218.525 479.998,218.675 479.797,218.8C478.636,219.519 477.176,219.461 475.809,219.454C474.443,219.447 472.941,219.57 471.965,220.526" style="fill:white;fill-rule:nonzero;"/>
        <path d="M471.662,214.225C473.363,214.198 475.06,214.396 476.672,214.964C477.674,215.316 480.774,216.966 479.042,218.162C477.918,218.939 475.944,218.48 474.654,218.595C473.376,218.708 472.314,219.06 471.327,219.889C470.437,220.635 471.718,221.906 472.602,221.164C474.515,219.558 482.539,221.607 481.296,216.855C480.313,213.094 474.835,212.372 471.662,212.421C470.503,212.439 470.499,214.243 471.662,214.225" style="fill:rgb(30,28,26);fill-rule:nonzero;"/>
    </g>
    <g>
        <path d="M435,54.356C435,75.57 452.197,92.768 473.411,92.768C494.625,92.768 511.822,75.57 511.822,54.356C511.822,33.142 494.625,15.945 473.411,15.945C452.197,15.945 435,33.142 435,54.356" style="fill:white;fill-rule:nonzero;"/>
        <g>
            <path d="M435,54.356C435,75.556 452.211,92.768 473.411,92.768C494.611,92.768 511.822,75.556 511.822,54.356C511.822,33.157 494.611,15.945 473.411,15.945C452.211,15.945 435,33.157 435,54.356Z" style="fill:none;stroke:rgb(30,28,26);stroke-width:2.18px;stroke-linecap:butt;stroke-linejoin:miter;stroke-miterlimit:10;"/>
        </g>
        <path d="M458.334,75.03C461.931,70.293 467.882,67.959 473.714,66.787" style="fill:white;fill-rule:nonzero;"/>
        <path d="M458.971,75.668C462.642,70.979 468.286,68.825 473.954,67.657C475.089,67.423 474.609,65.684 473.474,65.918C467.54,67.141 461.537,69.487 457.696,74.392C456.989,75.296 458.256,76.581 458.971,75.668" style="fill:rgb(30,28,26);fill-rule:nonzero;"/>
        <path d="M458.689,26.822C455.369,31.464 452.65,36.593 451.196,42.112C449.742,47.631 449.596,53.562 451.294,59.011" style="fill:white;fill-rule:nonzero;"/>
        <path d="M457.911,26.367C451.189,35.845 446.959,47.696 450.424,59.25C450.756,60.359 452.498,59.887 452.163,58.771C448.83,47.655 453.017,36.373 459.468,27.277C460.141,26.328 458.578,25.427 457.911,26.367" style="fill:rgb(30,28,26);fill-rule:nonzero;"/>
        <path d="M470.85,24.936C463.118,33.54 460.323,46.299 463.749,57.347" style="fill:white;fill-rule:nonzero;"/>
        <path d="M470.212,24.299C462.273,33.267 459.413,46.108 462.88,57.587C463.214,58.695 464.955,58.223 464.619,57.107C461.343,46.262 463.969,34.066 471.487,25.574C472.254,24.708 470.983,23.428 470.212,24.299" style="fill:rgb(30,28,26);fill-rule:nonzero;"/>
    </g>
    <g>
        <path d="M252.321,45.41C251.43,45.125 250.484,45.652 249.835,46.27C249.186,46.889 248.635,47.644 247.785,48.003C247.147,48.273 246.363,48.306 245.867,48.764C245.371,49.222 245.341,49.99 245.632,50.588C245.922,51.185 246.473,51.642 247.043,52.034C248.559,53.074 250.303,53.784 252.04,54.459C254.057,55.243 256.104,55.998 258.247,56.381C259.269,56.563 260.336,56.659 261.334,56.408C262.332,56.158 263.256,55.507 263.551,54.591C263.771,53.91 263.591,53.099 263.013,52.618C262.806,52.446 262.545,52.304 262.447,52.064C262.276,51.647 262.689,51.246 262.846,50.827C263.024,50.354 262.865,49.829 262.683,49.353C262.522,48.931 262.327,48.494 261.947,48.215C261.656,48.001 261.288,47.904 260.925,47.835C259.31,47.529 257.617,47.701 256.027,47.294C254.684,46.949 253.5,46.212 252.343,45.487" style="fill:rgb(251,213,36);fill-rule:nonzero;"/>
        <path d="M253.159,12.601L252.072,16.606C251.103,20.179 250.126,23.82 250.336,27.502C250.547,31.184 252.133,34.983 255.353,37.081C256.216,37.643 257.171,38.07 258.148,38.432C258.955,38.732 259.783,38.99 260.639,39.121C264.189,39.665 267.795,37.917 270.19,35.39C272.585,32.864 273.977,29.649 275.207,26.466C276.298,23.643 277.37,21.16 278.129,18.242C270.889,13.669 262.019,11.651 253.291,12.59" style="fill:rgb(251,213,36);fill-rule:nonzero;"/>
        <path d="M252.866,12.52C250.865,19.894 247.217,29.817 253.663,36.114C256.357,38.747 260.752,40.146 264.428,39.205C268.199,38.24 271.06,35.415 272.96,32.124C274.101,30.148 274.924,28.02 275.752,25.902C276.729,23.403 277.733,20.92 278.423,18.323C278.458,18.189 278.398,18.051 278.283,17.979C270.861,13.335 261.984,11.385 253.291,12.286C252.905,12.326 252.901,12.936 253.291,12.895C261.887,12.005 270.635,13.912 277.975,18.505C277.928,18.39 277.882,18.276 277.835,18.161C277.305,20.156 276.598,22.088 275.845,24.009C275.104,25.902 274.403,27.819 273.544,29.663C271.937,33.117 269.646,36.338 266.091,37.97C262.414,39.658 258.031,38.828 254.875,36.364C252.085,34.186 250.755,30.613 250.625,27.157C250.439,22.24 252.181,17.368 253.453,12.681C253.556,12.303 252.968,12.141 252.866,12.52" style="fill:rgb(30,28,26);fill-rule:nonzero;"/>
        <path d="M248.962,17.541C249.765,17.905 250.777,17.648 251.426,17.073C252.074,16.498 252.403,15.663 252.531,14.833C252.711,13.666 252.453,12.323 251.442,11.626C251.058,11.362 250.599,11.213 250.14,11.096C249.38,10.902 248.587,10.785 247.804,10.868C246.078,11.049 244.576,12.222 243.806,13.689C243.037,15.156 242.935,16.873 243.234,18.485C243.389,19.324 243.65,20.149 244.052,20.912C245.371,23.417 248.096,25.08 249.351,27.613C249.525,27.964 249.671,28.344 249.637,28.73C249.602,29.116 249.343,29.508 248.945,29.603C248.546,29.699 248.065,29.38 248.12,28.996C247.907,28.988 247.694,28.98 247.481,28.972L247.463,29.02C247.256,29.802 248.306,30.508 249.115,30.243C249.924,29.979 250.34,29.079 250.261,28.276C250.182,27.473 249.721,26.752 249.236,26.087C248.192,24.654 246.987,23.327 245.99,21.865C244.994,20.402 244.2,18.761 244.106,17.025C244.013,15.289 244.722,13.448 246.232,12.449C247.742,11.45 250.074,11.549 251.241,12.895C251.487,13.179 251.679,13.51 251.763,13.868C251.902,14.47 251.723,15.111 251.384,15.639C250.97,16.282 250.033,16.801 249.404,16.338L249.326,16.382C249.176,16.748 249.025,17.114 248.874,17.481" style="fill:rgb(251,213,36);fill-rule:nonzero;"/>
        <path d="M248.881,17.834C251.176,18.681 252.799,16.376 252.885,14.324C252.994,11.7 250.838,10.6 248.477,10.538C246.153,10.477 244.089,12.043 243.255,14.169C242.304,16.595 242.784,19.599 244.194,21.75C244.949,22.9 245.944,23.865 246.885,24.86C247.39,25.394 247.887,25.938 248.325,26.53C248.535,26.813 248.728,27.109 248.901,27.417C248.966,27.532 249.032,27.648 249.088,27.767C249.275,28.034 249.33,28.322 249.254,28.631C249.352,29.165 249.076,29.286 248.425,28.996C248.412,28.827 248.296,28.698 248.12,28.691C247.907,28.683 247.694,28.675 247.481,28.667C247.338,28.662 247.233,28.767 247.187,28.891C246.943,29.547 247.482,30.204 248.055,30.453C248.77,30.764 249.556,30.542 250.052,29.953C251.556,28.167 249.533,25.929 248.437,24.552C246.649,22.305 244.426,19.813 244.403,16.764C244.383,14.063 246.623,11.455 249.488,12.202C250.153,12.375 250.778,12.726 251.163,13.309C251.747,14.194 251.492,15.492 250.535,16.033C250.066,16.299 249.63,15.878 249.211,16.097C248.86,16.28 248.718,17.065 248.581,17.4C248.432,17.762 249.021,17.92 249.168,17.562C249.242,17.382 249.389,16.776 249.513,16.68C249.539,16.66 249.366,16.731 249.625,16.77C250.024,16.831 250.369,16.799 250.736,16.613C251.546,16.203 252.077,15.291 252.113,14.39C252.196,12.303 249.769,11.313 248.022,11.507C245.937,11.739 244.402,13.381 243.945,15.379C243.379,17.856 244.519,20.307 245.917,22.291C246.906,23.695 248.071,24.965 249.063,26.367C249.56,27.069 250.135,27.957 249.923,28.859C249.828,29.265 249.612,29.605 249.252,29.817C248.811,30.077 247.471,29.869 247.775,29.052C247.677,29.127 247.579,29.202 247.481,29.276C247.694,29.284 247.907,29.292 248.12,29.301C248.019,29.199 247.917,29.097 247.815,28.996C247.876,29.777 248.723,30.176 249.382,29.728C250.452,29 249.745,27.595 249.225,26.768C247.628,24.229 244.828,22.585 243.844,19.646C242.764,16.42 243.679,11.826 247.615,11.198C249.542,10.891 252.067,11.573 252.266,13.809C252.425,15.602 251.169,18.031 249.043,17.247C248.675,17.111 248.516,17.7 248.881,17.834" style="fill:rgb(30,28,26);fill-rule:nonzero;"/>
        <path d="M278.708,25.768C277.824,25.666 277.119,24.934 276.903,24.12C276.688,23.306 276.89,22.437 277.258,21.673C277.777,20.599 278.764,19.601 280.015,19.529C280.489,19.502 280.961,19.61 281.414,19.746C282.165,19.97 282.9,20.275 283.511,20.743C284.859,21.774 285.45,23.526 285.256,25.152C285.061,26.777 284.161,28.274 282.985,29.478C282.373,30.105 281.68,30.667 280.904,31.104C278.358,32.54 275.11,32.552 272.601,34.044C272.253,34.251 271.912,34.496 271.719,34.839C271.527,35.181 271.52,35.642 271.801,35.926C272.081,36.209 272.669,36.185 272.843,35.834C273.027,35.936 273.211,36.038 273.395,36.139L273.382,36.189C273.108,36.953 271.82,37.012 271.291,36.378C270.761,35.744 270.928,34.774 271.455,34.139C271.982,33.503 272.784,33.132 273.573,32.819C275.274,32.144 277.049,31.642 278.727,30.918C280.405,30.195 282.015,29.219 283.089,27.806C284.164,26.393 284.623,24.483 283.926,22.874C283.229,21.264 281.21,20.161 279.456,20.699C279.086,20.812 278.735,20.993 278.459,21.252C277.995,21.688 277.779,22.318 277.761,22.935C277.74,23.687 278.231,24.601 279.026,24.531L279.066,24.607C278.983,24.992 278.899,25.377 278.816,25.762" style="fill:rgb(251,213,36);fill-rule:nonzero;"/>
        <path d="M278.789,25.474C276.94,25.138 276.882,23.102 277.581,21.712C278.268,20.344 279.537,19.589 281.059,19.962C283.841,20.644 285.574,23.056 284.795,25.918C284.061,28.618 281.656,30.686 279.084,31.572C276.857,32.338 274.366,32.559 272.343,33.846C271.688,34.263 270.987,35.019 271.388,35.854C271.702,36.509 272.611,36.611 273.059,36.05C272.935,36.066 272.812,36.081 272.689,36.097C272.873,36.199 273.057,36.301 273.241,36.402C273.194,36.288 273.148,36.173 273.101,36.058C273.007,36.429 272.491,36.526 272.179,36.489C271.732,36.438 271.478,36.177 271.344,35.762C271.027,34.78 271.927,33.973 272.692,33.552C274.041,32.81 275.606,32.414 277.05,31.896C279.42,31.045 281.917,29.956 283.434,27.846C284.678,26.116 285.073,23.583 283.64,21.838C282.425,20.358 279.949,19.612 278.354,20.947C277.553,21.616 277.217,22.876 277.637,23.845C277.798,24.216 278.077,24.592 278.47,24.741C278.527,24.763 278.879,24.876 278.8,24.777C278.721,24.677 278.549,25.556 278.522,25.681C278.439,26.063 279.026,26.227 279.11,25.843C279.203,25.413 279.508,24.791 279.289,24.377C279.239,24.282 279.13,24.228 279.026,24.226C277.84,24.201 277.946,22.516 278.384,21.822C278.939,20.942 280.13,20.735 281.079,20.941C282.641,21.28 283.814,22.6 283.941,24.192C284.23,27.793 280.561,29.908 277.693,31.011C276.191,31.588 274.639,32.034 273.156,32.662C272.049,33.132 270.838,33.863 270.683,35.178C270.584,36.019 271.007,36.839 271.862,37.06C272.544,37.236 273.495,36.988 273.689,36.22C273.721,36.092 273.668,35.942 273.549,35.876C273.365,35.775 273.181,35.673 272.997,35.571C272.89,35.512 272.712,35.513 272.628,35.619C272.811,35.389 271.611,35.298 272.228,34.686C272.349,34.566 272.508,34.465 272.651,34.372C272.928,34.191 273.228,34.04 273.528,33.901C274.215,33.582 274.941,33.354 275.669,33.15C277.048,32.764 278.46,32.483 279.797,31.957C282.099,31.05 284.144,29.209 285.099,26.899C285.96,24.813 285.697,22.245 283.933,20.696C282.283,19.248 279.533,18.559 277.86,20.28C276.291,21.895 275.733,25.535 278.627,26.061C279.01,26.131 279.175,25.544 278.789,25.474" style="fill:rgb(30,28,26);fill-rule:nonzero;"/>
        <path d="M245.649,48.902C245.393,50.206 245.08,51.499 244.71,52.778L244.743,52.887C246.378,54.899 248.985,55.955 251.5,56.854C253.293,57.495 255.113,58.102 257.004,58.404C258.895,58.705 260.876,58.691 262.691,58.106L262.728,58.186C263.327,56.746 263.757,55.244 264.007,53.716L262.873,52.495C263.483,52.569 263.899,53.208 263.816,53.782C263.732,54.356 263.252,54.829 262.692,55.069C262.132,55.309 261.5,55.352 260.885,55.346C257.861,55.32 254.971,54.247 252.163,53.19C251.051,52.771 249.939,52.352 248.849,51.884C247.952,51.499 247.061,51.075 246.308,50.474C246.057,50.275 245.814,50.042 245.727,49.744C245.589,49.277 245.891,48.769 246.329,48.514C246.767,48.26 247.306,48.216 247.82,48.243L248.495,46.316C248.357,47.148 248.152,47.971 247.882,48.774L247.989,48.763C248.61,49.795 249.754,50.436 250.872,50.982C251.893,51.482 252.936,51.941 253.998,52.36C255.357,52.896 256.76,53.368 258.222,53.535C259.685,53.702 261.221,53.545 262.515,52.882L262.555,52.617C262.807,51.698 262.979,50.76 263.067,49.814L261,48.155C260.126,48.761 258.995,48.977 257.912,48.905C256.829,48.835 255.785,48.497 254.792,48.083C253.689,47.624 252.614,47.054 251.78,46.233L251.82,46.151C254.541,44.25 256.459,41.356 257.075,38.218L261.209,39.242C259.9,41.951 259.854,45.177 261.086,47.918L261.061,47.753C261.852,47.912 262.126,48.019 262.654,48.596C262.96,48.93 263.206,49.357 263.142,49.794C263.099,50.086 262.92,50.349 262.689,50.548C261.912,51.218 260.718,51.155 259.677,51.006C257.032,50.625 254.435,49.949 251.959,48.995C250.845,48.566 249.734,48.067 248.867,47.281C248.712,47.14 248.56,46.982 248.506,46.786C248.361,46.26 248.958,45.828 249.495,45.631C250.533,45.252 251.676,45.131 252.778,45.283" style="fill:rgb(251,213,36);fill-rule:nonzero;"/>
        <path d="M245.355,48.821C245.116,50.019 244.818,51.197 244.508,52.377C244.334,53.036 244.588,53.225 245.085,53.717C246.438,55.057 248.184,55.902 249.934,56.594C253.948,58.181 258.469,59.704 262.772,58.4C262.657,58.353 262.542,58.307 262.428,58.26C262.44,58.287 262.453,58.313 262.465,58.34C262.589,58.605 262.935,58.482 263.022,58.267C263.357,57.443 263.65,56.605 263.881,55.745C264.023,55.216 264.458,54.171 264.301,53.635C264.162,53.156 263.423,52.64 263.088,52.279L262.792,52.789C263.623,52.99 263.69,53.88 263.128,54.427C262.697,54.847 262.079,54.978 261.502,55.026C260.669,55.095 259.793,55.011 258.969,54.892C257.312,54.651 255.703,54.15 254.129,53.591C252.584,53.043 251.042,52.467 249.527,51.841C248.753,51.522 247.973,51.192 247.256,50.758C246.871,50.526 246.281,50.222 246.082,49.802C245.529,48.635 247.3,48.536 247.82,48.547C247.961,48.55 248.069,48.449 248.113,48.324C248.339,47.681 248.564,47.039 248.789,46.397C248.593,46.343 248.398,46.289 248.202,46.235C248.054,47.071 247.851,47.886 247.588,48.693C247.532,48.868 247.688,49.099 247.882,49.079C247.819,49.086 248.449,49.802 248.585,49.921C248.964,50.252 249.384,50.529 249.821,50.777C250.925,51.406 252.109,51.914 253.282,52.397C255.611,53.358 258.119,54.205 260.668,53.789C261.379,53.672 262.592,53.517 262.839,52.767C263.007,52.255 263.102,51.682 263.194,51.151C263.256,50.789 263.49,50.084 263.361,49.733C263.24,49.406 262.706,49.136 262.45,48.93C262.039,48.6 261.627,48.27 261.216,47.939C261.112,47.856 260.969,47.814 260.847,47.892C258.174,49.594 254.113,48.004 251.995,46.017C252.011,46.14 252.027,46.263 252.043,46.386C252.14,46.188 252.54,45.999 252.717,45.857C253.084,45.562 253.436,45.248 253.769,44.917C254.35,44.339 254.876,43.705 255.343,43.032C256.332,41.606 257.015,39.997 257.369,38.299C257.244,38.37 257.119,38.441 256.994,38.512C258.372,38.853 259.75,39.194 261.128,39.535L260.946,39.088C259.611,41.96 259.569,45.164 260.823,48.071C260.971,48.416 261.426,48.146 261.379,47.837C261.371,47.782 261.363,47.727 261.355,47.672C261.23,47.797 261.105,47.922 260.98,48.047C261.609,48.179 262.488,48.487 262.713,49.19C263.166,50.604 261.451,50.842 260.478,50.787C258.654,50.683 256.783,50.202 255.033,49.702C253.357,49.223 251.593,48.685 250.087,47.792C249.773,47.605 249.174,47.327 249.007,46.992C248.897,46.772 249.096,46.217 249.305,46.055C249.491,45.911 249.785,45.853 250.007,45.786C250.909,45.514 251.847,45.48 252.778,45.587C253.167,45.632 253.163,45.023 252.778,44.978C251.818,44.868 247.044,45.129 248.373,47.186C248.955,48.086 250.313,48.644 251.249,49.036C252.58,49.594 253.96,50.047 255.352,50.423C256.759,50.804 258.192,51.106 259.636,51.305C260.627,51.441 261.756,51.531 262.64,50.964C263.379,50.49 263.654,49.671 263.239,48.882C262.798,48.044 262.025,47.645 261.142,47.459C260.897,47.408 260.732,47.601 260.767,47.834C260.776,47.889 260.784,47.944 260.792,47.999C260.977,47.92 261.163,47.842 261.349,47.764C260.19,45.077 260.24,42.048 261.472,39.396C261.552,39.224 261.496,38.999 261.29,38.948C259.912,38.607 258.534,38.266 257.156,37.924C257.004,37.887 256.816,37.972 256.782,38.137C256.428,39.832 255.743,41.427 254.737,42.839C254.238,43.542 253.664,44.19 253.034,44.778C252.612,45.171 251.765,45.574 251.517,46.079C251.458,46.198 251.462,46.351 251.565,46.448C253.882,48.623 258.233,50.279 261.154,48.418C261.031,48.402 260.908,48.386 260.785,48.37C261.366,48.837 262.239,49.308 262.686,49.896C262.858,50.122 262.803,50.016 262.694,50.402C262.542,50.936 262.512,51.531 262.38,52.075C262.266,52.545 262.328,52.696 261.866,52.842C261.282,53.026 260.733,53.191 260.119,53.252C257.976,53.467 255.884,52.786 253.92,52.003C252.023,51.246 249.429,50.398 248.252,48.609C248.197,48.526 248.097,48.447 247.989,48.459C247.954,48.462 247.918,48.466 247.882,48.47L248.176,48.855C248.438,48.048 248.642,47.233 248.789,46.397C248.857,46.013 248.333,45.861 248.202,46.235C247.976,46.877 247.751,47.52 247.526,48.162L247.82,47.938C246.912,47.919 245.823,48.108 245.474,49.081C245.14,50.016 245.983,50.657 246.675,51.113C247.774,51.838 249.046,52.311 250.266,52.79C251.596,53.312 252.934,53.822 254.283,54.29C256.661,55.117 259.646,56.096 262.192,55.543C263.038,55.359 263.966,54.793 264.109,53.863C264.231,53.069 263.71,52.384 262.954,52.201C262.655,52.129 262.449,52.486 262.657,52.71C262.946,53.02 263.692,53.633 263.716,53.938C263.73,54.105 263.508,54.711 263.455,54.938C263.38,55.261 263.296,55.584 263.204,55.903C262.99,56.652 262.728,57.384 262.434,58.105C262.62,58.081 262.806,58.057 262.991,58.033C262.979,58.006 262.966,57.979 262.954,57.952C262.898,57.835 262.73,57.776 262.61,57.812C258.663,59.009 254.622,57.692 250.906,56.315C249.232,55.695 247.527,54.982 246.133,53.841C245.827,53.591 245.463,53.307 245.23,52.986C244.976,52.635 245.108,52.5 245.227,52.058C245.501,51.042 245.736,50.016 245.942,48.983C246.019,48.6 245.432,48.436 245.355,48.821" style="fill:rgb(30,28,26);fill-rule:nonzero;"/>
    </g>
</svg>
