<?xml version="1.0" encoding="UTF-8" standalone="no"?>
<!DOCTYPE svg PUBLIC "-//W3C//DTD SVG 1.1//EN" "http://www.w3.org/Graphics/SVG/1.1/DTD/svg11.dtd">
<svg width="901px" height="361px" version="1.1" xmlns="http://www.w3.org/2000/svg" xmlns:xlink="http://www.w3.org/1999/xlink" xml:space="preserve" xmlns:serif="http://www.serif.com/" style="fill-rule:evenodd;clip-rule:evenodd;stroke-linejoin:round;stroke-miterlimit:10;">
    <rect x="0" y="0" width="901" height="361" style="fill:white;"/>
    <rect x="0" y="1" width="900" height="359" style="fill:white;"/>
    <path d="M42.5,306.5L889.5,306.5M42.5,272.5L889.5,272.5M42.5,238.5L889.5,238.5M42.5,204.5L889.5,204.5M42.5,170.5L889.5,170.5M42.5,136.5L889.5,136.5M42.5,102.5L889.5,102.5M42.5,68.5L889.5,68.5M42.5,34.5L889.5,34.5" style="fill:none;fill-rule:nonzero;stroke:rgb(217,217,217);stroke-width:0.75px;"/>
    <path d="M47,69L66,69L66,340L47,340L47,69ZM75,178L94,178L94,340L75,340L75,178ZM104,209L122,209L122,340L104,340L104,209ZM132,211L151,211L151,340L132,340L132,211ZM160,231L179,231L179,340L160,340L160,231ZM188,231L207,231L207,340L188,340L188,231ZM216,233L235,233L235,340L216,340L216,233ZM245,257L264,257L264,340L245,340L245,257ZM273,270L292,270L292,340L273,340L273,270ZM301,276L320,276L320,340L301,340L301,276ZM329,277L348,277L348,340L329,340L329,277ZM358,289L376,289L376,340L358,340L358,289ZM386,293L405,293L405,340L386,340L386,293ZM414,293L433,293L433,340L414,340L414,293ZM442,294L461,294L461,340L442,340L442,294ZM470,303L489,303L489,340L470,340L470,303ZM499,310L518,310L518,340L499,340L499,310ZM527,315L546,315L546,340L527,340L527,315ZM555,316L574,316L574,340L555,340L555,316ZM583,319L602,319L602,340L583,340L583,319ZM612,322L630,322L630,340L612,340L612,322ZM640,324L659,324L659,340L640,340L640,324ZM668,329L687,329L687,340L668,340L668,329ZM696,331L715,331L715,340L696,340L696,331ZM724,336L743,336L743,340L724,340L724,336ZM753,336L772,336L772,340L753,340L753,336ZM781,338L800,338L800,340L781,340L781,338ZM809,338L828,338L828,340L809,340L809,338ZM837,339L856,339L856,340L837,340L837,339ZM866,339L884,339L884,340L866,340L866,339Z" style="fill:rgb(68,114,196);fill-rule:nonzero;"/>
    <path d="M42.5,340.5L889.5,340.5" style="fill:none;fill-rule:nonzero;stroke:rgb(217,217,217);stroke-width:0.75px;"/>
    <g>
        <text x="44.542px" y="63px" style="font-family:'Helvetica';font-size:9px;fill:rgb(64,64,64);">15</text>
        <text x="54.542px" y="63px" style="font-family:'Helvetica';font-size:9px;fill:rgb(64,64,64);">.</text>
        <text x="57.545px" y="63px" style="font-family:'Helvetica';font-size:9px;fill:rgb(64,64,64);">99</text>
    </g>
    <g>
        <text x="75.767px" y="171px" style="font-family:'Helvetica';font-size:9px;fill:rgb(64,64,64);">9</text>
        <text x="80.767px" y="171px" style="font-family:'Helvetica';font-size:9px;fill:rgb(64,64,64);">.</text>
        <text x="83.77px" y="171px" style="font-family:'Helvetica';font-size:9px;fill:rgb(64,64,64);">59</text>
    </g>
    <g>
        <text x="103.99px" y="203px" style="font-family:'Helvetica';font-size:9px;fill:rgb(64,64,64);">7</text>
        <text x="108.99px" y="203px" style="font-family:'Helvetica';font-size:9px;fill:rgb(64,64,64);">.</text>
        <text x="111.993px" y="203px" style="font-family:'Helvetica';font-size:9px;fill:rgb(64,64,64);">71</text>
    </g>
    <g>
        <text x="134.21px" y="205px" style="font-family:'Helvetica';font-size:9px;fill:rgb(64,64,64);">7</text>
        <text x="139.211px" y="205px" style="font-family:'Helvetica';font-size:9px;fill:rgb(64,64,64);">.<tspan x="142.213px " y="205px ">6</tspan></text>
    </g>
    <g>
        <text x="160.436px" y="225px" style="font-family:'Helvetica';font-size:9px;fill:rgb(64,64,64);">6</text>
        <text x="165.436px" y="225px" style="font-family:'Helvetica';font-size:9px;fill:rgb(64,64,64);">.</text>
        <text x="168.439px" y="225px" style="font-family:'Helvetica';font-size:9px;fill:rgb(64,64,64);">43 <tspan x="188.623px " y="225px ">6</tspan></text>
        <text x="193.623px" y="225px" style="font-family:'Helvetica';font-size:9px;fill:rgb(64,64,64);">.</text>
        <text x="196.626px" y="225px" style="font-family:'Helvetica';font-size:9px;fill:rgb(64,64,64);">41</text>
        <text x="216.81px" y="226px" style="font-family:'Helvetica';font-size:9px;fill:rgb(64,64,64);">6</text>
        <text x="221.811px" y="226px" style="font-family:'Helvetica';font-size:9px;fill:rgb(64,64,64);">.</text>
        <text x="224.813px" y="226px" style="font-family:'Helvetica';font-size:9px;fill:rgb(64,64,64);">34</text>
    </g>
    <g>
        <text x="245.104px" y="250px" style="font-family:'Helvetica';font-size:9px;fill:rgb(64,64,64);">4</text>
        <text x="250.105px" y="250px" style="font-family:'Helvetica';font-size:9px;fill:rgb(64,64,64);">.</text>
        <text x="253.107px" y="250px" style="font-family:'Helvetica';font-size:9px;fill:rgb(64,64,64);">92</text>
    </g>
    <g>
        <text x="273.328px" y="264px" style="font-family:'Helvetica';font-size:9px;fill:rgb(64,64,64);">4</text>
        <text x="278.328px" y="264px" style="font-family:'Helvetica';font-size:9px;fill:rgb(64,64,64);">.</text>
        <text x="281.33px" y="264px" style="font-family:'Helvetica';font-size:9px;fill:rgb(64,64,64);">11</text>
    </g>
    <g>
        <text x="301.55px" y="270px" style="font-family:'Helvetica';font-size:9px;fill:rgb(64,64,64);">3</text>
        <text x="306.551px" y="270px" style="font-family:'Helvetica';font-size:9px;fill:rgb(64,64,64);">.</text>
        <text x="309.553px" y="270px" style="font-family:'Helvetica';font-size:9px;fill:rgb(64,64,64);">76</text>
        <text x="329.773px" y="271px" style="font-family:'Helvetica';font-size:9px;fill:rgb(64,64,64);">3</text>
        <text x="334.773px" y="271px" style="font-family:'Helvetica';font-size:9px;fill:rgb(64,64,64);">.</text>
        <text x="337.776px" y="271px" style="font-family:'Helvetica';font-size:9px;fill:rgb(64,64,64);">72</text>
    </g>
    <g>
        <text x="357.996px" y="282px" style="font-family:'Helvetica';font-size:9px;fill:rgb(64,64,64);">3</text>
        <text x="362.997px" y="282px" style="font-family:'Helvetica';font-size:9px;fill:rgb(64,64,64);">.</text>
        <text x="365.999px" y="282px" style="font-family:'Helvetica';font-size:9px;fill:rgb(64,64,64);">02</text>
    </g>
    <g>
        <text x="386.219px" y="287px" style="font-family:'Helvetica';font-size:9px;fill:rgb(64,64,64);">2</text>
        <text x="391.22px" y="287px" style="font-family:'Helvetica';font-size:9px;fill:rgb(64,64,64);">.</text>
        <text x="394.222px" y="287px" style="font-family:'Helvetica';font-size:9px;fill:rgb(64,64,64);">75 <tspan x="414.406px " y="287px ">2</tspan></text>
        <text x="419.407px" y="287px" style="font-family:'Helvetica';font-size:9px;fill:rgb(64,64,64);">.</text>
        <text x="422.409px" y="287px" style="font-family:'Helvetica';font-size:9px;fill:rgb(64,64,64);">75</text>
        <text x="442.594px" y="288px" style="font-family:'Helvetica';font-size:9px;fill:rgb(64,64,64);">2</text>
        <text x="447.594px" y="288px" style="font-family:'Helvetica';font-size:9px;fill:rgb(64,64,64);">.</text>
        <text x="450.596px" y="288px" style="font-family:'Helvetica';font-size:9px;fill:rgb(64,64,64);">71</text>
    </g>
    <g>
        <text x="470.888px" y="296px" style="font-family:'Helvetica';font-size:9px;fill:rgb(64,64,64);">2</text>
        <text x="475.888px" y="296px" style="font-family:'Helvetica';font-size:9px;fill:rgb(64,64,64);">.</text>
        <text x="478.891px" y="296px" style="font-family:'Helvetica';font-size:9px;fill:rgb(64,64,64);">21</text>
    </g>
    <g>
        <text x="501.108px" y="303px" style="font-family:'Helvetica';font-size:9px;fill:rgb(64,64,64);">1</text>
        <text x="506.109px" y="303px" style="font-family:'Helvetica';font-size:9px;fill:rgb(64,64,64);">.<tspan x="509.111px " y="303px ">8</tspan></text>
    </g>
    <g>
        <text x="529.331px" y="308px" style="font-family:'Helvetica';font-size:9px;fill:rgb(64,64,64);">1</text>
        <text x="534.331px" y="308px" style="font-family:'Helvetica';font-size:9px;fill:rgb(64,64,64);">.<tspan x="537.334px " y="308px ">5</tspan></text>
    </g>
    <g>
        <text x="557.554px" y="310px" style="font-family:'Helvetica';font-size:9px;fill:rgb(64,64,64);">1</text>
        <text x="562.555px" y="310px" style="font-family:'Helvetica';font-size:9px;fill:rgb(64,64,64);">.<tspan x="565.557px " y="310px ">4</tspan></text>
    </g>
    <g>
        <text x="583.78px" y="313px" style="font-family:'Helvetica';font-size:9px;fill:rgb(64,64,64);">1</text>
        <text x="588.78px" y="313px" style="font-family:'Helvetica';font-size:9px;fill:rgb(64,64,64);">.</text>
        <text x="591.782px" y="313px" style="font-family:'Helvetica';font-size:9px;fill:rgb(64,64,64);">22</text>
    </g>
    <g>
        <text x="612.002px" y="316px" style="font-family:'Helvetica';font-size:9px;fill:rgb(64,64,64);">1</text>
        <text x="617.003px" y="316px" style="font-family:'Helvetica';font-size:9px;fill:rgb(64,64,64);">.</text>
        <text x="620.005px" y="316px" style="font-family:'Helvetica';font-size:9px;fill:rgb(64,64,64);">06</text>
    </g>
    <g>
        <text x="640.225px" y="318px" style="font-family:'Helvetica';font-size:9px;fill:rgb(64,64,64);">0</text>
        <text x="645.226px" y="318px" style="font-family:'Helvetica';font-size:9px;fill:rgb(64,64,64);">.</text>
        <text x="648.228px" y="318px" style="font-family:'Helvetica';font-size:9px;fill:rgb(64,64,64);">94</text>
    </g>
    <g>
        <text x="668.448px" y="323px" style="font-family:'Helvetica';font-size:9px;fill:rgb(64,64,64);">0</text>
        <text x="673.449px" y="323px" style="font-family:'Helvetica';font-size:9px;fill:rgb(64,64,64);">.</text>
        <text x="676.451px" y="323px" style="font-family:'Helvetica';font-size:9px;fill:rgb(64,64,64);">63</text>
        <text x="696.671px" y="324px" style="font-family:'Helvetica';font-size:9px;fill:rgb(64,64,64);">0</text>
        <text x="701.671px" y="324px" style="font-family:'Helvetica';font-size:9px;fill:rgb(64,64,64);">.</text>
        <text x="704.673px" y="324px" style="font-family:'Helvetica';font-size:9px;fill:rgb(64,64,64);">54</text>
    </g>
    <g>
        <text x="724.894px" y="329px" style="font-family:'Helvetica';font-size:9px;fill:rgb(64,64,64);">0</text>
        <text x="729.894px" y="329px" style="font-family:'Helvetica';font-size:9px;fill:rgb(64,64,64);">.</text>
        <text x="732.897px" y="329px" style="font-family:'Helvetica';font-size:9px;fill:rgb(64,64,64);">27</text>
        <text x="753.117px" y="330px" style="font-family:'Helvetica';font-size:9px;fill:rgb(64,64,64);">0</text>
        <text x="758.117px" y="330px" style="font-family:'Helvetica';font-size:9px;fill:rgb(64,64,64);">.</text>
        <text x="761.119px" y="330px" style="font-family:'Helvetica';font-size:9px;fill:rgb(64,64,64);">24</text>
    </g>
    <g>
        <text x="781.34px" y="331px" style="font-family:'Helvetica';font-size:9px;fill:rgb(64,64,64);">0</text>
        <text x="786.34px" y="331px" style="font-family:'Helvetica';font-size:9px;fill:rgb(64,64,64);">.</text>
        <text x="789.343px" y="331px" style="font-family:'Helvetica';font-size:9px;fill:rgb(64,64,64);">15 <tspan x="809.527px " y="331px ">0</tspan></text>
        <text x="814.528px" y="331px" style="font-family:'Helvetica';font-size:9px;fill:rgb(64,64,64);">.</text>
        <text x="817.53px" y="331px" style="font-family:'Helvetica';font-size:9px;fill:rgb(64,64,64);">13</text>
        <text x="837.714px" y="332px" style="font-family:'Helvetica';font-size:9px;fill:rgb(64,64,64);">0</text>
        <text x="842.715px" y="332px" style="font-family:'Helvetica';font-size:9px;fill:rgb(64,64,64);">.</text>
        <text x="845.717px" y="332px" style="font-family:'Helvetica';font-size:9px;fill:rgb(64,64,64);">07</text>
    </g>
    <g>
        <text x="866.009px" y="333px" style="font-family:'Helvetica';font-size:9px;fill:rgb(64,64,64);">0</text>
        <text x="871.009px" y="333px" style="font-family:'Helvetica';font-size:9px;fill:rgb(64,64,64);">.</text>
        <text x="874.011px" y="333px" style="font-family:'Helvetica';font-size:9px;fill:rgb(64,64,64);">04</text>
        <text x="30.618px" y="342px" style="font-family:'Helvetica';font-size:9px;fill:rgb(89,89,89);">0</text>
    </g>
    <text x="30.618px" y="309px" style="font-family:'Helvetica';font-size:9px;fill:rgb(89,89,89);">2</text>
    <text x="30.618px" y="275px" style="font-family:'Helvetica';font-size:9px;fill:rgb(89,89,89);">4</text>
    <text x="30.618px" y="241px" style="font-family:'Helvetica';font-size:9px;fill:rgb(89,89,89);">6</text>
    <text x="30.618px" y="207px" style="font-family:'Helvetica';font-size:9px;fill:rgb(89,89,89);">8</text>
    <text x="25.613px" y="173px" style="font-family:'Helvetica';font-size:9px;fill:rgb(89,89,89);">10</text>
    <text x="25.613px" y="139px" style="font-family:'Helvetica';font-size:9px;fill:rgb(89,89,89);">12</text>
    <text x="25.613px" y="105px" style="font-family:'Helvetica';font-size:9px;fill:rgb(89,89,89);">14</text>
    <text x="25.613px" y="71px" style="font-family:'Helvetica';font-size:9px;fill:rgb(89,89,89);">16</text>
    <text x="25.613px" y="37px" style="font-family:'Helvetica';font-size:9px;fill:rgb(89,89,89);">18</text>
    <text x="53.539px" y="352px" style="font-family:'Helvetica';font-size:9px;fill:rgb(89,89,89);">E</text>
    <text x="81.515px" y="352px" style="font-family:'Helvetica';font-size:9px;fill:rgb(89,89,89);">N</text>
    <text x="109.738px" y="352px" style="font-family:'Helvetica';font-size:9px;fill:rgb(89,89,89);">R</text>
    <text x="139.96px" y="352px" style="font-family:'Helvetica';font-size:9px;fill:rgb(89,89,89);">I</text>
    <text x="166.683px" y="352px" style="font-family:'Helvetica';font-size:9px;fill:rgb(89,89,89);">T</text>
    <text x="194.654px" y="352px" style="font-family:'Helvetica';font-size:9px;fill:rgb(89,89,89);">S</text>
    <text x="222.877px" y="352px" style="font-family:'Helvetica';font-size:9px;fill:rgb(89,89,89);">A</text>
    <text x="250.852px" y="352px" style="font-family:'Helvetica';font-size:9px;fill:rgb(89,89,89);">D</text>
    <text x="279.075px" y="352px" style="font-family:'Helvetica';font-size:9px;fill:rgb(89,89,89);">H</text>
    <text x="307.298px" y="352px" style="font-family:'Helvetica';font-size:9px;fill:rgb(89,89,89);">U</text>
    <text x="336.268px" y="352px" style="font-family:'Helvetica';font-size:9px;fill:rgb(89,89,89);">L</text>
    <text x="363.494px" y="352px" style="font-family:'Helvetica';font-size:9px;fill:rgb(89,89,89);">G</text>
    <text x="391.717px" y="352px" style="font-family:'Helvetica';font-size:9px;fill:rgb(89,89,89);">O</text>
    <text x="419.692px" y="352px" style="font-family:'Helvetica';font-size:9px;fill:rgb(89,89,89);">M</text>
    <text x="448.412px" y="352px" style="font-family:'Helvetica';font-size:9px;fill:rgb(89,89,89);">C</text>
    <text x="476.883px" y="352px" style="font-family:'Helvetica';font-size:9px;fill:rgb(89,89,89);">B</text>
    <text x="505.358px" y="352px" style="font-family:'Helvetica';font-size:9px;fill:rgb(89,89,89);">F</text>
    <text x="533.329px" y="352px" style="font-family:'Helvetica';font-size:9px;fill:rgb(89,89,89);">K</text>
    <text x="560.307px" y="352px" style="font-family:'Helvetica';font-size:9px;fill:rgb(89,89,89);">W</text>
    <text x="590.027px" y="352px" style="font-family:'Helvetica';font-size:9px;fill:rgb(89,89,89);">Z</text>
    <text x="617.997px" y="352px" style="font-family:'Helvetica';font-size:9px;fill:rgb(89,89,89);">P</text>
    <text x="646.22px" y="352px" style="font-family:'Helvetica';font-size:9px;fill:rgb(89,89,89);">V</text>
    <text x="674.196px" y="352px" style="font-family:'Helvetica';font-size:9px;fill:rgb(89,89,89);">Ü</text>
    <text x="702.666px" y="352px" style="font-family:'Helvetica';font-size:9px;fill:rgb(89,89,89);">Ä</text>
    <text x="731.642px" y="352px" style="font-family:'Helvetica';font-size:9px;fill:rgb(89,89,89);">J</text>
    <text x="758.615px" y="352px" style="font-family:'Helvetica';font-size:9px;fill:rgb(89,89,89);">Ö</text>
    <text x="787.587px" y="352px" style="font-family:'Helvetica';font-size:9px;fill:rgb(89,89,89);">ß</text>
    <text x="815.558px" y="352px" style="font-family:'Helvetica';font-size:9px;fill:rgb(89,89,89);">Y</text>
    <text x="843.781px" y="352px" style="font-family:'Helvetica';font-size:9px;fill:rgb(89,89,89);">X</text>
    <text x="871.506px" y="352px" style="font-family:'Helvetica';font-size:9px;fill:rgb(89,89,89);">Q</text>
    <g transform="matrix(0,-1,1,0,0,0)">
        <text x="-235px" y="20.618px" style="font-family:'Helvetica';font-size:10px;fill:rgb(89,89,89);">H</text>
        <text x="-228px" y="20.618px" style="font-family:'Helvetica';font-size:10px;fill:rgb(89,89,89);">ä<tspan x="-222px " y="20.618px ">u</tspan></text>
        <text x="-216px" y="20.618px" style="font-family:'Helvetica';font-size:10px;fill:rgb(89,89,89);">f</text>
        <text x="-213px" y="20.618px" style="font-family:'Helvetica';font-size:10px;fill:rgb(89,89,89);">i</text>
        <text x="-211px" y="20.618px" style="font-family:'Helvetica';font-size:10px;fill:rgb(89,89,89);">g</text>
        <text x="-205px" y="20.618px" style="font-family:'Helvetica';font-size:10px;fill:rgb(89,89,89);">k</text>
        <text x="-200px" y="20.618px" style="font-family:'Helvetica';font-size:10px;fill:rgb(89,89,89);">e</text>
        <text x="-194px" y="20.618px" style="font-family:'Helvetica';font-size:10px;fill:rgb(89,89,89);">i</text>
        <text x="-192px" y="20.618px" style="font-family:'Helvetica';font-size:10px;fill:rgb(89,89,89);">t</text>
        <text x="-187px" y="20.618px" style="font-family:'Helvetica';font-size:10px;fill:rgb(89,89,89);">i</text>
        <text x="-185px" y="20.618px" style="font-family:'Helvetica';font-size:10px;fill:rgb(89,89,89);">n</text>
        <text x="-177px" y="20.618px" style="font-family:'Helvetica';font-size:10px;fill:rgb(89,89,89);">P</text>
        <text x="-170px" y="20.618px" style="font-family:'Helvetica';font-size:10px;fill:rgb(89,89,89);">r</text>
        <text x="-167px" y="20.618px" style="font-family:'Helvetica';font-size:10px;fill:rgb(89,89,89);">o</text>
        <text x="-161px" y="20.618px" style="font-family:'Helvetica';font-size:10px;fill:rgb(89,89,89);">z</text>
        <text x="-156px" y="20.618px" style="font-family:'Helvetica';font-size:10px;fill:rgb(89,89,89);">e<tspan x="-150px -144px " y="20.618px 20.618px ">nt</tspan></text>
    </g>
    <g>
        <text x="263.12px" y="19px" style="font-family:'Helvetica';font-size:14px;fill:rgb(89,89,89);">d<tspan x="271.12px " y="19px ">u</tspan></text>
        <text x="279.119px" y="19px" style="font-family:'Helvetica';font-size:14px;fill:rgb(89,89,89);">r</text>
        <text x="284.119px" y="19px" style="font-family:'Helvetica';font-size:14px;fill:rgb(89,89,89);">c</text>
        <text x="291.119px" y="19px" style="font-family:'Helvetica';font-size:14px;fill:rgb(89,89,89);">h</text>
        <text x="299.118px" y="19px" style="font-family:'Helvetica';font-size:14px;fill:rgb(89,89,89);">sc</text>
        <text x="313.118px" y="19px" style="font-family:'Helvetica';font-size:14px;fill:rgb(89,89,89);">h<tspan x="321.118px " y="19px ">n</tspan></text>
        <text x="329.117px" y="19px" style="font-family:'Helvetica';font-size:14px;fill:rgb(89,89,89);">i</text>
        <text x="332.118px" y="19px" style="font-family:'Helvetica';font-size:14px;fill:rgb(89,89,89);">t<tspan x="336.117px " y="19px ">t</tspan></text>
        <text x="340.117px" y="19px" style="font-family:'Helvetica';font-size:14px;fill:rgb(89,89,89);">l<tspan x="343.117px " y="19px ">i</tspan></text>
        <text x="346.118px" y="19px" style="font-family:'Helvetica';font-size:14px;fill:rgb(89,89,89);">c</text>
        <text x="353.118px" y="19px" style="font-family:'Helvetica';font-size:14px;fill:rgb(89,89,89);">h<tspan x="361.117px " y="19px ">e</tspan></text>
        <text x="372.117px" y="19px" style="font-family:'Helvetica';font-size:14px;fill:rgb(89,89,89);">B</text>
        <text x="381.118px" y="19px" style="font-family:'Helvetica';font-size:14px;fill:rgb(89,89,89);">u</text>
        <text x="389.117px" y="19px" style="font-family:'Helvetica';font-size:14px;fill:rgb(89,89,89);">c</text>
        <text x="396.117px" y="19px" style="font-family:'Helvetica';font-size:14px;fill:rgb(89,89,89);">h</text>
        <text x="404.117px" y="19px" style="font-family:'Helvetica';font-size:14px;fill:rgb(89,89,89);">s</text>
        <text x="411.117px" y="19px" style="font-family:'Helvetica';font-size:14px;fill:rgb(89,89,89);">t</text>
        <text x="415.117px" y="19px" style="font-family:'Helvetica';font-size:14px;fill:rgb(89,89,89);">a<tspan x="423.116px 431.116px 439.115px 447.115px 455.115px 463.114px " y="19px 19px 19px 19px 19px 19px ">benhäu</tspan></text>
        <text x="471.114px" y="19px" style="font-family:'Helvetica';font-size:14px;fill:rgb(89,89,89);">f</text>
        <text x="475.114px" y="19px" style="font-family:'Helvetica';font-size:14px;fill:rgb(89,89,89);">i</text>
        <text x="478.114px" y="19px" style="font-family:'Helvetica';font-size:14px;fill:rgb(89,89,89);">g</text>
        <text x="486.113px" y="19px" style="font-family:'Helvetica';font-size:14px;fill:rgb(89,89,89);">k</text>
        <text x="493.113px" y="19px" style="font-family:'Helvetica';font-size:14px;fill:rgb(89,89,89);">e</text>
        <text x="501.113px" y="19px" style="font-family:'Helvetica';font-size:14px;fill:rgb(89,89,89);">i</text>
        <text x="504.113px" y="19px" style="font-family:'Helvetica';font-size:14px;fill:rgb(89,89,89);">t</text>
        <text x="511.113px" y="19px" style="font-family:'Helvetica';font-size:14px;fill:rgb(89,89,89);">i</text>
        <text x="514.113px" y="19px" style="font-family:'Helvetica';font-size:14px;fill:rgb(89,89,89);">n</text>
        <text x="525.113px" y="19px" style="font-family:'Helvetica';font-size:14px;fill:rgb(89,89,89);">d<tspan x="533.113px 541.112px " y="19px 19px ">eu</tspan></text>
        <text x="549.112px" y="19px" style="font-family:'Helvetica';font-size:14px;fill:rgb(89,89,89);">t</text>
        <text x="553.112px" y="19px" style="font-family:'Helvetica';font-size:14px;fill:rgb(89,89,89);">sc</text>
        <text x="567.112px" y="19px" style="font-family:'Helvetica';font-size:14px;fill:rgb(89,89,89);">h<tspan x="575.111px 583.111px " y="19px 19px ">en</tspan></text>
        <text x="594.111px" y="19px" style="font-family:'Helvetica';font-size:14px;fill:rgb(89,89,89);">T</text>
        <text x="601.111px" y="19px" style="font-family:'Helvetica';font-size:14px;fill:rgb(89,89,89);">e</text>
        <text x="609.11px" y="19px" style="font-family:'Helvetica';font-size:14px;fill:rgb(89,89,89);">x</text>
        <text x="616.11px" y="19px" style="font-family:'Helvetica';font-size:14px;fill:rgb(89,89,89);">t</text>
        <text x="620.11px" y="19px" style="font-family:'Helvetica';font-size:14px;fill:rgb(89,89,89);">e<tspan x="628.11px " y="19px ">n</tspan></text>
    </g>
    <rect x="0.5" y="0.5" width="900" height="360" style="fill:none;stroke:rgb(217,217,217);stroke-width:0.75px;"/>
</svg>
