<svg version="1.1" xmlns="http://www.w3.org/2000/svg" viewBox="0 0 896.0000305175781 197.2500228881836" width="896.0000305175781" height="197.2500228881836">
  <!-- svg-source:excalidraw -->
  
  <defs>
    <style class="style-fonts">
      @font-face {
        font-family: "Virgil";
        src: url("https://file%2B.vscode-resource.vscode-cdn.net/c%3A/Users/bauz/.vscode/extensions/pomdtr.excalidraw-editor-3.5.1/public//dist/excalidraw-assets/Virgil.woff2");
      }
      @font-face {
        font-family: "Cascadia";
        src: url("https://file%2B.vscode-resource.vscode-cdn.net/c%3A/Users/bauz/.vscode/extensions/pomdtr.excalidraw-editor-3.5.1/public//dist/excalidraw-assets/Cascadia.woff2");
      }
    </style>
  </defs>
  <rect x="0" y="0" width="896.0000305175781" height="197.2500228881836" fill="#ffffff"></rect><g stroke-linecap="round" transform="translate(10 70.74993133544922) rotate(0 438.00001525878906 45.333343505859375)"><path d="M22.67 0 M22.67 0 C208.48 -1.72, 394.05 -0.94, 853.33 0 M22.67 0 C298.06 0.43, 572.67 0.75, 853.33 0 M853.33 0 C869.26 -0.75, 874.1 8.8, 876 22.67 M853.33 0 C869.45 1.32, 874.53 9.28, 876 22.67 M876 22.67 C875.65 35.54, 875.8 43.63, 876 68 M876 22.67 C875.43 37.6, 877.01 50.45, 876 68 M876 68 C874.43 82.89, 868.43 89.42, 853.33 90.67 M876 68 C876.44 82.97, 867.67 89.8, 853.33 90.67 M853.33 90.67 C678.27 88.08, 504.49 88.32, 22.67 90.67 M853.33 90.67 C645.12 90.9, 436.12 90.96, 22.67 90.67 M22.67 90.67 C7.83 90.6, 0.04 83.88, 0 68 M22.67 90.67 C8.48 89.6, -1.08 84.12, 0 68 M0 68 C0.53 55.74, -0.92 43.32, 0 22.67 M0 68 C0.22 49.41, 0.83 33.56, 0 22.67 M0 22.67 C-1.29 7.71, 8.72 1.16, 22.67 0 M0 22.67 C-1.04 7.03, 5.85 1.74, 22.67 0" stroke="#000000" stroke-width="1" fill="none"></path></g><g stroke-linecap="round" transform="translate(13.333343505859375 78.74993133544922) rotate(0 48.666656494140625 37.66667175292969)"><path d="M18.83 0 M18.83 0 C32.48 -1.99, 50.05 1.19, 78.5 0 M18.83 0 C32.26 -0.56, 45.9 0, 78.5 0 M78.5 0 C90.38 -0.75, 95.53 5.72, 97.33 18.83 M78.5 0 C89.05 -1.9, 98.25 6.17, 97.33 18.83 M97.33 18.83 C97.43 34, 95.98 45.2, 97.33 56.5 M97.33 18.83 C97.41 28.94, 97.79 37.82, 97.33 56.5 M97.33 56.5 C96.39 69.94, 90.12 76.94, 78.5 75.33 M97.33 56.5 C98.51 70.09, 90.17 74.7, 78.5 75.33 M78.5 75.33 C66.82 75.28, 51.01 76.5, 18.83 75.33 M78.5 75.33 C55.79 75.96, 31.46 75.15, 18.83 75.33 M18.83 75.33 C4.79 76.85, 1.25 68.74, 0 56.5 M18.83 75.33 C5.25 77.38, -2.21 70.81, 0 56.5 M0 56.5 C1.73 42.47, 0.71 31.73, 0 18.83 M0 56.5 C0.55 49.11, -0.86 41.38, 0 18.83 M0 18.83 C1.46 7.06, 5.17 0.89, 18.83 0 M0 18.83 C0.69 7.67, 7.37 -1.35, 18.83 0" stroke="#000000" stroke-width="1" fill="none"></path></g><g transform="translate(21.333343505859375 88.0832748413086) rotate(0 42.88996124267578 25)"><text x="0" y="0" font-family="Virgil, Segoe UI Emoji" font-size="20px" fill="#000000" text-anchor="start" style="white-space: pre;" direction="ltr" dominant-baseline="text-before-edge">Ethernet</text><text x="0" y="25" font-family="Virgil, Segoe UI Emoji" font-size="20px" fill="#000000" text-anchor="start" style="white-space: pre;" direction="ltr" dominant-baseline="text-before-edge">Header</text></g><g transform="translate(130.66665649414062 96.0832748413086) rotate(0 33.10997009277344 25)"><text x="0" y="0" font-family="Virgil, Segoe UI Emoji" font-size="20px" fill="#000000" text-anchor="start" style="white-space: pre;" direction="ltr" dominant-baseline="text-before-edge">IP</text><text x="0" y="25" font-family="Virgil, Segoe UI Emoji" font-size="20px" fill="#000000" text-anchor="start" style="white-space: pre;" direction="ltr" dominant-baseline="text-before-edge">Header</text></g><g transform="translate(230.66665649414062 93.41661834716797) rotate(0 33.10997009277344 25)"><text x="0" y="0" font-family="Virgil, Segoe UI Emoji" font-size="20px" fill="#000000" text-anchor="start" style="white-space: pre;" direction="ltr" dominant-baseline="text-before-edge">TCP</text><text x="0" y="25" font-family="Virgil, Segoe UI Emoji" font-size="20px" fill="#000000" text-anchor="start" style="white-space: pre;" direction="ltr" dominant-baseline="text-before-edge">Header</text></g><g transform="translate(493.3334045410156 104.41661834716797) rotate(0 38.499969482421875 12.5)"><text x="0" y="0" font-family="Virgil, Segoe UI Emoji" font-size="20px" fill="#000000" text-anchor="start" style="white-space: pre;" direction="ltr" dominant-baseline="text-before-edge">Payload</text></g><g transform="translate(788.3333435058594 92.91658782958984) rotate(0 42.88996124267578 25)"><text x="0" y="0" font-family="Virgil, Segoe UI Emoji" font-size="20px" fill="#000000" text-anchor="start" style="white-space: pre;" direction="ltr" dominant-baseline="text-before-edge">Ethernet</text><text x="0" y="25" font-family="Virgil, Segoe UI Emoji" font-size="20px" fill="#000000" text-anchor="start" style="white-space: pre;" direction="ltr" dominant-baseline="text-before-edge">Trailer</text></g><g stroke-linecap="round" transform="translate(109.66665649414062 77.58325958251953) rotate(0 48.666656494140625 37.66667175292969)"><path d="M18.83 0 M18.83 0 C32.48 -1.99, 50.05 1.19, 78.5 0 M18.83 0 C32.26 -0.56, 45.9 0, 78.5 0 M78.5 0 C90.38 -0.75, 95.53 5.72, 97.33 18.83 M78.5 0 C89.05 -1.9, 98.25 6.17, 97.33 18.83 M97.33 18.83 C97.43 34, 95.98 45.2, 97.33 56.5 M97.33 18.83 C97.41 28.94, 97.79 37.82, 97.33 56.5 M97.33 56.5 C96.39 69.94, 90.12 76.94, 78.5 75.33 M97.33 56.5 C98.51 70.09, 90.17 74.7, 78.5 75.33 M78.5 75.33 C66.82 75.28, 51.01 76.5, 18.83 75.33 M78.5 75.33 C55.79 75.96, 31.46 75.15, 18.83 75.33 M18.83 75.33 C4.79 76.85, 1.25 68.74, 0 56.5 M18.83 75.33 C5.25 77.38, -2.21 70.81, 0 56.5 M0 56.5 C1.73 42.47, 0.71 31.73, 0 18.83 M0 56.5 C0.55 49.11, -0.86 41.38, 0 18.83 M0 18.83 C1.46 7.06, 5.17 0.89, 18.83 0 M0 18.83 C0.69 7.67, 7.37 -1.35, 18.83 0" stroke="#000000" stroke-width="1" fill="none"></path></g><g stroke-linecap="round" transform="translate(208 78.24994659423828) rotate(0 48.666656494140625 37.66667175292969)"><path d="M18.83 0 M18.83 0 C32.48 -1.99, 50.05 1.19, 78.5 0 M18.83 0 C32.26 -0.56, 45.9 0, 78.5 0 M78.5 0 C90.38 -0.75, 95.53 5.72, 97.33 18.83 M78.5 0 C89.05 -1.9, 98.25 6.17, 97.33 18.83 M97.33 18.83 C97.43 34, 95.98 45.2, 97.33 56.5 M97.33 18.83 C97.41 28.94, 97.79 37.82, 97.33 56.5 M97.33 56.5 C96.39 69.94, 90.12 76.94, 78.5 75.33 M97.33 56.5 C98.51 70.09, 90.17 74.7, 78.5 75.33 M78.5 75.33 C66.82 75.28, 51.01 76.5, 18.83 75.33 M78.5 75.33 C55.79 75.96, 31.46 75.15, 18.83 75.33 M18.83 75.33 C4.79 76.85, 1.25 68.74, 0 56.5 M18.83 75.33 C5.25 77.38, -2.21 70.81, 0 56.5 M0 56.5 C1.73 42.47, 0.71 31.73, 0 18.83 M0 56.5 C0.55 49.11, -0.86 41.38, 0 18.83 M0 18.83 C1.46 7.06, 5.17 0.89, 18.83 0 M0 18.83 C0.69 7.67, 7.37 -1.35, 18.83 0" stroke="#000000" stroke-width="1" fill="none"></path></g><g stroke-linecap="round" transform="translate(306 78.9166030883789) rotate(0 239 37.66667175292969)"><path d="M18.83 0 M18.83 0 C128.47 -2.06, 240.07 -0.48, 459.17 0 M18.83 0 C117.99 -0.07, 217.25 0.21, 459.17 0 M459.17 0 C471.05 -0.75, 476.2 5.72, 478 18.83 M459.17 0 C469.71 -1.9, 478.92 6.17, 478 18.83 M478 18.83 C478.09 34, 476.65 45.2, 478 56.5 M478 18.83 C478.07 28.94, 478.45 37.82, 478 56.5 M478 56.5 C477.06 69.94, 470.79 76.94, 459.17 75.33 M478 56.5 C479.18 70.09, 470.84 74.7, 459.17 75.33 M459.17 75.33 C365.09 74.68, 268.95 75.29, 18.83 75.33 M459.17 75.33 C287.57 75.79, 115.17 75.38, 18.83 75.33 M18.83 75.33 C4.79 76.85, 1.25 68.74, 0 56.5 M18.83 75.33 C5.25 77.38, -2.21 70.81, 0 56.5 M0 56.5 C1.73 42.47, 0.71 31.73, 0 18.83 M0 56.5 C0.55 49.11, -0.86 41.38, 0 18.83 M0 18.83 C1.46 7.06, 5.17 0.89, 18.83 0 M0 18.83 C0.69 7.67, 7.37 -1.35, 18.83 0" stroke="#000000" stroke-width="1" fill="none"></path></g><g stroke-linecap="round" transform="translate(783.6666564941406 78.58325958251953) rotate(0 48.666656494140625 37.66667175292969)"><path d="M18.83 0 M18.83 0 C32.48 -1.99, 50.05 1.19, 78.5 0 M18.83 0 C32.26 -0.56, 45.9 0, 78.5 0 M78.5 0 C90.38 -0.75, 95.53 5.72, 97.33 18.83 M78.5 0 C89.05 -1.9, 98.25 6.17, 97.33 18.83 M97.33 18.83 C97.43 34, 95.98 45.2, 97.33 56.5 M97.33 18.83 C97.41 28.94, 97.79 37.82, 97.33 56.5 M97.33 56.5 C96.39 69.94, 90.12 76.94, 78.5 75.33 M97.33 56.5 C98.51 70.09, 90.17 74.7, 78.5 75.33 M78.5 75.33 C66.82 75.28, 51.01 76.5, 18.83 75.33 M78.5 75.33 C55.79 75.96, 31.46 75.15, 18.83 75.33 M18.83 75.33 C4.79 76.85, 1.25 68.74, 0 56.5 M18.83 75.33 C5.25 77.38, -2.21 70.81, 0 56.5 M0 56.5 C1.73 42.47, 0.71 31.73, 0 18.83 M0 56.5 C0.55 49.11, -0.86 41.38, 0 18.83 M0 18.83 C1.46 7.06, 5.17 0.89, 18.83 0 M0 18.83 C0.69 7.67, 7.37 -1.35, 18.83 0" stroke="#000000" stroke-width="1" fill="none"></path></g><g transform="translate(119.66665649414062 163.74993133544922) rotate(0 36.2559814453125 10)"><text x="0" y="0" font-family="Virgil, Segoe UI Emoji" font-size="16px" fill="#000000" text-anchor="start" style="white-space: pre;" direction="ltr" dominant-baseline="text-before-edge">20 bytes</text></g><g transform="translate(23.743988037109375 164.58333587646484) rotate(0 32.34397888183594 10)"><text x="0" y="0" font-family="Virgil, Segoe UI Emoji" font-size="16px" fill="#000000" text-anchor="start" style="white-space: pre;" direction="ltr" dominant-baseline="text-before-edge">14 bytes</text></g><g transform="translate(218.7440185546875 165.58333587646484) rotate(0 36.2559814453125 10)"><text x="0" y="0" font-family="Virgil, Segoe UI Emoji" font-size="16px" fill="#000000" text-anchor="start" style="white-space: pre;" direction="ltr" dominant-baseline="text-before-edge">20 bytes</text></g><g transform="translate(486.7440490722656 167.2500228881836) rotate(0 42.96797180175781 10)"><text x="0" y="0" font-family="Virgil, Segoe UI Emoji" font-size="16px" fill="#000000" text-anchor="start" style="white-space: pre;" direction="ltr" dominant-baseline="text-before-edge">1460 bytes</text></g><g transform="translate(801.4107971191406 165.58333587646484) rotate(0 30.175979614257812 10)"><text x="0" y="0" font-family="Virgil, Segoe UI Emoji" font-size="16px" fill="#000000" text-anchor="start" style="white-space: pre;" direction="ltr" dominant-baseline="text-before-edge">4 bytes</text></g><g stroke-linecap="round"><g transform="translate(117.666763305664 47.00005340576172) rotate(0 331.2151708972361 0.5403301253626296)"><path d="M0.7 -0.57 C111.11 -0.57, 552.62 -0.86, 662.83 -0.51 M-0.4 1.75 C109.89 1.89, 552.06 0.76, 662.31 0.4" stroke="#000000" stroke-width="1" fill="none"></path></g></g><mask></mask><g stroke-linecap="round"><g transform="translate(114.33345031738276 24.00000762939453) rotate(0 0.5047281283577547 20.371210577944282)"><path d="M-0.54 0.93 C-0.72 7.59, -0.76 33.83, -0.45 40.37 M1.38 0.37 C1.5 6.66, 1.75 32.33, 1.68 38.62" stroke="#000000" stroke-width="1" fill="none"></path></g></g><mask></mask><g stroke-linecap="round"><g transform="translate(782.4953481655875 25.96212529852056) rotate(0 0.5047281283576694 20.371210577944282)"><path d="M-0.54 0.93 C-0.72 7.59, -0.76 33.83, -0.45 40.37 M1.38 0.37 C1.5 6.66, 1.75 32.33, 1.68 38.62" stroke="#000000" stroke-width="1" fill="none"></path></g></g><mask></mask><g transform="translate(413.66676330566406 10) rotate(0 39.89997863769531 12.5)"><text x="0" y="0" font-family="Virgil, Segoe UI Emoji" font-size="20px" fill="#000000" text-anchor="start" style="white-space: pre;" direction="ltr" dominant-baseline="text-before-edge">IP MTU</text></g></svg>