<svg version="1.1" xmlns="http://www.w3.org/2000/svg" viewBox="0 0 896.0000305175781 138.50009155273438" width="896.0000305175781" height="138.50009155273438">
  <!-- svg-source:excalidraw -->
  
  <defs>
    <style class="style-fonts">
      @font-face {
        font-family: "Virgil";
        src: url("https://file%2B.vscode-resource.vscode-cdn.net/c%3A/Users/bauz/.vscode/extensions/pomdtr.excalidraw-editor-3.5.1/public//dist/excalidraw-assets/Virgil.woff2");
      }
      @font-face {
        font-family: "Cascadia";
        src: url("https://file%2B.vscode-resource.vscode-cdn.net/c%3A/Users/bauz/.vscode/extensions/pomdtr.excalidraw-editor-3.5.1/public//dist/excalidraw-assets/Cascadia.woff2");
      }
    </style>
  </defs>
  <rect x="0" y="0" width="896.0000305175781" height="138.50009155273438" fill="#ffffff"></rect><g stroke-linecap="round" transform="translate(10 10) rotate(0 438.00001525878906 45.333343505859375)"><path d="M22.67 0 M22.67 0 C208.48 -1.72, 394.05 -0.94, 853.33 0 M22.67 0 C298.06 0.43, 572.67 0.75, 853.33 0 M853.33 0 C869.26 -0.75, 874.1 8.8, 876 22.67 M853.33 0 C869.45 1.32, 874.53 9.28, 876 22.67 M876 22.67 C875.65 35.54, 875.8 43.63, 876 68 M876 22.67 C875.43 37.6, 877.01 50.45, 876 68 M876 68 C874.43 82.89, 868.43 89.42, 853.33 90.67 M876 68 C876.44 82.97, 867.67 89.8, 853.33 90.67 M853.33 90.67 C678.27 88.08, 504.49 88.32, 22.67 90.67 M853.33 90.67 C645.12 90.9, 436.12 90.96, 22.67 90.67 M22.67 90.67 C7.83 90.6, 0.04 83.88, 0 68 M22.67 90.67 C8.48 89.6, -1.08 84.12, 0 68 M0 68 C0.53 55.74, -0.92 43.32, 0 22.67 M0 68 C0.22 49.41, 0.83 33.56, 0 22.67 M0 22.67 C-1.29 7.71, 8.72 1.16, 22.67 0 M0 22.67 C-1.04 7.03, 5.85 1.74, 22.67 0" stroke="#000000" stroke-width="1" fill="none"></path></g><g stroke-linecap="round" transform="translate(13.333343505859375 18) rotate(0 48.666656494140625 37.66667175292969)"><path d="M18.83 0 M18.83 0 C32.48 -1.99, 50.05 1.19, 78.5 0 M18.83 0 C32.26 -0.56, 45.9 0, 78.5 0 M78.5 0 C90.38 -0.75, 95.53 5.72, 97.33 18.83 M78.5 0 C89.05 -1.9, 98.25 6.17, 97.33 18.83 M97.33 18.83 C97.43 34, 95.98 45.2, 97.33 56.5 M97.33 18.83 C97.41 28.94, 97.79 37.82, 97.33 56.5 M97.33 56.5 C96.39 69.94, 90.12 76.94, 78.5 75.33 M97.33 56.5 C98.51 70.09, 90.17 74.7, 78.5 75.33 M78.5 75.33 C66.82 75.28, 51.01 76.5, 18.83 75.33 M78.5 75.33 C55.79 75.96, 31.46 75.15, 18.83 75.33 M18.83 75.33 C4.79 76.85, 1.25 68.74, 0 56.5 M18.83 75.33 C5.25 77.38, -2.21 70.81, 0 56.5 M0 56.5 C1.73 42.47, 0.71 31.73, 0 18.83 M0 56.5 C0.55 49.11, -0.86 41.38, 0 18.83 M0 18.83 C1.46 7.06, 5.17 0.89, 18.83 0 M0 18.83 C0.69 7.67, 7.37 -1.35, 18.83 0" stroke="#000000" stroke-width="1" fill="none"></path></g><g transform="translate(21.333343505859375 27.333343505859375) rotate(0 42.88996124267578 25)"><text x="0" y="0" font-family="Virgil, Segoe UI Emoji" font-size="20px" fill="#000000" text-anchor="start" style="white-space: pre;" direction="ltr" dominant-baseline="text-before-edge">Ethernet</text><text x="0" y="25" font-family="Virgil, Segoe UI Emoji" font-size="20px" fill="#000000" text-anchor="start" style="white-space: pre;" direction="ltr" dominant-baseline="text-before-edge">Header</text></g><g transform="translate(130.66665649414062 35.333343505859375) rotate(0 33.10997009277344 25)"><text x="0" y="0" font-family="Virgil, Segoe UI Emoji" font-size="20px" fill="#000000" text-anchor="start" style="white-space: pre;" direction="ltr" dominant-baseline="text-before-edge">IP</text><text x="0" y="25" font-family="Virgil, Segoe UI Emoji" font-size="20px" fill="#000000" text-anchor="start" style="white-space: pre;" direction="ltr" dominant-baseline="text-before-edge">Header</text></g><g transform="translate(216.66665649414062 33) rotate(0 33.10997009277344 25)"><text x="0" y="0" font-family="Virgil, Segoe UI Emoji" font-size="20px" fill="#000000" text-anchor="start" style="white-space: pre;" direction="ltr" dominant-baseline="text-before-edge">UDP</text><text x="0" y="25" font-family="Virgil, Segoe UI Emoji" font-size="20px" fill="#000000" text-anchor="start" style="white-space: pre;" direction="ltr" dominant-baseline="text-before-edge">Header</text></g><g transform="translate(452.6667175292969 44.000030517578125) rotate(0 38.499969482421875 12.5)"><text x="0" y="0" font-family="Virgil, Segoe UI Emoji" font-size="20px" fill="#000000" text-anchor="start" style="white-space: pre;" direction="ltr" dominant-baseline="text-before-edge">Payload</text></g><g transform="translate(788.3333435058594 32.166656494140625) rotate(0 42.88996124267578 25)"><text x="0" y="0" font-family="Virgil, Segoe UI Emoji" font-size="20px" fill="#000000" text-anchor="start" style="white-space: pre;" direction="ltr" dominant-baseline="text-before-edge">Ethernet</text><text x="0" y="25" font-family="Virgil, Segoe UI Emoji" font-size="20px" fill="#000000" text-anchor="start" style="white-space: pre;" direction="ltr" dominant-baseline="text-before-edge">Trailer</text></g><g stroke-linecap="round" transform="translate(109.66665649414062 16.833328247070312) rotate(0 48.666656494140625 37.66667175292969)"><path d="M18.83 0 M18.83 0 C32.48 -1.99, 50.05 1.19, 78.5 0 M18.83 0 C32.26 -0.56, 45.9 0, 78.5 0 M78.5 0 C90.38 -0.75, 95.53 5.72, 97.33 18.83 M78.5 0 C89.05 -1.9, 98.25 6.17, 97.33 18.83 M97.33 18.83 C97.43 34, 95.98 45.2, 97.33 56.5 M97.33 18.83 C97.41 28.94, 97.79 37.82, 97.33 56.5 M97.33 56.5 C96.39 69.94, 90.12 76.94, 78.5 75.33 M97.33 56.5 C98.51 70.09, 90.17 74.7, 78.5 75.33 M78.5 75.33 C66.82 75.28, 51.01 76.5, 18.83 75.33 M78.5 75.33 C55.79 75.96, 31.46 75.15, 18.83 75.33 M18.83 75.33 C4.79 76.85, 1.25 68.74, 0 56.5 M18.83 75.33 C5.25 77.38, -2.21 70.81, 0 56.5 M0 56.5 C1.73 42.47, 0.71 31.73, 0 18.83 M0 56.5 C0.55 49.11, -0.86 41.38, 0 18.83 M0 18.83 C1.46 7.06, 5.17 0.89, 18.83 0 M0 18.83 C0.69 7.67, 7.37 -1.35, 18.83 0" stroke="#000000" stroke-width="1" fill="none"></path></g><g stroke-linecap="round" transform="translate(208 17.500015258789062) rotate(0 40.99998474121094 37.66667175292969)"><path d="M18.83 0 M18.83 0 C28.64 -1.9, 42.37 1.27, 63.17 0 M18.83 0 C28.81 -0.57, 38.99 -0.01, 63.17 0 M63.17 0 C75.05 -0.75, 80.2 5.72, 82 18.83 M63.17 0 C73.71 -1.9, 82.92 6.17, 82 18.83 M82 18.83 C82.09 34, 80.65 45.2, 82 56.5 M82 18.83 C82.07 28.94, 82.45 37.82, 82 56.5 M82 56.5 C81.06 69.94, 74.79 76.94, 63.17 75.33 M82 56.5 C83.18 70.09, 74.84 74.7, 63.17 75.33 M63.17 75.33 C54.78 75.33, 42.27 76.55, 18.83 75.33 M63.17 75.33 C46.44 75.95, 28.1 75.14, 18.83 75.33 M18.83 75.33 C4.79 76.85, 1.25 68.74, 0 56.5 M18.83 75.33 C5.25 77.38, -2.21 70.81, 0 56.5 M0 56.5 C1.73 42.47, 0.71 31.73, 0 18.83 M0 56.5 C0.55 49.11, -0.86 41.38, 0 18.83 M0 18.83 C1.46 7.06, 5.17 0.89, 18.83 0 M0 18.83 C0.69 7.67, 7.37 -1.35, 18.83 0" stroke="#000000" stroke-width="1" fill="none"></path></g><g stroke-linecap="round" transform="translate(290.6666564941406 18.166671752929688) rotate(0 246.6666717529297 37.66667175292969)"><path d="M18.83 0 M18.83 0 C132.35 -2, 247.72 -0.49, 474.5 0 M18.83 0 C121.44 -0.06, 224.15 0.21, 474.5 0 M474.5 0 C486.38 -0.75, 491.53 5.72, 493.33 18.83 M474.5 0 C485.05 -1.9, 494.25 6.17, 493.33 18.83 M493.33 18.83 C493.43 34, 491.98 45.2, 493.33 56.5 M493.33 18.83 C493.41 28.94, 493.79 37.82, 493.33 56.5 M493.33 56.5 C492.39 69.94, 486.12 76.94, 474.5 75.33 M493.33 56.5 C494.51 70.09, 486.17 74.7, 474.5 75.33 M474.5 75.33 C377.1 74.69, 277.74 75.26, 18.83 75.33 M474.5 75.33 C296.91 75.77, 118.55 75.39, 18.83 75.33 M18.83 75.33 C4.79 76.85, 1.25 68.74, 0 56.5 M18.83 75.33 C5.25 77.38, -2.21 70.81, 0 56.5 M0 56.5 C1.73 42.47, 0.71 31.73, 0 18.83 M0 56.5 C0.55 49.11, -0.86 41.38, 0 18.83 M0 18.83 C1.46 7.06, 5.17 0.89, 18.83 0 M0 18.83 C0.69 7.67, 7.37 -1.35, 18.83 0" stroke="#000000" stroke-width="1" fill="none"></path></g><g stroke-linecap="round" transform="translate(783.6666564941406 17.833328247070312) rotate(0 48.666656494140625 37.66667175292969)"><path d="M18.83 0 M18.83 0 C32.48 -1.99, 50.05 1.19, 78.5 0 M18.83 0 C32.26 -0.56, 45.9 0, 78.5 0 M78.5 0 C90.38 -0.75, 95.53 5.72, 97.33 18.83 M78.5 0 C89.05 -1.9, 98.25 6.17, 97.33 18.83 M97.33 18.83 C97.43 34, 95.98 45.2, 97.33 56.5 M97.33 18.83 C97.41 28.94, 97.79 37.82, 97.33 56.5 M97.33 56.5 C96.39 69.94, 90.12 76.94, 78.5 75.33 M97.33 56.5 C98.51 70.09, 90.17 74.7, 78.5 75.33 M78.5 75.33 C66.82 75.28, 51.01 76.5, 18.83 75.33 M78.5 75.33 C55.79 75.96, 31.46 75.15, 18.83 75.33 M18.83 75.33 C4.79 76.85, 1.25 68.74, 0 56.5 M18.83 75.33 C5.25 77.38, -2.21 70.81, 0 56.5 M0 56.5 C1.73 42.47, 0.71 31.73, 0 18.83 M0 56.5 C0.55 49.11, -0.86 41.38, 0 18.83 M0 18.83 C1.46 7.06, 5.17 0.89, 18.83 0 M0 18.83 C0.69 7.67, 7.37 -1.35, 18.83 0" stroke="#000000" stroke-width="1" fill="none"></path></g><g transform="translate(119.66665649414062 103) rotate(0 36.2559814453125 10)"><text x="0" y="0" font-family="Virgil, Segoe UI Emoji" font-size="16px" fill="#000000" text-anchor="start" style="white-space: pre;" direction="ltr" dominant-baseline="text-before-edge">20 bytes</text></g><g transform="translate(23.743988037109375 103.83340454101562) rotate(0 32.34397888183594 10)"><text x="0" y="0" font-family="Virgil, Segoe UI Emoji" font-size="16px" fill="#000000" text-anchor="start" style="white-space: pre;" direction="ltr" dominant-baseline="text-before-edge">14 bytes</text></g><g transform="translate(218.7440185546875 104.83340454101562) rotate(0 31.175979614257812 10)"><text x="0" y="0" font-family="Virgil, Segoe UI Emoji" font-size="16px" fill="#000000" text-anchor="start" style="white-space: pre;" direction="ltr" dominant-baseline="text-before-edge">8 bytes</text></g><g transform="translate(474.0774230957031 108.50009155273438) rotate(0 19.743988037109375 10)"><text x="0" y="0" font-family="Virgil, Segoe UI Emoji" font-size="16px" fill="#000000" text-anchor="start" style="white-space: pre;" direction="ltr" dominant-baseline="text-before-edge">data</text></g><g transform="translate(801.4107971191406 104.83340454101562) rotate(0 30.175979614257812 10)"><text x="0" y="0" font-family="Virgil, Segoe UI Emoji" font-size="16px" fill="#000000" text-anchor="start" style="white-space: pre;" direction="ltr" dominant-baseline="text-before-edge">4 bytes</text></g></svg>