<?xml version="1.0" encoding="UTF-8" standalone="no"?>
<!DOCTYPE svg PUBLIC "-//W3C//DTD SVG 1.1//EN" "http://www.w3.org/Graphics/SVG/1.1/DTD/svg11.dtd">
<svg width="640px" height="288px" version="1.1" xmlns="http://www.w3.org/2000/svg" xmlns:xlink="http://www.w3.org/1999/xlink" xml:space="preserve" xmlns:serif="http://www.serif.com/" style="fill-rule:evenodd;clip-rule:evenodd;stroke-linecap:round;stroke-linejoin:round;stroke-miterlimit:1.5;">
    <path d="M450.583,46.464C450.583,29.683 463.764,16.059 480,16.059C496.236,16.059 509.417,29.683 509.417,46.464C518.859,31.931 537.94,25.989 552,33.203C566.06,40.418 569.81,58.074 560.369,72.607C576.722,64.216 596.59,67.549 604.708,80.044C612.825,92.539 606.139,109.496 589.786,117.887C608.669,117.887 624,129.601 624,144.029C624,158.458 608.669,170.172 589.786,170.172C606.139,178.562 612.825,195.519 604.708,208.015C596.59,220.51 576.722,223.842 560.369,215.452C569.81,229.985 566.06,247.641 552,254.855C537.94,262.069 518.859,256.127 509.417,241.594C509.417,258.376 496.236,272 480,272C463.764,272 450.583,258.376 450.583,241.594C441.141,256.127 422.06,262.069 408,254.855C393.94,247.641 390.19,229.985 399.631,215.452C383.278,223.842 363.41,220.51 355.292,208.015C347.175,195.519 353.861,178.562 370.214,170.172C351.331,170.172 336,158.458 336,144.029C336,129.601 351.331,117.887 370.214,117.887C353.861,109.496 347.175,92.539 355.292,80.044C363.41,67.549 383.278,64.216 399.631,72.607C390.19,58.074 393.94,40.418 408,33.203C422.06,25.989 441.141,31.931 450.583,46.464Z" style="fill:rgb(144,202,249);stroke:black;stroke-width:1px;"/>
    <text x="454.087px" y="64.736px" style="font-family:'Helvetica';font-size:20px;">Cloud</text>
    <g>
        <rect x="416" y="184.059" width="128" height="32" style="fill:rgb(239,154,154);stroke:black;stroke-width:1px;"/>
        <text x="430.711px" y="207.046px" style="font-family:'Helvetica';font-size:20px;">meine Datei</text>
    </g>
    <path d="M320,32C320,23.169 312.831,16 304,16L32,16C23.169,16 16,23.169 16,32L16,160C16,168.831 23.169,176 32,176L304,176C312.831,176 320,168.831 320,160L320,32Z" style="fill:rgb(176,190,197);stroke:black;stroke-width:1px;"/>
    <text x="137.033px" y="39.346px" style="font-family:'Helvetica';font-size:20px;">Laptop</text>
    <g id="App">
        <path d="M128,73.705C128,68.414 123.704,64.117 118.412,64.117L41.588,64.117C36.296,64.117 32,68.414 32,73.705L32,150.412C32,155.704 36.296,160 41.588,160L118.412,160C123.704,160 128,155.704 128,150.412L128,73.705Z" style="fill:rgb(165,214,167);stroke:black;stroke-width:1px;"/>
        <text x="62.441px" y="87.346px" style="font-family:'Helvetica';font-size:20px;">App</text>
    </g>
    <g id="Browser">
        <path d="M304,73.705C304,68.414 299.704,64.117 294.412,64.117L153.588,64.117C148.296,64.117 144,68.414 144,73.705L144,150.412C144,155.704 148.296,160 153.588,160L294.412,160C299.704,160 304,155.704 304,150.412L304,73.705Z" style="fill:rgb(165,214,167);stroke:black;stroke-width:1px;"/>
        <text x="186.705px" y="88.346px" style="font-family:'Helvetica';font-size:20px;">Browser</text>
    </g>
    <g id="Web-App">
        <path d="M288,115.259C288,113.492 286.566,112.059 284.8,112.059L163.2,112.059C161.434,112.059 160,113.492 160,115.259L160,140.859C160,142.625 161.434,144.059 163.2,144.059L284.8,144.059C286.566,144.059 288,142.625 288,140.859L288,115.259Z" style="fill:rgb(255,224,130);stroke:black;stroke-width:1px;"/>
        <text x="182.516px" y="133.171px" style="font-family:'Helvetica';font-size:20px;">Web-App</text>
    </g>
    <g id="Web-App1" serif:id="Web-App">
        <path d="M544,115.229C544,113.463 542.566,112.029 540.8,112.029L419.2,112.029C417.434,112.029 416,113.463 416,115.229L416,140.829C416,142.595 417.434,144.029 419.2,144.029L540.8,144.029C542.566,144.029 544,142.595 544,140.829L544,115.229Z" style="fill:rgb(255,224,130);stroke:black;stroke-width:1px;"/>
        <text x="438.516px" y="133.171px" style="font-family:'Helvetica';font-size:20px;">Web-App</text>
    </g>
    <path d="M403.999,202.002L416,208L404.001,214.002C407.001,211.002 406.999,205.002 403.999,202.002Z"/>
    <path d="M80,160.059L80,208.059C80,208.059 351.523,208.011 406.4,208.002" style="fill:none;stroke:black;stroke-width:2px;"/>
    <path d="M300,134.029L288,128.029L300,122.029C297,125.029 297,131.029 300,134.029Z"/>
    <path d="M416,128.029L297.6,128.029" style="fill:none;stroke:black;stroke-width:2px;"/>
    <path d="M404,186L416,192L404,198C407,195 407,189 404,186Z"/>
    <path d="M224,144.059L224,192L406.4,192" style="fill:none;stroke:black;stroke-width:2px;"/>
</svg>
