<?xml version="1.0" encoding="UTF-8" standalone="no"?>
<!DOCTYPE svg PUBLIC "-//W3C//DTD SVG 1.1//EN" "http://www.w3.org/Graphics/SVG/1.1/DTD/svg11.dtd">
<svg width="640px" height="192px" version="1.1" xmlns="http://www.w3.org/2000/svg" xmlns:xlink="http://www.w3.org/1999/xlink" xml:space="preserve" xmlns:serif="http://www.serif.com/" style="fill-rule:evenodd;clip-rule:evenodd;stroke-linecap:round;stroke-linejoin:round;stroke-miterlimit:1.5;">
    <g id="Ausgabe">
        <rect x="464" y="18.835" width="160" height="48" style="fill:rgb(239,154,154);stroke:black;stroke-width:1px;"/>
        <text x="504.811px" y="47.82px" style="font-family:'Helvetica';font-size:20px;">Ausgabe</text>
    </g>
    <g id="Speicherung">
        <rect x="240" y="128" width="160" height="48" style="fill:rgb(144,202,249);stroke:black;stroke-width:1px;"/>
        <text x="264.043px" y="157.142px" style="font-family:'Helvetica';font-size:20px;">Speicherung</text>
    </g>
    <g id="Verarbeitung">
        <rect x="240" y="16" width="160" height="48" style="fill:rgb(165,214,167);stroke:black;stroke-width:1px;"/>
        <text x="263.164px" y="44.985px" style="font-family:'Helvetica';font-size:20px;">Verarbeitung</text>
    </g>
    <g id="Eingabe">
        <rect x="16" y="16" width="160" height="48" style="fill:rgb(255,204,128);stroke:black;stroke-width:1px;"/>
        <text x="58.881px" y="44.985px" style="font-family:'Helvetica';font-size:20px;">Eingabe</text>
    </g>
    <path d="M228,34L240,40L228,46C231,43 231,37 228,34Z"/>
    <path d="M176,40L230.4,40" style="fill:none;stroke:black;stroke-width:2px;stroke-linecap:butt;"/>
    <path d="M452,34L464,40L452,46C455,43 455,37 452,34Z"/>
    <path d="M400,40L454.4,40" style="fill:none;stroke:black;stroke-width:2px;stroke-linecap:butt;"/>
    <path d="M326,76L320,64L314,76C317,73 323,73 326,76Z"/>
    <path d="M326,116L320,128L314,116C317,119 323,119 326,116Z"/>
    <path d="M320,73.6L320,118.4" style="fill:none;stroke:black;stroke-width:2px;stroke-linecap:butt;"/>
</svg>
