<?xml version="1.0" encoding="UTF-8"?><svg xmlns="http://www.w3.org/2000/svg" xmlns:xlink="http://www.w3.org/1999/xlink" fill-opacity="1" color-rendering="auto" color-interpolation="auto" text-rendering="auto" stroke="black" stroke-linecap="square" width="369" stroke-miterlimit="10" shape-rendering="auto" stroke-opacity="1" fill="black" stroke-dasharray="none" font-weight="normal" stroke-width="1" height="204" font-family="'Dialog'" font-style="normal" stroke-linejoin="miter" font-size="12px" stroke-dashoffset="0" image-rendering="auto">
  <!--Generated by ySVG 2.5-->
  <defs id="genericDefs"/>
  <g>
    <defs id="defs1">
      <clipPath clipPathUnits="userSpaceOnUse" id="clipPath1">
        <path d="M0 0 L369 0 L369 204 L0 204 L0 0 Z"/>
      </clipPath>
      <clipPath clipPathUnits="userSpaceOnUse" id="clipPath2">
        <path d="M213 90 L582 90 L582 294 L213 294 L213 90 Z"/>
      </clipPath>
    </defs>
    <g fill="white" text-rendering="geometricPrecision" shape-rendering="geometricPrecision" transform="translate(-213,-90)" stroke="white">
      <rect x="213" width="369" height="204" y="90" clip-path="url(#clipPath2)" stroke="none"/>
    </g>
    <g fill="rgb(255,204,0)" text-rendering="geometricPrecision" shape-rendering="geometricPrecision" transform="matrix(1,0,0,1,-213,-90)" stroke="rgb(255,204,0)">
      <circle r="15" clip-path="url(#clipPath2)" cx="428" cy="120" stroke="none"/>
    </g>
    <g text-rendering="geometricPrecision" stroke-miterlimit="1.45" shape-rendering="geometricPrecision" transform="matrix(1,0,0,1,-213,-90)" stroke-linecap="butt">
      <circle fill="none" r="15" clip-path="url(#clipPath2)" cx="428" cy="120"/>
      <text x="426.2715" xml:space="preserve" y="124.5352" clip-path="url(#clipPath2)" font-family="sans-serif" stroke="none">I</text>
    </g>
    <g fill="rgb(255,204,0)" text-rendering="geometricPrecision" shape-rendering="geometricPrecision" transform="matrix(1,0,0,1,-213,-90)" stroke="rgb(255,204,0)">
      <circle r="15" clip-path="url(#clipPath2)" cx="363" cy="204" stroke="none"/>
    </g>
    <g text-rendering="geometricPrecision" stroke-miterlimit="1.45" shape-rendering="geometricPrecision" transform="matrix(1,0,0,1,-213,-90)" stroke-linecap="butt">
      <circle fill="none" r="15" clip-path="url(#clipPath2)" cx="363" cy="204"/>
      <text x="358.8486" xml:space="preserve" y="208.5352" clip-path="url(#clipPath2)" font-family="sans-serif" stroke="none">C</text>
    </g>
    <g fill="rgb(255,204,0)" text-rendering="geometricPrecision" shape-rendering="geometricPrecision" transform="matrix(1,0,0,1,-213,-90)" stroke="rgb(255,204,0)">
      <circle r="15" clip-path="url(#clipPath2)" cx="416" cy="204" stroke="none"/>
    </g>
    <g text-rendering="geometricPrecision" stroke-miterlimit="1.45" shape-rendering="geometricPrecision" transform="matrix(1,0,0,1,-213,-90)" stroke-linecap="butt">
      <circle fill="none" r="15" clip-path="url(#clipPath2)" cx="416" cy="204"/>
      <text x="412.5488" xml:space="preserve" y="208.5352" clip-path="url(#clipPath2)" font-family="sans-serif" stroke="none">B</text>
    </g>
    <g fill="rgb(255,204,0)" text-rendering="geometricPrecision" shape-rendering="geometricPrecision" transform="matrix(1,0,0,1,-213,-90)" stroke="rgb(255,204,0)">
      <circle r="15" clip-path="url(#clipPath2)" cx="481" cy="204" stroke="none"/>
    </g>
    <g text-rendering="geometricPrecision" stroke-miterlimit="1.45" shape-rendering="geometricPrecision" transform="matrix(1,0,0,1,-213,-90)" stroke-linecap="butt">
      <circle fill="none" r="15" clip-path="url(#clipPath2)" cx="481" cy="204"/>
      <text x="476.5908" xml:space="preserve" y="208.5352" clip-path="url(#clipPath2)" font-family="sans-serif" stroke="none">H</text>
    </g>
    <g fill="rgb(255,204,0)" text-rendering="geometricPrecision" shape-rendering="geometricPrecision" transform="matrix(1,0,0,1,-213,-90)" stroke="rgb(255,204,0)">
      <circle r="15" clip-path="url(#clipPath2)" cx="552" cy="204" stroke="none"/>
    </g>
    <g text-rendering="geometricPrecision" stroke-miterlimit="1.45" shape-rendering="geometricPrecision" transform="matrix(1,0,0,1,-213,-90)" stroke-linecap="butt">
      <circle fill="none" r="15" clip-path="url(#clipPath2)" cx="552" cy="204"/>
      <text x="548.6836" xml:space="preserve" y="208.5352" clip-path="url(#clipPath2)" font-family="sans-serif" stroke="none">P</text>
    </g>
    <g fill="rgb(255,204,0)" text-rendering="geometricPrecision" shape-rendering="geometricPrecision" transform="matrix(1,0,0,1,-213,-90)" stroke="rgb(255,204,0)">
      <circle r="15" clip-path="url(#clipPath2)" cx="303" cy="204" stroke="none"/>
    </g>
    <g text-rendering="geometricPrecision" stroke-miterlimit="1.45" shape-rendering="geometricPrecision" transform="matrix(1,0,0,1,-213,-90)" stroke-linecap="butt">
      <circle fill="none" r="15" clip-path="url(#clipPath2)" cx="303" cy="204"/>
      <text x="297.832" xml:space="preserve" y="208.5352" clip-path="url(#clipPath2)" font-family="sans-serif" stroke="none">M</text>
    </g>
    <g fill="rgb(255,204,0)" text-rendering="geometricPrecision" shape-rendering="geometricPrecision" transform="matrix(1,0,0,1,-213,-90)" stroke="rgb(255,204,0)">
      <circle r="15" clip-path="url(#clipPath2)" cx="311" cy="264" stroke="none"/>
    </g>
    <g text-rendering="geometricPrecision" stroke-miterlimit="1.45" shape-rendering="geometricPrecision" transform="matrix(1,0,0,1,-213,-90)" stroke-linecap="butt">
      <circle fill="none" r="15" clip-path="url(#clipPath2)" cx="311" cy="264"/>
      <text x="307.2441" xml:space="preserve" y="268.5352" clip-path="url(#clipPath2)" font-family="sans-serif" stroke="none">X</text>
    </g>
    <g fill="rgb(255,204,0)" text-rendering="geometricPrecision" shape-rendering="geometricPrecision" transform="matrix(1,0,0,1,-213,-90)" stroke="rgb(255,204,0)">
      <circle r="15" clip-path="url(#clipPath2)" cx="243" cy="264" stroke="none"/>
    </g>
    <g text-rendering="geometricPrecision" stroke-miterlimit="1.45" shape-rendering="geometricPrecision" transform="matrix(1,0,0,1,-213,-90)" stroke-linecap="butt">
      <circle fill="none" r="15" clip-path="url(#clipPath2)" cx="243" cy="264"/>
      <text x="238.8604" xml:space="preserve" y="268.5352" clip-path="url(#clipPath2)" font-family="sans-serif" stroke="none">A</text>
    </g>
    <g fill="rgb(255,204,0)" text-rendering="geometricPrecision" shape-rendering="geometricPrecision" transform="matrix(1,0,0,1,-213,-90)" stroke="rgb(255,204,0)">
      <circle r="15" clip-path="url(#clipPath2)" cx="435.5" cy="264" stroke="none"/>
    </g>
    <g text-rendering="geometricPrecision" stroke-miterlimit="1.45" shape-rendering="geometricPrecision" transform="matrix(1,0,0,1,-213,-90)" stroke-linecap="butt">
      <circle fill="none" r="15" clip-path="url(#clipPath2)" cx="435.5" cy="264"/>
      <text x="431.873" xml:space="preserve" y="268.5352" clip-path="url(#clipPath2)" font-family="sans-serif" stroke="none">Z</text>
    </g>
    <g fill="rgb(255,204,0)" text-rendering="geometricPrecision" shape-rendering="geometricPrecision" transform="matrix(1,0,0,1,-213,-90)" stroke="rgb(255,204,0)">
      <circle r="15" clip-path="url(#clipPath2)" cx="379" cy="264" stroke="none"/>
    </g>
    <g text-rendering="geometricPrecision" stroke-miterlimit="1.45" shape-rendering="geometricPrecision" transform="matrix(1,0,0,1,-213,-90)" stroke-linecap="butt">
      <circle fill="none" r="15" clip-path="url(#clipPath2)" cx="379" cy="264"/>
      <text x="374.5059" xml:space="preserve" y="268.5352" clip-path="url(#clipPath2)" font-family="sans-serif" stroke="none">D</text>
    </g>
    <g fill="rgb(255,204,0)" text-rendering="geometricPrecision" shape-rendering="geometricPrecision" transform="matrix(1,0,0,1,-213,-90)" stroke="rgb(255,204,0)">
      <circle r="15" clip-path="url(#clipPath2)" cx="492" cy="264" stroke="none"/>
    </g>
    <g text-rendering="geometricPrecision" stroke-miterlimit="1.45" shape-rendering="geometricPrecision" transform="matrix(1,0,0,1,-213,-90)" stroke-linecap="butt">
      <circle fill="none" r="15" clip-path="url(#clipPath2)" cx="492" cy="264"/>
      <text x="488.8008" xml:space="preserve" y="268.5352" clip-path="url(#clipPath2)" font-family="sans-serif" stroke="none">L</text>
      <path fill="none" d="M418.8203 131.8631 L372.1797 192.1369" clip-path="url(#clipPath2)"/>
      <path fill="none" d="M425.8787 134.8492 L418.1213 189.1508" clip-path="url(#clipPath2)"/>
    </g>
    <g text-rendering="geometricPrecision" stroke-miterlimit="1.45" shape-rendering="geometricPrecision" transform="matrix(1,0,0,1,-213,-90)" stroke-linecap="butt">
      <path fill="none" d="M386 197.75 L388.85 202.5 L378 202.5 L378 205.5 L388.85 205.5 L386 210.25 L401 204 L386 197.75 Z" clip-path="url(#clipPath2)"/>
    </g>
    <g text-rendering="geometricPrecision" stroke-miterlimit="1.45" shape-rendering="geometricPrecision" transform="matrix(1,0,0,1,-213,-90)" stroke-linecap="butt">
      <path fill="none" d="M436.0042 132.6859 L472.9958 191.3141" clip-path="url(#clipPath2)"/>
    </g>
    <g text-rendering="geometricPrecision" stroke-miterlimit="1.45" shape-rendering="geometricPrecision" transform="matrix(1,0,0,1,-213,-90)" stroke-linecap="butt">
      <path fill="none" d="M451 197.75 L453.85 202.5 L431 202.5 L431 205.5 L453.85 205.5 L451 210.25 L466 204 L451 197.75 Z" clip-path="url(#clipPath2)"/>
    </g>
    <g text-rendering="geometricPrecision" stroke-miterlimit="1.45" shape-rendering="geometricPrecision" transform="matrix(1,0,0,1,-213,-90)" stroke-linecap="butt">
      <path fill="none" d="M440.4188 128.4127 L539.5812 195.5873" clip-path="url(#clipPath2)"/>
    </g>
    <g text-rendering="geometricPrecision" stroke-miterlimit="1.45" shape-rendering="geometricPrecision" transform="matrix(1,0,0,1,-213,-90)" stroke-linecap="butt">
      <path fill="none" d="M522 197.75 L524.85 202.5 L496 202.5 L496 205.5 L524.85 205.5 L522 210.25 L537 204 L522 197.75 Z" clip-path="url(#clipPath2)"/>
    </g>
    <g text-rendering="geometricPrecision" stroke-miterlimit="1.45" shape-rendering="geometricPrecision" transform="matrix(1,0,0,1,-213,-90)" stroke-linecap="butt">
      <path fill="none" d="M415.55 128.3664 L315.45 195.6336" clip-path="url(#clipPath2)"/>
    </g>
    <g text-rendering="geometricPrecision" stroke-miterlimit="1.45" shape-rendering="geometricPrecision" transform="matrix(1,0,0,1,-213,-90)" stroke-linecap="butt">
      <path fill="none" d="M414.7133 127.1214 L324.6979 187.6118 L324.414 182.0797 L315.45 195.6336 L331.386 192.4547 L326.3712 190.1018 L416.3866 129.6114 L414.7133 127.1214 Z" clip-path="url(#clipPath2)"/>
    </g>
    <g text-rendering="geometricPrecision" stroke-miterlimit="1.45" shape-rendering="geometricPrecision" transform="matrix(1,0,0,1,-213,-90)" stroke-linecap="butt">
      <path fill="none" d="M333 197.75 L335.85 202.5 L318 202.5 L318 205.5 L335.85 205.5 L333 210.25 L348 204 L333 197.75 Z" clip-path="url(#clipPath2)"/>
    </g>
    <g text-rendering="geometricPrecision" stroke-miterlimit="1.45" shape-rendering="geometricPrecision" transform="matrix(1,0,0,1,-213,-90)" stroke-linecap="butt">
      <path fill="none" d="M304.9825 218.8684 L309.0175 249.1316" clip-path="url(#clipPath2)"/>
      <path fill="none" d="M292.3934 214.6066 L253.6066 253.3934" clip-path="url(#clipPath2)"/>
    </g>
    <g text-rendering="geometricPrecision" stroke-miterlimit="1.45" shape-rendering="geometricPrecision" transform="matrix(1,0,0,1,-213,-90)" stroke-linecap="butt">
      <path fill="none" d="M536.9891 205.3867 L269.3663 257.3523 L271.2586 252.1462 L257.725 261.1408 L273.6413 264.417 L269.9381 260.2973 L269.9381 260.2973 L537.561 208.3317 L536.9891 205.3867 Z" clip-path="url(#clipPath2)"/>
    </g>
    <g text-rendering="geometricPrecision" stroke-miterlimit="1.45" shape-rendering="geometricPrecision" transform="matrix(1,0,0,1,-213,-90)" stroke-linecap="butt">
      <path fill="none" d="M281 257.75 L283.85 262.5 L258 262.5 L258 265.5 L283.85 265.5 L281 270.25 L296 264 L281 257.75 Z" clip-path="url(#clipPath2)"/>
    </g>
    <g text-rendering="geometricPrecision" stroke-miterlimit="1.45" shape-rendering="geometricPrecision" transform="matrix(1,0,0,1,-213,-90)" stroke-linecap="butt">
      <path fill="none" d="M420.6363 218.2655 L430.8637 249.7345" clip-path="url(#clipPath2)"/>
      <path fill="none" d="M408.1267 216.7676 L386.8733 251.2324" clip-path="url(#clipPath2)"/>
    </g>
    <g text-rendering="geometricPrecision" stroke-miterlimit="1.45" shape-rendering="geometricPrecision" transform="matrix(1,0,0,1,-213,-90)" stroke-linecap="butt">
      <path fill="none" d="M349 257.75 L351.85 262.5 L326 262.5 L326 265.5 L351.85 265.5 L349 270.25 L364 264 L349 257.75 Z" clip-path="url(#clipPath2)"/>
    </g>
    <g text-rendering="geometricPrecision" stroke-miterlimit="1.45" shape-rendering="geometricPrecision" transform="matrix(1,0,0,1,-213,-90)" stroke-linecap="butt">
      <path fill="none" d="M405.5 257.75 L408.35 262.5 L394 262.5 L394 265.5 L408.35 265.5 L405.5 270.25 L420.5 264 L405.5 257.75 Z" clip-path="url(#clipPath2)"/>
    </g>
    <g text-rendering="geometricPrecision" stroke-miterlimit="1.45" shape-rendering="geometricPrecision" transform="matrix(1,0,0,1,-213,-90)" stroke-linecap="butt">
      <path fill="none" d="M483.7049 218.7541 L489.2951 249.2459" clip-path="url(#clipPath2)"/>
    </g>
    <g text-rendering="geometricPrecision" stroke-miterlimit="1.45" shape-rendering="geometricPrecision" transform="matrix(1,0,0,1,-213,-90)" stroke-linecap="butt">
      <path fill="none" d="M462 257.75 L464.85 262.5 L450.5 262.5 L450.5 265.5 L464.85 265.5 L462 270.25 L477 264 L462 257.75 Z" clip-path="url(#clipPath2)"/>
    </g>
  </g>
</svg>
