<?xml version="1.0" encoding="UTF-8" standalone="no"?>
<!DOCTYPE svg PUBLIC "-//W3C//DTD SVG 1.1//EN" "http://www.w3.org/Graphics/SVG/1.1/DTD/svg11.dtd">
<svg width="368px" height="192px" version="1.1" xmlns="http://www.w3.org/2000/svg" xmlns:xlink="http://www.w3.org/1999/xlink" xml:space="preserve" xmlns:serif="http://www.serif.com/" style="fill-rule:evenodd;clip-rule:evenodd;stroke-linejoin:round;stroke-miterlimit:1.5;">
    <path d="M80,144L112,144" style="fill:none;stroke:black;stroke-width:2px;"/>
    <path d="M80,48L112,48" style="fill:none;stroke:black;stroke-width:2px;"/>
    <path d="M256,96L288,96" style="fill:none;stroke:black;stroke-width:2px;"/>
    <g id="Heizung">
        <rect x="288" y="64" width="64" height="64" style="fill:rgb(255,204,128);stroke:black;stroke-width:2px;stroke-linecap:round;"/>
        <g>
            <path d="M331.671,98.764L330.443,98.764L330.443,91.393L331.671,91.393L331.671,88.943C331.671,86.225 333.877,84.021 336.586,84.021C339.3,84.021 341.5,86.217 341.5,88.943L341.5,111.043C341.5,113.761 339.294,115.964 336.586,115.964C333.874,115.964 331.675,113.772 331.671,111.05L330.443,111.05L330.443,103.679L331.671,103.679L331.671,98.764ZM320.614,98.764L319.386,98.764L319.386,91.393L320.614,91.393L320.614,88.943C320.614,86.225 322.82,84.021 325.529,84.021C328.243,84.021 330.443,86.217 330.443,88.943L330.443,111.043C330.443,113.761 328.237,115.964 325.529,115.964C322.817,115.964 320.618,113.772 320.614,111.05L319.386,111.05L319.386,103.679L320.614,103.679L320.614,98.764ZM309.557,98.764L308.329,98.764L308.329,91.393L309.557,91.393L309.557,88.943C309.557,86.225 311.763,84.021 314.471,84.021C317.186,84.021 319.386,86.217 319.386,88.943L319.386,111.043C319.386,113.761 317.18,115.964 314.471,115.964C311.76,115.964 309.561,113.772 309.557,111.05L308.329,111.05L308.329,103.679L309.557,103.679L309.557,98.764ZM330.315,79.708C330.401,79.993 330.449,80.276 330.442,80.523C330.438,80.682 330.393,80.79 330.223,81.073C330.219,81.081 330.219,81.081 330.214,81.088C329.94,81.545 329.83,81.82 329.829,82.259C329.828,82.705 329.9,82.965 330.182,83.643C330.313,83.956 330.672,84.105 330.986,83.974C331.299,83.844 331.447,83.484 331.317,83.171C331.092,82.632 331.057,82.504 331.057,82.262C331.058,82.105 331.1,82 331.268,81.72C331.272,81.713 331.272,81.713 331.277,81.705C331.548,81.253 331.658,80.988 331.67,80.558C331.682,80.161 331.612,79.754 331.491,79.353C331.425,79.133 331.357,78.959 331.308,78.852C331.167,78.543 330.803,78.407 330.494,78.549C330.185,78.69 330.05,79.054 330.191,79.363C330.219,79.423 330.266,79.546 330.315,79.708ZM303.414,84.021C306.128,84.021 308.329,86.217 308.329,88.943L308.329,111.043C308.329,113.761 306.123,115.964 303.414,115.964C300.7,115.964 298.5,113.769 298.5,111.043L298.5,88.943C298.5,86.225 300.706,84.021 303.414,84.021ZM300.957,111.043C300.957,112.409 302.055,113.507 303.414,113.507C304.767,113.507 305.871,112.402 305.871,111.043L305.871,88.943C305.871,87.577 304.774,86.479 303.414,86.479C302.061,86.479 300.957,87.583 300.957,88.943L300.957,111.043ZM312.014,111.043C312.014,112.409 313.112,113.507 314.471,113.507C315.825,113.507 316.929,112.402 316.929,111.043L316.929,88.943C316.929,87.577 315.831,86.479 314.471,86.479C313.118,86.479 312.014,87.583 312.014,88.943L312.014,111.043ZM323.071,111.043C323.071,112.409 324.169,113.507 325.529,113.507C326.882,113.507 327.986,112.402 327.986,111.043L327.986,88.943C327.986,87.577 326.888,86.479 325.529,86.479C324.175,86.479 323.071,87.583 323.071,88.943L323.071,111.043ZM334.129,111.043C334.129,112.409 335.226,113.507 336.586,113.507C337.939,113.507 339.043,112.402 339.043,111.043L339.043,88.943C339.043,87.577 337.945,86.479 336.586,86.479C335.233,86.479 334.129,87.583 334.129,88.943L334.129,111.043ZM307.894,79.353C307.773,79.754 307.704,80.161 307.715,80.558C307.728,80.988 307.838,81.253 308.109,81.705C308.114,81.713 308.114,81.713 308.118,81.72C308.286,82 308.328,82.105 308.329,82.262C308.329,82.504 308.294,82.632 308.069,83.171C307.939,83.484 308.087,83.844 308.4,83.974C308.713,84.105 309.073,83.956 309.203,83.643C309.486,82.965 309.558,82.705 309.557,82.259C309.556,81.82 309.445,81.545 309.172,81.088C309.167,81.081 309.167,81.081 309.163,81.073C308.993,80.79 308.948,80.682 308.944,80.523C308.936,80.276 308.985,79.993 309.07,79.708C309.119,79.546 309.167,79.423 309.195,79.363C309.336,79.054 309.2,78.69 308.892,78.549C308.583,78.407 308.219,78.543 308.078,78.852C308.028,78.959 307.961,79.133 307.894,79.353ZM319.733,77.535C319.913,78.004 320.014,78.468 319.999,78.88C319.988,79.176 319.88,79.381 319.511,79.863C319.502,79.875 319.502,79.875 319.493,79.887C318.975,80.566 318.773,80.96 318.771,81.604C318.77,82.272 318.905,82.655 319.456,83.695C319.615,83.995 319.987,84.109 320.287,83.95C320.586,83.791 320.701,83.419 320.542,83.12C320.079,82.245 319.999,82.02 320,81.607C320.001,81.314 320.106,81.11 320.47,80.633C320.479,80.621 320.479,80.621 320.488,80.609C321.003,79.935 321.203,79.554 321.226,78.925C321.248,78.324 321.114,77.705 320.88,77.095C320.752,76.76 320.622,76.5 320.53,76.341C320.359,76.048 319.983,75.948 319.69,76.119C319.397,76.29 319.297,76.666 319.468,76.959C319.53,77.065 319.631,77.268 319.733,77.535Z"/>
        </g>
    </g>
    <g id="Lichtsensor">
        <rect x="16" y="112" width="64" height="64" style="fill:rgb(144,202,249);stroke:black;stroke-width:2px;stroke-linecap:round;"/>
        <g>
            <path d="M48,132.194C48.731,132.194 49.324,131.601 49.324,130.87L49.324,125.574C49.324,124.843 48.731,124.25 48,124.25C47.269,124.25 46.676,124.843 46.676,125.574L46.676,130.87C46.676,131.601 47.269,132.194 48,132.194Z" style="fill-rule:nonzero;"/>
            <path d="M46.676,157.13L46.676,162.426C46.676,163.157 47.269,163.75 48,163.75C48.731,163.75 49.324,163.157 49.324,162.426L49.324,157.13C49.324,156.399 48.731,155.806 48,155.806C47.269,155.806 46.676,156.399 46.676,157.13Z" style="fill-rule:nonzero;"/>
            <path d="M66.426,142.676L61.13,142.676C60.399,142.676 59.806,143.269 59.806,144C59.806,144.731 60.399,145.324 61.13,145.324L66.426,145.324C67.157,145.324 67.75,144.731 67.75,144C67.75,143.269 67.157,142.676 66.426,142.676Z" style="fill-rule:nonzero;"/>
            <path d="M36.194,144C36.194,143.269 35.601,142.676 34.87,142.676L29.574,142.676C28.843,142.676 28.25,143.269 28.25,144C28.25,144.731 28.843,145.324 29.574,145.324L34.87,145.324C35.601,145.324 36.194,144.731 36.194,144Z" style="fill-rule:nonzero;"/>
            <path d="M57.284,136.04C57.623,136.04 57.962,135.91 58.221,135.652L61.965,131.907C62.483,131.39 62.483,130.551 61.965,130.035C61.449,129.517 60.61,129.517 60.093,130.035L56.348,133.779C55.831,134.296 55.831,135.135 56.348,135.652C56.607,135.91 56.946,136.04 57.284,136.04Z" style="fill-rule:nonzero;"/>
            <path d="M37.779,152.348L34.035,156.093C33.517,156.61 33.517,157.448 34.035,157.965C34.293,158.224 34.632,158.353 34.971,158.353C35.309,158.353 35.649,158.224 35.907,157.965L39.652,154.22C40.169,153.703 40.169,152.865 39.652,152.348C39.135,151.831 38.296,151.831 37.779,152.348Z" style="fill-rule:nonzero;"/>
            <path d="M56.348,152.348C55.831,152.865 55.831,153.704 56.348,154.221L60.093,157.965C60.351,158.224 60.691,158.353 61.029,158.353C61.368,158.353 61.707,158.224 61.965,157.965C62.483,157.449 62.483,156.61 61.965,156.093L58.221,152.348C57.704,151.831 56.865,151.831 56.348,152.348Z" style="fill-rule:nonzero;"/>
            <path d="M37.779,135.652C38.038,135.91 38.377,136.04 38.716,136.04C39.054,136.04 39.393,135.91 39.652,135.652C40.169,135.135 40.169,134.296 39.652,133.779L35.907,130.035C35.39,129.517 34.551,129.517 34.035,130.035C33.517,130.551 33.517,131.39 34.035,131.907L37.779,135.652Z" style="fill-rule:nonzero;"/>
            <path d="M47.945,133.904C42.378,133.904 37.849,138.433 37.849,144C37.849,149.567 42.378,154.096 47.945,154.096C53.511,154.096 58.041,149.567 58.041,144C58.041,138.433 53.511,133.904 47.945,133.904ZM47.945,151.224C43.961,151.224 40.721,147.984 40.721,144C40.721,140.016 43.961,136.776 47.945,136.776C51.928,136.776 55.169,140.016 55.169,144C55.169,147.984 51.928,151.224 47.945,151.224Z" style="fill-rule:nonzero;"/>
        </g>
    </g>
    <g id="Temperatursensor">
        <rect x="16" y="16" width="64" height="64" style="fill:rgb(144,202,249);stroke:black;stroke-width:2px;stroke-linecap:round;"/>
        <g>
            <path d="M49.561,57.644L49.561,29.09C49.561,26.32 47.295,24.054 44.525,24.054C41.755,24.054 39.489,26.32 39.489,29.09L39.489,57.644C37.626,59.155 36.468,61.471 36.468,63.888C36.468,68.32 40.094,71.946 44.525,71.946C48.957,71.946 52.532,68.32 52.532,63.888C52.532,61.471 51.424,59.155 49.561,57.644ZM44.525,70.234C41.05,70.234 38.23,67.413 38.23,63.939C38.23,61.723 39.389,59.709 41.252,58.55L41.252,29.14C41.252,27.328 42.712,25.817 44.576,25.817C46.389,25.817 47.899,27.277 47.899,29.14L47.899,58.55C49.712,59.709 50.921,61.723 50.921,63.939C50.82,67.413 48,70.234 44.525,70.234Z" style="fill-rule:nonzero;"/>
            <path d="M46.086,59.608L46.086,29.14C46.086,28.284 45.381,27.579 44.525,27.579C43.669,27.579 42.964,28.284 42.964,29.14L42.964,59.608C41.202,60.262 39.943,61.924 39.943,63.888C39.943,66.406 42.007,68.471 44.525,68.471C47.043,68.471 49.108,66.406 49.108,63.888C49.108,61.924 47.849,60.262 46.086,59.608Z" style="fill-rule:nonzero;"/>
            <rect x="51.324" y="29.191" width="8.209" height="1.712"/>
            <rect x="51.324" y="34.881" width="3.878" height="1.712"/>
            <rect x="51.324" y="40.622" width="8.209" height="1.712"/>
            <rect x="51.324" y="46.313" width="3.878" height="1.712"/>
            <rect x="51.324" y="52.004" width="8.209" height="1.712"/>
        </g>
    </g>
    <g id="Lösung">
        <path d="M176,48L192,48L192,80L208,80" style="fill:none;stroke:black;stroke-width:2px;"/>
        <path d="M112,144L192,144L192,112L208,112" style="fill:none;stroke:black;stroke-width:2px;"/>
        <path id="AND-Gatter" d="M208,64L224,64C241.555,64 256,78.445 256,96C256,113.555 241.555,128 224,128L208,128L208,64Z" style="fill:white;fill-rule:nonzero;stroke:black;stroke-width:2px;stroke-linejoin:miter;stroke-miterlimit:10;"/>
        <g id="Inverter">
            <path d="M112,32L160,48L112,64L112,32Z" style="fill:white;fill-rule:nonzero;stroke:black;stroke-width:2px;stroke-linecap:square;stroke-linejoin:miter;stroke-miterlimit:10;"/>
            <path d="M176,48C176,52.389 172.389,56 168,56C163.611,56 160,52.389 160,48C160,43.611 163.611,40 168,40C172.386,40 175.996,43.606 176,47.992" style="fill:white;fill-rule:nonzero;stroke:black;stroke-width:2px;stroke-linejoin:miter;stroke-miterlimit:10;"/>
        </g>
    </g>
</svg>
