<?xml version="1.0" encoding="UTF-8" standalone="no"?>
<!DOCTYPE svg PUBLIC "-//W3C//DTD SVG 1.1//EN" "http://www.w3.org/Graphics/SVG/1.1/DTD/svg11.dtd">
<svg width="460px" height="350px" version="1.1" xmlns="http://www.w3.org/2000/svg" xmlns:xlink="http://www.w3.org/1999/xlink" xml:space="preserve" xmlns:serif="http://www.serif.com/" style="fill-rule:evenodd;clip-rule:evenodd;stroke-linecap:round;stroke-linejoin:round;">
    <g id="Calque-1" serif:id="Calque 1">
        <g id="Alice">
            <path d="M92.265,135.253C90.907,118.737 88.636,89.107 89.1,80.795C90.468,46.354 75.359,40.325 65.902,39.076C55.369,37.685 38.601,41.893 34.497,62.949C31.28,79.449 33.105,118.937 34.045,135.253L92.265,135.253Z" style="fill:rgb(183,34,61);fill-rule:nonzero;"/>
            <path d="M43.516,73.805C43.168,72.882 43.229,72.007 42.587,71.166C42.002,70.399 41.09,69.863 40.127,69.842C37.06,69.777 36.695,73.518 37.854,75.563C38.432,76.585 39.291,77.432 39.832,78.475C40.746,80.241 41.023,82.806 43.489,83.08C44.922,83.239 45.701,82.731 46.058,81.911C46.737,80.352 45.882,77.664 45.091,76.309C44.614,75.492 43.851,74.689 43.516,73.805Z" style="fill:rgb(226,180,118);fill-rule:nonzero;"/>
            <path d="M49.543,84.717C50.504,90.745 51.775,98.068 49.733,103.303C47.401,109.281 44.452,110.478 39.108,112.545C41.598,115.94 43.943,119.467 46.869,122.494C49.795,125.522 53.4,128.06 57.519,128.928C58.779,129.194 60.089,129.258 61.382,129.16L61.382,84.566C56.772,84.425 49.643,84.296 49.543,84.717Z" style="fill:rgb(211,169,101);fill-rule:nonzero;"/>
            <path d="M44.975,53.596C39.797,60.8 39.958,70.838 43.082,78.827C45.602,85.273 53.562,96.307 61.382,96.074L61.382,45.547C55.184,45.269 48.554,48.618 44.975,53.596Z" style="fill:rgb(226,180,118);fill-rule:nonzero;"/>
            <path d="M61.377,138.835L61.377,126.624C49.115,125.655 43.461,118.474 39.108,112.549C26.423,117.333 24.177,118.345 19.92,124.72C19.572,125.244 19.285,125.803 19.066,126.392C18.424,128.117 17.106,132.198 16.074,138.835L61.377,138.835Z" style="fill:rgb(240,102,166);fill-rule:nonzero;"/>
            <path d="M82.637,69.842C81.675,69.863 80.762,70.399 80.177,71.166C79.536,72.007 79.596,72.882 79.248,73.805C78.914,74.689 78.15,75.492 77.672,76.309C76.882,77.664 76.026,80.352 76.707,81.911C77.062,82.731 77.843,83.239 79.276,83.08C81.741,82.806 82.018,80.241 82.933,78.475C83.473,77.432 84.332,76.585 84.909,75.563C86.066,73.518 85.702,69.777 82.637,69.842Z" style="fill:rgb(236,188,131);fill-rule:nonzero;"/>
            <path d="M72.698,103.303C70.657,98.068 71.927,90.745 72.889,84.717C72.787,84.296 65.658,84.425 61.048,84.566L61.048,129.16C62.343,129.258 63.651,129.194 64.911,128.928C69.03,128.06 72.636,125.522 75.561,122.494C78.487,119.467 80.832,115.94 83.322,112.545C77.979,110.478 75.03,109.281 72.698,103.303Z" style="fill:rgb(226,180,118);fill-rule:nonzero;"/>
            <path d="M61.382,45.547L61.237,96.074C69.058,96.307 77.162,85.273 79.682,78.827C82.804,70.838 82.968,60.8 77.789,53.596C74.211,48.618 67.58,45.269 61.382,45.547Z" style="fill:rgb(236,188,131);fill-rule:nonzero;"/>
            <path d="M106.356,138.835C105.325,132.198 104.006,128.117 103.364,126.392C103.144,125.803 102.86,125.244 102.51,124.72C98.254,118.345 96.007,117.333 83.323,112.549C78.969,118.474 73.315,125.655 61.054,126.624L61.054,138.835L106.356,138.835Z" style="fill:rgb(230,79,155);fill-rule:nonzero;"/>
            <path d="M81.368,50.518C80.772,50.042 71.137,43.975 70.423,43.856C69.709,43.736 53.055,44.094 52.579,44.571C52.104,45.046 41.158,52.778 40.326,52.897L40.326,69.313L41.777,73.12C41.777,73.12 41.04,66.696 42.943,62.295C44.847,57.893 51.132,53.015 51.132,53.015C51.132,53.015 55.077,58.013 63.286,59.56C60.55,57.418 57.694,53.729 57.694,53.729C57.694,53.729 65.07,59.56 67.687,60.51C67.093,58.846 64.712,54.325 64.712,54.325C64.712,54.325 71.969,58.846 73.397,63.068C74.587,62.059 71.633,56.228 71.633,56.228C71.633,56.228 80.941,64.443 79.94,72.484C82.25,68.948 84.698,68.392 83.655,65.388C83.537,65.05 81.962,50.994 81.368,50.518Z" style="fill:rgb(183,34,61);fill-rule:nonzero;"/>
            <path d="M43.455,82.968C42.109,82.968 41.019,84.059 41.019,85.405C41.019,86.75 42.109,87.841 43.455,87.841C44.801,87.841 45.891,86.75 45.891,85.405C45.891,84.059 44.801,82.968 43.455,82.968Z" style="fill:rgb(165,216,232);fill-rule:nonzero;"/>
            <path d="M78.896,83.109C77.55,83.109 76.459,84.199 76.459,85.545C76.459,86.889 77.55,87.981 78.896,87.981C80.24,87.981 81.332,86.889 81.332,85.545C81.332,84.199 80.24,83.109 78.896,83.109Z" style="fill:rgb(165,216,232);fill-rule:nonzero;"/>
        </g>
        <text x="48.468px" y="153.96px" style="font-family:'ArialMT', 'Arial', sans-serif;font-size:12px;">Alice</text>
        <g id="Bob">
            <path d="M394.209,138.835C393.344,138.069 392.435,137.294 391.453,136.521C388.046,133.831 384.762,131.801 381.887,130.276C381.887,130.276 387.069,122.835 386.484,122.835L375.646,124.658C375.646,124.658 374.977,124.296 375.376,116.324C376.716,110.302 379.696,106.731 382.062,104.753C381.676,104.884 367.727,110.574 360.357,112.865C356.589,114.034 352.599,115.398 350.862,119.306C350.178,120.844 350.246,123.17 350.052,124.824C349.506,129.476 349.216,134.159 348.98,138.835L394.209,138.835Z" style="fill:rgb(113,101,82);fill-rule:nonzero;"/>
            <path d="M399.559,138.045C399.559,138.045 381.528,116.785 384.187,108.415C385.349,105.114 385.405,102.563 385.405,102.563C385.405,102.563 384.951,102.744 384.242,103.153C383.628,103.496 382.764,104.046 381.792,104.863C381.792,104.863 381.787,104.863 381.781,104.87C379.38,106.902 376.349,110.573 374.988,116.765C374.582,124.96 375.264,125.331 375.264,125.331L386.273,123.459C385.299,125.305 380.949,131.085 380.949,131.085C383.87,132.653 387.862,134.762 391.323,137.527C391.871,137.965 392.364,138.399 392.876,138.835L399.281,138.835C399.269,138.821 399.251,138.799 399.237,138.784L399.559,138.045Z" style="fill:rgb(135,121,96);fill-rule:nonzero;"/>
            <path d="M443.926,138.835C443.77,136.758 443.607,134.67 443.421,132.555C442.906,126.712 442.951,119.589 439.137,114.698C436.364,111.142 431.627,110.362 427.555,109.12C422.701,107.64 417.846,106.158 412.991,104.677C415.702,107.095 418.684,112.256 418.757,123.295C415.617,123.902 410.27,124.273 408.734,123.646C410.069,124.78 414.238,128.61 414.239,128.612C414.053,128.438 410.017,131.276 409.812,131.491C406.952,134.455 400.224,134.402 398.295,138.045C398.23,138.17 398.138,138.462 398.034,138.835L443.926,138.835Z" style="fill:rgb(135,121,96);fill-rule:nonzero;"/>
            <path d="M385.081,94.191C385.064,94.196 385.049,94.196 385.044,94.202C385.027,94.208 385.017,94.208 385.017,94.208C385.017,94.208 385.145,94.926 385.267,96.062C385.596,99.001 385.888,104.773 383.88,108.415C385.855,112.827 387.017,117.037 396.237,117.319L396.237,92.338C390.994,92.908 385.712,94.053 385.081,94.191Z" style="fill:rgb(237,169,130);fill-rule:nonzero;"/>
            <path d="M406.912,95.005C406.895,94.817 406.885,94.627 406.88,94.441C406.869,94.36 406.869,94.288 406.863,94.208C406.766,91.774 401.355,91.746 395.903,92.338L395.903,117.319C397.232,117.359 398.73,117.319 400.421,117.184C406.267,115.855 409.456,112.931 411.317,107.352C409.053,104.71 407.262,99.713 406.912,95.005Z" style="fill:rgb(223,159,122);fill-rule:nonzero;"/>
            <path d="M385.081,94.191C385.064,94.196 385.049,94.196 385.044,94.202C385.027,94.208 385.017,94.208 385.017,94.208C385.017,94.208 390.774,102.483 396.237,102.827L396.237,92.338C390.994,92.908 385.712,94.053 385.081,94.191Z" style="fill:rgb(206,145,116);fill-rule:nonzero;"/>
            <path d="M407.196,94.208C407.099,91.774 401.688,91.746 396.237,92.338L396.237,102.827C396.459,102.841 396.681,102.848 396.902,102.834C400.601,102.424 404.857,98.162 407.213,94.441C407.202,94.36 407.202,94.288 407.196,94.208Z" style="fill:rgb(192,135,108);fill-rule:nonzero;"/>
            <path d="M403.013,116.12C400.264,117.151 397.791,117.06 396.237,116.855C395.735,116.788 395.328,116.71 395.041,116.652C388.18,115.276 384.602,109.616 383.88,108.415C381.951,114.491 391.085,127.36 396.237,133.958C398.181,136.446 399.559,138.045 399.559,138.045L407.298,123.685C407.446,123.409 407.589,123.131 407.734,122.849C410.13,118.109 411.448,112.884 411.491,107.569C411.082,108.599 408.812,113.952 403.013,116.12Z" style="fill:rgb(202,217,224);fill-rule:nonzero;"/>
            <path d="M415.83,128.884C415.83,128.884 411.528,126.121 409.78,124.562C411.93,124.894 416.374,124.538 419.138,124.003C419.073,114.144 416.737,108.887 414.307,106.081C413.87,105.537 413.428,105.066 412.991,104.677C410.716,102.648 408.623,102.563 408.623,102.563C408.623,102.563 409.194,104.544 410.857,107.446C410.852,107.488 411.157,107.533 411.157,107.569C411.114,112.884 409.796,118.109 407.401,122.849C407.256,123.131 407.113,123.409 406.964,123.685L397.221,137.337C396.994,137.808 396.77,138.312 396.549,138.835L400.459,138.835C405.205,134.06 415.735,128.953 415.83,128.884Z" style="fill:rgb(113,101,82);fill-rule:nonzero;"/>
            <path d="M396.295,38.835C396.277,38.837 396.256,38.84 396.237,38.84L396.237,38.858C396.256,38.852 396.276,38.844 396.295,38.835Z" style="fill:rgb(117,77,42);fill-rule:nonzero;"/>
            <path d="M410.18,44.32C408.926,43.571 407.581,42.96 406.167,42.519C402.838,41.48 399.402,40.121 395.903,40.087L395.903,58.442C396.005,58.445 396.099,58.453 396.201,58.453C398.195,58.459 399.895,58.888 401.702,59.713C402.463,60.063 403.276,60.702 404.099,60.691C403.871,60.345 403.589,59.994 403.27,59.713C404.498,60.569 406.135,61.105 407.373,61.955C409.328,63.306 411.451,65.591 412.045,67.958C412.794,70.921 411.28,74.063 411.987,77.077C412.205,76.269 413.231,74.792 414.012,74.08C413.539,74.601 415.351,74.462 415.426,74.441C415.852,74.319 416.121,74.121 416.323,73.862C416.642,73.446 416.771,72.878 417.005,72.203C417.813,69.902 418.353,67.451 418.28,65.002C418.376,65.113 418.594,65.358 418.816,65.645C419.21,66.144 419.641,66.771 419.562,67.048C422.149,58.401 417.748,48.821 410.18,44.32Z" style="fill:rgb(57,59,66);fill-rule:nonzero;"/>
            <path d="M393.027,40.467C394.03,39.809 395.11,39.27 396.237,38.858L396.237,38.84C394.03,38.93 391.838,39.319 389.742,39.999C388.567,40.383 387.409,40.866 386.431,41.621C385.198,42.571 384.406,44.07 383.927,45.527C382.907,45.081 380.467,45.655 379.41,46.112C376.763,47.253 375.492,49.508 373.707,51.581C373.016,52.39 372.446,53.127 372.006,53.903C371.337,55.058 370.932,56.29 370.757,57.953C370.544,59.952 370.666,61.971 370.788,63.974C371.103,62.944 371.596,61.93 372.292,61.105C372.341,62.019 371.794,62.716 371.602,63.577C371.363,64.677 371.549,65.905 371.771,66.988C372.234,69.233 373.234,71.464 374.657,73.266C374.855,73.52 375.101,73.776 375.36,74.037C375.577,74.249 375.806,74.462 376.045,74.68C377.374,75.902 378.931,77.237 379.096,78.745C378.751,75.62 377.773,72.867 377.964,69.923C377.991,69.498 378.049,69.067 378.128,68.631C378.256,67.963 378.448,67.281 378.735,66.58C378.863,66.969 379.096,67.377 379.203,67.766C379.356,63.863 381.535,62.678 383.735,59.91C384.73,58.66 386.106,57.705 386.414,56.041C387.552,57.496 388.689,56.97 390.242,57.314C392.341,57.783 394.07,58.385 396.237,58.442L396.237,40.087C395.173,40.076 394.102,40.185 393.027,40.467Z" style="fill:rgb(65,66,68);fill-rule:nonzero;"/>
            <path d="M414.348,73.819C413.345,74.406 412.31,75.883 411.984,77.078C411.282,74.065 412.792,70.923 412.044,67.959C411.448,65.592 409.327,63.305 407.374,61.958C406.135,61.103 404.501,60.57 403.271,59.712C403.591,59.996 403.869,60.348 404.098,60.692C403.274,60.703 402.462,60.065 401.699,59.716C399.895,58.888 398.194,58.458 396.199,58.453C396.098,58.453 396.003,58.445 395.903,58.444L395.903,100.185C398.652,100.167 398.896,99.613 400.113,98.721C401.57,97.652 403.139,96.924 404.728,96.059C405.407,95.689 405.924,95.283 406.363,94.814C406.942,94.198 407.38,93.473 407.837,92.558C408.306,91.624 410.112,87.731 410.834,86.817C410.785,86.88 411.724,87.149 411.809,87.158C412.185,87.194 412.616,87.144 412.953,86.964C413.544,86.655 414.007,85.927 414.335,85.366C415.126,84.005 415.406,82.431 415.967,80.977C416.574,79.399 417.671,77.817 417.626,76.063C417.578,74.246 416.067,72.812 414.348,73.819Z" style="fill:rgb(235,179,154);fill-rule:nonzero;"/>
            <path d="M390.244,57.316C388.692,56.973 387.555,57.494 386.413,56.039C386.105,57.702 384.731,58.662 383.735,59.912C381.535,62.677 379.357,63.863 379.202,67.767C379.096,67.378 378.864,66.969 378.735,66.577C378.446,67.281 378.256,67.963 378.128,68.634C378.117,69.074 378.062,69.505 377.966,69.924C377.774,72.866 378.749,75.62 379.096,78.744C378.899,76.973 376.777,75.43 375.362,74.035C375.244,74.135 375.123,74.233 375.001,74.328C374.873,74.426 374.762,74.537 374.676,74.659C373.426,76.423 375.295,79.373 375.914,80.977C376.409,82.26 376.681,83.63 377.284,84.873C377.542,85.408 377.871,85.98 378.207,86.466C378.528,86.931 379.364,87.073 379.895,86.998C380.173,86.956 380.448,86.817 380.591,86.574C381.555,88.748 382.974,90.428 384.042,92.559C384.821,94.11 385.532,95.13 387.006,95.973C387.056,96.001 387.099,96.03 387.151,96.059C388.741,96.924 390.309,97.652 391.769,98.721C393.003,99.627 392.959,100.187 396.107,100.187C396.153,100.187 396.192,100.185 396.237,100.185L396.237,58.444C394.07,58.387 392.339,57.781 390.244,57.316Z" style="fill:rgb(250,189,163);fill-rule:nonzero;"/>
            <path d="M379.285,81.873C379.387,82.553 379.392,83.408 378.614,83.599C378.396,83.653 378.16,83.577 377.988,83.413C377.307,82.767 377.412,81.821 377.599,80.992C377.741,80.37 377.928,79.735 377.849,79.099C377.699,77.881 376.32,76.676 375.249,77.187C375.527,77.053 375.639,76.788 376.021,76.706C376.501,76.603 376.728,76.664 377.23,76.963C377.412,77.071 377.588,77.205 377.731,77.37C378.769,78.567 379.049,80.29 379.285,81.873Z" style="fill:rgb(192,135,108);fill-rule:nonzero;"/>
            <path d="M412.569,82.141C412.467,82.821 412.46,83.673 413.239,83.866C413.459,83.921 413.695,83.844 413.867,83.68C414.545,83.033 414.444,82.088 414.255,81.259C414.112,80.637 413.926,80.002 414.005,79.366C414.156,78.148 415.532,76.942 416.605,77.453C416.326,77.321 416.214,77.055 415.832,76.973C415.353,76.871 415.124,76.931 414.626,77.228C414.444,77.338 414.266,77.47 414.121,77.637C413.084,78.835 412.805,80.558 412.569,82.141Z" style="fill:rgb(192,135,108);fill-rule:nonzero;"/>
            <path d="M410.166,78.112C410.013,78.621 409.809,79.131 409.446,79.551C408.582,80.552 406.874,80.816 405.573,80.959C400.735,81.488 399.607,76.987 399.534,75.727C399.763,73.601 402.652,73.246 405.651,73.167C406.962,73.133 408.719,73.199 409.742,74.08C409.999,74.301 410.177,74.578 410.295,74.888C410.678,75.891 410.427,77.23 410.166,78.112ZM386.106,80.959C384.806,80.816 383.096,80.552 382.232,79.551C381.871,79.131 381.666,78.621 381.514,78.112C381.252,77.23 381.002,75.891 381.384,74.888C381.502,74.578 381.68,74.301 381.937,74.08C382.962,73.199 384.717,73.133 386.03,73.167C389.027,73.246 391.916,73.601 392.145,75.727C392.071,76.987 390.945,81.488 386.106,80.959ZM414.08,72.801C413.992,72.696 406.91,69.941 397.916,73.265C397.073,73.383 396.28,73.421 395.839,73.435C395.826,73.435 395.81,73.435 395.796,73.434C395.351,73.419 394.581,73.378 393.763,73.265C384.942,70.22 377.687,72.696 377.599,72.801C377.107,73.401 377.595,74.271 377.598,74.277C377.614,74.306 377.987,74.399 378.032,74.421C378.391,74.584 378.963,74.863 379.135,75.216C379.313,75.581 379.259,76.181 379.321,76.587C379.437,77.345 379.577,78.106 379.83,78.838C380.155,79.78 380.769,80.833 381.706,81.389C383.664,82.552 387.687,82.309 389.724,81.805C391.976,81.106 393.974,77.048 394.188,75.766C394.335,74.977 395.255,74.801 395.796,74.766C395.81,74.765 395.826,74.763 395.839,74.762C396.374,74.792 397.339,74.958 397.492,75.766C397.705,77.048 399.703,81.106 401.955,81.805C403.992,82.309 408.016,82.552 409.973,81.389C410.912,80.833 411.524,79.78 411.85,78.838C412.102,78.106 412.244,77.345 412.359,76.587C412.421,76.181 412.366,75.581 412.545,75.216C412.716,74.863 413.289,74.584 413.646,74.421C413.694,74.399 414.064,74.306 414.081,74.277C414.084,74.271 414.571,73.401 414.08,72.801Z" style="fill:rgb(34,30,31);fill-rule:nonzero;"/>
        </g>
        <text x="387.136px" y="153.96px" style="font-family:'ArialMT', 'Arial', sans-serif;font-size:12px;">Bob</text>
        <g id="g2402">
            <path id="path5842" d="M240.927,15.2L196.96,25.561C192.844,24.746 189.019,27.486 187.199,34.721L186.799,34.821L187.184,35.091L188.239,73.508L194.81,77.964L194.81,77.834L207.945,86.699L212.811,90.269L212.741,89.034L212.751,89.034L212.851,90.684L220.421,86.999L220.396,86.544L257.558,74.418L257.558,74.478L265.444,71.958L265.014,67.688C264.869,65.553 264.679,63.288 264.489,62.253L264.574,62.228L263.604,52.022L263.449,52.067L262.083,38.351L262.138,38.336L262.083,38.306L262.053,38.066L261.783,38.136L261.628,38.051L261.913,37.981C261.333,27.056 254.613,16.05 240.927,15.2Z" style="fill:rgb(73,47,23);stroke:black;stroke-width:3.19px;"/>
            <g id="g10723">
                <g id="g10627">
                    <path id="path10629" d="M187.996,35.528L235.202,24.715L237.251,49.011L211.038,59.296L187.996,35.528Z" style="fill:rgb(73,47,23);"/>
                    <path id="rect10631" d="M211.032,74.806L187.956,59.218L189.212,74.101L212.287,89.69L211.032,74.806Z" style="fill:rgb(133,85,43);"/>
                    <path id="rect10633" d="M210.405,61.779L187.599,47.553L188.727,60.931L211.533,75.157L210.405,61.779Z" style="fill:rgb(104,67,34);"/>
                    <path id="rect10635" d="M210.027,49.355L187.5,35.303L188.61,48.458L211.136,62.509L210.027,49.355Z" style="fill:rgb(120,77,39);"/>
                    <path id="path10637" d="M212.511,89.125L265.275,71.924C265.275,71.924 264.69,61.73 264.304,61.715C263.863,61.697 211.13,77.963 211.13,77.963L212.511,89.125Z" style="fill:rgb(94,60,30);"/>
                    <path id="path10639" d="M211.635,78.087L264.569,62.251L263.598,52.043L210.603,66.512L211.635,78.087Z" style="fill:rgb(103,66,33);"/>
                    <path id="path10641" d="M234.851,25.118L237.238,53.411L260.468,39.025L234.851,25.118Z" style="fill:rgb(31,19,10);"/>
                    <path id="path10643" d="M210.666,67.248L210.408,58.328L262.021,45.065L262.325,57.132L210.666,67.248Z" style="fill:rgb(121,78,39);"/>
                    <path id="path10645" d="M210.672,58.865L210.028,49.924L261.775,38.238L262.127,46.324L210.672,58.865Z" style="fill:rgb(107,69,35);"/>
                </g>
                <path id="path10647" d="M187.179,34.918L192.955,39.14L194.826,77.96L188.206,73.555L187.179,34.918Z" style="fill:rgb(65,36,7);"/>
                <path id="path10649" d="M205.14,47.516L210.825,51.748L212.848,90.276L206.469,85.57L205.14,47.516Z" style="fill:rgb(65,36,7);"/>
                <path id="path10651" d="M210.614,51.496L218.341,49.275L220.455,86.969L212.897,90.728L210.614,51.496Z" style="fill:rgb(81,45,9);"/>
                <path id="path10653" d="M255.583,39.699L262.092,38.07L265.439,71.964L257.561,74.476L255.583,39.699Z" style="fill:rgb(81,45,9);"/>
                <path id="path10675" d="M245.744,49.388C240.878,48.455 234.511,49.702 230.472,53.809C228.236,55.978 230.418,69.205 239.392,66.665C247.49,64.495 248.93,50.046 245.744,49.388Z" style="fill:url(#_Radial1);"/>
                <path id="path10677" d="M238.849,53.349C239.563,53.18 240.227,53.382 240.558,53.895L240.648,53.885C241.2,54.741 240.967,55.957 240.131,56.69L242.388,60.565L236.975,62.166L238.069,57.099C237.878,57.028 237.587,56.877 237.466,56.616C236.824,55.77 237.148,54.543 237.984,53.811C238.235,53.6 238.578,53.379 238.849,53.349Z"/>
                <path id="path10659" d="M235.838,23.357L186.807,34.867L210.534,51.597L262.122,38.341L235.838,23.357ZM234.568,25.146L257.236,37.227L210.648,49.294L191.714,35.337L234.568,25.146Z" style="fill:rgb(82,62,44);"/>
                <path id="path10655" d="M194.996,26L240.899,15.2C254.644,16.075 261.345,27.067 261.901,37.999L210.808,49.918L194.996,26Z" style="fill:url(#_Linear2);"/>
                <path id="path10661" d="M210.788,49.737L188.616,35.493C188.485,22.591 206.542,18.506 210.788,49.737Z" style="fill:url(#_Linear3);"/>
                <path id="path10665" d="M187.179,34.918C191.753,16.462 209.084,26.655 211.631,50.743L187.179,34.918ZM189.501,35.213L209.813,49.202C207.691,29.831 193.185,20.336 189.501,35.213Z" style="fill:rgb(82,62,44);"/>
            </g>
        </g>
        <g>
            <path id="rect2723" d="M236.976,55.664C230.142,55.664 224.641,61.165 224.641,67.999L224.641,81.704L228.067,81.704L228.067,67.999C228.067,63.063 232.04,59.09 236.976,59.09C241.911,59.09 245.884,63.063 245.884,67.999L245.884,81.704L249.31,81.704L249.31,67.999C249.31,61.165 243.809,55.664 236.976,55.664Z" style="fill:rgb(40,40,40);"/>
            <path id="path3082" d="M236.976,56.559C230.522,56.559 225.326,62.111 225.326,68.444L225.326,81.22C225.326,86.017 228.314,90.091 232.564,91.789C229.519,90.404 227.382,87.433 227.382,83.91L227.382,67.772C227.382,62.929 231.355,58.708 236.29,58.708L237.661,58.708C242.596,58.708 246.569,62.929 246.569,67.772L246.569,83.91C246.569,87.433 244.432,90.404 241.387,91.789C245.637,90.091 248.625,86.017 248.625,81.22L248.625,68.444C248.625,62.111 243.429,56.559 236.976,56.559Z" style="fill:url(#_Linear4);"/>
            <path id="path2931" d="M236.976,55.955C230.333,55.955 224.986,61.266 224.986,67.864L224.986,81.174C224.986,86.171 228.061,90.414 232.435,92.184C229.301,90.741 227.102,87.645 227.102,83.976L227.102,67.163C227.102,62.118 231.191,57.262 236.27,57.262L237.681,57.262C242.76,57.262 246.849,62.118 246.849,67.163L246.849,83.976C246.849,87.645 244.65,90.741 241.516,92.184C245.89,90.414 248.965,86.17 248.965,81.174L248.965,67.864C248.965,61.266 243.618,55.955 236.976,55.955L236.976,55.955Z" style="fill:url(#_Linear5);"/>
            <path id="path2861" d="M231.907,59.069C230.055,60.229 229.013,62.205 229.217,62.864C229.437,63.574 230.738,60.401 234.42,59.419C237.26,58.661 234.42,57.496 231.907,59.069Z" style="fill:url(#_Radial6);"/>
            <path id="path2871" d="M242.045,59.035C243.896,60.195 244.938,62.171 244.734,62.83C244.514,63.54 243.213,60.367 239.531,59.385C236.691,58.627 239.531,57.462 242.045,59.035Z" style="fill:url(#_Radial7);"/>
            <path id="rect2875" d="M236.976,57.121C230.522,57.121 225.326,61.545 225.326,67.999L225.326,81.019C225.326,85.907 228.314,90.057 232.564,91.79C229.519,90.377 227.382,87.35 227.382,83.76L227.382,67.314C227.382,62.378 231.355,58.4 236.29,58.4L237.661,58.4C242.596,58.4 246.569,62.378 246.569,67.314L246.569,83.76C246.569,87.35 244.432,90.377 241.387,91.79C245.637,90.057 248.625,85.907 248.625,81.019L248.625,67.999C248.625,61.545 243.429,57.121 236.976,57.121Z" style="fill:url(#_Linear8);"/>
            <path id="path2933" d="M236.976,56.358C227.864,56.358 225.762,64.296 225.762,67.886C225.762,78.656 226.463,78.656 226.463,67.886C226.463,59.988 232.068,56.87 236.976,56.87C241.883,56.871 247.488,60.31 247.488,67.886C247.488,78.656 248.189,78.656 248.189,67.886C248.189,64.296 246.087,56.358 236.976,56.358Z" style="fill:url(#_Linear9);"/>
            <path id="path2885" d="M236.976,57.397C228.067,57.397 226.011,64.989 226.011,68.288C226.011,78.182 226.697,78.182 226.697,68.288C226.697,61.032 232.177,57.868 236.976,57.868C241.775,57.868 247.255,61.328 247.255,68.288C247.255,78.182 247.94,78.182 247.94,68.288C247.94,64.989 245.884,57.397 236.976,57.397Z" style="fill:url(#_Linear10);"/>
            <path id="path2897" d="M227.654,60.596C226.675,62.383 228.685,61.254 229.152,60.689C230.464,59.103 232.681,57.954 234.628,57.578C236.26,57.264 236.509,56.633 235.165,56.529C232.485,56.321 228.593,58.883 227.654,60.596L227.654,60.596Z" style="fill:white;fill-opacity:0.8;"/>
            <path id="path2901" d="M226.171,63.547C226.275,64.42 227.963,61.574 229.292,60.237C230.915,58.604 233.376,57.462 234.56,57.311C236.67,57.042 235.669,56.008 234.346,56.269C229.539,57.219 225.906,61.321 226.171,63.547L226.171,63.547Z" style="fill:white;fill-opacity:0.6;"/>
            <path id="path2909" d="M246.243,60.584C247.228,62.367 245.215,61.245 244.746,60.683C243.428,59.101 241.206,57.96 239.258,57.592C237.625,57.283 237.165,56.655 238.509,56.545C241.188,56.328 245.298,58.874 246.243,60.584L246.243,60.584Z" style="fill:white;fill-opacity:0.8;"/>
            <path id="path2911" d="M247.679,63.469C247.579,64.342 245.88,61.501 244.546,60.17C242.916,58.543 240.452,57.41 239.267,57.263C237.156,57.002 238.146,56.005 239.477,56.221C244.292,57.004 247.935,61.241 247.679,63.469L247.679,63.469Z" style="fill:white;fill-opacity:0.6;"/>
            <path id="path2953" d="M231.757,58.775C229.344,60.153 227.986,62.504 228.251,63.287C228.538,64.131 230.234,60.358 235.034,59.19C238.736,58.29 235.034,56.904 231.757,58.775Z" style="fill:url(#_Radial11);"/>
            <path id="path2957" d="M242.144,58.709C244.371,60.111 245.624,62.501 245.379,63.298C245.114,64.157 243.55,60.32 239.121,59.132C235.706,58.216 239.121,56.806 242.144,58.709Z" style="fill:url(#_Radial12);"/>
            <path id="path3055" d="M256.163,97.465C256.163,98.217 247.501,98.836 236.975,98.836C226.449,98.836 217.788,98.217 217.788,97.465C217.788,96.713 226.449,96.094 236.975,96.094C247.501,96.094 256.163,96.713 256.163,97.465Z" style="fill:url(#_Radial13);"/>
            <path id="path3065" d="M256.163,96.437C256.163,97.377 247.501,98.15 236.975,98.15C226.449,98.15 217.788,97.377 217.788,96.437C217.788,95.497 226.449,94.724 236.975,94.724C247.501,94.724 256.163,95.497 256.163,96.437Z" style="fill:url(#_Radial14);"/>
            <path id="path3067" d="M256.163,96.78C256.163,97.532 247.501,98.15 236.975,98.15C226.449,98.15 217.788,97.532 217.788,96.78C217.788,96.028 226.449,95.409 236.975,95.409C247.501,95.409 256.163,96.028 256.163,96.78Z" style="fill:url(#_Radial15);"/>
            <path id="rect1941" d="M250.681,75.011C250.681,74.735 250.457,74.511 250.181,74.511L223.77,74.511C223.494,74.511 223.27,74.735 223.27,75.011L223.27,96.569C223.27,96.845 223.494,97.069 223.77,97.069L250.181,97.069C250.457,97.069 250.681,96.845 250.681,96.569L250.681,75.011Z" style="fill:url(#_Linear16);"/>
            <path id="rect2709" d="M250.681,75.011C250.681,74.735 250.457,74.511 250.181,74.511L223.77,74.511C223.494,74.511 223.27,74.735 223.27,75.011L223.27,96.569C223.27,96.845 223.494,97.069 223.77,97.069L250.181,97.069C250.457,97.069 250.681,96.845 250.681,96.569L250.681,75.011Z" style="fill:url(#_Linear17);"/>
            <path id="rect2734" d="M250.681,75.011C250.681,74.735 250.457,74.511 250.181,74.511L223.77,74.511C223.494,74.511 223.27,74.735 223.27,75.011L223.27,96.569C223.27,96.845 223.494,97.069 223.77,97.069L250.181,97.069C250.457,97.069 250.681,96.845 250.681,96.569L250.681,75.011Z" style="fill:url(#_Linear18);"/>
            <path id="rect2738" d="M250.681,75.011C250.681,74.735 250.457,74.511 250.181,74.511L223.77,74.511C223.494,74.511 223.27,74.735 223.27,75.011L223.27,96.569C223.27,96.845 223.494,97.069 223.77,97.069L250.181,97.069C250.457,97.069 250.681,96.845 250.681,96.569L250.681,75.011Z" style="fill:url(#_Linear19);"/>
            <path id="path2727" d="M224.127,74.511C224.743,75.234 230.304,75.8 237.287,75.8C244.174,75.8 249.644,75.239 250.39,74.531C250.379,74.53 250.379,74.511 250.369,74.511L224.127,74.511Z" style="fill:white;fill-opacity:0.5;"/>
            <g id="g2798">
                <path id="path2778" d="M224.748,76.246C224.491,78.02 224.203,89.273 225.156,91.682C226.088,94.038 225.972,80.438 228.243,78.297C230.538,76.134 224.991,74.573 224.748,76.246Z" style="fill:url(#_Radial20);"/>
                <path id="path2790" d="M224.607,76.364C224.309,78.435 223.977,91.571 225.077,94.384C226.152,97.135 226.018,81.257 228.639,78.759C231.288,76.233 224.886,74.41 224.607,76.364Z" style="fill:url(#_Radial21);"/>
                <path id="path2794" d="M224.316,76.465C223.946,78.792 223.534,93.551 224.9,96.711C226.236,99.802 226.069,81.963 229.327,79.155C232.618,76.318 224.663,74.271 224.316,76.465Z" style="fill:url(#_Radial22);"/>
            </g>
            <g id="g2803">
                <path id="path2805" d="M249.204,76.246C249.461,78.02 249.749,89.273 248.796,91.682C247.864,94.038 247.98,80.438 245.709,78.297C243.414,76.134 248.961,74.573 249.204,76.246Z" style="fill:url(#_Radial23);"/>
                <path id="path2807" d="M249.346,76.364C249.643,78.435 249.975,91.571 248.875,94.384C247.8,97.135 247.934,81.257 245.313,78.759C242.664,76.233 249.066,74.41 249.346,76.364Z" style="fill:url(#_Radial24);"/>
                <path id="path2809" d="M249.636,76.465C250.006,78.792 250.418,93.551 249.052,96.711C247.716,99.802 247.883,81.963 244.625,79.155C241.334,76.318 249.289,74.271 249.636,76.465Z" style="fill:url(#_Radial25);"/>
            </g>
            <path id="rect3077" d="M250.172,94.04L250.172,96.726C250.172,96.917 250.022,97.07 249.842,97.07L224.111,97.07C223.928,97.07 223.781,96.917 223.781,96.726L223.781,87.188C223.781,97.237 250.172,80.08 250.172,94.04Z" style="fill:url(#_Linear26);"/>
            <path id="path2768" d="M223.796,97.07C224.412,96.348 229.973,95.779 236.956,95.779C243.843,95.779 249.314,96.341 250.059,97.049C250.046,97.049 250.049,97.07 250.039,97.07L223.796,97.07Z" style="fill-opacity:0.5;"/>
        </g>
        <g>
            <path id="rect27231" serif:id="rect2723" d="M205.783,276.099C198.659,276.099 192.927,281.831 192.927,288.956L192.927,290.653L196.499,290.653L196.499,288.956C196.499,283.81 200.637,279.671 205.783,279.671C210.929,279.671 215.079,283.81 215.079,288.956L215.079,303.255L218.652,303.255L218.652,288.956C218.652,281.831 212.908,276.099 205.783,276.099Z" style="fill:rgb(40,40,40);"/>
            <path id="path30821" serif:id="path3082" d="M205.777,277.031C199.048,277.031 193.641,282.819 193.641,289.422L193.641,290.653L195.782,290.653L195.782,288.723C195.782,283.673 199.921,279.272 205.067,279.272L206.498,279.272C211.644,279.272 215.783,283.673 215.783,288.723L215.783,305.551C215.783,309.223 213.556,312.324 210.38,313.769C214.812,311.998 217.923,307.746 217.923,302.744L217.923,289.422C217.923,282.819 212.506,277.031 205.777,277.031Z" style="fill:url(#_Linear27);"/>
            <path id="path29311" serif:id="path2931" d="M205.777,276.399C198.852,276.399 193.287,281.944 193.287,288.823L193.287,290.653L195.483,290.653L195.483,288.091C195.483,282.83 199.749,277.763 205.045,277.763L206.52,277.763C211.817,277.763 216.083,282.83 216.083,288.091L216.083,305.617C216.083,309.443 213.782,312.675 210.514,314.18C215.075,312.331 218.279,307.91 218.279,302.7L218.279,288.823C218.279,281.944 212.703,276.399 205.777,276.399L205.777,276.399Z" style="fill:url(#_Linear28);"/>
            <path id="path28611" serif:id="path2861" d="M200.503,279.65C198.572,280.859 197.486,282.919 197.699,283.606C197.928,284.346 199.284,281.039 203.124,280.014C206.085,279.224 203.124,278.009 200.503,279.65Z" style="fill:url(#_Radial29);"/>
            <path id="path28711" serif:id="path2871" d="M211.073,279.615C213.003,280.823 214.089,282.884 213.877,283.571C213.648,284.311 212.291,281.003 208.452,279.979C205.491,279.189 208.452,277.974 211.073,279.615Z" style="fill:url(#_Radial30);"/>
            <path id="rect28751" serif:id="rect2875" d="M205.777,277.619C199.048,277.619 193.641,282.227 193.641,288.956L193.641,290.653L195.782,290.653L195.782,288.246C195.782,283.1 199.921,278.95 205.067,278.95L206.498,278.95C211.644,278.95 215.783,283.1 215.783,288.246L215.783,305.395C215.783,309.138 213.556,312.296 210.38,313.769C214.812,311.962 217.923,307.63 217.923,302.534L217.923,288.956C217.923,282.227 212.506,277.619 205.777,277.619Z" style="fill:url(#_Linear31);"/>
            <path id="path29331" serif:id="path2933" d="M205.788,276.82C196.288,276.82 194.096,285.102 194.096,288.845C194.096,289.488 194.103,290.084 194.107,290.653L194.828,290.653C194.833,290.084 194.828,289.488 194.828,288.845C194.828,280.61 200.67,277.353 205.788,277.353C210.905,277.353 216.759,280.946 216.759,288.845C216.759,300.074 217.48,300.074 217.48,288.845C217.48,285.102 215.287,276.82 205.788,276.82Z" style="fill:url(#_Linear32);"/>
            <path id="path28851" serif:id="path2885" d="M205.782,277.907C196.493,277.907 194.356,285.828 194.356,289.267C194.356,289.795 194.363,290.179 194.367,290.653L195.055,290.653C195.058,290.179 195.066,289.795 195.066,289.267C195.066,281.701 200.778,278.396 205.782,278.396C210.785,278.395 216.508,282.01 216.508,289.267C216.508,299.583 217.218,299.583 217.218,289.267C217.218,285.828 215.07,277.907 205.782,277.907Z" style="fill:url(#_Linear33);"/>
            <path id="path28971" serif:id="path2897" d="M196.069,281.242C195.048,283.105 197.143,281.928 197.63,281.339C198.998,279.685 201.31,278.487 203.34,278.095C205.042,277.767 205.301,277.11 203.9,277.001C201.105,276.784 197.047,279.456 196.069,281.242L196.069,281.242Z" style="fill:white;fill-opacity:0.8;"/>
            <path id="path29011" serif:id="path2901" d="M194.522,284.319C194.631,285.229 196.391,282.261 197.777,280.867C199.469,279.165 202.035,277.974 203.27,277.817C205.47,277.536 204.425,276.458 203.046,276.73C198.034,277.72 194.247,281.998 194.522,284.319L194.522,284.319Z" style="fill:white;fill-opacity:0.6;"/>
            <path id="path29091" serif:id="path2909" d="M215.45,281.229C216.478,283.088 214.378,281.919 213.89,281.332C212.516,279.683 210.199,278.493 208.168,278.109C206.465,277.787 205.985,277.132 207.387,277.018C210.18,276.791 214.465,279.447 215.45,281.229L215.45,281.229Z" style="fill:white;fill-opacity:0.8;"/>
            <path id="path29111" serif:id="path2911" d="M216.948,284.237C216.843,285.148 215.072,282.186 213.681,280.797C211.982,279.102 209.412,277.92 208.177,277.767C205.976,277.494 207.008,276.455 208.396,276.68C213.416,277.497 217.215,281.915 216.948,284.237L216.948,284.237Z" style="fill:white;fill-opacity:0.6;"/>
            <path id="path29531" serif:id="path2953" d="M200.347,279.343C197.831,280.78 196.414,283.231 196.692,284.047C196.99,284.927 198.759,280.994 203.764,279.776C207.623,278.837 203.764,277.392 200.347,279.343Z" style="fill:url(#_Radial34);"/>
            <path id="path29571" serif:id="path2957" d="M211.177,279.275C213.498,280.736 214.805,283.228 214.549,284.059C214.274,284.954 212.642,280.954 208.024,279.715C204.464,278.76 208.025,277.29 211.177,279.275Z" style="fill:url(#_Radial35);"/>
            <path id="rect19411" serif:id="rect1941" d="M220.078,296.25C220.078,295.974 219.854,295.75 219.578,295.75L191.998,295.75C191.722,295.75 191.498,295.974 191.498,296.25L191.498,318.77C191.498,319.046 191.722,319.27 191.998,319.27L219.578,319.27C219.854,319.27 220.078,319.046 220.078,318.77L220.078,296.25Z" style="fill:url(#_Linear36);"/>
            <path id="rect27091" serif:id="rect2709" d="M220.078,296.25C220.078,295.974 219.854,295.75 219.578,295.75L191.998,295.75C191.722,295.75 191.498,295.974 191.498,296.25L191.498,318.77C191.498,319.046 191.722,319.27 191.998,319.27L219.578,319.27C219.854,319.27 220.078,319.046 220.078,318.77L220.078,296.25Z" style="fill:url(#_Linear37);"/>
            <path id="rect27341" serif:id="rect2734" d="M220.078,296.25C220.078,295.974 219.854,295.75 219.578,295.75L191.998,295.75C191.722,295.75 191.498,295.974 191.498,296.25L191.498,318.77C191.498,319.046 191.722,319.27 191.998,319.27L219.578,319.27C219.854,319.27 220.078,319.046 220.078,318.77L220.078,296.25Z" style="fill:url(#_Linear38);"/>
            <path id="rect27381" serif:id="rect2738" d="M220.078,296.25C220.078,295.974 219.854,295.75 219.578,295.75L191.998,295.75C191.722,295.75 191.498,295.974 191.498,296.25L191.498,318.77C191.498,319.046 191.722,319.27 191.998,319.27L219.578,319.27C219.854,319.27 220.078,319.046 220.078,318.77L220.078,296.25Z" style="fill:url(#_Linear39);"/>
            <path id="path27271" serif:id="path2727" d="M192.391,295.75C193.034,296.503 198.832,297.094 206.113,297.094C213.293,297.094 218.997,296.509 219.774,295.771C219.763,295.77 219.763,295.75 219.753,295.75L192.391,295.75Z" style="fill:white;fill-opacity:0.5;"/>
            <g id="g27981" serif:id="g2798">
                <path id="path27781" serif:id="path2778" d="M193.039,297.559C192.771,299.409 192.471,311.141 193.464,313.653C194.436,316.11 194.315,301.93 196.683,299.698C199.076,297.442 193.292,295.815 193.039,297.559Z" style="fill:url(#_Radial40);"/>
                <path id="path27901" serif:id="path2790" d="M192.891,297.682C192.581,299.841 192.235,313.538 193.381,316.47C194.503,319.339 194.363,302.784 197.096,300.179C199.857,297.545 193.183,295.645 192.891,297.682Z" style="fill:url(#_Radial41);"/>
                <path id="path27941" serif:id="path2794" d="M192.588,297.788C192.203,300.214 191.773,315.602 193.197,318.896C194.591,322.12 194.417,303.52 197.813,300.592C201.245,297.634 192.95,295.5 192.588,297.788Z" style="fill:url(#_Radial42);"/>
            </g>
            <g id="g28031" serif:id="g2803">
                <path id="path28051" serif:id="path2805" d="M218.538,297.559C218.805,299.409 219.106,311.141 218.112,313.653C217.14,316.11 217.262,301.93 214.894,299.698C212.5,297.442 218.284,295.815 218.538,297.559Z" style="fill:url(#_Radial43);"/>
                <path id="path28071" serif:id="path2807" d="M218.685,297.682C218.995,299.841 219.341,313.538 218.195,316.47C217.074,319.339 217.214,302.784 214.481,300.179C211.719,297.545 218.393,295.645 218.685,297.682Z" style="fill:url(#_Radial44);"/>
                <path id="path28091" serif:id="path2809" d="M218.989,297.788C219.374,300.214 219.803,315.602 218.379,318.896C216.986,322.12 217.16,303.52 213.764,300.592C210.332,297.634 218.626,295.5 218.989,297.788Z" style="fill:url(#_Radial45);"/>
            </g>
            <path id="rect30771" serif:id="rect3077" d="M219.547,316.112L219.547,318.912C219.547,319.111 219.391,319.271 219.202,319.271L192.374,319.271C192.184,319.271 192.03,319.111 192.03,318.912L192.03,308.968C192.03,319.445 219.547,301.557 219.547,316.112Z" style="fill:url(#_Linear46);"/>
            <path id="path27681" serif:id="path2768" d="M192.046,319.271C192.689,318.518 198.487,317.926 205.768,317.926C212.948,317.926 218.652,318.511 219.43,319.25C219.415,319.25 219.419,319.271 219.408,319.271L192.046,319.271Z" style="fill-opacity:0.5;"/>
        </g>
        <g id="Trent">
            <path d="M138.654,270.317L138.713,271.47L139.196,280.995L125.733,293.246L121.025,288.941L113.39,281.959L112.796,270.248L138.654,270.317Z" style="fill:rgb(226,167,125);fill-rule:nonzero;"/>
            <path d="M123.417,234.283C124.942,234.694 127.013,232.727 127.999,231.924C129.786,230.471 131.815,229.313 133.979,228.52C135.564,227.941 137.307,227.554 138.929,228.014C141.314,228.691 142.886,231.089 143.329,233.53C144.229,238.498 141.733,243.638 142.533,248.614C142.644,249.31 142.835,250.889 143.946,250.128C144.406,249.813 144.111,248.96 144.604,248.583C145.69,247.748 146.224,249.08 146.307,249.884C146.611,252.749 146.328,255.906 145.094,258.58C144.381,260.128 143.297,260.614 142.247,261.762C141.086,263.034 141.41,265.395 141.031,266.928C140.772,267.971 140.349,268.93 139.756,269.778C138.486,271.592 136.169,272.527 134.697,274.191C133.318,275.751 132.049,277.301 130.096,278.36C128.921,278.999 127.24,279.095 125.69,279.102C125.488,279.121 125.286,279.141 125.081,279.155L122.797,234.144C123.003,234.189 123.215,234.228 123.417,234.283Z" style="fill:rgb(252,193,143);fill-rule:nonzero;"/>
            <path d="M102.554,252.12C102.557,251.312 102.951,249.933 104.118,250.653C104.646,250.978 104.44,251.858 104.929,252.124C106.111,252.769 106.14,251.18 106.181,250.476C106.336,247.798 104.922,245.306 105.132,242.671C105.322,240.255 105.078,237.771 105.839,235.402C106.499,233.351 107.801,231.459 109.653,230.356C111.367,229.338 113.5,229.05 115.421,229.582C117.114,230.049 118.286,231.071 119.425,232.345C120.664,233.733 121.25,233.719 123.131,234.144L125.414,279.155C124.049,279.26 122.638,279.259 121.564,278.81C119.515,277.953 118.096,276.539 116.564,275.127C114.932,273.62 112.533,272.926 111.088,271.251C110.41,270.465 109.892,269.553 109.531,268.544C108.997,267.056 109.079,264.673 107.796,263.527C106.636,262.491 105.51,262.117 104.642,260.649C103.144,258.114 102.542,255.002 102.554,252.12Z" style="fill:rgb(240,183,132);fill-rule:nonzero;"/>
            <path d="M145.311,246.467C144.961,248.103 144.717,249.737 144.765,251.36L142.708,251.464C142.667,251.063 142.668,250.681 142.668,250.446C142.675,249.342 142.586,248.47 142.469,247.374C141.96,242.598 143.676,226.825 133.851,231.792C132.408,232.52 131.136,233.549 129.726,234.338C125.653,236.609 120.428,236.664 116.31,234.477C114.015,233.259 110.353,230.435 107.947,233.024C106.378,234.714 106.972,239.17 106.839,241.244C106.656,244.12 106.372,246.737 106.604,249.674C106.699,250.862 107.006,252.009 107.039,253.209C103.875,254.392 104.556,250.88 103.943,249.052C102.928,246.02 102.693,243.241 102.528,240.128C102.365,237.084 101.294,233.759 102.25,230.728C104.129,224.789 112.107,221.506 117.64,220.277C123.613,218.949 130.179,219.256 136.021,221.05C138.438,221.792 142.16,222.953 143.861,224.963C145.581,226.991 145.754,230.745 146.225,233.334C147.014,237.671 146.219,242.214 145.311,246.467Z" style="fill:rgb(42,17,11);fill-rule:nonzero;"/>
            <path d="M113.543,279.594L107.029,285.158C108.251,287.535 109.804,290.181 111.778,292.939C114.351,296.538 117.006,299.439 119.379,301.717C119.379,301.717 121.167,294.695 125.863,291.199C118.71,288.801 113.543,279.594 113.543,279.594Z" style="fill:white;fill-rule:nonzero;"/>
            <path d="M125.874,319.458L125.863,291.196C125.863,291.196 122.738,297.767 119.156,296.016L113.629,282.467L108.76,284.666L103.099,287.234L101.354,287.76L96.726,289.183L90.101,291.199C85.401,292.63 81.144,295.241 77.738,298.783L76.967,299.584C75.908,300.691 75.183,302.059 74.901,303.562C74.581,305.256 74.093,316.299 73.5,319.458L125.874,319.458Z" style="fill:rgb(65,64,67);fill-rule:nonzero;"/>
            <path d="M178.336,319.458C177.742,316.299 177.255,305.256 176.934,303.562C176.653,302.059 175.927,300.691 174.868,299.584C170.956,295.517 166.068,292.519 160.669,290.876L155.108,289.183L150.479,287.76L148.736,287.234L143.075,284.666L138.206,282.467L132.679,296.016C129.096,297.767 125.969,291.196 125.969,291.196L125.961,319.458L178.336,319.458Z" style="fill:rgb(34,30,31);fill-rule:nonzero;"/>
            <path d="M136.876,319.458L139.75,303.451L127.243,289.752L125.561,289.752C125.561,289.752 112.408,303.314 112.503,304.301L115.343,319.458L136.876,319.458Z" style="fill:rgb(185,209,221);fill-rule:nonzero;"/>
            <path d="M123.708,298.864L120.985,319.458L131.231,319.458L128.507,298.864C128.365,298.234 128.457,297.576 128.765,297.006L130.453,293.891C130.531,293.702 130.483,293.488 130.339,293.345C129.688,292.712 129.037,292.077 128.388,291.444C127.946,291.012 127.415,290.608 127.156,290.044C126.974,289.638 126.469,288.733 125.883,289.117C125.371,289.453 125.199,289.981 124.867,290.428C124.535,290.874 124.017,291.258 123.618,291.646C123.038,292.213 122.457,292.78 121.876,293.345C121.731,293.488 121.686,293.702 121.761,293.891L123.45,297.006C123.758,297.576 123.85,298.234 123.708,298.864Z" style="fill:rgb(61,88,114);fill-rule:nonzero;"/>
            <path d="M126.443,288.635C126.254,288.817 125.963,288.817 125.769,288.635L113.207,276.694L110.4,285.362L115.829,304.301L125.694,289.67C125.897,289.371 126.317,289.371 126.518,289.67L136.386,304.301L141.815,285.362L139.007,276.694L126.443,288.635Z" style="fill:rgb(229,244,253);fill-rule:nonzero;"/>
            <path d="M144.061,319.458L154.511,298.739L143.575,295.808L155.568,291.88C153.846,289.846 152.732,288.898 150.106,287.017C145.244,284.18 141.95,282.787 140.878,282.467L135.382,302.495L132.458,319.458L144.061,319.458Z" style="fill:rgb(65,64,67);fill-rule:nonzero;"/>
            <path d="M97.708,298.739L108.09,319.458L119.663,319.458L115.133,297.555L111.336,282.467C110.264,282.778 105.833,283.723 102.106,286.663C99.99,288.178 98.429,289.752 96.643,291.88L108.635,295.808L97.708,298.739Z" style="fill:rgb(34,30,31);fill-rule:nonzero;"/>
            <path d="M135.774,256.542L135.513,256.548C134.922,256.548 134.335,256.487 133.771,256.364C131.385,255.848 129.442,254.276 128.446,252.049C128.232,251.573 128.265,251.153 128.547,250.731C129.418,249.431 132.368,248.412 135.56,248.31C138.179,248.227 140.374,248.787 141.433,249.808C141.967,250.321 142.207,250.937 142.172,251.689C142.025,254.746 138.842,256.445 135.774,256.542ZM121.726,252.263C120.874,254.549 119.036,256.242 116.688,256.91C116.132,257.067 115.551,257.166 114.961,257.205L114.7,257.216C111.631,257.314 108.346,255.821 108.006,252.781C107.921,252.033 108.122,251.403 108.621,250.856C109.614,249.77 111.769,249.07 114.389,248.988C117.579,248.884 120.587,249.713 121.54,250.956C121.85,251.359 121.908,251.774 121.726,252.263ZM145.685,247.976L145.101,246.531C145.101,246.531 138.638,246.589 135.508,246.689C132.442,246.788 128.79,247.738 127.292,249.631L127.244,249.553C126.378,250.009 125.635,250.181 125.024,250.205C124.41,250.22 123.658,250.095 122.764,249.695L122.725,249.777C121.107,247.984 117.401,247.269 114.336,247.367C111.207,247.467 103.563,248.56 103.563,248.56L103.121,250.546L106.304,252.148C106.283,252.412 106.282,252.683 106.313,252.958C106.763,256.978 110.9,258.959 114.751,258.835C114.858,258.833 114.963,258.828 115.067,258.821C115.785,258.776 116.492,258.655 117.169,258.463C120.047,257.646 122.292,255.584 123.329,252.802C123.474,252.417 123.539,252.037 123.529,251.664C124.092,251.794 124.61,251.846 125.075,251.834C125.542,251.817 126.054,251.731 126.607,251.566C126.622,251.938 126.711,252.313 126.879,252.689C128.093,255.398 130.465,257.313 133.388,257.945C134.076,258.094 134.79,258.169 135.51,258.169C135.614,258.167 135.719,258.166 135.825,258.163C139.678,258.04 143.678,255.801 143.871,251.758C143.885,251.48 143.865,251.21 143.828,250.949L145.685,247.976Z" style="fill:rgb(3,4,5);fill-rule:nonzero;"/>
        </g>
        <text x="112.04px" y="334.66px" style="font-family:'ArialMT', 'Arial', sans-serif;font-size:12px;">T<tspan x="118.925px 122.921px " y="334.66px 334.66px ">re</tspan>nt</text>
        <text x="196.821px" y="310.995px" style="font-family:'ArialMT', 'Arial', sans-serif;font-size:9.9px;">Bob</text>
        <g>
            <path id="rect27232" serif:id="rect2723" d="M240.783,276.099C233.659,276.099 227.927,281.831 227.927,288.956L227.927,290.653L231.499,290.653L231.499,288.956C231.499,283.81 235.637,279.671 240.783,279.671C245.929,279.671 250.079,283.81 250.079,288.956L250.079,303.255L253.652,303.255L253.652,288.956C253.652,281.831 247.908,276.099 240.783,276.099Z" style="fill:rgb(40,40,40);"/>
            <path id="path30822" serif:id="path3082" d="M240.777,277.031C234.048,277.031 228.641,282.819 228.641,289.422L228.641,290.653L230.782,290.653L230.782,288.723C230.782,283.673 234.921,279.272 240.067,279.272L241.498,279.272C246.644,279.272 250.783,283.673 250.783,288.723L250.783,305.551C250.783,309.223 248.556,312.324 245.38,313.769C249.812,311.998 252.923,307.746 252.923,302.744L252.923,289.422C252.923,282.819 247.506,277.031 240.777,277.031Z" style="fill:url(#_Linear47);"/>
            <path id="path29312" serif:id="path2931" d="M240.777,276.399C233.852,276.399 228.287,281.944 228.287,288.823L228.287,290.653L230.483,290.653L230.483,288.091C230.483,282.83 234.749,277.763 240.045,277.763L241.52,277.763C246.817,277.763 251.083,282.83 251.083,288.091L251.083,305.617C251.083,309.443 248.782,312.675 245.514,314.18C250.075,312.331 253.279,307.91 253.279,302.7L253.279,288.823C253.279,281.944 247.703,276.399 240.777,276.399L240.777,276.399Z" style="fill:url(#_Linear48);"/>
            <path id="path28612" serif:id="path2861" d="M235.503,279.65C233.572,280.859 232.486,282.919 232.699,283.606C232.928,284.346 234.284,281.039 238.124,280.014C241.085,279.224 238.124,278.009 235.503,279.65Z" style="fill:url(#_Radial49);"/>
            <path id="path28712" serif:id="path2871" d="M246.073,279.615C248.003,280.823 249.089,282.884 248.877,283.571C248.648,284.311 247.291,281.003 243.452,279.979C240.491,279.189 243.452,277.974 246.073,279.615Z" style="fill:url(#_Radial50);"/>
            <path id="rect28752" serif:id="rect2875" d="M240.777,277.619C234.048,277.619 228.641,282.227 228.641,288.956L228.641,290.653L230.782,290.653L230.782,288.246C230.782,283.1 234.921,278.95 240.067,278.95L241.498,278.95C246.644,278.95 250.783,283.1 250.783,288.246L250.783,305.395C250.783,309.138 248.556,312.296 245.38,313.769C249.812,311.962 252.923,307.63 252.923,302.534L252.923,288.956C252.923,282.227 247.506,277.619 240.777,277.619Z" style="fill:url(#_Linear51);"/>
            <path id="path29332" serif:id="path2933" d="M240.788,276.82C231.288,276.82 229.096,285.102 229.096,288.845C229.096,289.488 229.103,290.084 229.107,290.653L229.828,290.653C229.833,290.084 229.828,289.488 229.828,288.845C229.828,280.61 235.67,277.353 240.788,277.353C245.905,277.353 251.759,280.946 251.759,288.845C251.759,300.074 252.48,300.074 252.48,288.845C252.48,285.102 250.287,276.82 240.788,276.82Z" style="fill:url(#_Linear52);"/>
            <path id="path28852" serif:id="path2885" d="M240.782,277.907C231.493,277.907 229.356,285.828 229.356,289.267C229.356,289.795 229.363,290.179 229.367,290.653L230.055,290.653C230.058,290.179 230.066,289.795 230.066,289.267C230.066,281.701 235.778,278.396 240.782,278.396C245.785,278.395 251.508,282.01 251.508,289.267C251.508,299.583 252.218,299.583 252.218,289.267C252.218,285.828 250.07,277.907 240.782,277.907Z" style="fill:url(#_Linear53);"/>
            <path id="path28972" serif:id="path2897" d="M231.069,281.242C230.048,283.105 232.143,281.928 232.63,281.339C233.998,279.685 236.31,278.487 238.34,278.095C240.042,277.767 240.301,277.11 238.9,277.001C236.105,276.784 232.047,279.456 231.069,281.242L231.069,281.242Z" style="fill:white;fill-opacity:0.8;"/>
            <path id="path29012" serif:id="path2901" d="M229.522,284.319C229.631,285.229 231.391,282.261 232.777,280.867C234.469,279.165 237.035,277.974 238.27,277.817C240.47,277.536 239.425,276.458 238.046,276.73C233.034,277.72 229.247,281.998 229.522,284.319L229.522,284.319Z" style="fill:white;fill-opacity:0.6;"/>
            <path id="path29092" serif:id="path2909" d="M250.45,281.229C251.478,283.088 249.378,281.919 248.89,281.332C247.516,279.683 245.199,278.493 243.168,278.109C241.465,277.787 240.985,277.132 242.387,277.018C245.18,276.791 249.465,279.447 250.45,281.229L250.45,281.229Z" style="fill:white;fill-opacity:0.8;"/>
            <path id="path29112" serif:id="path2911" d="M251.948,284.237C251.843,285.148 250.072,282.186 248.681,280.797C246.982,279.102 244.412,277.92 243.177,277.767C240.976,277.494 242.008,276.455 243.396,276.68C248.416,277.497 252.215,281.915 251.948,284.237L251.948,284.237Z" style="fill:white;fill-opacity:0.6;"/>
            <path id="path29532" serif:id="path2953" d="M235.347,279.343C232.831,280.78 231.414,283.231 231.692,284.047C231.99,284.927 233.759,280.994 238.764,279.776C242.623,278.837 238.764,277.392 235.347,279.343Z" style="fill:url(#_Radial54);"/>
            <path id="path29572" serif:id="path2957" d="M246.177,279.275C248.498,280.736 249.805,283.228 249.549,284.059C249.274,284.954 247.642,280.954 243.024,279.715C239.464,278.76 243.025,277.29 246.177,279.275Z" style="fill:url(#_Radial55);"/>
            <path id="rect19412" serif:id="rect1941" d="M255.078,296.25C255.078,295.974 254.854,295.75 254.578,295.75L226.998,295.75C226.722,295.75 226.498,295.974 226.498,296.25L226.498,318.77C226.498,319.046 226.722,319.27 226.998,319.27L254.578,319.27C254.854,319.27 255.078,319.046 255.078,318.77L255.078,296.25Z" style="fill:url(#_Linear56);"/>
            <path id="rect27092" serif:id="rect2709" d="M255.078,296.25C255.078,295.974 254.854,295.75 254.578,295.75L226.998,295.75C226.722,295.75 226.498,295.974 226.498,296.25L226.498,318.77C226.498,319.046 226.722,319.27 226.998,319.27L254.578,319.27C254.854,319.27 255.078,319.046 255.078,318.77L255.078,296.25Z" style="fill:url(#_Linear57);"/>
            <path id="rect27342" serif:id="rect2734" d="M255.078,296.25C255.078,295.974 254.854,295.75 254.578,295.75L226.998,295.75C226.722,295.75 226.498,295.974 226.498,296.25L226.498,318.77C226.498,319.046 226.722,319.27 226.998,319.27L254.578,319.27C254.854,319.27 255.078,319.046 255.078,318.77L255.078,296.25Z" style="fill:url(#_Linear58);"/>
            <path id="rect27382" serif:id="rect2738" d="M255.078,296.25C255.078,295.974 254.854,295.75 254.578,295.75L226.998,295.75C226.722,295.75 226.498,295.974 226.498,296.25L226.498,318.77C226.498,319.046 226.722,319.27 226.998,319.27L254.578,319.27C254.854,319.27 255.078,319.046 255.078,318.77L255.078,296.25Z" style="fill:url(#_Linear59);"/>
            <path id="path27272" serif:id="path2727" d="M227.391,295.75C228.034,296.503 233.832,297.094 241.113,297.094C248.293,297.094 253.997,296.509 254.774,295.771C254.763,295.77 254.763,295.75 254.753,295.75L227.391,295.75Z" style="fill:white;fill-opacity:0.5;"/>
            <g id="g27982" serif:id="g2798">
                <path id="path27782" serif:id="path2778" d="M228.039,297.559C227.771,299.409 227.471,311.141 228.464,313.653C229.436,316.11 229.315,301.93 231.683,299.698C234.076,297.442 228.292,295.815 228.039,297.559Z" style="fill:url(#_Radial60);"/>
                <path id="path27902" serif:id="path2790" d="M227.891,297.682C227.581,299.841 227.235,313.538 228.381,316.47C229.503,319.339 229.363,302.784 232.096,300.179C234.857,297.545 228.183,295.645 227.891,297.682Z" style="fill:url(#_Radial61);"/>
                <path id="path27942" serif:id="path2794" d="M227.588,297.788C227.203,300.214 226.773,315.602 228.197,318.896C229.591,322.12 229.417,303.52 232.813,300.592C236.245,297.634 227.95,295.5 227.588,297.788Z" style="fill:url(#_Radial62);"/>
            </g>
            <g id="g28032" serif:id="g2803">
                <path id="path28052" serif:id="path2805" d="M253.538,297.559C253.805,299.409 254.106,311.141 253.112,313.653C252.14,316.11 252.262,301.93 249.894,299.698C247.5,297.442 253.284,295.815 253.538,297.559Z" style="fill:url(#_Radial63);"/>
                <path id="path28072" serif:id="path2807" d="M253.685,297.682C253.995,299.841 254.341,313.538 253.195,316.47C252.074,319.339 252.214,302.784 249.481,300.179C246.719,297.545 253.393,295.645 253.685,297.682Z" style="fill:url(#_Radial64);"/>
                <path id="path28092" serif:id="path2809" d="M253.989,297.788C254.374,300.214 254.803,315.602 253.379,318.896C251.986,322.12 252.16,303.52 248.764,300.592C245.332,297.634 253.626,295.5 253.989,297.788Z" style="fill:url(#_Radial65);"/>
            </g>
            <path id="rect30772" serif:id="rect3077" d="M254.547,316.112L254.547,318.912C254.547,319.111 254.391,319.271 254.202,319.271L227.374,319.271C227.184,319.271 227.03,319.111 227.03,318.912L227.03,308.968C227.03,319.445 254.547,301.557 254.547,316.112Z" style="fill:url(#_Linear66);"/>
            <path id="path27682" serif:id="path2768" d="M227.046,319.271C227.689,318.518 233.487,317.926 240.768,317.926C247.948,317.926 253.652,318.511 254.43,319.25C254.415,319.25 254.419,319.271 254.408,319.271L227.046,319.271Z" style="fill-opacity:0.5;"/>
        </g>
        <text x="231.821px" y="310.995px" style="font-family:'ArialMT', 'Arial', sans-serif;font-size:9.9px;">Bob</text>
        <g>
            <path id="rect27233" serif:id="rect2723" d="M182.514,165.335C175.389,165.335 169.658,171.066 169.658,178.191L169.658,179.889L173.229,179.889L173.229,178.191C173.23,173.045 177.368,168.906 182.514,168.906C187.66,168.906 191.81,173.045 191.81,178.191L191.81,192.49L195.383,192.49L195.383,178.191C195.383,171.066 189.639,165.335 182.514,165.335Z" style="fill:rgb(40,40,40);"/>
            <path id="path30823" serif:id="path3082" d="M182.508,166.267C175.779,166.267 170.372,172.054 170.372,178.657L170.372,179.889L172.513,179.889L172.513,177.958C172.513,172.909 176.652,168.507 181.798,168.507L183.229,168.507C188.374,168.507 192.513,172.909 192.513,177.958L192.513,194.786C192.513,198.459 190.286,201.56 187.111,203.004C191.543,201.233 194.654,196.981 194.654,191.98L194.654,178.657C194.654,172.054 189.237,166.267 182.508,166.267Z" style="fill:url(#_Linear67);"/>
            <path id="path29313" serif:id="path2931" d="M182.508,165.634C175.582,165.634 170.018,171.179 170.018,178.058L170.018,179.888L172.214,179.888L172.214,177.326C172.214,172.066 176.48,166.998 181.776,166.998L183.251,166.999C188.547,166.999 192.813,172.065 192.813,177.326L192.813,194.852C192.813,198.679 190.512,201.911 187.245,203.416C191.806,201.566 195.01,197.145 195.01,191.935L195.01,178.058C195.01,171.179 189.434,165.634 182.508,165.634L182.508,165.634Z" style="fill:url(#_Linear68);"/>
            <path id="path28613" serif:id="path2861" d="M177.234,168.886C175.303,170.094 174.217,172.155 174.429,172.842C174.659,173.582 176.015,170.274 179.854,169.25C182.815,168.46 179.854,167.245 177.234,168.886Z" style="fill:url(#_Radial69);"/>
            <path id="path28713" serif:id="path2871" d="M187.804,168.85C189.734,170.059 190.82,172.119 190.608,172.806C190.378,173.546 189.022,170.239 185.183,169.214C182.222,168.424 185.183,167.209 187.804,168.85Z" style="fill:url(#_Radial70);"/>
            <path id="rect28753" serif:id="rect2875" d="M182.508,166.854C175.779,166.854 170.372,171.462 170.372,178.192L170.372,179.889L172.513,179.889L172.513,177.482C172.513,172.336 176.652,168.186 181.798,168.186L183.229,168.186C188.374,168.186 192.513,172.336 192.513,177.482L192.513,194.631C192.513,198.374 190.286,201.531 187.111,203.004C191.543,201.198 194.654,196.866 194.654,191.769L194.654,178.192C194.654,171.462 189.237,166.854 182.508,166.854Z" style="fill:url(#_Linear71);"/>
            <path id="path29333" serif:id="path2933" d="M182.519,166.056C173.019,166.056 170.827,174.337 170.827,178.08C170.827,178.723 170.834,179.32 170.838,179.889L171.559,179.889C171.563,179.32 171.559,178.723 171.559,178.08C171.559,169.846 177.401,166.588 182.519,166.588C187.636,166.588 193.49,170.182 193.49,178.08C193.49,189.31 194.211,189.31 194.211,178.08C194.211,174.337 192.018,166.056 182.519,166.056Z" style="fill:url(#_Linear72);"/>
            <path id="path28853" serif:id="path2885" d="M182.512,167.143C173.224,167.143 171.087,175.063 171.087,178.502C171.087,179.031 171.094,179.414 171.098,179.888L171.786,179.888C171.789,179.414 171.797,179.031 171.797,178.502C171.797,170.937 177.509,167.631 182.512,167.631C187.516,167.631 193.239,171.245 193.239,178.502C193.239,188.818 193.949,188.818 193.949,178.502C193.949,175.063 191.801,167.143 182.512,167.143Z" style="fill:url(#_Linear73);"/>
            <path id="path28973" serif:id="path2897" d="M172.8,170.478C171.779,172.34 173.874,171.163 174.361,170.574C175.729,168.921 178.041,167.722 180.071,167.331C181.772,167.003 182.032,166.345 180.63,166.237C177.836,166.02 173.778,168.691 172.8,170.477L172.8,170.478Z" style="fill:white;fill-opacity:0.8;"/>
            <path id="path29013" serif:id="path2901" d="M171.253,173.554C171.361,174.465 173.122,171.496 174.508,170.103C176.2,168.401 178.766,167.209 180,167.052C182.2,166.771 181.156,165.693 179.777,165.966C174.765,166.956 170.977,171.233 171.253,173.554L171.253,173.554Z" style="fill:white;fill-opacity:0.6;"/>
            <path id="path29093" serif:id="path2909" d="M192.181,170.465C193.208,172.324 191.109,171.154 190.62,170.568C189.246,168.919 186.93,167.728 184.899,167.345C183.195,167.023 182.716,166.368 184.117,166.254C186.911,166.027 191.196,168.682 192.181,170.465L192.181,170.465Z" style="fill:white;fill-opacity:0.8;"/>
            <path id="path29113" serif:id="path2911" d="M193.678,173.472C193.574,174.383 191.803,171.421 190.412,170.033C188.713,168.337 186.143,167.155 184.908,167.002C182.707,166.73 183.739,165.691 185.127,165.915C190.146,166.732 193.946,171.15 193.678,173.473L193.678,173.472Z" style="fill:white;fill-opacity:0.6;"/>
            <path id="path29533" serif:id="path2953" d="M177.078,168.578C174.561,170.016 173.145,172.466 173.422,173.283C173.721,174.163 175.489,170.229 180.494,169.012C184.354,168.072 180.494,166.627 177.078,168.578Z" style="fill:url(#_Radial74);"/>
            <path id="path29573" serif:id="path2957" d="M187.907,168.51C190.229,169.972 191.536,172.464 191.28,173.295C191.004,174.189 189.373,170.189 184.755,168.95C181.194,167.995 184.756,166.526 187.907,168.51Z" style="fill:url(#_Radial75);"/>
            <path id="rect19413" serif:id="rect1941" d="M196.809,185.486C196.809,185.21 196.585,184.986 196.309,184.986L168.729,184.986C168.453,184.986 168.229,185.21 168.229,185.486L168.229,208.006C168.229,208.282 168.453,208.506 168.729,208.506L196.309,208.506C196.585,208.506 196.809,208.282 196.809,208.006L196.809,185.486Z" style="fill:url(#_Linear76);"/>
            <path id="rect27093" serif:id="rect2709" d="M196.809,185.486C196.809,185.21 196.585,184.986 196.309,184.986L168.729,184.986C168.453,184.986 168.229,185.21 168.229,185.486L168.229,208.006C168.229,208.282 168.453,208.506 168.729,208.506L196.309,208.506C196.585,208.506 196.809,208.282 196.809,208.006L196.809,185.486Z" style="fill:url(#_Linear77);"/>
            <path id="rect27343" serif:id="rect2734" d="M196.809,185.486C196.809,185.21 196.585,184.986 196.309,184.986L168.729,184.986C168.453,184.986 168.229,185.21 168.229,185.486L168.229,208.006C168.229,208.282 168.453,208.506 168.729,208.506L196.309,208.506C196.585,208.506 196.809,208.282 196.809,208.006L196.809,185.486Z" style="fill:url(#_Linear78);"/>
            <path id="rect27383" serif:id="rect2738" d="M196.809,185.486C196.809,185.21 196.585,184.986 196.309,184.986L168.729,184.986C168.453,184.986 168.229,185.21 168.229,185.486L168.229,208.006C168.229,208.282 168.453,208.506 168.729,208.506L196.309,208.506C196.585,208.506 196.809,208.282 196.809,208.006L196.809,185.486Z" style="fill:url(#_Linear79);"/>
            <path id="path27273" serif:id="path2727" d="M169.122,184.986C169.764,185.739 175.563,186.33 182.843,186.33C190.024,186.33 195.727,185.745 196.505,185.007C196.494,185.005 196.494,184.986 196.483,184.986L169.122,184.986Z" style="fill:white;fill-opacity:0.5;"/>
            <g id="g27983" serif:id="g2798">
                <path id="path27783" serif:id="path2778" d="M169.77,186.795C169.502,188.644 169.201,200.377 170.195,202.889C171.167,205.346 171.045,191.165 173.414,188.933C175.807,186.677 170.023,185.05 169.77,186.795Z" style="fill:url(#_Radial80);"/>
                <path id="path27903" serif:id="path2790" d="M169.622,186.918C169.312,189.077 168.966,202.773 170.112,205.706C171.233,208.574 171.094,192.02 173.826,189.414C176.588,186.781 169.914,184.881 169.622,186.918Z" style="fill:url(#_Radial81);"/>
                <path id="path27943" serif:id="path2794" d="M169.319,187.023C168.934,189.449 168.504,204.837 169.928,208.132C171.321,211.355 171.147,192.755 174.543,189.828C177.976,186.869 169.681,184.735 169.319,187.023Z" style="fill:url(#_Radial82);"/>
            </g>
            <g id="g28033" serif:id="g2803">
                <path id="path28053" serif:id="path2805" d="M195.268,186.795C195.536,188.644 195.837,200.377 194.843,202.889C193.871,205.346 193.993,191.165 191.624,188.933C189.231,186.677 195.015,185.05 195.268,186.795Z" style="fill:url(#_Radial83);"/>
                <path id="path28073" serif:id="path2807" d="M195.416,186.918C195.726,189.077 196.072,202.773 194.926,205.706C193.805,208.574 193.944,192.02 191.212,189.414C188.45,186.781 195.124,184.881 195.416,186.918Z" style="fill:url(#_Radial84);"/>
                <path id="path28093" serif:id="path2809" d="M195.719,187.023C196.105,189.449 196.534,204.837 195.11,208.132C193.717,211.355 193.891,192.755 190.495,189.828C187.062,186.869 195.357,184.735 195.719,187.023Z" style="fill:url(#_Radial85);"/>
            </g>
            <path id="rect30773" serif:id="rect3077" d="M196.278,205.347L196.278,208.148C196.278,208.347 196.121,208.506 195.933,208.506L169.105,208.506C168.915,208.506 168.761,208.347 168.761,208.148L168.761,198.204C168.761,208.68 196.278,190.792 196.278,205.347Z" style="fill:url(#_Linear86);"/>
            <path id="path27683" serif:id="path2768" d="M168.777,208.506C169.419,207.754 175.218,207.161 182.498,207.161C189.679,207.161 195.383,207.747 196.16,208.485C196.146,208.485 196.15,208.506 196.139,208.506L168.777,208.506Z" style="fill-opacity:0.5;"/>
        </g>
        <text x="173.552px" y="200.231px" style="font-family:'ArialMT', 'Arial', sans-serif;font-size:9.9px;">Bob</text>
        <text x="428.415px" y="34.488px" style="font-family:'ArialMT', 'Arial', sans-serif;font-size:9.9px;">Bob</text>
        <text x="428.415px" y="34.488px" style="font-family:'ArialMT', 'Arial', sans-serif;font-size:9.9px;">Bob</text>
        <path d="M305.323,101.235L317.323,107.235L305.323,113.235C308.323,110.235 308.323,104.235 305.323,101.235Z"/>
        <path d="M137.443,107.235L307.723,107.235" style="fill:none;stroke:black;stroke-width:2px;stroke-miterlimit:1.5;"/>
        <g id="g4211">
            <path id="path4196" d="M449.415,29.948C449.394,27.023 448.149,24.099 445.993,22.042C442.301,18.357 436.102,17.626 431.5,20.063C427.336,22.143 424.808,26.86 425.447,31.377C425.928,35.382 428.902,38.759 432.647,40.309L431.002,43.177C430.478,44.016 431.135,44.487 431.904,44.487L434.978,44.432L434.902,47.693L432.816,49.91L435.738,52.796L433.22,55.434L433.22,57.386L435.927,60.088L434.273,62.045L434.378,64.535L436.454,66.695L438.596,69.02C439.91,68.626 440.723,67.502 441.63,65.438L441.463,44.276L443.803,44.148C444.638,44.138 444.99,43.134 444.555,42.48L442.61,40.099C445.329,38.845 447.577,36.618 448.663,33.86C449.187,32.611 449.424,31.278 449.415,29.948L449.415,29.948Z" style="fill:rgb(194,175,126);fill-rule:nonzero;stroke:rgb(84,84,84);stroke-width:0.6px;"/>
            <path id="path4192" d="M437.745,27.4C436.512,27.432 435.314,26.435 435.169,25.159C435.031,24.131 435.578,23.055 436.477,22.582C437.47,22.027 438.808,22.194 439.604,23.033C440.281,23.714 440.541,24.813 440.178,25.724C439.823,26.678 438.889,27.357 437.897,27.396C437.846,27.399 437.795,27.4 437.744,27.4L437.745,27.4Z" style="fill:white;fill-rule:nonzero;stroke:rgb(84,84,84);stroke-width:0.6px;"/>
            <path id="path4201" d="M437.694,39.209L438.073,68.204L437.046,67.048L436.686,42.427L437.694,39.209Z" style="fill:rgb(255,238,170);fill-rule:nonzero;stroke:rgb(84,84,84);stroke-width:0.3px;"/>
        </g>
        <text x="428.415px" y="34.488px" style="font-family:'ArialMT', 'Arial', sans-serif;font-size:9.9px;">Bob</text>
        <text x="228.009px" y="89.275px" style="font-family:'ArialMT', 'Arial', sans-serif;font-size:9.9px;">Bob</text>
        <path d="M115.784,170.47L112.186,157.545L124.685,162.421C120.448,162.208 115.997,166.232 115.784,170.47Z"/>
        <path d="M204.353,259.468C204.353,259.468 139.559,187.816 118.625,164.665" style="fill:none;stroke:black;stroke-width:2px;stroke-miterlimit:1.5;"/>
    </g>
    <g id="Calque-11" serif:id="Calque 1">
    </g>
    <g id="layer1">
    </g>
    <defs>
        <radialGradient id="_Radial1" cx="0" cy="0" r="1" gradientUnits="userSpaceOnUse" gradientTransform="matrix(-8.84932,2.49767,0.931283,8.50006,241.226,54.5193)"><stop offset="0" style="stop-color:rgb(218,218,218);stop-opacity:1"/><stop offset="1" style="stop-color:rgb(136,136,136);stop-opacity:1"/></radialGradient>
        <linearGradient id="_Linear2" x1="0" y1="0" x2="1" y2="0" gradientUnits="userSpaceOnUse" gradientTransform="matrix(-18.2509,-45.7905,-45.7905,18.2509,234.735,43.1058)"><stop offset="0" style="stop-color:rgb(97,54,10);stop-opacity:1"/><stop offset="1" style="stop-color:rgb(5,2,0);stop-opacity:1"/></linearGradient>
        <linearGradient id="_Linear3" x1="0" y1="0" x2="1" y2="0" gradientUnits="userSpaceOnUse" gradientTransform="matrix(26.67,29.7239,29.7239,-26.67,198.285,26.8441)"><stop offset="0" style="stop-color:rgb(65,36,7);stop-opacity:1"/><stop offset="1" style="stop-color:black;stop-opacity:1"/></linearGradient>
        <linearGradient id="_Linear4" x1="0" y1="0" x2="1" y2="0" gradientUnits="userSpaceOnUse" gradientTransform="matrix(5.12235e-16,8.36543,-8.36543,5.12235e-16,235.047,57.0147)"><stop offset="0" style="stop-color:white;stop-opacity:0.65"/><stop offset="1" style="stop-color:white;stop-opacity:0"/></linearGradient>
        <linearGradient id="_Linear5" x1="0" y1="0" x2="1" y2="0" gradientUnits="userSpaceOnUse" gradientTransform="matrix(0.758746,-4.27761,4.27761,0.758746,236.434,64.3877)"><stop offset="0" style="stop-color:white;stop-opacity:0.5"/><stop offset="1" style="stop-color:white;stop-opacity:0"/></linearGradient>
        <radialGradient id="_Radial6" cx="0" cy="0" r="1" gradientUnits="userSpaceOnUse" gradientTransform="matrix(4.889,0,0,3.56666,232.326,60.2579)"><stop offset="0" style="stop-color:rgb(255,225,156);stop-opacity:0.8"/><stop offset="1" style="stop-color:rgb(183,158,79);stop-opacity:0"/></radialGradient>
        <radialGradient id="_Radial7" cx="0" cy="0" r="1" gradientUnits="userSpaceOnUse" gradientTransform="matrix(-4.889,0,0,3.56666,241.624,60.2238)"><stop offset="0" style="stop-color:rgb(255,225,156);stop-opacity:0.8"/><stop offset="1" style="stop-color:rgb(183,158,79);stop-opacity:0"/></radialGradient>
        <linearGradient id="_Linear8" x1="0" y1="0" x2="1" y2="0" gradientUnits="userSpaceOnUse" gradientTransform="matrix(1.02898e-16,-1.68046,1.68046,1.02898e-16,236.595,63.0709)"><stop offset="0" style="stop-color:white;stop-opacity:0.5"/><stop offset="1" style="stop-color:white;stop-opacity:0"/></linearGradient>
        <linearGradient id="_Linear9" x1="0" y1="0" x2="1" y2="0" gradientUnits="userSpaceOnUse" gradientTransform="matrix(1.53785e-15,-25.115,25.115,1.53785e-15,239.518,70.5513)"><stop offset="0" style="stop-color:white;stop-opacity:0.8"/><stop offset="1" style="stop-color:white;stop-opacity:0"/></linearGradient>
        <linearGradient id="_Linear10" x1="0" y1="0" x2="1" y2="0" gradientUnits="userSpaceOnUse" gradientTransform="matrix(1.41274e-15,-23.0718,23.0718,1.41274e-15,239.462,70.7357)"><stop offset="0" style="stop-color:white;stop-opacity:0.6"/><stop offset="1" style="stop-color:white;stop-opacity:0"/></linearGradient>
        <radialGradient id="_Radial11" cx="0" cy="0" r="1" gradientUnits="userSpaceOnUse" gradientTransform="matrix(6.37309,0,0,4.24095,232.303,60.1881)"><stop offset="0" style="stop-color:rgb(255,225,156);stop-opacity:0.4"/><stop offset="1" style="stop-color:rgb(183,158,79);stop-opacity:0"/></radialGradient>
        <radialGradient id="_Radial12" cx="0" cy="0" r="1" gradientUnits="userSpaceOnUse" gradientTransform="matrix(-5.87998,0,0,4.31325,241.641,60.1464)"><stop offset="0" style="stop-color:rgb(255,225,156);stop-opacity:0.4"/><stop offset="1" style="stop-color:rgb(183,158,79);stop-opacity:0"/></radialGradient>
        <radialGradient id="_Radial13" cx="0" cy="0" r="1" gradientUnits="userSpaceOnUse" gradientTransform="matrix(19.1875,0,0,1.37052,236.975,97.4643)"><stop offset="0" style="stop-color:rgb(40,40,40);stop-opacity:0.4"/><stop offset="1" style="stop-color:rgb(40,40,40);stop-opacity:0"/></radialGradient>
        <radialGradient id="_Radial14" cx="0" cy="0" r="1" gradientUnits="userSpaceOnUse" gradientTransform="matrix(19.1875,0,0,1.71315,236.975,96.436)"><stop offset="0" style="stop-color:rgb(40,40,40);stop-opacity:0.4"/><stop offset="1" style="stop-color:rgb(40,40,40);stop-opacity:0"/></radialGradient>
        <radialGradient id="_Radial15" cx="0" cy="0" r="1" gradientUnits="userSpaceOnUse" gradientTransform="matrix(19.1875,0,0,1.37052,236.975,96.779)"><stop offset="0" style="stop-color:rgb(40,40,40);stop-opacity:0.4"/><stop offset="1" style="stop-color:rgb(40,40,40);stop-opacity:0"/></radialGradient>
        <linearGradient id="_Linear16" x1="0" y1="0" x2="1" y2="0" gradientUnits="userSpaceOnUse" gradientTransform="matrix(11.0694,0,0,11.0694,236.742,88.1812)"><stop offset="0" style="stop-color:rgb(164,124,68);stop-opacity:1"/><stop offset="0.75" style="stop-color:rgb(186,163,99);stop-opacity:1"/><stop offset="1" style="stop-color:rgb(214,199,149);stop-opacity:1"/></linearGradient>
        <linearGradient id="_Linear17" x1="0" y1="0" x2="1" y2="0" gradientUnits="userSpaceOnUse" gradientTransform="matrix(3.57441e-17,0.583745,-0.583745,3.57441e-17,237.024,83.4568)"><stop offset="0" style="stop-color:black;stop-opacity:0.03"/><stop offset="1" style="stop-color:white;stop-opacity:0.03"/></linearGradient>
        <linearGradient id="_Linear18" x1="0" y1="0" x2="1" y2="0" gradientUnits="userSpaceOnUse" gradientTransform="matrix(0.260612,1.16687,-1.16687,0.260612,233.374,81.9984)"><stop offset="0" style="stop-color:black;stop-opacity:0.03"/><stop offset="1" style="stop-color:white;stop-opacity:0.03"/></linearGradient>
        <linearGradient id="_Linear19" x1="0" y1="0" x2="1" y2="0" gradientUnits="userSpaceOnUse" gradientTransform="matrix(-0.194137,1.45843,-1.45843,-0.194137,228.404,92.208)"><stop offset="0" style="stop-color:black;stop-opacity:0.03"/><stop offset="1" style="stop-color:white;stop-opacity:0.03"/></linearGradient>
        <radialGradient id="_Radial20" cx="0" cy="0" r="1" gradientUnits="userSpaceOnUse" gradientTransform="matrix(3.84504,0,0,14.6736,225.487,77.2402)"><stop offset="0" style="stop-color:white;stop-opacity:0.4"/><stop offset="1" style="stop-color:white;stop-opacity:0"/></radialGradient>
        <radialGradient id="_Radial21" cx="0" cy="0" r="1" gradientUnits="userSpaceOnUse" gradientTransform="matrix(4.43714,0,0,17.1298,225.459,77.5239)"><stop offset="0" style="stop-color:white;stop-opacity:0.3"/><stop offset="1" style="stop-color:white;stop-opacity:0"/></radialGradient>
        <radialGradient id="_Radial22" cx="0" cy="0" r="1" gradientUnits="userSpaceOnUse" gradientTransform="matrix(5.5137,0,0,19.2455,225.375,77.7691)"><stop offset="0" style="stop-color:white;stop-opacity:0.2"/><stop offset="1" style="stop-color:white;stop-opacity:0"/></radialGradient>
        <radialGradient id="_Radial23" cx="0" cy="0" r="1" gradientUnits="userSpaceOnUse" gradientTransform="matrix(-3.84504,0,0,14.6736,248.465,77.2402)"><stop offset="0" style="stop-color:white;stop-opacity:0.4"/><stop offset="1" style="stop-color:white;stop-opacity:0"/></radialGradient>
        <radialGradient id="_Radial24" cx="0" cy="0" r="1" gradientUnits="userSpaceOnUse" gradientTransform="matrix(-4.43714,0,0,17.1298,248.493,77.5239)"><stop offset="0" style="stop-color:white;stop-opacity:0.3"/><stop offset="1" style="stop-color:white;stop-opacity:0"/></radialGradient>
        <radialGradient id="_Radial25" cx="0" cy="0" r="1" gradientUnits="userSpaceOnUse" gradientTransform="matrix(-5.5137,0,0,19.2455,248.577,77.7691)"><stop offset="0" style="stop-color:white;stop-opacity:0.2"/><stop offset="1" style="stop-color:white;stop-opacity:0"/></radialGradient>
        <linearGradient id="_Linear26" x1="0" y1="0" x2="1" y2="0" gradientUnits="userSpaceOnUse" gradientTransform="matrix(9.02129e-16,-14.7329,14.7329,9.02129e-16,235.481,97.3343)"><stop offset="0" style="stop-color:white;stop-opacity:0.25"/><stop offset="1" style="stop-color:white;stop-opacity:0"/></linearGradient>
        <linearGradient id="_Linear27" x1="0" y1="0" x2="1" y2="0" gradientUnits="userSpaceOnUse" gradientTransform="matrix(5.34078e-16,8.72216,-8.72216,5.34078e-16,203.771,277.508)"><stop offset="0" style="stop-color:white;stop-opacity:0.65"/><stop offset="1" style="stop-color:white;stop-opacity:0"/></linearGradient>
        <linearGradient id="_Linear28" x1="0" y1="0" x2="1" y2="0" gradientUnits="userSpaceOnUse" gradientTransform="matrix(0.791102,-4.46003,4.46003,0.791102,205.218,285.195)"><stop offset="0" style="stop-color:white;stop-opacity:0.5"/><stop offset="1" style="stop-color:white;stop-opacity:0"/></linearGradient>
        <radialGradient id="_Radial29" cx="0" cy="0" r="1" gradientUnits="userSpaceOnUse" gradientTransform="matrix(5.09749,0,0,3.71876,200.94,280.889)"><stop offset="0" style="stop-color:rgb(255,225,156);stop-opacity:0.8"/><stop offset="1" style="stop-color:rgb(183,158,79);stop-opacity:0"/></radialGradient>
        <radialGradient id="_Radial30" cx="0" cy="0" r="1" gradientUnits="userSpaceOnUse" gradientTransform="matrix(-5.09749,0,0,3.71876,210.635,280.854)"><stop offset="0" style="stop-color:rgb(255,225,156);stop-opacity:0.8"/><stop offset="1" style="stop-color:rgb(183,158,79);stop-opacity:0"/></radialGradient>
        <linearGradient id="_Linear31" x1="0" y1="0" x2="1" y2="0" gradientUnits="userSpaceOnUse" gradientTransform="matrix(1.07286e-16,-1.75212,1.75212,1.07286e-16,205.385,283.822)"><stop offset="0" style="stop-color:white;stop-opacity:0.5"/><stop offset="1" style="stop-color:white;stop-opacity:0"/></linearGradient>
        <linearGradient id="_Linear32" x1="0" y1="0" x2="1" y2="0" gradientUnits="userSpaceOnUse" gradientTransform="matrix(1.60343e-15,-26.186,26.186,1.60343e-15,208.444,291.622)"><stop offset="0" style="stop-color:white;stop-opacity:0.8"/><stop offset="1" style="stop-color:white;stop-opacity:0"/></linearGradient>
        <linearGradient id="_Linear33" x1="0" y1="0" x2="1" y2="0" gradientUnits="userSpaceOnUse" gradientTransform="matrix(1.47299e-15,-24.0557,24.0557,1.47299e-15,208.38,291.814)"><stop offset="0" style="stop-color:white;stop-opacity:0.6"/><stop offset="1" style="stop-color:white;stop-opacity:0"/></linearGradient>
        <radialGradient id="_Radial34" cx="0" cy="0" r="1" gradientUnits="userSpaceOnUse" gradientTransform="matrix(6.64487,0,0,4.4218,200.916,280.816)"><stop offset="0" style="stop-color:rgb(255,225,156);stop-opacity:0.4"/><stop offset="1" style="stop-color:rgb(183,158,79);stop-opacity:0"/></radialGradient>
        <radialGradient id="_Radial35" cx="0" cy="0" r="1" gradientUnits="userSpaceOnUse" gradientTransform="matrix(-6.13073,0,0,4.49719,210.653,280.773)"><stop offset="0" style="stop-color:rgb(255,225,156);stop-opacity:0.4"/><stop offset="1" style="stop-color:rgb(183,158,79);stop-opacity:0"/></radialGradient>
        <linearGradient id="_Linear36" x1="0" y1="0" x2="1" y2="0" gradientUnits="userSpaceOnUse" gradientTransform="matrix(11.5414,0,0,11.5414,205.544,310.003)"><stop offset="0" style="stop-color:rgb(164,124,68);stop-opacity:1"/><stop offset="0.75" style="stop-color:rgb(186,163,99);stop-opacity:1"/><stop offset="1" style="stop-color:rgb(214,199,149);stop-opacity:1"/></linearGradient>
        <linearGradient id="_Linear37" x1="0" y1="0" x2="1" y2="0" gradientUnits="userSpaceOnUse" gradientTransform="matrix(3.72683e-17,0.608638,-0.608638,3.72683e-17,205.839,305.077)"><stop offset="0" style="stop-color:black;stop-opacity:0.03"/><stop offset="1" style="stop-color:white;stop-opacity:0.03"/></linearGradient>
        <linearGradient id="_Linear38" x1="0" y1="0" x2="1" y2="0" gradientUnits="userSpaceOnUse" gradientTransform="matrix(0.271725,1.21663,-1.21663,0.271725,202.032,303.557)"><stop offset="0" style="stop-color:black;stop-opacity:0.03"/><stop offset="1" style="stop-color:white;stop-opacity:0.03"/></linearGradient>
        <linearGradient id="_Linear39" x1="0" y1="0" x2="1" y2="0" gradientUnits="userSpaceOnUse" gradientTransform="matrix(-0.202416,1.52062,-1.52062,-0.202416,196.85,314.202)"><stop offset="0" style="stop-color:black;stop-opacity:0.03"/><stop offset="1" style="stop-color:white;stop-opacity:0.03"/></linearGradient>
        <radialGradient id="_Radial40" cx="0" cy="0" r="1" gradientUnits="userSpaceOnUse" gradientTransform="matrix(4.00901,0,0,15.2994,193.809,298.596)"><stop offset="0" style="stop-color:white;stop-opacity:0.4"/><stop offset="1" style="stop-color:white;stop-opacity:0"/></radialGradient>
        <radialGradient id="_Radial41" cx="0" cy="0" r="1" gradientUnits="userSpaceOnUse" gradientTransform="matrix(4.62636,0,0,17.8603,193.78,298.891)"><stop offset="0" style="stop-color:white;stop-opacity:0.3"/><stop offset="1" style="stop-color:white;stop-opacity:0"/></radialGradient>
        <radialGradient id="_Radial42" cx="0" cy="0" r="1" gradientUnits="userSpaceOnUse" gradientTransform="matrix(5.74883,0,0,20.0662,193.692,299.147)"><stop offset="0" style="stop-color:white;stop-opacity:0.2"/><stop offset="1" style="stop-color:white;stop-opacity:0"/></radialGradient>
        <radialGradient id="_Radial43" cx="0" cy="0" r="1" gradientUnits="userSpaceOnUse" gradientTransform="matrix(-4.00901,0,0,15.2994,217.767,298.596)"><stop offset="0" style="stop-color:white;stop-opacity:0.4"/><stop offset="1" style="stop-color:white;stop-opacity:0"/></radialGradient>
        <radialGradient id="_Radial44" cx="0" cy="0" r="1" gradientUnits="userSpaceOnUse" gradientTransform="matrix(-4.62636,0,0,17.8603,217.797,298.891)"><stop offset="0" style="stop-color:white;stop-opacity:0.3"/><stop offset="1" style="stop-color:white;stop-opacity:0"/></radialGradient>
        <radialGradient id="_Radial45" cx="0" cy="0" r="1" gradientUnits="userSpaceOnUse" gradientTransform="matrix(-5.74883,0,0,20.0662,217.884,299.147)"><stop offset="0" style="stop-color:white;stop-opacity:0.2"/><stop offset="1" style="stop-color:white;stop-opacity:0"/></radialGradient>
        <linearGradient id="_Linear46" x1="0" y1="0" x2="1" y2="0" gradientUnits="userSpaceOnUse" gradientTransform="matrix(9.40599e-16,-15.3611,15.3611,9.40599e-16,204.229,319.547)"><stop offset="0" style="stop-color:white;stop-opacity:0.25"/><stop offset="1" style="stop-color:white;stop-opacity:0"/></linearGradient>
        <linearGradient id="_Linear47" x1="0" y1="0" x2="1" y2="0" gradientUnits="userSpaceOnUse" gradientTransform="matrix(5.34078e-16,8.72216,-8.72216,5.34078e-16,238.771,277.508)"><stop offset="0" style="stop-color:white;stop-opacity:0.65"/><stop offset="1" style="stop-color:white;stop-opacity:0"/></linearGradient>
        <linearGradient id="_Linear48" x1="0" y1="0" x2="1" y2="0" gradientUnits="userSpaceOnUse" gradientTransform="matrix(0.791102,-4.46003,4.46003,0.791102,240.218,285.195)"><stop offset="0" style="stop-color:white;stop-opacity:0.5"/><stop offset="1" style="stop-color:white;stop-opacity:0"/></linearGradient>
        <radialGradient id="_Radial49" cx="0" cy="0" r="1" gradientUnits="userSpaceOnUse" gradientTransform="matrix(5.09749,0,0,3.71876,235.94,280.889)"><stop offset="0" style="stop-color:rgb(255,225,156);stop-opacity:0.8"/><stop offset="1" style="stop-color:rgb(183,158,79);stop-opacity:0"/></radialGradient>
        <radialGradient id="_Radial50" cx="0" cy="0" r="1" gradientUnits="userSpaceOnUse" gradientTransform="matrix(-5.09749,0,0,3.71876,245.635,280.854)"><stop offset="0" style="stop-color:rgb(255,225,156);stop-opacity:0.8"/><stop offset="1" style="stop-color:rgb(183,158,79);stop-opacity:0"/></radialGradient>
        <linearGradient id="_Linear51" x1="0" y1="0" x2="1" y2="0" gradientUnits="userSpaceOnUse" gradientTransform="matrix(1.07286e-16,-1.75212,1.75212,1.07286e-16,240.385,283.822)"><stop offset="0" style="stop-color:white;stop-opacity:0.5"/><stop offset="1" style="stop-color:white;stop-opacity:0"/></linearGradient>
        <linearGradient id="_Linear52" x1="0" y1="0" x2="1" y2="0" gradientUnits="userSpaceOnUse" gradientTransform="matrix(1.60343e-15,-26.186,26.186,1.60343e-15,243.444,291.622)"><stop offset="0" style="stop-color:white;stop-opacity:0.8"/><stop offset="1" style="stop-color:white;stop-opacity:0"/></linearGradient>
        <linearGradient id="_Linear53" x1="0" y1="0" x2="1" y2="0" gradientUnits="userSpaceOnUse" gradientTransform="matrix(1.47299e-15,-24.0557,24.0557,1.47299e-15,243.38,291.814)"><stop offset="0" style="stop-color:white;stop-opacity:0.6"/><stop offset="1" style="stop-color:white;stop-opacity:0"/></linearGradient>
        <radialGradient id="_Radial54" cx="0" cy="0" r="1" gradientUnits="userSpaceOnUse" gradientTransform="matrix(6.64487,0,0,4.4218,235.916,280.816)"><stop offset="0" style="stop-color:rgb(255,225,156);stop-opacity:0.4"/><stop offset="1" style="stop-color:rgb(183,158,79);stop-opacity:0"/></radialGradient>
        <radialGradient id="_Radial55" cx="0" cy="0" r="1" gradientUnits="userSpaceOnUse" gradientTransform="matrix(-6.13073,0,0,4.49719,245.653,280.773)"><stop offset="0" style="stop-color:rgb(255,225,156);stop-opacity:0.4"/><stop offset="1" style="stop-color:rgb(183,158,79);stop-opacity:0"/></radialGradient>
        <linearGradient id="_Linear56" x1="0" y1="0" x2="1" y2="0" gradientUnits="userSpaceOnUse" gradientTransform="matrix(11.5414,0,0,11.5414,240.544,310.003)"><stop offset="0" style="stop-color:rgb(164,124,68);stop-opacity:1"/><stop offset="0.75" style="stop-color:rgb(186,163,99);stop-opacity:1"/><stop offset="1" style="stop-color:rgb(214,199,149);stop-opacity:1"/></linearGradient>
        <linearGradient id="_Linear57" x1="0" y1="0" x2="1" y2="0" gradientUnits="userSpaceOnUse" gradientTransform="matrix(3.72683e-17,0.608638,-0.608638,3.72683e-17,240.839,305.077)"><stop offset="0" style="stop-color:black;stop-opacity:0.03"/><stop offset="1" style="stop-color:white;stop-opacity:0.03"/></linearGradient>
        <linearGradient id="_Linear58" x1="0" y1="0" x2="1" y2="0" gradientUnits="userSpaceOnUse" gradientTransform="matrix(0.271725,1.21663,-1.21663,0.271725,237.032,303.557)"><stop offset="0" style="stop-color:black;stop-opacity:0.03"/><stop offset="1" style="stop-color:white;stop-opacity:0.03"/></linearGradient>
        <linearGradient id="_Linear59" x1="0" y1="0" x2="1" y2="0" gradientUnits="userSpaceOnUse" gradientTransform="matrix(-0.202416,1.52062,-1.52062,-0.202416,231.85,314.202)"><stop offset="0" style="stop-color:black;stop-opacity:0.03"/><stop offset="1" style="stop-color:white;stop-opacity:0.03"/></linearGradient>
        <radialGradient id="_Radial60" cx="0" cy="0" r="1" gradientUnits="userSpaceOnUse" gradientTransform="matrix(4.00901,0,0,15.2994,228.809,298.596)"><stop offset="0" style="stop-color:white;stop-opacity:0.4"/><stop offset="1" style="stop-color:white;stop-opacity:0"/></radialGradient>
        <radialGradient id="_Radial61" cx="0" cy="0" r="1" gradientUnits="userSpaceOnUse" gradientTransform="matrix(4.62636,0,0,17.8603,228.78,298.891)"><stop offset="0" style="stop-color:white;stop-opacity:0.3"/><stop offset="1" style="stop-color:white;stop-opacity:0"/></radialGradient>
        <radialGradient id="_Radial62" cx="0" cy="0" r="1" gradientUnits="userSpaceOnUse" gradientTransform="matrix(5.74883,0,0,20.0662,228.692,299.147)"><stop offset="0" style="stop-color:white;stop-opacity:0.2"/><stop offset="1" style="stop-color:white;stop-opacity:0"/></radialGradient>
        <radialGradient id="_Radial63" cx="0" cy="0" r="1" gradientUnits="userSpaceOnUse" gradientTransform="matrix(-4.00901,0,0,15.2994,252.767,298.596)"><stop offset="0" style="stop-color:white;stop-opacity:0.4"/><stop offset="1" style="stop-color:white;stop-opacity:0"/></radialGradient>
        <radialGradient id="_Radial64" cx="0" cy="0" r="1" gradientUnits="userSpaceOnUse" gradientTransform="matrix(-4.62636,0,0,17.8603,252.797,298.891)"><stop offset="0" style="stop-color:white;stop-opacity:0.3"/><stop offset="1" style="stop-color:white;stop-opacity:0"/></radialGradient>
        <radialGradient id="_Radial65" cx="0" cy="0" r="1" gradientUnits="userSpaceOnUse" gradientTransform="matrix(-5.74883,0,0,20.0662,252.884,299.147)"><stop offset="0" style="stop-color:white;stop-opacity:0.2"/><stop offset="1" style="stop-color:white;stop-opacity:0"/></radialGradient>
        <linearGradient id="_Linear66" x1="0" y1="0" x2="1" y2="0" gradientUnits="userSpaceOnUse" gradientTransform="matrix(9.40599e-16,-15.3611,15.3611,9.40599e-16,239.229,319.547)"><stop offset="0" style="stop-color:white;stop-opacity:0.25"/><stop offset="1" style="stop-color:white;stop-opacity:0"/></linearGradient>
        <linearGradient id="_Linear67" x1="0" y1="0" x2="1" y2="0" gradientUnits="userSpaceOnUse" gradientTransform="matrix(5.34078e-16,8.72216,-8.72216,5.34078e-16,180.502,166.743)"><stop offset="0" style="stop-color:white;stop-opacity:0.65"/><stop offset="1" style="stop-color:white;stop-opacity:0"/></linearGradient>
        <linearGradient id="_Linear68" x1="0" y1="0" x2="1" y2="0" gradientUnits="userSpaceOnUse" gradientTransform="matrix(0.791102,-4.46003,4.46003,0.791102,181.949,174.431)"><stop offset="0" style="stop-color:white;stop-opacity:0.5"/><stop offset="1" style="stop-color:white;stop-opacity:0"/></linearGradient>
        <radialGradient id="_Radial69" cx="0" cy="0" r="1" gradientUnits="userSpaceOnUse" gradientTransform="matrix(5.09749,0,0,3.71876,177.671,170.125)"><stop offset="0" style="stop-color:rgb(255,225,156);stop-opacity:0.8"/><stop offset="1" style="stop-color:rgb(183,158,79);stop-opacity:0"/></radialGradient>
        <radialGradient id="_Radial70" cx="0" cy="0" r="1" gradientUnits="userSpaceOnUse" gradientTransform="matrix(-5.09749,0,0,3.71876,187.365,170.089)"><stop offset="0" style="stop-color:rgb(255,225,156);stop-opacity:0.8"/><stop offset="1" style="stop-color:rgb(183,158,79);stop-opacity:0"/></radialGradient>
        <linearGradient id="_Linear71" x1="0" y1="0" x2="1" y2="0" gradientUnits="userSpaceOnUse" gradientTransform="matrix(1.07286e-16,-1.75212,1.75212,1.07286e-16,182.116,173.058)"><stop offset="0" style="stop-color:white;stop-opacity:0.5"/><stop offset="1" style="stop-color:white;stop-opacity:0"/></linearGradient>
        <linearGradient id="_Linear72" x1="0" y1="0" x2="1" y2="0" gradientUnits="userSpaceOnUse" gradientTransform="matrix(1.60343e-15,-26.186,26.186,1.60343e-15,185.175,180.857)"><stop offset="0" style="stop-color:white;stop-opacity:0.8"/><stop offset="1" style="stop-color:white;stop-opacity:0"/></linearGradient>
        <linearGradient id="_Linear73" x1="0" y1="0" x2="1" y2="0" gradientUnits="userSpaceOnUse" gradientTransform="matrix(1.47299e-15,-24.0557,24.0557,1.47299e-15,185.11,181.049)"><stop offset="0" style="stop-color:white;stop-opacity:0.6"/><stop offset="1" style="stop-color:white;stop-opacity:0"/></linearGradient>
        <radialGradient id="_Radial74" cx="0" cy="0" r="1" gradientUnits="userSpaceOnUse" gradientTransform="matrix(6.64487,0,0,4.4218,177.647,170.052)"><stop offset="0" style="stop-color:rgb(255,225,156);stop-opacity:0.4"/><stop offset="1" style="stop-color:rgb(183,158,79);stop-opacity:0"/></radialGradient>
        <radialGradient id="_Radial75" cx="0" cy="0" r="1" gradientUnits="userSpaceOnUse" gradientTransform="matrix(-6.13073,0,0,4.49719,187.383,170.008)"><stop offset="0" style="stop-color:rgb(255,225,156);stop-opacity:0.4"/><stop offset="1" style="stop-color:rgb(183,158,79);stop-opacity:0"/></radialGradient>
        <linearGradient id="_Linear76" x1="0" y1="0" x2="1" y2="0" gradientUnits="userSpaceOnUse" gradientTransform="matrix(11.5414,0,0,11.5414,182.275,199.239)"><stop offset="0" style="stop-color:rgb(164,124,68);stop-opacity:1"/><stop offset="0.75" style="stop-color:rgb(186,163,99);stop-opacity:1"/><stop offset="1" style="stop-color:rgb(214,199,149);stop-opacity:1"/></linearGradient>
        <linearGradient id="_Linear77" x1="0" y1="0" x2="1" y2="0" gradientUnits="userSpaceOnUse" gradientTransform="matrix(3.72683e-17,0.608638,-0.608638,3.72683e-17,182.569,194.313)"><stop offset="0" style="stop-color:black;stop-opacity:0.03"/><stop offset="1" style="stop-color:white;stop-opacity:0.03"/></linearGradient>
        <linearGradient id="_Linear78" x1="0" y1="0" x2="1" y2="0" gradientUnits="userSpaceOnUse" gradientTransform="matrix(0.271725,1.21663,-1.21663,0.271725,178.763,192.792)"><stop offset="0" style="stop-color:black;stop-opacity:0.03"/><stop offset="1" style="stop-color:white;stop-opacity:0.03"/></linearGradient>
        <linearGradient id="_Linear79" x1="0" y1="0" x2="1" y2="0" gradientUnits="userSpaceOnUse" gradientTransform="matrix(-0.202416,1.52062,-1.52062,-0.202416,173.581,203.437)"><stop offset="0" style="stop-color:black;stop-opacity:0.03"/><stop offset="1" style="stop-color:white;stop-opacity:0.03"/></linearGradient>
        <radialGradient id="_Radial80" cx="0" cy="0" r="1" gradientUnits="userSpaceOnUse" gradientTransform="matrix(4.00901,0,0,15.2994,170.54,187.831)"><stop offset="0" style="stop-color:white;stop-opacity:0.4"/><stop offset="1" style="stop-color:white;stop-opacity:0"/></radialGradient>
        <radialGradient id="_Radial81" cx="0" cy="0" r="1" gradientUnits="userSpaceOnUse" gradientTransform="matrix(4.62636,0,0,17.8603,170.511,188.127)"><stop offset="0" style="stop-color:white;stop-opacity:0.3"/><stop offset="1" style="stop-color:white;stop-opacity:0"/></radialGradient>
        <radialGradient id="_Radial82" cx="0" cy="0" r="1" gradientUnits="userSpaceOnUse" gradientTransform="matrix(5.74883,0,0,20.0662,170.423,188.383)"><stop offset="0" style="stop-color:white;stop-opacity:0.2"/><stop offset="1" style="stop-color:white;stop-opacity:0"/></radialGradient>
        <radialGradient id="_Radial83" cx="0" cy="0" r="1" gradientUnits="userSpaceOnUse" gradientTransform="matrix(-4.00901,0,0,15.2994,194.498,187.831)"><stop offset="0" style="stop-color:white;stop-opacity:0.4"/><stop offset="1" style="stop-color:white;stop-opacity:0"/></radialGradient>
        <radialGradient id="_Radial84" cx="0" cy="0" r="1" gradientUnits="userSpaceOnUse" gradientTransform="matrix(-4.62636,0,0,17.8603,194.527,188.127)"><stop offset="0" style="stop-color:white;stop-opacity:0.3"/><stop offset="1" style="stop-color:white;stop-opacity:0"/></radialGradient>
        <radialGradient id="_Radial85" cx="0" cy="0" r="1" gradientUnits="userSpaceOnUse" gradientTransform="matrix(-5.74883,0,0,20.0662,194.615,188.383)"><stop offset="0" style="stop-color:white;stop-opacity:0.2"/><stop offset="1" style="stop-color:white;stop-opacity:0"/></radialGradient>
        <linearGradient id="_Linear86" x1="0" y1="0" x2="1" y2="0" gradientUnits="userSpaceOnUse" gradientTransform="matrix(9.40599e-16,-15.3611,15.3611,9.40599e-16,180.96,208.782)"><stop offset="0" style="stop-color:white;stop-opacity:0.25"/><stop offset="1" style="stop-color:white;stop-opacity:0"/></linearGradient>
    </defs>
</svg>
