<!--?xml version="1.0" standalone="no"?-->
<svg id="ofi_b47c6d09_11ca_4bff_b676_09cb0d7399bf_svg" width="176.69000244140625" height="180.8980712890625" xmlns="http://www.w3.org/2000/svg" viewBox="155.153564453125,161.73605346679688,176.69000244140625,180.8980712890625">
<g transform="translate(250 250)">
<line x1="0" y1="0" x2="0" y2="0" style="stroke: black; stroke-width: 1;"></line>
<line x1="0" y1="0" x2="10" y2="0" style="stroke: red; stroke-width: 1;"></line>
<line x1="10" y1="0" x2="19.87688340595138" y2="-1.5643446504023086" style="stroke: red; stroke-width: 1;"></line>
<line x1="19.87688340595138" y1="-1.5643446504023086" x2="29.38744856890291" y2="-4.654514594151783" style="stroke: red; stroke-width: 1;"></line>
<line x1="29.38744856890291" y1="-4.654514594151783" x2="38.29751381078659" y2="-9.19441959154725" style="stroke: red; stroke-width: 1;"></line>
<line x1="38.29751381078659" y1="-9.19441959154725" x2="46.38768375453606" y2="-15.072272114471982" style="stroke: red; stroke-width: 1;"></line>
<line x1="46.38768375453606" y1="-15.072272114471982" x2="53.45875156640154" y2="-22.143339926337458" style="stroke: red; stroke-width: 1;"></line>
<line x1="53.45875156640154" y1="-22.143339926337458" x2="59.33660408932627" y2="-30.233509870086934" style="stroke: red; stroke-width: 1;"></line>
<line x1="59.33660408932627" y1="-30.233509870086934" x2="63.87650908672174" y2="-39.14357511197061" style="stroke: red; stroke-width: 1;"></line>
<line x1="63.87650908672174" y1="-39.14357511197061" x2="66.96667903047121" y2="-48.65414027492215" style="stroke: red; stroke-width: 1;"></line>
<line x1="66.96667903047121" y1="-48.65414027492215" x2="68.53102368087352" y2="-58.53102368087353" style="stroke: red; stroke-width: 1;"></line>
<line x1="68.53102368087352" y1="-58.53102368087353" x2="58.53102368087352" y2="-58.53102368087353" style="stroke: red; stroke-width: 1;"></line>
<line x1="58.53102368087352" y1="-58.53102368087353" x2="48.65414027492214" y2="-56.96667903047123" style="stroke: red; stroke-width: 1;"></line>
<line x1="48.65414027492214" y1="-56.96667903047123" x2="39.143575111970605" y2="-53.876509086721754" style="stroke: red; stroke-width: 1;"></line>
<line x1="39.143575111970605" y1="-53.876509086721754" x2="30.233509870086927" y2="-49.336604089326286" style="stroke: red; stroke-width: 1;"></line>
<line x1="30.233509870086927" y1="-49.336604089326286" x2="22.143339926337454" y2="-43.45875156640156" style="stroke: red; stroke-width: 1;"></line>
<line x1="22.143339926337454" y1="-43.45875156640156" x2="15.072272114471977" y2="-36.387683754536084" style="stroke: red; stroke-width: 1;"></line>
<line x1="15.072272114471977" y1="-36.387683754536084" x2="9.194419591547245" y2="-28.29751381078661" style="stroke: red; stroke-width: 1;"></line>
<line x1="9.194419591547245" y1="-28.29751381078661" x2="4.654514594151776" y2="-19.387448568902933" style="stroke: red; stroke-width: 1;"></line>
<line x1="4.654514594151776" y1="-19.387448568902933" x2="1.5643446504023002" y2="-9.876883405951398" style="stroke: red; stroke-width: 1;"></line>
<line x1="1.5643446504023002" y1="-9.876883405951398" x2="-1.021405182655144e-14" y2="-2.1316282072803006e-14" style="stroke: red; stroke-width: 1;"></line>
<polygon points="0.0,-0.0 10.0,-0.0 19.87688340595138,-1.5643446504023086 29.38744856890291,-4.654514594151783 38.29751381078659,-9.19441959154725 46.38768375453606,-15.072272114471982 53.45875156640154,-22.143339926337458 59.33660408932627,-30.233509870086934 63.87650908672174,-39.14357511197061 66.96667903047121,-48.65414027492215 68.53102368087352,-58.53102368087353 58.53102368087352,-58.53102368087353 48.65414027492214,-56.96667903047123 39.143575111970605,-53.876509086721754 30.233509870086927,-49.336604089326286 22.143339926337454,-43.45875156640156 15.072272114471977,-36.387683754536084 9.194419591547245,-28.29751381078661 4.654514594151776,-19.387448568902933 1.5643446504023002,-9.876883405951398 -1.021405182655144e-14,-2.1316282072803006e-14" style="display: block; fill: red; stroke: red; stroke-width: 1;" display="block" transform="translate(0,0) rotate(0,0,0)"></polygon>
<line x1="-1.021405182655144e-14" y1="-2.1316282072803006e-14" x2="3.090169943749467" y2="-9.510565162951556" style="stroke: red; stroke-width: 1;"></line>
<line x1="3.090169943749467" y1="-9.510565162951556" x2="4.654514594151779" y2="-19.387448568902933" style="stroke: red; stroke-width: 1;"></line>
<line x1="4.654514594151779" y1="-19.387448568902933" x2="4.654514594151782" y2="-29.387448568902933" style="stroke: red; stroke-width: 1;"></line>
<line x1="4.654514594151782" y1="-29.387448568902933" x2="3.0901699437494674" y2="-39.26433197485431" style="stroke: red; stroke-width: 1;"></line>
<line x1="3.0901699437494674" y1="-39.26433197485431" x2="-3.552713678800501e-15" y2="-48.774897137805844" style="stroke: red; stroke-width: 1;"></line>
<line x1="-3.552713678800501e-15" y1="-48.774897137805844" x2="-4.539904997395476" y2="-57.68496237968952" style="stroke: red; stroke-width: 1;"></line>
<line x1="-4.539904997395476" y1="-57.68496237968952" x2="-10.417757520320205" y2="-65.775132323439" style="stroke: red; stroke-width: 1;"></line>
<line x1="-10.417757520320205" y1="-65.775132323439" x2="-17.488825332185684" y2="-72.84620013530447" style="stroke: red; stroke-width: 1;"></line>
<line x1="-17.488825332185684" y1="-72.84620013530447" x2="-25.578995275935156" y2="-78.7240526582292" style="stroke: red; stroke-width: 1;"></line>
<line x1="-25.578995275935156" y1="-78.7240526582292" x2="-34.489060517818835" y2="-83.26395765562467" style="stroke: red; stroke-width: 1;"></line>
<line x1="-34.489060517818835" y1="-83.26395765562467" x2="-37.579230461568315" y2="-73.75339249267313" style="stroke: red; stroke-width: 1;"></line>
<line x1="-37.579230461568315" y1="-73.75339249267313" x2="-39.14357511197062" y2="-63.876509086721754" style="stroke: red; stroke-width: 1;"></line>
<line x1="-39.14357511197062" y1="-63.876509086721754" x2="-39.14357511197063" y2="-53.876509086721754" style="stroke: red; stroke-width: 1;"></line>
<line x1="-39.14357511197063" y1="-53.876509086721754" x2="-37.579230461568315" y2="-43.99962568077038" style="stroke: red; stroke-width: 1;"></line>
<line x1="-37.579230461568315" y1="-43.99962568077038" x2="-34.48906051781884" y2="-34.48906051781884" style="stroke: red; stroke-width: 1;"></line>
<line x1="-34.48906051781884" y1="-34.48906051781884" x2="-29.94915552042337" y2="-25.578995275935164" style="stroke: red; stroke-width: 1;"></line>
<line x1="-29.94915552042337" y1="-25.578995275935164" x2="-24.07130299749864" y2="-17.488825332185687" style="stroke: red; stroke-width: 1;"></line>
<line x1="-24.07130299749864" y1="-17.488825332185687" x2="-17.000235185633162" y2="-10.417757520320215" style="stroke: red; stroke-width: 1;"></line>
<line x1="-17.000235185633162" y1="-10.417757520320215" x2="-8.910065241883691" y2="-4.539904997395481" style="stroke: red; stroke-width: 1;"></line>
<line x1="-8.910065241883691" y1="-4.539904997395481" x2="-1.0658141036401503e-14" y2="-1.687538997430238e-14" style="stroke: red; stroke-width: 1;"></line>
<polygon points="-1.021405182655144e-14,-2.1316282072803006e-14 3.090169943749467,-9.510565162951556 4.654514594151779,-19.387448568902933 4.654514594151782,-29.387448568902933 3.0901699437494674,-39.26433197485431 -3.552713678800501e-15,-48.774897137805844 -4.539904997395476,-57.68496237968952 -10.417757520320205,-65.775132323439 -17.488825332185684,-72.84620013530447 -25.578995275935156,-78.7240526582292 -34.489060517818835,-83.26395765562467 -37.579230461568315,-73.75339249267313 -39.14357511197062,-63.876509086721754 -39.14357511197063,-53.876509086721754 -37.579230461568315,-43.99962568077038 -34.48906051781884,-34.48906051781884 -29.94915552042337,-25.578995275935164 -24.07130299749864,-17.488825332185687 -17.000235185633162,-10.417757520320215 -8.910065241883691,-4.539904997395481 -1.0658141036401503e-14,-1.687538997430238e-14" style="display: block; fill: red; stroke: red; stroke-width: 1;" display="block" transform="translate(0,0) rotate(0,0,0)"></polygon>
<line x1="-1.0658141036401503e-14" y1="-1.687538997430238e-14" x2="-8.090169943749482" y2="-5.877852522924752" style="stroke: red; stroke-width: 1;"></line>
<line x1="-8.090169943749482" y1="-5.877852522924752" x2="-17.000235185633162" y2="-10.417757520320219" style="stroke: red; stroke-width: 1;"></line>
<line x1="-17.000235185633162" y1="-10.417757520320219" x2="-26.510800348584695" y2="-13.507927464069699" style="stroke: red; stroke-width: 1;"></line>
<line x1="-26.510800348584695" y1="-13.507927464069699" x2="-36.38768375453607" y2="-15.072272114472005" style="stroke: red; stroke-width: 1;"></line>
<line x1="-36.38768375453607" y1="-15.072272114472005" x2="-46.38768375453607" y2="-15.07227211447201" style="stroke: red; stroke-width: 1;"></line>
<line x1="-46.38768375453607" y1="-15.07227211447201" x2="-56.264567160487445" y2="-13.507927464069699" style="stroke: red; stroke-width: 1;"></line>
<line x1="-56.264567160487445" y1="-13.507927464069699" x2="-65.77513232343898" y2="-10.417757520320214" style="stroke: red; stroke-width: 1;"></line>
<line x1="-65.77513232343898" y1="-10.417757520320214" x2="-74.68519756532267" y2="-5.877852522924759" style="stroke: red; stroke-width: 1;"></line>
<line x1="-74.68519756532267" y1="-5.877852522924759" x2="-82.77536750907214" y2="-3.375077994860476e-14" style="stroke: red; stroke-width: 1;"></line>
<line x1="-82.77536750907214" y1="-3.375077994860476e-14" x2="-89.84643532093762" y2="7.0710678118654435" style="stroke: red; stroke-width: 1;"></line>
<line x1="-89.84643532093762" y1="7.0710678118654435" x2="-81.75626537718814" y2="12.94892033479018" style="stroke: red; stroke-width: 1;"></line>
<line x1="-81.75626537718814" y1="12.94892033479018" x2="-72.84620013530446" y2="17.488825332185648" style="stroke: red; stroke-width: 1;"></line>
<line x1="-72.84620013530446" y1="17.488825332185648" x2="-63.33563497235292" y2="20.578995275935114" style="stroke: red; stroke-width: 1;"></line>
<line x1="-63.33563497235292" y1="20.578995275935114" x2="-53.458751566401546" y2="22.14333992633744" style="stroke: red; stroke-width: 1;"></line>
<line x1="-53.458751566401546" y1="22.14333992633744" x2="-43.458751566401546" y2="22.143339926337447" style="stroke: red; stroke-width: 1;"></line>
<line x1="-43.458751566401546" y1="22.143339926337447" x2="-33.58186816045017" y2="20.578995275935135" style="stroke: red; stroke-width: 1;"></line>
<line x1="-33.58186816045017" y1="20.578995275935135" x2="-24.071302997498638" y2="17.48882533218565" style="stroke: red; stroke-width: 1;"></line>
<line x1="-24.071302997498638" y1="17.48882533218565" x2="-15.161237755614952" y2="12.948920334790198" style="stroke: red; stroke-width: 1;"></line>
<line x1="-15.161237755614952" y1="12.948920334790198" x2="-7.071067811865472" y2="7.071067811865474" style="stroke: red; stroke-width: 1;"></line>
<line x1="-7.071067811865472" y1="7.071067811865474" x2="2.6645352591003757e-15" y2="-3.552713678800501e-15" style="stroke: red; stroke-width: 1;"></line>
<polygon points="-1.0658141036401503e-14,-1.687538997430238e-14 -8.090169943749482,-5.877852522924752 -17.000235185633162,-10.417757520320219 -26.510800348584695,-13.507927464069699 -36.38768375453607,-15.072272114472005 -46.38768375453607,-15.07227211447201 -56.264567160487445,-13.507927464069699 -65.77513232343898,-10.417757520320214 -74.68519756532267,-5.877852522924759 -82.77536750907214,-3.375077994860476e-14 -89.84643532093762,7.0710678118654435 -81.75626537718814,12.94892033479018 -72.84620013530446,17.488825332185648 -63.33563497235292,20.578995275935114 -53.458751566401546,22.14333992633744 -43.458751566401546,22.143339926337447 -33.58186816045017,20.578995275935135 -24.071302997498638,17.48882533218565 -15.161237755614952,12.948920334790198 -7.071067811865472,7.071067811865474 2.6645352591003757e-15,-3.552713678800501e-15" style="display: block; fill: red; stroke: red; stroke-width: 1;" display="block" transform="translate(0,0) rotate(0,0,0)"></polygon>
<line x1="2.6645352591003757e-15" y1="-3.552713678800501e-15" x2="-8.090169943749476" y2="5.877852522924721" style="stroke: red; stroke-width: 1;"></line>
<line x1="-8.090169943749476" y1="5.877852522924721" x2="-15.161237755614952" y2="12.948920334790197" style="stroke: red; stroke-width: 1;"></line>
<line x1="-15.161237755614952" y1="12.948920334790197" x2="-21.039090278539675" y2="21.039090278539675" style="stroke: red; stroke-width: 1;"></line>
<line x1="-21.039090278539675" y1="21.039090278539675" x2="-25.57899527593516" y2="29.949155520423346" style="stroke: red; stroke-width: 1;"></line>
<line x1="-25.57899527593516" y1="29.949155520423346" x2="-28.669165219684643" y2="39.45972068337488" style="stroke: red; stroke-width: 1;"></line>
<line x1="-28.669165219684643" y1="39.45972068337488" x2="-30.23350987008695" y2="49.33660408932626" style="stroke: red; stroke-width: 1;"></line>
<line x1="-30.23350987008695" y1="49.33660408932626" x2="-30.233509870086944" y2="59.33660408932626" style="stroke: red; stroke-width: 1;"></line>
<line x1="-30.233509870086944" y1="59.33660408932626" x2="-28.669165219684654" y2="69.21348749527763" style="stroke: red; stroke-width: 1;"></line>
<line x1="-28.669165219684654" y1="69.21348749527763" x2="-25.57899527593519" y2="78.72405265822917" style="stroke: red; stroke-width: 1;"></line>
<line x1="-25.57899527593519" y1="78.72405265822917" x2="-21.03909027853972" y2="87.63411790011284" style="stroke: red; stroke-width: 1;"></line>
<line x1="-21.03909027853972" y1="87.63411790011284" x2="-12.948920334790241" y2="81.75626537718811" style="stroke: red; stroke-width: 1;"></line>
<line x1="-12.948920334790241" y1="81.75626537718811" x2="-5.877852522924766" y2="74.68519756532264" style="stroke: red; stroke-width: 1;"></line>
<line x1="-5.877852522924766" y1="74.68519756532264" x2="-4.085620730620576e-14" y2="66.59502762157317" style="stroke: red; stroke-width: 1;"></line>
<line x1="-4.085620730620576e-14" y1="66.59502762157317" x2="4.5399049973954435" y2="57.684962379689495" style="stroke: red; stroke-width: 1;"></line>
<line x1="4.5399049973954435" y1="57.684962379689495" x2="7.630074941144928" y2="48.17439721673796" style="stroke: red; stroke-width: 1;"></line>
<line x1="7.630074941144928" y1="48.17439721673796" x2="9.194419591547238" y2="38.29751381078658" style="stroke: red; stroke-width: 1;"></line>
<line x1="9.194419591547238" y1="38.29751381078658" x2="9.19441959154723" y2="28.297513810786583" style="stroke: red; stroke-width: 1;"></line>
<line x1="9.19441959154723" y1="28.297513810786583" x2="7.630074941144941" y2="18.4206304048352" style="stroke: red; stroke-width: 1;"></line>
<line x1="7.630074941144941" y1="18.4206304048352" x2="4.539904997395477" y2="8.910065241883663" style="stroke: red; stroke-width: 1;"></line>
<line x1="4.539904997395477" y1="8.910065241883663" x2="1.0658141036401503e-14" y2="-1.5987211554602254e-14" style="stroke: red; stroke-width: 1;"></line>
<polygon points="2.6645352591003757e-15,-3.552713678800501e-15 -8.090169943749476,5.877852522924721 -15.161237755614952,12.948920334790197 -21.039090278539675,21.039090278539675 -25.57899527593516,29.949155520423346 -28.669165219684643,39.45972068337488 -30.23350987008695,49.33660408932626 -30.233509870086944,59.33660408932626 -28.669165219684654,69.21348749527763 -25.57899527593519,78.72405265822917 -21.03909027853972,87.63411790011284 -12.948920334790241,81.75626537718811 -5.877852522924766,74.68519756532264 -4.085620730620576e-14,66.59502762157317 4.5399049973954435,57.684962379689495 7.630074941144928,48.17439721673796 9.194419591547238,38.29751381078658 9.19441959154723,28.297513810786583 7.630074941144941,18.4206304048352 4.539904997395477,8.910065241883663 1.0658141036401503e-14,-1.5987211554602254e-14" style="display: block; fill: red; stroke: red; stroke-width: 1;" display="block" transform="translate(0,0) rotate(0,0,0)"></polygon>
<line x1="1.0658141036401503e-14" y1="-1.5987211554602254e-14" x2="3.0901699437494736" y2="9.510565162951524" style="stroke: red; stroke-width: 1;"></line>
<line x1="3.0901699437494736" y1="9.510565162951524" x2="7.630074941144939" y2="18.420630404835205" style="stroke: red; stroke-width: 1;"></line>
<line x1="7.630074941144939" y1="18.420630404835205" x2="13.507927464069674" y2="26.510800348584674" style="stroke: red; stroke-width: 1;"></line>
<line x1="13.507927464069674" y1="26.510800348584674" x2="20.578995275935135" y2="33.58186816045016" style="stroke: red; stroke-width: 1;"></line>
<line x1="20.578995275935135" y1="33.58186816045016" x2="28.6691652196846" y2="39.459720683374904" style="stroke: red; stroke-width: 1;"></line>
<line x1="28.6691652196846" y1="39.459720683374904" x2="37.57923046156828" y2="43.99962568077038" style="stroke: red; stroke-width: 1;"></line>
<line x1="37.57923046156828" y1="43.99962568077038" x2="47.089795624519816" y2="47.08979562451985" style="stroke: red; stroke-width: 1;"></line>
<line x1="47.089795624519816" y1="47.08979562451985" x2="56.96667903047119" y2="48.654140274922185" style="stroke: red; stroke-width: 1;"></line>
<line x1="56.96667903047119" y1="48.654140274922185" x2="66.9666790304712" y2="48.6541402749222" style="stroke: red; stroke-width: 1;"></line>
<line x1="66.9666790304712" y1="48.6541402749222" x2="76.84356243642257" y2="47.089795624519894" style="stroke: red; stroke-width: 1;"></line>
<line x1="76.84356243642257" y1="47.089795624519894" x2="73.75339249267307" y2="37.579230461568365" style="stroke: red; stroke-width: 1;"></line>
<line x1="73.75339249267307" y1="37.579230461568365" x2="69.21348749527763" y2="28.66916521968467" style="stroke: red; stroke-width: 1;"></line>
<line x1="69.21348749527763" y1="28.66916521968467" x2="63.33563497235293" y2="20.578995275935178" style="stroke: red; stroke-width: 1;"></line>
<line x1="63.33563497235293" y1="20.578995275935178" x2="56.264567160487466" y2="13.507927464069686" style="stroke: red; stroke-width: 1;"></line>
<line x1="56.264567160487466" y1="13.507927464069686" x2="48.174397216738" y2="7.630074941144944" style="stroke: red; stroke-width: 1;"></line>
<line x1="48.174397216738" y1="7.630074941144944" x2="39.26433197485432" y2="3.090169943749472" style="stroke: red; stroke-width: 1;"></line>
<line x1="39.26433197485432" y1="3.090169943749472" x2="29.753766811902786" y2="1.7763568394002505e-15" style="stroke: red; stroke-width: 1;"></line>
<line x1="29.753766811902786" y1="1.7763568394002505e-15" x2="19.876883405951407" y2="-1.564344650402294" style="stroke: red; stroke-width: 1;"></line>
<line x1="19.876883405951407" y1="-1.564344650402294" x2="9.876883405951407" y2="-1.564344650402272" style="stroke: red; stroke-width: 1;"></line>
<line x1="9.876883405951407" y1="-1.564344650402272" x2="2.3092638912203256e-14" y2="-2.886579864025407e-15" style="stroke: red; stroke-width: 1;"></line>
<polygon points="1.0658141036401503e-14,-1.5987211554602254e-14 3.0901699437494736,9.510565162951524 7.630074941144939,18.420630404835205 13.507927464069674,26.510800348584674 20.578995275935135,33.58186816045016 28.6691652196846,39.459720683374904 37.57923046156828,43.99962568077038 47.089795624519816,47.08979562451985 56.96667903047119,48.654140274922185 66.9666790304712,48.6541402749222 76.84356243642257,47.089795624519894 73.75339249267307,37.579230461568365 69.21348749527763,28.66916521968467 63.33563497235293,20.578995275935178 56.264567160487466,13.507927464069686 48.174397216738,7.630074941144944 39.26433197485432,3.090169943749472 29.753766811902786,1.7763568394002505e-15 19.876883405951407,-1.564344650402294 9.876883405951407,-1.564344650402272 2.3092638912203256e-14,-2.886579864025407e-15" style="display: block; fill: red; stroke: red; stroke-width: 1;" display="block" transform="translate(0,0) rotate(0,0,0)"></polygon>
</g>
<g transform="translate(250 250)">
<polygon points="0,0 ,-5,-9 ,0,-7 ,5,-9 " stroke="red" fill="red" stroke-width="1" opacity="1" transform="translate(2.3092638912203256e-14,-2.886579864025407e-15) rotate(-2250,0,0)"></polygon>
</g>
<metadata><raw>from turtle import *

def bogen():
    for i in range(10):
        forward(10)
        left(9)

def blumenblatt():
    fillcolor('red')
    pencolor('red')
    begin_fill()
    for i in range(2):
        bogen()
        left(90)
    end_fill()

def blume():
    for i in range(5):
        blumenblatt()
        left(72)

blume()</raw></metadata></svg>