<?xml version="1.0" encoding="UTF-8" standalone="no"?>
<!DOCTYPE svg PUBLIC "-//W3C//DTD SVG 1.1//EN" "http://www.w3.org/Graphics/SVG/1.1/DTD/svg11.dtd">
<svg width="600px" height="340px" version="1.1" xmlns="http://www.w3.org/2000/svg" xmlns:xlink="http://www.w3.org/1999/xlink" xml:space="preserve" xmlns:serif="http://www.serif.com/" style="fill-rule:evenodd;clip-rule:evenodd;stroke-linecap:round;stroke-linejoin:round;stroke-miterlimit:1.5;">
    <g id="Calque-1" serif:id="Calque 1">
        <g id="Bob">
            <path d="M528.145,133.598C527.28,132.832 526.372,132.057 525.39,131.284C521.983,128.594 518.698,126.564 515.823,125.039C515.823,125.039 521.005,117.598 520.42,117.598L509.583,119.421C509.583,119.421 508.913,119.059 509.312,111.087C510.652,105.065 513.633,101.494 515.998,99.516C515.612,99.647 501.663,105.337 494.294,107.628C490.526,108.797 486.535,110.161 484.798,114.069C484.115,115.607 484.183,117.933 483.988,119.587C483.442,124.239 483.152,128.922 482.916,133.598L528.145,133.598Z" style="fill:rgb(113,101,82);fill-rule:nonzero;"/>
            <path d="M533.495,132.808C533.495,132.808 515.465,111.548 518.123,103.178C519.285,99.877 519.341,97.326 519.341,97.326C519.341,97.326 518.887,97.507 518.179,97.916C517.565,98.259 516.701,98.809 515.729,99.626C515.729,99.626 515.723,99.626 515.717,99.633C513.316,101.665 510.285,105.336 508.924,111.528C508.519,119.723 509.201,120.094 509.201,120.094L520.209,118.222C519.235,120.068 514.885,125.848 514.885,125.848C517.806,127.416 521.798,129.525 525.259,132.29C525.808,132.728 526.301,133.162 526.812,133.598L533.217,133.598C533.205,133.584 533.187,133.562 533.173,133.547L533.495,132.808Z" style="fill:rgb(135,121,96);fill-rule:nonzero;"/>
            <path d="M577.862,133.598C577.706,131.521 577.544,129.433 577.358,127.318C576.842,121.475 576.887,114.352 573.073,109.461C570.301,105.905 565.563,105.125 561.491,103.883C556.637,102.403 551.783,100.921 546.927,99.44C549.638,101.858 552.62,107.019 552.694,118.058C549.554,118.665 544.206,119.036 542.67,118.409C544.005,119.543 548.174,123.373 548.176,123.375C547.99,123.201 543.954,126.039 543.748,126.254C540.888,129.218 534.16,129.165 532.231,132.808C532.166,132.933 532.074,133.225 531.97,133.598L577.862,133.598Z" style="fill:rgb(135,121,96);fill-rule:nonzero;"/>
            <path d="M519.017,88.954C519.001,88.959 518.985,88.959 518.98,88.965C518.963,88.971 518.954,88.971 518.954,88.971C518.954,88.971 519.081,89.689 519.204,90.825C519.533,93.764 519.824,99.536 517.816,103.178C519.791,107.59 520.954,111.8 530.173,112.082L530.173,87.101C524.93,87.671 519.648,88.816 519.017,88.954Z" style="fill:rgb(237,169,130);fill-rule:nonzero;"/>
            <path d="M540.848,89.768C540.831,89.58 540.822,89.39 540.816,89.204C540.805,89.123 540.805,89.051 540.799,88.971C540.702,86.537 535.291,86.509 529.84,87.101L529.84,112.082C531.169,112.122 532.666,112.082 534.358,111.947C540.203,110.618 543.392,107.694 545.254,102.115C542.99,99.473 541.198,94.476 540.848,89.768Z" style="fill:rgb(223,159,122);fill-rule:nonzero;"/>
            <path d="M519.017,88.954C519.001,88.959 518.985,88.959 518.98,88.965C518.963,88.971 518.954,88.971 518.954,88.971C518.954,88.971 524.71,97.246 530.173,97.59L530.173,87.101C524.93,87.671 519.648,88.816 519.017,88.954Z" style="fill:rgb(206,145,116);fill-rule:nonzero;"/>
            <path d="M541.133,88.971C541.035,86.537 535.624,86.509 530.173,87.101L530.173,97.59C530.395,97.604 530.617,97.611 530.838,97.597C534.537,97.187 538.794,92.925 541.149,89.204C541.138,89.123 541.138,89.051 541.133,88.971Z" style="fill:rgb(192,135,108);fill-rule:nonzero;"/>
            <path d="M536.949,110.883C534.201,111.914 531.727,111.823 530.173,111.618C529.672,111.551 529.265,111.473 528.977,111.415C522.116,110.039 518.538,104.379 517.816,103.178C515.887,109.254 525.022,122.123 530.173,128.721C532.117,131.209 533.495,132.808 533.495,132.808L541.234,118.448C541.383,118.172 541.526,117.894 541.67,117.612C544.066,112.872 545.384,107.647 545.427,102.332C545.019,103.362 542.748,108.715 536.949,110.883Z" style="fill:rgb(202,217,224);fill-rule:nonzero;"/>
            <path d="M549.766,123.647C549.766,123.647 545.465,120.884 543.716,119.325C545.866,119.657 550.31,119.301 553.074,118.766C553.009,108.907 550.673,103.65 548.244,100.844C547.806,100.3 547.365,99.829 546.927,99.44C544.652,97.411 542.559,97.326 542.559,97.326C542.559,97.326 543.13,99.307 544.794,102.209C544.788,102.251 545.094,102.296 545.094,102.332C545.051,107.647 543.733,112.872 541.337,117.612C541.192,117.894 541.049,118.172 540.901,118.448L531.158,132.1C530.93,132.571 530.706,133.075 530.485,133.598L534.395,133.598C539.141,128.823 549.672,123.716 549.766,123.647Z" style="fill:rgb(113,101,82);fill-rule:nonzero;"/>
            <path d="M530.231,33.598C530.213,33.6 530.192,33.603 530.173,33.603L530.173,33.621C530.192,33.615 530.212,33.607 530.231,33.598Z" style="fill:rgb(117,77,42);fill-rule:nonzero;"/>
            <path d="M544.116,39.083C542.862,38.334 541.517,37.723 540.104,37.282C536.774,36.243 533.338,34.884 529.84,34.85L529.84,53.205C529.941,53.208 530.035,53.216 530.137,53.216C532.131,53.222 533.831,53.651 535.638,54.476C536.399,54.826 537.212,55.465 538.035,55.454C537.808,55.108 537.526,54.757 537.206,54.476C538.434,55.332 540.072,55.868 541.309,56.718C543.265,58.069 545.387,60.354 545.981,62.721C546.73,65.684 545.216,68.826 545.923,71.84C546.141,71.032 547.167,69.555 547.948,68.843C547.476,69.364 549.287,69.225 549.362,69.204C549.788,69.082 550.058,68.884 550.259,68.625C550.579,68.209 550.708,67.641 550.941,66.966C551.749,64.665 552.29,62.214 552.216,59.765C552.312,59.876 552.53,60.121 552.752,60.408C553.147,60.907 553.577,61.534 553.498,61.811C556.085,53.164 551.684,43.584 544.116,39.083Z" style="fill:rgb(57,59,66);fill-rule:nonzero;"/>
            <path d="M526.963,35.23C527.966,34.572 529.047,34.033 530.173,33.621L530.173,33.603C527.966,33.693 525.774,34.082 523.678,34.762C522.504,35.146 521.345,35.629 520.367,36.384C519.134,37.334 518.342,38.833 517.863,40.29C516.844,39.844 514.404,40.418 513.347,40.875C510.699,42.016 509.429,44.271 507.644,46.344C506.952,47.153 506.383,47.89 505.942,48.666C505.273,49.821 504.869,51.053 504.694,52.716C504.48,54.715 504.602,56.734 504.724,58.737C505.04,57.707 505.533,56.693 506.229,55.868C506.277,56.782 505.73,57.479 505.538,58.34C505.299,59.44 505.485,60.668 505.708,61.751C506.17,63.996 507.17,66.227 508.594,68.029C508.791,68.283 509.037,68.539 509.297,68.8C509.513,69.012 509.742,69.225 509.981,69.443C511.31,70.665 512.867,72 513.033,73.508C512.687,70.383 511.709,67.63 511.901,64.686C511.927,64.261 511.985,63.83 512.065,63.394C512.192,62.726 512.384,62.044 512.672,61.343C512.799,61.732 513.033,62.14 513.14,62.529C513.292,58.626 515.472,57.441 517.672,54.673C518.666,53.423 520.042,52.468 520.351,50.804C521.488,52.259 522.626,51.733 524.179,52.077C526.277,52.546 528.006,53.148 530.173,53.205L530.173,34.85C529.109,34.839 528.038,34.948 526.963,35.23Z" style="fill:rgb(65,66,68);fill-rule:nonzero;"/>
            <path d="M548.284,68.582C547.281,69.169 546.247,70.646 545.92,71.841C545.219,68.828 546.729,65.686 545.98,62.722C545.384,60.355 543.263,58.068 541.31,56.721C540.072,55.866 538.437,55.333 537.208,54.475C537.527,54.759 537.805,55.111 538.034,55.455C537.21,55.466 536.398,54.828 535.635,54.479C533.831,53.651 532.13,53.221 530.135,53.216C530.034,53.216 529.94,53.208 529.84,53.207L529.84,94.948C532.588,94.93 532.833,94.376 534.049,93.484C535.506,92.415 537.076,91.687 538.665,90.822C539.344,90.452 539.86,90.046 540.299,89.577C540.879,88.961 541.316,88.236 541.773,87.321C542.242,86.387 544.048,82.494 544.77,81.58C544.722,81.643 545.66,81.912 545.745,81.921C546.122,81.957 546.552,81.907 546.89,81.727C547.48,81.418 547.944,80.69 548.272,80.129C549.062,78.768 549.342,77.194 549.904,75.74C550.51,74.162 551.608,72.58 551.562,70.826C551.515,69.009 550.003,67.575 548.284,68.582Z" style="fill:rgb(235,179,154);fill-rule:nonzero;"/>
            <path d="M524.18,52.079C522.629,51.736 521.491,52.257 520.349,50.802C520.041,52.465 518.667,53.425 517.672,54.675C515.472,57.44 513.294,58.626 513.138,62.53C513.033,62.141 512.801,61.732 512.672,61.34C512.383,62.044 512.192,62.726 512.065,63.397C512.054,63.837 511.998,64.268 511.902,64.687C511.71,67.629 512.685,70.383 513.033,73.507C512.835,71.736 510.713,70.193 509.298,68.798C509.18,68.898 509.059,68.996 508.937,69.091C508.809,69.189 508.698,69.3 508.612,69.422C507.362,71.186 509.231,74.136 509.851,75.74C510.345,77.023 510.617,78.393 511.22,79.636C511.479,80.171 511.808,80.743 512.144,81.229C512.465,81.694 513.301,81.836 513.831,81.761C514.109,81.719 514.384,81.58 514.527,81.337C515.491,83.511 516.91,85.191 517.979,87.322C518.758,88.873 519.469,89.893 520.942,90.736C520.992,90.764 521.035,90.793 521.087,90.822C522.677,91.687 524.245,92.415 525.705,93.484C526.94,94.39 526.895,94.95 530.044,94.95C530.09,94.95 530.129,94.948 530.173,94.948L530.173,53.207C528.006,53.15 526.276,52.544 524.18,52.079Z" style="fill:rgb(250,189,163);fill-rule:nonzero;"/>
            <path d="M513.222,76.636C513.323,77.316 513.329,78.171 512.551,78.362C512.333,78.416 512.097,78.34 511.924,78.176C511.244,77.53 511.348,76.584 511.535,75.755C511.677,75.133 511.865,74.498 511.785,73.862C511.635,72.644 510.256,71.439 509.185,71.95C509.463,71.816 509.576,71.551 509.958,71.469C510.437,71.366 510.665,71.427 511.166,71.726C511.348,71.834 511.524,71.968 511.667,72.133C512.705,73.33 512.985,75.053 513.222,76.636Z" style="fill:rgb(192,135,108);fill-rule:nonzero;"/>
            <path d="M546.505,76.904C546.403,77.584 546.397,78.436 547.176,78.629C547.395,78.684 547.631,78.607 547.804,78.443C548.481,77.796 548.38,76.851 548.191,76.022C548.048,75.4 547.862,74.765 547.941,74.129C548.092,72.911 549.469,71.705 550.541,72.216C550.262,72.084 550.151,71.818 549.769,71.736C549.29,71.634 549.06,71.694 548.562,71.991C548.38,72.101 548.202,72.233 548.058,72.4C547.02,73.598 546.741,75.321 546.505,76.904Z" style="fill:rgb(192,135,108);fill-rule:nonzero;"/>
            <path d="M544.102,72.875C543.949,73.384 543.745,73.894 543.383,74.314C542.519,75.315 540.81,75.579 539.509,75.722C534.672,76.251 533.544,71.75 533.47,70.49C533.699,68.364 536.588,68.009 539.587,67.93C540.898,67.896 542.655,67.962 543.679,68.843C543.935,69.064 544.113,69.341 544.231,69.651C544.615,70.654 544.363,71.993 544.102,72.875ZM520.042,75.722C518.742,75.579 517.033,75.315 516.169,74.314C515.808,73.894 515.602,73.384 515.451,72.875C515.188,71.993 514.938,70.654 515.32,69.651C515.438,69.341 515.616,69.064 515.873,68.843C516.898,67.962 518.654,67.896 519.966,67.93C522.963,68.009 525.852,68.364 526.081,70.49C526.008,71.75 524.881,76.251 520.042,75.722ZM548.016,67.564C547.929,67.459 540.847,64.704 531.852,68.028C531.009,68.146 530.216,68.184 529.776,68.198C529.762,68.198 529.747,68.198 529.733,68.197C529.287,68.182 528.517,68.141 527.699,68.028C518.879,64.983 511.623,67.459 511.535,67.564C511.044,68.164 511.531,69.034 511.534,69.04C511.551,69.069 511.923,69.162 511.969,69.184C512.327,69.347 512.899,69.626 513.072,69.979C513.249,70.344 513.195,70.944 513.258,71.35C513.373,72.108 513.513,72.869 513.766,73.601C514.091,74.543 514.705,75.596 515.642,76.152C517.601,77.315 521.623,77.072 523.66,76.568C525.912,75.869 527.91,71.811 528.124,70.529C528.272,69.74 529.191,69.564 529.733,69.529C529.747,69.528 529.762,69.526 529.776,69.525C530.31,69.555 531.276,69.721 531.429,70.529C531.641,71.811 533.64,75.869 535.891,76.568C537.929,77.072 541.952,77.315 543.909,76.152C544.848,75.596 545.46,74.543 545.787,73.601C546.038,72.869 546.18,72.108 546.295,71.35C546.358,70.944 546.302,70.344 546.481,69.979C546.652,69.626 547.226,69.347 547.583,69.184C547.63,69.162 548.001,69.069 548.017,69.04C548.02,69.034 548.508,68.164 548.016,67.564Z" style="fill:rgb(34,30,31);fill-rule:nonzero;"/>
        </g>
        <g id="Alice">
            <path d="M98.329,130.016C96.97,113.5 94.699,83.87 95.163,75.558C96.531,41.117 81.423,35.088 71.966,33.839C61.433,32.448 44.664,36.656 40.56,57.712C37.344,74.212 39.169,113.7 40.109,130.016L98.329,130.016Z" style="fill:rgb(183,34,61);fill-rule:nonzero;"/>
            <path d="M49.58,68.568C49.231,67.645 49.292,66.77 48.65,65.929C48.066,65.162 47.153,64.626 46.191,64.605C43.124,64.54 42.759,68.281 43.917,70.326C44.495,71.348 45.355,72.195 45.895,73.238C46.809,75.004 47.087,77.569 49.552,77.843C50.985,78.002 51.764,77.494 52.121,76.674C52.8,75.115 51.945,72.427 51.155,71.072C50.677,70.255 49.914,69.452 49.58,68.568Z" style="fill:rgb(226,180,118);fill-rule:nonzero;"/>
            <path d="M55.606,79.48C56.568,85.508 57.838,92.831 55.797,98.066C53.464,104.044 50.516,105.241 45.171,107.308C47.662,110.703 50.006,114.23 52.932,117.257C55.859,120.285 59.463,122.823 63.583,123.691C64.842,123.957 66.152,124.021 67.445,123.923L67.445,79.329C62.836,79.188 55.706,79.059 55.606,79.48Z" style="fill:rgb(211,169,101);fill-rule:nonzero;"/>
            <path d="M51.038,48.359C45.86,55.563 46.021,65.601 49.145,73.59C51.666,80.036 59.626,91.07 67.445,90.837L67.445,40.31C61.248,40.032 54.617,43.381 51.038,48.359Z" style="fill:rgb(226,180,118);fill-rule:nonzero;"/>
            <path d="M67.441,133.598L67.441,121.387C55.179,120.418 49.524,113.237 45.171,107.312C32.487,112.096 30.241,113.108 25.984,119.483C25.635,120.007 25.349,120.566 25.13,121.155C24.488,122.88 23.17,126.961 22.138,133.598L67.441,133.598Z" style="fill:rgb(240,102,166);fill-rule:nonzero;"/>
            <path d="M88.701,64.605C87.738,64.626 86.826,65.162 86.241,65.929C85.599,66.77 85.659,67.645 85.312,68.568C84.977,69.452 84.213,70.255 83.736,71.072C82.945,72.427 82.09,75.115 82.77,76.674C83.126,77.494 83.906,78.002 85.34,77.843C87.805,77.569 88.081,75.004 88.997,73.238C89.537,72.195 90.395,71.348 90.973,70.326C92.13,68.281 91.766,64.54 88.701,64.605Z" style="fill:rgb(236,188,131);fill-rule:nonzero;"/>
            <path d="M78.762,98.066C76.72,92.831 77.991,85.508 78.952,79.48C78.851,79.059 71.722,79.188 67.112,79.329L67.112,123.923C68.406,124.021 69.715,123.957 70.974,123.691C75.094,122.823 78.699,120.285 81.624,117.257C84.551,114.23 86.895,110.703 89.386,107.308C84.042,105.241 81.094,104.044 78.762,98.066Z" style="fill:rgb(226,180,118);fill-rule:nonzero;"/>
            <path d="M67.445,40.31L67.301,90.837C75.122,91.07 83.226,80.036 85.745,73.59C88.867,65.601 89.031,55.563 83.852,48.359C80.274,43.381 73.644,40.032 67.445,40.31Z" style="fill:rgb(236,188,131);fill-rule:nonzero;"/>
            <path d="M112.419,133.598C111.389,126.961 110.069,122.88 109.428,121.155C109.208,120.566 108.923,120.007 108.573,119.483C104.317,113.108 102.07,112.096 89.387,107.312C85.033,113.237 79.379,120.418 67.118,121.387L67.118,133.598L112.419,133.598Z" style="fill:rgb(230,79,155);fill-rule:nonzero;"/>
            <path d="M87.431,45.281C86.836,44.805 77.201,38.738 76.487,38.619C75.773,38.499 59.119,38.857 58.642,39.334C58.167,39.809 47.221,47.541 46.389,47.66L46.389,64.076L47.841,67.883C47.841,67.883 47.103,61.459 49.006,57.058C50.91,52.656 57.195,47.778 57.195,47.778C57.195,47.778 61.141,52.776 69.349,54.323C66.613,52.181 63.758,48.492 63.758,48.492C63.758,48.492 71.134,54.323 73.751,55.273C73.156,53.609 70.776,49.088 70.776,49.088C70.776,49.088 78.033,53.609 79.461,57.831C80.651,56.822 77.697,50.991 77.697,50.991C77.697,50.991 87.005,59.206 86.004,67.247C88.313,63.711 90.762,63.155 89.719,60.151C89.601,59.813 88.026,45.757 87.431,45.281Z" style="fill:rgb(183,34,61);fill-rule:nonzero;"/>
            <path d="M49.519,77.731C48.173,77.731 47.082,78.822 47.082,80.168C47.082,81.513 48.173,82.604 49.519,82.604C50.864,82.604 51.955,81.513 51.955,80.168C51.955,78.822 50.864,77.731 49.519,77.731Z" style="fill:rgb(165,216,232);fill-rule:nonzero;"/>
            <path d="M84.959,77.872C83.613,77.872 82.523,78.962 82.523,80.308C82.523,81.652 83.613,82.744 84.959,82.744C86.304,82.744 87.395,81.652 87.395,80.308C87.395,78.962 86.304,77.872 84.959,77.872Z" style="fill:rgb(165,216,232);fill-rule:nonzero;"/>
        </g>
        <text x="281.754px" y="146.338px" style="font-family:'ArialMT', 'Arial', sans-serif;font-size:12px;">Mallory</text>
        <g id="Mallory">
            <path d="M315.955,82.966L316.016,84.17C316.347,90.682 315.29,94.582 320.416,99.316C322.513,101.253 324.673,103.774 324.201,106.591C323.758,109.227 321.101,110.954 318.491,111.538C315.88,112.123 313.149,111.902 310.52,112.399C307.449,112.978 304.527,114.532 301.404,114.411C297.595,114.266 294.352,111.673 291.642,108.992C288.932,106.31 286.302,103.317 282.735,101.971C282.082,101.727 281.249,101.286 281.407,100.606C281.473,100.321 281.709,100.111 281.931,99.918C288.275,94.418 289.319,90.934 288.912,82.892L315.955,82.966Z" style="fill:rgb(205,167,147);fill-rule:nonzero;"/>
            <path d="M300.366,45.278C301.963,45.71 304.127,43.653 305.159,42.814C307.029,41.293 309.152,40.082 311.415,39.253C313.07,38.648 314.894,38.245 316.591,38.724C319.084,39.432 320.73,41.941 321.192,44.492C322.134,49.688 319.523,55.064 320.359,60.268C320.476,60.996 320.676,62.646 321.837,61.852C322.318,61.521 322.011,60.629 322.524,60.235C323.662,59.361 324.219,60.754 324.308,61.595C324.624,64.591 324.329,67.893 323.038,70.689C322.291,72.309 321.159,72.817 320.062,74.017C318.847,75.348 319.184,77.817 318.788,79.421C318.519,80.51 318.076,81.514 317.455,82.402C316.127,84.299 313.705,85.275 312.166,87.016C310.723,88.648 309.394,90.268 307.354,91.377C306.124,92.045 304.366,92.145 302.745,92.153C302.534,92.174 302.322,92.191 302.108,92.209L299.719,45.135C299.934,45.184 300.158,45.221 300.366,45.278Z" style="fill:rgb(250,208,180);fill-rule:nonzero;"/>
            <path d="M278.201,63.935C278.203,63.089 278.617,61.646 279.837,62.4C280.388,62.741 280.173,63.66 280.684,63.939C281.92,64.613 281.952,62.95 281.994,62.214C282.156,59.414 280.677,56.807 280.895,54.052C281.096,51.527 280.839,48.928 281.635,46.452C282.326,44.304 283.688,42.327 285.626,41.174C287.417,40.107 289.648,39.809 291.656,40.363C293.426,40.853 294.653,41.921 295.844,43.253C297.139,44.704 297.752,44.689 299.719,45.135L302.108,92.209C300.68,92.318 299.203,92.317 298.081,91.846C295.939,90.95 294.453,89.473 292.853,87.996C291.145,86.42 288.637,85.693 287.124,83.941C286.416,83.12 285.874,82.167 285.496,81.11C284.938,79.554 285.024,77.063 283.681,75.864C282.469,74.781 281.292,74.389 280.384,72.854C278.817,70.203 278.187,66.948 278.201,63.935Z" style="fill:rgb(226,187,161);fill-rule:nonzero;"/>
            <path d="M322.995,58.084C322.542,60.209 322.023,62.213 321.587,63.95C321.386,64.752 321.212,65.646 320.956,66.414C320.845,66.749 320.831,67.043 320.581,67.339C320.524,67.409 319.62,68.025 319.637,67.863C319.938,64.85 320.267,61.992 319.945,58.97C319.459,54.438 320.619,42.852 313.738,42.296C311.269,42.096 309.273,44.138 307.067,45.268C304.549,46.56 301.536,46.677 298.791,45.989C294.882,45.01 287.499,38.07 284.057,43.421C283.684,44.003 283.449,44.666 283.257,45.329C282.512,47.917 282.866,50.309 282.657,52.921C282.435,55.728 282.213,58.563 282.435,61.375C282.528,62.538 282.931,63.566 283.087,64.709C283.15,65.192 283.944,68.574 283.691,68.799C283.499,68.97 283.23,68.709 283.112,68.481C279.042,60.685 276.363,50.004 281.226,41.604C285.585,34.073 296.049,31.029 304.183,31.139C305.766,31.16 307.372,31.285 308.859,31.831C311.247,32.707 313.465,34.128 315.811,35.049C319.779,36.607 321.873,40.756 322.769,44.692C323.224,46.689 323.319,48.731 323.747,50.723C324.284,53.218 323.52,55.621 322.995,58.084Z" style="fill:rgb(114,142,151);fill-rule:nonzero;"/>
            <path d="M292.392,129.154C292.53,129.8 292.687,130.441 292.83,131.085L308.901,131.085C310.799,127.173 312.534,123.218 314.672,119.339C316.998,115.098 320.24,111.414 322.29,107.004C323.17,105.109 324.006,102.913 323.624,100.786C323.098,97.861 318.802,96.714 318.802,96.714C317.212,98.217 312.206,102.561 304.515,103.245C293.603,104.216 286.23,97.023 285.176,95.96C284.835,99.427 284.874,103.275 286.248,106.528C289.362,113.889 290.764,121.541 292.392,129.154Z" style="fill:rgb(65,64,67);fill-rule:nonzero;"/>
            <path d="M305.162,61.366L305.162,65.074C305.162,65.074 311.544,61.527 317.527,61.366C317.527,59.109 305.162,61.366 305.162,61.366Z" style="fill:rgb(114,142,151);fill-rule:nonzero;"/>
            <path d="M298.026,61.366L298.026,65.074C298.026,65.074 291.642,61.527 285.66,61.366C285.66,59.109 298.026,61.366 298.026,61.366Z" style="fill:rgb(114,142,151);fill-rule:nonzero;"/>
            <path d="M316.372,82.752C315.561,83.742 314.706,85.032 313.681,85.8C311.227,87.641 308.583,89.399 305.854,90.766C305.438,90.973 304.997,91.188 304.534,91.149C303.247,91.048 302.42,87.739 301.238,89.895C300.987,90.353 300.83,90.899 300.408,91.206C298.176,92.827 293.392,88.325 291.776,87.141C291.013,86.579 290.257,86.004 289.603,85.323C287.712,83.346 286.738,80.816 285.171,78.627C284.709,80.874 286.078,82.718 287.116,84.632C287.466,85.279 287.819,85.928 288.244,86.528C290.169,89.246 293.637,90.599 296.266,92.524C297.705,93.577 299.595,94.317 301.542,94.604C303.462,94.317 305.37,93.567 306.855,92.484L312.906,88.366C313.604,87.786 314.211,87.111 314.781,86.409C315.758,85.206 316.915,84.114 317.852,82.885C318.717,81.753 318.901,80.093 318.862,78.713C318.161,80.134 317.376,81.523 316.372,82.752Z" style="fill:rgb(114,142,151);fill-rule:nonzero;"/>
            <path d="M303.599,79.463C303.002,79.291 302.362,79.2 301.766,79.363C301.17,79.2 300.53,79.291 299.934,79.463C296.802,80.367 294.435,83.452 294.374,86.711C294.337,88.71 295.342,90.923 297.262,91.478C296.924,90.116 296.584,88.743 296.534,87.341C296.484,85.939 296.745,84.489 297.521,83.321C297.809,82.889 298.173,82.493 298.638,82.264C299.546,81.818 300.63,82.081 301.592,82.398C301.648,82.416 301.708,82.431 301.766,82.446C301.824,82.431 301.884,82.416 301.941,82.398C302.902,82.081 303.986,81.818 304.894,82.264C305.359,82.493 305.724,82.889 306.011,83.321C306.787,84.489 307.048,85.939 306.998,87.341C306.948,88.743 306.609,90.116 306.27,91.478C308.19,90.923 309.195,88.71 309.158,86.711C309.098,83.452 306.731,80.367 303.599,79.463Z" style="fill:rgb(114,142,151);fill-rule:nonzero;"/>
            <path d="M295.826,131.085L290.46,114.418C290.46,114.418 285.494,95.842 285.176,95.96C282.482,96.961 264.995,103.466 262.18,104.998C259.407,105.982 256.378,107.178 254.739,109.435C251.52,113.867 249.605,121.249 248.319,126.482C247.934,128.049 247.549,129.586 247.163,131.136L270.696,131.136C270.696,131.12 270.698,131.102 270.698,131.085L295.826,131.085Z" style="fill:rgb(22,117,188);fill-rule:nonzero;"/>
            <path d="M349.383,116.979C348.07,111.317 345.747,108.11 338.973,104.507C338.98,104.452 331.69,101.16 328.486,100.235C326.542,99.675 318.006,96.298 318.006,96.298C318.006,96.298 311.205,116.763 309.247,121.539C308.677,122.929 307.038,126.628 305.161,131.085L352.837,131.085C351.633,126.335 350.458,121.61 349.383,116.979Z" style="fill:rgb(22,117,188);fill-rule:nonzero;"/>
        </g>
        <text x="54.532px" y="148.723px" style="font-family:'ArialMT', 'Arial', sans-serif;font-size:12px;">Alice</text>
        <text x="521.072px" y="148.723px" style="font-family:'ArialMT', 'Arial', sans-serif;font-size:12px;">Bob</text>
        <path id="Arrow" d="M202.944,94.965L214.944,100.965L202.944,106.965C205.944,103.965 205.944,97.965 202.944,94.965Z"/>
        <path d="M144.13,100.965L205.344,100.965" style="fill:none;stroke:black;stroke-width:2px;"/>
        <g id="Alice-Public-Key-offen" serif:id="Alice Public Key offen">
            <path id="rect2723" d="M176.533,49.519C169.695,49.519 164.194,55.02 164.194,61.858L164.194,63.487L167.622,63.487L167.622,61.858C167.622,56.919 171.594,52.947 176.533,52.947C181.471,52.947 185.454,56.919 185.454,61.858L185.454,75.581L188.883,75.581L188.883,61.858C188.883,55.02 183.371,49.519 176.533,49.519Z" style="fill:rgb(40,40,40);"/>
            <path id="path3082" d="M176.526,50.413C170.068,50.413 164.88,55.968 164.88,62.305L164.88,63.487L166.934,63.487L166.934,61.634C166.934,56.788 170.906,52.564 175.845,52.564L177.219,52.564C182.157,52.564 186.129,56.788 186.129,61.634L186.129,77.785C186.129,81.309 183.992,84.285 180.945,85.672C185.198,83.972 188.184,79.891 188.184,75.091L188.184,62.305C188.184,55.968 182.984,50.413 176.526,50.413Z" style="fill:url(#_Linear1);"/>
            <path id="path2931" d="M176.527,49.807C169.88,49.807 164.539,55.128 164.539,61.73L164.539,63.487L166.647,63.487L166.647,61.028C166.647,55.979 170.742,51.116 175.824,51.116L177.24,51.116C182.323,51.116 186.417,55.979 186.417,61.028L186.417,77.848C186.417,81.52 184.209,84.622 181.073,86.067C185.45,84.292 188.525,80.049 188.525,75.048L188.525,61.73C188.525,55.128 183.174,49.806 176.527,49.806L176.527,49.807Z" style="fill:url(#_Linear2);"/>
            <path id="path2861" d="M171.465,52.927C169.612,54.087 168.569,56.065 168.774,56.724C168.994,57.434 170.295,54.26 173.98,53.277C176.822,52.519 173.98,51.352 171.465,52.927Z" style="fill:url(#_Radial3);"/>
            <path id="path2871" d="M181.609,52.893C183.462,54.053 184.504,56.031 184.3,56.69C184.08,57.4 182.778,54.226 179.094,53.242C176.252,52.484 179.094,51.318 181.609,52.893Z" style="fill:url(#_Radial4);"/>
            <path id="rect2875" d="M176.526,50.978C170.068,50.978 164.88,55.4 164.88,61.858L164.88,63.487L166.934,63.487L166.934,61.177C166.934,56.238 170.906,52.255 175.845,52.255L177.219,52.255C182.157,52.255 186.129,56.238 186.129,61.177L186.129,77.636C186.129,81.228 183.992,84.258 180.945,85.672C185.198,83.938 188.184,79.78 188.184,74.889L188.184,61.858C188.184,55.4 182.984,50.978 176.526,50.978Z" style="fill:url(#_Linear5);"/>
            <path id="path2933" d="M176.537,50.211C167.42,50.211 165.316,58.159 165.316,61.752C165.316,62.368 165.322,62.941 165.327,63.487L166.018,63.487C166.023,62.941 166.018,62.368 166.018,61.752C166.018,53.849 171.626,50.722 176.537,50.722C181.448,50.722 187.066,54.171 187.066,61.752C187.066,72.529 187.758,72.529 187.758,61.752C187.758,58.159 185.654,50.211 176.537,50.211Z" style="fill:url(#_Linear6);"/>
            <path id="path2885" d="M176.531,51.255C167.617,51.255 165.565,58.856 165.565,62.156C165.565,62.664 165.573,63.032 165.576,63.487L166.236,63.487C166.24,63.032 166.247,62.664 166.247,62.156C166.247,54.896 171.729,51.723 176.531,51.723C181.333,51.723 186.826,55.192 186.826,62.156C186.826,72.057 187.507,72.057 187.507,62.156C187.507,58.856 185.445,51.255 176.531,51.255Z" style="fill:url(#_Linear7);"/>
            <path id="path2897" d="M167.209,54.455C166.23,56.243 168.241,55.113 168.708,54.548C170.021,52.961 172.24,51.81 174.188,51.435C175.821,51.12 176.07,50.489 174.725,50.385C172.043,50.177 168.148,52.741 167.209,54.455Z" style="fill:white;fill-opacity:0.8;"/>
            <path id="path2901" d="M165.725,57.408C165.829,58.281 167.518,55.433 168.848,54.095C170.473,52.462 172.935,51.318 174.12,51.167C176.232,50.898 175.229,49.863 173.906,50.125C169.095,51.075 165.46,55.18 165.725,57.408Z" style="fill:white;fill-opacity:0.6;"/>
            <path id="path2909" d="M185.81,54.443C186.796,56.227 184.782,55.104 184.312,54.541C182.994,52.959 180.77,51.817 178.821,51.448C177.187,51.139 176.727,50.511 178.071,50.401C180.752,50.183 184.865,52.732 185.81,54.443Z" style="fill:white;fill-opacity:0.8;"/>
            <path id="path2911" d="M187.247,57.329C187.147,58.203 185.447,55.36 184.112,54.028C182.482,52.401 180.015,51.266 178.83,51.12C176.717,50.858 177.708,49.861 179.04,50.076C183.858,50.86 187.504,55.1 187.247,57.329Z" style="fill:white;fill-opacity:0.6;"/>
            <path id="path2953" d="M171.315,52.632C168.9,54.012 167.541,56.363 167.807,57.147C168.094,57.991 169.791,54.217 174.594,53.048C178.298,52.146 174.594,50.76 171.315,52.632Z" style="fill:url(#_Radial8);"/>
            <path id="path2957" d="M181.709,52.567C183.937,53.969 185.191,56.361 184.945,57.159C184.681,58.017 183.115,54.178 178.683,52.989C175.266,52.073 178.684,50.662 181.709,52.567Z" style="fill:url(#_Radial9);"/>
            <path id="path3055" d="M195.737,91.348C195.737,92.1 187.07,92.719 176.537,92.719C166.004,92.719 157.337,92.1 157.337,91.348C157.337,90.595 166.004,89.976 176.537,89.976C187.07,89.976 195.737,90.595 195.737,91.348Z" style="fill:url(#_Radial10);"/>
            <path id="path3065" d="M195.737,90.319C195.737,91.259 187.07,92.033 176.537,92.033C166.004,92.033 157.337,91.259 157.337,90.319C157.337,89.379 166.004,88.605 176.537,88.605C187.07,88.605 195.737,89.379 195.737,90.319Z" style="fill:url(#_Radial11);"/>
            <path id="path3067" d="M195.737,90.662C195.737,91.414 187.07,92.033 176.537,92.033C166.004,92.033 157.337,91.414 157.337,90.662C157.337,89.91 166.004,89.29 176.537,89.29C187.07,89.29 195.737,89.91 195.737,90.662Z" style="fill:url(#_Radial12);"/>
            <path id="rect1941" d="M190.251,68.549C190.251,68.455 190.175,68.379 190.081,68.379L162.993,68.379C162.899,68.379 162.823,68.455 162.823,68.549L162.823,90.781C162.823,90.875 162.899,90.952 162.993,90.952L190.081,90.952C190.175,90.952 190.251,90.875 190.251,90.781L190.251,68.549Z" style="fill:url(#_Linear13);"/>
            <path id="rect2709" d="M190.251,68.549C190.251,68.455 190.175,68.379 190.081,68.379L162.993,68.379C162.899,68.379 162.823,68.455 162.823,68.549L162.823,90.781C162.823,90.875 162.899,90.952 162.993,90.952L190.081,90.952C190.175,90.952 190.251,90.875 190.251,90.781L190.251,68.549Z" style="fill:url(#_Linear14);"/>
            <path id="rect2734" d="M190.251,68.549C190.251,68.455 190.175,68.379 190.081,68.379L162.993,68.379C162.899,68.379 162.823,68.455 162.823,68.549L162.823,90.781C162.823,90.875 162.899,90.952 162.993,90.952L190.081,90.952C190.175,90.952 190.251,90.875 190.251,90.781L190.251,68.549Z" style="fill:url(#_Linear15);"/>
            <path id="rect2738" d="M190.251,68.549C190.251,68.455 190.175,68.379 190.081,68.379L162.993,68.379C162.899,68.379 162.823,68.455 162.823,68.549L162.823,90.781C162.823,90.875 162.899,90.952 162.993,90.952L190.081,90.952C190.175,90.952 190.251,90.875 190.251,90.781L190.251,68.549Z" style="fill:url(#_Linear16);"/>
            <path id="path2727" d="M163.68,68.379C164.296,69.102 169.861,69.668 176.849,69.668C183.74,69.668 189.214,69.107 189.96,68.399C189.95,68.398 189.95,68.379 189.939,68.379L163.68,68.379Z" style="fill:white;fill-opacity:0.5;"/>
            <path id="path2778" d="M164.301,70.115C164.044,71.89 163.756,83.15 164.71,85.561C165.642,87.919 165.526,74.309 167.799,72.167C170.096,70.002 164.545,68.441 164.301,70.115Z" style="fill:url(#_Radial17);"/>
            <path id="path2790" d="M164.16,70.233C163.862,72.305 163.53,85.45 164.63,88.265C165.706,91.018 165.572,75.13 168.195,72.629C170.846,70.101 164.44,68.278 164.16,70.233Z" style="fill:url(#_Radial18);"/>
            <path id="path2794" d="M163.868,70.335C163.499,72.663 163.087,87.431 164.453,90.593C165.791,93.686 165.624,75.836 168.883,73.026C172.177,70.187 164.217,68.138 163.868,70.335Z" style="fill:url(#_Radial19);"/>
            <path id="path2805" d="M188.773,70.115C189.03,71.89 189.319,83.15 188.365,85.561C187.432,87.919 187.549,74.309 185.276,72.167C182.979,70.002 188.53,68.441 188.773,70.115Z" style="fill:url(#_Radial20);"/>
            <path id="path2807" d="M188.915,70.233C189.212,72.305 189.545,85.45 188.445,88.265C187.369,91.018 187.503,75.13 184.88,72.629C182.229,70.101 188.635,68.278 188.915,70.233Z" style="fill:url(#_Radial21);"/>
            <path id="path2809" d="M189.206,70.335C189.576,72.663 189.988,87.431 188.622,90.593C187.284,93.686 187.451,75.836 184.192,73.026C180.898,70.187 188.858,68.138 189.206,70.335Z" style="fill:url(#_Radial22);"/>
            <path id="rect3077" d="M189.742,87.92L189.742,90.608C189.742,90.799 189.592,90.952 189.411,90.952L163.664,90.952C163.481,90.952 163.334,90.799 163.334,90.608L163.334,81.064C163.334,91.119 189.742,73.951 189.742,87.92Z" style="fill:url(#_Linear23);"/>
            <path id="path2768" d="M163.349,90.952C163.965,90.23 169.53,89.661 176.517,89.661C183.409,89.661 188.883,90.223 189.629,90.932C189.616,90.932 189.619,90.952 189.609,90.952L163.349,90.952Z" style="fill-opacity:0.5;"/>
        </g>
        <text x="404.97px" y="294.229px" style="font-family:'ArialMT', 'Arial', sans-serif;font-size:12px;">T<tspan x="411.855px 415.851px " y="294.229px 294.229px ">re</tspan>nt</text>
        <g id="Trent">
            <path d="M431.585,229.887L431.643,231.039L432.126,240.564L418.663,252.816L413.955,248.51L406.32,241.528L405.726,229.817L431.585,229.887Z" style="fill:rgb(226,167,125);fill-rule:nonzero;"/>
            <path d="M416.347,193.852C417.872,194.263 419.943,192.296 420.929,191.494C422.716,190.041 424.745,188.882 426.909,188.089C428.494,187.51 430.237,187.124 431.859,187.584C434.244,188.26 435.816,190.659 436.259,193.099C437.16,198.067 434.664,203.207 435.464,208.184C435.575,208.88 435.765,210.459 436.876,209.698C437.336,209.382 437.041,208.53 437.534,208.152C438.621,207.317 439.154,208.649 439.237,209.453C439.541,212.319 439.258,215.475 438.025,218.149C437.311,219.698 436.228,220.184 435.178,221.331C434.016,222.603 434.34,224.964 433.961,226.498C433.703,227.541 433.279,228.499 432.686,229.348C431.416,231.162 429.099,232.096 427.627,233.76C426.248,235.32 424.979,236.87 423.026,237.93C421.851,238.569 420.17,238.664 418.62,238.671C418.418,238.691 418.216,238.71 418.011,238.724L415.727,193.713C415.933,193.759 416.145,193.798 416.347,193.852Z" style="fill:rgb(252,193,143);fill-rule:nonzero;"/>
            <path d="M395.484,211.689C395.487,210.881 395.881,209.502 397.048,210.223C397.576,210.548 397.37,211.427 397.859,211.694C399.041,212.338 399.07,210.749 399.111,210.045C399.266,207.367 397.852,204.875 398.062,202.241C398.252,199.824 398.008,197.341 398.769,194.971C399.429,192.92 400.731,191.028 402.583,189.925C404.297,188.907 406.43,188.62 408.351,189.152C410.044,189.619 411.216,190.641 412.355,191.914C413.594,193.302 414.18,193.288 416.061,193.713L418.344,238.724C416.979,238.83 415.568,238.828 414.494,238.38C412.445,237.523 411.026,236.109 409.494,234.696C407.862,233.189 405.463,232.495 404.018,230.82C403.34,230.034 402.822,229.123 402.461,228.113C401.927,226.625 402.009,224.242 400.726,223.096C399.566,222.06 398.44,221.687 397.572,220.219C396.074,217.684 395.472,214.571 395.484,211.689Z" style="fill:rgb(240,183,132);fill-rule:nonzero;"/>
            <path d="M438.241,206.037C437.891,207.673 437.647,209.306 437.696,210.93L435.639,211.034C435.597,210.632 435.598,210.25 435.598,210.016C435.605,208.912 435.516,208.039 435.4,206.944C434.89,202.167 436.607,186.395 426.781,191.362C425.338,192.089 424.066,193.119 422.656,193.907C418.583,196.178 413.358,196.234 409.24,194.046C406.945,192.828 403.283,190.005 400.877,192.594C399.308,194.284 399.902,198.739 399.769,200.813C399.586,203.689 399.302,206.306 399.534,209.244C399.629,210.431 399.936,211.578 399.969,212.778C396.805,213.962 397.486,210.449 396.873,208.621C395.858,205.589 395.623,202.81 395.458,199.698C395.295,196.653 394.224,193.328 395.18,190.298C397.059,184.358 405.037,181.075 410.57,179.846C416.543,178.518 423.109,178.825 428.951,180.62C431.368,181.361 435.09,182.522 436.791,184.532C438.511,186.56 438.685,190.314 439.155,192.903C439.944,197.241 439.15,201.784 438.241,206.037Z" style="fill:rgb(42,17,11);fill-rule:nonzero;"/>
            <path d="M406.473,239.163L399.959,244.727C401.181,247.105 402.734,249.751 404.708,252.509C407.281,256.107 409.936,259.009 412.309,261.287C412.309,261.287 414.097,254.264 418.793,250.769C411.64,248.37 406.473,239.163 406.473,239.163Z" style="fill:white;fill-rule:nonzero;"/>
            <path d="M418.804,279.027L418.793,250.766C418.793,250.766 415.668,257.337 412.086,255.585L406.559,242.037L401.69,244.235L396.029,246.803L394.284,247.33L389.656,248.752L383.031,250.769C378.331,252.199 374.074,254.81 370.668,258.352L369.897,259.153C368.838,260.26 368.113,261.628 367.831,263.131C367.511,264.825 367.023,275.869 366.43,279.027L418.804,279.027Z" style="fill:rgb(65,64,67);fill-rule:nonzero;"/>
            <path d="M471.266,279.027C470.672,275.869 470.185,264.825 469.864,263.131C469.583,261.628 468.857,260.26 467.798,259.153C463.886,255.087 458.998,252.088 453.6,250.445L448.039,248.752L443.41,247.33L441.666,246.803L436.005,244.235L431.136,242.037L425.609,255.585C422.026,257.337 418.899,250.766 418.899,250.766L418.891,279.027L471.266,279.027Z" style="fill:rgb(34,30,31);fill-rule:nonzero;"/>
            <path d="M429.807,279.027L432.68,263.02L420.173,249.321L418.491,249.321C418.491,249.321 405.338,262.884 405.433,263.87L408.273,279.027L429.807,279.027Z" style="fill:rgb(185,209,221);fill-rule:nonzero;"/>
            <path d="M416.638,258.434L413.915,279.027L424.161,279.027L421.437,258.434C421.295,257.803 421.387,257.145 421.695,256.575L423.383,253.46C423.461,253.271 423.413,253.057 423.269,252.914C422.618,252.281 421.967,251.646 421.318,251.013C420.876,250.581 420.345,250.177 420.086,249.613C419.904,249.207 419.399,248.302 418.813,248.687C418.301,249.023 418.129,249.55 417.797,249.998C417.465,250.444 416.947,250.827 416.548,251.216C415.968,251.782 415.387,252.349 414.806,252.914C414.661,253.057 414.616,253.271 414.691,253.46L416.38,256.575C416.688,257.145 416.78,257.803 416.638,258.434Z" style="fill:rgb(61,88,114);fill-rule:nonzero;"/>
            <path d="M419.373,248.205C419.184,248.387 418.893,248.387 418.699,248.205L406.137,236.263L403.33,244.931L408.759,263.87L418.624,249.239C418.827,248.941 419.247,248.941 419.448,249.239L429.316,263.87L434.746,244.931L431.937,236.263L419.373,248.205Z" style="fill:rgb(229,244,253);fill-rule:nonzero;"/>
            <path d="M436.991,279.027L447.441,258.309L436.505,255.377L448.498,251.449C446.776,249.416 445.662,248.467 443.036,246.587C438.175,243.749 434.88,242.356 433.808,242.037L428.312,262.064L425.388,279.027L436.991,279.027Z" style="fill:rgb(65,64,67);fill-rule:nonzero;"/>
            <path d="M390.638,258.309L401.02,279.027L412.593,279.027L408.063,257.124L404.266,242.037C403.194,242.348 398.763,243.292 395.036,246.232C392.92,247.748 391.359,249.321 389.573,251.449L401.565,255.377L390.638,258.309Z" style="fill:rgb(34,30,31);fill-rule:nonzero;"/>
            <path d="M428.704,216.112L428.443,216.117C427.852,216.117 427.265,216.056 426.701,215.934C424.315,215.417 422.372,213.845 421.376,211.619C421.162,211.142 421.195,210.723 421.477,210.3C422.348,209 425.298,207.981 428.49,207.88C431.11,207.796 433.304,208.356 434.364,209.377C434.897,209.891 435.137,210.506 435.103,211.259C434.955,214.316 431.772,216.014 428.704,216.112ZM414.656,211.832C413.804,214.119 411.966,215.812 409.618,216.48C409.062,216.637 408.481,216.735 407.891,216.774L407.63,216.785C404.561,216.884 401.276,215.391 400.936,212.35C400.851,211.602 401.052,210.973 401.551,210.425C402.544,209.339 404.699,208.639 407.319,208.557C410.509,208.453 413.517,209.282 414.47,210.525C414.78,210.928 414.838,211.344 414.656,211.832ZM438.615,207.545L438.032,206.1C438.032,206.1 431.568,206.159 428.438,206.259C425.372,206.357 421.72,207.307 420.222,209.201L420.174,209.123C419.308,209.578 418.565,209.75 417.954,209.774C417.34,209.789 416.588,209.664 415.694,209.264L415.655,209.346C414.037,207.553 410.331,206.838 407.266,206.937C404.137,207.037 396.493,208.13 396.493,208.13L396.051,210.116L399.234,211.717C399.213,211.981 399.212,212.252 399.243,212.527C399.693,216.548 403.83,218.528 407.681,218.405C407.788,218.402 407.893,218.398 407.997,218.391C408.715,218.345 409.422,218.224 410.099,218.032C412.977,217.216 415.222,215.153 416.259,212.371C416.404,211.987 416.469,211.606 416.459,211.234C417.022,211.363 417.54,211.416 418.005,211.403C418.472,211.387 418.984,211.3 419.537,211.135C419.552,211.507 419.641,211.882 419.809,212.259C421.023,214.967 423.395,216.882 426.318,217.514C427.006,217.663 427.72,217.738 428.44,217.738C428.544,217.737 428.649,217.735 428.755,217.732C432.608,217.609 436.608,215.37 436.801,211.327C436.815,211.049 436.796,210.78 436.758,210.519L438.615,207.545Z" style="fill:rgb(3,4,5);fill-rule:nonzero;"/>
        </g>
    </g>
    <g id="Calque-11" serif:id="Calque 1">
    </g>
    <g id="layer1">
    </g>
    <defs>
        <linearGradient id="_Linear1" x1="0" y1="0" x2="1" y2="0" gradientUnits="userSpaceOnUse" gradientTransform="matrix(5.12571e-16,8.37093,-8.37093,5.12571e-16,174.602,50.8708)"><stop offset="0" style="stop-color:white;stop-opacity:0.65"/><stop offset="1" style="stop-color:white;stop-opacity:0"/></linearGradient>
        <linearGradient id="_Linear2" x1="0" y1="0" x2="1" y2="0" gradientUnits="userSpaceOnUse" gradientTransform="matrix(0.759245,-4.28043,4.28043,0.759245,175.99,58.2487)"><stop offset="0" style="stop-color:white;stop-opacity:0.5"/><stop offset="1" style="stop-color:white;stop-opacity:0"/></linearGradient>
        <radialGradient id="_Radial3" cx="0" cy="0" r="1" gradientUnits="userSpaceOnUse" gradientTransform="matrix(4.89221,0,0,3.56899,171.884,54.1162)"><stop offset="0" style="stop-color:rgb(255,225,156);stop-opacity:0.8"/><stop offset="1" style="stop-color:rgb(183,158,79);stop-opacity:0"/></radialGradient>
        <radialGradient id="_Radial4" cx="0" cy="0" r="1" gradientUnits="userSpaceOnUse" gradientTransform="matrix(-4.89221,0,0,3.56899,181.189,54.082)"><stop offset="0" style="stop-color:rgb(255,225,156);stop-opacity:0.8"/><stop offset="1" style="stop-color:rgb(183,158,79);stop-opacity:0"/></radialGradient>
        <linearGradient id="_Linear5" x1="0" y1="0" x2="1" y2="0" gradientUnits="userSpaceOnUse" gradientTransform="matrix(1.02966e-16,-1.68156,1.68156,1.02966e-16,176.151,56.931)"><stop offset="0" style="stop-color:white;stop-opacity:0.5"/><stop offset="1" style="stop-color:white;stop-opacity:0"/></linearGradient>
        <linearGradient id="_Linear6" x1="0" y1="0" x2="1" y2="0" gradientUnits="userSpaceOnUse" gradientTransform="matrix(1.53886e-15,-25.1314,25.1314,1.53886e-15,179.087,64.4164)"><stop offset="0" style="stop-color:white;stop-opacity:0.8"/><stop offset="1" style="stop-color:white;stop-opacity:0"/></linearGradient>
        <linearGradient id="_Linear7" x1="0" y1="0" x2="1" y2="0" gradientUnits="userSpaceOnUse" gradientTransform="matrix(1.41367e-15,-23.0869,23.0869,1.41367e-15,179.024,64.6009)"><stop offset="0" style="stop-color:white;stop-opacity:0.6"/><stop offset="1" style="stop-color:white;stop-opacity:0"/></linearGradient>
        <radialGradient id="_Radial8" cx="0" cy="0" r="1" gradientUnits="userSpaceOnUse" gradientTransform="matrix(6.37729,0,0,4.24374,171.862,54.0463)"><stop offset="0" style="stop-color:rgb(255,225,156);stop-opacity:0.4"/><stop offset="1" style="stop-color:rgb(183,158,79);stop-opacity:0"/></radialGradient>
        <radialGradient id="_Radial9" cx="0" cy="0" r="1" gradientUnits="userSpaceOnUse" gradientTransform="matrix(-5.88385,0,0,4.31609,181.206,54.0046)"><stop offset="0" style="stop-color:rgb(255,225,156);stop-opacity:0.4"/><stop offset="1" style="stop-color:rgb(183,158,79);stop-opacity:0"/></radialGradient>
        <radialGradient id="_Radial10" cx="0" cy="0" r="1" gradientUnits="userSpaceOnUse" gradientTransform="matrix(19.2001,0,0,1.37142,176.537,91.3471)"><stop offset="0" style="stop-color:rgb(40,40,40);stop-opacity:0.4"/><stop offset="1" style="stop-color:rgb(40,40,40);stop-opacity:0"/></radialGradient>
        <radialGradient id="_Radial11" cx="0" cy="0" r="1" gradientUnits="userSpaceOnUse" gradientTransform="matrix(19.2001,0,0,1.71427,176.537,90.3179)"><stop offset="0" style="stop-color:rgb(40,40,40);stop-opacity:0.4"/><stop offset="1" style="stop-color:rgb(40,40,40);stop-opacity:0"/></radialGradient>
        <radialGradient id="_Radial12" cx="0" cy="0" r="1" gradientUnits="userSpaceOnUse" gradientTransform="matrix(19.2001,0,0,1.37142,176.537,90.6613)"><stop offset="0" style="stop-color:rgb(40,40,40);stop-opacity:0.4"/><stop offset="1" style="stop-color:rgb(40,40,40);stop-opacity:0"/></radialGradient>
        <linearGradient id="_Linear13" x1="0" y1="0" x2="1" y2="0" gradientUnits="userSpaceOnUse" gradientTransform="matrix(11.0766,0,0,11.0766,176.303,82.0578)"><stop offset="0" style="stop-color:rgb(183,35,108);stop-opacity:1"/><stop offset="0.75" style="stop-color:rgb(224,79,132);stop-opacity:1"/><stop offset="1" style="stop-color:rgb(238,105,162);stop-opacity:1"/></linearGradient>
        <linearGradient id="_Linear14" x1="0" y1="0" x2="1" y2="0" gradientUnits="userSpaceOnUse" gradientTransform="matrix(3.57675e-17,0.584127,-0.584127,3.57675e-17,176.586,77.3303)"><stop offset="0" style="stop-color:black;stop-opacity:0.03"/><stop offset="1" style="stop-color:white;stop-opacity:0.03"/></linearGradient>
        <linearGradient id="_Linear15" x1="0" y1="0" x2="1" y2="0" gradientUnits="userSpaceOnUse" gradientTransform="matrix(0.260783,1.16763,-1.16763,0.260783,172.932,75.8709)"><stop offset="0" style="stop-color:black;stop-opacity:0.03"/><stop offset="1" style="stop-color:white;stop-opacity:0.03"/></linearGradient>
        <linearGradient id="_Linear16" x1="0" y1="0" x2="1" y2="0" gradientUnits="userSpaceOnUse" gradientTransform="matrix(-0.194264,1.45939,-1.45939,-0.194264,167.959,86.0874)"><stop offset="0" style="stop-color:black;stop-opacity:0.03"/><stop offset="1" style="stop-color:white;stop-opacity:0.03"/></linearGradient>
        <radialGradient id="_Radial17" cx="0" cy="0" r="1" gradientUnits="userSpaceOnUse" gradientTransform="matrix(3.84756,0,0,14.6833,165.041,71.1096)"><stop offset="0" style="stop-color:white;stop-opacity:0.4"/><stop offset="1" style="stop-color:white;stop-opacity:0"/></radialGradient>
        <radialGradient id="_Radial18" cx="0" cy="0" r="1" gradientUnits="userSpaceOnUse" gradientTransform="matrix(4.44007,0,0,17.1411,165.013,71.3935)"><stop offset="0" style="stop-color:white;stop-opacity:0.3"/><stop offset="1" style="stop-color:white;stop-opacity:0"/></radialGradient>
        <radialGradient id="_Radial19" cx="0" cy="0" r="1" gradientUnits="userSpaceOnUse" gradientTransform="matrix(5.51732,0,0,19.2581,164.928,71.6389)"><stop offset="0" style="stop-color:white;stop-opacity:0.2"/><stop offset="1" style="stop-color:white;stop-opacity:0"/></radialGradient>
        <radialGradient id="_Radial20" cx="0" cy="0" r="1" gradientUnits="userSpaceOnUse" gradientTransform="matrix(-3.84756,0,0,14.6833,188.034,71.1096)"><stop offset="0" style="stop-color:white;stop-opacity:0.4"/><stop offset="1" style="stop-color:white;stop-opacity:0"/></radialGradient>
        <radialGradient id="_Radial21" cx="0" cy="0" r="1" gradientUnits="userSpaceOnUse" gradientTransform="matrix(-4.44007,0,0,17.1411,188.062,71.3935)"><stop offset="0" style="stop-color:white;stop-opacity:0.3"/><stop offset="1" style="stop-color:white;stop-opacity:0"/></radialGradient>
        <radialGradient id="_Radial22" cx="0" cy="0" r="1" gradientUnits="userSpaceOnUse" gradientTransform="matrix(-5.51732,0,0,19.2581,188.146,71.6389)"><stop offset="0" style="stop-color:white;stop-opacity:0.2"/><stop offset="1" style="stop-color:white;stop-opacity:0"/></radialGradient>
        <linearGradient id="_Linear23" x1="0" y1="0" x2="1" y2="0" gradientUnits="userSpaceOnUse" gradientTransform="matrix(9.02721e-16,-14.7426,14.7426,9.02721e-16,175.041,91.2169)"><stop offset="0" style="stop-color:white;stop-opacity:0.25"/><stop offset="1" style="stop-color:white;stop-opacity:0"/></linearGradient>
    </defs>
</svg>
