<?xml version="1.0" encoding="UTF-8" standalone="no"?>
<!DOCTYPE svg PUBLIC "-//W3C//DTD SVG 1.1//EN" "http://www.w3.org/Graphics/SVG/1.1/DTD/svg11.dtd">
<svg width="460px" height="350px" version="1.1" xmlns="http://www.w3.org/2000/svg" xmlns:xlink="http://www.w3.org/1999/xlink" xml:space="preserve" xmlns:serif="http://www.serif.com/" style="fill-rule:evenodd;clip-rule:evenodd;stroke-linecap:round;stroke-linejoin:round;stroke-miterlimit:1.5;">
    <g id="Calque-1" serif:id="Calque 1">
        <g id="Alice">
            <path d="M92.265,135.253C90.907,118.737 88.636,89.107 89.1,80.795C90.468,46.354 75.359,40.325 65.902,39.076C55.369,37.685 38.601,41.893 34.497,62.949C31.28,79.449 33.105,118.937 34.045,135.253L92.265,135.253Z" style="fill:rgb(183,34,61);fill-rule:nonzero;"/>
            <path d="M43.516,73.805C43.168,72.882 43.229,72.007 42.587,71.166C42.002,70.399 41.09,69.863 40.127,69.842C37.06,69.777 36.695,73.518 37.854,75.563C38.432,76.585 39.291,77.432 39.832,78.475C40.746,80.241 41.023,82.806 43.489,83.08C44.922,83.239 45.701,82.731 46.058,81.911C46.737,80.352 45.882,77.664 45.091,76.309C44.614,75.492 43.851,74.689 43.516,73.805Z" style="fill:rgb(226,180,118);fill-rule:nonzero;"/>
            <path d="M49.543,84.717C50.504,90.745 51.775,98.068 49.733,103.303C47.401,109.281 44.452,110.478 39.108,112.545C41.598,115.94 43.943,119.467 46.869,122.494C49.795,125.522 53.4,128.06 57.519,128.928C58.779,129.194 60.089,129.258 61.382,129.16L61.382,84.566C56.772,84.425 49.643,84.296 49.543,84.717Z" style="fill:rgb(211,169,101);fill-rule:nonzero;"/>
            <path d="M44.975,53.596C39.797,60.8 39.958,70.838 43.082,78.827C45.602,85.273 53.562,96.307 61.382,96.074L61.382,45.547C55.184,45.269 48.554,48.618 44.975,53.596Z" style="fill:rgb(226,180,118);fill-rule:nonzero;"/>
            <path d="M61.377,138.835L61.377,126.624C49.115,125.655 43.461,118.474 39.108,112.549C26.423,117.333 24.177,118.345 19.92,124.72C19.572,125.244 19.285,125.803 19.066,126.392C18.424,128.117 17.106,132.198 16.074,138.835L61.377,138.835Z" style="fill:rgb(240,102,166);fill-rule:nonzero;"/>
            <path d="M82.637,69.842C81.675,69.863 80.762,70.399 80.177,71.166C79.536,72.007 79.596,72.882 79.248,73.805C78.914,74.689 78.15,75.492 77.672,76.309C76.882,77.664 76.026,80.352 76.707,81.911C77.062,82.731 77.843,83.239 79.276,83.08C81.741,82.806 82.018,80.241 82.933,78.475C83.473,77.432 84.332,76.585 84.909,75.563C86.066,73.518 85.702,69.777 82.637,69.842Z" style="fill:rgb(236,188,131);fill-rule:nonzero;"/>
            <path d="M72.698,103.303C70.657,98.068 71.927,90.745 72.889,84.717C72.787,84.296 65.658,84.425 61.048,84.566L61.048,129.16C62.343,129.258 63.651,129.194 64.911,128.928C69.03,128.06 72.636,125.522 75.561,122.494C78.487,119.467 80.832,115.94 83.322,112.545C77.979,110.478 75.03,109.281 72.698,103.303Z" style="fill:rgb(226,180,118);fill-rule:nonzero;"/>
            <path d="M61.382,45.547L61.237,96.074C69.058,96.307 77.162,85.273 79.682,78.827C82.804,70.838 82.968,60.8 77.789,53.596C74.211,48.618 67.58,45.269 61.382,45.547Z" style="fill:rgb(236,188,131);fill-rule:nonzero;"/>
            <path d="M106.356,138.835C105.325,132.198 104.006,128.117 103.364,126.392C103.144,125.803 102.86,125.244 102.51,124.72C98.254,118.345 96.007,117.333 83.323,112.549C78.969,118.474 73.315,125.655 61.054,126.624L61.054,138.835L106.356,138.835Z" style="fill:rgb(230,79,155);fill-rule:nonzero;"/>
            <path d="M81.368,50.518C80.772,50.042 71.137,43.975 70.423,43.856C69.709,43.736 53.055,44.094 52.579,44.571C52.104,45.046 41.158,52.778 40.326,52.897L40.326,69.313L41.777,73.12C41.777,73.12 41.04,66.696 42.943,62.295C44.847,57.893 51.132,53.015 51.132,53.015C51.132,53.015 55.077,58.013 63.286,59.56C60.55,57.418 57.694,53.729 57.694,53.729C57.694,53.729 65.07,59.56 67.687,60.51C67.093,58.846 64.712,54.325 64.712,54.325C64.712,54.325 71.969,58.846 73.397,63.068C74.587,62.059 71.633,56.228 71.633,56.228C71.633,56.228 80.941,64.443 79.94,72.484C82.25,68.948 84.698,68.392 83.655,65.388C83.537,65.05 81.962,50.994 81.368,50.518Z" style="fill:rgb(183,34,61);fill-rule:nonzero;"/>
            <path d="M43.455,82.968C42.109,82.968 41.019,84.059 41.019,85.405C41.019,86.75 42.109,87.841 43.455,87.841C44.801,87.841 45.891,86.75 45.891,85.405C45.891,84.059 44.801,82.968 43.455,82.968Z" style="fill:rgb(165,216,232);fill-rule:nonzero;"/>
            <path d="M78.896,83.109C77.55,83.109 76.459,84.199 76.459,85.545C76.459,86.889 77.55,87.981 78.896,87.981C80.24,87.981 81.332,86.889 81.332,85.545C81.332,84.199 80.24,83.109 78.896,83.109Z" style="fill:rgb(165,216,232);fill-rule:nonzero;"/>
        </g>
        <text x="48.468px" y="153.96px" style="font-family:'ArialMT', 'Arial', sans-serif;font-size:12px;">Alice</text>
        <g id="Bob">
            <path d="M394.209,138.835C393.344,138.069 392.435,137.294 391.453,136.521C388.046,133.831 384.762,131.801 381.887,130.276C381.887,130.276 387.069,122.835 386.484,122.835L375.646,124.658C375.646,124.658 374.977,124.296 375.376,116.324C376.716,110.302 379.696,106.731 382.062,104.753C381.676,104.884 367.727,110.574 360.357,112.865C356.589,114.034 352.599,115.398 350.862,119.306C350.178,120.844 350.246,123.17 350.052,124.824C349.506,129.476 349.216,134.159 348.98,138.835L394.209,138.835Z" style="fill:rgb(113,101,82);fill-rule:nonzero;"/>
            <path d="M399.559,138.045C399.559,138.045 381.528,116.785 384.187,108.415C385.349,105.114 385.405,102.563 385.405,102.563C385.405,102.563 384.951,102.744 384.242,103.153C383.628,103.496 382.764,104.046 381.792,104.863C381.792,104.863 381.787,104.863 381.781,104.87C379.38,106.902 376.349,110.573 374.988,116.765C374.582,124.96 375.264,125.331 375.264,125.331L386.273,123.459C385.299,125.305 380.949,131.085 380.949,131.085C383.87,132.653 387.862,134.762 391.323,137.527C391.871,137.965 392.364,138.399 392.876,138.835L399.281,138.835C399.269,138.821 399.251,138.799 399.237,138.784L399.559,138.045Z" style="fill:rgb(135,121,96);fill-rule:nonzero;"/>
            <path d="M443.926,138.835C443.77,136.758 443.607,134.67 443.421,132.555C442.906,126.712 442.951,119.589 439.137,114.698C436.364,111.142 431.627,110.362 427.555,109.12C422.701,107.64 417.846,106.158 412.991,104.677C415.702,107.095 418.684,112.256 418.757,123.295C415.617,123.902 410.27,124.273 408.734,123.646C410.069,124.78 414.238,128.61 414.239,128.612C414.053,128.438 410.017,131.276 409.812,131.491C406.952,134.455 400.224,134.402 398.295,138.045C398.23,138.17 398.138,138.462 398.034,138.835L443.926,138.835Z" style="fill:rgb(135,121,96);fill-rule:nonzero;"/>
            <path d="M385.081,94.191C385.064,94.196 385.049,94.196 385.044,94.202C385.027,94.208 385.017,94.208 385.017,94.208C385.017,94.208 385.145,94.926 385.267,96.062C385.596,99.001 385.888,104.773 383.88,108.415C385.855,112.827 387.017,117.037 396.237,117.319L396.237,92.338C390.994,92.908 385.712,94.053 385.081,94.191Z" style="fill:rgb(237,169,130);fill-rule:nonzero;"/>
            <path d="M406.912,95.005C406.895,94.817 406.885,94.627 406.88,94.441C406.869,94.36 406.869,94.288 406.863,94.208C406.766,91.774 401.355,91.746 395.903,92.338L395.903,117.319C397.232,117.359 398.73,117.319 400.421,117.184C406.267,115.855 409.456,112.931 411.317,107.352C409.053,104.71 407.262,99.713 406.912,95.005Z" style="fill:rgb(223,159,122);fill-rule:nonzero;"/>
            <path d="M385.081,94.191C385.064,94.196 385.049,94.196 385.044,94.202C385.027,94.208 385.017,94.208 385.017,94.208C385.017,94.208 390.774,102.483 396.237,102.827L396.237,92.338C390.994,92.908 385.712,94.053 385.081,94.191Z" style="fill:rgb(206,145,116);fill-rule:nonzero;"/>
            <path d="M407.196,94.208C407.099,91.774 401.688,91.746 396.237,92.338L396.237,102.827C396.459,102.841 396.681,102.848 396.902,102.834C400.601,102.424 404.857,98.162 407.213,94.441C407.202,94.36 407.202,94.288 407.196,94.208Z" style="fill:rgb(192,135,108);fill-rule:nonzero;"/>
            <path d="M403.013,116.12C400.264,117.151 397.791,117.06 396.237,116.855C395.735,116.788 395.328,116.71 395.041,116.652C388.18,115.276 384.602,109.616 383.88,108.415C381.951,114.491 391.085,127.36 396.237,133.958C398.181,136.446 399.559,138.045 399.559,138.045L407.298,123.685C407.446,123.409 407.589,123.131 407.734,122.849C410.13,118.109 411.448,112.884 411.491,107.569C411.082,108.599 408.812,113.952 403.013,116.12Z" style="fill:rgb(202,217,224);fill-rule:nonzero;"/>
            <path d="M415.83,128.884C415.83,128.884 411.528,126.121 409.78,124.562C411.93,124.894 416.374,124.538 419.138,124.003C419.073,114.144 416.737,108.887 414.307,106.081C413.87,105.537 413.428,105.066 412.991,104.677C410.716,102.648 408.623,102.563 408.623,102.563C408.623,102.563 409.194,104.544 410.857,107.446C410.852,107.488 411.157,107.533 411.157,107.569C411.114,112.884 409.796,118.109 407.401,122.849C407.256,123.131 407.113,123.409 406.964,123.685L397.221,137.337C396.994,137.808 396.77,138.312 396.549,138.835L400.459,138.835C405.205,134.06 415.735,128.953 415.83,128.884Z" style="fill:rgb(113,101,82);fill-rule:nonzero;"/>
            <path d="M396.295,38.835C396.277,38.837 396.256,38.84 396.237,38.84L396.237,38.858C396.256,38.852 396.276,38.844 396.295,38.835Z" style="fill:rgb(117,77,42);fill-rule:nonzero;"/>
            <path d="M410.18,44.32C408.926,43.571 407.581,42.96 406.167,42.519C402.838,41.48 399.402,40.121 395.903,40.087L395.903,58.442C396.005,58.445 396.099,58.453 396.201,58.453C398.195,58.459 399.895,58.888 401.702,59.713C402.463,60.063 403.276,60.702 404.099,60.691C403.871,60.345 403.589,59.994 403.27,59.713C404.498,60.569 406.135,61.105 407.373,61.955C409.328,63.306 411.451,65.591 412.045,67.958C412.794,70.921 411.28,74.063 411.987,77.077C412.205,76.269 413.231,74.792 414.012,74.08C413.539,74.601 415.351,74.462 415.426,74.441C415.852,74.319 416.121,74.121 416.323,73.862C416.642,73.446 416.771,72.878 417.005,72.203C417.813,69.902 418.353,67.451 418.28,65.002C418.376,65.113 418.594,65.358 418.816,65.645C419.21,66.144 419.641,66.771 419.562,67.048C422.149,58.401 417.748,48.821 410.18,44.32Z" style="fill:rgb(57,59,66);fill-rule:nonzero;"/>
            <path d="M393.027,40.467C394.03,39.809 395.11,39.27 396.237,38.858L396.237,38.84C394.03,38.93 391.838,39.319 389.742,39.999C388.567,40.383 387.409,40.866 386.431,41.621C385.198,42.571 384.406,44.07 383.927,45.527C382.907,45.081 380.467,45.655 379.41,46.112C376.763,47.253 375.492,49.508 373.707,51.581C373.016,52.39 372.446,53.127 372.006,53.903C371.337,55.058 370.932,56.29 370.757,57.953C370.544,59.952 370.666,61.971 370.788,63.974C371.103,62.944 371.596,61.93 372.292,61.105C372.341,62.019 371.794,62.716 371.602,63.577C371.363,64.677 371.549,65.905 371.771,66.988C372.234,69.233 373.234,71.464 374.657,73.266C374.855,73.52 375.101,73.776 375.36,74.037C375.577,74.249 375.806,74.462 376.045,74.68C377.374,75.902 378.931,77.237 379.096,78.745C378.751,75.62 377.773,72.867 377.964,69.923C377.991,69.498 378.049,69.067 378.128,68.631C378.256,67.963 378.448,67.281 378.735,66.58C378.863,66.969 379.096,67.377 379.203,67.766C379.356,63.863 381.535,62.678 383.735,59.91C384.73,58.66 386.106,57.705 386.414,56.041C387.552,57.496 388.689,56.97 390.242,57.314C392.341,57.783 394.07,58.385 396.237,58.442L396.237,40.087C395.173,40.076 394.102,40.185 393.027,40.467Z" style="fill:rgb(65,66,68);fill-rule:nonzero;"/>
            <path d="M414.348,73.819C413.345,74.406 412.31,75.883 411.984,77.078C411.282,74.065 412.792,70.923 412.044,67.959C411.448,65.592 409.327,63.305 407.374,61.958C406.135,61.103 404.501,60.57 403.271,59.712C403.591,59.996 403.869,60.348 404.098,60.692C403.274,60.703 402.462,60.065 401.699,59.716C399.895,58.888 398.194,58.458 396.199,58.453C396.098,58.453 396.003,58.445 395.903,58.444L395.903,100.185C398.652,100.167 398.896,99.613 400.113,98.721C401.57,97.652 403.139,96.924 404.728,96.059C405.407,95.689 405.924,95.283 406.363,94.814C406.942,94.198 407.38,93.473 407.837,92.558C408.306,91.624 410.112,87.731 410.834,86.817C410.785,86.88 411.724,87.149 411.809,87.158C412.185,87.194 412.616,87.144 412.953,86.964C413.544,86.655 414.007,85.927 414.335,85.366C415.126,84.005 415.406,82.431 415.967,80.977C416.574,79.399 417.671,77.817 417.626,76.063C417.578,74.246 416.067,72.812 414.348,73.819Z" style="fill:rgb(235,179,154);fill-rule:nonzero;"/>
            <path d="M390.244,57.316C388.692,56.973 387.555,57.494 386.413,56.039C386.105,57.702 384.731,58.662 383.735,59.912C381.535,62.677 379.357,63.863 379.202,67.767C379.096,67.378 378.864,66.969 378.735,66.577C378.446,67.281 378.256,67.963 378.128,68.634C378.117,69.074 378.062,69.505 377.966,69.924C377.774,72.866 378.749,75.62 379.096,78.744C378.899,76.973 376.777,75.43 375.362,74.035C375.244,74.135 375.123,74.233 375.001,74.328C374.873,74.426 374.762,74.537 374.676,74.659C373.426,76.423 375.295,79.373 375.914,80.977C376.409,82.26 376.681,83.63 377.284,84.873C377.542,85.408 377.871,85.98 378.207,86.466C378.528,86.931 379.364,87.073 379.895,86.998C380.173,86.956 380.448,86.817 380.591,86.574C381.555,88.748 382.974,90.428 384.042,92.559C384.821,94.11 385.532,95.13 387.006,95.973C387.056,96.001 387.099,96.03 387.151,96.059C388.741,96.924 390.309,97.652 391.769,98.721C393.003,99.627 392.959,100.187 396.107,100.187C396.153,100.187 396.192,100.185 396.237,100.185L396.237,58.444C394.07,58.387 392.339,57.781 390.244,57.316Z" style="fill:rgb(250,189,163);fill-rule:nonzero;"/>
            <path d="M379.285,81.873C379.387,82.553 379.392,83.408 378.614,83.599C378.396,83.653 378.16,83.577 377.988,83.413C377.307,82.767 377.412,81.821 377.599,80.992C377.741,80.37 377.928,79.735 377.849,79.099C377.699,77.881 376.32,76.676 375.249,77.187C375.527,77.053 375.639,76.788 376.021,76.706C376.501,76.603 376.728,76.664 377.23,76.963C377.412,77.071 377.588,77.205 377.731,77.37C378.769,78.567 379.049,80.29 379.285,81.873Z" style="fill:rgb(192,135,108);fill-rule:nonzero;"/>
            <path d="M412.569,82.141C412.467,82.821 412.46,83.673 413.239,83.866C413.459,83.921 413.695,83.844 413.867,83.68C414.545,83.033 414.444,82.088 414.255,81.259C414.112,80.637 413.926,80.002 414.005,79.366C414.156,78.148 415.532,76.942 416.605,77.453C416.326,77.321 416.214,77.055 415.832,76.973C415.353,76.871 415.124,76.931 414.626,77.228C414.444,77.338 414.266,77.47 414.121,77.637C413.084,78.835 412.805,80.558 412.569,82.141Z" style="fill:rgb(192,135,108);fill-rule:nonzero;"/>
            <path d="M410.166,78.112C410.013,78.621 409.809,79.131 409.446,79.551C408.582,80.552 406.874,80.816 405.573,80.959C400.735,81.488 399.607,76.987 399.534,75.727C399.763,73.601 402.652,73.246 405.651,73.167C406.962,73.133 408.719,73.199 409.742,74.08C409.999,74.301 410.177,74.578 410.295,74.888C410.678,75.891 410.427,77.23 410.166,78.112ZM386.106,80.959C384.806,80.816 383.096,80.552 382.232,79.551C381.871,79.131 381.666,78.621 381.514,78.112C381.252,77.23 381.002,75.891 381.384,74.888C381.502,74.578 381.68,74.301 381.937,74.08C382.962,73.199 384.717,73.133 386.03,73.167C389.027,73.246 391.916,73.601 392.145,75.727C392.071,76.987 390.945,81.488 386.106,80.959ZM414.08,72.801C413.992,72.696 406.91,69.941 397.916,73.265C397.073,73.383 396.28,73.421 395.839,73.435C395.826,73.435 395.81,73.435 395.796,73.434C395.351,73.419 394.581,73.378 393.763,73.265C384.942,70.22 377.687,72.696 377.599,72.801C377.107,73.401 377.595,74.271 377.598,74.277C377.614,74.306 377.987,74.399 378.032,74.421C378.391,74.584 378.963,74.863 379.135,75.216C379.313,75.581 379.259,76.181 379.321,76.587C379.437,77.345 379.577,78.106 379.83,78.838C380.155,79.78 380.769,80.833 381.706,81.389C383.664,82.552 387.687,82.309 389.724,81.805C391.976,81.106 393.974,77.048 394.188,75.766C394.335,74.977 395.255,74.801 395.796,74.766C395.81,74.765 395.826,74.763 395.839,74.762C396.374,74.792 397.339,74.958 397.492,75.766C397.705,77.048 399.703,81.106 401.955,81.805C403.992,82.309 408.016,82.552 409.973,81.389C410.912,80.833 411.524,79.78 411.85,78.838C412.102,78.106 412.244,77.345 412.359,76.587C412.421,76.181 412.366,75.581 412.545,75.216C412.716,74.863 413.289,74.584 413.646,74.421C413.694,74.399 414.064,74.306 414.081,74.277C414.084,74.271 414.571,73.401 414.08,72.801Z" style="fill:rgb(34,30,31);fill-rule:nonzero;"/>
        </g>
        <text x="387.136px" y="153.96px" style="font-family:'ArialMT', 'Arial', sans-serif;font-size:12px;">Bob</text>
        <path d="M305.323,101.235L317.323,107.235L305.323,113.235C308.323,110.235 308.323,104.235 305.323,101.235Z"/>
        <path d="M137.443,107.235L307.723,107.235" style="fill:none;stroke:black;stroke-width:2px;"/>
        <g id="g2372">
            <path id="path5651" d="M196.573,194.54L145.758,194.95L137.832,227.296L138.512,227.381L114.379,244.884L114.094,244.844L114.094,245.084L114.037,245.124L114.094,245.139L114.222,258.902L114.08,258.872L114.236,269.134L114.322,269.149C114.249,270.159 114.298,272.319 114.379,274.4L114.421,278.895L122.533,280.546L122.533,280.491L160.796,288.487L160.826,288.957L168.752,291.788L168.737,291.378L173.333,287.177L185.291,277.045L185.306,277.185L191.367,272.034L188.206,233.742L188.506,233.487L189.101,233.557L189.161,233.232C212.711,229.056 217.152,202.121 196.533,194.765L196.573,194.54ZM120.528,242.279L118.863,243.434L118.835,243.434L120.528,242.279Z" style="fill:rgb(73,47,23);stroke:black;stroke-width:3.19px;stroke-miterlimit:4;"/>
            <g id="g10565">
                <g id="g10567">
                    <path id="path10569" d="M187.384,234.218L139.276,228.611L139.885,252.988L167.065,260.356L187.384,234.218Z" style="fill:rgb(73,47,23);"/>
                    <path id="rect10571" d="M168.772,275.935L190.052,257.893L190.42,272.627L169.14,290.669L168.772,275.935Z" style="fill:rgb(133,85,43);"/>
                    <path id="rect10573" d="M167.94,262.832L189.044,246.221L189.378,259.588L168.274,276.2L167.94,262.832Z" style="fill:rgb(104,67,34);"/>
                    <path id="rect10575" d="M166.988,250.364L187.852,233.941L188.182,247.139L167.317,263.562L166.988,250.364Z" style="fill:rgb(120,77,39);"/>
                    <path id="path10577" d="M168.85,290.172L114.521,278.818C114.521,278.818 113.992,268.621 114.374,268.563C114.811,268.498 169.007,278.925 169.007,278.925L168.85,290.172Z" style="fill:rgb(94,60,30);"/>
                    <path id="path10579" d="M168.519,279.103L114.169,269.126L114.023,258.871L168.283,267.483L168.519,279.103Z" style="fill:rgb(103,66,33);"/>
                    <path id="path10581" d="M139.669,228.973L140.378,257.36L115.717,245.589L139.669,228.973Z" style="fill:rgb(31,19,10);"/>
                    <path id="path10583" d="M168.302,268.222L167.587,259.326L114.831,251.762L115.843,263.792L168.302,268.222Z" style="fill:rgb(121,78,39);"/>
                    <path id="path10585" d="M167.382,259.888L167.048,250.929L114.332,244.949L114.862,253.025L167.382,259.888Z" style="fill:rgb(107,69,35);"/>
                </g>
                <path id="path10587" d="M188.131,233.524L182.91,238.328L185.218,277.174L191.264,272.029L188.131,233.524Z" style="fill:rgb(65,36,7);"/>
                <path id="path10589" d="M171.698,248.006L166.477,252.815L168.675,291.359L174.501,286.039L171.698,248.006Z" style="fill:rgb(65,36,7);"/>
                <path id="path10591" d="M166.642,252.573L158.782,251.216L160.761,288.946L168.675,291.782L166.642,252.573Z" style="fill:rgb(81,45,9);"/>
                <path id="path10593" d="M120.64,245.747L114.045,244.829L114.374,278.894L122.454,280.537L120.64,245.747Z" style="fill:rgb(81,45,9);"/>
                <path id="path10595" d="M188.681,231.952L139.107,227.847L146.801,197.184L195.661,196.157L188.681,231.952Z" style="fill:url(#_Linear1);"/>
                <path id="path10597" d="M141.03,228.534L147.625,197.58C160.376,197.426 170.214,222.603 141.03,228.534Z" style="fill:rgb(31,19,10);"/>
                <path id="path10599" d="M138.502,227.341L188.516,233.414L166.752,252.656L113.99,245.11L138.502,227.341ZM139.986,229.017L118.771,243.428L166.367,250.397L183.679,234.447L139.986,229.017Z" style="fill:rgb(82,62,44);"/>
                <path id="path10601" d="M188.846,231.782L195.881,196.723C209.511,196.673 220.063,225.346 188.846,231.782Z" style="fill:url(#_Linear2);"/>
                <path id="path10603" d="M145.702,194.942L196.485,194.53L189.011,233.546L137.788,227.292L145.702,194.942ZM147.845,197.767L141.745,226.247L187.966,231.32L194.891,196.569L147.845,197.767Z" style="fill:rgb(82,62,44);"/>
                <path id="path10605" d="M195.826,194.541C217.37,201.636 212.808,229.484 188.461,233.332L195.826,194.541ZM196.485,198.086L190.494,229.462C210.17,226.352 213.908,203.823 196.485,198.086Z" style="fill:rgb(82,62,44);"/>
                <path id="path10607" d="M178.953,230.787C177.964,231.447 177.579,232.425 177.359,233.475L172.467,232.705C171.313,232.359 172.687,230.073 173.787,230.243L178.953,230.787Z" style="fill:rgb(145,127,110);"/>
                <path id="path10609" d="M178.751,232.207C179.24,231.549 179.473,230.697 179.268,230.319C179.064,229.94 178.492,230.171 178.003,230.829C177.513,231.487 177.279,232.34 177.484,232.719C177.689,233.097 178.259,232.867 178.748,232.21" style="fill:rgb(179,166,154);"/>
                <path id="path10611" d="M153.451,227.682C152.462,228.341 152.077,229.32 151.802,230.364L146.911,229.594C145.812,229.254 147.131,226.962 148.285,227.138L153.451,227.682Z" style="fill:rgb(145,127,110);"/>
                <path id="path10613" d="M153.249,229.074C153.738,228.416 153.972,227.564 153.767,227.186C153.562,226.807 152.991,227.038 152.501,227.696C152.012,228.355 151.778,229.208 151.982,229.586C152.187,229.964 152.758,229.735 153.247,229.077" style="fill:rgb(179,166,154);"/>
                <path id="path10615" d="M131.522,254.316C136.194,252.865 142.679,253.425 147.131,256.992C149.604,258.932 148.944,272.31 139.656,270.82C131.412,269.49 128.389,255.277 131.522,254.316Z" style="fill:url(#_Radial3);"/>
                <path id="path10617" d="M138.777,257.476C138.117,257.377 137.458,257.646 137.128,258.24L137.073,258.24C136.633,259.092 136.963,260.295 137.897,260.949L136.084,265.082L141.58,266.006L139.931,261.164C140.206,261.032 140.371,260.839 140.536,260.581C141.03,259.718 140.645,258.493 139.711,257.844C139.381,257.641 139.107,257.52 138.777,257.476Z"/>
            </g>
        </g>
        <text x="209.107px" y="93.269px" style="font-family:'ArialMT', 'Arial', sans-serif;font-size:76px;">?</text>
        <g>
            <path id="rect2723" d="M246.068,197.54C239.234,197.54 233.733,203.041 233.733,209.875L233.733,223.58L237.159,223.58L237.159,209.875C237.159,204.939 241.133,200.966 246.068,200.966C251.003,200.966 254.976,204.939 254.976,209.875L254.976,223.58L258.403,223.58L258.403,209.875C258.403,203.041 252.901,197.54 246.068,197.54Z" style="fill:rgb(40,40,40);"/>
            <path id="path3082" d="M246.068,198.435C239.614,198.435 234.418,203.987 234.418,210.32L234.418,223.096C234.418,227.893 237.406,231.966 241.657,233.665C238.611,232.28 236.474,229.309 236.474,225.786L236.474,209.647C236.474,204.804 240.447,200.584 245.382,200.584L246.753,200.584C251.688,200.584 255.662,204.804 255.662,209.647L255.662,225.786C255.662,229.309 253.525,232.28 250.479,233.665C254.73,231.966 257.717,227.893 257.717,223.096L257.717,210.32C257.717,203.987 252.522,198.435 246.068,198.435Z" style="fill:url(#_Linear4);"/>
            <path id="path2931" d="M246.068,197.83C239.426,197.83 234.078,203.142 234.078,209.739L234.078,223.049C234.078,228.046 237.153,232.29 241.528,234.06C238.393,232.616 236.194,229.521 236.194,225.852L236.194,209.039C236.194,203.994 240.283,199.138 245.363,199.138L246.773,199.138C251.852,199.138 255.942,203.994 255.942,209.039L255.942,225.852C255.942,229.521 253.742,232.616 250.608,234.06C254.982,232.29 258.058,228.046 258.058,223.049L258.058,209.739C258.058,203.142 252.71,197.83 246.068,197.83L246.068,197.83Z" style="fill:url(#_Linear5);"/>
            <path id="path2861" d="M240.999,200.945C239.147,202.104 238.106,204.081 238.31,204.74C238.53,205.449 239.83,202.277 243.513,201.295C246.352,200.537 243.513,199.371 240.999,200.945Z" style="fill:url(#_Radial6);"/>
            <path id="path2871" d="M251.137,200.911C252.988,202.07 254.03,204.047 253.826,204.706C253.606,205.415 252.305,202.243 248.623,201.26C245.783,200.503 248.623,199.337 251.137,200.911Z" style="fill:url(#_Radial7);"/>
            <path id="rect2875" d="M246.068,198.997C239.614,198.997 234.418,203.421 234.418,209.875L234.418,222.895C234.418,227.783 237.406,231.932 241.657,233.665C238.611,232.252 236.474,229.226 236.474,225.636L236.474,209.189C236.474,204.254 240.447,200.276 245.382,200.276L246.753,200.276C251.688,200.276 255.662,204.254 255.662,209.189L255.662,225.636C255.662,229.226 253.525,232.252 250.479,233.665C254.73,231.932 257.717,227.783 257.717,222.895L257.717,209.875C257.717,203.421 252.522,198.997 246.068,198.997Z" style="fill:url(#_Linear8);"/>
            <path id="path2933" d="M246.068,198.234C236.957,198.234 234.854,206.171 234.854,209.762C234.854,220.531 235.555,220.531 235.555,209.762C235.555,201.863 241.16,198.746 246.068,198.746C250.976,198.746 256.581,202.186 256.581,209.762C256.581,220.531 257.282,220.531 257.282,209.762C257.282,206.171 255.179,198.234 246.068,198.234Z" style="fill:url(#_Linear9);"/>
            <path id="path2885" d="M246.068,199.273C237.159,199.273 235.104,206.865 235.104,210.163C235.104,220.058 235.789,220.058 235.789,210.163C235.789,202.908 241.269,199.744 246.068,199.744C250.867,199.744 256.347,203.204 256.347,210.163C256.347,220.058 257.032,220.058 257.032,210.163C257.032,206.865 254.976,199.273 246.068,199.273Z" style="fill:url(#_Linear10);"/>
            <path id="path2897" d="M236.747,202.472C235.767,204.259 237.777,203.13 238.244,202.565C239.556,200.979 241.773,199.829 243.72,199.454C245.352,199.139 245.601,198.509 244.257,198.405C241.577,198.197 237.685,200.759 236.747,202.472L236.747,202.472Z" style="fill:white;fill-opacity:0.8;"/>
            <path id="path2901" d="M235.263,205.423C235.367,206.296 237.055,203.449 238.384,202.113C240.008,200.48 242.469,199.338 243.653,199.187C245.763,198.918 244.761,197.883 243.439,198.145C238.631,199.094 234.999,203.197 235.263,205.423L235.263,205.423Z" style="fill:white;fill-opacity:0.6;"/>
            <path id="path2909" d="M255.335,202.46C256.321,204.243 254.307,203.121 253.838,202.559C252.52,200.977 250.299,199.836 248.351,199.467C246.717,199.159 246.257,198.53 247.601,198.421C250.281,198.203 254.391,200.75 255.335,202.46L255.335,202.46Z" style="fill:white;fill-opacity:0.8;"/>
            <path id="path2911" d="M256.771,205.345C256.671,206.218 254.972,203.377 253.638,202.046C252.009,200.419 249.544,199.286 248.359,199.139C246.248,198.878 247.238,197.881 248.569,198.096C253.384,198.88 257.028,203.117 256.771,205.345L256.771,205.345Z" style="fill:white;fill-opacity:0.6;"/>
            <path id="path2953" d="M240.85,200.651C238.436,202.029 237.078,204.379 237.344,205.162C237.63,206.006 239.326,202.234 244.127,201.066C247.828,200.165 244.127,198.779 240.85,200.651Z" style="fill:url(#_Radial11);"/>
            <path id="path2957" d="M251.236,200.585C253.463,201.987 254.716,204.377 254.471,205.174C254.207,206.032 252.642,202.196 248.213,201.008C244.798,200.091 248.213,198.682 251.236,200.585Z" style="fill:url(#_Radial12);"/>
            <path id="path3055" d="M265.255,239.341C265.255,240.093 256.593,240.711 246.068,240.711C235.542,240.711 226.88,240.093 226.88,239.341C226.88,238.589 235.542,237.97 246.068,237.97C256.593,237.97 265.255,238.589 265.255,239.341Z" style="fill:url(#_Radial13);"/>
            <path id="path3065" d="M265.255,238.313C265.255,239.252 256.593,240.026 246.068,240.026C235.542,240.026 226.88,239.252 226.88,238.313C226.88,237.373 235.542,236.599 246.068,236.599C256.593,236.599 265.255,237.373 265.255,238.313Z" style="fill:url(#_Radial14);"/>
            <path id="path3067" d="M265.255,238.655C265.255,239.407 256.593,240.026 246.068,240.026C235.542,240.026 226.88,239.407 226.88,238.655C226.88,237.904 235.542,237.285 246.068,237.285C256.593,237.285 265.255,237.904 265.255,238.655Z" style="fill:url(#_Radial15);"/>
            <path id="rect1941" d="M259.773,216.887C259.773,216.611 259.549,216.387 259.273,216.387L232.863,216.387C232.587,216.387 232.363,216.611 232.363,216.887L232.363,238.445C232.363,238.721 232.587,238.945 232.863,238.945L259.273,238.945C259.549,238.945 259.773,238.721 259.773,238.445L259.773,216.887Z" style="fill:url(#_Linear16);"/>
            <path id="rect2709" d="M259.773,216.887C259.773,216.611 259.549,216.387 259.273,216.387L232.863,216.387C232.587,216.387 232.363,216.611 232.363,216.887L232.363,238.445C232.363,238.721 232.587,238.945 232.863,238.945L259.273,238.945C259.549,238.945 259.773,238.721 259.773,238.445L259.773,216.887Z" style="fill:url(#_Linear17);"/>
            <path id="rect2734" d="M259.773,216.887C259.773,216.611 259.549,216.387 259.273,216.387L232.863,216.387C232.587,216.387 232.363,216.611 232.363,216.887L232.363,238.445C232.363,238.721 232.587,238.945 232.863,238.945L259.273,238.945C259.549,238.945 259.773,238.721 259.773,238.445L259.773,216.887Z" style="fill:url(#_Linear18);"/>
            <path id="rect2738" d="M259.773,216.887C259.773,216.611 259.549,216.387 259.273,216.387L232.863,216.387C232.587,216.387 232.363,216.611 232.363,216.887L232.363,238.445C232.363,238.721 232.587,238.945 232.863,238.945L259.273,238.945C259.549,238.945 259.773,238.721 259.773,238.445L259.773,216.887Z" style="fill:url(#_Linear19);"/>
            <path id="path2727" d="M233.219,216.387C233.835,217.109 239.397,217.676 246.379,217.676C253.266,217.676 258.736,217.115 259.482,216.407C259.472,216.406 259.472,216.387 259.462,216.387L233.219,216.387Z" style="fill:white;fill-opacity:0.5;"/>
            <g id="g2798">
                <path id="path2778" d="M233.84,218.122C233.583,219.896 233.295,231.149 234.249,233.558C235.18,235.914 235.064,222.313 237.335,220.173C239.631,218.009 234.083,216.449 233.84,218.122Z" style="fill:url(#_Radial20);"/>
                <path id="path2790" d="M233.699,218.24C233.401,220.31 233.069,233.447 234.169,236.26C235.244,239.011 235.11,223.133 237.731,220.634C240.38,218.108 233.979,216.286 233.699,218.24Z" style="fill:url(#_Radial21);"/>
                <path id="path2794" d="M233.408,218.341C233.038,220.668 232.626,235.426 233.992,238.586C235.329,241.678 235.162,223.839 238.419,221.031C241.711,218.193 233.756,216.147 233.408,218.341Z" style="fill:url(#_Radial22);"/>
            </g>
            <g id="g2803">
                <path id="path2805" d="M258.296,218.122C258.553,219.896 258.841,231.149 257.888,233.558C256.956,235.914 257.073,222.313 254.801,220.173C252.506,218.009 258.053,216.449 258.296,218.122Z" style="fill:url(#_Radial23);"/>
                <path id="path2807" d="M258.438,218.24C258.735,220.31 259.067,233.447 257.968,236.26C256.892,239.011 257.026,223.133 254.406,220.634C251.757,218.108 258.158,216.286 258.438,218.24Z" style="fill:url(#_Radial24);"/>
                <path id="path2809" d="M258.729,218.341C259.098,220.668 259.51,235.426 258.145,238.586C256.808,241.678 256.975,223.839 253.718,221.031C250.426,218.193 258.381,216.147 258.729,218.341Z" style="fill:url(#_Radial25);"/>
            </g>
            <path id="rect3077" d="M259.264,235.916L259.264,238.602C259.264,238.792 259.114,238.946 258.934,238.946L233.203,238.946C233.02,238.946 232.873,238.792 232.873,238.602L232.873,229.064C232.873,239.112 259.264,221.956 259.264,235.916Z" style="fill:url(#_Linear26);"/>
            <path id="path2768" d="M232.888,238.946C233.504,238.224 239.066,237.655 246.048,237.655C252.935,237.655 258.406,238.217 259.152,238.925C259.138,238.925 259.142,238.946 259.131,238.946L232.888,238.946Z" style="fill-opacity:0.5;"/>
        </g>
        <g id="g4211">
            <path id="path4196" d="M299.212,216.645C296.286,216.666 293.362,217.91 291.305,220.066C287.621,223.758 286.89,229.958 289.327,234.56C291.406,238.723 296.124,241.252 300.641,240.613C304.646,240.132 308.023,237.158 309.573,233.413L312.44,235.058C313.28,235.582 313.751,234.924 313.75,234.156L313.695,231.082L316.957,231.157L319.174,233.244L322.06,230.322L324.698,232.84L326.649,232.84L329.352,230.133L331.308,231.787L333.798,231.682L335.958,229.606L338.284,227.463C337.89,226.149 336.766,225.337 334.702,224.43L313.54,224.597L313.411,222.256C313.401,221.421 312.398,221.07 311.744,221.504L309.362,223.45C308.108,220.731 305.882,218.483 303.124,217.397C301.874,216.873 300.541,216.636 299.212,216.645L299.212,216.645Z" style="fill:rgb(194,175,126);fill-rule:nonzero;stroke:rgb(84,84,84);stroke-width:0.6px;stroke-miterlimit:4;"/>
            <path id="path4192" d="M296.664,228.315C296.696,229.548 295.699,230.745 294.423,230.891C293.394,231.028 292.319,230.482 291.845,229.583C291.29,228.59 291.457,227.252 292.297,226.455C292.978,225.779 294.077,225.519 294.987,225.881C295.942,226.237 296.621,227.171 296.66,228.162C296.663,228.213 296.664,228.264 296.664,228.315L296.664,228.315Z" style="fill:white;fill-rule:nonzero;stroke:rgb(84,84,84);stroke-width:0.6px;stroke-miterlimit:4;"/>
            <path id="path4201" d="M308.472,228.366L337.467,227.987L336.312,229.014L311.691,229.374L308.472,228.366Z" style="fill:rgb(255,238,170);fill-rule:nonzero;stroke:rgb(84,84,84);stroke-width:0.3px;stroke-miterlimit:4;"/>
        </g>
        <g id="g42111" serif:id="g4211">
            <path id="path41961" serif:id="path4196" d="M299.212,267.37C296.286,267.391 293.362,268.635 291.305,270.791C287.621,274.483 286.89,280.683 289.327,285.285C291.406,289.448 296.124,291.977 300.641,291.338C304.646,290.857 308.023,287.883 309.573,284.138L312.44,285.783C313.28,286.307 313.751,285.649 313.75,284.881L313.695,281.807L316.957,281.882L319.174,283.969L322.06,281.047L324.698,283.565L326.649,283.565L329.352,280.858L331.308,282.511L333.798,282.407L335.958,280.331L338.284,278.188C337.89,276.874 336.766,276.062 334.702,275.155L313.54,275.322L313.411,272.981C313.401,272.146 312.398,271.795 311.744,272.229L309.362,274.175C308.108,271.456 305.882,269.208 303.124,268.122C301.874,267.598 300.541,267.361 299.212,267.37L299.212,267.37Z" style="fill:rgb(205,70,127);fill-rule:nonzero;stroke:rgb(84,84,84);stroke-width:0.6px;stroke-miterlimit:4;"/>
            <path id="path41921" serif:id="path4192" d="M296.664,279.04C296.696,280.273 295.699,281.47 294.423,281.616C293.394,281.753 292.319,281.207 291.845,280.308C291.29,279.315 291.457,277.977 292.297,277.18C292.978,276.504 294.077,276.244 294.987,276.606C295.942,276.962 296.621,277.896 296.66,278.887C296.663,278.938 296.664,278.989 296.664,279.04L296.664,279.04Z" style="fill:white;fill-rule:nonzero;stroke:rgb(84,84,84);stroke-width:0.6px;stroke-miterlimit:4;"/>
            <path id="path42011" serif:id="path4201" d="M308.472,279.091L337.467,278.712L336.312,279.739L311.691,280.099L308.472,279.091Z" style="fill:rgb(255,238,170);fill-rule:nonzero;stroke:rgb(84,84,84);stroke-width:0.3px;stroke-miterlimit:4;"/>
        </g>
        <g>
            <path id="rect27231" serif:id="rect2723" d="M246.119,249.064C239.304,249.064 233.818,254.551 233.818,261.366L233.818,275.034L237.235,275.034L237.235,261.366C237.235,256.444 241.197,252.481 246.119,252.481C251.041,252.481 255.004,256.444 255.004,261.366L255.004,275.034L258.421,275.034L258.421,261.366C258.421,254.551 252.935,249.064 246.119,249.064Z" style="fill:rgb(40,40,40);"/>
            <path id="path30821" serif:id="path3082" d="M246.119,249.957C239.683,249.957 234.501,255.494 234.501,261.81L234.501,274.552C234.501,279.336 237.481,283.398 241.72,285.093C238.683,283.711 236.552,280.748 236.552,277.235L236.552,261.139C236.552,256.309 240.514,252.1 245.436,252.1L246.803,252.1C251.725,252.1 255.688,256.309 255.688,261.139L255.688,277.235C255.688,280.748 253.556,283.711 250.519,285.093C254.758,283.398 257.738,279.336 257.738,274.552L257.738,261.81C257.738,255.494 252.556,249.957 246.119,249.957Z" style="fill:url(#_Linear27);"/>
            <path id="path29311" serif:id="path2931" d="M246.119,249.354C239.495,249.354 234.162,254.651 234.162,261.231L234.162,274.505C234.162,279.489 237.229,283.721 241.591,285.486C238.466,284.047 236.272,280.96 236.272,277.3L236.272,260.532C236.272,255.501 240.35,250.658 245.416,250.658L246.823,250.658C251.888,250.658 255.967,255.501 255.967,260.532L255.967,277.3C255.967,280.96 253.773,284.047 250.647,285.486C255.01,283.721 258.077,279.489 258.077,274.505L258.077,261.231C258.077,254.651 252.744,249.354 246.119,249.354L246.119,249.354Z" style="fill:url(#_Linear28);"/>
            <path id="path28611" serif:id="path2861" d="M241.064,252.461C239.218,253.617 238.179,255.588 238.382,256.245C238.601,256.953 239.899,253.789 243.571,252.809C246.403,252.053 243.571,250.891 241.064,252.461Z" style="fill:url(#_Radial29);"/>
            <path id="path28711" serif:id="path2871" d="M251.175,252.427C253.021,253.583 254.06,255.554 253.857,256.211C253.637,256.919 252.34,253.755 248.668,252.775C245.836,252.02 248.668,250.857 251.175,252.427Z" style="fill:url(#_Radial30);"/>
            <path id="rect28751" serif:id="rect2875" d="M246.119,250.517C239.683,250.517 234.501,254.93 234.501,261.366L234.501,274.351C234.501,279.226 237.481,283.364 241.72,285.093C238.683,283.684 236.552,280.665 236.552,277.085L236.552,260.683C236.552,255.761 240.514,251.793 245.436,251.793L246.803,251.793C251.725,251.793 255.688,255.761 255.688,260.683L255.688,277.085C255.688,280.665 253.556,283.684 250.519,285.093C254.758,283.364 257.738,279.226 257.738,274.351L257.738,261.366C257.738,254.93 252.556,250.517 246.119,250.517Z" style="fill:url(#_Linear31);"/>
            <path id="path29331" serif:id="path2933" d="M246.119,249.756C237.033,249.756 234.936,257.673 234.936,261.253C234.936,271.994 235.635,271.994 235.635,261.253C235.635,253.376 241.225,250.267 246.119,250.267C251.014,250.268 256.604,253.698 256.604,261.253C256.604,271.994 257.303,271.994 257.303,261.253C257.303,257.673 255.206,249.756 246.119,249.756Z" style="fill:url(#_Linear32);"/>
            <path id="path28851" serif:id="path2885" d="M246.119,250.793C237.235,250.793 235.185,258.365 235.185,261.654C235.185,271.522 235.868,271.522 235.868,261.654C235.868,254.418 241.333,251.262 246.119,251.262C250.906,251.263 256.371,254.713 256.371,261.654C256.371,271.522 257.054,271.522 257.054,261.654C257.054,258.365 255.004,250.793 246.119,250.793Z" style="fill:url(#_Linear33);"/>
            <path id="path28971" serif:id="path2897" d="M236.823,253.983C235.847,255.765 237.851,254.639 238.317,254.076C239.625,252.494 241.837,251.348 243.778,250.973C245.406,250.66 245.654,250.031 244.313,249.927C241.641,249.719 237.759,252.275 236.823,253.983L236.823,253.983Z" style="fill:white;fill-opacity:0.8;"/>
            <path id="path29011" serif:id="path2901" d="M235.344,256.927C235.447,257.797 237.131,254.958 238.457,253.625C240.076,251.997 242.53,250.857 243.711,250.707C245.815,250.438 244.816,249.407 243.497,249.668C238.703,250.615 235.08,254.706 235.344,256.927L235.344,256.927Z" style="fill:white;fill-opacity:0.6;"/>
            <path id="path29091" serif:id="path2909" d="M255.362,253.971C256.345,255.749 254.337,254.631 253.869,254.07C252.555,252.493 250.339,251.354 248.396,250.987C246.767,250.679 246.309,250.052 247.649,249.943C250.321,249.726 254.42,252.266 255.362,253.971L255.362,253.971Z" style="fill:white;fill-opacity:0.8;"/>
            <path id="path29111" serif:id="path2911" d="M256.794,256.848C256.694,257.719 255,254.886 253.669,253.558C252.044,251.936 249.586,250.805 248.405,250.659C246.299,250.399 247.287,249.405 248.614,249.619C253.416,250.401 257.05,254.627 256.794,256.848L256.794,256.848Z" style="fill:white;fill-opacity:0.6;"/>
            <path id="path29531" serif:id="path2953" d="M240.915,252.167C238.508,253.542 237.154,255.886 237.419,256.666C237.705,257.508 239.396,253.746 244.183,252.581C247.875,251.683 244.183,250.301 240.915,252.167Z" style="fill:url(#_Radial34);"/>
            <path id="path29571" serif:id="path2957" d="M251.274,252.101C253.495,253.5 254.745,255.883 254.5,256.678C254.236,257.534 252.676,253.708 248.259,252.523C244.853,251.609 248.259,250.203 251.274,252.101Z" style="fill:url(#_Radial35);"/>
            <path id="path30651" serif:id="path3065" d="M265.255,289.728C265.255,290.665 256.617,291.436 246.119,291.436C235.622,291.436 226.983,290.665 226.983,289.728C226.983,288.79 235.622,288.019 246.119,288.019C256.617,288.019 265.255,288.79 265.255,289.728Z" style="fill:url(#_Radial36);"/>
            <path id="path30671" serif:id="path3067" d="M265.255,290.069C265.255,290.819 256.617,291.436 246.119,291.436C235.622,291.436 226.983,290.819 226.983,290.069C226.983,289.32 235.622,288.703 246.119,288.703C256.617,288.703 265.255,289.32 265.255,290.069Z" style="fill:url(#_Radial37);"/>
            <path id="rect19411" serif:id="rect1941" d="M259.788,268.361C259.788,268.085 259.564,267.861 259.288,267.861L232.951,267.861C232.675,267.861 232.451,268.085 232.451,268.361L232.451,289.858C232.451,290.134 232.675,290.358 232.951,290.358L259.288,290.358C259.564,290.358 259.788,290.134 259.788,289.858L259.788,268.361Z" style="fill:url(#_Linear38);"/>
            <path id="rect27091" serif:id="rect2709" d="M259.788,268.361C259.788,268.085 259.564,267.861 259.288,267.861L232.951,267.861C232.675,267.861 232.451,268.085 232.451,268.361L232.451,289.858C232.451,290.134 232.675,290.358 232.951,290.358L259.288,290.358C259.564,290.358 259.788,290.134 259.788,289.858L259.788,268.361Z" style="fill:url(#_Linear39);"/>
            <path id="rect27341" serif:id="rect2734" d="M259.788,268.361C259.788,268.085 259.564,267.861 259.288,267.861L232.951,267.861C232.675,267.861 232.451,268.085 232.451,268.361L232.451,289.858C232.451,290.134 232.675,290.358 232.951,290.358L259.288,290.358C259.564,290.358 259.788,290.134 259.788,289.858L259.788,268.361Z" style="fill:url(#_Linear40);"/>
            <path id="rect27381" serif:id="rect2738" d="M259.788,268.361C259.788,268.085 259.564,267.861 259.288,267.861L232.951,267.861C232.675,267.861 232.451,268.085 232.451,268.361L232.451,289.858C232.451,290.134 232.675,290.358 232.951,290.358L259.288,290.358C259.564,290.358 259.788,290.134 259.788,289.858L259.788,268.361Z" style="fill:url(#_Linear41);"/>
            <path id="path27271" serif:id="path2727" d="M233.305,267.861C233.92,268.581 239.466,269.146 246.43,269.146C253.299,269.146 258.754,268.587 259.498,267.881C259.487,267.88 259.487,267.861 259.477,267.861L233.305,267.861Z" style="fill:white;fill-opacity:0.5;"/>
            <g id="g27981" serif:id="g2798">
                <path id="path27781" serif:id="path2778" d="M233.925,269.591C233.669,271.36 233.381,282.583 234.332,284.985C235.261,287.336 235.145,273.771 237.41,271.636C239.7,269.479 234.167,267.922 233.925,269.591Z" style="fill:url(#_Radial42);"/>
                <path id="path27901" serif:id="path2790" d="M233.784,269.709C233.487,271.774 233.156,284.875 234.252,287.68C235.325,290.424 235.191,274.589 237.805,272.097C240.447,269.578 234.063,267.76 233.784,269.709Z" style="fill:url(#_Radial43);"/>
                <path id="path27941" serif:id="path2794" d="M233.494,269.81C233.125,272.13 232.714,286.849 234.076,290.001C235.409,293.084 235.243,275.293 238.491,272.492C241.774,269.662 233.84,267.621 233.494,269.81Z" style="fill:url(#_Radial44);"/>
            </g>
            <g id="g28031" serif:id="g2803">
                <path id="path28051" serif:id="path2805" d="M258.315,269.591C258.571,271.36 258.858,282.583 257.908,284.985C256.978,287.336 257.095,273.771 254.829,271.636C252.54,269.479 258.073,267.922 258.315,269.591Z" style="fill:url(#_Radial45);"/>
                <path id="path28071" serif:id="path2807" d="M258.456,269.709C258.753,271.774 259.084,284.875 257.987,287.68C256.915,290.424 257.049,274.589 254.435,272.097C251.793,269.578 258.177,267.76 258.456,269.709Z" style="fill:url(#_Radial46);"/>
                <path id="path28091" serif:id="path2809" d="M258.746,269.81C259.115,272.13 259.526,286.849 258.164,290.001C256.831,293.084 256.997,275.293 253.749,272.492C250.466,269.662 258.4,267.621 258.746,269.81Z" style="fill:url(#_Radial47);"/>
            </g>
            <path id="rect30771" serif:id="rect3077" d="M259.28,287.337L259.28,290.016C259.28,290.206 259.131,290.359 258.951,290.359L233.289,290.359C233.107,290.359 232.96,290.206 232.96,290.016L232.96,280.504C232.96,290.525 259.28,273.415 259.28,287.337Z" style="fill:url(#_Linear48);"/>
            <path id="path27681" serif:id="path2768" d="M232.975,290.359C233.59,289.639 239.136,289.072 246.1,289.072C252.969,289.072 258.425,289.632 259.168,290.338C259.155,290.338 259.158,290.359 259.148,290.359L232.975,290.359Z" style="fill-opacity:0.5;"/>
        </g>
    </g>
    <g id="Calque-11" serif:id="Calque 1">
    </g>
    <g id="layer1">
    </g>
    <defs>
        <linearGradient id="_Linear1" x1="0" y1="0" x2="1" y2="0" gradientUnits="userSpaceOnUse" gradientTransform="matrix(-28.562,44.6868,-44.6868,-28.562,186.062,201.377)"><stop offset="0" style="stop-color:rgb(97,54,10);stop-opacity:1"/><stop offset="1" style="stop-color:rgb(5,2,0);stop-opacity:1"/></linearGradient>
        <linearGradient id="_Linear2" x1="0" y1="0" x2="1" y2="0" gradientUnits="userSpaceOnUse" gradientTransform="matrix(-19.8355,41.1096,-41.1096,-19.8355,209.218,211.729)"><stop offset="0" style="stop-color:rgb(65,36,7);stop-opacity:1"/><stop offset="1" style="stop-color:black;stop-opacity:1"/></linearGradient>
        <radialGradient id="_Radial3" cx="0" cy="0" r="1" gradientUnits="userSpaceOnUse" gradientTransform="matrix(9.06905,1.5192,0,8.55215,136.584,258.938)"><stop offset="0" style="stop-color:rgb(218,218,218);stop-opacity:1"/><stop offset="1" style="stop-color:rgb(136,136,136);stop-opacity:1"/></radialGradient>
        <linearGradient id="_Linear4" x1="0" y1="0" x2="1" y2="0" gradientUnits="userSpaceOnUse" gradientTransform="matrix(5.12235e-16,8.36543,-8.36543,5.12235e-16,244.139,198.89)"><stop offset="0" style="stop-color:white;stop-opacity:0.65"/><stop offset="1" style="stop-color:white;stop-opacity:0"/></linearGradient>
        <linearGradient id="_Linear5" x1="0" y1="0" x2="1" y2="0" gradientUnits="userSpaceOnUse" gradientTransform="matrix(0.758746,-4.27761,4.27761,0.758746,245.526,206.263)"><stop offset="0" style="stop-color:white;stop-opacity:0.5"/><stop offset="1" style="stop-color:white;stop-opacity:0"/></linearGradient>
        <radialGradient id="_Radial6" cx="0" cy="0" r="1" gradientUnits="userSpaceOnUse" gradientTransform="matrix(4.889,0,0,3.56666,241.418,202.134)"><stop offset="0" style="stop-color:rgb(255,225,156);stop-opacity:0.8"/><stop offset="1" style="stop-color:rgb(183,158,79);stop-opacity:0"/></radialGradient>
        <radialGradient id="_Radial7" cx="0" cy="0" r="1" gradientUnits="userSpaceOnUse" gradientTransform="matrix(-4.889,0,0,3.56666,250.716,202.1)"><stop offset="0" style="stop-color:rgb(255,225,156);stop-opacity:0.8"/><stop offset="1" style="stop-color:rgb(183,158,79);stop-opacity:0"/></radialGradient>
        <linearGradient id="_Linear8" x1="0" y1="0" x2="1" y2="0" gradientUnits="userSpaceOnUse" gradientTransform="matrix(1.02898e-16,-1.68046,1.68046,1.02898e-16,245.687,204.947)"><stop offset="0" style="stop-color:white;stop-opacity:0.5"/><stop offset="1" style="stop-color:white;stop-opacity:0"/></linearGradient>
        <linearGradient id="_Linear9" x1="0" y1="0" x2="1" y2="0" gradientUnits="userSpaceOnUse" gradientTransform="matrix(1.53785e-15,-25.115,25.115,1.53785e-15,248.61,212.427)"><stop offset="0" style="stop-color:white;stop-opacity:0.8"/><stop offset="1" style="stop-color:white;stop-opacity:0"/></linearGradient>
        <linearGradient id="_Linear10" x1="0" y1="0" x2="1" y2="0" gradientUnits="userSpaceOnUse" gradientTransform="matrix(1.41274e-15,-23.0718,23.0718,1.41274e-15,248.554,212.611)"><stop offset="0" style="stop-color:white;stop-opacity:0.6"/><stop offset="1" style="stop-color:white;stop-opacity:0"/></linearGradient>
        <radialGradient id="_Radial11" cx="0" cy="0" r="1" gradientUnits="userSpaceOnUse" gradientTransform="matrix(6.37309,0,0,4.24095,241.396,202.064)"><stop offset="0" style="stop-color:rgb(255,225,156);stop-opacity:0.4"/><stop offset="1" style="stop-color:rgb(183,158,79);stop-opacity:0"/></radialGradient>
        <radialGradient id="_Radial12" cx="0" cy="0" r="1" gradientUnits="userSpaceOnUse" gradientTransform="matrix(-5.87998,0,0,4.31325,250.734,202.022)"><stop offset="0" style="stop-color:rgb(255,225,156);stop-opacity:0.4"/><stop offset="1" style="stop-color:rgb(183,158,79);stop-opacity:0"/></radialGradient>
        <radialGradient id="_Radial13" cx="0" cy="0" r="1" gradientUnits="userSpaceOnUse" gradientTransform="matrix(19.1875,0,0,1.37052,246.068,239.34)"><stop offset="0" style="stop-color:rgb(40,40,40);stop-opacity:0.4"/><stop offset="1" style="stop-color:rgb(40,40,40);stop-opacity:0"/></radialGradient>
        <radialGradient id="_Radial14" cx="0" cy="0" r="1" gradientUnits="userSpaceOnUse" gradientTransform="matrix(19.1875,0,0,1.71315,246.068,238.312)"><stop offset="0" style="stop-color:rgb(40,40,40);stop-opacity:0.4"/><stop offset="1" style="stop-color:rgb(40,40,40);stop-opacity:0"/></radialGradient>
        <radialGradient id="_Radial15" cx="0" cy="0" r="1" gradientUnits="userSpaceOnUse" gradientTransform="matrix(19.1875,0,0,1.37052,246.068,238.655)"><stop offset="0" style="stop-color:rgb(40,40,40);stop-opacity:0.4"/><stop offset="1" style="stop-color:rgb(40,40,40);stop-opacity:0"/></radialGradient>
        <linearGradient id="_Linear16" x1="0" y1="0" x2="1" y2="0" gradientUnits="userSpaceOnUse" gradientTransform="matrix(11.0694,0,0,11.0694,245.834,230.057)"><stop offset="0" style="stop-color:rgb(164,124,68);stop-opacity:1"/><stop offset="0.75" style="stop-color:rgb(186,163,99);stop-opacity:1"/><stop offset="1" style="stop-color:rgb(214,199,149);stop-opacity:1"/></linearGradient>
        <linearGradient id="_Linear17" x1="0" y1="0" x2="1" y2="0" gradientUnits="userSpaceOnUse" gradientTransform="matrix(3.57441e-17,0.583745,-0.583745,3.57441e-17,246.117,225.333)"><stop offset="0" style="stop-color:black;stop-opacity:0.03"/><stop offset="1" style="stop-color:white;stop-opacity:0.03"/></linearGradient>
        <linearGradient id="_Linear18" x1="0" y1="0" x2="1" y2="0" gradientUnits="userSpaceOnUse" gradientTransform="matrix(0.260612,1.16687,-1.16687,0.260612,242.466,223.874)"><stop offset="0" style="stop-color:black;stop-opacity:0.03"/><stop offset="1" style="stop-color:white;stop-opacity:0.03"/></linearGradient>
        <linearGradient id="_Linear19" x1="0" y1="0" x2="1" y2="0" gradientUnits="userSpaceOnUse" gradientTransform="matrix(-0.194137,1.45843,-1.45843,-0.194137,237.496,234.084)"><stop offset="0" style="stop-color:black;stop-opacity:0.03"/><stop offset="1" style="stop-color:white;stop-opacity:0.03"/></linearGradient>
        <radialGradient id="_Radial20" cx="0" cy="0" r="1" gradientUnits="userSpaceOnUse" gradientTransform="matrix(3.84504,0,0,14.6736,234.579,219.116)"><stop offset="0" style="stop-color:white;stop-opacity:0.4"/><stop offset="1" style="stop-color:white;stop-opacity:0"/></radialGradient>
        <radialGradient id="_Radial21" cx="0" cy="0" r="1" gradientUnits="userSpaceOnUse" gradientTransform="matrix(4.43714,0,0,17.1298,234.551,219.4)"><stop offset="0" style="stop-color:white;stop-opacity:0.3"/><stop offset="1" style="stop-color:white;stop-opacity:0"/></radialGradient>
        <radialGradient id="_Radial22" cx="0" cy="0" r="1" gradientUnits="userSpaceOnUse" gradientTransform="matrix(5.5137,0,0,19.2455,234.467,219.645)"><stop offset="0" style="stop-color:white;stop-opacity:0.2"/><stop offset="1" style="stop-color:white;stop-opacity:0"/></radialGradient>
        <radialGradient id="_Radial23" cx="0" cy="0" r="1" gradientUnits="userSpaceOnUse" gradientTransform="matrix(-3.84504,0,0,14.6736,257.557,219.116)"><stop offset="0" style="stop-color:white;stop-opacity:0.4"/><stop offset="1" style="stop-color:white;stop-opacity:0"/></radialGradient>
        <radialGradient id="_Radial24" cx="0" cy="0" r="1" gradientUnits="userSpaceOnUse" gradientTransform="matrix(-4.43714,0,0,17.1298,257.586,219.4)"><stop offset="0" style="stop-color:white;stop-opacity:0.3"/><stop offset="1" style="stop-color:white;stop-opacity:0"/></radialGradient>
        <radialGradient id="_Radial25" cx="0" cy="0" r="1" gradientUnits="userSpaceOnUse" gradientTransform="matrix(-5.5137,0,0,19.2455,257.67,219.645)"><stop offset="0" style="stop-color:white;stop-opacity:0.2"/><stop offset="1" style="stop-color:white;stop-opacity:0"/></radialGradient>
        <linearGradient id="_Linear26" x1="0" y1="0" x2="1" y2="0" gradientUnits="userSpaceOnUse" gradientTransform="matrix(9.02129e-16,-14.7329,14.7329,9.02129e-16,244.573,239.21)"><stop offset="0" style="stop-color:white;stop-opacity:0.25"/><stop offset="1" style="stop-color:white;stop-opacity:0"/></linearGradient>
        <linearGradient id="_Linear27" x1="0" y1="0" x2="1" y2="0" gradientUnits="userSpaceOnUse" gradientTransform="matrix(5.10857e-16,8.34293,-8.34293,5.10857e-16,244.196,250.411)"><stop offset="0" style="stop-color:white;stop-opacity:0.65"/><stop offset="1" style="stop-color:white;stop-opacity:0"/></linearGradient>
        <linearGradient id="_Linear28" x1="0" y1="0" x2="1" y2="0" gradientUnits="userSpaceOnUse" gradientTransform="matrix(0.756705,-4.26611,4.26611,0.756705,245.579,257.764)"><stop offset="0" style="stop-color:white;stop-opacity:0.5"/><stop offset="1" style="stop-color:white;stop-opacity:0"/></linearGradient>
        <radialGradient id="_Radial29" cx="0" cy="0" r="1" gradientUnits="userSpaceOnUse" gradientTransform="matrix(4.87585,0,0,3.55707,241.482,253.646)"><stop offset="0" style="stop-color:rgb(255,41,146);stop-opacity:0.8"/><stop offset="1" style="stop-color:rgb(196,66,114);stop-opacity:0"/></radialGradient>
        <radialGradient id="_Radial30" cx="0" cy="0" r="1" gradientUnits="userSpaceOnUse" gradientTransform="matrix(-4.87585,0,0,3.55707,250.756,253.612)"><stop offset="0" style="stop-color:rgb(255,41,146);stop-opacity:0.8"/><stop offset="1" style="stop-color:rgb(196,66,114);stop-opacity:0"/></radialGradient>
        <linearGradient id="_Linear31" x1="0" y1="0" x2="1" y2="0" gradientUnits="userSpaceOnUse" gradientTransform="matrix(1.02622e-16,-1.67594,1.67594,1.02622e-16,245.74,256.451)"><stop offset="0" style="stop-color:white;stop-opacity:0.5"/><stop offset="1" style="stop-color:white;stop-opacity:0"/></linearGradient>
        <linearGradient id="_Linear32" x1="0" y1="0" x2="1" y2="0" gradientUnits="userSpaceOnUse" gradientTransform="matrix(1.53371e-15,-25.0474,25.0474,1.53371e-15,248.655,263.912)"><stop offset="0" style="stop-color:white;stop-opacity:0.8"/><stop offset="1" style="stop-color:white;stop-opacity:0"/></linearGradient>
        <linearGradient id="_Linear33" x1="0" y1="0" x2="1" y2="0" gradientUnits="userSpaceOnUse" gradientTransform="matrix(1.40894e-15,-23.0098,23.0098,1.40894e-15,248.599,264.095)"><stop offset="0" style="stop-color:white;stop-opacity:0.6"/><stop offset="1" style="stop-color:white;stop-opacity:0"/></linearGradient>
        <radialGradient id="_Radial34" cx="0" cy="0" r="1" gradientUnits="userSpaceOnUse" gradientTransform="matrix(6.35596,0,0,4.22954,241.46,253.576)"><stop offset="0" style="stop-color:rgb(255,41,146);stop-opacity:0.4"/><stop offset="1" style="stop-color:rgb(196,66,114);stop-opacity:0"/></radialGradient>
        <radialGradient id="_Radial35" cx="0" cy="0" r="1" gradientUnits="userSpaceOnUse" gradientTransform="matrix(-5.86417,0,0,4.30165,250.773,253.535)"><stop offset="0" style="stop-color:rgb(255,41,146);stop-opacity:0.4"/><stop offset="1" style="stop-color:rgb(196,66,114);stop-opacity:0"/></radialGradient>
        <radialGradient id="_Radial36" cx="0" cy="0" r="1" gradientUnits="userSpaceOnUse" gradientTransform="matrix(19.136,0,0,1.70854,246.119,289.727)"><stop offset="0" style="stop-color:rgb(40,40,40);stop-opacity:0.4"/><stop offset="1" style="stop-color:rgb(40,40,40);stop-opacity:0"/></radialGradient>
        <radialGradient id="_Radial37" cx="0" cy="0" r="1" gradientUnits="userSpaceOnUse" gradientTransform="matrix(19.136,0,0,1.36683,246.119,290.069)"><stop offset="0" style="stop-color:rgb(40,40,40);stop-opacity:0.4"/><stop offset="1" style="stop-color:rgb(40,40,40);stop-opacity:0"/></radialGradient>
        <linearGradient id="_Linear38" x1="0" y1="0" x2="1" y2="0" gradientUnits="userSpaceOnUse" gradientTransform="matrix(11.0396,0,0,11.0396,245.886,281.494)"><stop offset="0" style="stop-color:rgb(183,35,108);stop-opacity:1"/><stop offset="0.75" style="stop-color:rgb(224,79,132);stop-opacity:1"/><stop offset="1" style="stop-color:rgb(238,105,162);stop-opacity:1"/></linearGradient>
        <linearGradient id="_Linear39" x1="0" y1="0" x2="1" y2="0" gradientUnits="userSpaceOnUse" gradientTransform="matrix(3.56479e-17,0.582175,-0.582175,3.56479e-17,246.168,276.782)"><stop offset="0" style="stop-color:black;stop-opacity:0.03"/><stop offset="1" style="stop-color:white;stop-opacity:0.03"/></linearGradient>
        <linearGradient id="_Linear40" x1="0" y1="0" x2="1" y2="0" gradientUnits="userSpaceOnUse" gradientTransform="matrix(0.259911,1.16373,-1.16373,0.259911,242.527,275.328)"><stop offset="0" style="stop-color:black;stop-opacity:0.03"/><stop offset="1" style="stop-color:white;stop-opacity:0.03"/></linearGradient>
        <linearGradient id="_Linear41" x1="0" y1="0" x2="1" y2="0" gradientUnits="userSpaceOnUse" gradientTransform="matrix(-0.193615,1.45451,-1.45451,-0.193615,237.571,285.51)"><stop offset="0" style="stop-color:black;stop-opacity:0.03"/><stop offset="1" style="stop-color:white;stop-opacity:0.03"/></linearGradient>
        <radialGradient id="_Radial42" cx="0" cy="0" r="1" gradientUnits="userSpaceOnUse" gradientTransform="matrix(3.8347,0,0,14.6342,234.662,270.582)"><stop offset="0" style="stop-color:white;stop-opacity:0.4"/><stop offset="1" style="stop-color:white;stop-opacity:0"/></radialGradient>
        <radialGradient id="_Radial43" cx="0" cy="0" r="1" gradientUnits="userSpaceOnUse" gradientTransform="matrix(4.42521,0,0,17.0838,234.634,270.865)"><stop offset="0" style="stop-color:white;stop-opacity:0.3"/><stop offset="1" style="stop-color:white;stop-opacity:0"/></radialGradient>
        <radialGradient id="_Radial44" cx="0" cy="0" r="1" gradientUnits="userSpaceOnUse" gradientTransform="matrix(5.49888,0,0,19.1937,234.55,271.11)"><stop offset="0" style="stop-color:white;stop-opacity:0.2"/><stop offset="1" style="stop-color:white;stop-opacity:0"/></radialGradient>
        <radialGradient id="_Radial45" cx="0" cy="0" r="1" gradientUnits="userSpaceOnUse" gradientTransform="matrix(-3.8347,0,0,14.6342,257.578,270.582)"><stop offset="0" style="stop-color:white;stop-opacity:0.4"/><stop offset="1" style="stop-color:white;stop-opacity:0"/></radialGradient>
        <radialGradient id="_Radial46" cx="0" cy="0" r="1" gradientUnits="userSpaceOnUse" gradientTransform="matrix(-4.42521,0,0,17.0838,257.606,270.865)"><stop offset="0" style="stop-color:white;stop-opacity:0.3"/><stop offset="1" style="stop-color:white;stop-opacity:0"/></radialGradient>
        <radialGradient id="_Radial47" cx="0" cy="0" r="1" gradientUnits="userSpaceOnUse" gradientTransform="matrix(-5.49888,0,0,19.1937,257.69,271.11)"><stop offset="0" style="stop-color:white;stop-opacity:0.2"/><stop offset="1" style="stop-color:white;stop-opacity:0"/></radialGradient>
        <linearGradient id="_Linear48" x1="0" y1="0" x2="1" y2="0" gradientUnits="userSpaceOnUse" gradientTransform="matrix(8.99703e-16,-14.6933,14.6933,8.99703e-16,244.628,290.622)"><stop offset="0" style="stop-color:white;stop-opacity:0.25"/><stop offset="1" style="stop-color:white;stop-opacity:0"/></linearGradient>
    </defs>
</svg>
