<!--?xml version="1.0" standalone="no"?-->
<svg id="ofi_71b84778_74e3_48be_a072_c5ca98f6b0a7_svg" width="452.5625" height="182.5" xmlns="http://www.w3.org/2000/svg" viewBox="338.4375,19,452.5625,182.5">
<g transform="translate(420 150)">
<line x1="0" y1="0" x2="0" y2="0" style="stroke: black; stroke-width: 1;"></line>
<line x1="0" y1="0" x2="-54" y2="0" opacity="0" style="stroke: lightgray; stroke-width: 1;"></line>
<line x1="-54" y1="45" x2="-60" y2="45" opacity="0" style="stroke: black; stroke-width: 1;"></line>
<line x1="-60" y1="30" x2="-60" y2="-120" style="stroke: black; stroke-width: 1;"></line>
<line x1="-60" y1="-120" x2="-24" y2="-120" opacity="0" style="stroke: black; stroke-width: 1;"></line>
<line x1="-24" y1="45" x2="-30" y2="45" opacity="0" style="stroke: black; stroke-width: 1;"></line>
<line x1="-30" y1="30" x2="-30" y2="-120" style="stroke: black; stroke-width: 1;"></line>
<line x1="-30" y1="-120" x2="6" y2="-120" opacity="0" style="stroke: black; stroke-width: 1;"></line>
<line x1="6" y1="45" x2="0" y2="45" opacity="0" style="stroke: black; stroke-width: 1;"></line>
<line x1="0" y1="30" x2="0" y2="-120" style="stroke: black; stroke-width: 1;"></line>
<line x1="0" y1="-120" x2="36" y2="-120" opacity="0" style="stroke: black; stroke-width: 1;"></line>
<line x1="36" y1="45" x2="30" y2="45" opacity="0" style="stroke: black; stroke-width: 1;"></line>
<line x1="30" y1="30" x2="30" y2="-120" style="stroke: black; stroke-width: 1;"></line>
<line x1="30" y1="-120" x2="66" y2="-120" opacity="0" style="stroke: black; stroke-width: 1;"></line>
<line x1="66" y1="45" x2="60" y2="45" opacity="0" style="stroke: black; stroke-width: 1;"></line>
<line x1="60" y1="30" x2="60" y2="-120" style="stroke: black; stroke-width: 1;"></line>
<line x1="60" y1="-120" x2="96" y2="-120" opacity="0" style="stroke: black; stroke-width: 1;"></line>
<line x1="96" y1="45" x2="90" y2="45" opacity="0" style="stroke: black; stroke-width: 1;"></line>
<line x1="90" y1="30" x2="90" y2="-120" style="stroke: black; stroke-width: 1;"></line>
<line x1="90" y1="-120" x2="126" y2="-120" opacity="0" style="stroke: black; stroke-width: 1;"></line>
<line x1="126" y1="45" x2="120" y2="45" opacity="0" style="stroke: black; stroke-width: 1;"></line>
<line x1="120" y1="30" x2="120" y2="-120" style="stroke: black; stroke-width: 1;"></line>
<line x1="120" y1="-120" x2="156" y2="-120" opacity="0" style="stroke: black; stroke-width: 1;"></line>
<line x1="156" y1="45" x2="150" y2="45" opacity="0" style="stroke: black; stroke-width: 1;"></line>
<line x1="150" y1="30" x2="150" y2="-120" style="stroke: black; stroke-width: 1;"></line>
<line x1="150" y1="-120" x2="186" y2="-120" opacity="0" style="stroke: black; stroke-width: 1;"></line>
<line x1="186" y1="45" x2="180" y2="45" opacity="0" style="stroke: black; stroke-width: 1;"></line>
<line x1="180" y1="30" x2="180" y2="-120" style="stroke: black; stroke-width: 1;"></line>
<line x1="180" y1="-120" x2="216" y2="-120" opacity="0" style="stroke: black; stroke-width: 1;"></line>
<line x1="216" y1="45" x2="210" y2="45" opacity="0" style="stroke: black; stroke-width: 1;"></line>
<line x1="210" y1="30" x2="210" y2="-120" style="stroke: black; stroke-width: 1;"></line>
<line x1="210" y1="-120" x2="246" y2="-120" opacity="0" style="stroke: black; stroke-width: 1;"></line>
<line x1="246" y1="45" x2="240" y2="45" opacity="0" style="stroke: black; stroke-width: 1;"></line>
<line x1="240" y1="30" x2="240" y2="-120" style="stroke: black; stroke-width: 1;"></line>
<line x1="240" y1="-120" x2="276" y2="-120" opacity="0" style="stroke: black; stroke-width: 1;"></line>
<line x1="276" y1="45" x2="270" y2="45" opacity="0" style="stroke: black; stroke-width: 1;"></line>
<line x1="270" y1="30" x2="270" y2="-120" style="stroke: black; stroke-width: 1;"></line>
<line x1="270" y1="-120" x2="306" y2="-120" opacity="0" style="stroke: black; stroke-width: 1;"></line>
<line x1="306" y1="45" x2="300" y2="45" opacity="0" style="stroke: black; stroke-width: 1;"></line>
<line x1="300" y1="30" x2="300" y2="-120" style="stroke: black; stroke-width: 1;"></line>
<line x1="300" y1="-120" x2="336" y2="-120" opacity="0" style="stroke: black; stroke-width: 1;"></line>
<line x1="336" y1="45" x2="330" y2="45" opacity="0" style="stroke: black; stroke-width: 1;"></line>
<line x1="330" y1="30" x2="330" y2="-120" style="stroke: black; stroke-width: 1;"></line>
<line x1="330" y1="-120" x2="366" y2="-120" opacity="0" style="stroke: black; stroke-width: 1;"></line>
<line x1="366" y1="45" x2="360" y2="45" opacity="0" style="stroke: black; stroke-width: 1;"></line>
<line x1="360" y1="30" x2="360" y2="-120" style="stroke: black; stroke-width: 1;"></line>
<line x1="360" y1="-120" x2="-65" y2="-120" opacity="0" style="stroke: black; stroke-width: 1;"></line>
<line x1="-65" y1="31" x2="-60" y2="31" opacity="0" style="stroke: black; stroke-width: 1;"></line>
<line x1="-60" y1="30" x2="360" y2="30" style="stroke: black; stroke-width: 1;"></line>
<line x1="360" y1="30" x2="-65" y2="30" opacity="0" style="stroke: black; stroke-width: 1;"></line>
<line x1="-65" y1="1" x2="-60" y2="1" opacity="0" style="stroke: black; stroke-width: 1;"></line>
<line x1="-60" y1="0" x2="360" y2="0" style="stroke: black; stroke-width: 1;"></line>
<line x1="360" y1="0" x2="-65" y2="0" opacity="0" style="stroke: black; stroke-width: 1;"></line>
<line x1="-65" y1="-29" x2="-60" y2="-29" opacity="0" style="stroke: black; stroke-width: 1;"></line>
<line x1="-60" y1="-30" x2="360" y2="-30" style="stroke: black; stroke-width: 1;"></line>
<line x1="360" y1="-30" x2="-65" y2="-30" opacity="0" style="stroke: black; stroke-width: 1;"></line>
<line x1="-65" y1="-59" x2="-60" y2="-59" opacity="0" style="stroke: black; stroke-width: 1;"></line>
<line x1="-60" y1="-60" x2="360" y2="-60" style="stroke: black; stroke-width: 1;"></line>
<line x1="360" y1="-60" x2="-65" y2="-60" opacity="0" style="stroke: black; stroke-width: 1;"></line>
<line x1="-65" y1="-89" x2="-60" y2="-89" opacity="0" style="stroke: black; stroke-width: 1;"></line>
<line x1="-60" y1="-90" x2="360" y2="-90" style="stroke: black; stroke-width: 1;"></line>
<line x1="360" y1="-90" x2="-65" y2="-90" opacity="0" style="stroke: black; stroke-width: 1;"></line>
<line x1="-65" y1="-119" x2="-60" y2="-119" opacity="0" style="stroke: black; stroke-width: 1;"></line>
<line x1="-60" y1="-120" x2="360" y2="-120" style="stroke: black; stroke-width: 1;"></line>
<line x1="360" y1="-120" x2="0" y2="-120" opacity="0" style="stroke: black; stroke-width: 1;"></line>
</g>
<g transform="translate(420 150)">
<text x="-54" y="45" fill="black" text-anchor="end" style="display: block; font-family: Arial; font-size: 8px; font-style: normal;" display="block">-20</text>
<text x="-24" y="45" fill="black" text-anchor="end" style="display: block; font-family: Arial; font-size: 8px; font-style: normal;" display="block">-10</text>
<text x="6" y="45" fill="black" text-anchor="end" style="display: block; font-family: Arial; font-size: 8px; font-style: normal;" display="block">0</text>
<text x="36" y="45" fill="black" text-anchor="end" style="display: block; font-family: Arial; font-size: 8px; font-style: normal;" display="block">10</text>
<text x="66" y="45" fill="black" text-anchor="end" style="display: block; font-family: Arial; font-size: 8px; font-style: normal;" display="block">20</text>
<text x="96" y="45" fill="black" text-anchor="end" style="display: block; font-family: Arial; font-size: 8px; font-style: normal;" display="block">30</text>
<text x="126" y="45" fill="black" text-anchor="end" style="display: block; font-family: Arial; font-size: 8px; font-style: normal;" display="block">40</text>
<text x="156" y="45" fill="black" text-anchor="end" style="display: block; font-family: Arial; font-size: 8px; font-style: normal;" display="block">50</text>
<text x="186" y="45" fill="black" text-anchor="end" style="display: block; font-family: Arial; font-size: 8px; font-style: normal;" display="block">60</text>
<text x="216" y="45" fill="black" text-anchor="end" style="display: block; font-family: Arial; font-size: 8px; font-style: normal;" display="block">70</text>
<text x="246" y="45" fill="black" text-anchor="end" style="display: block; font-family: Arial; font-size: 8px; font-style: normal;" display="block">80</text>
<text x="276" y="45" fill="black" text-anchor="end" style="display: block; font-family: Arial; font-size: 8px; font-style: normal;" display="block">90</text>
<text x="306" y="45" fill="black" text-anchor="end" style="display: block; font-family: Arial; font-size: 8px; font-style: normal;" display="block">100</text>
<text x="336" y="45" fill="black" text-anchor="end" style="display: block; font-family: Arial; font-size: 8px; font-style: normal;" display="block">110</text>
<text x="366" y="45" fill="black" text-anchor="end" style="display: block; font-family: Arial; font-size: 8px; font-style: normal;" display="block">120</text>
<text x="-65" y="31" fill="black" text-anchor="end" style="display: block; font-family: Arial; font-size: 8px; font-style: normal;" display="block">-10</text>
<text x="-65" y="1" fill="black" text-anchor="end" style="display: block; font-family: Arial; font-size: 8px; font-style: normal;" display="block">0</text>
<text x="-65" y="-29" fill="black" text-anchor="end" style="display: block; font-family: Arial; font-size: 8px; font-style: normal;" display="block">10</text>
<text x="-65" y="-59" fill="black" text-anchor="end" style="display: block; font-family: Arial; font-size: 8px; font-style: normal;" display="block">20</text>
<text x="-65" y="-89" fill="black" text-anchor="end" style="display: block; font-family: Arial; font-size: 8px; font-style: normal;" display="block">30</text>
<text x="-65" y="-119" fill="black" text-anchor="end" style="display: block; font-family: Arial; font-size: 8px; font-style: normal;" display="block">40</text>
</g>
<g transform="translate(420 150)">
<polygon points="0,0 ,-5,-9 ,0,-7 ,5,-9 " stroke="black" fill="black" stroke-width="1" opacity="1" transform="translate(0.0,-0.0) rotate(-90,0,0)"></polygon>
</g>
<metadata><raw>from turtle import *

X = (-20, 120)
Y = (-10, 40)
TICK = 10
SCALE = 3
DRAW_COORD = False

turtle.set_defaults(
    canvwidth = 2 * SCALE * (X[1] - X[0]),
    canvheight = 2 * SCALE * (Y[1] - Y[0])
)
speed(100)
def move(x, y):
    penup()
    goto(x, y)
    pendown()
    
def write_tick(tick: int | float, is_int: bool = True):
    if is_int:
        write(int(tick), font=("Arial", 8, "normal"), align='right')
    else:
        write(tick, font=("Arial", 8, "normal"), align='right')

def grid(xmin: int, xmax: int, ymin: int, ymax: int, tick: int, scale: int = 1):
    old_pos = getturtle().pos()
    old_pensize = getturtle().pensize()
    pensize(1)
    old_color = getturtle().color()
    pencolor('lightgray')
    offset_x = len(str(max(xmax, xmin))) * 2
    offset_y = len(str(max(ymax, ymin))) * 2
    for xtick in range(scale * xmin, scale * xmax + 1, scale * tick):
        move(xtick + offset_x, scale * ymin - 15)
        pencolor('black')
        write_tick(xtick / scale, int(tick) == tick)
        # pencolor('lightgray')
        move(xtick, scale * ymin)
        goto(xtick, scale * ymax)

    for ytick in range(scale * ymin, scale *  ymax + 1, scale * tick):
        move(scale * xmin - 5, ytick - offset_y + 3)
        pencolor('black')
        write_tick(ytick / scale, int(tick) == tick)
        # pencolor('lightgray')
        move(scale * xmin, ytick)
        goto(scale * xmax, ytick)
    
    move(*old_pos)
    pensize(old_pensize)
    color(*old_color)

grid(*X, *Y, TICK, SCALE)

if DRAW_COORD:
    dim = 250
    # draw x axis
    backward(250)
    forward(500)
    left(150)
    forward(20)
    backward(20)
    right(300)
    forward(20)
    penup()
    goto(240, -20)
    write('x', font=("Arial", 24, "normal"))
    
    
    # draw y axis
    home()
    left(90)
    pendown()
    backward(250)
    forward(500)
    left(150)
    forward(20)
    backward(20)
    right(300)
    forward(20)
    penup()
    goto(-30, 240)
    write('y', font=("Arial", 24, "normal"),)
    home()
</raw></metadata></svg>