<svg id="Layer_1" data-name="Layer 1" xmlns="http://www.w3.org/2000/svg" viewBox="0 0 416.7 170.84"><defs><style>.cls-1{fill:#aac0c8;}.cls-10,.cls-11,.cls-12,.cls-2,.cls-4{fill:none;}.cls-2{stroke:#14bf96;}.cls-10,.cls-11,.cls-12,.cls-2,.cls-4,.cls-7{stroke-miterlimit:10;}.cls-2,.cls-4{stroke-width:2px;}.cls-3{fill:#14bf96;}.cls-4{stroke:#aac0c8;}.cls-5{fill:#10a7e3;}.cls-6{fill:#93dbf7;}.cls-7,.cls-9{fill:#fff;}.cls-11,.cls-7{stroke:#10a7e3;}.cls-7{stroke-width:0.29px;}.cls-8{fill:#0a2a66;}.cls-10{stroke:#37c5fd;}.cls-10,.cls-11,.cls-12{stroke-linecap:round;}.cls-10,.cls-12{stroke-width:2.08px;}.cls-11{stroke-width:3.38px;}.cls-12{stroke:#c3eefe;}.cls-13{fill:#37c5fd;}.cls-14{fill:#65d0fa;}.cls-15{fill:#ccfbf0;}</style></defs><title>internet diagram</title><line class="cls-1" x1="317.78" y1="84.3" x2="360.78" y2="85.31"/><line class="cls-2" x1="317.78" y1="84.3" x2="354.45" y2="85.16"/><polygon class="cls-3" points="351.38 89.02 353.15 85.13 351.57 81.17 360.78 85.31 351.38 89.02"/><line class="cls-4" x1="167.6" y1="19.04" x2="256.23" y2="19.04"/><line class="cls-4" x1="312.95" y1="94.97" x2="270.85" y2="144.79"/><line class="cls-4" x1="261.94" y1="93.97" x2="261.94" y2="143.62"/><line class="cls-1" x1="269.54" y1="84.24" x2="299.9" y2="83.91"/><line class="cls-2" x1="269.54" y1="84.24" x2="294.76" y2="83.97"/><polygon class="cls-3" points="292.38 87.18 293.7 83.98 292.31 80.81 299.9 83.91 292.38 87.18"/><line class="cls-4" x1="271.21" y1="28.68" x2="309.49" y2="75.78"/><line class="cls-1" x1="217.06" y1="112.73" x2="246.82" y2="95.54"/><line class="cls-2" x1="217.06" y1="112.73" x2="242.38" y2="98.11"/><polygon class="cls-3" points="241.88 102.08 241.46 98.64 238.69 96.56 246.82 95.55 241.88 102.08"/><line class="cls-4" x1="167.22" y1="90.34" x2="201.23" y2="116.89"/><line class="cls-1" x1="167.11" y1="142.84" x2="192.97" y2="127.68"/><line class="cls-2" x1="167.11" y1="142.84" x2="188.55" y2="130.27"/><polygon class="cls-3" points="188.07 134.24 187.63 130.81 184.85 128.75 192.97 127.68 188.07 134.24"/><line class="cls-1" x1="109.09" y1="91.37" x2="143.34" y2="133.5"/><line class="cls-2" x1="109.09" y1="91.37" x2="140.1" y2="129.52"/><polygon class="cls-3" points="136.1 129.65 139.43 128.69 141.04 125.64 143.34 133.5 136.1 129.65"/><line class="cls-4" x1="255.31" y1="30.56" x2="222.91" y2="45.3"/><line class="cls-4" x1="198.96" y1="59.01" x2="166.56" y2="73.76"/><line class="cls-4" x1="158.84" y1="32.88" x2="158.84" y2="70.84"/><line class="cls-4" x1="113.54" y1="83.03" x2="151.51" y2="83.03"/><line class="cls-1" x1="57.22" y1="82.74" x2="85.36" y2="82.42"/><line class="cls-2" x1="57.22" y1="82.74" x2="80.22" y2="82.48"/><polygon class="cls-3" points="77.84 85.69 79.16 82.49 77.77 79.32 85.36 82.42 77.84 85.69"/><path class="cls-5" d="M120.22,85.23h0l0-2.81H85.36v2.69a17.43,17.43,0,1,0,34.86.12Z"/><circle class="cls-6" cx="102.75" cy="81.57" r="17.47"/><circle class="cls-6" cx="102.75" cy="81.57" r="7.57"/><polygon class="cls-7" points="102.17 79.75 104.78 75.42 102.44 76.2 99.38 66.94 96.67 67.84 99.73 77.09 97.48 77.84 102.17 79.75"/><polygon class="cls-7" points="108.78 95.2 105.72 85.94 107.97 85.2 103.29 83.28 100.67 87.62 103.01 86.84 106.08 96.09 108.78 95.2"/><polygon class="cls-7" points="116.86 76.91 112.53 74.3 113.3 76.63 104.05 79.7 104.95 82.41 114.2 79.34 114.95 81.59 116.86 76.91"/><polygon class="cls-7" points="100.49 80.73 91.24 83.8 90.5 81.55 88.58 86.23 92.91 88.84 92.14 86.51 101.39 83.44 100.49 80.73"/><rect class="cls-8" y="46.88" width="61.01" height="61.01" rx="1.3" ry="1.3"/><rect class="cls-9" x="2.62" y="49.5" width="55.77" height="34.32"/><line class="cls-10" x1="17.79" y1="57.77" x2="24.78" y2="57.77"/><line class="cls-11" x1="13.24" y1="57.77" x2="13.24" y2="57.77"/><line class="cls-10" x1="17.79" y1="65.21" x2="24.78" y2="65.21"/><line class="cls-11" x1="13.24" y1="65.21" x2="13.24" y2="65.21"/><line class="cls-10" x1="17.79" y1="72.66" x2="24.78" y2="72.66"/><line class="cls-11" x1="13.24" y1="72.66" x2="13.24" y2="72.66"/><line class="cls-12" x1="28.97" y1="57.77" x2="48.61" y2="57.77"/><line class="cls-12" x1="28.97" y1="61.49" x2="44.3" y2="61.49"/><line class="cls-12" x1="28.97" y1="68.93" x2="44.3" y2="68.93"/><line class="cls-12" x1="28.97" y1="76.38" x2="44.3" y2="76.38"/><line class="cls-12" x1="28.97" y1="65.21" x2="48.61" y2="65.21"/><line class="cls-12" x1="28.97" y1="72.66" x2="48.61" y2="72.66"/><path class="cls-13" d="M0,83.82H61a0,0,0,0,1,0,0v26.49a1.87,1.87,0,0,1-1.87,1.87H1.87A1.87,1.87,0,0,1,0,110.31V83.82a0,0,0,0,1,0,0Z"/><rect class="cls-5" x="2.62" y="86.91" width="4.05" height="4.05" rx="0.52" ry="0.52"/><rect class="cls-5" x="7.79" y="86.91" width="4.05" height="4.05" rx="0.52" ry="0.52"/><rect class="cls-5" x="12.97" y="86.91" width="4.05" height="4.05" rx="0.52" ry="0.52"/><rect class="cls-5" x="18.14" y="86.91" width="4.05" height="4.05" rx="0.52" ry="0.52"/><rect class="cls-5" x="23.31" y="86.91" width="4.05" height="4.05" rx="0.52" ry="0.52"/><rect class="cls-5" x="28.48" y="86.91" width="4.05" height="4.05" rx="0.52" ry="0.52"/><rect class="cls-5" x="33.65" y="86.91" width="4.05" height="4.05" rx="0.52" ry="0.52"/><rect class="cls-5" x="38.82" y="86.91" width="4.05" height="4.05" rx="0.52" ry="0.52"/><rect class="cls-5" x="44" y="86.91" width="4.05" height="4.05" rx="0.52" ry="0.52"/><rect class="cls-5" x="49.17" y="86.91" width="4.05" height="4.05" rx="0.52" ry="0.52"/><rect class="cls-5" x="54.34" y="86.91" width="4.05" height="4.05" rx="0.52" ry="0.52"/><rect class="cls-5" x="7.79" y="92.4" width="4.05" height="4.05" rx="0.52" ry="0.52"/><rect class="cls-5" x="12.97" y="92.4" width="4.05" height="4.05" rx="0.52" ry="0.52"/><rect class="cls-5" x="18.14" y="92.4" width="4.05" height="4.05" rx="0.52" ry="0.52"/><rect class="cls-5" x="23.31" y="92.4" width="4.05" height="4.05" rx="0.52" ry="0.52"/><rect class="cls-5" x="28.48" y="92.4" width="4.05" height="4.05" rx="0.52" ry="0.52"/><rect class="cls-5" x="33.65" y="92.4" width="4.05" height="4.05" rx="0.52" ry="0.52"/><rect class="cls-5" x="38.82" y="92.4" width="4.05" height="4.05" rx="0.52" ry="0.52"/><rect class="cls-5" x="44" y="92.4" width="4.05" height="4.05" rx="0.52" ry="0.52"/><rect class="cls-5" x="49.17" y="92.4" width="4.05" height="4.05" rx="0.52" ry="0.52"/><rect class="cls-5" x="2.62" y="97.88" width="4.05" height="4.05" rx="0.52" ry="0.52"/><rect class="cls-5" x="7.79" y="97.88" width="4.05" height="4.05" rx="0.52" ry="0.52"/><rect class="cls-5" x="12.97" y="97.88" width="4.05" height="4.05" rx="0.52" ry="0.52"/><rect class="cls-5" x="18.14" y="97.88" width="4.05" height="4.05" rx="0.52" ry="0.52"/><rect class="cls-5" x="23.31" y="97.88" width="4.05" height="4.05" rx="0.52" ry="0.52"/><rect class="cls-5" x="28.48" y="97.88" width="4.05" height="4.05" rx="0.52" ry="0.52"/><rect class="cls-5" x="33.65" y="97.88" width="4.05" height="4.05" rx="0.52" ry="0.52"/><rect class="cls-5" x="38.82" y="97.88" width="4.05" height="4.05" rx="0.52" ry="0.52"/><rect class="cls-5" x="44" y="97.88" width="4.05" height="4.05" rx="0.52" ry="0.52"/><rect class="cls-5" x="49.17" y="97.88" width="4.05" height="4.05" rx="0.52" ry="0.52"/><rect class="cls-5" x="54.34" y="97.88" width="4.05" height="4.05" rx="0.52" ry="0.52"/><rect class="cls-5" x="19.07" y="97.88" width="22.88" height="4.05" rx="0.52" ry="0.52"/><rect class="cls-14" x="22.4" y="103.6" width="15.25" height="6.43" rx="1.07" ry="1.07"/><rect class="cls-13" x="361.34" y="49.68" width="55.03" height="60.96" rx="1.29" ry="1.29" transform="translate(-0.89 4.47) rotate(-0.66)"/><rect class="cls-8" x="364.13" y="62.81" width="48.68" height="4.23" transform="translate(-0.72 4.46) rotate(-0.66)"/><rect class="cls-8" x="364.23" y="71.8" width="48.68" height="4.23" transform="translate(-0.82 4.46) rotate(-0.66)"/><rect class="cls-8" x="364.76" y="80.79" width="48.68" height="4.23" transform="translate(-0.93 4.47) rotate(-0.66)"/><rect class="cls-8" x="364.86" y="89.79" width="48.68" height="4.23" transform="translate(-1.03 4.47) rotate(-0.66)"/><rect class="cls-8" x="364.96" y="98.78" width="48.68" height="4.23" transform="translate(-1.13 4.47) rotate(-0.66)"/><circle class="cls-15" cx="409.31" cy="55.37" r="2.54"/><path class="cls-5" d="M173,150.44h0l0-2.81H138.16v2.69a17.44,17.44,0,1,0,34.87.12Z"/><circle class="cls-6" cx="155.56" cy="146.78" r="17.47"/><circle class="cls-6" cx="155.56" cy="146.78" r="7.57"/><polygon class="cls-7" points="154.97 144.96 157.59 140.63 155.25 141.41 152.19 132.16 149.48 133.05 152.54 142.3 150.29 143.05 154.97 144.96"/><polygon class="cls-7" points="161.59 160.41 158.53 151.16 160.78 150.41 156.1 148.5 153.48 152.83 155.82 152.05 158.88 161.3 161.59 160.41"/><polygon class="cls-7" points="169.67 142.12 165.34 139.5 166.11 141.84 156.86 144.91 157.76 147.62 167.01 144.55 167.75 146.8 169.67 142.12"/><polygon class="cls-7" points="153.3 145.95 144.05 149.01 143.3 146.76 141.39 151.44 145.72 154.06 144.95 151.72 154.2 148.66 153.3 145.95"/><path class="cls-5" d="M174.33,84.68h0l0-2.81H139.47v2.69a17.43,17.43,0,1,0,34.86.12Z"/><circle class="cls-6" cx="156.86" cy="81.03" r="17.47"/><circle class="cls-6" cx="156.86" cy="81.03" r="7.57"/><polygon class="cls-7" points="156.27 79.2 158.89 74.87 156.55 75.65 153.49 66.4 150.78 67.29 153.84 76.55 151.59 77.29 156.27 79.2"/><polygon class="cls-7" points="162.89 94.65 159.83 85.4 162.08 84.65 157.4 82.74 154.78 87.07 157.12 86.29 160.18 95.55 162.89 94.65"/><polygon class="cls-7" points="170.97 76.36 166.64 73.75 167.41 76.08 158.16 79.15 159.06 81.86 168.31 78.79 169.06 81.05 170.97 76.36"/><polygon class="cls-7" points="154.6 80.19 145.35 83.25 144.6 81 142.69 85.68 147.02 88.3 146.25 85.96 155.5 82.89 154.6 80.19"/><path class="cls-5" d="M175.06,21.12h0l0-2.8H140.19V21a17.44,17.44,0,1,0,34.87.11Z"/><circle class="cls-6" cx="157.59" cy="17.47" r="17.47"/><circle class="cls-6" cx="157.59" cy="17.47" r="7.57"/><polygon class="cls-7" points="157 15.65 159.62 11.32 157.28 12.09 154.22 2.84 151.51 3.74 154.57 12.99 152.32 13.73 157 15.65"/><polygon class="cls-7" points="163.62 31.09 160.56 21.84 162.81 21.09 158.13 19.18 155.51 23.51 157.85 22.74 160.91 31.99 163.62 31.09"/><polygon class="cls-7" points="171.7 12.8 167.37 10.19 168.14 12.53 158.89 15.59 159.79 18.3 169.04 15.24 169.78 17.49 171.7 12.8"/><polygon class="cls-7" points="155.33 16.63 146.08 19.7 145.33 17.44 143.42 22.13 147.75 24.74 146.98 22.4 156.23 19.34 155.33 16.63"/><path class="cls-5" d="M226.27,120.55h0l0-2.81H191.41v2.69a17.43,17.43,0,1,0,34.86.12Z"/><circle class="cls-6" cx="208.8" cy="116.89" r="17.47"/><circle class="cls-6" cx="208.8" cy="116.89" r="7.57"/><polygon class="cls-7" points="208.22 115.07 210.83 110.74 208.5 111.52 205.43 102.27 202.72 103.16 205.79 112.41 203.53 113.16 208.22 115.07"/><polygon class="cls-7" points="214.84 130.52 211.77 121.27 214.02 120.52 209.34 118.61 206.72 122.94 209.06 122.16 212.13 131.41 214.84 130.52"/><polygon class="cls-7" points="222.91 112.23 218.58 109.61 219.35 111.95 210.1 115.02 211 117.72 220.25 114.66 221 116.91 222.91 112.23"/><polygon class="cls-7" points="206.54 116.06 197.29 119.12 196.55 116.87 194.63 121.55 198.96 124.17 198.19 121.83 207.44 118.76 206.54 116.06"/><path class="cls-5" d="M227,57h0l0-2.8H192.14v2.69A17.43,17.43,0,1,0,227,57Z"/><circle class="cls-6" cx="209.53" cy="53.34" r="17.47"/><circle class="cls-6" cx="209.53" cy="53.34" r="7.57"/><polygon class="cls-7" points="208.95 51.52 211.56 47.19 209.22 47.96 206.16 38.71 203.45 39.61 206.51 48.86 204.26 49.6 208.95 51.52"/><polygon class="cls-7" points="215.56 66.96 212.5 57.71 214.75 56.96 210.07 55.05 207.45 59.38 209.79 58.61 212.85 67.86 215.56 66.96"/><polygon class="cls-7" points="223.64 48.67 219.31 46.06 220.08 48.4 210.83 51.46 211.73 54.17 220.98 51.1 221.73 53.36 223.64 48.67"/><polygon class="cls-7" points="207.27 52.5 198.02 55.56 197.28 53.31 195.36 57.99 199.69 60.61 198.92 58.27 208.17 55.21 207.27 52.5"/><path class="cls-5" d="M278.94,153.43h0v-2.81H244.08v2.69a17.43,17.43,0,1,0,34.86.12Z"/><circle class="cls-6" cx="261.47" cy="149.77" r="17.47"/><circle class="cls-6" cx="261.47" cy="149.77" r="7.57"/><polygon class="cls-7" points="260.89 147.95 263.5 143.62 261.17 144.4 258.1 135.15 255.39 136.04 258.46 145.29 256.2 146.04 260.89 147.95"/><polygon class="cls-7" points="267.51 163.4 264.44 154.15 266.7 153.4 262.01 151.49 259.4 155.82 261.73 155.04 264.8 164.29 267.51 163.4"/><polygon class="cls-7" points="275.58 145.11 271.25 142.5 272.03 144.83 262.77 147.9 263.67 150.6 272.92 147.54 273.67 149.79 275.58 145.11"/><polygon class="cls-7" points="259.21 148.94 249.96 152 249.22 149.75 247.3 154.43 251.64 157.04 250.86 154.71 260.11 151.64 259.21 148.94"/><path class="cls-5" d="M280.24,87.67h0V84.86H245.38v2.69a17.43,17.43,0,1,0,34.86.12Z"/><circle class="cls-6" cx="262.77" cy="84.02" r="17.47"/><circle class="cls-6" cx="262.77" cy="84.02" r="7.57"/><polygon class="cls-7" points="262.19 82.19 264.8 77.86 262.47 78.64 259.4 69.39 256.69 70.28 259.76 79.53 257.51 80.28 262.19 82.19"/><polygon class="cls-7" points="268.81 97.64 265.74 88.39 268 87.64 263.31 85.73 260.7 90.06 263.03 89.28 266.1 98.53 268.81 97.64"/><polygon class="cls-7" points="276.88 79.35 272.55 76.74 273.33 79.07 264.07 82.14 264.97 84.85 274.22 81.78 274.97 84.03 276.88 79.35"/><polygon class="cls-7" points="260.52 83.18 251.26 86.24 250.52 83.99 248.6 88.67 252.94 91.29 252.16 88.95 261.41 85.89 260.52 83.18"/><path class="cls-5" d="M281,24.11h0l0-2.8H246.11V24a17.43,17.43,0,1,0,34.86.11Z"/><circle class="cls-6" cx="263.5" cy="20.46" r="17.47"/><circle class="cls-6" cx="263.5" cy="20.46" r="7.57"/><polygon class="cls-7" points="262.92 18.64 265.53 14.31 263.2 15.08 260.13 5.83 257.42 6.73 260.49 15.98 258.23 16.73 262.92 18.64"/><polygon class="cls-7" points="269.54 34.08 266.47 24.83 268.73 24.08 264.04 22.17 261.43 26.5 263.76 25.73 266.83 34.98 269.54 34.08"/><polygon class="cls-7" points="277.61 15.79 273.28 13.18 274.06 15.52 264.8 18.58 265.7 21.29 274.95 18.23 275.7 20.48 277.61 15.79"/><polygon class="cls-7" points="261.25 19.62 251.99 22.68 251.25 20.43 249.33 25.11 253.66 27.73 252.89 25.39 262.14 22.33 261.25 19.62"/><path class="cls-5" d="M334.76,86.72h0l0-2.81H299.9V86.6a17.43,17.43,0,1,0,34.86.12Z"/><circle class="cls-6" cx="317.29" cy="83.06" r="17.47"/><circle class="cls-6" cx="317.29" cy="83.06" r="7.57"/><polygon class="cls-7" points="316.7 81.24 319.32 76.91 316.98 77.69 313.92 68.44 311.21 69.33 314.27 78.58 312.02 79.33 316.7 81.24"/><polygon class="cls-7" points="323.32 96.69 320.26 87.44 322.51 86.69 317.83 84.78 315.21 89.11 317.55 88.33 320.62 97.58 323.32 96.69"/><polygon class="cls-7" points="331.4 78.4 327.07 75.78 327.84 78.12 318.59 81.19 319.49 83.89 328.74 80.83 329.49 83.08 331.4 78.4"/><polygon class="cls-7" points="315.03 82.22 305.78 85.29 305.04 83.04 303.12 87.72 307.45 90.33 306.68 88 315.93 84.93 315.03 82.22"/></svg>