<?xml version="1.0" encoding="UTF-8" standalone="no"?>
<!DOCTYPE svg PUBLIC "-//W3C//DTD SVG 1.1//EN" "http://www.w3.org/Graphics/SVG/1.1/DTD/svg11.dtd">
<svg width="460px" height="200px" version="1.1" xmlns="http://www.w3.org/2000/svg" xmlns:xlink="http://www.w3.org/1999/xlink" xml:space="preserve" xmlns:serif="http://www.serif.com/" style="fill-rule:evenodd;clip-rule:evenodd;stroke-linecap:round;stroke-linejoin:round;">
    <g id="Calque-1" serif:id="Calque 1">
        <g id="Alice">
            <path d="M89.521,152.636C88.162,136.119 85.891,106.49 86.355,98.177C87.723,63.737 72.615,57.708 63.158,56.459C52.624,55.067 35.856,59.276 31.752,80.331C28.535,96.831 30.36,136.319 31.3,152.636L89.521,152.636Z" style="fill:rgb(183,34,61);fill-rule:nonzero;"/>
            <path d="M40.772,91.187C40.423,90.265 40.484,89.39 39.842,88.548C39.258,87.781 38.345,87.245 37.383,87.224C34.316,87.159 33.951,90.901 35.109,92.945C35.687,93.967 36.547,94.815 37.087,95.858C38.001,97.623 38.279,100.188 40.744,100.462C42.177,100.622 42.956,100.113 43.313,99.294C43.992,97.734 43.137,95.047 42.347,93.691C41.869,92.874 41.106,92.072 40.772,91.187Z" style="fill:rgb(226,180,118);fill-rule:nonzero;"/>
            <path d="M46.798,102.099C47.759,108.127 49.03,115.451 46.988,120.686C44.656,126.664 41.708,127.861 36.363,129.927C38.854,133.322 41.198,136.85 44.124,139.876C47.051,142.904 50.655,145.443 54.774,146.311C56.034,146.576 57.344,146.64 58.637,146.543L58.637,101.948C54.027,101.808 46.898,101.679 46.798,102.099Z" style="fill:rgb(211,169,101);fill-rule:nonzero;"/>
            <path d="M42.23,70.979C37.052,78.183 37.213,88.22 40.337,96.209C42.858,102.655 50.817,113.69 58.637,113.457L58.637,62.93C52.44,62.652 45.809,66.001 42.23,70.979Z" style="fill:rgb(226,180,118);fill-rule:nonzero;"/>
            <path d="M58.633,156.218L58.633,144.007C46.37,143.037 40.716,135.857 36.363,129.932C23.678,134.715 21.432,135.727 17.175,142.102C16.827,142.626 16.541,143.186 16.321,143.775C15.68,145.5 14.362,149.58 13.33,156.218L58.633,156.218Z" style="fill:rgb(240,102,166);fill-rule:nonzero;"/>
            <path d="M79.893,87.224C78.93,87.245 78.017,87.781 77.433,88.548C76.791,89.39 76.851,90.265 76.504,91.187C76.169,92.072 75.405,92.874 74.927,93.691C74.137,95.047 73.281,97.734 73.962,99.294C74.317,100.113 75.098,100.622 76.531,100.462C78.997,100.188 79.273,97.623 80.188,95.858C80.729,94.815 81.587,93.967 82.165,92.945C83.322,90.901 82.958,87.159 79.893,87.224Z" style="fill:rgb(236,188,131);fill-rule:nonzero;"/>
            <path d="M69.954,120.686C67.912,115.451 69.183,108.127 70.144,102.099C70.042,101.679 62.913,101.808 58.304,101.948L58.304,146.543C59.598,146.64 60.906,146.576 62.166,146.311C66.286,145.443 69.891,142.904 72.816,139.876C75.743,136.85 78.087,133.322 80.577,129.927C75.234,127.861 72.286,126.664 69.954,120.686Z" style="fill:rgb(226,180,118);fill-rule:nonzero;"/>
            <path d="M58.637,62.93L58.492,113.457C66.313,113.69 74.418,102.655 76.937,96.209C80.059,88.22 80.223,78.183 75.044,70.979C71.466,66.001 64.836,62.652 58.637,62.93Z" style="fill:rgb(236,188,131);fill-rule:nonzero;"/>
            <path d="M103.611,156.218C102.58,149.58 101.261,145.5 100.619,143.775C100.4,143.186 100.115,142.626 99.765,142.102C95.509,135.727 93.262,134.715 80.579,129.932C76.224,135.857 70.57,143.037 58.309,144.007L58.309,156.218L103.611,156.218Z" style="fill:rgb(230,79,155);fill-rule:nonzero;"/>
            <path d="M78.623,67.901C78.027,67.424 68.393,61.358 67.679,61.238C66.965,61.119 50.311,61.477 49.834,61.954C49.359,62.429 38.413,70.16 37.581,70.28L37.581,86.695L39.033,90.502C39.033,90.502 38.295,84.079 40.198,79.677C42.102,75.276 48.387,70.398 48.387,70.398C48.387,70.398 52.333,75.395 60.541,76.942C57.805,74.801 54.949,71.112 54.949,71.112C54.949,71.112 62.326,76.942 64.942,77.892C64.348,76.229 61.967,71.708 61.967,71.708C61.967,71.708 69.224,76.229 70.652,80.451C71.842,79.441 68.888,73.61 68.888,73.61C68.888,73.61 78.197,81.826 77.195,89.866C79.505,86.33 81.954,85.774 80.911,82.77C80.792,82.433 79.217,68.377 78.623,67.901Z" style="fill:rgb(183,34,61);fill-rule:nonzero;"/>
            <path d="M40.711,100.351C39.365,100.351 38.274,101.441 38.274,102.787C38.274,104.133 39.365,105.223 40.711,105.223C42.056,105.223 43.147,104.133 43.147,102.787C43.147,101.441 42.056,100.351 40.711,100.351Z" style="fill:rgb(165,216,232);fill-rule:nonzero;"/>
            <path d="M76.151,100.491C74.805,100.491 73.715,101.581 73.715,102.927C73.715,104.272 74.805,105.364 76.151,105.364C77.495,105.364 78.587,104.272 78.587,102.927C78.587,101.581 77.495,100.491 76.151,100.491Z" style="fill:rgb(165,216,232);fill-rule:nonzero;"/>
        </g>
        <text x="45.723px" y="171.343px" style="font-family:'ArialMT', 'Arial', sans-serif;font-size:12px;">Alice</text>
        <g id="Bob">
            <path d="M391.464,156.218C390.599,155.451 389.691,154.676 388.709,153.904C385.302,151.214 382.017,149.183 379.142,147.658C379.142,147.658 384.324,140.218 383.739,140.218L372.902,142.04C372.902,142.04 372.232,141.679 372.631,133.707C373.971,127.684 376.952,124.113 379.317,122.136C378.931,122.266 364.982,127.957 357.613,130.247C353.845,131.416 349.854,132.78 348.117,136.689C347.434,138.226 347.502,140.552 347.307,142.207C346.761,146.858 346.471,151.541 346.235,156.218L391.464,156.218Z" style="fill:rgb(113,101,82);fill-rule:nonzero;"/>
            <path d="M396.814,155.427C396.814,155.427 378.784,134.168 381.442,125.797C382.604,122.497 382.66,119.945 382.66,119.945C382.66,119.945 382.206,120.126 381.498,120.536C380.884,120.879 380.02,121.429 379.048,122.245C379.048,122.245 379.042,122.245 379.036,122.252C376.635,124.284 373.604,127.955 372.243,134.147C371.838,142.343 372.52,142.714 372.52,142.714L383.528,140.841C382.554,142.687 378.204,148.468 378.204,148.468C381.125,150.036 385.117,152.144 388.578,154.909C389.127,155.347 389.62,155.782 390.131,156.218L396.536,156.218C396.524,156.204 396.506,156.182 396.492,156.166L396.814,155.427Z" style="fill:rgb(135,121,96);fill-rule:nonzero;"/>
            <path d="M441.181,156.218C441.025,154.14 440.863,152.052 440.677,149.937C440.161,144.094 440.206,136.972 436.392,132.08C433.62,128.525 428.882,127.744 424.81,126.502C419.956,125.022 415.102,123.54 410.246,122.059C412.957,124.477 415.939,129.638 416.013,140.677C412.873,141.284 407.525,141.655 405.989,141.029C407.324,142.162 411.493,145.993 411.495,145.994C411.309,145.82 407.273,148.658 407.067,148.873C404.207,151.837 397.479,151.784 395.55,155.427C395.485,155.552 395.393,155.844 395.289,156.218L441.181,156.218Z" style="fill:rgb(135,121,96);fill-rule:nonzero;"/>
            <path d="M382.336,111.573C382.32,111.579 382.304,111.579 382.299,111.584C382.282,111.59 382.273,111.59 382.273,111.59C382.273,111.59 382.4,112.308 382.523,113.444C382.852,116.383 383.143,122.155 381.135,125.797C383.11,130.209 384.273,134.419 393.492,134.701L393.492,109.72C388.249,110.29 382.967,111.436 382.336,111.573Z" style="fill:rgb(237,169,130);fill-rule:nonzero;"/>
            <path d="M404.167,112.387C404.15,112.2 404.141,112.009 404.135,111.823C404.124,111.743 404.124,111.67 404.118,111.59C404.021,109.157 398.61,109.129 393.159,109.72L393.159,134.701C394.488,134.741 395.985,134.701 397.677,134.566C403.522,133.237 406.711,130.313 408.573,124.734C406.309,122.093 404.517,117.095 404.167,112.387Z" style="fill:rgb(223,159,122);fill-rule:nonzero;"/>
            <path d="M382.336,111.573C382.32,111.579 382.304,111.579 382.299,111.584C382.282,111.59 382.273,111.59 382.273,111.59C382.273,111.59 388.029,119.865 393.492,120.209L393.492,109.72C388.249,110.29 382.967,111.436 382.336,111.573Z" style="fill:rgb(206,145,116);fill-rule:nonzero;"/>
            <path d="M404.452,111.59C404.354,109.157 398.943,109.129 393.492,109.72L393.492,120.209C393.714,120.223 393.936,120.23 394.157,120.216C397.856,119.807 402.113,115.544 404.468,111.823C404.457,111.743 404.457,111.67 404.452,111.59Z" style="fill:rgb(192,135,108);fill-rule:nonzero;"/>
            <path d="M400.268,133.502C397.52,134.533 395.046,134.443 393.492,134.237C392.991,134.17 392.584,134.093 392.296,134.034C385.435,132.658 381.857,126.998 381.135,125.797C379.206,131.873 388.341,144.743 393.492,151.34C395.436,153.829 396.814,155.427 396.814,155.427L404.553,141.068C404.702,140.791 404.845,140.514 404.989,140.232C407.385,135.491 408.703,130.266 408.746,124.951C408.338,125.982 406.067,131.334 400.268,133.502Z" style="fill:rgb(202,217,224);fill-rule:nonzero;"/>
            <path d="M413.085,146.266C413.085,146.266 408.784,143.504 407.035,141.944C409.185,142.276 413.629,141.92 416.393,141.386C416.328,131.526 413.992,126.269 411.563,123.463C411.125,122.919 410.684,122.448 410.246,122.059C407.971,120.03 405.878,119.945 405.878,119.945C405.878,119.945 406.449,121.926 408.113,124.829C408.107,124.87 408.413,124.915 408.413,124.951C408.37,130.266 407.052,135.491 404.656,140.232C404.511,140.514 404.368,140.791 404.22,141.068L394.477,154.719C394.249,155.19 394.025,155.694 393.804,156.218L397.714,156.218C402.46,151.443 412.991,146.336 413.085,146.266Z" style="fill:rgb(113,101,82);fill-rule:nonzero;"/>
            <path d="M393.55,56.218C393.532,56.219 393.511,56.222 393.492,56.222L393.492,56.24C393.511,56.234 393.531,56.226 393.55,56.218Z" style="fill:rgb(117,77,42);fill-rule:nonzero;"/>
            <path d="M407.435,61.702C406.181,60.954 404.836,60.343 403.423,59.901C400.093,58.862 396.657,57.504 393.159,57.469L393.159,75.825C393.26,75.827 393.354,75.836 393.456,75.836C395.45,75.841 397.15,76.27 398.957,77.095C399.718,77.445 400.531,78.084 401.354,78.073C401.127,77.727 400.845,77.376 400.525,77.095C401.753,77.951 403.391,78.487 404.628,79.337C406.584,80.689 408.706,82.973 409.3,85.34C410.049,88.304 408.535,91.445 409.242,94.459C409.46,93.651 410.486,92.175 411.267,91.462C410.795,91.983 412.606,91.844 412.681,91.823C413.107,91.701 413.377,91.504 413.578,91.244C413.898,90.829 414.027,90.261 414.26,89.586C415.068,87.284 415.609,84.833 415.535,82.384C415.631,82.495 415.849,82.74 416.071,83.027C416.466,83.526 416.896,84.154 416.817,84.43C419.404,75.783 415.003,66.204 407.435,61.702Z" style="fill:rgb(57,59,66);fill-rule:nonzero;"/>
            <path d="M390.282,57.85C391.285,57.191 392.366,56.652 393.492,56.24L393.492,56.222C391.285,56.312 389.093,56.701 386.997,57.382C385.823,57.765 384.664,58.248 383.686,59.004C382.453,59.954 381.661,61.452 381.182,62.909C380.163,62.463 377.723,63.037 376.666,63.494C374.018,64.636 372.748,66.89 370.963,68.964C370.271,69.772 369.702,70.509 369.261,71.286C368.592,72.44 368.188,73.672 368.013,75.336C367.799,77.334 367.921,79.354 368.043,81.357C368.359,80.326 368.852,79.312 369.548,78.487C369.596,79.401 369.049,80.098 368.857,80.959C368.618,82.059 368.804,83.287 369.027,84.37C369.489,86.615 370.489,88.847 371.913,90.648C372.11,90.902 372.356,91.158 372.616,91.419C372.832,91.632 373.061,91.844 373.3,92.062C374.629,93.284 376.186,94.619 376.352,96.127C376.006,93.002 375.028,90.25 375.22,87.305C375.246,86.88 375.304,86.45 375.384,86.014C375.511,85.345 375.703,84.664 375.991,83.962C376.118,84.351 376.352,84.759 376.459,85.148C376.611,81.245 378.791,80.061 380.991,77.293C381.985,76.043 383.361,75.087 383.67,73.423C384.807,74.879 385.945,74.352 387.498,74.697C389.596,75.165 391.325,75.768 393.492,75.825L393.492,57.469C392.428,57.458 391.357,57.568 390.282,57.85Z" style="fill:rgb(65,66,68);fill-rule:nonzero;"/>
            <path d="M411.603,91.201C410.6,91.788 409.566,93.265 409.239,94.461C408.538,91.447 410.048,88.305 409.299,85.341C408.703,82.975 406.582,80.687 404.629,79.34C403.391,78.486 401.756,77.952 400.527,77.094C400.846,77.379 401.124,77.73 401.353,78.075C400.529,78.086 399.717,77.447 398.954,77.098C397.15,76.27 395.449,75.84 393.454,75.836C393.353,75.836 393.259,75.827 393.159,75.826L393.159,117.568C395.907,117.55 396.152,116.995 397.368,116.104C398.825,115.034 400.395,114.307 401.984,113.441C402.663,113.072 403.179,112.665 403.618,112.197C404.198,111.58 404.635,110.855 405.092,109.94C405.561,109.007 407.367,105.114 408.089,104.2C408.041,104.262 408.979,104.532 409.064,104.54C409.441,104.576 409.871,104.526 410.209,104.347C410.799,104.037 411.263,103.309 411.591,102.748C412.381,101.387 412.661,99.813 413.223,98.359C413.829,96.782 414.927,95.2 414.881,93.445C414.834,91.629 413.322,90.194 411.603,91.201Z" style="fill:rgb(235,179,154);fill-rule:nonzero;"/>
            <path d="M387.499,74.698C385.948,74.355 384.81,74.876 383.668,73.422C383.36,75.084 381.986,76.044 380.991,77.294C378.791,80.059 376.613,81.245 376.457,85.15C376.352,84.761 376.12,84.351 375.991,83.959C375.702,84.664 375.511,85.345 375.384,86.016C375.373,86.457 375.317,86.887 375.221,87.307C375.029,90.248 376.004,93.002 376.352,96.126C376.154,94.355 374.032,92.812 372.617,91.418C372.499,91.518 372.378,91.615 372.256,91.711C372.128,91.808 372.017,91.919 371.931,92.041C370.681,93.805 372.55,96.755 373.17,98.359C373.664,99.643 373.936,101.012 374.539,102.255C374.798,102.79 375.127,103.362 375.463,103.848C375.784,104.313 376.62,104.455 377.15,104.38C377.428,104.339 377.703,104.2 377.846,103.957C378.81,106.13 380.229,107.811 381.298,109.941C382.077,111.493 382.788,112.512 384.261,113.355C384.311,113.383 384.354,113.412 384.406,113.441C385.996,114.307 387.564,115.034 389.024,116.104C390.259,117.009 390.214,117.569 393.363,117.569C393.409,117.569 393.448,117.568 393.492,117.568L393.492,75.826C391.325,75.769 389.595,75.164 387.499,74.698Z" style="fill:rgb(250,189,163);fill-rule:nonzero;"/>
            <path d="M376.541,99.255C376.642,99.936 376.648,100.79 375.87,100.982C375.652,101.036 375.416,100.959 375.243,100.795C374.563,100.15 374.667,99.204 374.854,98.375C374.996,97.752 375.184,97.118 375.104,96.482C374.954,95.264 373.575,94.058 372.504,94.569C372.782,94.436 372.895,94.17 373.277,94.088C373.756,93.986 373.984,94.047 374.485,94.345C374.667,94.454 374.843,94.587 374.986,94.752C376.024,95.95 376.304,97.672 376.541,99.255Z" style="fill:rgb(192,135,108);fill-rule:nonzero;"/>
            <path d="M409.824,99.523C409.722,100.204 409.716,101.055 410.495,101.248C410.714,101.304 410.95,101.226 411.123,101.062C411.8,100.415 411.699,99.47 411.51,98.641C411.367,98.019 411.181,97.384 411.26,96.748C411.411,95.53 412.788,94.325 413.86,94.836C413.581,94.704 413.47,94.437 413.088,94.355C412.609,94.254 412.379,94.314 411.881,94.611C411.699,94.72 411.521,94.852 411.377,95.019C410.339,96.218 410.06,97.94 409.824,99.523Z" style="fill:rgb(192,135,108);fill-rule:nonzero;"/>
            <path d="M407.421,95.494C407.268,96.004 407.064,96.514 406.702,96.933C405.838,97.934 404.129,98.198 402.828,98.341C397.991,98.87 396.863,94.369 396.789,93.109C397.018,90.983 399.907,90.629 402.906,90.55C404.217,90.515 405.974,90.582 406.998,91.462C407.254,91.683 407.432,91.961 407.55,92.27C407.934,93.273 407.682,94.612 407.421,95.494ZM383.361,98.341C382.061,98.198 380.352,97.934 379.488,96.933C379.127,96.514 378.921,96.004 378.77,95.494C378.507,94.612 378.257,93.273 378.639,92.27C378.757,91.961 378.935,91.683 379.192,91.462C380.217,90.582 381.973,90.515 383.285,90.55C386.282,90.629 389.171,90.983 389.4,93.109C389.327,94.369 388.2,98.87 383.361,98.341ZM411.335,90.183C411.248,90.079 404.166,87.323 395.171,90.647C394.328,90.765 393.535,90.804 393.095,90.818C393.081,90.818 393.066,90.818 393.052,90.816C392.606,90.801 391.836,90.761 391.018,90.647C382.198,87.602 374.942,90.079 374.854,90.183C374.363,90.783 374.85,91.654 374.853,91.659C374.87,91.689 375.242,91.782 375.288,91.804C375.646,91.966 376.218,92.245 376.391,92.598C376.568,92.964 376.514,93.563 376.577,93.969C376.692,94.727 376.832,95.488 377.085,96.22C377.41,97.162 378.024,98.215 378.961,98.772C380.92,99.934 384.942,99.691 386.979,99.187C389.231,98.488 391.229,94.43 391.443,93.148C391.591,92.359 392.51,92.183 393.052,92.148C393.066,92.147 393.081,92.145 393.095,92.144C393.629,92.175 394.595,92.34 394.748,93.148C394.96,94.43 396.959,98.488 399.21,99.187C401.248,99.691 405.271,99.934 407.228,98.772C408.167,98.215 408.779,97.162 409.106,96.22C409.357,95.488 409.499,94.727 409.614,93.969C409.677,93.563 409.621,92.964 409.8,92.598C409.971,92.245 410.545,91.966 410.902,91.804C410.949,91.782 411.32,91.689 411.336,91.659C411.339,91.654 411.827,90.783 411.335,90.183Z" style="fill:rgb(34,30,31);fill-rule:nonzero;"/>
        </g>
        <text x="384.391px" y="171.343px" style="font-family:'ArialMT', 'Arial', sans-serif;font-size:12px;">Bob</text>
        <g id="g2402">
            <path id="path5842" d="M238.183,96.583L194.215,106.943C190.1,106.128 186.275,108.868 184.455,116.104L184.054,116.204L184.44,116.474L185.495,154.891L192.065,159.346L192.065,159.216L205.201,168.082L210.066,171.652L209.996,170.417L210.006,170.417L210.106,172.067L217.676,168.382L217.651,167.927L254.814,155.801L254.814,155.861L262.699,153.341L262.269,149.071C262.124,146.935 261.934,144.67 261.744,143.635L261.829,143.61L260.859,133.405L260.704,133.45L259.339,119.734L259.394,119.719L259.339,119.689L259.309,119.449L259.039,119.519L258.884,119.434L259.169,119.364C258.589,108.438 251.868,97.433 238.183,96.583Z" style="fill:rgb(73,47,23);stroke:black;stroke-width:3.19px;"/>
            <g id="g10723">
                <g id="g10627">
                    <path id="path10629" d="M185.251,116.911L232.457,106.098L234.506,130.394L208.294,140.678L185.251,116.911Z" style="fill:rgb(73,47,23);"/>
                    <path id="rect10631" d="M208.287,156.189L185.212,140.601L186.467,155.484L209.542,171.072L208.287,156.189Z" style="fill:rgb(133,85,43);"/>
                    <path id="rect10633" d="M207.66,143.162L184.854,128.936L185.983,142.314L208.788,156.54L207.66,143.162Z" style="fill:rgb(104,67,34);"/>
                    <path id="rect10635" d="M207.282,130.737L184.755,116.685L185.865,129.84L208.392,143.892L207.282,130.737Z" style="fill:rgb(120,77,39);"/>
                    <path id="path10637" d="M209.766,170.508L262.53,153.306C262.53,153.306 261.945,143.113 261.559,143.097C261.119,143.08 208.385,159.346 208.385,159.346L209.766,170.508Z" style="fill:rgb(94,60,30);"/>
                    <path id="path10639" d="M208.89,159.47L261.824,143.634L260.854,133.425L207.859,147.894L208.89,159.47Z" style="fill:rgb(103,66,33);"/>
                    <path id="path10641" d="M232.107,106.5L234.493,134.793L257.723,120.407L232.107,106.5Z" style="fill:rgb(31,19,10);"/>
                    <path id="path10643" d="M207.921,148.631L207.663,139.711L259.276,126.447L259.58,138.515L207.921,148.631Z" style="fill:rgb(121,78,39);"/>
                    <path id="path10645" d="M207.928,140.247L207.284,131.306L259.03,119.621L259.382,127.706L207.928,140.247Z" style="fill:rgb(107,69,35);"/>
                </g>
                <path id="path10647" d="M184.434,116.3L190.21,120.523L192.081,159.342L185.461,154.938L184.434,116.3Z" style="fill:rgb(65,36,7);"/>
                <path id="path10649" d="M202.395,128.898L208.081,133.13L210.103,171.658L203.725,166.952L202.395,128.898Z" style="fill:rgb(65,36,7);"/>
                <path id="path10651" d="M207.87,132.879L215.596,130.658L217.711,168.352L210.153,172.111L207.87,132.879Z" style="fill:rgb(81,45,9);"/>
                <path id="path10653" d="M252.839,121.081L259.347,119.452L262.695,153.346L254.817,155.858L252.839,121.081Z" style="fill:rgb(81,45,9);"/>
                <path id="path10675" d="M242.999,130.77C238.133,129.838 231.766,131.085 227.727,135.192C225.491,137.36 227.673,150.588 236.647,148.047C244.746,145.877 246.186,131.429 242.999,130.77Z" style="fill:url(#_Radial1);"/>
                <path id="path10677" d="M236.105,134.732C236.819,134.562 237.482,134.764 237.813,135.278L237.904,135.268C238.456,136.123 238.222,137.34 237.387,138.073L239.643,141.948L234.231,143.548L235.324,138.482C235.133,138.411 234.842,138.26 234.722,137.998C234.08,137.152 234.403,135.926 235.239,135.193C235.491,134.982 235.833,134.762 236.105,134.732Z"/>
                <path id="path10659" d="M233.093,104.74L184.062,116.25L207.789,132.979L259.377,119.724L233.093,104.74ZM231.824,106.528L254.492,118.61L207.903,130.676L188.969,116.72L231.824,106.528Z" style="fill:rgb(82,62,44);"/>
                <path id="path10655" d="M192.251,107.383L238.154,96.582C251.899,97.458 258.6,108.449 259.157,119.381L208.063,131.3L192.251,107.383Z" style="fill:url(#_Linear2);"/>
                <path id="path10661" d="M208.043,131.119L185.871,116.876C185.74,103.974 203.797,99.888 208.043,131.119Z" style="fill:url(#_Linear3);"/>
                <path id="path10665" d="M184.434,116.3C189.008,97.844 206.339,108.038 208.887,132.126L184.434,116.3ZM186.757,116.596L207.069,130.585C204.946,111.213 190.44,101.718 186.757,116.596Z" style="fill:rgb(82,62,44);"/>
            </g>
        </g>
        <g>
            <path id="rect2723" d="M234.231,137.046C227.397,137.046 221.896,142.548 221.896,149.381L221.896,163.087L225.322,163.087L225.322,149.381C225.322,144.446 229.296,140.473 234.231,140.473C239.166,140.473 243.14,144.446 243.14,149.381L243.14,163.087L246.566,163.087L246.566,149.381C246.566,142.548 241.064,137.046 234.231,137.046Z" style="fill:rgb(40,40,40);"/>
            <path id="path3082" d="M234.231,137.942C227.777,137.942 222.581,143.493 222.581,149.826L222.581,162.603C222.581,167.4 225.569,171.473 229.82,173.172C226.774,171.786 224.637,168.816 224.637,165.293L224.637,149.154C224.637,144.311 228.61,140.091 233.546,140.091L234.916,140.091C239.851,140.091 243.825,144.311 243.825,149.154L243.825,165.293C243.825,168.816 241.688,171.786 238.642,173.172C242.893,171.473 245.88,167.4 245.88,162.603L245.88,149.826C245.88,143.493 240.685,137.942 234.231,137.942Z" style="fill:url(#_Linear4);"/>
            <path id="path2931" d="M234.231,137.337C227.589,137.337 222.241,142.649 222.241,149.246L222.241,162.556C222.241,167.553 225.316,171.796 229.691,173.567C226.556,172.123 224.357,169.028 224.357,165.358L224.357,148.546C224.357,143.5 228.446,138.644 233.526,138.644L234.936,138.644C240.016,138.644 244.105,143.5 244.105,148.545L244.105,165.358C244.105,169.028 241.905,172.123 238.771,173.567C243.145,171.796 246.221,167.553 246.221,162.556L246.221,149.246C246.221,142.649 240.873,137.337 234.231,137.337L234.231,137.337Z" style="fill:url(#_Linear5);"/>
            <path id="path2861" d="M229.162,140.452C227.31,141.611 226.269,143.588 226.473,144.246C226.693,144.956 227.993,141.784 231.676,140.801C234.515,140.044 231.676,138.878 229.162,140.452Z" style="fill:url(#_Radial6);"/>
            <path id="path2871" d="M239.3,140.418C241.151,141.577 242.193,143.554 241.989,144.212C241.769,144.922 240.468,141.75 236.786,140.767C233.946,140.01 236.786,138.844 239.3,140.418Z" style="fill:url(#_Radial7);"/>
            <path id="rect2875" d="M234.231,138.503C227.777,138.503 222.581,142.928 222.581,149.382L222.581,162.402C222.581,167.29 225.569,171.439 229.82,173.172C226.774,171.759 224.637,168.733 224.637,165.143L224.637,148.696C224.637,143.761 228.61,139.782 233.546,139.782L234.916,139.782C239.851,139.782 243.825,143.761 243.825,148.696L243.825,165.143C243.825,168.733 241.688,171.759 238.642,173.172C242.893,171.439 245.88,167.29 245.88,162.402L245.88,149.382C245.88,142.928 240.685,138.503 234.231,138.503Z" style="fill:url(#_Linear8);"/>
            <path id="path2933" d="M234.231,137.741C225.12,137.741 223.017,145.678 223.017,149.268C223.017,160.038 223.718,160.038 223.718,149.268C223.718,141.37 229.323,138.253 234.231,138.253C239.139,138.253 244.744,141.693 244.744,149.268C244.744,160.038 245.445,160.038 245.445,149.268C245.445,145.678 243.342,137.741 234.231,137.741Z" style="fill:url(#_Linear9);"/>
            <path id="path2885" d="M234.231,138.78C225.322,138.78 223.267,146.372 223.267,149.67C223.267,159.564 223.952,159.564 223.952,149.67C223.952,142.414 229.432,139.251 234.231,139.251C239.03,139.251 244.51,142.71 244.51,149.67C244.51,159.564 245.195,159.564 245.195,149.67C245.195,146.372 243.14,138.78 234.231,138.78Z" style="fill:url(#_Linear10);"/>
            <path id="path2897" d="M224.91,141.979C223.93,143.766 225.94,142.636 226.407,142.072C227.719,140.486 229.936,139.336 231.883,138.961C233.515,138.646 233.764,138.016 232.42,137.911C229.74,137.703 225.848,140.266 224.91,141.979L224.91,141.979Z" style="fill:white;fill-opacity:0.8;"/>
            <path id="path2901" d="M223.426,144.93C223.53,145.803 225.218,142.956 226.548,141.619C228.171,139.987 230.632,138.844 231.816,138.693C233.926,138.424 232.924,137.39 231.602,137.651C226.794,138.601 223.162,142.703 223.426,144.93L223.426,144.93Z" style="fill:white;fill-opacity:0.6;"/>
            <path id="path2909" d="M243.498,141.967C244.484,143.75 242.47,142.628 242.001,142.065C240.683,140.484 238.462,139.342 236.514,138.974C234.88,138.666 234.421,138.037 235.764,137.928C238.444,137.71 242.554,140.257 243.498,141.967L243.498,141.967Z" style="fill:white;fill-opacity:0.8;"/>
            <path id="path2911" d="M244.934,144.851C244.834,145.725 243.135,142.884 241.801,141.552C240.172,139.926 237.707,138.792 236.522,138.646C234.411,138.384 235.401,137.388 236.733,137.603C241.547,138.387 245.191,142.624 244.934,144.851L244.934,144.851Z" style="fill:white;fill-opacity:0.6;"/>
            <path id="path2953" d="M229.013,140.157C226.599,141.536 225.241,143.886 225.507,144.669C225.793,145.513 227.489,141.741 232.29,140.573C235.991,139.672 232.29,138.286 229.013,140.157Z" style="fill:url(#_Radial11);"/>
            <path id="path2957" d="M239.399,140.092C241.626,141.494 242.879,143.884 242.634,144.681C242.37,145.539 240.805,141.702 236.376,140.514C232.961,139.598 236.376,138.189 239.399,140.092Z" style="fill:url(#_Radial12);"/>
            <path id="path3055" d="M253.418,178.847C253.418,179.599 244.757,180.218 234.231,180.218C223.705,180.218 215.043,179.599 215.043,178.847C215.043,178.096 223.705,177.477 234.231,177.477C244.757,177.477 253.418,178.096 253.418,178.847Z" style="fill:url(#_Radial13);"/>
            <path id="path3065" d="M253.418,177.819C253.418,178.759 244.757,179.533 234.231,179.533C223.705,179.533 215.043,178.759 215.043,177.819C215.043,176.88 223.705,176.106 234.231,176.106C244.757,176.106 253.418,176.88 253.418,177.819Z" style="fill:url(#_Radial14);"/>
            <path id="path3067" d="M253.418,178.162C253.418,178.914 244.757,179.533 234.231,179.533C223.705,179.533 215.043,178.914 215.043,178.162C215.043,177.41 223.705,176.792 234.231,176.792C244.757,176.792 253.418,177.41 253.418,178.162Z" style="fill:url(#_Radial15);"/>
            <path id="rect1941" d="M247.936,156.394C247.936,156.118 247.712,155.894 247.436,155.894L221.026,155.894C220.75,155.894 220.526,156.118 220.526,156.394L220.526,177.952C220.526,178.228 220.75,178.452 221.026,178.452L247.436,178.452C247.712,178.452 247.936,178.228 247.936,177.952L247.936,156.394Z" style="fill:url(#_Linear16);"/>
            <path id="rect2709" d="M247.936,156.394C247.936,156.118 247.712,155.894 247.436,155.894L221.026,155.894C220.75,155.894 220.526,156.118 220.526,156.394L220.526,177.952C220.526,178.228 220.75,178.452 221.026,178.452L247.436,178.452C247.712,178.452 247.936,178.228 247.936,177.952L247.936,156.394Z" style="fill:url(#_Linear17);"/>
            <path id="rect2734" d="M247.936,156.394C247.936,156.118 247.712,155.894 247.436,155.894L221.026,155.894C220.75,155.894 220.526,156.118 220.526,156.394L220.526,177.952C220.526,178.228 220.75,178.452 221.026,178.452L247.436,178.452C247.712,178.452 247.936,178.228 247.936,177.952L247.936,156.394Z" style="fill:url(#_Linear18);"/>
            <path id="rect2738" d="M247.936,156.394C247.936,156.118 247.712,155.894 247.436,155.894L221.026,155.894C220.75,155.894 220.526,156.118 220.526,156.394L220.526,177.952C220.526,178.228 220.75,178.452 221.026,178.452L247.436,178.452C247.712,178.452 247.936,178.228 247.936,177.952L247.936,156.394Z" style="fill:url(#_Linear19);"/>
            <path id="path2727" d="M221.382,155.894C221.998,156.616 227.56,157.183 234.542,157.183C241.429,157.183 246.899,156.622 247.645,155.914C247.635,155.913 247.635,155.894 247.625,155.894L221.382,155.894Z" style="fill:white;fill-opacity:0.5;"/>
            <g id="g2798">
                <path id="path2778" d="M222.004,157.629C221.747,159.402 221.459,170.655 222.412,173.064C223.344,175.421 223.227,161.82 225.498,159.68C227.794,157.516 222.246,155.956 222.004,157.629Z" style="fill:url(#_Radial20);"/>
                <path id="path2790" d="M221.862,157.747C221.564,159.817 221.233,172.954 222.332,175.766C223.407,178.518 223.273,162.64 225.894,160.141C228.543,157.615 222.142,155.793 221.862,157.747Z" style="fill:url(#_Radial21);"/>
                <path id="path2794" d="M221.571,157.848C221.202,160.175 220.789,174.933 222.155,178.093C223.492,181.184 223.325,163.346 226.582,160.538C229.874,157.7 221.919,155.653 221.571,157.848Z" style="fill:url(#_Radial22);"/>
            </g>
            <g id="g2803">
                <path id="path2805" d="M246.459,157.629C246.716,159.402 247.004,170.655 246.051,173.064C245.119,175.421 245.236,161.82 242.964,159.68C240.669,157.516 246.216,155.956 246.459,157.629Z" style="fill:url(#_Radial23);"/>
                <path id="path2807" d="M246.601,157.747C246.898,159.817 247.23,172.954 246.131,175.766C245.055,178.518 245.189,162.64 242.569,160.141C239.92,157.615 246.321,155.793 246.601,157.747Z" style="fill:url(#_Radial24);"/>
                <path id="path2809" d="M246.892,157.848C247.261,160.175 247.673,174.933 246.308,178.093C244.971,181.184 245.138,163.346 241.881,160.538C238.589,157.7 246.544,155.653 246.892,157.848Z" style="fill:url(#_Radial25);"/>
            </g>
            <path id="rect3077" d="M247.427,175.422L247.427,178.108C247.427,178.299 247.277,178.452 247.097,178.452L221.366,178.452C221.183,178.452 221.036,178.299 221.036,178.108L221.036,168.571C221.036,178.619 247.427,161.463 247.427,175.422Z" style="fill:url(#_Linear26);"/>
            <path id="path2768" d="M221.051,178.452C221.667,177.731 227.229,177.162 234.211,177.162C241.098,177.162 246.569,177.724 247.315,178.432C247.301,178.432 247.305,178.452 247.294,178.452L221.051,178.452Z" style="fill-opacity:0.5;"/>
        </g>
        <g>
            <path id="rect27231" serif:id="rect2723" d="M215.039,11.382C207.914,11.382 202.182,17.114 202.182,24.239L202.182,25.936L205.754,25.936L205.754,24.239C205.754,19.093 209.893,14.954 215.039,14.954C220.184,14.954 224.334,19.093 224.334,24.239L224.334,38.538L227.908,38.538L227.908,24.239C227.908,17.114 222.164,11.382 215.039,11.382Z" style="fill:rgb(40,40,40);"/>
            <path id="path30821" serif:id="path3082" d="M215.032,12.314C208.303,12.314 202.897,18.102 202.897,24.705L202.897,25.936L205.038,25.936L205.038,24.006C205.038,18.957 209.176,14.555 214.322,14.555L215.753,14.555C220.899,14.555 225.038,18.957 225.038,24.006L225.038,40.834C225.038,44.507 222.811,47.607 219.636,49.052C224.067,47.281 227.179,43.029 227.179,38.027L227.179,24.705C227.179,18.102 221.761,12.314 215.032,12.314Z" style="fill:url(#_Linear27);"/>
            <path id="path29311" serif:id="path2931" d="M215.033,11.682C208.107,11.682 202.542,17.227 202.542,24.106L202.542,25.936L204.739,25.936L204.739,23.374C204.738,18.113 209.005,13.046 214.3,13.046L215.776,13.046C221.072,13.046 225.338,18.113 225.338,23.374L225.338,40.9C225.338,44.726 223.037,47.958 219.769,49.464C224.33,47.614 227.534,43.193 227.534,37.983L227.534,24.106C227.534,17.227 221.958,11.682 215.033,11.682L215.033,11.682Z" style="fill:url(#_Linear28);"/>
            <path id="path28611" serif:id="path2861" d="M209.758,14.933C207.828,16.142 206.741,18.203 206.954,18.889C207.183,19.63 208.54,16.322 212.379,15.297C215.34,14.508 212.379,13.292 209.758,14.933Z" style="fill:url(#_Radial29);"/>
            <path id="path28711" serif:id="path2871" d="M220.328,14.898C222.259,16.106 223.345,18.167 223.132,18.854C222.903,19.594 221.547,16.286 217.707,15.262C214.746,14.472 217.707,13.257 220.328,14.898Z" style="fill:url(#_Radial30);"/>
            <path id="rect28751" serif:id="rect2875" d="M215.032,12.902C208.303,12.902 202.897,17.51 202.897,24.239L202.897,25.936L205.038,25.936L205.038,23.529C205.038,18.383 209.176,14.233 214.322,14.233L215.753,14.233C220.899,14.233 225.038,18.383 225.038,23.529L225.038,40.679C225.038,44.421 222.811,47.579 219.636,49.052C224.067,47.245 227.179,42.914 227.179,37.817L227.179,24.239C227.179,17.51 221.761,12.902 215.032,12.902Z" style="fill:url(#_Linear31);"/>
            <path id="path29331" serif:id="path2933" d="M215.043,12.104C205.544,12.104 203.351,20.385 203.351,24.128C203.351,24.771 203.358,25.367 203.362,25.936L204.083,25.936C204.088,25.367 204.083,24.771 204.083,24.128C204.083,15.894 209.926,12.636 215.043,12.636C220.161,12.636 226.014,16.229 226.014,24.128C226.014,35.358 226.735,35.358 226.735,24.128C226.735,20.385 224.543,12.104 215.043,12.104Z" style="fill:url(#_Linear32);"/>
            <path id="path28851" serif:id="path2885" d="M215.037,13.191C205.749,13.191 203.611,21.111 203.611,24.55C203.611,25.078 203.619,25.462 203.622,25.936L204.31,25.936C204.314,25.462 204.321,25.078 204.321,24.55C204.321,16.985 210.033,13.679 215.037,13.679C220.04,13.679 225.764,17.293 225.764,24.55C225.764,34.866 226.474,34.866 226.474,24.55C226.474,21.111 224.325,13.191 215.037,13.191Z" style="fill:url(#_Linear33);"/>
            <path id="path28971" serif:id="path2897" d="M205.324,16.525C204.303,18.388 206.399,17.211 206.886,16.622C208.254,14.968 210.565,13.77 212.595,13.378C214.297,13.05 214.556,12.393 213.155,12.284C210.361,12.067 206.303,14.739 205.324,16.525L205.324,16.525Z" style="fill:white;fill-opacity:0.8;"/>
            <path id="path29011" serif:id="path2901" d="M203.778,19.602C203.886,20.512 205.646,17.544 207.032,16.15C208.725,14.448 211.29,13.257 212.525,13.1C214.725,12.819 213.681,11.741 212.302,12.013C207.289,13.003 203.502,17.281 203.778,19.602L203.778,19.602Z" style="fill:white;fill-opacity:0.6;"/>
            <path id="path29091" serif:id="path2909" d="M224.706,16.513C225.733,18.372 223.634,17.202 223.145,16.615C221.771,14.967 219.454,13.776 217.423,13.392C215.72,13.071 215.241,12.416 216.642,12.302C219.436,12.074 223.721,14.73 224.706,16.513L224.706,16.513Z" style="fill:white;fill-opacity:0.8;"/>
            <path id="path29111" serif:id="path2911" d="M226.203,19.52C226.098,20.431 224.327,17.469 222.936,16.081C221.237,14.385 218.667,13.203 217.432,13.05C215.231,12.777 216.263,11.738 217.651,11.963C222.671,12.78 226.47,17.198 226.203,19.52L226.203,19.52Z" style="fill:white;fill-opacity:0.6;"/>
            <path id="path29531" serif:id="path2953" d="M209.602,14.626C207.086,16.063 205.67,18.514 205.947,19.33C206.246,20.21 208.014,16.277 213.019,15.059C216.879,14.12 213.019,12.675 209.602,14.626Z" style="fill:url(#_Radial34);"/>
            <path id="path29571" serif:id="path2957" d="M220.432,14.558C222.754,16.019 224.06,18.511 223.804,19.342C223.529,20.237 221.898,16.237 217.28,14.998C213.719,14.043 217.28,12.573 220.432,14.558Z" style="fill:url(#_Radial35);"/>
            <path id="rect19411" serif:id="rect1941" d="M229.333,31.533C229.333,31.257 229.109,31.033 228.833,31.033L201.253,31.033C200.977,31.033 200.753,31.257 200.753,31.533L200.753,54.053C200.753,54.329 200.977,54.553 201.253,54.553L228.833,54.553C229.109,54.553 229.333,54.329 229.333,54.053L229.333,31.533Z" style="fill:url(#_Linear36);"/>
            <path id="rect27091" serif:id="rect2709" d="M229.333,31.533C229.333,31.257 229.109,31.033 228.833,31.033L201.253,31.033C200.977,31.033 200.753,31.257 200.753,31.533L200.753,54.053C200.753,54.329 200.977,54.553 201.253,54.553L228.833,54.553C229.109,54.553 229.333,54.329 229.333,54.053L229.333,31.533Z" style="fill:url(#_Linear37);"/>
            <path id="rect27341" serif:id="rect2734" d="M229.333,31.533C229.333,31.257 229.109,31.033 228.833,31.033L201.253,31.033C200.977,31.033 200.753,31.257 200.753,31.533L200.753,54.053C200.753,54.329 200.977,54.553 201.253,54.553L228.833,54.553C229.109,54.553 229.333,54.329 229.333,54.053L229.333,31.533Z" style="fill:url(#_Linear38);"/>
            <path id="rect27381" serif:id="rect2738" d="M229.333,31.533C229.333,31.257 229.109,31.033 228.833,31.033L201.253,31.033C200.977,31.033 200.753,31.257 200.753,31.533L200.753,54.053C200.753,54.329 200.977,54.553 201.253,54.553L228.833,54.553C229.109,54.553 229.333,54.329 229.333,54.053L229.333,31.533Z" style="fill:url(#_Linear39);"/>
            <path id="path27271" serif:id="path2727" d="M201.646,31.033C202.289,31.787 208.087,32.377 215.368,32.377C222.549,32.377 228.252,31.793 229.029,31.054C229.019,31.053 229.019,31.033 229.008,31.033L201.646,31.033Z" style="fill:white;fill-opacity:0.5;"/>
            <g id="g27981" serif:id="g2798">
                <path id="path27781" serif:id="path2778" d="M202.294,32.842C202.026,34.692 201.726,46.425 202.72,48.936C203.691,51.393 203.57,37.213 205.938,34.981C208.332,32.725 202.548,31.098 202.294,32.842Z" style="fill:url(#_Radial40);"/>
                <path id="path27901" serif:id="path2790" d="M202.147,32.966C201.837,35.124 201.49,48.821 202.637,51.754C203.758,54.622 203.618,38.067 206.351,35.462C209.113,32.828 202.438,30.928 202.147,32.966Z" style="fill:url(#_Radial41);"/>
                <path id="path27941" serif:id="path2794" d="M201.843,33.071C201.458,35.497 201.028,50.885 202.452,54.18C203.846,57.403 203.672,38.803 207.068,35.876C210.5,32.917 202.206,30.783 201.843,33.071Z" style="fill:url(#_Radial42);"/>
            </g>
            <g id="g28031" serif:id="g2803">
                <path id="path28051" serif:id="path2805" d="M227.793,32.842C228.061,34.692 228.361,46.425 227.367,48.936C226.396,51.393 226.517,37.213 224.149,34.981C221.756,32.725 227.54,31.098 227.793,32.842Z" style="fill:url(#_Radial43);"/>
                <path id="path28071" serif:id="path2807" d="M227.941,32.966C228.251,35.124 228.597,48.821 227.45,51.754C226.329,54.622 226.469,38.067 223.736,35.462C220.974,32.828 227.649,30.928 227.941,32.966Z" style="fill:url(#_Radial44);"/>
                <path id="path28091" serif:id="path2809" d="M228.244,33.071C228.629,35.497 229.059,50.885 227.635,54.18C226.241,57.403 226.415,38.803 223.019,35.876C219.587,32.917 227.881,30.783 228.244,33.071Z" style="fill:url(#_Radial45);"/>
            </g>
            <path id="rect30771" serif:id="rect3077" d="M228.802,51.395L228.802,54.196C228.802,54.394 228.646,54.554 228.458,54.554L201.63,54.554C201.439,54.554 201.286,54.394 201.286,54.196L201.286,44.251C201.286,54.728 228.802,36.84 228.802,51.395Z" style="fill:url(#_Linear46);"/>
            <path id="path27681" serif:id="path2768" d="M201.301,54.554C201.944,53.802 207.742,53.209 215.023,53.209C222.204,53.209 227.908,53.794 228.685,54.533C228.671,54.533 228.674,54.554 228.664,54.554L201.301,54.554Z" style="fill-opacity:0.5;"/>
        </g>
        <text x="206.076px" y="46.279px" style="font-family:'ArialMT', 'Arial', sans-serif;font-size:9.9px;">Bob</text>
        <text x="425.67px" y="51.87px" style="font-family:'ArialMT', 'Arial', sans-serif;font-size:9.9px;">Bob</text>
        <text x="425.67px" y="51.87px" style="font-family:'ArialMT', 'Arial', sans-serif;font-size:9.9px;">Bob</text>
        <path d="M302.579,182.618L314.579,188.618L302.579,194.618C305.579,191.618 305.579,185.618 302.579,182.618Z"/>
        <path d="M134.699,188.618L304.979,188.618" style="fill:none;stroke:black;stroke-width:2px;stroke-miterlimit:1.5;"/>
        <path d="M146.699,59.618L134.699,65.618L146.699,71.618C143.699,68.618 143.699,62.618 146.699,59.618Z"/>
        <path d="M144.299,65.618L314.579,65.618" style="fill:none;stroke:black;stroke-width:2px;stroke-miterlimit:1.5;"/>
        <g id="g4211">
            <path id="path4196" d="M446.67,47.33C446.649,44.405 445.405,41.481 443.249,39.424C439.557,35.74 433.357,35.009 428.755,37.445C424.592,39.525 422.063,44.242 422.702,48.76C423.183,52.765 426.157,56.142 429.902,57.692L428.257,60.559C427.733,61.399 428.39,61.869 429.159,61.869L432.233,61.814L432.158,65.076L430.071,67.293L432.993,70.178L430.475,72.817L430.475,74.768L433.182,77.471L431.528,79.427L431.633,81.917L433.709,84.077L435.852,86.403C437.166,86.008 437.978,84.884 438.885,82.821L438.718,61.659L441.059,61.53C441.894,61.52 442.245,60.517 441.811,59.863L439.865,57.481C442.584,56.227 444.832,54.001 445.918,51.242C446.442,49.993 446.679,48.66 446.67,47.331L446.67,47.33Z" style="fill:rgb(194,175,126);fill-rule:nonzero;stroke:rgb(84,84,84);stroke-width:0.6px;"/>
            <path id="path4192" d="M435,44.783C433.767,44.815 432.57,43.817 432.424,42.542C432.286,41.513 432.833,40.438 433.732,39.964C434.725,39.409 436.063,39.576 436.86,40.416C437.536,41.097 437.796,42.196 437.434,43.106C437.078,44.061 436.144,44.74 435.153,44.779C435.102,44.782 435.051,44.783 435,44.783L435,44.783Z" style="fill:white;fill-rule:nonzero;stroke:rgb(84,84,84);stroke-width:0.6px;"/>
            <path id="path4201" d="M434.949,56.591L435.328,85.586L434.301,84.431L433.941,59.809L434.949,56.591Z" style="fill:rgb(255,238,170);fill-rule:nonzero;stroke:rgb(84,84,84);stroke-width:0.3px;"/>
        </g>
        <text x="425.67px" y="51.87px" style="font-family:'ArialMT', 'Arial', sans-serif;font-size:9.9px;">Bob</text>
        <text x="225.265px" y="170.658px" style="font-family:'ArialMT', 'Arial', sans-serif;font-size:9.9px;">Bob</text>
    </g>
    <g id="Calque-11" serif:id="Calque 1">
    </g>
    <g id="layer1">
    </g>
    <defs>
        <radialGradient id="_Radial1" cx="0" cy="0" r="1" gradientUnits="userSpaceOnUse" gradientTransform="matrix(-8.84932,2.49767,0.931283,8.50006,238.481,135.902)"><stop offset="0" style="stop-color:rgb(218,218,218);stop-opacity:1"/><stop offset="1" style="stop-color:rgb(136,136,136);stop-opacity:1"/></radialGradient>
        <linearGradient id="_Linear2" x1="0" y1="0" x2="1" y2="0" gradientUnits="userSpaceOnUse" gradientTransform="matrix(-18.2509,-45.7905,-45.7905,18.2509,231.99,124.488)"><stop offset="0" style="stop-color:rgb(97,54,10);stop-opacity:1"/><stop offset="1" style="stop-color:rgb(5,2,0);stop-opacity:1"/></linearGradient>
        <linearGradient id="_Linear3" x1="0" y1="0" x2="1" y2="0" gradientUnits="userSpaceOnUse" gradientTransform="matrix(26.67,29.7239,29.7239,-26.67,195.54,108.227)"><stop offset="0" style="stop-color:rgb(65,36,7);stop-opacity:1"/><stop offset="1" style="stop-color:black;stop-opacity:1"/></linearGradient>
        <linearGradient id="_Linear4" x1="0" y1="0" x2="1" y2="0" gradientUnits="userSpaceOnUse" gradientTransform="matrix(5.12235e-16,8.36543,-8.36543,5.12235e-16,232.302,138.397)"><stop offset="0" style="stop-color:white;stop-opacity:0.65"/><stop offset="1" style="stop-color:white;stop-opacity:0"/></linearGradient>
        <linearGradient id="_Linear5" x1="0" y1="0" x2="1" y2="0" gradientUnits="userSpaceOnUse" gradientTransform="matrix(0.758746,-4.27761,4.27761,0.758746,233.689,145.77)"><stop offset="0" style="stop-color:white;stop-opacity:0.5"/><stop offset="1" style="stop-color:white;stop-opacity:0"/></linearGradient>
        <radialGradient id="_Radial6" cx="0" cy="0" r="1" gradientUnits="userSpaceOnUse" gradientTransform="matrix(4.889,0,0,3.56666,229.581,141.64)"><stop offset="0" style="stop-color:rgb(255,225,156);stop-opacity:0.8"/><stop offset="1" style="stop-color:rgb(183,158,79);stop-opacity:0"/></radialGradient>
        <radialGradient id="_Radial7" cx="0" cy="0" r="1" gradientUnits="userSpaceOnUse" gradientTransform="matrix(-4.889,0,0,3.56666,238.88,141.606)"><stop offset="0" style="stop-color:rgb(255,225,156);stop-opacity:0.8"/><stop offset="1" style="stop-color:rgb(183,158,79);stop-opacity:0"/></radialGradient>
        <linearGradient id="_Linear8" x1="0" y1="0" x2="1" y2="0" gradientUnits="userSpaceOnUse" gradientTransform="matrix(1.02898e-16,-1.68046,1.68046,1.02898e-16,233.85,144.453)"><stop offset="0" style="stop-color:white;stop-opacity:0.5"/><stop offset="1" style="stop-color:white;stop-opacity:0"/></linearGradient>
        <linearGradient id="_Linear9" x1="0" y1="0" x2="1" y2="0" gradientUnits="userSpaceOnUse" gradientTransform="matrix(1.53785e-15,-25.115,25.115,1.53785e-15,236.774,151.934)"><stop offset="0" style="stop-color:white;stop-opacity:0.8"/><stop offset="1" style="stop-color:white;stop-opacity:0"/></linearGradient>
        <linearGradient id="_Linear10" x1="0" y1="0" x2="1" y2="0" gradientUnits="userSpaceOnUse" gradientTransform="matrix(1.41274e-15,-23.0718,23.0718,1.41274e-15,236.717,152.118)"><stop offset="0" style="stop-color:white;stop-opacity:0.6"/><stop offset="1" style="stop-color:white;stop-opacity:0"/></linearGradient>
        <radialGradient id="_Radial11" cx="0" cy="0" r="1" gradientUnits="userSpaceOnUse" gradientTransform="matrix(6.37309,0,0,4.24095,229.559,141.571)"><stop offset="0" style="stop-color:rgb(255,225,156);stop-opacity:0.4"/><stop offset="1" style="stop-color:rgb(183,158,79);stop-opacity:0"/></radialGradient>
        <radialGradient id="_Radial12" cx="0" cy="0" r="1" gradientUnits="userSpaceOnUse" gradientTransform="matrix(-5.87998,0,0,4.31325,238.897,141.529)"><stop offset="0" style="stop-color:rgb(255,225,156);stop-opacity:0.4"/><stop offset="1" style="stop-color:rgb(183,158,79);stop-opacity:0"/></radialGradient>
        <radialGradient id="_Radial13" cx="0" cy="0" r="1" gradientUnits="userSpaceOnUse" gradientTransform="matrix(19.1875,0,0,1.37052,234.231,178.847)"><stop offset="0" style="stop-color:rgb(40,40,40);stop-opacity:0.4"/><stop offset="1" style="stop-color:rgb(40,40,40);stop-opacity:0"/></radialGradient>
        <radialGradient id="_Radial14" cx="0" cy="0" r="1" gradientUnits="userSpaceOnUse" gradientTransform="matrix(19.1875,0,0,1.71315,234.231,177.819)"><stop offset="0" style="stop-color:rgb(40,40,40);stop-opacity:0.4"/><stop offset="1" style="stop-color:rgb(40,40,40);stop-opacity:0"/></radialGradient>
        <radialGradient id="_Radial15" cx="0" cy="0" r="1" gradientUnits="userSpaceOnUse" gradientTransform="matrix(19.1875,0,0,1.37052,234.231,178.161)"><stop offset="0" style="stop-color:rgb(40,40,40);stop-opacity:0.4"/><stop offset="1" style="stop-color:rgb(40,40,40);stop-opacity:0"/></radialGradient>
        <linearGradient id="_Linear16" x1="0" y1="0" x2="1" y2="0" gradientUnits="userSpaceOnUse" gradientTransform="matrix(11.0694,0,0,11.0694,233.997,169.564)"><stop offset="0" style="stop-color:rgb(164,124,68);stop-opacity:1"/><stop offset="0.75" style="stop-color:rgb(186,163,99);stop-opacity:1"/><stop offset="1" style="stop-color:rgb(214,199,149);stop-opacity:1"/></linearGradient>
        <linearGradient id="_Linear17" x1="0" y1="0" x2="1" y2="0" gradientUnits="userSpaceOnUse" gradientTransform="matrix(3.57441e-17,0.583745,-0.583745,3.57441e-17,234.28,164.839)"><stop offset="0" style="stop-color:black;stop-opacity:0.03"/><stop offset="1" style="stop-color:white;stop-opacity:0.03"/></linearGradient>
        <linearGradient id="_Linear18" x1="0" y1="0" x2="1" y2="0" gradientUnits="userSpaceOnUse" gradientTransform="matrix(0.260612,1.16687,-1.16687,0.260612,230.629,163.381)"><stop offset="0" style="stop-color:black;stop-opacity:0.03"/><stop offset="1" style="stop-color:white;stop-opacity:0.03"/></linearGradient>
        <linearGradient id="_Linear19" x1="0" y1="0" x2="1" y2="0" gradientUnits="userSpaceOnUse" gradientTransform="matrix(-0.194137,1.45843,-1.45843,-0.194137,225.659,173.591)"><stop offset="0" style="stop-color:black;stop-opacity:0.03"/><stop offset="1" style="stop-color:white;stop-opacity:0.03"/></linearGradient>
        <radialGradient id="_Radial20" cx="0" cy="0" r="1" gradientUnits="userSpaceOnUse" gradientTransform="matrix(3.84504,0,0,14.6736,222.742,158.623)"><stop offset="0" style="stop-color:white;stop-opacity:0.4"/><stop offset="1" style="stop-color:white;stop-opacity:0"/></radialGradient>
        <radialGradient id="_Radial21" cx="0" cy="0" r="1" gradientUnits="userSpaceOnUse" gradientTransform="matrix(4.43714,0,0,17.1298,222.714,158.906)"><stop offset="0" style="stop-color:white;stop-opacity:0.3"/><stop offset="1" style="stop-color:white;stop-opacity:0"/></radialGradient>
        <radialGradient id="_Radial22" cx="0" cy="0" r="1" gradientUnits="userSpaceOnUse" gradientTransform="matrix(5.5137,0,0,19.2455,222.63,159.152)"><stop offset="0" style="stop-color:white;stop-opacity:0.2"/><stop offset="1" style="stop-color:white;stop-opacity:0"/></radialGradient>
        <radialGradient id="_Radial23" cx="0" cy="0" r="1" gradientUnits="userSpaceOnUse" gradientTransform="matrix(-3.84504,0,0,14.6736,245.72,158.623)"><stop offset="0" style="stop-color:white;stop-opacity:0.4"/><stop offset="1" style="stop-color:white;stop-opacity:0"/></radialGradient>
        <radialGradient id="_Radial24" cx="0" cy="0" r="1" gradientUnits="userSpaceOnUse" gradientTransform="matrix(-4.43714,0,0,17.1298,245.749,158.906)"><stop offset="0" style="stop-color:white;stop-opacity:0.3"/><stop offset="1" style="stop-color:white;stop-opacity:0"/></radialGradient>
        <radialGradient id="_Radial25" cx="0" cy="0" r="1" gradientUnits="userSpaceOnUse" gradientTransform="matrix(-5.5137,0,0,19.2455,245.833,159.152)"><stop offset="0" style="stop-color:white;stop-opacity:0.2"/><stop offset="1" style="stop-color:white;stop-opacity:0"/></radialGradient>
        <linearGradient id="_Linear26" x1="0" y1="0" x2="1" y2="0" gradientUnits="userSpaceOnUse" gradientTransform="matrix(9.02129e-16,-14.7329,14.7329,9.02129e-16,232.736,178.717)"><stop offset="0" style="stop-color:white;stop-opacity:0.25"/><stop offset="1" style="stop-color:white;stop-opacity:0"/></linearGradient>
        <linearGradient id="_Linear27" x1="0" y1="0" x2="1" y2="0" gradientUnits="userSpaceOnUse" gradientTransform="matrix(5.34078e-16,8.72216,-8.72216,5.34078e-16,213.027,12.7908)"><stop offset="0" style="stop-color:white;stop-opacity:0.65"/><stop offset="1" style="stop-color:white;stop-opacity:0"/></linearGradient>
        <linearGradient id="_Linear28" x1="0" y1="0" x2="1" y2="0" gradientUnits="userSpaceOnUse" gradientTransform="matrix(0.791102,-4.46003,4.46003,0.791102,214.473,20.4783)"><stop offset="0" style="stop-color:white;stop-opacity:0.5"/><stop offset="1" style="stop-color:white;stop-opacity:0"/></linearGradient>
        <radialGradient id="_Radial29" cx="0" cy="0" r="1" gradientUnits="userSpaceOnUse" gradientTransform="matrix(5.09749,0,0,3.71876,210.195,16.1723)"><stop offset="0" style="stop-color:rgb(255,225,156);stop-opacity:0.8"/><stop offset="1" style="stop-color:rgb(183,158,79);stop-opacity:0"/></radialGradient>
        <radialGradient id="_Radial30" cx="0" cy="0" r="1" gradientUnits="userSpaceOnUse" gradientTransform="matrix(-5.09749,0,0,3.71876,219.89,16.1368)"><stop offset="0" style="stop-color:rgb(255,225,156);stop-opacity:0.8"/><stop offset="1" style="stop-color:rgb(183,158,79);stop-opacity:0"/></radialGradient>
        <linearGradient id="_Linear31" x1="0" y1="0" x2="1" y2="0" gradientUnits="userSpaceOnUse" gradientTransform="matrix(1.07286e-16,-1.75212,1.75212,1.07286e-16,214.641,19.1053)"><stop offset="0" style="stop-color:white;stop-opacity:0.5"/><stop offset="1" style="stop-color:white;stop-opacity:0"/></linearGradient>
        <linearGradient id="_Linear32" x1="0" y1="0" x2="1" y2="0" gradientUnits="userSpaceOnUse" gradientTransform="matrix(1.60343e-15,-26.186,26.186,1.60343e-15,217.7,26.9047)"><stop offset="0" style="stop-color:white;stop-opacity:0.8"/><stop offset="1" style="stop-color:white;stop-opacity:0"/></linearGradient>
        <linearGradient id="_Linear33" x1="0" y1="0" x2="1" y2="0" gradientUnits="userSpaceOnUse" gradientTransform="matrix(1.47299e-15,-24.0557,24.0557,1.47299e-15,217.635,27.097)"><stop offset="0" style="stop-color:white;stop-opacity:0.6"/><stop offset="1" style="stop-color:white;stop-opacity:0"/></linearGradient>
        <radialGradient id="_Radial34" cx="0" cy="0" r="1" gradientUnits="userSpaceOnUse" gradientTransform="matrix(6.64487,0,0,4.4218,210.172,16.0996)"><stop offset="0" style="stop-color:rgb(255,225,156);stop-opacity:0.4"/><stop offset="1" style="stop-color:rgb(183,158,79);stop-opacity:0"/></radialGradient>
        <radialGradient id="_Radial35" cx="0" cy="0" r="1" gradientUnits="userSpaceOnUse" gradientTransform="matrix(-6.13073,0,0,4.49719,219.908,16.0561)"><stop offset="0" style="stop-color:rgb(255,225,156);stop-opacity:0.4"/><stop offset="1" style="stop-color:rgb(183,158,79);stop-opacity:0"/></radialGradient>
        <linearGradient id="_Linear36" x1="0" y1="0" x2="1" y2="0" gradientUnits="userSpaceOnUse" gradientTransform="matrix(11.5414,0,0,11.5414,214.799,45.2864)"><stop offset="0" style="stop-color:rgb(164,124,68);stop-opacity:1"/><stop offset="0.75" style="stop-color:rgb(186,163,99);stop-opacity:1"/><stop offset="1" style="stop-color:rgb(214,199,149);stop-opacity:1"/></linearGradient>
        <linearGradient id="_Linear37" x1="0" y1="0" x2="1" y2="0" gradientUnits="userSpaceOnUse" gradientTransform="matrix(3.72683e-17,0.608638,-0.608638,3.72683e-17,215.094,40.3606)"><stop offset="0" style="stop-color:black;stop-opacity:0.03"/><stop offset="1" style="stop-color:white;stop-opacity:0.03"/></linearGradient>
        <linearGradient id="_Linear38" x1="0" y1="0" x2="1" y2="0" gradientUnits="userSpaceOnUse" gradientTransform="matrix(0.271725,1.21663,-1.21663,0.271725,211.288,38.84)"><stop offset="0" style="stop-color:black;stop-opacity:0.03"/><stop offset="1" style="stop-color:white;stop-opacity:0.03"/></linearGradient>
        <linearGradient id="_Linear39" x1="0" y1="0" x2="1" y2="0" gradientUnits="userSpaceOnUse" gradientTransform="matrix(-0.202416,1.52062,-1.52062,-0.202416,206.106,49.485)"><stop offset="0" style="stop-color:black;stop-opacity:0.03"/><stop offset="1" style="stop-color:white;stop-opacity:0.03"/></linearGradient>
        <radialGradient id="_Radial40" cx="0" cy="0" r="1" gradientUnits="userSpaceOnUse" gradientTransform="matrix(4.00901,0,0,15.2994,203.065,33.8788)"><stop offset="0" style="stop-color:white;stop-opacity:0.4"/><stop offset="1" style="stop-color:white;stop-opacity:0"/></radialGradient>
        <radialGradient id="_Radial41" cx="0" cy="0" r="1" gradientUnits="userSpaceOnUse" gradientTransform="matrix(4.62636,0,0,17.8603,203.035,34.1747)"><stop offset="0" style="stop-color:white;stop-opacity:0.3"/><stop offset="1" style="stop-color:white;stop-opacity:0"/></radialGradient>
        <radialGradient id="_Radial42" cx="0" cy="0" r="1" gradientUnits="userSpaceOnUse" gradientTransform="matrix(5.74883,0,0,20.0662,202.947,34.4303)"><stop offset="0" style="stop-color:white;stop-opacity:0.2"/><stop offset="1" style="stop-color:white;stop-opacity:0"/></radialGradient>
        <radialGradient id="_Radial43" cx="0" cy="0" r="1" gradientUnits="userSpaceOnUse" gradientTransform="matrix(-4.00901,0,0,15.2994,227.023,33.8788)"><stop offset="0" style="stop-color:white;stop-opacity:0.4"/><stop offset="1" style="stop-color:white;stop-opacity:0"/></radialGradient>
        <radialGradient id="_Radial44" cx="0" cy="0" r="1" gradientUnits="userSpaceOnUse" gradientTransform="matrix(-4.62636,0,0,17.8603,227.052,34.1747)"><stop offset="0" style="stop-color:white;stop-opacity:0.3"/><stop offset="1" style="stop-color:white;stop-opacity:0"/></radialGradient>
        <radialGradient id="_Radial45" cx="0" cy="0" r="1" gradientUnits="userSpaceOnUse" gradientTransform="matrix(-5.74883,0,0,20.0662,227.14,34.4303)"><stop offset="0" style="stop-color:white;stop-opacity:0.2"/><stop offset="1" style="stop-color:white;stop-opacity:0"/></radialGradient>
        <linearGradient id="_Linear46" x1="0" y1="0" x2="1" y2="0" gradientUnits="userSpaceOnUse" gradientTransform="matrix(9.40599e-16,-15.3611,15.3611,9.40599e-16,213.484,54.8298)"><stop offset="0" style="stop-color:white;stop-opacity:0.25"/><stop offset="1" style="stop-color:white;stop-opacity:0"/></linearGradient>
    </defs>
</svg>
