<!--?xml version="1.0" standalone="no"?-->
<svg id="python__playground_py_svg" width="155" height="100" xmlns="http://www.w3.org/2000/svg" viewBox="245,155,155,100">
<g transform="translate(250 250)">
<line x1="0" y1="0" x2="0" y2="0" style="stroke: black; stroke-width: 1;"></line>
<line x1="0" y1="0" x2="1.0409497792752501e-15" y2="-17" style="stroke: black; stroke-width: 1;"></line>
<line x1="1.0409497792752501e-15" y1="-17" x2="29" y2="-17" style="stroke: black; stroke-width: 1;"></line>
<line x1="29" y1="-17" x2="29" y2="-34" style="stroke: black; stroke-width: 1;"></line>
<line x1="29" y1="-34" x2="58" y2="-34" style="stroke: black; stroke-width: 1;"></line>
<line x1="58" y1="-34" x2="58" y2="-51" style="stroke: black; stroke-width: 1;"></line>
<line x1="58" y1="-51" x2="87" y2="-51" style="stroke: black; stroke-width: 1;"></line>
<line x1="87" y1="-51" x2="87" y2="-68" style="stroke: black; stroke-width: 1;"></line>
<line x1="87" y1="-68" x2="116" y2="-68" style="stroke: black; stroke-width: 1;"></line>
<line x1="116" y1="-68" x2="116" y2="-85" style="stroke: black; stroke-width: 1;"></line>
<line x1="116" y1="-85" x2="145" y2="-85" style="stroke: black; stroke-width: 1;"></line>
</g>
<g transform="translate(250 250)">
<polygon points="0,0 ,-5,-9 ,0,-7 ,5,-9 " stroke="black" fill="black" stroke-width="1" opacity="1" transform="translate(145.0,-85.0) rotate(-90,0,0)"></polygon>
</g>
</svg>