<?xml version="1.0" encoding="UTF-8" standalone="no"?>
<!-- Generator: Adobe Illustrator 13.0.0, SVG Export Plug-In . SVG Version: 6.00 Build 14948)  -->

<svg
   xmlns:dc="http://purl.org/dc/elements/1.1/"
   xmlns:cc="http://creativecommons.org/ns#"
   xmlns:rdf="http://www.w3.org/1999/02/22-rdf-syntax-ns#"
   xmlns:svg="http://www.w3.org/2000/svg"
   xmlns="http://www.w3.org/2000/svg"
   xmlns:sodipodi="http://sodipodi.sourceforge.net/DTD/sodipodi-0.dtd"
   xmlns:inkscape="http://www.inkscape.org/namespaces/inkscape"
   version="1.0"
   id="svg2"
   inkscape:version="0.92.4 (5da689c313, 2019-01-14)"
   sodipodi:docname="origami-box.svg"
   x="0px"
   y="0px"
   width="500px"
   height="500px"
   viewBox="0 0 500 500"
   enable-background="new 0 0 500 500"
   xml:space="preserve"><metadata
   id="metadata329"><rdf:RDF><cc:Work
       rdf:about=""><dc:format>image/svg+xml</dc:format><dc:type
         rdf:resource="http://purl.org/dc/dcmitype/StillImage" /><dc:title></dc:title></cc:Work></rdf:RDF></metadata><defs
   id="defs327" />
<sodipodi:namedview
   id="namedview31"
   inkscape:current-layer="svg2"
   inkscape:window-y="-3"
   inkscape:window-x="-2"
   inkscape:window-height="989"
   inkscape:window-width="1680"
   inkscape:pageshadow="2"
   inkscape:pageopacity="0"
   inkscape:window-maximized="1"
   guidetolerance="10"
   inkscape:cy="208.28586"
   gridtolerance="10"
   inkscape:cx="259.06326"
   objecttolerance="10"
   inkscape:zoom="1.3350176"
   borderopacity="1"
   showgrid="false"
   bordercolor="#666666"
   pagecolor="#ffffff">
	</sodipodi:namedview>
<path
   id="path3809"
   inkscape:connector-curvature="0"
   d="M-69.369,325.423" />
<g
   id="g6">
	<path
   id="path2164"
   sodipodi:nodetypes="cssss"
   fill="none"
   stroke="#000000"
   d="M108.409,82.913   c18.43-19.792,41.774-13.195,43.112,0.471c0.726,7.406-3.75,12.818-12.395,12.723c-8.6-0.094-13.02-5.317-12.287-13.194   c1.23-13.195,24.573-19.792,43.001,0" />
	<path
   id="path2166"
   sodipodi:nodetypes="cccc"
   stroke="#000000"
   d="M174.317,88.203l-6.934-2.642l5.287-5.288L174.317,88.203z" />
</g>
<g
   id="g20">
	<path
   id="path3882"
   inkscape:connector-curvature="0"
   d="M100.289,148.073" />
	<rect
   id="rect3803"
   x="7.27"
   y="11.617"
   fill="#79B6FF"
   stroke="#000000"
   width="94.555"
   height="137.893" />
	<path
   id="path3852_2_"
   fill="none"
   stroke="#000000"
   stroke-dasharray="8,4"
   d="M102.591,81.155l-95.07-0.517" />
	<path
   id="path3852_6_"
   fill="none"
   stroke="#000000"
   stroke-dasharray="8,4"
   d="M55.032,12.874l-0.74,136.15" />
	<g
   id="g14">
		<path
   id="path2163_2_"
   sodipodi:nodetypes="cscss"
   fill="none"
   stroke="#000000"
   d="M76.138,43.698    c-9.675-3.125-18.584-3.537-25.348-2.064c-6.537,1.422-18.228,8.085-18.228,8.085c4.611-1.116,12.622-3.337,22.162-2.896    c9.541,0.441,18.382,3.44,22.754,4.971" />
		
			<path
   id="path2165_6_"
   sodipodi:nodetypes="cccc"
   inkscape:transform-center-x="6.2196395"
   inkscape:transform-center-y="-0.252036"
   stroke="#000000"
   d="    M74.615,40.963l3.82,3.386l-5.196,1.185L74.615,40.963z" />
	</g>
	<g
   id="g18">
		<path
   id="path2163_5_"
   sodipodi:nodetypes="cscss"
   fill="none"
   stroke="#000000"
   d="M84.179,102.534    c3.126-9.675,3.537-18.583,2.064-25.348c-1.422-6.537-8.085-18.229-8.085-18.229c1.116,4.612,3.337,12.622,2.896,22.162    c-0.441,9.541-3.44,18.382-4.971,22.755" />
		
			<path
   id="path2165_7_"
   sodipodi:nodetypes="cccc"
   inkscape:transform-center-x="6.2196395"
   inkscape:transform-center-y="-0.252036"
   stroke="#000000"
   d="    M86.915,101.011l-3.386,3.82l-1.185-5.195L86.915,101.011z" />
	</g>
</g>
<g
   id="g34">
	<path
   id="path3882_2_"
   inkscape:connector-curvature="0"
   d="M386.551,147.521" />
	<rect
   id="rect3803_1_"
   x="293.53"
   y="11.065"
   fill="#FFFFC9"
   stroke="#000000"
   width="94.556"
   height="137.893" />
	<path
   id="path3840_1_"
   fill="none"
   stroke="#000000"
   stroke-dasharray="8,4"
   d="M293.874,127.374l92.79-91.789" />
	<path
   id="path3842_1_"
   fill="none"
   stroke="#000000"
   stroke-dasharray="8,4"
   d="M295.378,35.586l93.787,91.785" />
	<path
   id="path3858"
   fill="none"
   stroke="#000000"
   stroke-dasharray="4,2,1,2"
   d="M387.325,80.696l-91.446-0.229" />
	<path
   id="path4225_12_"
   fill="#7BACDC"
   stroke="#808080"
   d="M340.841,146.108V13.73" />
	<path
   id="path3796_6_"
   d="M346.729,114.959l-7.192,7.076l0.895-10.052C341.644,114.231,344.191,115.426,346.729,114.959z" />
	<path
   id="path3796_5_"
   d="M353.99,123.897l-10.088,0.234l7.533-6.713C350.782,119.885,351.821,122.499,353.99,123.897z" />
	<path
   id="path3796_4_"
   d="M331.672,117.89l7.536,6.714l-10.09-0.233C331.28,123.012,332.303,120.395,331.672,117.89z" />
	<path
   id="path10039_3_"
   sodipodi:nodetypes="css"
   fill="none"
   stroke="#000000"
   d="M332.586,122.119   c-8.544-2.092-16.621-7.831-22.924-14.541c-6.301-6.713-10.828-14.397-12.266-20.39" />
	<path
   id="path10039_2_"
   sodipodi:nodetypes="css"
   fill="none"
   stroke="#000000"
   d="M344.646,44.328   c6.204,11.446,7.949,26.008,6.859,39.593c-1.09,13.582-5.015,26.188-10.152,33.725" />
	<path
   id="path10039_1_"
   sodipodi:nodetypes="css"
   fill="none"
   stroke="#000000"
   d="M384.591,87.188   c-1.438,5.992-5.964,13.676-12.265,20.39c-6.302,6.712-14.38,12.449-22.925,14.541" />
</g>
<g
   id="g46">
	<polygon
   id="rect3803_3_"
   fill="#79B6FF"
   stroke="#000000"
   points="2.561,296.426 68.178,233.39 130.295,294.063 130.295,318.357    2.561,318.357  " />
	<polygon
   id="rect3803_31_"
   fill="#FFFFC9"
   stroke="#000000"
   points="2.561,296.426 130.295,294.063 130.295,318.357 2.561,318.357     " />
	<polygon
   id="rect3803_2_"
   fill="#79B6FF"
   stroke="#000000"
   points="4.138,297.345 68.178,233.39 130.821,297.082 130.952,319.408    4.138,319.276  " />
	<path
   id="path4225_1_"
   fill="#79B6FF"
   stroke="#808080"
   d="M68.259,317.701v-80.503" />
	<path
   id="path3852_4_"
   fill="none"
   stroke="#000000"
   stroke-dasharray="8,4"
   d="M34.191,266.65l-0.284,52.359" />
	<path
   id="path3852_3_"
   fill="none"
   stroke="#000000"
   stroke-dasharray="8,4"
   d="M99.591,266.387l-0.284,52.36" />
	<path
   id="path2165_1_"
   sodipodi:nodetypes="css"
   fill="none"
   stroke="#000000"
   d="M13.284,302.861   c6.24-7.023,13.409-8.799,20.881-8.799c7.778,0,16.852,4.887,21.012,10.506" />
	<path
   id="path2167_3_"
   sodipodi:nodetypes="cccc"
   stroke="#000000"
   d="M55.079,304.238l-4.541-1.42l3.297-3.311L55.079,304.238z" />
	<path
   id="path2165_2_"
   sodipodi:nodetypes="css"
   fill="none"
   stroke="#000000"
   d="M79.734,305.225   c4.16-5.618,13.233-10.506,21.012-10.506c7.472,0,14.641,1.775,20.881,8.799" />
	<path
   id="path2167_2_"
   sodipodi:nodetypes="cccc"
   stroke="#000000"
   d="M81.077,300.164l3.297,3.312l-4.542,1.421L81.077,300.164z" />
</g>
<g
   id="g58">
	<polygon
   id="rect3803_12_"
   fill="#79B6FF"
   stroke="#000000"
   points="321.692,261.014 356.417,228.5 387.657,258.639    387.279,313.599 321.091,313.795  " />
	<polygon
   id="rect3803_11_"
   fill="#79B6FF"
   stroke="#000000"
   points="323.071,261.802 356.417,228.5 388.421,261.041    388.659,314.387 322.471,314.584  " />
	<polygon
   id="rect3803_10_"
   fill="#FFFFC9"
   stroke="#000000"
   points="323.241,262.25 354.71,293.045 354.907,313.139    322.471,314.32  " />
	<path
   id="path3881_3_"
   fill="#79B6FF"
   stroke="#000000"
   d="M323.241,262.25l30.861,30.336l-31.441-0.327L323.241,262.25z" />
	<polygon
   id="rect3803_9_"
   fill="#FFFFC9"
   stroke="#000000"
   points="388.526,314.059 356.335,312.942 356.286,292.783    388.379,261.462  " />
	<path
   id="path3881_2_"
   fill="#79B6FF"
   stroke="#000000"
   d="M388.334,291.996l-31.736,0.984l31.519-30.993L388.334,291.996z" />
	<path
   id="path4225_10_"
   fill="#7BACDC"
   stroke="#808080"
   d="M355.891,290.551v-56.733" />
	<path
   id="path3796_1_"
   d="M354.763,276.82l-3.892-9.311l8.996,4.572C357.307,272.403,355.239,274.313,354.763,276.82z" />
	<path
   id="path10039_4_"
   sodipodi:nodetypes="css"
   fill="none"
   stroke="#000000"
   d="M353.774,271.837   c6.501,3.94,10.047,11.229,9.259,15.759c0.591,5.516-2.364,11.426-8.864,15.76" />
	<path
   id="path3852_1_"
   fill="none"
   stroke="#000000"
   stroke-dasharray="8,4"
   d="M312.639,293.051l83.686,0.284" />
</g>
<g
   id="g82">
	<polygon
   id="rect3803_16_"
   fill="#FFFFC9"
   stroke="#000000"
   points="424.564,265.786 459.29,233.272 490.53,263.411    490.152,318.371 423.964,318.568  " />
	<polygon
   id="rect3803_18_"
   fill="#79B6FF"
   stroke="#000000"
   points="457.78,298.41 424.145,298.672 424.564,265.786    459.29,233.272  " />
	<polygon
   id="rect3803_17_"
   fill="#FFFFC9"
   stroke="#000000"
   points="426.311,278.186 457.78,278.119 457.977,298.213    425.533,297.031  " />
	<polygon
   id="rect3803_19_"
   fill="#79B6FF"
   stroke="#000000"
   points="459.29,233.272 490.584,263.422 490.136,298.476    460.192,298.476  " />
	<polygon
   id="rect3803_14_"
   fill="#FFFFC9"
   stroke="#000000"
   points="491.711,296.637 460.192,298.476 459.355,277.856    491.515,278.383  " />
	<polygon
   id="rect3803_15_"
   fill="#79B6FF"
   stroke="#000000"
   points="425.944,266.574 459.29,233.272 491.294,265.813    491.711,296.637 425.522,296.834  " />
	<path
   id="path3881_5_"
   fill="#79B6FF"
   stroke="#000000"
   d="M426.114,267.022l30.533,29.482l-31.114,0.526L426.114,267.022z" />
	<path
   id="path3881_4_"
   fill="#79B6FF"
   stroke="#000000"
   d="M491.207,296.768l-31.802,0.133l31.584-30.141L491.207,296.768z" />
	<polygon
   id="rect3803_20_"
   fill="#79B6FF"
   stroke="#000000"
   points="427.296,277.988 457.566,276.807 457.875,296.859    425.785,296.859  " />
	<polygon
   id="rect3803_21_"
   fill="#79B6FF"
   stroke="#000000"
   points="491.1,296.729 459.01,296.729 459.318,276.675    492.696,277.988  " />
	<polygon
   id="rect3803_13_"
   fill="#FFFFC9"
   stroke="#000000"
   points="491.207,296.768 425.522,296.834 427.296,277.988    492.696,277.988  " />
	<g
   id="g77">
		<path
   id="path11992_2_"
   stroke="#000000"
   d="M491.662,301.743l1.23,0.868l-1.366,0.63L491.662,301.743z" />
		<path
   id="path25693_2_"
   stroke="#000000"
   d="M498.028,294.051" />
		<path
   id="path27640_2_"
   fill="none"
   stroke="#000000"
   d="M497.747,298.74l-3.907-3.16" />
		<path
   id="path28611_2_"
   fill="none"
   stroke="#000000"
   d="M496.004,300.999l-3.908-3.158" />
		<line
   fill="none"
   stroke="#000000"
   x1="491.896"
   y1="302.775"
   x2="498.07"
   y2="294.5"
   id="line75" />
	</g>
	<path
   id="path4225_8_"
   fill="#7BACDC"
   stroke="#808080"
   d="M459.405,294.535l1.182-14.577" />
	<path
   id="path4225_16_"
   fill="#7BACDC"
   stroke="#808080"
   d="M459.354,275.033v-39.398" />
	<path
   id="path4225_17_"
   fill="#7BACDC"
   stroke="#808080"
   d="M459.157,316.993v-17.729" />
</g>
<g
   id="g167">
	
		<linearGradient
   id="path2222_1_"
   gradientUnits="userSpaceOnUse"
   x1="1731.2266"
   y1="-1506.4478"
   x2="1573.3588"
   y2="-1475.2872"
   gradientTransform="matrix(0.3368 0 0 -0.3376 -109.1517 -74.9916)">
		<stop
   offset="0"
   style="stop-color:#FBFADA"
   id="stop84" />
		<stop
   offset="1"
   style="stop-color:#F5F2A1"
   id="stop86" />
	</linearGradient>
	<path
   id="path2222_5_"
   fill="url(#path2222_1_)"
   stroke="#040000"
   stroke-linejoin="round"
   d="M412.163,404.759L469.7,422.64   l4.559,27.614l-55.738-21.142L412.163,404.759z" />
	<linearGradient
   id="path2224_1_"
   gradientUnits="userSpaceOnUse"
   x1="412.2861"
   y1="436.8184"
   x2="349.4772"
   y2="431.3233">
		<stop
   offset="0"
   style="stop-color:#E8DF94"
   id="stop90" />
		<stop
   offset="1"
   style="stop-color:#F5F2A1"
   id="stop92" />
	</linearGradient>
	<path
   id="path2224_4_"
   sodipodi:nodetypes="ccccc"
   fill="url(#path2224_1_)"
   stroke="#040000"
   stroke-linejoin="round"
   d="   M350.384,420.958l61.779-15.924l-0.19,35.36l-60.371,22.888L350.384,420.958z" />
	<linearGradient
   id="path22764_1_"
   gradientUnits="userSpaceOnUse"
   x1="358.3379"
   y1="475.8984"
   x2="429.947"
   y2="437.6628">
		<stop
   offset="0"
   style="stop-color:#F9F8CE"
   id="stop96" />
		<stop
   offset="1"
   style="stop-color:#F1ED6C"
   id="stop98" />
	</linearGradient>
	<path
   id="path22764_2_"
   sodipodi:nodetypes="ccccc"
   fill="url(#path22764_1_)"
   stroke="#040000"
   d="M351.602,463.282l26.598,14.18   l58.484-27.183l-24.711-9.885L351.602,463.282z" />
	<linearGradient
   id="path2222_2_"
   gradientUnits="userSpaceOnUse"
   x1="471.9756"
   y1="440.7842"
   x2="407.478"
   y2="427.0748">
		<stop
   offset="0"
   style="stop-color:#FBFADA"
   id="stop102" />
		<stop
   offset="1"
   style="stop-color:#F5F2A1"
   id="stop104" />
	</linearGradient>
	<path
   id="path2222_3_"
   fill="url(#path2222_2_)"
   stroke="#040000"
   stroke-linejoin="round"
   d="M412.163,405.034l57.262,17.604   l-2.134,40.186l-55.318-22.43L412.163,405.034z" />
	<path
   fill="none"
   stroke="#040000"
   stroke-linejoin="round"
   d="M469.425,422.639"
   id="path108" />
	<path
   fill="none"
   stroke="#040000"
   stroke-linejoin="round"
   d="M409.523,446.017"
   id="path110" />
	<path
   fill="none"
   stroke="#040000"
   stroke-linejoin="round"
   d="M467.291,462.824"
   id="path112" />
	<path
   fill="none"
   stroke="#040000"
   d="M350.384,420.958"
   id="path114" />
	<path
   fill="none"
   stroke="#040000"
   d="M409.523,446.017"
   id="path116" />
	
		<linearGradient
   id="path2222_7_"
   gradientUnits="userSpaceOnUse"
   x1="1541.7734"
   y1="-1594.644"
   x2="1383.0286"
   y2="-1563.3104"
   gradientTransform="matrix(0.3368 0 0 -0.3376 -109.1517 -74.9916)">
		<stop
   offset="0"
   style="stop-color:#6897CF"
   id="stop118" />
		<stop
   offset="1"
   style="stop-color:#3171A5"
   id="stop120" />
	</linearGradient>
	<path
   id="path2222_6_"
   fill="url(#path2222_7_)"
   stroke="#040000"
   stroke-linejoin="round"
   d="M350.658,420.959l59.14,25.058   l-1.981,47.519l-55.939-30.253L350.658,420.959z" />
	<path
   id="path4225_6_"
   fill="#7BACDC"
   stroke="#808080"
   d="M438.805,453.824v-38.44" />
	<linearGradient
   id="path2224_2_"
   gradientUnits="userSpaceOnUse"
   x1="467.7578"
   y1="460.624"
   x2="408.957"
   y2="455.4796">
		<stop
   offset="0"
   style="stop-color:#6897CF"
   id="stop125" />
		<stop
   offset="1"
   style="stop-color:#79B6FF"
   id="stop127" />
	</linearGradient>
	<path
   id="path2224_5_"
   sodipodi:nodetypes="ccccc"
   fill="url(#path2224_2_)"
   stroke="#040000"
   stroke-linejoin="round"
   d="   M409.798,445.864L469.7,422.64l-2.135,40.185l-59.638,30.719L409.798,445.864z" />
	<path
   fill="none"
   stroke="#040000"
   stroke-linejoin="round"
   d="M469.7,422.64"
   id="path131" />
	<path
   fill="none"
   stroke="#040000"
   stroke-linejoin="round"
   d="M409.798,446.017"
   id="path133" />
	<path
   fill="none"
   stroke="#040000"
   stroke-linejoin="round"
   d="M467.565,462.824"
   id="path135" />
	<path
   fill="none"
   stroke="#040000"
   d="M350.658,420.959"
   id="path137" />
	<path
   fill="none"
   stroke="#040000"
   d="M409.798,446.017"
   id="path139" />
	<path
   id="path4225_3_"
   fill="#7BACDC"
   stroke="#808080"
   d="M378.123,475.515V445.86" />
	
		<linearGradient
   id="path2222_8_"
   gradientUnits="userSpaceOnUse"
   x1="1527.7998"
   y1="-1589.29"
   x2="1452.0236"
   y2="-1574.333"
   gradientTransform="matrix(0.3368 0 0 -0.3376 -109.1517 -74.9916)">
		<stop
   offset="0"
   style="stop-color:#6897CF"
   id="stop142" />
		<stop
   offset="1"
   style="stop-color:#4C7EAF"
   id="stop144" />
	</linearGradient>
	<path
   id="path2222_9_"
   fill="url(#path2222_8_)"
   stroke="#040000"
   stroke-linejoin="round"
   d="M378.708,432.683l30.541,13.06   l-6.653,38.834l-29.93-14.277L378.708,432.683z" />
	
		<linearGradient
   id="path2222_11_"
   gradientUnits="userSpaceOnUse"
   x1="1435.0498"
   y1="-1548.8066"
   x2="1366.9897"
   y2="-1535.3727"
   gradientTransform="matrix(0.3368 0 0 -0.3376 -109.1517 -74.9916)">
		<stop
   offset="0"
   style="stop-color:#4C7EAF"
   id="stop148" />
		<stop
   offset="1"
   style="stop-color:#3171A5"
   id="stop150" />
	</linearGradient>
	<path
   id="path2222_10_"
   fill="url(#path2222_11_)"
   stroke="#040000"
   stroke-linejoin="round"
   d="M350.384,420.959l28.324,11.724   l-7.688,36.792l-24.438-14.277L350.384,420.959z" />
	<line
   fill="none"
   stroke="#040000"
   stroke-linejoin="round"
   x1="378.708"
   y1="432.683"
   x2="407.816"
   y2="493.535"
   id="line154" />
	<line
   fill="none"
   stroke="#040000"
   stroke-linejoin="round"
   x1="378.708"
   y1="432.683"
   x2="351.602"
   y2="463.282"
   id="line156" />
	<path
   id="path4225_4_"
   fill="#7BACDC"
   stroke="#808080"
   d="M384.438,452.726v-37.342" />
	
		<linearGradient
   id="path2222_12_"
   gradientUnits="userSpaceOnUse"
   x1="1525.9805"
   y1="-1579.3828"
   x2="1381.1744"
   y2="-1550.8005"
   gradientTransform="matrix(0.3368 0 0 -0.3376 -109.1517 -74.9916)">
		<stop
   offset="0"
   style="stop-color:#FBFADA"
   id="stop159" />
		<stop
   offset="1"
   style="stop-color:#F5F2A1"
   id="stop161" />
	</linearGradient>
	<path
   id="path2222_4_"
   fill="url(#path2222_12_)"
   stroke="#040000"
   stroke-linejoin="round"
   d="M350.384,420.41l59.14,25.058   l-6.653,39.384l-56.287-29.654L350.384,420.41z" />
	<path
   id="path4225_2_"
   fill="#7BACDC"
   stroke="#808080"
   d="M442.373,472.494v-35.969" />
	<path
   id="path4225_5_"
   fill="#7BACDC"
   stroke="#808080"
   d="M372.632,467.003l4.978-32.399" />
</g>
<g
   id="g193">
	<polygon
   id="rect3803_7_"
   fill="#FFFFC9"
   stroke="#000000"
   points="161.925,298.229 227.542,235.193 289.66,295.865 289.66,320.16    161.925,320.16  " />
	<path
   id="path9058"
   fill="#79B6FF"
   stroke="#000000"
   stroke-linecap="round"
   stroke-linejoin="round"
   d="M227.618,235.196   l62.042,60.669l-127.735,2.363L227.618,235.196z" />
	<polygon
   id="rect3803_6_"
   fill="#79B6FF"
   stroke="#000000"
   points="194.394,269.086 227.739,235.784 259.743,268.324    259.98,321.67 193.792,321.867  " />
	<polygon
   id="rect3803_4_"
   fill="#FFFFC9"
   stroke="#000000"
   points="194.563,269.533 226.032,300.329 226.229,320.422    193.792,321.604  " />
	<path
   id="path3881"
   fill="#79B6FF"
   stroke="#000000"
   d="M194.563,269.533l30.862,30.337l-31.442-0.328L194.563,269.533z" />
	<polygon
   id="rect3803_5_"
   fill="#FFFFC9"
   stroke="#000000"
   points="259.849,321.342 227.657,320.227 227.608,300.066    259.701,268.745  " />
	<path
   id="path3881_1_"
   fill="#79B6FF"
   stroke="#000000"
   d="M259.656,299.279l-31.736,0.984l31.519-30.992L259.656,299.279z" />
	<g
   id="g182">
		<path
   id="path11992"
   stroke="#000000"
   d="M190.543,267.781l-1.366-0.629l1.229-0.87L190.543,267.781z" />
		<path
   id="path25693"
   stroke="#000000"
   d="M184.04,258.591" />
		<path
   id="path27640"
   fill="none"
   stroke="#000000"
   d="M188.229,260.121l-3.907,3.158" />
		<path
   id="path28611"
   fill="none"
   stroke="#000000"
   d="M189.973,262.38l-3.908,3.159" />
		<line
   fill="none"
   stroke="#000000"
   x1="190.173"
   y1="267.314"
   x2="183.999"
   y2="259.039"
   id="line180" />
	</g>
	<g
   id="g190">
		<path
   id="path11992_1_"
   stroke="#000000"
   d="M263.721,266.676l1.23,0.87l-1.367,0.629L263.721,266.676z" />
		<path
   id="path25693_1_"
   stroke="#000000"
   d="M270.087,258.984" />
		<path
   id="path27640_1_"
   fill="none"
   stroke="#000000"
   d="M269.806,263.673l-3.908-3.158" />
		<path
   id="path28611_1_"
   fill="none"
   stroke="#000000"
   d="M268.062,265.934l-3.907-3.16" />
		<line
   fill="none"
   stroke="#000000"
   x1="263.954"
   y1="267.709"
   x2="270.128"
   y2="259.434"
   id="line188" />
	</g>
	<path
   id="path4225_9_"
   fill="#7BACDC"
   stroke="#808080"
   d="M227.606,297.244V240.51" />
</g>
<g
   id="g209">
	<path
   id="path3882_1_"
   inkscape:connector-curvature="0"
   d="M275.083,147.255" />
	<rect
   id="rect3803_8_"
   x="182.063"
   y="10.799"
   fill="#FFFFC9"
   stroke="#000000"
   width="94.555"
   height="137.893" />
	<path
   id="path4225"
   fill="#79B6FF"
   stroke="#808080"
   d="M184.804,80.18h89.404" />
	<path
   id="path3840"
   fill="none"
   stroke="#000000"
   stroke-dasharray="8,4"
   d="M182.406,127.108l92.791-91.789" />
	<path
   id="path3842"
   fill="none"
   stroke="#000000"
   stroke-dasharray="8,4"
   d="M183.91,35.32l93.789,91.785" />
	<g
   id="g202">
		<path
   id="path2163_4_"
   sodipodi:nodetypes="cscss"
   fill="none"
   stroke="#000000"
   d="M221.242,46.341    c-9.672,3.137-17.132,8.024-21.75,13.181c-4.463,4.982-10.033,17.233-10.033,17.233c3.083-3.606,8.272-10.1,16.261-15.333    c7.99-5.233,16.912-7.984,21.353-9.305" />
		
			<path
   id="path2165_4_"
   sodipodi:nodetypes="cccc"
   inkscape:transform-center-x="6.2196395"
   inkscape:transform-center-y="-0.252036"
   stroke="#000000"
   d="    M218.405,45.017l5.079,0.505l-3.516,4.005L218.405,45.017z" />
	</g>
	<g
   id="g206">
		<path
   id="path2163_3_"
   sodipodi:nodetypes="cscss"
   fill="none"
   stroke="#000000"
   d="M266.588,71.905    c-3.137-9.672-8.024-17.132-13.182-21.75c-4.981-4.462-17.231-10.033-17.231-10.033c3.604,3.083,10.099,8.272,15.334,16.262    c5.233,7.989,7.984,16.912,9.306,21.352" />
		
			<path
   id="path2165_3_"
   sodipodi:nodetypes="cccc"
   inkscape:transform-center-x="6.2196395"
   inkscape:transform-center-y="-0.252036"
   stroke="#000000"
   d="    M267.912,69.067l-0.505,5.081l-4.006-3.517L267.912,69.067z" />
	</g>
	<path
   id="path4225_11_"
   fill="#7BACDC"
   stroke="#808080"
   d="M230.163,145.842V13.465" />
</g>
<g
   id="g260">
	<g
   id="g218">
		<path
   id="path4231"
   d="M427.676,82.872" />
		<path
   id="rect3868"
   fill="#FFFFC9"
   stroke="#000000"
   d="M489.332,106.062l3.545,19.699l-92.191,0.788l2.364-20.093l43.338-48.065    L489.332,106.062z" />
		<path
   id="path3879"
   fill="#79B6FF"
   stroke="#000000"
   d="M440.084,94.636l-37.034,11.819l43.338-48.065L440.084,94.636z" />
		<path
   id="path3873"
   fill="#FFFFC9"
   stroke="#000000"
   d="M440.084,94.636l-33.488-13.396l39.792-22.851L440.084,94.636z" />
		<path
   id="path3877"
   fill="#79B6FF"
   stroke="#000000"
   d="M489.332,106.062l-36.641-11.425l-6.304-36.246L489.332,106.062z" />
		<path
   id="path3875"
   fill="#FFFFC9"
   stroke="#000000"
   d="M486.573,80.453l-33.882,14.183l-6.304-36.246L486.573,80.453z" />
		<path
   id="path4225_14_"
   fill="#79B6FF"
   stroke="#808080"
   d="M447.125,123.003l-0.344-54.37" />
	</g>
	<defs
   id="defs223">
		<filter
   id="Adobe_OpacityMaskFilter"
   filterUnits="userSpaceOnUse"
   x="396.658"
   y="57.753"
   width="99.366"
   height="42.111">
			<feColorMatrix
   type="matrix"
   values="1 0 0 0 0  0 1 0 0 0  0 0 1 0 0  0 0 0 1 0"
   id="feColorMatrix220" />
		</filter>
	</defs>
	<mask
   maskUnits="userSpaceOnUse"
   x="396.658"
   y="57.753"
   width="99.366"
   height="42.111"
   id="SVGID_1_">
		<g
   filter="url(#Adobe_OpacityMaskFilter)"
   id="g244">
			<g
   id="g242">
				
					<linearGradient
   id="SVGID_2_"
   gradientUnits="userSpaceOnUse"
   x1="1083.9932"
   y1="-233.522"
   x2="1083.9932"
   y2="-281.9478"
   gradientTransform="matrix(1 0 0 -1 -637.6816 -179.502)">
					<stop
   offset="0"
   style="stop-color:#FFFFFF"
   id="stop225" />
					<stop
   offset="0.126"
   style="stop-color:#F9F9F9"
   id="stop227" />
					<stop
   offset="0.2923"
   style="stop-color:#E9E9E9"
   id="stop229" />
					<stop
   offset="0.481"
   style="stop-color:#CDCDCD"
   id="stop231" />
					<stop
   offset="0.6863"
   style="stop-color:#A7A7A7"
   id="stop233" />
					<stop
   offset="0.9026"
   style="stop-color:#777777"
   id="stop235" />
					<stop
   offset="1"
   style="stop-color:#5E5E5E"
   id="stop237" />
				</linearGradient>
				<rect
   x="397.557"
   y="54.02"
   fill="url(#SVGID_2_)"
   width="97.51"
   height="48.426"
   id="rect240" />
			</g>
		</g>
	</mask>
	<g
   mask="url(#SVGID_1_)"
   id="g257">
		<path
   id="path3871_3_"
   fill="#79B6FF"
   d="M488.149,81.635l-81.554-0.394l39.611-22.854L488.149,81.635z" />
		<path
   id="path3871_2_"
   fill="#79B6FF"
   d="M495.241,98.97h-97.707l9.062-17.729l79.978-0.788L495.241,98.97z" />
		<line
   fill="none"
   stroke="#000000"
   x1="408.566"
   y1="80.453"
   x2="446.207"
   y2="58.388"
   id="line249" />
		<line
   fill="none"
   stroke="#000000"
   x1="486.573"
   y1="80.453"
   x2="446.404"
   y2="58.19"
   id="line251" />
		<polyline
   fill="none"
   stroke="#000000"
   points="408.566,80.453 397.534,98.97 447.176,99.364   "
   id="polyline253" />
		<polyline
   fill="none"
   stroke="#000000"
   points="486.573,80.453 495.241,98.97 447.176,99.364   "
   id="polyline255" />
	</g>
	<path
   id="path4225_13_"
   fill="#79B6FF"
   stroke="#808080"
   d="M445.549,97.395l1.232-37.035" />
</g>
<g
   id="g280">
	<polygon
   id="rect3803_30_"
   fill="#FFFFC9"
   stroke="#000000"
   points="12.283,433.332 47.008,400.818 78.248,430.956 77.854,466.021    11.665,466.218  " />
	<polygon
   id="rect3803_29_"
   fill="#79B6FF"
   stroke="#000000"
   points="45.498,465.955 11.862,466.218 12.283,433.332 47.008,400.818     " />
	<polygon
   id="rect3803_28_"
   fill="#FFFFC9"
   stroke="#000000"
   points="14.029,445.73 45.498,445.665 45.695,465.758 13.251,464.576     " />
	<polygon
   id="rect3803_27_"
   fill="#79B6FF"
   stroke="#000000"
   points="47.008,400.818 78.302,430.967 77.854,466.021 47.911,466.021     " />
	<polygon
   id="rect3803_26_"
   fill="#FFFFC9"
   stroke="#000000"
   points="79.429,464.182 47.911,466.021 47.074,445.402 79.232,445.928     " />
	<polygon
   id="rect3803_25_"
   fill="#79B6FF"
   stroke="#000000"
   points="13.662,434.119 47.008,400.818 79.012,433.358 79.429,464.182    13.241,464.379  " />
	<path
   id="path3881_7_"
   fill="#79B6FF"
   stroke="#000000"
   d="M13.832,434.567l30.534,29.483l-31.114,0.525L13.832,434.567z" />
	<path
   id="path3881_6_"
   fill="#79B6FF"
   stroke="#000000"
   d="M78.925,464.313l-31.802,0.132l31.584-30.14L78.925,464.313z" />
	<polygon
   id="rect3803_24_"
   fill="#79B6FF"
   stroke="#000000"
   points="15.014,445.534 45.285,444.352 45.593,464.405 13.503,464.405     " />
	<polygon
   id="rect3803_23_"
   fill="#79B6FF"
   stroke="#000000"
   points="78.817,464.273 46.728,464.273 47.036,444.221 80.414,445.534     " />
	<polygon
   id="rect3803_22_"
   fill="#FFFFC9"
   stroke="#000000"
   points="78.925,464.313 13.241,464.379 15.014,445.534 80.414,445.534     " />
	<path
   id="path4225_18_"
   fill="#7BACDC"
   stroke="#808080"
   d="M47.006,442.381v-37.887" />
	<g
   id="g276">
		<path
   id="path2163_1_"
   sodipodi:nodetypes="cscss"
   fill="none"
   stroke="#000000"
   d="M42.504,419.515    c1.087,3.233,3.211,9.77,3.447,16.796c0.235,7.025-1.472,12.902-2.337,16.285c0,0,5.012-8.545,6.12-13.343    c1.147-4.964,0.928-11.524-1.283-18.677" />
		
			<path
   id="path2165_5_"
   sodipodi:nodetypes="cccc"
   inkscape:transform-center-x="6.2196395"
   inkscape:transform-center-y="-0.252036"
   stroke="#000000"
   d="    M46.572,422.813l1.25-5.181l3.338,3.862L46.572,422.813z" />
	</g>
	<path
   id="path3852_5_"
   fill="none"
   stroke="#000000"
   stroke-dasharray="8,4"
   d="M1.457,433.193l83.685,0.284" />
	<path
   id="path4225_7_"
   fill="#7BACDC"
   stroke="#808080"
   d="M47.417,462.344l0.625-14.315" />
</g>
<g
   id="g285">
	
		<path
   id="path2172"
   sodipodi:type="arc"
   sodipodi:cy="50"
   sodipodi:rx="21.393314"
   sodipodi:cx="150"
   sodipodi:ry="19.348289"
   fill="none"
   stroke="#000000"
   stroke-width="0.712"
   stroke-linecap="square"
   stroke-linejoin="round"
   d="   M157.5,446.527c0.008,12.838-9.753,23.252-21.799,23.259c-12.046,0.008-21.818-10.393-21.825-23.23c0-0.009,0-0.019,0-0.028   c-0.008-12.838,9.753-23.251,21.799-23.258c12.046-0.009,21.818,10.393,21.825,23.23C157.5,446.509,157.5,446.519,157.5,446.527z" />
	<path
   id="path2174"
   sodipodi:nodetypes="cccc"
   inkscape:transform-center-y="-1.0172413"
   stroke="#000000"
   stroke-width="1"
   d="   M113.876,444.123l-3.009,4.81h6.018L113.876,444.123z" />
	<path
   id="path2176"
   sodipodi:nodetypes="cccc"
   stroke="#000000"
   stroke-width="1"
   d="M157.5,448.933l-3.008-4.81h6.017   L157.5,448.933z" />
</g>
<g
   id="g324">
	<g
   id="g293">
		<line
   fill="none"
   stroke="#000000"
   stroke-width="2"
   x1="252.237"
   y1="428.223"
   x2="286.376"
   y2="405.565"
   id="line287" />
		<line
   fill="none"
   stroke="#000000"
   x1="287.1"
   y1="405.158"
   x2="278.956"
   y2="405.931"
   id="line289" />
		<line
   fill="none"
   stroke="#000000"
   x1="286.791"
   y1="404.948"
   x2="284.379"
   y2="411.837"
   id="line291" />
	</g>
	<polygon
   id="rect3803_40_"
   fill="#FFFFC9"
   stroke="#000000"
   points="202.381,411.914 268.57,412.111 268.963,447.175    237.724,477.313 202.999,444.8  " />
	<polygon
   id="rect3803_39_"
   fill="#79B6FF"
   stroke="#000000"
   points="237.724,477.313 202.999,444.8 202.577,411.914    236.215,412.176  " />
	<polygon
   id="rect3803_38_"
   fill="#FFFFC9"
   stroke="#000000"
   points="203.968,413.556 236.411,412.374 236.215,432.467    204.745,432.4  " />
	<polygon
   id="rect3803_37_"
   fill="#79B6FF"
   stroke="#000000"
   points="238.627,412.111 268.57,412.111 269.019,447.164    237.724,477.313  " />
	<polygon
   id="rect3803_36_"
   fill="#FFFFC9"
   stroke="#000000"
   points="269.949,432.203 237.791,432.729 238.627,412.111    270.146,413.949  " />
	<path
   id="path4110"
   sodipodi:nodetypes="czccczccccc"
   fill="#FFFFFF"
   stroke="#000000"
   stroke-miterlimit="8"
   d="M225.287,402.264   l11.933,19.292l11.935-19.292l-7.956,3.857c0,0,0-7.716,0.796-15.433s3.183-15.434,3.183-15.434l-7.957,10.032l-7.954-10.032   c0,0,2.39,7.755,3.181,15.434c0.797,7.717,0.797,15.433,0.797,15.433L225.287,402.264z" />
	<polygon
   id="rect3803_35_"
   fill="#79B6FF"
   stroke="#000000"
   points="203.957,413.752 270.146,413.949 269.729,444.772    237.724,477.313 204.378,444.013  " />
	<path
   id="path3881_9_"
   fill="#79B6FF"
   stroke="#000000"
   d="M203.968,413.556l31.113,0.525l-30.532,29.482L203.968,413.556z" />
	<path
   id="path3881_8_"
   fill="#79B6FF"
   stroke="#000000"
   d="M269.423,443.826l-31.584-30.139l31.803,0.13L269.423,443.826z" />
	<polygon
   id="rect3803_34_"
   fill="#79B6FF"
   stroke="#000000"
   points="204.22,413.727 236.31,413.727 236.001,433.779    205.729,432.598  " />
	<polygon
   id="rect3803_33_"
   fill="#79B6FF"
   stroke="#000000"
   points="271.13,432.598 237.752,433.911 237.443,413.858    269.533,413.858  " />
	<polygon
   id="rect3803_32_"
   fill="#FFFFC9"
   stroke="#000000"
   points="271.13,432.598 205.729,432.598 203.957,413.752    269.642,413.817  " />
	<path
   id="path4225_19_"
   fill="#7BACDC"
   stroke="#808080"
   d="M238.758,430.103l-0.625-14.314" />
	<path
   id="path4225_15_"
   fill="#7BACDC"
   stroke="#808080"
   d="M237.722,473.638V435.75" />
	<path
   id="path4225_20_"
   fill="#7BACDC"
   stroke="#808080"
   d="M207.156,443.859h28.253" />
	<path
   id="path4225_21_"
   fill="#7BACDC"
   stroke="#808080"
   d="M239.856,443.859h27.465" />
	<g
   id="g317">
		<line
   fill="none"
   stroke="#000000"
   stroke-width="2"
   x1="221.173"
   y1="427.012"
   x2="187.034"
   y2="449.67"
   id="line311" />
		<line
   fill="none"
   stroke="#000000"
   x1="186.311"
   y1="450.078"
   x2="194.454"
   y2="449.306"
   id="line313" />
		<line
   fill="none"
   stroke="#000000"
   x1="186.619"
   y1="450.286"
   x2="189.031"
   y2="443.398"
   id="line315" />
	</g>
	<path
   id="path6086"
   sodipodi:nodetypes="ccccc"
   stroke="#000000"
   d="M225.166,494.058l12.426-3.076l12.425,3.076l-12.425-12.305   L225.166,494.058z" />
	<g
   id="g322">
		<line
   fill="none"
   stroke="#000000"
   stroke-dasharray="2,2"
   x1="251.975"
   y1="428.485"
   x2="269.686"
   y2="416.838"
   id="line320" />
	</g>
</g>
</svg>