<?xml version="1.0" encoding="UTF-8" standalone="no"?>
<!DOCTYPE svg PUBLIC "-//W3C//DTD SVG 1.1//EN" "http://www.w3.org/Graphics/SVG/1.1/DTD/svg11.dtd">
<svg width="416px" height="416px" version="1.1" xmlns="http://www.w3.org/2000/svg" xmlns:xlink="http://www.w3.org/1999/xlink" xml:space="preserve" xmlns:serif="http://www.serif.com/" style="fill-rule:evenodd;clip-rule:evenodd;stroke-linecap:round;stroke-linejoin:round;stroke-miterlimit:1.5;">
    <g>
        <circle cx="208" cy="208" r="176" style="fill:rgb(255,234,0);stroke:black;stroke-width:1px;"/>
        <circle cx="160" cy="144" r="32" style="fill:rgb(48,79,254);stroke:black;stroke-width:1px;"/>
        <circle cx="256" cy="144" r="32" style="fill:rgb(48,79,254);stroke:black;stroke-width:1px;"/>
        <path d="M96,245.75C96,295.284 146.186,335.5 208,335.5C269.814,335.5 320,295.284 320,245.75C293.867,260.61 252.678,272.675 208,272.675C163.322,272.675 122.133,260.61 96,245.75Z" style="fill:rgb(213,0,0);stroke:black;stroke-width:1px;"/>
    </g>
    <g>
        <circle cx="96" cy="246" r="2"/>
        <circle cx="155.243" cy="267" r="2"/>
        <circle cx="261.238" cy="267" r="2"/>
        <circle cx="101" cy="273" r="2"/>
        <circle cx="123" cy="305" r="2"/>
        <circle cx="163" cy="328" r="2"/>
        <circle cx="254" cy="328" r="2"/>
        <circle cx="315" cy="273" r="2"/>
        <circle cx="292" cy="305" r="2"/>
        <circle cx="320" cy="246" r="2"/>
        <circle cx="208" cy="273" r="2"/>
        <circle cx="208" cy="335.5" r="2"/>
        <text x="85.852px" y="252.355px" style="font-family:'Helvetica';font-size:12px;">1</text>
        <text x="89.725px" y="285.42px" style="font-family:'Helvetica';font-size:12px;">2</text>
        <text x="114.713px" y="318.402px" style="font-family:'Helvetica';font-size:12px;">3</text>
        <text x="156.695px" y="343.414px" style="font-family:'Helvetica';font-size:12px;">4</text>
        <text x="205.302px" y="349.355px" style="font-family:'Helvetica';font-size:12px;">5</text>
        <text x="255.549px" y="340.889px" style="font-family:'Helvetica';font-size:12px;">6</text>
        <text x="295.561px" y="316.25px" style="font-family:'Helvetica';font-size:12px;">7</text>
        <text x="319.899px" y="278.248px" style="font-family:'Helvetica';font-size:12px;">8</text>
        <text x="325.623px" y="248.402px" style="font-family:'Helvetica';font-size:12px;">9</text>
        <text x="252.852px" y="260.206px" style="font-family:'Helvetica';font-size:12px;">10</text>
        <text x="201.965px" y="268.691px" style="font-family:'Helvetica';font-size:12px;">11</text>
        <text x="147.852px" y="264.545px" style="font-family:'Helvetica';font-size:12px;">12</text>
    </g>
    <g>
        <text x="156.552px" y="156.428px" style="font-family:'Helvetica';font-size:12px;">b</text>
        <path d="M134,147L128,144L134,141L131,144L134,147Z"/>
        <path d="M160,144L131,144" style="fill:none;stroke:black;stroke-width:1px;"/>
        <circle cx="160" cy="144" r="2"/>
    </g>
    <g>
        <text x="253.52px" y="156.428px" style="font-family:'Helvetica';font-size:12px;">c</text>
        <path d="M230,147L224,144L230,141L227,144L230,147Z"/>
        <path d="M256,144L227,144" style="fill:none;stroke:black;stroke-width:1px;"/>
        <circle cx="256" cy="144" r="2"/>
    </g>
    <g>
        <path d="M38,211L32,208L38,205L35,208L38,211Z"/>
        <path d="M208,208L35,208" style="fill:none;stroke:black;stroke-width:1px;"/>
        <circle cx="208" cy="208" r="2"/>
        <text x="204.552px" y="220.428px" style="font-family:'Helvetica';font-size:12px;">a</text>
    </g>
    <rect x="16" y="16" width="384" height="384" style="fill:none;stroke:black;stroke-width:1px;"/>
</svg>
