<?xml version="1.0" encoding="UTF-8" standalone="no"?>
<svg
   xmlns:dc="http://purl.org/dc/elements/1.1/"
   xmlns:cc="http://creativecommons.org/ns#"
   xmlns:rdf="http://www.w3.org/1999/02/22-rdf-syntax-ns#"
   xmlns:svg="http://www.w3.org/2000/svg"
   xmlns="http://www.w3.org/2000/svg"
   xmlns:sodipodi="http://sodipodi.sourceforge.net/DTD/sodipodi-0.dtd"
   xmlns:inkscape="http://www.inkscape.org/namespaces/inkscape"
   viewBox="0 0 720 720"
   version="1.1"
   id="svg20"
   sodipodi:docname="colour-rgb.svg"
   inkscape:version="0.92.1 r15371">
  <metadata
     id="metadata26">
    <rdf:RDF>
      <cc:Work
         rdf:about="">
        <dc:format>image/svg+xml</dc:format>
        <dc:type
           rdf:resource="http://purl.org/dc/dcmitype/StillImage" />
        <dc:title></dc:title>
      </cc:Work>
    </rdf:RDF>
  </metadata>
  <defs
     id="defs24" />
  <sodipodi:namedview
     pagecolor="#ffffff"
     bordercolor="#666666"
     borderopacity="1"
     objecttolerance="10"
     gridtolerance="10"
     guidetolerance="10"
     inkscape:pageopacity="0"
     inkscape:pageshadow="2"
     inkscape:window-width="640"
     inkscape:window-height="480"
     id="namedview22"
     showgrid="false"
     inkscape:zoom="0.38611111"
     inkscape:cx="-382.01439"
     inkscape:cy="349.64029"
     inkscape:current-layer="svg20" />
  <g
     transform="matrix(-1,0,0,1,720,-332.36)"
     id="g18">
    <path
       d="m 0,332.36 h 720 v 720 H 0 Z"
       id="path2"
       inkscape:connector-curvature="0" />
    <path
       d="m 470,772.74 c 0,121.5 -98.497,220 -220,220 -121.503,0 -220,-98.497 -220,-220 0,-121.503 98.497,-220 220,-220 121.503,0 220,98.497 220,220 z"
       id="path4"
       inkscape:connector-curvature="0"
       style="fill:#0000ff" />
    <path
       d="m 690,772.74 c 0,121.5 -98.497,220 -220,220 -121.503,0 -220,-98.497 -220,-220 0,-121.503 98.497,-220 220,-220 121.503,0 220,98.497 220,220 z"
       id="path6"
       inkscape:connector-curvature="0"
       style="fill:#00ff00" />
    <path
       d="m 580,582.42 c 0,121.5 -98.497,220 -220,220 -121.503,0 -220,-98.497 -220,-220 0,-121.503 98.497,-220 220,-220 121.503,0 220,98.497 220,220 z"
       id="path8"
       inkscape:connector-curvature="0"
       style="fill:#ff0000" />
    <path
       d="M 470,772.97 C 404.264,734.925 360,663.95 360,582.53 c 32.362,-18.723 69.923,-29.448 110,-29.448 40.095,0 77.628,10.823 110,29.562 -0.0416,81.347 -44.321,152.29 -110,190.32 z"
       id="path10"
       inkscape:connector-curvature="0"
       style="fill:#ffff00" />
    <path
       d="M 250,772.86 C 184.264,734.815 140,663.84 140,582.42 c 32.362,-18.723 69.923,-29.448 110,-29.448 40.095,0 77.628,10.823 110,29.562 -0.0416,81.347 -44.321,152.29 -110,190.32 z"
       id="path12"
       inkscape:connector-curvature="0"
       style="fill:#ff00ff" />
    <path
       d="M 360,963.29 C 294.264,925.245 250,854.27 250,772.85 c 32.362,-18.723 69.923,-29.448 110,-29.448 40.095,0 77.628,10.823 110,29.562 -0.0416,81.347 -44.321,152.29 -110,190.32 z"
       id="path14"
       inkscape:connector-curvature="0"
       style="fill:#00ffff" />
    <path
       d="m 360,582.42 c -65.736,38.045 -110,109.02 -110,190.44 32.362,18.723 69.923,29.448 110,29.448 40.095,0 77.628,-10.823 110,-29.562 -0.0416,-81.347 -44.321,-152.29 -110,-190.32 z"
       id="path16"
       inkscape:connector-curvature="0"
       style="fill:#ffffff" />
  </g>
</svg>
