<?xml version="1.0" encoding="UTF-8" standalone="no"?>
<!DOCTYPE svg PUBLIC "-//W3C//DTD SVG 1.1//EN" "http://www.w3.org/Graphics/SVG/1.1/DTD/svg11.dtd">
<svg width="530px" height="280px" version="1.1" xmlns="http://www.w3.org/2000/svg" xmlns:xlink="http://www.w3.org/1999/xlink" xml:space="preserve" xmlns:serif="http://www.serif.com/" style="fill-rule:evenodd;clip-rule:evenodd;">
    <rect x="8" y="8" width="224" height="264" style="fill:rgb(248,187,208);"/>
    <rect x="298" y="8" width="224" height="264" style="fill:rgb(188,170,164);"/>
    <g>
        <g>
            <g id="g4006">
                <path id="path1314" d="M74.51,161.602C74.428,170.438 67.199,177.535 58.363,177.453C49.527,177.372 42.43,170.143 42.511,161.306C42.593,152.47 49.822,145.373 58.658,145.455C67.495,145.536 74.592,152.766 74.51,161.602Z" style="fill:rgb(245,121,0);fill-rule:nonzero;stroke:rgb(143,89,2);stroke-width:0.74px;"/>
                <path id="path3560" d="M73.766,161.595C73.689,169.964 66.739,176.786 58.37,176.709C50.001,176.632 43.178,169.682 43.255,161.313C43.333,152.944 50.283,146.122 58.651,146.199C67.02,146.276 73.843,153.226 73.766,161.595Z" style="fill:none;fill-rule:nonzero;stroke:white;stroke-opacity:0.35;stroke-width:0.74px;"/>
                <path id="path3684" d="M58.648,146.571C50.428,146.495 43.703,153.097 43.628,161.317C43.616,162.571 43.778,163.782 44.059,164.949C46.41,168.538 53.923,164.95 59.143,160.925C65.146,156.297 72.363,167.268 73.366,162.126C73.373,161.949 73.392,161.77 73.394,161.591C73.47,153.372 66.868,146.647 58.648,146.571Z" style="fill:white;fill-opacity:0.25;fill-rule:nonzero;"/>
            </g>
            <g transform="matrix(0.999957,0.009231,-0.009231,0.999957,0.342214,2.14487)">
                <text x="52.981px" y="165.924px" style="font-family:'Arial-BoldMT', 'Arial', sans-serif;font-weight:700;font-size:20px;fill:white;">V</text>
            </g>
        </g>
        <path d="M63.222,136.496L58.639,145.455L54.222,136.413C56.451,138.684 60.951,138.726 63.222,136.496Z"/>
        <path d="M58.858,121.748C58.858,121.748 58.77,131.279 58.705,138.255" style="fill:none;stroke:black;stroke-width:2px;stroke-linecap:round;stroke-linejoin:round;stroke-miterlimit:1.5;"/>
        <path d="M83.448,166.184L74.49,161.602L83.532,157.185C81.261,159.414 81.219,163.914 83.448,166.184Z"/>
        <path d="M98.489,161.823C98.489,161.823 88.759,161.733 81.69,161.668" style="fill:none;stroke:black;stroke-width:2px;stroke-linecap:round;stroke-linejoin:round;stroke-miterlimit:1.5;"/>
        <path d="M62.705,192.494L58.122,201.452L53.705,192.411C55.934,194.682 60.434,194.723 62.705,192.494Z"/>
        <path d="M58.343,177.453C58.343,177.453 58.254,187.183 58.188,194.252" style="fill:none;stroke:black;stroke-width:2px;stroke-linecap:round;stroke-linejoin:round;stroke-miterlimit:1.5;"/>
    </g>
    <g id="Entschlüsselung">
        <g>
            <g id="g40061" serif:id="g4006">
                <path id="path13141" serif:id="path1314" d="M501.717,163.173C501.717,172.009 494.554,179.173 485.717,179.173C476.881,179.173 469.717,172.009 469.717,163.173C469.717,154.336 476.881,147.173 485.717,147.173C494.554,147.173 501.717,154.336 501.717,163.173Z" style="fill:rgb(245,121,0);fill-rule:nonzero;stroke:rgb(143,89,2);stroke-width:0.74px;"/>
                <path id="path35601" serif:id="path3560" d="M500.973,163.173C500.973,171.542 494.086,178.429 485.717,178.429C477.348,178.429 470.461,171.542 470.461,163.173C470.461,154.804 477.348,147.917 485.717,147.917C494.086,147.917 500.973,154.804 500.973,163.173Z" style="fill:none;fill-rule:nonzero;stroke:white;stroke-opacity:0.35;stroke-width:0.74px;"/>
                <path id="path36841" serif:id="path3684" d="M485.717,148.289C477.497,148.289 470.833,154.953 470.833,163.173C470.833,164.428 471.006,165.637 471.299,166.801C473.683,170.368 481.162,166.711 486.345,162.638C492.305,157.955 499.623,168.859 500.578,163.708C500.584,163.53 500.601,163.352 500.601,163.173C500.601,154.953 493.937,148.289 485.717,148.289Z" style="fill:white;fill-opacity:0.25;fill-rule:nonzero;"/>
            </g>
            <text x="478.793px" y="170.331px" style="font-family:'Arial-BoldMT', 'Arial', sans-serif;font-weight:700;font-size:20px;fill:white;">E</text>
        </g>
        <path d="M481.217,131L485.717,122L490.217,131C487.967,128.75 483.467,128.75 481.217,131Z"/>
        <path d="M485.717,146L485.717,129.2" style="fill:none;stroke:black;stroke-width:2px;stroke-linecap:round;stroke-linejoin:round;stroke-miterlimit:1.5;"/>
        <path d="M461,157.5L470,162L461,166.5C463.25,164.25 463.25,159.75 461,157.5Z"/>
        <path d="M446,162L462.8,162" style="fill:none;stroke:black;stroke-width:2px;stroke-linecap:round;stroke-linejoin:round;stroke-miterlimit:1.5;"/>
        <path d="M481.217,187L485.717,178L490.217,187C487.967,184.75 483.467,184.75 481.217,187Z"/>
        <path d="M485.717,202L485.717,185.2" style="fill:none;stroke:black;stroke-width:2px;stroke-linecap:round;stroke-linejoin:round;stroke-miterlimit:1.5;"/>
    </g>
    <g id="Alice">
        <path d="M206.191,114.418C204.832,97.901 202.561,68.272 203.025,59.959C204.393,25.519 189.285,19.49 179.828,18.241C169.295,16.849 152.526,21.058 148.422,42.114C145.206,58.614 147.031,98.101 147.971,114.418L206.191,114.418Z" style="fill:rgb(183,34,61);fill-rule:nonzero;"/>
        <path d="M157.442,52.969C157.093,52.047 157.154,51.172 156.512,50.33C155.928,49.564 155.015,49.028 154.053,49.007C150.986,48.941 150.621,52.683 151.779,54.728C152.357,55.75 153.217,56.597 153.757,57.64C154.671,59.405 154.949,61.971 157.414,62.244C158.848,62.404 159.627,61.896 159.984,61.076C160.663,59.516 159.807,56.829 159.017,55.473C158.539,54.657 157.777,53.854 157.442,52.969Z" style="fill:rgb(226,180,118);fill-rule:nonzero;"/>
        <path d="M163.468,63.882C164.43,69.909 165.7,77.233 163.659,82.468C161.327,88.446 158.378,89.643 153.033,91.71C155.524,95.104 157.868,98.632 160.795,101.658C163.721,104.686 167.325,107.225 171.445,108.093C172.704,108.358 174.014,108.422 175.307,108.325L175.307,63.73C170.698,63.59 163.568,63.461 163.468,63.882Z" style="fill:rgb(211,169,101);fill-rule:nonzero;"/>
        <path d="M158.9,32.761C153.722,39.965 153.883,50.002 157.007,57.991C159.528,64.437 167.488,75.472 175.307,75.239L175.307,24.712C169.11,24.434 162.479,27.783 158.9,32.761Z" style="fill:rgb(226,180,118);fill-rule:nonzero;"/>
        <path d="M175.303,118L175.303,105.789C163.041,104.82 157.386,97.639 153.033,91.714C140.349,96.497 138.103,97.51 133.846,103.885C133.497,104.408 133.211,104.968 132.992,105.557C132.35,107.282 131.032,111.363 130,118L175.303,118Z" style="fill:rgb(240,102,166);fill-rule:nonzero;"/>
        <path d="M196.563,49.007C195.6,49.028 194.688,49.564 194.103,50.33C193.461,51.172 193.521,52.047 193.174,52.969C192.839,53.854 192.075,54.657 191.598,55.473C190.807,56.829 189.952,59.516 190.632,61.076C190.988,61.896 191.768,62.404 193.202,62.244C195.667,61.971 195.943,59.405 196.859,57.64C197.399,56.597 198.257,55.75 198.835,54.728C199.992,52.683 199.628,48.941 196.563,49.007Z" style="fill:rgb(236,188,131);fill-rule:nonzero;"/>
        <path d="M186.624,82.468C184.582,77.233 185.853,69.909 186.814,63.882C186.713,63.461 179.584,63.59 174.974,63.73L174.974,108.325C176.268,108.422 177.577,108.358 178.836,108.093C182.956,107.225 186.561,104.686 189.486,101.658C192.413,98.632 194.757,95.104 197.248,91.71C191.904,89.643 188.956,88.446 186.624,82.468Z" style="fill:rgb(226,180,118);fill-rule:nonzero;"/>
        <path d="M175.307,24.712L175.163,75.239C182.984,75.472 191.088,64.437 193.607,57.991C196.729,50.002 196.893,39.965 191.714,32.761C188.136,27.783 181.506,24.434 175.307,24.712Z" style="fill:rgb(236,188,131);fill-rule:nonzero;"/>
        <path d="M220.281,118C219.251,111.363 217.931,107.282 217.29,105.557C217.07,104.968 216.785,104.408 216.435,103.885C212.179,97.51 209.932,96.497 197.249,91.714C192.895,97.639 187.241,104.82 174.98,105.789L174.98,118L220.281,118Z" style="fill:rgb(230,79,155);fill-rule:nonzero;"/>
        <path d="M195.293,29.683C194.698,29.206 185.063,23.14 184.349,23.02C183.635,22.901 166.981,23.259 166.504,23.736C166.029,24.211 155.083,31.942 154.251,32.062L154.251,48.478L155.703,52.284C155.703,52.284 154.965,45.861 156.868,41.459C158.773,37.058 165.057,32.18 165.057,32.18C165.057,32.18 169.003,37.178 177.211,38.725C174.475,36.583 171.62,32.894 171.62,32.894C171.62,32.894 178.996,38.725 181.613,39.675C181.018,38.011 178.638,33.49 178.638,33.49C178.638,33.49 185.895,38.011 187.323,42.233C188.513,41.223 185.559,35.392 185.559,35.392C185.559,35.392 194.867,43.608 193.866,51.648C196.175,48.112 198.624,47.557 197.581,44.553C197.463,44.215 195.888,30.159 195.293,29.683Z" style="fill:rgb(183,34,61);fill-rule:nonzero;"/>
        <path d="M157.381,62.133C156.035,62.133 154.944,63.223 154.944,64.569C154.944,65.915 156.035,67.005 157.381,67.005C158.727,67.005 159.817,65.915 159.817,64.569C159.817,63.223 158.727,62.133 157.381,62.133Z" style="fill:rgb(165,216,232);fill-rule:nonzero;"/>
        <path d="M192.821,62.273C191.475,62.273 190.385,63.364 190.385,64.709C190.385,66.054 191.475,67.146 192.821,67.146C194.166,67.146 195.257,66.054 195.257,64.709C195.257,63.364 194.166,62.273 192.821,62.273Z" style="fill:rgb(165,216,232);fill-rule:nonzero;"/>
    </g>
    <g id="Bob">
        <path d="M356.229,118C355.364,117.233 354.456,116.458 353.474,115.686C350.067,112.996 346.782,110.965 343.907,109.44C343.907,109.44 349.089,102 348.504,102L337.667,103.822C337.667,103.822 336.997,103.461 337.396,95.489C338.736,89.467 341.717,85.896 344.082,83.918C343.696,84.049 329.747,89.739 322.378,92.029C318.61,93.199 314.619,94.563 312.882,98.471C312.199,100.008 312.267,102.335 312.072,103.989C311.526,108.64 311.236,113.324 311,118L356.229,118Z" style="fill:rgb(113,101,82);fill-rule:nonzero;"/>
        <path d="M361.579,117.21C361.579,117.21 343.549,95.95 346.207,87.579C347.369,84.279 347.425,81.728 347.425,81.728C347.425,81.728 346.971,81.908 346.263,82.318C345.649,82.661 344.785,83.211 343.813,84.028C343.813,84.028 343.807,84.028 343.801,84.035C341.4,86.067 338.369,89.738 337.008,95.929C336.603,104.125 337.285,104.496 337.285,104.496L348.293,102.624C347.319,104.469 342.969,110.25 342.969,110.25C345.89,111.818 349.882,113.926 353.343,116.692C353.892,117.129 354.385,117.564 354.896,118L361.301,118C361.289,117.986 361.271,117.964 361.257,117.949L361.579,117.21Z" style="fill:rgb(135,121,96);fill-rule:nonzero;"/>
        <path d="M405.946,118C405.79,115.922 405.628,113.835 405.442,111.719C404.926,105.876 404.971,98.754 401.157,93.863C398.385,90.307 393.647,89.526 389.575,88.285C384.721,86.804 379.867,85.322 375.011,83.842C377.722,86.26 380.704,91.421 380.778,102.46C377.638,103.067 372.29,103.437 370.754,102.811C372.089,103.944 376.258,107.775 376.26,107.776C376.074,107.603 372.038,110.44 371.832,110.656C368.972,113.619 362.244,113.567 360.315,117.21C360.25,117.335 360.158,117.626 360.054,118L405.946,118Z" style="fill:rgb(135,121,96);fill-rule:nonzero;"/>
        <path d="M347.101,73.356C347.085,73.361 347.069,73.361 347.064,73.367C347.047,73.372 347.038,73.372 347.038,73.372C347.038,73.372 347.165,74.09 347.288,75.226C347.617,78.165 347.908,83.938 345.9,87.579C347.875,91.992 349.038,96.201 358.257,96.483L358.257,71.503C353.014,72.072 347.732,73.218 347.101,73.356Z" style="fill:rgb(237,169,130);fill-rule:nonzero;"/>
        <path d="M368.932,74.169C368.915,73.982 368.906,73.792 368.9,73.606C368.889,73.525 368.889,73.453 368.883,73.372C368.786,70.939 363.375,70.911 357.924,71.503L357.924,96.483C359.253,96.524 360.75,96.483 362.442,96.349C368.287,95.019 371.476,92.096 373.338,86.517C371.074,83.875 369.282,78.878 368.932,74.169Z" style="fill:rgb(223,159,122);fill-rule:nonzero;"/>
        <path d="M347.101,73.356C347.085,73.361 347.069,73.361 347.064,73.367C347.047,73.372 347.038,73.372 347.038,73.372C347.038,73.372 352.794,81.647 358.257,81.992L358.257,71.503C353.014,72.072 347.732,73.218 347.101,73.356Z" style="fill:rgb(206,145,116);fill-rule:nonzero;"/>
        <path d="M369.217,73.372C369.119,70.939 363.708,70.911 358.257,71.503L358.257,81.992C358.479,82.006 358.701,82.013 358.922,81.999C362.621,81.589 366.878,77.326 369.233,73.606C369.222,73.525 369.222,73.453 369.217,73.372Z" style="fill:rgb(192,135,108);fill-rule:nonzero;"/>
        <path d="M365.033,95.285C362.285,96.315 359.811,96.225 358.257,96.019C357.756,95.953 357.349,95.875 357.061,95.817C350.2,94.44 346.622,88.781 345.9,87.579C343.971,93.656 353.106,106.525 358.257,113.122C360.201,115.611 361.579,117.21 361.579,117.21L369.318,102.85C369.467,102.574 369.61,102.296 369.754,102.014C372.15,97.274 373.468,92.049 373.511,86.733C373.103,87.764 370.832,93.117 365.033,95.285Z" style="fill:rgb(202,217,224);fill-rule:nonzero;"/>
        <path d="M377.85,108.049C377.85,108.049 373.549,105.286 371.8,103.726C373.95,104.058 378.394,103.703 381.158,103.168C381.093,93.308 378.757,88.051 376.328,85.246C375.89,84.701 375.449,84.231 375.011,83.842C372.736,81.812 370.643,81.728 370.643,81.728C370.643,81.728 371.214,83.708 372.878,86.611C372.872,86.653 373.178,86.697 373.178,86.733C373.135,92.049 371.817,97.274 369.421,102.014C369.276,102.296 369.133,102.574 368.985,102.85L359.242,116.501C359.014,116.972 358.79,117.476 358.569,118L362.479,118C367.225,113.225 377.756,108.118 377.85,108.049Z" style="fill:rgb(113,101,82);fill-rule:nonzero;"/>
        <path d="M358.315,18C358.297,18.001 358.276,18.004 358.257,18.004L358.257,18.022C358.276,18.017 358.296,18.008 358.315,18Z" style="fill:rgb(117,77,42);fill-rule:nonzero;"/>
        <path d="M372.2,23.485C370.946,22.736 369.601,22.125 368.188,21.683C364.858,20.644 361.422,19.286 357.924,19.251L357.924,37.607C358.025,37.61 358.119,37.618 358.221,37.618C360.215,37.624 361.915,38.053 363.722,38.878C364.483,39.228 365.296,39.867 366.119,39.856C365.892,39.51 365.61,39.158 365.29,38.878C366.518,39.733 368.156,40.269 369.393,41.119C371.349,42.471 373.471,44.756 374.065,47.122C374.814,50.086 373.3,53.228 374.007,56.242C374.225,55.433 375.251,53.957 376.032,53.244C375.56,53.765 377.371,53.626 377.446,53.606C377.872,53.483 378.142,53.286 378.343,53.026C378.663,52.611 378.792,52.043 379.025,51.368C379.833,49.067 380.374,46.615 380.3,44.167C380.396,44.278 380.614,44.522 380.836,44.81C381.231,45.308 381.661,45.936 381.582,46.213C384.169,37.565 379.768,27.986 372.2,23.485Z" style="fill:rgb(57,59,66);fill-rule:nonzero;"/>
        <path d="M355.047,19.632C356.05,18.974 357.131,18.435 358.257,18.022L358.257,18.004C356.05,18.094 353.858,18.483 351.762,19.164C350.588,19.547 349.429,20.031 348.451,20.786C347.218,21.736 346.426,23.235 345.947,24.692C344.928,24.246 342.488,24.819 341.431,25.276C338.783,26.418 337.513,28.672 335.728,30.746C335.036,31.554 334.467,32.292 334.026,33.068C333.357,34.222 332.953,35.454 332.778,37.118C332.564,39.117 332.686,41.136 332.808,43.139C333.124,42.108 333.617,41.094 334.313,40.269C334.361,41.183 333.814,41.881 333.622,42.742C333.383,43.842 333.569,45.069 333.792,46.153C334.254,48.397 335.254,50.629 336.678,52.431C336.875,52.685 337.121,52.94 337.381,53.201C337.597,53.414 337.826,53.626 338.065,53.844C339.394,55.067 340.951,56.401 341.117,57.91C340.771,54.785 339.793,52.032 339.985,49.087C340.011,48.662 340.069,48.232 340.149,47.796C340.276,47.128 340.468,46.446 340.756,45.744C340.883,46.133 341.117,46.542 341.224,46.931C341.376,43.028 343.556,41.843 345.756,39.075C346.75,37.825 348.126,36.869 348.435,35.206C349.572,36.661 350.71,36.135 352.263,36.479C354.361,36.947 356.09,37.55 358.257,37.607L358.257,19.251C357.193,19.24 356.122,19.35 355.047,19.632Z" style="fill:rgb(65,66,68);fill-rule:nonzero;"/>
        <path d="M376.368,52.983C375.365,53.571 374.331,55.047 374.004,56.243C373.303,53.229 374.813,50.087 374.064,47.124C373.468,44.757 371.347,42.469 369.394,41.122C368.156,40.268 366.521,39.735 365.292,38.876C365.611,39.161 365.889,39.512 366.118,39.857C365.294,39.868 364.482,39.229 363.719,38.881C361.915,38.053 360.214,37.622 358.219,37.618C358.118,37.618 358.024,37.61 357.924,37.608L357.924,79.35C360.672,79.332 360.917,78.778 362.133,77.886C363.59,76.817 365.16,76.089 366.749,75.224C367.428,74.854 367.944,74.447 368.383,73.979C368.963,73.362 369.4,72.638 369.857,71.722C370.326,70.789 372.132,66.896 372.854,65.982C372.806,66.044 373.744,66.314 373.829,66.322C374.206,66.358 374.636,66.308 374.974,66.129C375.564,65.819 376.028,65.092 376.356,64.531C377.146,63.169 377.426,61.596 377.988,60.142C378.594,58.564 379.692,56.982 379.646,55.228C379.599,53.411 378.087,51.976 376.368,52.983Z" style="fill:rgb(235,179,154);fill-rule:nonzero;"/>
        <path d="M352.264,36.481C350.713,36.138 349.575,36.658 348.433,35.204C348.125,36.867 346.751,37.826 345.756,39.076C343.556,41.842 341.378,43.028 341.222,46.932C341.117,46.543 340.885,46.133 340.756,45.742C340.467,46.446 340.276,47.128 340.149,47.799C340.138,48.239 340.082,48.669 339.986,49.089C339.794,52.031 340.769,54.785 341.117,57.908C340.919,56.137 338.797,54.594 337.382,53.2C337.264,53.3 337.143,53.397 337.021,53.493C336.893,53.59 336.782,53.701 336.696,53.824C335.446,55.588 337.315,58.537 337.935,60.142C338.429,61.425 338.701,62.794 339.304,64.038C339.563,64.572 339.892,65.144 340.228,65.631C340.549,66.096 341.385,66.238 341.915,66.163C342.193,66.121 342.468,65.982 342.611,65.739C343.575,67.912 344.994,69.593 346.063,71.724C346.842,73.275 347.553,74.294 349.026,75.137C349.076,75.165 349.119,75.194 349.171,75.224C350.761,76.089 352.329,76.817 353.789,77.886C355.024,78.792 354.979,79.351 358.128,79.351C358.174,79.351 358.213,79.35 358.257,79.35L358.257,37.608C356.09,37.551 354.36,36.946 352.264,36.481Z" style="fill:rgb(250,189,163);fill-rule:nonzero;"/>
        <path d="M341.306,61.037C341.407,61.718 341.413,62.572 340.635,62.764C340.417,62.818 340.181,62.742 340.008,62.578C339.328,61.932 339.432,60.986 339.619,60.157C339.761,59.535 339.949,58.9 339.869,58.264C339.719,57.046 338.34,55.84 337.269,56.351C337.547,56.218 337.66,55.953 338.042,55.871C338.521,55.768 338.749,55.829 339.25,56.128C339.432,56.236 339.608,56.369 339.751,56.535C340.789,57.732 341.069,59.454 341.306,61.037Z" style="fill:rgb(192,135,108);fill-rule:nonzero;"/>
        <path d="M374.589,61.306C374.487,61.986 374.481,62.838 375.26,63.031C375.479,63.086 375.715,63.008 375.888,62.844C376.565,62.197 376.464,61.253 376.275,60.424C376.132,59.801 375.946,59.167 376.025,58.531C376.176,57.312 377.553,56.107 378.625,56.618C378.346,56.486 378.235,56.219 377.853,56.137C377.374,56.036 377.144,56.096 376.646,56.393C376.464,56.503 376.286,56.635 376.142,56.801C375.104,58 374.825,59.722 374.589,61.306Z" style="fill:rgb(192,135,108);fill-rule:nonzero;"/>
        <path d="M372.186,57.276C372.033,57.786 371.829,58.296 371.467,58.715C370.603,59.717 368.894,59.981 367.593,60.124C362.756,60.653 361.628,56.151 361.554,54.892C361.783,52.765 364.672,52.411 367.671,52.332C368.982,52.297 370.739,52.364 371.763,53.244C372.019,53.465 372.197,53.743 372.315,54.053C372.699,55.056 372.447,56.394 372.186,57.276ZM348.126,60.124C346.826,59.981 345.117,59.717 344.253,58.715C343.892,58.296 343.686,57.786 343.535,57.276C343.272,56.394 343.022,55.056 343.404,54.053C343.522,53.743 343.7,53.465 343.957,53.244C344.982,52.364 346.738,52.297 348.05,52.332C351.047,52.411 353.936,52.765 354.165,54.892C354.092,56.151 352.965,60.653 348.126,60.124ZM376.1,51.965C376.013,51.861 368.931,49.106 359.936,52.429C359.093,52.547 358.3,52.586 357.86,52.6C357.846,52.6 357.831,52.6 357.817,52.599C357.371,52.583 356.601,52.543 355.783,52.429C346.963,49.385 339.707,51.861 339.619,51.965C339.128,52.565 339.615,53.436 339.618,53.442C339.635,53.471 340.007,53.564 340.053,53.586C340.411,53.749 340.983,54.028 341.156,54.381C341.333,54.746 341.279,55.346 341.342,55.751C341.457,56.51 341.597,57.271 341.85,58.003C342.175,58.944 342.789,59.997 343.726,60.554C345.685,61.717 349.707,61.474 351.744,60.969C353.996,60.271 355.994,56.213 356.208,54.931C356.356,54.142 357.275,53.965 357.817,53.931C357.831,53.929 357.846,53.928 357.86,53.926C358.394,53.957 359.36,54.122 359.513,54.931C359.725,56.213 361.724,60.271 363.975,60.969C366.013,61.474 370.036,61.717 371.993,60.554C372.932,59.997 373.544,58.944 373.871,58.003C374.122,57.271 374.264,56.51 374.379,55.751C374.442,55.346 374.386,54.746 374.565,54.381C374.736,54.028 375.31,53.749 375.667,53.586C375.714,53.564 376.085,53.471 376.101,53.442C376.104,53.436 376.592,52.565 376.1,51.965Z" style="fill:rgb(34,30,31);fill-rule:nonzero;"/>
    </g>
    <text x="162.394px" y="135.586px" style="font-family:'ArialMT', 'Arial', sans-serif;font-size:12px;">Alice</text>
    <text x="344.121px" y="134.59px" style="font-family:'ArialMT', 'Arial', sans-serif;font-size:12px;">Bob</text>
    <g id="Klartext">
        <rect id="rect15391" x="31" y="42.042" width="50" height="58.667" style="fill:url(#_Radial1);stroke:url(#_Radial2);stroke-width:1.43px;stroke-linecap:round;stroke-linejoin:round;"/>
        <path id="rect15660" d="M79.514,43.536C79.514,43.453 79.447,43.386 79.365,43.386L32.672,43.386C32.59,43.386 32.523,43.453 32.523,43.536L32.523,99.074C32.523,99.156 32.59,99.223 32.672,99.223L79.365,99.223C79.447,99.223 79.514,99.156 79.514,99.074L79.514,43.536Z" style="fill:none;stroke:url(#_Radial3);stroke-width:1.43px;stroke-linecap:round;stroke-linejoin:round;"/>
        <g id="g2270">
            <g id="g1440">
                <path id="path1448" d="M37.296,80.082C37.296,80.731 36.769,81.258 36.119,81.258C35.469,81.258 34.943,80.731 34.943,80.082C34.943,79.433 35.469,78.907 36.119,78.907C36.769,78.907 37.296,79.433 37.296,80.082Z" style="fill:white;fill-rule:nonzero;stroke:black;stroke-width:0.33px;"/>
                <path id="path1456" d="M37.296,63.616C37.296,64.266 36.769,64.793 36.119,64.793C35.469,64.793 34.943,64.266 34.943,63.616C34.943,62.966 35.469,62.44 36.119,62.44C36.769,62.44 37.296,62.967 37.296,63.616Z" style="fill:white;fill-rule:nonzero;stroke:black;stroke-width:0.33px;"/>
            </g>
            <path id="path15570" d="M36.789,79.702C36.789,80.353 36.262,80.879 35.612,80.879C34.962,80.879 34.436,80.352 34.436,79.702C34.436,79.053 34.963,78.526 35.612,78.526C36.262,78.526 36.789,79.053 36.789,79.702Z" style="fill:url(#_Radial4);fill-rule:nonzero;"/>
            <path id="path15577" d="M36.789,63.236C36.789,63.886 36.262,64.413 35.612,64.413C34.962,64.413 34.436,63.886 34.436,63.236C34.436,62.587 34.963,62.059 35.612,62.059C36.262,62.059 36.789,62.587 36.789,63.236Z" style="fill:url(#_Radial5);fill-rule:nonzero;"/>
        </g>
        <path id="path15672" d="M38.029,44.692L38.029,99.039" style="fill:none;fill-rule:nonzero;stroke:black;stroke-opacity:0.02;stroke-width:1.42px;"/>
        <path id="path15674" d="M39.454,44.012L39.454,98.519" style="fill:none;fill-rule:nonzero;stroke:white;stroke-opacity:0.2;stroke-width:1.43px;"/>
        <g id="g2253">
            <path id="rect15686" d="M73.145,49.869C73.145,49.786 73.077,49.718 72.994,49.718L44.623,49.718C44.539,49.718 44.471,49.786 44.471,49.869L44.471,51C44.471,51.084 44.539,51.152 44.623,51.152L72.994,51.152C73.077,51.152 73.145,51.084 73.145,51L73.145,49.869Z" style="fill:rgb(155,155,155);fill-opacity:0.55;"/>
            <path id="rect15688" d="M73.145,52.737C73.145,52.653 73.077,52.585 72.994,52.585L44.623,52.585C44.539,52.585 44.471,52.653 44.471,52.737L44.471,53.867C44.471,53.951 44.539,54.019 44.623,54.019L72.994,54.019C73.077,54.019 73.145,53.951 73.145,53.867L73.145,52.737Z" style="fill:rgb(155,155,155);fill-opacity:0.55;"/>
            <path id="rect15690" d="M73.145,55.604C73.145,55.521 73.077,55.453 72.994,55.453L44.623,55.453C44.539,55.453 44.471,55.521 44.471,55.604L44.471,56.735C44.471,56.818 44.539,56.886 44.623,56.886L72.994,56.886C73.077,56.886 73.145,56.818 73.145,56.735L73.145,55.604Z" style="fill:rgb(155,155,155);fill-opacity:0.55;"/>
            <path id="rect15692" d="M73.145,58.472C73.145,58.388 73.077,58.32 72.994,58.32L44.623,58.32C44.539,58.32 44.471,58.388 44.471,58.472L44.471,59.602C44.471,59.686 44.539,59.754 44.623,59.754L72.994,59.754C73.077,59.754 73.145,59.686 73.145,59.602L73.145,58.472Z" style="fill:rgb(155,155,155);fill-opacity:0.55;"/>
            <path id="rect15694" d="M73.145,61.339C73.145,61.255 73.077,61.187 72.994,61.187L44.623,61.187C44.539,61.187 44.471,61.255 44.471,61.339L44.471,62.469C44.471,62.553 44.539,62.621 44.623,62.621L72.994,62.621C73.077,62.621 73.145,62.553 73.145,62.469L73.145,61.339Z" style="fill:rgb(155,155,155);fill-opacity:0.55;"/>
            <path id="rect15696" d="M73.145,64.206C73.145,64.123 73.077,64.055 72.994,64.055L44.623,64.055C44.539,64.055 44.471,64.123 44.471,64.206L44.471,65.337C44.471,65.421 44.539,65.488 44.623,65.488L72.994,65.488C73.077,65.488 73.145,65.421 73.145,65.337L73.145,64.206Z" style="fill:rgb(155,155,155);fill-opacity:0.55;"/>
            <path id="rect15698" d="M73.145,67.074C73.145,66.99 73.077,66.922 72.994,66.922L44.623,66.922C44.539,66.922 44.471,66.99 44.471,67.074L44.471,68.204C44.471,68.288 44.539,68.356 44.623,68.356L72.994,68.356C73.077,68.356 73.145,68.288 73.145,68.204L73.145,67.074Z" style="fill:rgb(155,155,155);fill-opacity:0.55;"/>
            <path id="rect15700" d="M73.145,69.941C73.145,69.857 73.077,69.79 72.994,69.79L44.623,69.79C44.539,69.79 44.471,69.857 44.471,69.941L44.471,71.072C44.471,71.155 44.539,71.223 44.623,71.223L72.994,71.223C73.077,71.223 73.145,71.155 73.145,71.072L73.145,69.941Z" style="fill:rgb(155,155,155);fill-opacity:0.55;"/>
            <path id="rect15732" d="M57.375,72.725C57.375,72.687 57.344,72.657 57.306,72.657L44.54,72.657C44.502,72.657 44.471,72.687 44.471,72.725L44.471,74.022C44.471,74.06 44.502,74.091 44.54,74.091L57.306,74.091C57.344,74.091 57.375,74.06 57.375,74.022L57.375,72.725Z" style="fill:rgb(155,155,155);fill-opacity:0.55;"/>
            <path id="rect15736" d="M73.145,78.543C73.145,78.46 73.077,78.392 72.994,78.392L44.623,78.392C44.539,78.392 44.471,78.46 44.471,78.543L44.471,79.674C44.471,79.757 44.539,79.825 44.623,79.825L72.994,79.825C73.077,79.825 73.145,79.757 73.145,79.674L73.145,78.543Z" style="fill:rgb(155,155,155);fill-opacity:0.55;"/>
            <path id="rect15738" d="M73.145,81.411C73.145,81.327 73.077,81.259 72.994,81.259L44.623,81.259C44.539,81.259 44.471,81.327 44.471,81.411L44.471,82.541C44.471,82.625 44.539,82.693 44.623,82.693L72.994,82.693C73.077,82.693 73.145,82.625 73.145,82.541L73.145,81.411Z" style="fill:rgb(155,155,155);fill-opacity:0.55;"/>
            <path id="rect15740" d="M73.145,84.278C73.145,84.194 73.077,84.126 72.994,84.126L44.623,84.126C44.539,84.126 44.471,84.194 44.471,84.278L44.471,85.409C44.471,85.492 44.539,85.56 44.623,85.56L72.994,85.56C73.077,85.56 73.145,85.492 73.145,85.409L73.145,84.278Z" style="fill:rgb(155,155,155);fill-opacity:0.55;"/>
            <path id="rect15742" d="M73.145,87.145C73.145,87.062 73.077,86.994 72.994,86.994L44.623,86.994C44.539,86.994 44.471,87.062 44.471,87.145L44.471,88.276C44.471,88.36 44.539,88.428 44.623,88.428L72.994,88.428C73.077,88.428 73.145,88.36 73.145,88.276L73.145,87.145Z" style="fill:rgb(155,155,155);fill-opacity:0.55;"/>
            <path id="rect15744" d="M64.543,89.967C64.543,89.909 64.496,89.861 64.437,89.861L44.578,89.861C44.519,89.861 44.471,89.909 44.471,89.967L44.471,91.189C44.471,91.247 44.519,91.295 44.578,91.295L64.437,91.295C64.496,91.295 64.543,91.247 64.543,91.189L64.543,89.967Z" style="fill:rgb(155,155,155);fill-opacity:0.55;"/>
        </g>
    </g>
    <g id="Klartext1" serif:id="Klartext">
        <rect id="rect153911" serif:id="rect15391" x="461" y="55" width="50" height="58.667" style="fill:url(#_Radial6);stroke:url(#_Radial7);stroke-width:1.43px;stroke-linecap:round;stroke-linejoin:round;"/>
        <path id="rect156601" serif:id="rect15660" d="M509.514,56.493C509.514,56.411 509.447,56.344 509.365,56.344L462.672,56.344C462.59,56.344 462.523,56.411 462.523,56.493L462.523,112.032C462.523,112.114 462.59,112.181 462.672,112.181L509.365,112.181C509.447,112.181 509.514,112.114 509.514,112.032L509.514,56.493Z" style="fill:none;stroke:url(#_Radial8);stroke-width:1.43px;stroke-linecap:round;stroke-linejoin:round;"/>
        <g id="g22701" serif:id="g2270">
            <g id="g14401" serif:id="g1440">
                <path id="path14481" serif:id="path1448" d="M467.296,93.04C467.296,93.689 466.769,94.216 466.119,94.216C465.469,94.216 464.943,93.689 464.943,93.04C464.943,92.391 465.469,91.864 466.119,91.864C466.769,91.864 467.296,92.391 467.296,93.04Z" style="fill:white;fill-rule:nonzero;stroke:black;stroke-width:0.33px;"/>
                <path id="path14561" serif:id="path1456" d="M467.296,76.574C467.296,77.224 466.769,77.751 466.119,77.751C465.469,77.751 464.943,77.224 464.943,76.574C464.943,75.924 465.469,75.397 466.119,75.397C466.769,75.397 467.296,75.924 467.296,76.574Z" style="fill:white;fill-rule:nonzero;stroke:black;stroke-width:0.33px;"/>
            </g>
            <path id="path155701" serif:id="path15570" d="M466.789,92.66C466.789,93.311 466.262,93.837 465.612,93.837C464.962,93.837 464.436,93.309 464.436,92.66C464.436,92.01 464.963,91.484 465.612,91.484C466.262,91.484 466.789,92.01 466.789,92.66Z" style="fill:url(#_Radial9);fill-rule:nonzero;"/>
            <path id="path155771" serif:id="path15577" d="M466.789,76.194C466.789,76.843 466.262,77.371 465.612,77.371C464.962,77.371 464.436,76.843 464.436,76.194C464.436,75.544 464.963,75.017 465.612,75.017C466.262,75.017 466.789,75.544 466.789,76.194Z" style="fill:url(#_Radial10);fill-rule:nonzero;"/>
        </g>
        <path id="path156721" serif:id="path15672" d="M468.029,57.649L468.029,111.996" style="fill:none;fill-rule:nonzero;stroke:black;stroke-opacity:0.02;stroke-width:1.42px;"/>
        <path id="path156741" serif:id="path15674" d="M469.454,56.97L469.454,111.476" style="fill:none;fill-rule:nonzero;stroke:white;stroke-opacity:0.2;stroke-width:1.43px;"/>
        <g id="g22531" serif:id="g2253">
            <path id="rect156861" serif:id="rect15686" d="M503.145,62.827C503.145,62.743 503.077,62.675 502.994,62.675L474.623,62.675C474.539,62.675 474.471,62.743 474.471,62.827L474.471,63.958C474.471,64.041 474.539,64.109 474.623,64.109L502.994,64.109C503.077,64.109 503.145,64.041 503.145,63.958L503.145,62.827Z" style="fill:rgb(155,155,155);fill-opacity:0.55;"/>
            <path id="rect156881" serif:id="rect15688" d="M503.145,65.694C503.145,65.611 503.077,65.543 502.994,65.543L474.623,65.543C474.539,65.543 474.471,65.611 474.471,65.694L474.471,66.825C474.471,66.909 474.539,66.976 474.623,66.976L502.994,66.976C503.077,66.976 503.145,66.909 503.145,66.825L503.145,65.694Z" style="fill:rgb(155,155,155);fill-opacity:0.55;"/>
            <path id="rect156901" serif:id="rect15690" d="M503.145,68.562C503.145,68.478 503.077,68.41 502.994,68.41L474.623,68.41C474.539,68.41 474.471,68.478 474.471,68.562L474.471,69.692C474.471,69.776 474.539,69.844 474.623,69.844L502.994,69.844C503.077,69.844 503.145,69.776 503.145,69.692L503.145,68.562Z" style="fill:rgb(155,155,155);fill-opacity:0.55;"/>
            <path id="rect156921" serif:id="rect15692" d="M503.145,71.429C503.145,71.345 503.077,71.278 502.994,71.278L474.623,71.278C474.539,71.278 474.471,71.345 474.471,71.429L474.471,72.56C474.471,72.643 474.539,72.711 474.623,72.711L502.994,72.711C503.077,72.711 503.145,72.643 503.145,72.56L503.145,71.429Z" style="fill:rgb(155,155,155);fill-opacity:0.55;"/>
            <path id="rect156941" serif:id="rect15694" d="M503.145,74.297C503.145,74.213 503.077,74.145 502.994,74.145L474.623,74.145C474.539,74.145 474.471,74.213 474.471,74.297L474.471,75.427C474.471,75.511 474.539,75.579 474.623,75.579L502.994,75.579C503.077,75.579 503.145,75.511 503.145,75.427L503.145,74.297Z" style="fill:rgb(155,155,155);fill-opacity:0.55;"/>
            <path id="rect156961" serif:id="rect15696" d="M503.145,77.164C503.145,77.08 503.077,77.012 502.994,77.012L474.623,77.012C474.539,77.012 474.471,77.08 474.471,77.164L474.471,78.294C474.471,78.378 474.539,78.446 474.623,78.446L502.994,78.446C503.077,78.446 503.145,78.378 503.145,78.294L503.145,77.164Z" style="fill:rgb(155,155,155);fill-opacity:0.55;"/>
            <path id="rect156981" serif:id="rect15698" d="M503.145,80.031C503.145,79.948 503.077,79.88 502.994,79.88L474.623,79.88C474.539,79.88 474.471,79.948 474.471,80.031L474.471,81.162C474.471,81.245 474.539,81.313 474.623,81.313L502.994,81.313C503.077,81.313 503.145,81.245 503.145,81.162L503.145,80.031Z" style="fill:rgb(155,155,155);fill-opacity:0.55;"/>
            <path id="rect157001" serif:id="rect15700" d="M503.145,82.899C503.145,82.815 503.077,82.747 502.994,82.747L474.623,82.747C474.539,82.747 474.471,82.815 474.471,82.899L474.471,84.029C474.471,84.113 474.539,84.181 474.623,84.181L502.994,84.181C503.077,84.181 503.145,84.113 503.145,84.029L503.145,82.899Z" style="fill:rgb(155,155,155);fill-opacity:0.55;"/>
            <path id="rect157321" serif:id="rect15732" d="M487.375,85.683C487.375,85.645 487.344,85.614 487.306,85.614L474.54,85.614C474.502,85.614 474.471,85.645 474.471,85.683L474.471,86.98C474.471,87.018 474.502,87.048 474.54,87.048L487.306,87.048C487.344,87.048 487.375,87.018 487.375,86.98L487.375,85.683Z" style="fill:rgb(155,155,155);fill-opacity:0.55;"/>
            <path id="rect157361" serif:id="rect15736" d="M503.145,91.501C503.145,91.417 503.077,91.349 502.994,91.349L474.623,91.349C474.539,91.349 474.471,91.417 474.471,91.501L474.471,92.631C474.471,92.715 474.539,92.783 474.623,92.783L502.994,92.783C503.077,92.783 503.145,92.715 503.145,92.631L503.145,91.501Z" style="fill:rgb(155,155,155);fill-opacity:0.55;"/>
            <path id="rect157381" serif:id="rect15738" d="M503.145,94.368C503.145,94.285 503.077,94.217 502.994,94.217L474.623,94.217C474.539,94.217 474.471,94.285 474.471,94.368L474.471,95.499C474.471,95.582 474.539,95.65 474.623,95.65L502.994,95.65C503.077,95.65 503.145,95.582 503.145,95.499L503.145,94.368Z" style="fill:rgb(155,155,155);fill-opacity:0.55;"/>
            <path id="rect157401" serif:id="rect15740" d="M503.145,97.236C503.145,97.152 503.077,97.084 502.994,97.084L474.623,97.084C474.539,97.084 474.471,97.152 474.471,97.236L474.471,98.366C474.471,98.45 474.539,98.518 474.623,98.518L502.994,98.518C503.077,98.518 503.145,98.45 503.145,98.366L503.145,97.236Z" style="fill:rgb(155,155,155);fill-opacity:0.55;"/>
            <path id="rect157421" serif:id="rect15742" d="M503.145,100.103C503.145,100.019 503.077,99.951 502.994,99.951L474.623,99.951C474.539,99.951 474.471,100.019 474.471,100.103L474.471,101.234C474.471,101.317 474.539,101.385 474.623,101.385L502.994,101.385C503.077,101.385 503.145,101.317 503.145,101.234L503.145,100.103Z" style="fill:rgb(155,155,155);fill-opacity:0.55;"/>
            <path id="rect157441" serif:id="rect15744" d="M494.543,102.925C494.543,102.866 494.496,102.819 494.437,102.819L474.578,102.819C474.519,102.819 474.471,102.866 474.471,102.925L474.471,104.146C474.471,104.205 474.519,104.252 474.578,104.252L494.437,104.252C494.496,104.252 494.543,104.205 494.543,104.146L494.543,102.925Z" style="fill:rgb(155,155,155);fill-opacity:0.55;"/>
        </g>
    </g>
    <path d="M381.913,161L393.913,167L381.913,173C384.913,170 384.913,164 381.913,161Z"/>
    <path d="M236,167L384.313,167" style="fill:none;stroke:black;stroke-width:2px;stroke-linecap:round;stroke-linejoin:round;stroke-miterlimit:1.5;"/>
    <g id="Alice-Public-Key-offen" serif:id="Alice Public Key offen">
        <path id="rect2723" d="M417.975,140.4C411.137,140.4 405.636,145.901 405.636,152.739L405.636,154.368L409.064,154.368L409.064,152.739C409.065,147.8 413.037,143.828 417.975,143.828C422.914,143.828 426.897,147.8 426.897,152.739L426.897,166.462L430.326,166.462L430.326,152.739C430.326,145.901 424.813,140.4 417.975,140.4Z" style="fill:rgb(40,40,40);"/>
        <path id="path3082" d="M417.969,141.294C411.511,141.294 406.322,146.849 406.322,153.186L406.322,154.368L408.377,154.368L408.377,152.515C408.377,147.669 412.349,143.445 417.288,143.445L418.661,143.445C423.6,143.445 427.572,147.669 427.572,152.515L427.572,168.666C427.572,172.19 425.434,175.166 422.387,176.553C426.64,174.853 429.626,170.772 429.626,165.972L429.626,153.186C429.626,146.849 424.427,141.294 417.969,141.294Z" style="fill:url(#_Linear11);"/>
        <path id="path2931" d="M417.97,140.688C411.323,140.688 405.982,146.009 405.982,152.611L405.982,154.368L408.09,154.368L408.09,151.908C408.09,146.86 412.184,141.997 417.267,141.997L418.683,141.997C423.766,141.997 427.86,146.86 427.86,151.908L427.86,168.729C427.86,172.401 425.651,175.503 422.515,176.948C426.893,175.173 429.968,170.929 429.968,165.929L429.968,152.611C429.968,146.009 424.616,140.687 417.97,140.687L417.97,140.688Z" style="fill:url(#_Linear12);"/>
        <path id="path2861" d="M412.907,143.808C411.055,144.968 410.012,146.946 410.216,147.605C410.436,148.315 411.738,145.141 415.423,144.157C418.264,143.399 415.423,142.233 412.907,143.808Z" style="fill:url(#_Radial13);"/>
        <path id="path2871" d="M423.052,143.774C424.904,144.934 425.947,146.911 425.743,147.571C425.523,148.281 424.221,145.107 420.536,144.123C417.695,143.365 420.536,142.199 423.052,143.774Z" style="fill:url(#_Radial14);"/>
        <path id="rect2875" d="M417.969,141.859C411.511,141.859 406.322,146.281 406.322,152.739L406.322,154.368L408.377,154.368L408.377,152.058C408.377,147.119 412.349,143.136 417.288,143.136L418.661,143.136C423.6,143.136 427.572,147.119 427.572,152.058L427.572,168.516C427.572,172.109 425.434,175.139 422.387,176.553C426.64,174.819 429.626,170.661 429.626,165.77L429.626,152.739C429.626,146.281 424.427,141.859 417.969,141.859Z" style="fill:url(#_Linear15);"/>
        <path id="path2933" d="M417.98,141.092C408.863,141.092 406.759,149.04 406.759,152.632C406.759,153.249 406.765,153.822 406.769,154.368L407.461,154.368C407.466,153.822 407.461,153.249 407.461,152.632C407.461,144.729 413.068,141.603 417.98,141.603C422.891,141.603 428.509,145.052 428.509,152.632C428.509,163.41 429.201,163.41 429.201,152.632C429.201,149.04 427.097,141.092 417.98,141.092Z" style="fill:url(#_Linear16);"/>
        <path id="path2885" d="M417.974,142.136C409.059,142.136 407.008,149.737 407.008,153.037C407.008,153.544 407.015,153.913 407.019,154.368L407.679,154.368C407.682,153.913 407.689,153.544 407.689,153.037C407.689,145.777 413.171,142.604 417.974,142.604C422.775,142.604 428.268,146.073 428.268,153.037C428.268,162.938 428.95,162.938 428.95,153.037C428.95,149.737 426.888,142.136 417.974,142.136Z" style="fill:url(#_Linear17);"/>
        <path id="path2897" d="M408.652,145.336C407.672,147.124 409.683,145.994 410.15,145.429C411.463,143.842 413.682,142.691 415.63,142.316C417.263,142.001 417.512,141.37 416.167,141.266C413.486,141.058 409.591,143.622 408.652,145.336Z" style="fill:white;fill-opacity:0.8;"/>
        <path id="path2901" d="M407.168,148.289C407.272,149.162 408.961,146.314 410.291,144.976C411.915,143.343 414.378,142.199 415.563,142.048C417.674,141.779 416.672,140.744 415.348,141.005C410.538,141.956 406.903,146.061 407.168,148.289Z" style="fill:white;fill-opacity:0.6;"/>
        <path id="path2909" d="M427.253,145.324C428.239,147.108 426.224,145.985 425.755,145.422C424.436,143.84 422.213,142.698 420.264,142.329C418.629,142.02 418.169,141.391 419.514,141.282C422.195,141.064 426.308,143.613 427.253,145.324Z" style="fill:white;fill-opacity:0.8;"/>
        <path id="path2911" d="M428.69,148.21C428.589,149.084 426.89,146.241 425.555,144.909C423.924,143.282 421.458,142.147 420.273,142.001C418.16,141.739 419.151,140.741 420.483,140.957C425.3,141.741 428.947,145.981 428.69,148.21Z" style="fill:white;fill-opacity:0.6;"/>
        <path id="path2953" d="M412.758,143.513C410.343,144.893 408.984,147.244 409.25,148.028C409.536,148.872 411.233,145.098 416.037,143.929C419.741,143.027 416.037,141.641 412.758,143.513Z" style="fill:url(#_Radial18);"/>
        <path id="path2957" d="M423.151,143.447C425.38,144.85 426.634,147.242 426.388,148.039C426.124,148.898 424.558,145.059 420.126,143.87C416.709,142.953 420.126,141.543 423.151,143.447Z" style="fill:url(#_Radial19);"/>
        <path id="path3055" d="M437.179,182.229C437.179,182.981 428.512,183.6 417.979,183.6C407.446,183.6 398.779,182.981 398.779,182.229C398.779,181.476 407.446,180.857 417.979,180.857C428.512,180.857 437.179,181.476 437.179,182.229Z" style="fill:url(#_Radial20);"/>
        <path id="path3065" d="M437.179,181.2C437.179,182.14 428.512,182.914 417.979,182.914C407.446,182.914 398.779,182.14 398.779,181.2C398.779,180.26 407.446,179.486 417.979,179.486C428.512,179.486 437.179,180.26 437.179,181.2Z" style="fill:url(#_Radial21);"/>
        <path id="path3067" d="M437.179,181.543C437.179,182.295 428.512,182.914 417.979,182.914C407.446,182.914 398.779,182.295 398.779,181.543C398.779,180.791 407.446,180.171 417.979,180.171C428.512,180.171 437.179,180.791 437.179,181.543Z" style="fill:url(#_Radial22);"/>
        <path id="rect1941" d="M431.694,159.43C431.694,159.336 431.618,159.26 431.524,159.26L404.436,159.26C404.342,159.26 404.265,159.336 404.265,159.43L404.265,181.662C404.265,181.756 404.342,181.832 404.436,181.832L431.524,181.832C431.618,181.832 431.694,181.756 431.694,181.662L431.694,159.43Z" style="fill:url(#_Linear23);"/>
        <path id="rect2709" d="M431.694,159.43C431.694,159.336 431.618,159.26 431.524,159.26L404.436,159.26C404.342,159.26 404.265,159.336 404.265,159.43L404.265,181.662C404.265,181.756 404.342,181.832 404.436,181.832L431.524,181.832C431.618,181.832 431.694,181.756 431.694,181.662L431.694,159.43Z" style="fill:url(#_Linear24);"/>
        <path id="rect2734" d="M431.694,159.43C431.694,159.336 431.618,159.26 431.524,159.26L404.436,159.26C404.342,159.26 404.265,159.336 404.265,159.43L404.265,181.662C404.265,181.756 404.342,181.832 404.436,181.832L431.524,181.832C431.618,181.832 431.694,181.756 431.694,181.662L431.694,159.43Z" style="fill:url(#_Linear25);"/>
        <path id="rect2738" d="M431.694,159.43C431.694,159.336 431.618,159.26 431.524,159.26L404.436,159.26C404.342,159.26 404.265,159.336 404.265,159.43L404.265,181.662C404.265,181.756 404.342,181.832 404.436,181.832L431.524,181.832C431.618,181.832 431.694,181.756 431.694,181.662L431.694,159.43Z" style="fill:url(#_Linear26);"/>
        <path id="path2727" d="M405.122,159.26C405.739,159.983 411.304,160.549 418.291,160.549C425.183,160.549 430.656,159.988 431.402,159.28C431.392,159.279 431.392,159.26 431.382,159.26L405.122,159.26Z" style="fill:white;fill-opacity:0.5;"/>
        <path id="path2778" d="M405.744,160.996C405.487,162.771 405.199,174.031 406.153,176.442C407.085,178.8 406.968,165.19 409.241,163.048C411.538,160.883 405.987,159.322 405.744,160.996Z" style="fill:url(#_Radial27);"/>
        <path id="path2790" d="M405.602,161.114C405.305,163.186 404.972,176.331 406.073,179.146C407.149,181.899 407.015,166.01 409.637,163.51C412.288,160.982 405.882,159.159 405.602,161.114Z" style="fill:url(#_Radial28);"/>
        <path id="path2794" d="M405.311,161.215C404.941,163.544 404.529,178.312 405.896,181.474C407.233,184.567 407.066,166.717 410.325,163.907C413.619,161.068 405.659,159.019 405.311,161.215Z" style="fill:url(#_Radial29);"/>
        <path id="path2805" d="M430.216,160.996C430.473,162.771 430.761,174.031 429.807,176.442C428.875,178.8 428.991,165.19 426.718,163.048C424.422,160.883 429.973,159.322 430.216,160.996Z" style="fill:url(#_Radial30);"/>
        <path id="path2807" d="M430.358,161.114C430.655,163.186 430.987,176.331 429.887,179.146C428.811,181.899 428.945,166.01 426.323,163.51C423.672,160.982 430.078,159.159 430.358,161.114Z" style="fill:url(#_Radial31);"/>
        <path id="path2809" d="M430.649,161.215C431.019,163.544 431.431,178.312 430.064,181.474C428.727,184.567 428.894,166.717 425.634,163.907C422.34,161.068 430.301,159.019 430.649,161.215Z" style="fill:url(#_Radial32);"/>
        <path id="rect3077" d="M431.184,178.801L431.184,181.489C431.184,181.68 431.035,181.833 430.854,181.833L405.106,181.833C404.923,181.833 404.776,181.68 404.776,181.489L404.776,171.945C404.776,182 431.184,164.832 431.184,178.801Z" style="fill:url(#_Linear33);"/>
        <path id="path2768" d="M404.791,181.833C405.408,181.111 410.973,180.542 417.96,180.542C424.852,180.542 430.326,181.104 431.072,181.813C431.058,181.813 431.062,181.833 431.052,181.833L404.791,181.833Z" style="fill-opacity:0.5;"/>
    </g>
    <g id="Alice-Public-Key-offen1" serif:id="Alice Public Key offen">
        <path id="rect27231" serif:id="rect2723" d="M210.152,140C203.314,140 197.813,145.501 197.813,152.339L197.813,153.968L201.241,153.968L201.241,152.339C201.241,147.4 205.213,143.428 210.152,143.428C215.09,143.428 219.073,147.4 219.073,152.339L219.073,166.062L222.502,166.062L222.502,152.339C222.502,145.501 216.99,140 210.152,140Z" style="fill:rgb(40,40,40);"/>
        <path id="path30821" serif:id="path3082" d="M210.145,140.894C203.687,140.894 198.498,146.449 198.498,152.786L198.498,153.968L200.553,153.968L200.553,152.115C200.553,147.269 204.525,143.045 209.464,143.045L210.837,143.045C215.776,143.045 219.748,147.269 219.748,152.115L219.748,168.266C219.748,171.79 217.611,174.766 214.563,176.153C218.816,174.453 221.803,170.372 221.803,165.572L221.803,152.786C221.803,146.449 216.603,140.894 210.145,140.894Z" style="fill:url(#_Linear34);"/>
        <path id="path29311" serif:id="path2931" d="M210.146,140.288C203.499,140.288 198.158,145.609 198.158,152.211L198.158,153.968L200.266,153.968L200.266,151.508C200.266,146.46 204.36,141.597 209.443,141.597L210.859,141.597C215.942,141.597 220.036,146.46 220.036,151.508L220.036,168.329C220.036,172.001 217.828,175.103 214.691,176.547C219.069,174.772 222.144,170.529 222.144,165.529L222.144,152.211C222.144,145.609 216.792,140.287 210.146,140.287L210.146,140.288Z" style="fill:url(#_Linear35);"/>
        <path id="path28611" serif:id="path2861" d="M205.084,143.408C203.231,144.568 202.188,146.545 202.392,147.205C202.612,147.915 203.914,144.741 207.599,143.757C210.441,142.999 207.599,141.833 205.084,143.408Z" style="fill:url(#_Radial36);"/>
        <path id="path28711" serif:id="path2871" d="M215.228,143.374C217.081,144.534 218.123,146.511 217.919,147.171C217.699,147.881 216.397,144.706 212.712,143.723C209.871,142.965 212.712,141.799 215.228,143.374Z" style="fill:url(#_Radial37);"/>
        <path id="rect28751" serif:id="rect2875" d="M210.145,141.458C203.687,141.458 198.498,145.881 198.498,152.339L198.498,153.968L200.553,153.968L200.553,151.658C200.553,146.719 204.525,142.736 209.464,142.736L210.837,142.736C215.776,142.736 219.748,146.719 219.748,151.658L219.748,168.116C219.748,171.708 217.611,174.739 214.563,176.153C218.816,174.419 221.803,170.261 221.803,165.37L221.803,152.339C221.803,145.881 216.603,141.458 210.145,141.458Z" style="fill:url(#_Linear38);"/>
        <path id="path29331" serif:id="path2933" d="M210.156,140.692C201.039,140.692 198.935,148.64 198.935,152.232C198.935,152.849 198.941,153.422 198.945,153.968L199.637,153.968C199.642,153.422 199.637,152.849 199.637,152.232C199.637,144.329 205.245,141.203 210.156,141.203C215.067,141.203 220.685,144.652 220.685,152.232C220.685,163.01 221.377,163.01 221.377,152.232C221.377,148.64 219.273,140.692 210.156,140.692Z" style="fill:url(#_Linear39);"/>
        <path id="path28851" serif:id="path2885" d="M210.15,141.735C201.235,141.735 199.184,149.337 199.184,152.637C199.184,153.144 199.191,153.513 199.195,153.968L199.855,153.968C199.858,153.513 199.866,153.144 199.866,152.637C199.866,145.377 205.348,142.204 210.15,142.204C214.952,142.204 220.444,145.673 220.444,152.637C220.444,162.538 221.126,162.538 221.126,152.637C221.126,149.337 219.064,141.735 210.15,141.735Z" style="fill:url(#_Linear40);"/>
        <path id="path28971" serif:id="path2897" d="M200.828,144.936C199.849,146.724 201.86,145.594 202.327,145.029C203.64,143.442 205.858,142.291 207.806,141.916C209.44,141.601 209.689,140.97 208.344,140.866C205.662,140.658 201.767,143.221 200.828,144.936Z" style="fill:white;fill-opacity:0.8;"/>
        <path id="path29011" serif:id="path2901" d="M199.344,147.889C199.448,148.762 201.137,145.913 202.467,144.576C204.092,142.942 206.554,141.799 207.739,141.648C209.85,141.379 208.848,140.344 207.525,140.605C202.714,141.556 199.079,145.661 199.344,147.889Z" style="fill:white;fill-opacity:0.6;"/>
        <path id="path29091" serif:id="path2909" d="M219.429,144.923C220.415,146.708 218.4,145.585 217.931,145.022C216.613,143.44 214.389,142.298 212.44,141.929C210.805,141.62 210.345,140.991 211.69,140.882C214.371,140.664 218.484,143.213 219.429,144.923Z" style="fill:white;fill-opacity:0.8;"/>
        <path id="path29111" serif:id="path2911" d="M220.866,147.81C220.766,148.684 219.066,145.841 217.731,144.509C216.101,142.881 213.634,141.747 212.449,141.6C210.336,141.339 211.327,140.341 212.659,140.557C217.477,141.341 221.123,145.581 220.866,147.81Z" style="fill:white;fill-opacity:0.6;"/>
        <path id="path29531" serif:id="path2953" d="M204.934,143.113C202.519,144.492 201.16,146.844 201.426,147.628C201.713,148.472 203.41,144.698 208.213,143.529C211.917,142.627 208.213,141.24 204.934,143.113Z" style="fill:url(#_Radial41);"/>
        <path id="path29571" serif:id="path2957" d="M215.328,143.047C217.556,144.45 218.81,146.842 218.564,147.639C218.3,148.498 216.734,144.659 212.302,143.47C208.885,142.553 212.303,141.143 215.328,143.047Z" style="fill:url(#_Radial42);"/>
        <path id="path30551" serif:id="path3055" d="M229.356,181.829C229.356,182.581 220.688,183.2 210.155,183.2C199.623,183.2 190.956,182.581 190.956,181.829C190.956,181.076 199.623,180.457 210.155,180.457C220.688,180.457 229.356,181.076 229.356,181.829Z" style="fill:url(#_Radial43);"/>
        <path id="path30651" serif:id="path3065" d="M229.356,180.8C229.356,181.74 220.688,182.514 210.155,182.514C199.623,182.514 190.956,181.74 190.956,180.8C190.956,179.859 199.623,179.085 210.155,179.085C220.688,179.085 229.356,179.859 229.356,180.8Z" style="fill:url(#_Radial44);"/>
        <path id="path30671" serif:id="path3067" d="M229.356,181.143C229.356,181.895 220.688,182.514 210.155,182.514C199.623,182.514 190.956,181.895 190.956,181.143C190.956,180.391 199.623,179.771 210.155,179.771C220.688,179.771 229.356,180.391 229.356,181.143Z" style="fill:url(#_Radial45);"/>
        <path id="rect19411" serif:id="rect1941" d="M223.87,159.03C223.87,158.936 223.794,158.859 223.7,158.859L196.612,158.859C196.518,158.859 196.441,158.936 196.441,159.03L196.441,181.262C196.441,181.356 196.518,181.432 196.612,181.432L223.7,181.432C223.794,181.432 223.87,181.356 223.87,181.262L223.87,159.03Z" style="fill:url(#_Linear46);"/>
        <path id="rect27091" serif:id="rect2709" d="M223.87,159.03C223.87,158.936 223.794,158.859 223.7,158.859L196.612,158.859C196.518,158.859 196.441,158.936 196.441,159.03L196.441,181.262C196.441,181.356 196.518,181.432 196.612,181.432L223.7,181.432C223.794,181.432 223.87,181.356 223.87,181.262L223.87,159.03Z" style="fill:url(#_Linear47);"/>
        <path id="rect27341" serif:id="rect2734" d="M223.87,159.03C223.87,158.936 223.794,158.859 223.7,158.859L196.612,158.859C196.518,158.859 196.441,158.936 196.441,159.03L196.441,181.262C196.441,181.356 196.518,181.432 196.612,181.432L223.7,181.432C223.794,181.432 223.87,181.356 223.87,181.262L223.87,159.03Z" style="fill:url(#_Linear48);"/>
        <path id="rect27381" serif:id="rect2738" d="M223.87,159.03C223.87,158.936 223.794,158.859 223.7,158.859L196.612,158.859C196.518,158.859 196.441,158.936 196.441,159.03L196.441,181.262C196.441,181.356 196.518,181.432 196.612,181.432L223.7,181.432C223.794,181.432 223.87,181.356 223.87,181.262L223.87,159.03Z" style="fill:url(#_Linear49);"/>
        <path id="path27271" serif:id="path2727" d="M197.299,158.859C197.915,159.582 203.48,160.149 210.467,160.149C217.359,160.149 222.833,159.588 223.579,158.88C223.568,158.879 223.568,158.859 223.558,158.859L197.299,158.859Z" style="fill:white;fill-opacity:0.5;"/>
        <path id="path27781" serif:id="path2778" d="M197.92,160.596C197.663,162.371 197.375,173.631 198.329,176.041C199.261,178.4 199.145,164.79 201.417,162.648C203.715,160.483 198.164,158.921 197.92,160.596Z" style="fill:url(#_Radial50);"/>
        <path id="path27901" serif:id="path2790" d="M197.779,160.714C197.481,162.786 197.149,175.931 198.249,178.745C199.325,181.498 199.191,165.61 201.814,163.11C204.464,160.582 198.059,158.759 197.779,160.714Z" style="fill:url(#_Radial51);"/>
        <path id="path27941" serif:id="path2794" d="M197.487,160.815C197.118,163.143 196.705,177.912 198.072,181.074C199.409,184.167 199.242,166.317 202.502,163.507C205.796,160.667 197.836,158.619 197.487,160.815Z" style="fill:url(#_Radial52);"/>
        <path id="path28051" serif:id="path2805" d="M222.392,160.596C222.649,162.371 222.938,173.631 221.984,176.041C221.051,178.4 221.168,164.79 218.895,162.648C216.598,160.483 222.149,158.921 222.392,160.596Z" style="fill:url(#_Radial53);"/>
        <path id="path28071" serif:id="path2807" d="M222.534,160.714C222.831,162.786 223.163,175.931 222.063,178.745C220.988,181.498 221.121,165.61 218.499,163.11C215.848,160.582 222.254,158.759 222.534,160.714Z" style="fill:url(#_Radial54);"/>
        <path id="path28091" serif:id="path2809" d="M222.825,160.815C223.195,163.143 223.607,177.912 222.241,181.074C220.903,184.167 221.07,166.317 217.811,163.507C214.517,160.667 222.477,158.619 222.825,160.815Z" style="fill:url(#_Radial55);"/>
        <path id="rect30771" serif:id="rect3077" d="M223.361,178.401L223.361,181.089C223.361,181.28 223.211,181.433 223.03,181.433L197.283,181.433C197.1,181.433 196.952,181.28 196.952,181.089L196.952,171.545C196.952,181.6 223.361,164.432 223.361,178.401Z" style="fill:url(#_Linear56);"/>
        <path id="path27681" serif:id="path2768" d="M196.967,181.433C197.584,180.711 203.149,180.142 210.136,180.142C217.028,180.142 222.502,180.704 223.248,181.413C223.235,181.413 223.238,181.433 223.228,181.433L196.967,181.433Z" style="fill-opacity:0.5;"/>
    </g>
    <g id="Bob-Private-Key" serif:id="Bob Private Key">
        <path id="path4196" d="M417.979,35.303C417.958,32.378 416.714,29.454 414.558,27.397C410.866,23.712 404.666,22.982 400.064,25.418C395.901,27.498 393.372,32.215 394.011,36.733C394.492,40.737 397.466,44.115 401.211,45.665L399.566,48.532C399.042,49.372 399.7,49.842 400.468,49.842L403.542,49.787L403.467,53.048L401.38,55.265L404.302,58.151L401.784,60.79L401.784,62.741L404.491,65.444L402.837,67.4L402.942,69.89L405.018,72.05L407.161,74.376C408.475,73.981 409.287,72.857 410.194,70.794L410.027,49.631L412.368,49.503C413.203,49.493 413.554,48.49 413.12,47.836L411.174,45.454C413.893,44.2 416.141,41.974 417.227,39.215C417.751,37.966 417.988,36.633 417.979,35.303L417.979,35.303Z" style="fill:rgb(194,175,126);fill-rule:nonzero;stroke:rgb(84,84,84);stroke-width:0.6px;stroke-linecap:round;stroke-linejoin:round;"/>
        <path id="path4192" d="M406.309,32.756C405.076,32.787 403.879,31.79 403.733,30.515C403.595,29.486 404.142,28.411 405.041,27.937C406.034,27.382 407.372,27.549 408.169,28.388C408.845,29.07 409.105,30.169 408.743,31.079C408.387,32.033 407.453,32.712 406.462,32.751C406.411,32.754 406.36,32.756 406.309,32.756L406.309,32.756Z" style="fill:white;fill-rule:nonzero;stroke:rgb(84,84,84);stroke-width:0.6px;stroke-linecap:round;stroke-linejoin:round;"/>
        <path id="path4201" d="M406.258,44.564L406.637,73.559L405.61,72.403L405.25,47.782L406.258,44.564Z" style="fill:rgb(255,238,170);fill-rule:nonzero;stroke:rgb(84,84,84);stroke-width:0.3px;stroke-linecap:round;stroke-linejoin:round;"/>
    </g>
    <g id="Alice-Private-Key" serif:id="Alice Private Key">
        <path id="path41961" serif:id="path4196" d="M122.255,151C119.329,151.021 116.406,152.266 114.349,154.422C110.664,158.114 109.933,164.313 112.37,168.915C114.449,173.079 119.167,175.607 123.684,174.968C127.689,174.487 131.066,171.513 132.616,167.768L135.483,169.413C136.323,169.937 136.794,169.28 136.794,168.511L136.739,165.437L140,165.513L142.217,167.599L145.103,164.677L147.741,167.195L149.692,167.195L152.395,164.488L154.351,166.142L156.841,166.037L159.001,163.961L161.327,161.819C160.933,160.505 159.809,159.692 157.745,158.785L136.583,158.952L136.455,156.612C136.444,155.776 135.441,155.425 134.787,155.86L132.405,157.805C131.151,155.086 128.925,152.838 126.167,151.752C124.917,151.228 123.584,150.991 122.255,151L122.255,151Z" style="fill:rgb(205,70,127);fill-rule:nonzero;stroke:rgb(84,84,84);stroke-width:0.6px;stroke-linecap:round;stroke-linejoin:round;"/>
        <path id="path41921" serif:id="path4192" d="M119.707,162.67C119.739,163.903 118.742,165.101 117.466,165.246C116.437,165.384 115.362,164.837 114.888,163.938C114.333,162.945 114.501,161.607 115.34,160.811C116.021,160.134 117.12,159.874 118.03,160.236C118.985,160.592 119.664,161.526 119.703,162.518C119.706,162.569 119.707,162.619 119.707,162.67L119.707,162.67Z" style="fill:white;fill-rule:nonzero;stroke:rgb(84,84,84);stroke-width:0.6px;stroke-linecap:round;stroke-linejoin:round;"/>
        <path id="path42011" serif:id="path4201" d="M131.516,162.721L160.51,162.342L159.355,163.369L134.734,163.729L131.516,162.721Z" style="fill:rgb(255,238,170);fill-rule:nonzero;stroke:rgb(84,84,84);stroke-width:0.3px;stroke-linecap:round;stroke-linejoin:round;"/>
    </g>
    <g id="Alice-Private-Key1" serif:id="Alice Private Key">
        <path id="path41962" serif:id="path4196" d="M135.018,32.303C134.997,29.378 133.752,26.454 131.596,24.397C127.904,20.712 121.705,19.982 117.103,22.418C112.939,24.498 110.411,29.215 111.05,33.733C111.531,37.737 114.505,41.115 118.25,42.665L116.605,45.532C116.081,46.372 116.738,46.842 117.507,46.842L120.581,46.787L120.505,50.048L118.419,52.265L121.341,55.151L118.823,57.79L118.823,59.741L121.53,62.444L119.876,64.4L119.981,66.89L122.057,69.05L124.199,71.376C125.513,70.981 126.326,69.857 127.233,67.794L127.066,46.631L129.406,46.503C130.241,46.493 130.593,45.49 130.158,44.836L128.213,42.454C130.932,41.2 133.18,38.974 134.266,36.215C134.79,34.966 135.027,33.633 135.018,32.303L135.018,32.303Z" style="fill:rgb(205,70,127);fill-rule:nonzero;stroke:rgb(84,84,84);stroke-width:0.6px;stroke-linecap:round;stroke-linejoin:round;"/>
        <path id="path41922" serif:id="path4192" d="M123.348,29.756C122.115,29.787 120.917,28.79 120.772,27.515C120.634,26.486 121.181,25.411 122.08,24.937C123.073,24.382 124.411,24.549 125.207,25.388C125.884,26.07 126.144,27.169 125.782,28.079C125.426,29.033 124.492,29.712 123.5,29.751C123.449,29.754 123.398,29.756 123.348,29.756L123.348,29.756Z" style="fill:white;fill-rule:nonzero;stroke:rgb(84,84,84);stroke-width:0.6px;stroke-linecap:round;stroke-linejoin:round;"/>
        <path id="path42012" serif:id="path4201" d="M123.297,41.564L123.676,70.559L122.649,69.403L122.289,44.782L123.297,41.564Z" style="fill:rgb(255,238,170);fill-rule:nonzero;stroke:rgb(84,84,84);stroke-width:0.3px;stroke-linecap:round;stroke-linejoin:round;"/>
    </g>
    <path d="M429,233.503L441,239.503L429,245.503C432,242.503 432,236.503 429,233.503Z"/>
    <path d="M88,239.503L431.4,239.503" style="fill:none;stroke:black;stroke-width:2px;stroke-linecap:round;stroke-linejoin:round;stroke-miterlimit:1.5;"/>
    <g id="asymm-verschlüsselt" serif:id="asymm verschlüsselt">
        <rect id="rect153912" serif:id="rect15391" x="31" y="208" width="50" height="58.667" style="fill:url(#_Radial57);stroke:url(#_Radial58);stroke-width:1.43px;stroke-linecap:round;stroke-linejoin:round;"/>
        <path id="rect156602" serif:id="rect15660" d="M79.514,209.493C79.514,209.411 79.447,209.344 79.365,209.344L32.672,209.344C32.59,209.344 32.523,209.411 32.523,209.493L32.523,265.032C32.523,265.114 32.59,265.181 32.672,265.181L79.365,265.181C79.447,265.181 79.514,265.114 79.514,265.032L79.514,209.493Z" style="fill:none;stroke:url(#_Radial59);stroke-width:1.43px;stroke-linecap:round;stroke-linejoin:round;"/>
        <g id="g22702" serif:id="g2270">
            <g id="g14402" serif:id="g1440">
                <path id="path14482" serif:id="path1448" d="M37.296,246.04C37.296,246.689 36.769,247.216 36.119,247.216C35.469,247.216 34.943,246.689 34.943,246.04C34.943,245.391 35.469,244.864 36.119,244.864C36.769,244.864 37.296,245.391 37.296,246.04Z" style="fill:white;fill-rule:nonzero;stroke:black;stroke-width:0.33px;"/>
                <path id="path14562" serif:id="path1456" d="M37.296,229.574C37.296,230.224 36.769,230.751 36.119,230.751C35.469,230.751 34.943,230.224 34.943,229.574C34.943,228.924 35.469,228.397 36.119,228.397C36.769,228.397 37.296,228.924 37.296,229.574Z" style="fill:white;fill-rule:nonzero;stroke:black;stroke-width:0.33px;"/>
            </g>
            <path id="path155702" serif:id="path15570" d="M36.789,245.66C36.789,246.311 36.262,246.837 35.612,246.837C34.962,246.837 34.436,246.309 34.436,245.66C34.436,245.01 34.963,244.484 35.612,244.484C36.262,244.484 36.789,245.01 36.789,245.66Z" style="fill:url(#_Radial60);fill-rule:nonzero;"/>
            <path id="path155772" serif:id="path15577" d="M36.789,229.194C36.789,229.843 36.262,230.371 35.612,230.371C34.962,230.371 34.436,229.843 34.436,229.194C34.436,228.544 34.963,228.017 35.612,228.017C36.262,228.017 36.789,228.544 36.789,229.194Z" style="fill:url(#_Radial61);fill-rule:nonzero;"/>
        </g>
        <path id="path156722" serif:id="path15672" d="M38.029,210.649L38.029,264.996" style="fill:none;fill-rule:nonzero;stroke:black;stroke-opacity:0.02;stroke-width:1.42px;"/>
        <path id="path156742" serif:id="path15674" d="M39.454,209.97L39.454,264.476" style="fill:none;fill-rule:nonzero;stroke:white;stroke-opacity:0.2;stroke-width:1.43px;"/>
        <g id="text3646">
            <text x="43.216px" y="230.538px" style="font-family:'LucidaGrande', 'Lucida Grande', sans-serif;font-weight:500;font-size:5.629px;">0<tspan x="47.69px 52.164px 56.638px 61.112px 65.586px 70.059px " y="230.538px 230.538px 230.538px 230.538px 230.538px 230.538px ">100101</tspan></text>
            <text x="43.216px" y="237.574px" style="font-family:'LucidaGrande', 'Lucida Grande', sans-serif;font-weight:500;font-size:5.629px;">1<tspan x="47.69px 52.164px 56.638px 61.112px 65.586px 70.059px " y="237.574px 237.574px 237.574px 237.574px 237.574px 237.574px ">110010</tspan></text>
            <text x="43.216px" y="244.611px" style="font-family:'LucidaGrande', 'Lucida Grande', sans-serif;font-weight:500;font-size:5.629px;">1<tspan x="47.69px 52.164px 56.638px 61.112px 65.586px 70.059px " y="244.611px 244.611px 244.611px 244.611px 244.611px 244.611px ">100110</tspan></text>
            <text x="43.216px" y="251.647px" style="font-family:'LucidaGrande', 'Lucida Grande', sans-serif;font-weight:500;font-size:5.629px;">1<tspan x="47.69px 52.164px 56.638px 61.112px 65.586px 70.059px " y="251.647px 251.647px 251.647px 251.647px 251.647px 251.647px ">101101</tspan></text>
            <text x="43.216px" y="258.683px" style="font-family:'LucidaGrande', 'Lucida Grande', sans-serif;font-weight:500;font-size:5.629px;">1<tspan x="47.69px 52.164px 56.638px 61.112px 65.586px 70.059px " y="258.683px 258.683px 258.683px 258.683px 258.683px 258.683px ">100001</tspan></text>
        </g>
        <g id="Alice-Private-Key2" serif:id="Alice Private Key">
            <path id="path41963" serif:id="path4196" d="M47.456,213.694C45.656,213.707 43.856,214.473 42.591,215.8C40.323,218.072 39.873,221.887 41.373,224.719C42.653,227.281 45.555,228.837 48.335,228.444C50.8,228.148 52.878,226.317 53.832,224.013L55.596,225.025C56.113,225.348 56.403,224.943 56.403,224.47L56.369,222.578L58.376,222.625L59.74,223.909L61.516,222.111L63.139,223.66L64.34,223.66L66.003,221.994L67.207,223.012L68.74,222.948L70.069,221.67L71.5,220.352C71.257,219.543 70.566,219.043 69.296,218.485L56.273,218.588L56.194,217.147C56.188,216.633 55.57,216.417 55.168,216.685L53.702,217.882C52.931,216.209 51.561,214.825 49.863,214.157C49.094,213.834 48.274,213.688 47.456,213.694L47.456,213.694Z" style="fill:rgb(205,70,127);fill-rule:nonzero;stroke:rgb(84,84,84);stroke-width:0.37px;stroke-linecap:round;stroke-linejoin:round;"/>
            <path id="path41923" serif:id="path4192" d="M45.888,220.876C45.908,221.634 45.294,222.371 44.509,222.461C43.876,222.546 43.214,222.209 42.923,221.656C42.581,221.045 42.684,220.222 43.2,219.731C43.62,219.315 44.296,219.155 44.856,219.378C45.444,219.597 45.861,220.171 45.885,220.782C45.887,220.813 45.888,220.844 45.888,220.876L45.888,220.876Z" style="fill:white;fill-rule:nonzero;stroke:rgb(84,84,84);stroke-width:0.37px;stroke-linecap:round;stroke-linejoin:round;"/>
            <path id="path42013" serif:id="path4201" d="M53.155,220.907L70.997,220.674L70.286,221.306L55.135,221.527L53.155,220.907Z" style="fill:rgb(255,238,170);fill-rule:nonzero;stroke:rgb(84,84,84);stroke-width:0.19px;stroke-linecap:round;stroke-linejoin:round;"/>
        </g>
    </g>
    <g id="asymm-verschlüsselt1" serif:id="asymm verschlüsselt">
        <rect id="rect153913" serif:id="rect15391" x="457" y="208" width="50" height="58.667" style="fill:url(#_Radial62);stroke:url(#_Radial63);stroke-width:1.43px;stroke-linecap:round;stroke-linejoin:round;"/>
        <path id="rect156603" serif:id="rect15660" d="M505.514,209.493C505.514,209.411 505.447,209.344 505.365,209.344L458.672,209.344C458.59,209.344 458.523,209.411 458.523,209.493L458.523,265.032C458.523,265.114 458.59,265.181 458.672,265.181L505.365,265.181C505.447,265.181 505.514,265.114 505.514,265.032L505.514,209.493Z" style="fill:none;stroke:url(#_Radial64);stroke-width:1.43px;stroke-linecap:round;stroke-linejoin:round;"/>
        <g id="g22703" serif:id="g2270">
            <g id="g14403" serif:id="g1440">
                <path id="path14483" serif:id="path1448" d="M463.296,246.04C463.296,246.689 462.769,247.216 462.119,247.216C461.469,247.216 460.943,246.689 460.943,246.04C460.943,245.391 461.469,244.864 462.119,244.864C462.769,244.864 463.296,245.391 463.296,246.04Z" style="fill:white;fill-rule:nonzero;stroke:black;stroke-width:0.33px;"/>
                <path id="path14563" serif:id="path1456" d="M463.296,229.574C463.296,230.224 462.769,230.751 462.119,230.751C461.469,230.751 460.943,230.224 460.943,229.574C460.943,228.924 461.469,228.397 462.119,228.397C462.769,228.397 463.296,228.924 463.296,229.574Z" style="fill:white;fill-rule:nonzero;stroke:black;stroke-width:0.33px;"/>
            </g>
            <path id="path155703" serif:id="path15570" d="M462.789,245.66C462.789,246.311 462.262,246.837 461.612,246.837C460.962,246.837 460.436,246.309 460.436,245.66C460.436,245.01 460.963,244.484 461.612,244.484C462.262,244.484 462.789,245.01 462.789,245.66Z" style="fill:url(#_Radial65);fill-rule:nonzero;"/>
            <path id="path155773" serif:id="path15577" d="M462.789,229.194C462.789,229.843 462.262,230.371 461.612,230.371C460.962,230.371 460.436,229.843 460.436,229.194C460.436,228.544 460.963,228.017 461.612,228.017C462.262,228.017 462.789,228.544 462.789,229.194Z" style="fill:url(#_Radial66);fill-rule:nonzero;"/>
        </g>
        <path id="path156723" serif:id="path15672" d="M464.029,210.649L464.029,264.996" style="fill:none;fill-rule:nonzero;stroke:black;stroke-opacity:0.02;stroke-width:1.42px;"/>
        <path id="path156743" serif:id="path15674" d="M465.454,209.97L465.454,264.476" style="fill:none;fill-rule:nonzero;stroke:white;stroke-opacity:0.2;stroke-width:1.43px;"/>
        <g id="text36461" serif:id="text3646">
            <text x="469.216px" y="230.538px" style="font-family:'LucidaGrande', 'Lucida Grande', sans-serif;font-weight:500;font-size:5.629px;">0<tspan x="473.69px 478.164px 482.638px 487.112px 491.586px 496.059px " y="230.538px 230.538px 230.538px 230.538px 230.538px 230.538px ">100101</tspan></text>
            <text x="469.216px" y="237.574px" style="font-family:'LucidaGrande', 'Lucida Grande', sans-serif;font-weight:500;font-size:5.629px;">1<tspan x="473.69px 478.164px 482.638px 487.112px 491.586px 496.059px " y="237.574px 237.574px 237.574px 237.574px 237.574px 237.574px ">110010</tspan></text>
            <text x="469.216px" y="244.611px" style="font-family:'LucidaGrande', 'Lucida Grande', sans-serif;font-weight:500;font-size:5.629px;">1<tspan x="473.69px 478.164px 482.638px 487.112px 491.586px 496.059px " y="244.611px 244.611px 244.611px 244.611px 244.611px 244.611px ">100110</tspan></text>
            <text x="469.216px" y="251.647px" style="font-family:'LucidaGrande', 'Lucida Grande', sans-serif;font-weight:500;font-size:5.629px;">1<tspan x="473.69px 478.164px 482.638px 487.112px 491.586px 496.059px " y="251.647px 251.647px 251.647px 251.647px 251.647px 251.647px ">101101</tspan></text>
            <text x="469.216px" y="258.683px" style="font-family:'LucidaGrande', 'Lucida Grande', sans-serif;font-weight:500;font-size:5.629px;">1<tspan x="473.69px 478.164px 482.638px 487.112px 491.586px 496.059px " y="258.683px 258.683px 258.683px 258.683px 258.683px 258.683px ">100001</tspan></text>
        </g>
        <g id="Alice-Private-Key3" serif:id="Alice Private Key">
            <path id="path41964" serif:id="path4196" d="M473.456,213.694C471.656,213.707 469.856,214.473 468.591,215.8C466.323,218.072 465.873,221.887 467.373,224.719C468.653,227.281 471.555,228.837 474.335,228.444C476.8,228.148 478.878,226.317 479.832,224.013L481.596,225.025C482.113,225.348 482.403,224.943 482.403,224.47L482.369,222.578L484.376,222.625L485.74,223.909L487.516,222.111L489.139,223.66L490.34,223.66L492.003,221.994L493.207,223.012L494.74,222.948L496.069,221.67L497.5,220.352C497.257,219.543 496.566,219.043 495.296,218.485L482.273,218.588L482.194,217.147C482.188,216.633 481.57,216.417 481.168,216.685L479.702,217.882C478.931,216.209 477.561,214.825 475.863,214.157C475.094,213.834 474.274,213.688 473.456,213.694L473.456,213.694Z" style="fill:rgb(205,70,127);fill-rule:nonzero;stroke:rgb(84,84,84);stroke-width:0.37px;stroke-linecap:round;stroke-linejoin:round;"/>
            <path id="path41924" serif:id="path4192" d="M471.888,220.876C471.908,221.634 471.294,222.371 470.509,222.461C469.876,222.546 469.214,222.209 468.923,221.656C468.581,221.045 468.684,220.222 469.2,219.731C469.62,219.315 470.296,219.155 470.856,219.378C471.444,219.597 471.861,220.171 471.885,220.782C471.887,220.813 471.888,220.844 471.888,220.876L471.888,220.876Z" style="fill:white;fill-rule:nonzero;stroke:rgb(84,84,84);stroke-width:0.37px;stroke-linecap:round;stroke-linejoin:round;"/>
            <path id="path42014" serif:id="path4201" d="M479.155,220.907L496.997,220.674L496.286,221.306L481.135,221.527L479.155,220.907Z" style="fill:rgb(255,238,170);fill-rule:nonzero;stroke:rgb(84,84,84);stroke-width:0.19px;stroke-linecap:round;stroke-linejoin:round;"/>
        </g>
    </g>
    <defs>
        <radialGradient id="_Radial1" cx="0" cy="0" r="1" gradientUnits="userSpaceOnUse" gradientTransform="matrix(119.401,0,0,129.422,68.3066,90.1562)"><stop offset="0" style="stop-color:rgb(250,250,250);stop-opacity:1"/><stop offset="1" style="stop-color:rgb(187,187,187);stop-opacity:1"/></radialGradient>
        <radialGradient id="_Radial2" cx="0" cy="0" r="1" gradientUnits="userSpaceOnUse" gradientTransform="matrix(52.4074,0,0,55.9,38.5905,43.3031)"><stop offset="0" style="stop-color:rgb(163,163,163);stop-opacity:1"/><stop offset="1" style="stop-color:rgb(76,76,76);stop-opacity:1"/></radialGradient>
        <radialGradient id="_Radial3" cx="0" cy="0" r="1" gradientUnits="userSpaceOnUse" gradientTransform="matrix(52.9724,0,0,56.5027,37.6455,48.5031)"><stop offset="0" style="stop-color:white;stop-opacity:1"/><stop offset="1" style="stop-color:rgb(248,248,248);stop-opacity:1"/></radialGradient>
        <radialGradient id="_Radial4" cx="0" cy="0" r="1" gradientUnits="userSpaceOnUse" gradientTransform="matrix(1.7309,0,0,1.7309,35.9538,80.196)"><stop offset="0" style="stop-color:rgb(240,240,240);stop-opacity:1"/><stop offset="1" style="stop-color:rgb(154,154,154);stop-opacity:1"/></radialGradient>
        <radialGradient id="_Radial5" cx="0" cy="0" r="1" gradientUnits="userSpaceOnUse" gradientTransform="matrix(1.73123,0,0,1.73123,35.9538,63.7294)"><stop offset="0" style="stop-color:rgb(240,240,240);stop-opacity:1"/><stop offset="1" style="stop-color:rgb(154,154,154);stop-opacity:1"/></radialGradient>
        <radialGradient id="_Radial6" cx="0" cy="0" r="1" gradientUnits="userSpaceOnUse" gradientTransform="matrix(119.401,0,0,129.422,498.307,103.114)"><stop offset="0" style="stop-color:rgb(250,250,250);stop-opacity:1"/><stop offset="1" style="stop-color:rgb(187,187,187);stop-opacity:1"/></radialGradient>
        <radialGradient id="_Radial7" cx="0" cy="0" r="1" gradientUnits="userSpaceOnUse" gradientTransform="matrix(52.4074,0,0,55.9,468.591,56.2607)"><stop offset="0" style="stop-color:rgb(163,163,163);stop-opacity:1"/><stop offset="1" style="stop-color:rgb(76,76,76);stop-opacity:1"/></radialGradient>
        <radialGradient id="_Radial8" cx="0" cy="0" r="1" gradientUnits="userSpaceOnUse" gradientTransform="matrix(52.9724,0,0,56.5027,467.645,61.4607)"><stop offset="0" style="stop-color:white;stop-opacity:1"/><stop offset="1" style="stop-color:rgb(248,248,248);stop-opacity:1"/></radialGradient>
        <radialGradient id="_Radial9" cx="0" cy="0" r="1" gradientUnits="userSpaceOnUse" gradientTransform="matrix(1.7309,0,0,1.7309,465.954,93.1536)"><stop offset="0" style="stop-color:rgb(240,240,240);stop-opacity:1"/><stop offset="1" style="stop-color:rgb(154,154,154);stop-opacity:1"/></radialGradient>
        <radialGradient id="_Radial10" cx="0" cy="0" r="1" gradientUnits="userSpaceOnUse" gradientTransform="matrix(1.73123,0,0,1.73123,465.954,76.687)"><stop offset="0" style="stop-color:rgb(240,240,240);stop-opacity:1"/><stop offset="1" style="stop-color:rgb(154,154,154);stop-opacity:1"/></radialGradient>
        <linearGradient id="_Linear11" x1="0" y1="0" x2="1" y2="0" gradientUnits="userSpaceOnUse" gradientTransform="matrix(5.12571e-16,8.37093,-8.37093,5.12571e-16,416.044,141.752)"><stop offset="0" style="stop-color:white;stop-opacity:0.65"/><stop offset="1" style="stop-color:white;stop-opacity:0"/></linearGradient>
        <linearGradient id="_Linear12" x1="0" y1="0" x2="1" y2="0" gradientUnits="userSpaceOnUse" gradientTransform="matrix(0.759245,-4.28043,4.28043,0.759245,417.433,149.13)"><stop offset="0" style="stop-color:white;stop-opacity:0.5"/><stop offset="1" style="stop-color:white;stop-opacity:0"/></linearGradient>
        <radialGradient id="_Radial13" cx="0" cy="0" r="1" gradientUnits="userSpaceOnUse" gradientTransform="matrix(4.89221,0,0,3.56899,413.327,144.997)"><stop offset="0" style="stop-color:rgb(255,225,156);stop-opacity:0.8"/><stop offset="1" style="stop-color:rgb(183,158,79);stop-opacity:0"/></radialGradient>
        <radialGradient id="_Radial14" cx="0" cy="0" r="1" gradientUnits="userSpaceOnUse" gradientTransform="matrix(-4.89221,0,0,3.56899,422.631,144.963)"><stop offset="0" style="stop-color:rgb(255,225,156);stop-opacity:0.8"/><stop offset="1" style="stop-color:rgb(183,158,79);stop-opacity:0"/></radialGradient>
        <linearGradient id="_Linear15" x1="0" y1="0" x2="1" y2="0" gradientUnits="userSpaceOnUse" gradientTransform="matrix(1.02966e-16,-1.68156,1.68156,1.02966e-16,417.593,147.812)"><stop offset="0" style="stop-color:white;stop-opacity:0.5"/><stop offset="1" style="stop-color:white;stop-opacity:0"/></linearGradient>
        <linearGradient id="_Linear16" x1="0" y1="0" x2="1" y2="0" gradientUnits="userSpaceOnUse" gradientTransform="matrix(1.53886e-15,-25.1314,25.1314,1.53886e-15,420.529,155.297)"><stop offset="0" style="stop-color:white;stop-opacity:0.8"/><stop offset="1" style="stop-color:white;stop-opacity:0"/></linearGradient>
        <linearGradient id="_Linear17" x1="0" y1="0" x2="1" y2="0" gradientUnits="userSpaceOnUse" gradientTransform="matrix(1.41367e-15,-23.0869,23.0869,1.41367e-15,420.467,155.482)"><stop offset="0" style="stop-color:white;stop-opacity:0.6"/><stop offset="1" style="stop-color:white;stop-opacity:0"/></linearGradient>
        <radialGradient id="_Radial18" cx="0" cy="0" r="1" gradientUnits="userSpaceOnUse" gradientTransform="matrix(6.37729,0,0,4.24374,413.304,144.927)"><stop offset="0" style="stop-color:rgb(255,225,156);stop-opacity:0.4"/><stop offset="1" style="stop-color:rgb(183,158,79);stop-opacity:0"/></radialGradient>
        <radialGradient id="_Radial19" cx="0" cy="0" r="1" gradientUnits="userSpaceOnUse" gradientTransform="matrix(-5.88385,0,0,4.31609,422.648,144.885)"><stop offset="0" style="stop-color:rgb(255,225,156);stop-opacity:0.4"/><stop offset="1" style="stop-color:rgb(183,158,79);stop-opacity:0"/></radialGradient>
        <radialGradient id="_Radial20" cx="0" cy="0" r="1" gradientUnits="userSpaceOnUse" gradientTransform="matrix(19.2001,0,0,1.37142,417.979,182.228)"><stop offset="0" style="stop-color:rgb(40,40,40);stop-opacity:0.4"/><stop offset="1" style="stop-color:rgb(40,40,40);stop-opacity:0"/></radialGradient>
        <radialGradient id="_Radial21" cx="0" cy="0" r="1" gradientUnits="userSpaceOnUse" gradientTransform="matrix(19.2001,0,0,1.71427,417.979,181.199)"><stop offset="0" style="stop-color:rgb(40,40,40);stop-opacity:0.4"/><stop offset="1" style="stop-color:rgb(40,40,40);stop-opacity:0"/></radialGradient>
        <radialGradient id="_Radial22" cx="0" cy="0" r="1" gradientUnits="userSpaceOnUse" gradientTransform="matrix(19.2001,0,0,1.37142,417.979,181.542)"><stop offset="0" style="stop-color:rgb(40,40,40);stop-opacity:0.4"/><stop offset="1" style="stop-color:rgb(40,40,40);stop-opacity:0"/></radialGradient>
        <linearGradient id="_Linear23" x1="0" y1="0" x2="1" y2="0" gradientUnits="userSpaceOnUse" gradientTransform="matrix(11.0766,0,0,11.0766,417.745,172.939)"><stop offset="0" style="stop-color:rgb(183,35,108);stop-opacity:1"/><stop offset="0.75" style="stop-color:rgb(224,79,132);stop-opacity:1"/><stop offset="1" style="stop-color:rgb(238,105,162);stop-opacity:1"/></linearGradient>
        <linearGradient id="_Linear24" x1="0" y1="0" x2="1" y2="0" gradientUnits="userSpaceOnUse" gradientTransform="matrix(3.57675e-17,0.584127,-0.584127,3.57675e-17,418.028,168.211)"><stop offset="0" style="stop-color:black;stop-opacity:0.03"/><stop offset="1" style="stop-color:white;stop-opacity:0.03"/></linearGradient>
        <linearGradient id="_Linear25" x1="0" y1="0" x2="1" y2="0" gradientUnits="userSpaceOnUse" gradientTransform="matrix(0.260783,1.16763,-1.16763,0.260783,414.375,166.752)"><stop offset="0" style="stop-color:black;stop-opacity:0.03"/><stop offset="1" style="stop-color:white;stop-opacity:0.03"/></linearGradient>
        <linearGradient id="_Linear26" x1="0" y1="0" x2="1" y2="0" gradientUnits="userSpaceOnUse" gradientTransform="matrix(-0.194264,1.45939,-1.45939,-0.194264,409.402,176.968)"><stop offset="0" style="stop-color:black;stop-opacity:0.03"/><stop offset="1" style="stop-color:white;stop-opacity:0.03"/></linearGradient>
        <radialGradient id="_Radial27" cx="0" cy="0" r="1" gradientUnits="userSpaceOnUse" gradientTransform="matrix(3.84756,0,0,14.6833,406.483,161.99)"><stop offset="0" style="stop-color:white;stop-opacity:0.4"/><stop offset="1" style="stop-color:white;stop-opacity:0"/></radialGradient>
        <radialGradient id="_Radial28" cx="0" cy="0" r="1" gradientUnits="userSpaceOnUse" gradientTransform="matrix(4.44007,0,0,17.1411,406.455,162.274)"><stop offset="0" style="stop-color:white;stop-opacity:0.3"/><stop offset="1" style="stop-color:white;stop-opacity:0"/></radialGradient>
        <radialGradient id="_Radial29" cx="0" cy="0" r="1" gradientUnits="userSpaceOnUse" gradientTransform="matrix(5.51732,0,0,19.2581,406.371,162.52)"><stop offset="0" style="stop-color:white;stop-opacity:0.2"/><stop offset="1" style="stop-color:white;stop-opacity:0"/></radialGradient>
        <radialGradient id="_Radial30" cx="0" cy="0" r="1" gradientUnits="userSpaceOnUse" gradientTransform="matrix(-3.84756,0,0,14.6833,429.476,161.99)"><stop offset="0" style="stop-color:white;stop-opacity:0.4"/><stop offset="1" style="stop-color:white;stop-opacity:0"/></radialGradient>
        <radialGradient id="_Radial31" cx="0" cy="0" r="1" gradientUnits="userSpaceOnUse" gradientTransform="matrix(-4.44007,0,0,17.1411,429.505,162.274)"><stop offset="0" style="stop-color:white;stop-opacity:0.3"/><stop offset="1" style="stop-color:white;stop-opacity:0"/></radialGradient>
        <radialGradient id="_Radial32" cx="0" cy="0" r="1" gradientUnits="userSpaceOnUse" gradientTransform="matrix(-5.51732,0,0,19.2581,429.589,162.52)"><stop offset="0" style="stop-color:white;stop-opacity:0.2"/><stop offset="1" style="stop-color:white;stop-opacity:0"/></radialGradient>
        <linearGradient id="_Linear33" x1="0" y1="0" x2="1" y2="0" gradientUnits="userSpaceOnUse" gradientTransform="matrix(9.02721e-16,-14.7426,14.7426,9.02721e-16,416.484,182.098)"><stop offset="0" style="stop-color:white;stop-opacity:0.25"/><stop offset="1" style="stop-color:white;stop-opacity:0"/></linearGradient>
        <linearGradient id="_Linear34" x1="0" y1="0" x2="1" y2="0" gradientUnits="userSpaceOnUse" gradientTransform="matrix(5.12571e-16,8.37093,-8.37093,5.12571e-16,208.221,141.352)"><stop offset="0" style="stop-color:white;stop-opacity:0.65"/><stop offset="1" style="stop-color:white;stop-opacity:0"/></linearGradient>
        <linearGradient id="_Linear35" x1="0" y1="0" x2="1" y2="0" gradientUnits="userSpaceOnUse" gradientTransform="matrix(0.759245,-4.28043,4.28043,0.759245,209.609,148.729)"><stop offset="0" style="stop-color:white;stop-opacity:0.5"/><stop offset="1" style="stop-color:white;stop-opacity:0"/></linearGradient>
        <radialGradient id="_Radial36" cx="0" cy="0" r="1" gradientUnits="userSpaceOnUse" gradientTransform="matrix(4.89221,0,0,3.56899,205.503,144.597)"><stop offset="0" style="stop-color:rgb(255,225,156);stop-opacity:0.8"/><stop offset="1" style="stop-color:rgb(183,158,79);stop-opacity:0"/></radialGradient>
        <radialGradient id="_Radial37" cx="0" cy="0" r="1" gradientUnits="userSpaceOnUse" gradientTransform="matrix(-4.89221,0,0,3.56899,214.807,144.563)"><stop offset="0" style="stop-color:rgb(255,225,156);stop-opacity:0.8"/><stop offset="1" style="stop-color:rgb(183,158,79);stop-opacity:0"/></radialGradient>
        <linearGradient id="_Linear38" x1="0" y1="0" x2="1" y2="0" gradientUnits="userSpaceOnUse" gradientTransform="matrix(1.02966e-16,-1.68156,1.68156,1.02966e-16,209.77,147.412)"><stop offset="0" style="stop-color:white;stop-opacity:0.5"/><stop offset="1" style="stop-color:white;stop-opacity:0"/></linearGradient>
        <linearGradient id="_Linear39" x1="0" y1="0" x2="1" y2="0" gradientUnits="userSpaceOnUse" gradientTransform="matrix(1.53886e-15,-25.1314,25.1314,1.53886e-15,212.705,154.897)"><stop offset="0" style="stop-color:white;stop-opacity:0.8"/><stop offset="1" style="stop-color:white;stop-opacity:0"/></linearGradient>
        <linearGradient id="_Linear40" x1="0" y1="0" x2="1" y2="0" gradientUnits="userSpaceOnUse" gradientTransform="matrix(1.41367e-15,-23.0869,23.0869,1.41367e-15,212.643,155.082)"><stop offset="0" style="stop-color:white;stop-opacity:0.6"/><stop offset="1" style="stop-color:white;stop-opacity:0"/></linearGradient>
        <radialGradient id="_Radial41" cx="0" cy="0" r="1" gradientUnits="userSpaceOnUse" gradientTransform="matrix(6.37729,0,0,4.24374,205.48,144.527)"><stop offset="0" style="stop-color:rgb(255,225,156);stop-opacity:0.4"/><stop offset="1" style="stop-color:rgb(183,158,79);stop-opacity:0"/></radialGradient>
        <radialGradient id="_Radial42" cx="0" cy="0" r="1" gradientUnits="userSpaceOnUse" gradientTransform="matrix(-5.88385,0,0,4.31609,214.825,144.485)"><stop offset="0" style="stop-color:rgb(255,225,156);stop-opacity:0.4"/><stop offset="1" style="stop-color:rgb(183,158,79);stop-opacity:0"/></radialGradient>
        <radialGradient id="_Radial43" cx="0" cy="0" r="1" gradientUnits="userSpaceOnUse" gradientTransform="matrix(19.2001,0,0,1.37142,210.156,181.828)"><stop offset="0" style="stop-color:rgb(40,40,40);stop-opacity:0.4"/><stop offset="1" style="stop-color:rgb(40,40,40);stop-opacity:0"/></radialGradient>
        <radialGradient id="_Radial44" cx="0" cy="0" r="1" gradientUnits="userSpaceOnUse" gradientTransform="matrix(19.2001,0,0,1.71427,210.156,180.799)"><stop offset="0" style="stop-color:rgb(40,40,40);stop-opacity:0.4"/><stop offset="1" style="stop-color:rgb(40,40,40);stop-opacity:0"/></radialGradient>
        <radialGradient id="_Radial45" cx="0" cy="0" r="1" gradientUnits="userSpaceOnUse" gradientTransform="matrix(19.2001,0,0,1.37142,210.156,181.142)"><stop offset="0" style="stop-color:rgb(40,40,40);stop-opacity:0.4"/><stop offset="1" style="stop-color:rgb(40,40,40);stop-opacity:0"/></radialGradient>
        <linearGradient id="_Linear46" x1="0" y1="0" x2="1" y2="0" gradientUnits="userSpaceOnUse" gradientTransform="matrix(11.0766,0,0,11.0766,209.922,172.539)"><stop offset="0" style="stop-color:rgb(183,35,108);stop-opacity:1"/><stop offset="0.75" style="stop-color:rgb(224,79,132);stop-opacity:1"/><stop offset="1" style="stop-color:rgb(238,105,162);stop-opacity:1"/></linearGradient>
        <linearGradient id="_Linear47" x1="0" y1="0" x2="1" y2="0" gradientUnits="userSpaceOnUse" gradientTransform="matrix(3.57675e-17,0.584127,-0.584127,3.57675e-17,210.205,167.811)"><stop offset="0" style="stop-color:black;stop-opacity:0.03"/><stop offset="1" style="stop-color:white;stop-opacity:0.03"/></linearGradient>
        <linearGradient id="_Linear48" x1="0" y1="0" x2="1" y2="0" gradientUnits="userSpaceOnUse" gradientTransform="matrix(0.260783,1.16763,-1.16763,0.260783,206.551,166.352)"><stop offset="0" style="stop-color:black;stop-opacity:0.03"/><stop offset="1" style="stop-color:white;stop-opacity:0.03"/></linearGradient>
        <linearGradient id="_Linear49" x1="0" y1="0" x2="1" y2="0" gradientUnits="userSpaceOnUse" gradientTransform="matrix(-0.194264,1.45939,-1.45939,-0.194264,201.578,176.568)"><stop offset="0" style="stop-color:black;stop-opacity:0.03"/><stop offset="1" style="stop-color:white;stop-opacity:0.03"/></linearGradient>
        <radialGradient id="_Radial50" cx="0" cy="0" r="1" gradientUnits="userSpaceOnUse" gradientTransform="matrix(3.84756,0,0,14.6833,198.66,161.59)"><stop offset="0" style="stop-color:white;stop-opacity:0.4"/><stop offset="1" style="stop-color:white;stop-opacity:0"/></radialGradient>
        <radialGradient id="_Radial51" cx="0" cy="0" r="1" gradientUnits="userSpaceOnUse" gradientTransform="matrix(4.44007,0,0,17.1411,198.631,161.874)"><stop offset="0" style="stop-color:white;stop-opacity:0.3"/><stop offset="1" style="stop-color:white;stop-opacity:0"/></radialGradient>
        <radialGradient id="_Radial52" cx="0" cy="0" r="1" gradientUnits="userSpaceOnUse" gradientTransform="matrix(5.51732,0,0,19.2581,198.547,162.12)"><stop offset="0" style="stop-color:white;stop-opacity:0.2"/><stop offset="1" style="stop-color:white;stop-opacity:0"/></radialGradient>
        <radialGradient id="_Radial53" cx="0" cy="0" r="1" gradientUnits="userSpaceOnUse" gradientTransform="matrix(-3.84756,0,0,14.6833,221.653,161.59)"><stop offset="0" style="stop-color:white;stop-opacity:0.4"/><stop offset="1" style="stop-color:white;stop-opacity:0"/></radialGradient>
        <radialGradient id="_Radial54" cx="0" cy="0" r="1" gradientUnits="userSpaceOnUse" gradientTransform="matrix(-4.44007,0,0,17.1411,221.681,161.874)"><stop offset="0" style="stop-color:white;stop-opacity:0.3"/><stop offset="1" style="stop-color:white;stop-opacity:0"/></radialGradient>
        <radialGradient id="_Radial55" cx="0" cy="0" r="1" gradientUnits="userSpaceOnUse" gradientTransform="matrix(-5.51732,0,0,19.2581,221.765,162.12)"><stop offset="0" style="stop-color:white;stop-opacity:0.2"/><stop offset="1" style="stop-color:white;stop-opacity:0"/></radialGradient>
        <linearGradient id="_Linear56" x1="0" y1="0" x2="1" y2="0" gradientUnits="userSpaceOnUse" gradientTransform="matrix(9.02721e-16,-14.7426,14.7426,9.02721e-16,208.66,181.698)"><stop offset="0" style="stop-color:white;stop-opacity:0.25"/><stop offset="1" style="stop-color:white;stop-opacity:0"/></linearGradient>
        <radialGradient id="_Radial57" cx="0" cy="0" r="1" gradientUnits="userSpaceOnUse" gradientTransform="matrix(119.401,0,0,129.422,68.3066,256.114)"><stop offset="0" style="stop-color:rgb(250,250,250);stop-opacity:1"/><stop offset="1" style="stop-color:rgb(187,187,187);stop-opacity:1"/></radialGradient>
        <radialGradient id="_Radial58" cx="0" cy="0" r="1" gradientUnits="userSpaceOnUse" gradientTransform="matrix(52.4074,0,0,55.9,38.5905,209.261)"><stop offset="0" style="stop-color:rgb(163,163,163);stop-opacity:1"/><stop offset="1" style="stop-color:rgb(76,76,76);stop-opacity:1"/></radialGradient>
        <radialGradient id="_Radial59" cx="0" cy="0" r="1" gradientUnits="userSpaceOnUse" gradientTransform="matrix(52.9724,0,0,56.5027,37.6455,214.461)"><stop offset="0" style="stop-color:white;stop-opacity:1"/><stop offset="1" style="stop-color:rgb(248,248,248);stop-opacity:1"/></radialGradient>
        <radialGradient id="_Radial60" cx="0" cy="0" r="1" gradientUnits="userSpaceOnUse" gradientTransform="matrix(1.7309,0,0,1.7309,35.9538,246.154)"><stop offset="0" style="stop-color:rgb(240,240,240);stop-opacity:1"/><stop offset="1" style="stop-color:rgb(154,154,154);stop-opacity:1"/></radialGradient>
        <radialGradient id="_Radial61" cx="0" cy="0" r="1" gradientUnits="userSpaceOnUse" gradientTransform="matrix(1.73123,0,0,1.73123,35.9538,229.687)"><stop offset="0" style="stop-color:rgb(240,240,240);stop-opacity:1"/><stop offset="1" style="stop-color:rgb(154,154,154);stop-opacity:1"/></radialGradient>
        <radialGradient id="_Radial62" cx="0" cy="0" r="1" gradientUnits="userSpaceOnUse" gradientTransform="matrix(119.401,0,0,129.422,494.307,256.114)"><stop offset="0" style="stop-color:rgb(250,250,250);stop-opacity:1"/><stop offset="1" style="stop-color:rgb(187,187,187);stop-opacity:1"/></radialGradient>
        <radialGradient id="_Radial63" cx="0" cy="0" r="1" gradientUnits="userSpaceOnUse" gradientTransform="matrix(52.4074,0,0,55.9,464.591,209.261)"><stop offset="0" style="stop-color:rgb(163,163,163);stop-opacity:1"/><stop offset="1" style="stop-color:rgb(76,76,76);stop-opacity:1"/></radialGradient>
        <radialGradient id="_Radial64" cx="0" cy="0" r="1" gradientUnits="userSpaceOnUse" gradientTransform="matrix(52.9724,0,0,56.5027,463.645,214.461)"><stop offset="0" style="stop-color:white;stop-opacity:1"/><stop offset="1" style="stop-color:rgb(248,248,248);stop-opacity:1"/></radialGradient>
        <radialGradient id="_Radial65" cx="0" cy="0" r="1" gradientUnits="userSpaceOnUse" gradientTransform="matrix(1.7309,0,0,1.7309,461.954,246.154)"><stop offset="0" style="stop-color:rgb(240,240,240);stop-opacity:1"/><stop offset="1" style="stop-color:rgb(154,154,154);stop-opacity:1"/></radialGradient>
        <radialGradient id="_Radial66" cx="0" cy="0" r="1" gradientUnits="userSpaceOnUse" gradientTransform="matrix(1.73123,0,0,1.73123,461.954,229.687)"><stop offset="0" style="stop-color:rgb(240,240,240);stop-opacity:1"/><stop offset="1" style="stop-color:rgb(154,154,154);stop-opacity:1"/></radialGradient>
    </defs>
</svg>
