<?xml version="1.0" encoding="UTF-8" standalone="no"?>
<!DOCTYPE svg PUBLIC "-//W3C//DTD SVG 1.1//EN" "http://www.w3.org/Graphics/SVG/1.1/DTD/svg11.dtd">
<svg width="590px" height="280px" version="1.1" xmlns="http://www.w3.org/2000/svg" xmlns:xlink="http://www.w3.org/1999/xlink" xml:space="preserve" xmlns:serif="http://www.serif.com/" style="fill-rule:evenodd;clip-rule:evenodd;stroke-linecap:round;stroke-linejoin:round;stroke-miterlimit:1.5;">
    <g id="Calque-1" serif:id="Calque 1">
        <g id="Klartext">
            <rect x="139.649" y="36.26" width="85.986" height="134.127" style="fill:none;stroke:black;stroke-width:1px;"/>
            <g transform="matrix(1,0,0,1,50.0156,-50.2837)">
                <text x="94.224px" y="102.51px" style="font-family:'CourierNewPSMT', 'Courier New', monospace;font-size:16px;">01010010</text>
                <text x="94.224px" y="118.51px" style="font-family:'CourierNewPSMT', 'Courier New', monospace;font-size:16px;">11001001</text>
                <text x="94.224px" y="134.51px" style="font-family:'CourierNewPSMT', 'Courier New', monospace;font-size:16px;">01011110</text>
                <text x="94.224px" y="150.51px" style="font-family:'CourierNewPSMT', 'Courier New', monospace;font-size:16px;">10001010</text>
                <text x="94.224px" y="166.51px" style="font-family:'CourierNewPSMT', 'Courier New', monospace;font-size:16px;">11101101</text>
                <text x="94.224px" y="182.51px" style="font-family:'CourierNewPSMT', 'Courier New', monospace;font-size:16px;">01010111</text>
                <text x="94.224px" y="198.51px" style="font-family:'CourierNewPSMT', 'Courier New', monospace;font-size:16px;">01011010</text>
                <text x="94.224px" y="214.51px" style="font-family:'CourierNewPSMT', 'Courier New', monospace;font-size:16px;">10100101</text>
            </g>
            <text x="161.905px" y="26.052px" style="font-family:'ArialMT', 'Arial', sans-serif;font-size:12px;">Klartext</text>
        </g>
        <g id="Sitzungsschlüssel">
            <rect x="301.045" y="221.311" width="85.986" height="22.704" style="fill:none;stroke:black;stroke-width:1px;"/>
            <text x="305.636px" y="237.566px" style="font-family:'CourierNewPSMT', 'Courier New', monospace;font-size:16px;">01100011</text>
            <text x="295.302px" y="262.391px" style="font-family:'ArialMT', 'Arial', sans-serif;font-size:12px;">privater Schlüssel</text>
        </g>
        <g id="Geheimtext">
            <g id="symm.-Geheimtext" serif:id="symm. Geheimtext">
                <rect x="469.474" y="36.26" width="85.986" height="134.127" style="fill:none;stroke:black;stroke-width:1px;"/>
                <g transform="matrix(1,0,0,1,379.841,-50.2837)">
                    <text x="94.224px" y="102.51px" style="font-family:'CourierNewPSMT', 'Courier New', monospace;font-size:16px;">01010010</text>
                    <text x="94.224px" y="118.51px" style="font-family:'CourierNewPSMT', 'Courier New', monospace;font-size:16px;">11001001</text>
                    <text x="94.224px" y="134.51px" style="font-family:'CourierNewPSMT', 'Courier New', monospace;font-size:16px;">01011110</text>
                    <text x="94.224px" y="150.51px" style="font-family:'CourierNewPSMT', 'Courier New', monospace;font-size:16px;">10001010</text>
                    <text x="94.224px" y="166.51px" style="font-family:'CourierNewPSMT', 'Courier New', monospace;font-size:16px;">11101101</text>
                    <text x="94.224px" y="182.51px" style="font-family:'CourierNewPSMT', 'Courier New', monospace;font-size:16px;">01010111</text>
                    <text x="94.224px" y="198.51px" style="font-family:'CourierNewPSMT', 'Courier New', monospace;font-size:16px;">01011010</text>
                    <text x="94.224px" y="214.51px" style="font-family:'CourierNewPSMT', 'Courier New', monospace;font-size:16px;">10100101</text>
                </g>
                <text x="474.005px" y="26.199px" style="font-family:'ArialMT', 'Arial', sans-serif;font-size:12px;">Signierter <tspan x="528.48px 534.48px 541.154px " y="26.199px 26.199px 26.199px ">Tex</tspan>t</text>
            </g>
            <g id="asymm.-Geheimtext" serif:id="asymm. Geheimtext">
                <rect x="469.474" y="173.737" width="85.986" height="22.704" style="fill:rgb(116,191,61);stroke:black;stroke-width:1px;"/>
                <text x="474.065px" y="189.703px" style="font-family:'CourierNewPSMT', 'Courier New', monospace;font-size:16px;">11010110</text>
            </g>
            <rect x="464.583" y="30.993" width="95.768" height="171.027" style="fill:none;stroke:black;stroke-width:1px;"/>
        </g>
        <path d="M127.649,178.801L139.649,184.801L127.649,190.801C130.649,187.801 130.649,181.801 127.649,178.801Z"/>
        <path d="M76.499,184.801L130.049,184.801" style="fill:none;stroke:black;stroke-width:2px;"/>
        <path d="M76.499,74.225L139.649,74.225" style="fill:none;stroke:black;stroke-width:2px;"/>
        <path d="M457.474,178.734L469.474,184.734L457.474,190.734C460.474,187.734 460.474,181.734 457.474,178.734Z"/>
        <path d="M393.346,184.734L459.874,184.734" style="fill:none;stroke:black;stroke-width:2px;"/>
        <path d="M457.474,68.225L469.474,74.225L457.474,80.225C460.474,77.225 460.474,71.225 457.474,68.225Z"/>
        <path d="M225.634,74.225L459.874,74.225" style="fill:none;stroke:black;stroke-width:2px;"/>
        <path d="M284.448,178.801L296.448,184.801L284.448,190.801C287.448,187.801 287.448,181.801 284.448,178.801Z"/>
        <path d="M225.634,184.801L286.848,184.801" style="fill:none;stroke:black;stroke-width:2px;"/>
        <path d="M337.646,212.019L343.646,200.019L349.646,212.019C346.646,209.019 340.646,209.019 337.646,212.019Z"/>
        <path d="M343.646,221.311L343.646,209.619" style="fill:none;stroke:black;stroke-width:2px;"/>
        <path d="M70.499,101.43L76.499,113.43L82.499,101.43C79.499,104.43 73.499,104.43 70.499,101.43Z"/>
        <path d="M76.499,103.83L76.499,74.225" style="fill:none;stroke:black;stroke-width:2px;"/>
        <path d="M76.499,184.801L76.499,144" style="fill:none;stroke:black;stroke-width:2px;"/>
        <g id="symm.-Verschlüsselung" serif:id="symm. Verschlüsselung">
            <rect x="28.05" y="113.43" width="96.898" height="30.57" style="fill:rgb(251,163,0);stroke:black;stroke-width:1px;"/>
            <text x="41.41px" y="133.013px" style="font-family:'ArialMT', 'Arial', sans-serif;font-size:12px;">Hashfunktion</text>
        </g>
        <g id="asymm.-Verschlüsselung" serif:id="asymm. Verschlüsselung">
            <rect x="295.197" y="169.449" width="96.898" height="30.57" style="fill:rgb(116,191,61);stroke:black;stroke-width:1px;"/>
            <g transform="matrix(1,0,0,1,35.0044,79.06)">
                <text x="268.674px" y="102.51px" style="font-family:'ArialMT', 'Arial', sans-serif;font-size:12px;">asymmetrische</text>
                <text x="265.323px" y="114.903px" style="font-family:'ArialMT', 'Arial', sans-serif;font-size:12px;">V<tspan x="272.665px 279.339px " y="114.903px 114.903px ">er</tspan>schlüsselung</text>
            </g>
        </g>
        <g id="asymm.-Geheimtext1" serif:id="asymm. Geheimtext">
            <rect x="139.649" y="173.161" width="85.986" height="22.704" style="fill:rgb(251,163,0);stroke:black;stroke-width:1px;"/>
            <text x="144.239px" y="189.127px" style="font-family:'CourierNewPSMT', 'Courier New', monospace;font-size:16px;">01110111</text>
        </g>
    </g>
    <g id="layer1">
    </g>
</svg>
