<svg xmlns="http://www.w3.org/2000/svg" xmlns:xlink="http://www.w3.org/1999/xlink" width="456pt" height="404pt" viewBox="0.00 0.00 456.00 404.00">
<g id="graph0" class="graph" transform="scale(1 1) rotate(0) translate(4 400)">
<title>%3</title>
<polygon fill="white" stroke="transparent" points="-4,4 -4,-400 452,-400 452,4 -4,4"/>
<!-- 0 -->
<g id="node1" class="node">
<title>0</title>
<text text-anchor="start" x="104" y="-375.3" font-family="Courier,monospace" font-weight="bold" font-size="14.00" fill="#004080">Module</text>
</g>
<!-- 1 -->
<g id="node2" class="node">
<title>1</title>
<text text-anchor="start" x="83.5" y="-303.3" font-family="Courier,monospace" font-weight="bold" font-size="14.00" fill="#004080">FunctionDef</text>
</g>
<!-- 0&#45;&#45;1 -->
<g id="edge1" class="edge">
<title>0--1</title>
<path fill="none" stroke="black" d="M129,-359.7C129,-348.85 129,-334.92 129,-324.1"/>
</g>
<!-- 2 -->
<g id="node3" class="node">
<title>2</title>
<text text-anchor="middle" x="36" y="-230.3" font-family="Courier,monospace" font-size="14.00" fill="#800040">&quot;sum&quot;</text>
</g>
<!-- 1&#45;&#45;2 -->
<g id="edge2" class="edge">
<title>1--2</title>
<path fill="none" stroke="black" d="M130,-287C130,-287 92.82,-266.43 65.23,-251.17"/>
</g>
<!-- 3 -->
<g id="node4" class="node">
<title>3</title>
<text text-anchor="start" x="91.5" y="-231.3" font-family="Courier,monospace" font-weight="bold" font-size="14.00" fill="#004080">arguments</text>
</g>
<!-- 1&#45;&#45;3 -->
<g id="edge3" class="edge">
<title>1--3</title>
<path fill="none" stroke="black" d="M130,-287C130,-287 129.62,-267.19 129.33,-252.03"/>
</g>
<!-- 8 -->
<g id="node9" class="node">
<title>8</title>
<text text-anchor="start" x="229" y="-231.3" font-family="Courier,monospace" font-weight="bold" font-size="14.00" fill="#004080">Return</text>
</g>
<!-- 1&#45;&#45;8 -->
<g id="edge8" class="edge">
<title>1--8</title>
<path fill="none" stroke="black" d="M130,-287C130,-287 184.04,-264.34 220.77,-248.94"/>
</g>
<!-- 4 -->
<g id="node5" class="node">
<title>4</title>
<text text-anchor="start" x="34.5" y="-159.3" font-family="Courier,monospace" font-weight="bold" font-size="14.00" fill="#004080">arg</text>
</g>
<!-- 3&#45;&#45;4 -->
<g id="edge4" class="edge">
<title>3--4</title>
<path fill="none" stroke="black" d="M121,-215C121,-215 92.81,-195.19 71.23,-180.03"/>
</g>
<!-- 6 -->
<g id="node7" class="node">
<title>6</title>
<text text-anchor="start" x="116.5" y="-159.3" font-family="Courier,monospace" font-weight="bold" font-size="14.00" fill="#004080">arg</text>
</g>
<!-- 3&#45;&#45;6 -->
<g id="edge6" class="edge">
<title>3--6</title>
<path fill="none" stroke="black" d="M121,-215C121,-215 124.05,-195.19 126.38,-180.03"/>
</g>
<!-- 5 -->
<g id="node6" class="node">
<title>5</title>
<text text-anchor="middle" x="37" y="-86.3" font-family="Courier,monospace" font-size="14.00" fill="#800040">&quot;zahl1&quot;</text>
</g>
<!-- 4&#45;&#45;5 -->
<g id="edge5" class="edge">
<title>4--5</title>
<path fill="none" stroke="black" d="M44.53,-143.7C42.98,-132.85 40.99,-118.92 39.44,-108.1"/>
</g>
<!-- 7 -->
<g id="node8" class="node">
<title>7</title>
<text text-anchor="middle" x="129" y="-86.3" font-family="Courier,monospace" font-size="14.00" fill="#800040">&quot;zahl2&quot;</text>
</g>
<!-- 6&#45;&#45;7 -->
<g id="edge7" class="edge">
<title>6--7</title>
<path fill="none" stroke="black" d="M129,-143.7C129,-132.85 129,-118.92 129,-108.1"/>
</g>
<!-- 9 -->
<g id="node10" class="node">
<title>9</title>
<text text-anchor="start" x="247" y="-159.3" font-family="Courier,monospace" font-weight="bold" font-size="14.00" fill="#004080">BinOp</text>
</g>
<!-- 8&#45;&#45;9 -->
<g id="edge9" class="edge">
<title>8--9</title>
<path fill="none" stroke="black" d="M257.46,-215.7C259.63,-204.85 262.42,-190.92 264.58,-180.1"/>
</g>
<!-- 10 -->
<g id="node11" class="node">
<title>10</title>
<text text-anchor="start" x="194" y="-87.3" font-family="Courier,monospace" font-weight="bold" font-size="14.00" fill="#004080">Name</text>
</g>
<!-- 9&#45;&#45;10 -->
<g id="edge10" class="edge">
<title>9--10</title>
<path fill="none" stroke="black" d="M271,-143C271,-143 248.14,-123.19 230.65,-108.03"/>
</g>
<!-- 13 -->
<g id="node14" class="node">
<title>13</title>
<text text-anchor="middle" x="283" y="-86.3" font-family="Courier,monospace" font-size="14.00" fill="#800040">Add</text>
</g>
<!-- 9&#45;&#45;13 -->
<g id="edge13" class="edge">
<title>9--13</title>
<path fill="none" stroke="black" d="M271,-143C271,-143 275.57,-123.19 279.07,-108.03"/>
</g>
<!-- 14 -->
<g id="node15" class="node">
<title>14</title>
<text text-anchor="start" x="338" y="-87.3" font-family="Courier,monospace" font-weight="bold" font-size="14.00" fill="#004080">Name</text>
</g>
<!-- 9&#45;&#45;14 -->
<g id="edge14" class="edge">
<title>9--14</title>
<path fill="none" stroke="black" d="M271,-143C271,-143 303.4,-122.94 327.96,-107.74"/>
</g>
<!-- 11 -->
<g id="node12" class="node">
<title>11</title>
<text text-anchor="middle" x="144" y="-14.3" font-family="Courier,monospace" font-size="14.00" fill="#800040">&quot;zahl1&quot;</text>
</g>
<!-- 10&#45;&#45;11 -->
<g id="edge11" class="edge">
<title>10--11</title>
<path fill="none" stroke="black" d="M206,-71C206,-71 182.38,-51.19 164.3,-36.03"/>
</g>
<!-- 12 -->
<g id="node13" class="node">
<title>12</title>
<text text-anchor="middle" x="226" y="-14.3" font-family="Courier,monospace" font-size="14.00" fill="#800040">Load</text>
</g>
<!-- 10&#45;&#45;12 -->
<g id="edge12" class="edge">
<title>10--12</title>
<path fill="none" stroke="black" d="M206,-71C206,-71 213.62,-51.19 219.45,-36.03"/>
</g>
<!-- 15 -->
<g id="node16" class="node">
<title>15</title>
<text text-anchor="middle" x="339" y="-14.3" font-family="Courier,monospace" font-size="14.00" fill="#800040">&quot;zahl2&quot;</text>
</g>
<!-- 14&#45;&#45;15 -->
<g id="edge15" class="edge">
<title>14--15</title>
<path fill="none" stroke="black" d="M360,-71C360,-71 352,-51.19 345.88,-36.03"/>
</g>
<!-- 16 -->
<g id="node17" class="node">
<title>16</title>
<text text-anchor="middle" x="421" y="-14.3" font-family="Courier,monospace" font-size="14.00" fill="#800040">Load</text>
</g>
<!-- 14&#45;&#45;16 -->
<g id="edge16" class="edge">
<title>14--16</title>
<path fill="none" stroke="black" d="M360,-71C360,-71 383.24,-51.19 401.03,-36.03"/>
</g>
</g>
</svg>