<?xml version="1.0" encoding="UTF-8" standalone="no"?>
<!DOCTYPE svg PUBLIC "-//W3C//DTD SVG 1.1//EN" "http://www.w3.org/Graphics/SVG/1.1/DTD/svg11.dtd">
<svg width="320px" height="300px" version="1.1" xmlns="http://www.w3.org/2000/svg" xmlns:xlink="http://www.w3.org/1999/xlink" xml:space="preserve" xmlns:serif="http://www.serif.com/" style="fill-rule:evenodd;clip-rule:evenodd;stroke-linejoin:round;stroke-miterlimit:2;">
    <g>
        <path d="M253.071,289.252C248.996,239.702 242.183,150.815 243.575,125.877C247.679,22.557 202.354,4.469 173.983,0.723C142.383,-3.452 92.079,9.173 79.767,72.34C70.117,121.84 75.592,240.302 78.412,289.252L253.071,289.252Z" style="fill:rgb(183,34,61);fill-rule:nonzero;"/>
        <path d="M106.825,104.907C105.779,102.14 105.962,99.515 104.037,96.99C102.283,94.69 99.546,93.082 96.658,93.019C87.458,92.823 86.363,104.048 89.837,110.182C91.571,113.248 94.15,115.79 95.771,118.919C98.513,124.215 99.346,131.911 106.742,132.732C111.042,133.211 113.379,131.686 114.45,129.227C116.487,124.548 113.921,116.486 111.55,112.419C110.117,109.969 107.829,107.561 106.825,104.907Z" style="fill:rgb(226,180,118);fill-rule:nonzero;"/>
        <path d="M124.904,137.644C127.788,155.727 131.6,177.698 125.475,193.402C118.479,211.336 109.633,214.927 93.6,221.127C101.071,231.311 108.104,241.894 116.883,250.973C125.662,260.057 136.475,267.673 148.833,270.277C152.612,271.073 156.542,271.265 160.421,270.973L160.421,137.19C146.592,136.769 125.204,136.382 124.904,137.644Z" style="fill:rgb(211,169,101);fill-rule:nonzero;"/>
        <path d="M111.2,44.282C95.667,65.894 96.15,96.006 105.521,119.973C113.083,139.311 136.962,172.415 160.421,171.715L160.421,20.136C141.829,19.302 121.937,29.348 111.2,44.282Z" style="fill:rgb(226,180,118);fill-rule:nonzero;"/>
        <path d="M160.408,299.998L160.408,263.365C123.621,260.457 106.658,238.915 93.6,221.14C55.546,235.49 48.808,238.527 36.037,257.652C34.992,259.223 34.133,260.902 33.475,262.669C31.55,267.844 27.596,280.086 24.5,299.998L160.408,299.998Z" style="fill:rgb(240,102,166);fill-rule:nonzero;"/>
        <path d="M224.188,93.019C221.3,93.082 218.562,94.69 216.808,96.99C214.883,99.515 215.063,102.14 214.021,104.907C213.017,107.561 210.725,109.969 209.292,112.419C206.921,116.486 204.354,124.548 206.396,129.227C207.462,131.686 209.804,133.211 214.104,132.732C221.5,131.911 222.329,124.215 225.075,118.919C226.696,115.79 229.271,113.248 231.004,110.182C234.475,104.048 233.383,92.823 224.188,93.019Z" style="fill:rgb(236,188,131);fill-rule:nonzero;"/>
        <path d="M194.371,193.402C188.246,177.698 192.058,155.727 194.942,137.644C194.637,136.382 173.25,136.769 159.421,137.19L159.421,270.973C163.304,271.265 167.229,271.073 171.008,270.277C183.367,267.673 194.183,260.057 202.958,250.973C211.738,241.894 218.771,231.311 226.242,221.127C210.212,214.927 201.367,211.336 194.371,193.402Z" style="fill:rgb(226,180,118);fill-rule:nonzero;"/>
        <path d="M159.421,20.136L158.987,171.715C182.45,172.415 206.763,139.311 214.321,119.973C223.687,96.006 224.179,65.894 208.642,44.282C197.908,29.348 178.017,19.302 159.421,20.136Z" style="fill:rgb(236,188,131);fill-rule:nonzero;"/>
        <path d="M295.342,299.998C292.25,280.086 288.292,267.844 286.367,262.669C285.708,260.902 284.854,259.223 283.804,257.652C271.037,238.527 264.296,235.49 226.246,221.14C213.183,238.915 196.221,260.457 159.438,263.365L159.438,299.998L295.342,299.998Z" style="fill:rgb(230,79,155);fill-rule:nonzero;"/>
        <path d="M220.379,35.048C218.592,33.619 189.688,15.419 187.546,15.061C185.404,14.702 135.442,15.777 134.012,17.207C132.587,18.632 99.75,41.827 97.254,42.186L97.254,91.432L101.608,102.852C101.608,102.852 99.396,83.582 105.104,70.377C110.817,57.173 129.671,42.54 129.671,42.54C129.671,42.54 141.508,57.532 166.133,62.173C157.925,55.748 149.358,44.682 149.358,44.682C149.358,44.682 171.487,62.173 179.337,65.023C177.554,60.032 170.412,46.469 170.412,46.469C170.412,46.469 192.183,60.032 196.467,72.698C200.037,69.669 191.175,52.177 191.175,52.177C191.175,52.177 219.1,76.823 216.096,100.944C223.025,90.336 230.371,88.669 227.242,79.657C226.887,78.644 222.162,36.477 220.379,35.048Z" style="fill:rgb(183,34,61);fill-rule:nonzero;"/>
        <path d="M106.642,132.398C102.604,132.398 99.333,135.669 99.333,139.707C99.333,143.744 102.604,147.015 106.642,147.015C110.679,147.015 113.95,143.744 113.95,139.707C113.95,135.669 110.679,132.398 106.642,132.398Z" style="fill:rgb(165,216,232);fill-rule:nonzero;"/>
        <path d="M212.963,132.819C208.925,132.819 205.654,136.09 205.654,140.127C205.654,144.161 208.925,147.436 212.963,147.436C216.996,147.436 220.271,144.161 220.271,140.127C220.271,136.09 216.996,132.819 212.963,132.819Z" style="fill:rgb(165,216,232);fill-rule:nonzero;"/>
    </g>
</svg>
