<?xml version="1.0" encoding="UTF-8" standalone="no"?>
<!DOCTYPE svg PUBLIC "-//W3C//DTD SVG 1.1//EN" "http://www.w3.org/Graphics/SVG/1.1/DTD/svg11.dtd">
<svg width="320px" height="300px" version="1.1" xmlns="http://www.w3.org/2000/svg" xmlns:xlink="http://www.w3.org/1999/xlink" xml:space="preserve" xmlns:serif="http://www.serif.com/" style="fill-rule:evenodd;clip-rule:evenodd;stroke-linejoin:round;stroke-miterlimit:2;">
    <g>
        <path d="M153.188,300C150.592,297.7 147.867,295.375 144.921,293.058C134.7,284.988 124.846,278.896 116.221,274.321C116.221,274.321 131.767,252 130.013,252L97.5,257.467C97.5,257.467 95.492,256.383 96.688,232.467C100.708,214.4 109.65,203.687 116.746,197.754C115.588,198.146 73.742,215.217 51.633,222.088C40.329,225.596 28.358,229.688 23.146,241.413C21.096,246.025 21.3,253.004 20.717,257.967C19.079,271.921 18.208,285.971 17.5,300L153.188,300Z" style="fill:rgb(113,101,82);fill-rule:nonzero;"/>
        <path d="M169.238,297.629C169.238,297.629 115.146,233.85 123.121,208.738C126.608,198.837 126.775,191.183 126.775,191.183C126.775,191.183 125.413,191.725 123.288,192.954C121.446,193.983 118.854,195.633 115.938,198.083C115.938,198.083 115.921,198.083 115.904,198.104C108.7,204.2 99.608,215.213 95.525,233.788C94.308,258.375 96.354,259.488 96.354,259.488L129.379,253.871C126.458,259.408 113.408,276.75 113.408,276.75C122.171,281.454 134.146,287.779 144.529,296.075C146.175,297.388 147.654,298.692 149.188,300L168.404,300C168.367,299.958 168.313,299.892 168.271,299.846L169.238,297.629Z" style="fill:rgb(135,121,96);fill-rule:nonzero;"/>
        <path d="M302.338,300C301.871,293.767 301.383,287.504 300.825,281.158C299.279,263.629 299.413,242.262 287.971,227.588C279.654,216.921 265.442,214.579 253.225,210.854C238.663,206.413 224.1,201.967 209.533,197.525C217.667,204.779 226.613,220.262 226.833,253.379C217.413,255.2 201.371,256.312 196.763,254.433C200.767,257.833 213.275,269.325 213.279,269.329C212.721,268.808 200.613,277.321 199.996,277.967C191.417,286.858 171.233,286.7 165.446,297.629C165.25,298.004 164.975,298.879 164.663,300L302.338,300Z" style="fill:rgb(135,121,96);fill-rule:nonzero;"/>
        <path d="M125.804,166.067C125.754,166.083 125.708,166.083 125.692,166.1C125.642,166.117 125.613,166.117 125.613,166.117C125.613,166.117 125.996,168.271 126.363,171.679C127.35,180.496 128.225,197.813 122.2,208.738C128.125,221.975 131.613,234.604 159.271,235.45L159.271,160.508C143.542,162.217 127.696,165.654 125.804,166.067Z" style="fill:rgb(237,169,130);fill-rule:nonzero;"/>
        <path d="M191.296,168.508C191.246,167.946 191.217,167.375 191.2,166.817C191.167,166.575 191.167,166.358 191.15,166.117C190.858,158.817 174.625,158.733 158.271,160.508L158.271,235.45C162.258,235.571 166.75,235.45 171.825,235.046C189.362,231.058 198.929,222.287 204.513,205.55C197.721,197.625 192.346,182.633 191.296,168.508Z" style="fill:rgb(223,159,122);fill-rule:nonzero;"/>
        <path d="M125.804,166.067C125.754,166.083 125.708,166.083 125.692,166.1C125.642,166.117 125.613,166.117 125.613,166.117C125.613,166.117 142.883,190.942 159.271,191.975L159.271,160.508C143.542,162.217 127.696,165.654 125.804,166.067Z" style="fill:rgb(206,145,116);fill-rule:nonzero;"/>
        <path d="M192.15,166.117C191.858,158.817 175.625,158.733 159.271,160.508L159.271,191.975C159.938,192.017 160.604,192.038 161.267,191.996C172.363,190.767 185.133,177.979 192.2,166.817C192.167,166.575 192.167,166.358 192.15,166.117Z" style="fill:rgb(192,135,108);fill-rule:nonzero;"/>
        <path d="M179.6,231.854C171.354,234.946 163.933,234.675 159.271,234.058C157.767,233.858 156.546,233.625 155.683,233.45C135.1,229.321 124.367,212.342 122.2,208.738C116.413,226.967 143.817,265.575 159.271,285.367C165.104,292.833 169.238,297.629 169.238,297.629L192.454,254.55C192.9,253.721 193.329,252.888 193.763,252.042C200.95,237.821 204.904,222.146 205.033,206.2C203.808,209.292 196.996,225.35 179.6,231.854Z" style="fill:rgb(202,217,224);fill-rule:nonzero;"/>
        <path d="M218.05,270.146C218.05,270.146 205.146,261.858 199.9,257.179C206.35,258.175 219.683,257.108 227.975,255.504C227.779,225.925 220.771,210.154 213.483,201.737C212.171,200.104 210.846,198.692 209.533,197.525C202.708,191.437 196.429,191.183 196.429,191.183C196.429,191.183 198.142,197.125 203.133,205.833C203.117,205.958 204.033,206.092 204.033,206.2C203.904,222.146 199.95,237.821 192.763,252.042C192.329,252.888 191.9,253.721 191.454,254.55L162.225,295.504C161.542,296.917 160.871,298.429 160.208,300L171.938,300C186.175,285.675 217.767,270.354 218.05,270.146Z" style="fill:rgb(113,101,82);fill-rule:nonzero;"/>
        <path d="M159.446,0C159.392,0.004 159.329,0.013 159.271,0.013L159.271,0.067C159.329,0.05 159.388,0.025 159.446,0Z" style="fill:rgb(117,77,42);fill-rule:nonzero;"/>
        <path d="M201.1,16.454C197.338,14.208 193.304,12.375 189.063,11.05C179.075,7.933 168.767,3.858 158.271,3.754L158.271,58.821C158.575,58.829 158.858,58.854 159.163,58.854C165.146,58.871 170.246,60.158 175.667,62.633C177.95,63.683 180.388,65.6 182.858,65.567C182.175,64.529 181.329,63.475 180.371,62.633C184.054,65.2 188.967,66.808 192.679,69.358C198.546,73.413 204.913,80.267 206.696,87.367C208.942,96.258 204.4,105.683 206.521,114.725C207.175,112.3 210.254,107.871 212.596,105.733C211.179,107.296 216.613,106.879 216.838,106.817C218.117,106.45 218.925,105.858 219.529,105.079C220.488,103.833 220.875,102.129 221.575,100.104C224,93.2 225.621,85.846 225.4,78.5C225.688,78.833 226.342,79.567 227.008,80.429C228.192,81.925 229.483,83.808 229.246,84.638C237.008,58.696 223.804,29.958 201.1,16.454Z" style="fill:rgb(57,59,66);fill-rule:nonzero;"/>
        <path d="M149.642,4.896C152.65,2.921 155.892,1.304 159.271,0.067L159.271,0.013C152.65,0.283 146.075,1.45 139.787,3.492C136.263,4.642 132.788,6.092 129.854,8.358C126.154,11.208 123.779,15.704 122.342,20.075C119.283,18.737 111.963,20.458 108.792,21.829C100.85,25.254 97.038,32.017 91.683,38.238C89.608,40.663 87.9,42.875 86.579,45.204C84.571,48.667 83.358,52.363 82.833,57.354C82.192,63.35 82.558,69.408 82.925,75.417C83.871,72.325 85.35,69.283 87.438,66.808C87.583,69.55 85.942,71.642 85.367,74.225C84.65,77.525 85.208,81.208 85.875,84.458C87.263,91.192 90.263,97.887 94.533,103.292C95.125,104.054 95.863,104.821 96.642,105.604C97.292,106.242 97.979,106.879 98.696,107.533C102.683,111.2 107.354,115.204 107.85,119.729C106.813,110.354 103.879,102.096 104.454,93.262C104.533,91.987 104.708,90.696 104.946,89.388C105.329,87.383 105.904,85.338 106.767,83.233C107.15,84.4 107.85,85.625 108.171,86.792C108.629,75.083 115.167,71.529 121.767,63.225C124.75,59.475 128.879,56.608 129.804,51.617C133.217,55.983 136.629,54.404 141.288,55.437C147.583,56.842 152.771,58.65 159.271,58.821L159.271,3.754C156.079,3.721 152.867,4.05 149.642,4.896Z" style="fill:rgb(65,66,68);fill-rule:nonzero;"/>
        <path d="M213.604,104.95C210.596,106.712 207.492,111.142 206.513,114.729C204.408,105.688 208.938,96.262 206.692,87.371C204.904,80.271 198.542,73.408 192.683,69.367C188.967,66.804 184.063,65.204 180.375,62.629C181.333,63.483 182.167,64.537 182.854,65.571C180.383,65.604 177.946,63.688 175.658,62.642C170.246,60.158 165.142,58.867 159.158,58.854C158.854,58.854 158.571,58.829 158.271,58.825L158.271,184.05C166.517,183.996 167.25,182.333 170.9,179.658C175.271,176.45 179.979,174.267 184.746,171.671C186.783,170.562 188.333,169.342 189.65,167.937C191.388,166.087 192.7,163.913 194.071,161.167C195.479,158.367 200.896,146.688 203.063,143.946C202.917,144.133 205.733,144.942 205.988,144.967C207.117,145.075 208.408,144.925 209.421,144.387C211.192,143.458 212.583,141.275 213.567,139.592C215.938,135.508 216.779,130.787 218.463,126.425C220.283,121.692 223.575,116.946 223.438,111.683C223.296,106.233 218.762,101.929 213.604,104.95Z" style="fill:rgb(235,179,154);fill-rule:nonzero;"/>
        <path d="M141.292,55.442C136.638,54.413 133.225,55.975 129.8,51.612C128.875,56.6 124.754,59.479 121.767,63.229C115.167,71.525 108.633,75.083 108.167,86.796C107.85,85.629 107.154,84.4 106.767,83.225C105.9,85.338 105.329,87.383 104.946,89.396C104.913,90.717 104.746,92.008 104.458,93.267C103.883,102.092 106.808,110.354 107.85,119.725C107.258,114.412 100.892,109.783 96.646,105.6C96.292,105.9 95.929,106.192 95.563,106.479C95.179,106.771 94.846,107.104 94.588,107.471C90.838,112.763 96.446,121.612 98.304,126.425C99.788,130.275 100.604,134.383 102.413,138.113C103.188,139.717 104.175,141.433 105.183,142.892C106.146,144.287 108.654,144.713 110.246,144.488C111.079,144.363 111.904,143.946 112.333,143.217C115.225,149.737 119.483,154.779 122.688,161.171C125.025,165.825 127.158,168.883 131.579,171.412C131.729,171.496 131.858,171.583 132.013,171.671C136.783,174.267 141.488,176.45 145.867,179.658C149.571,182.375 149.438,184.054 158.883,184.054C159.021,184.054 159.138,184.05 159.271,184.05L159.271,58.825C152.771,58.654 147.579,56.838 141.292,55.442Z" style="fill:rgb(250,189,163);fill-rule:nonzero;"/>
        <path d="M108.417,129.112C108.721,131.154 108.738,133.717 106.404,134.292C105.75,134.454 105.042,134.225 104.525,133.733C102.483,131.796 102.796,128.958 103.358,126.471C103.783,124.604 104.346,122.7 104.108,120.792C103.658,117.138 99.521,113.521 96.308,115.054C97.142,114.654 97.479,113.858 98.625,113.612C100.063,113.304 100.746,113.487 102.25,114.383C102.796,114.708 103.325,115.108 103.754,115.604C106.867,119.196 107.708,124.363 108.417,129.112Z" style="fill:rgb(192,135,108);fill-rule:nonzero;"/>
        <path d="M208.267,129.917C207.962,131.958 207.942,134.513 210.279,135.092C210.938,135.258 211.646,135.025 212.163,134.533C214.196,132.592 213.892,129.758 213.325,127.271C212.896,125.404 212.338,123.5 212.575,121.592C213.029,117.937 217.158,114.321 220.375,115.854C219.538,115.458 219.204,114.658 218.058,114.412C216.621,114.108 215.933,114.288 214.438,115.179C213.892,115.508 213.358,115.904 212.925,116.404C209.812,120 208.975,125.167 208.267,129.917Z" style="fill:rgb(192,135,108);fill-rule:nonzero;"/>
        <path d="M201.058,117.829C200.6,119.358 199.988,120.888 198.9,122.146C196.308,125.15 191.183,125.942 187.279,126.371C172.767,127.958 169.383,114.454 169.163,110.675C169.85,104.296 178.517,103.233 187.513,102.996C191.446,102.892 196.717,103.092 199.788,105.733C200.558,106.396 201.092,107.229 201.446,108.158C202.596,111.167 201.842,115.183 201.058,117.829ZM128.879,126.371C124.979,125.942 119.85,125.15 117.258,122.146C116.175,120.888 115.558,119.358 115.104,117.829C114.317,115.183 113.567,111.167 114.713,108.158C115.067,107.229 115.6,106.396 116.371,105.733C119.446,103.092 124.713,102.892 128.65,102.996C137.642,103.233 146.308,104.296 146.996,110.675C146.775,114.454 143.396,127.958 128.879,126.371ZM212.8,101.896C212.538,101.583 191.292,93.317 164.308,103.288C161.779,103.642 159.4,103.758 158.079,103.8C158.038,103.8 157.992,103.8 157.95,103.796C156.613,103.75 154.304,103.629 151.85,103.288C125.388,94.154 103.621,101.583 103.358,101.896C101.883,103.696 103.346,106.308 103.354,106.325C103.404,106.413 104.521,106.692 104.658,106.758C105.733,107.246 107.45,108.083 107.967,109.142C108.5,110.238 108.338,112.037 108.525,113.254C108.871,115.529 109.292,117.812 110.05,120.008C111.025,122.833 112.867,125.992 115.679,127.662C121.554,131.15 133.621,130.421 139.733,128.908C146.488,126.812 152.483,114.638 153.125,110.792C153.567,108.425 156.325,107.896 157.95,107.792C157.992,107.788 158.038,107.783 158.079,107.779C159.683,107.871 162.579,108.367 163.038,110.792C163.675,114.638 169.671,126.812 176.425,128.908C182.538,130.421 194.608,131.15 200.479,127.662C203.296,125.992 205.133,122.833 206.112,120.008C206.867,117.812 207.292,115.529 207.638,113.254C207.825,112.037 207.658,110.238 208.196,109.142C208.708,108.083 210.429,107.246 211.5,106.758C211.642,106.692 212.754,106.413 212.804,106.325C212.813,106.308 214.275,103.696 212.8,101.896Z" style="fill:rgb(34,30,31);fill-rule:nonzero;"/>
    </g>
</svg>
