<?xml version="1.0" encoding="UTF-8" standalone="no"?>
<!DOCTYPE svg PUBLIC "-//W3C//DTD SVG 1.1//EN" "http://www.w3.org/Graphics/SVG/1.1/DTD/svg11.dtd">
<svg width="320px" height="300px" version="1.1" xmlns="http://www.w3.org/2000/svg" xmlns:xlink="http://www.w3.org/1999/xlink" xml:space="preserve" xmlns:serif="http://www.serif.com/" style="fill-rule:evenodd;clip-rule:evenodd;stroke-linejoin:round;stroke-miterlimit:2;">
    <g>
        <path d="M111.258,106.159C111.783,103.342 110.062,98.588 109.013,96.001C108.7,95.226 108.354,94.367 107.921,93.559C107.267,92.334 106.404,91.226 105.137,90.717C99.717,88.534 94.6,96.034 94.158,100.567C94.05,101.659 94.05,102.792 94.121,103.942C94.192,106.313 94.729,108.576 95.492,110.755C95.879,111.842 96.317,112.913 96.804,113.98C102.15,121.172 102.15,136.667 113.775,128.917C117.646,125.042 113.775,113.422 111.242,109.542C111.058,108.488 111.029,107.367 111.258,106.159Z" style="fill:rgb(241,209,160);fill-rule:nonzero;"/>
        <path d="M214.792,90.717C213.525,91.226 212.663,92.334 212.008,93.559C211.575,94.367 211.233,95.226 210.917,96.001C209.871,98.588 208.15,103.342 208.675,106.159C208.9,107.367 208.875,108.488 208.692,109.542C206.158,113.422 202.287,125.042 206.158,128.917C217.779,136.667 217.779,121.172 223.129,113.98C223.612,112.913 224.054,111.842 224.438,110.755C225.204,108.576 225.742,106.313 225.812,103.942C225.883,102.792 225.883,101.659 225.775,100.567C225.333,96.034 220.213,88.534 214.792,90.717Z" style="fill:rgb(226,180,118);fill-rule:nonzero;"/>
        <path d="M193.479,160.813C193.429,160.867 193.367,160.917 193.317,160.963C192.167,162.18 190.992,163.405 189.742,164.617C182.263,171.876 173.083,178.592 163.837,180.23C163.179,180.347 161.575,180.401 159.967,180.401C158.938,180.401 157.942,180.38 157.162,180.33L157.162,240.434C157.792,240.392 158.396,240.397 159.067,240.297C159.412,240.347 160.662,240.347 161.004,240.297C180.696,243.005 180.9,222.342 196.067,205.013C194.779,196.351 193.633,187.305 192.675,177.892C191.825,169.551 193.392,167.405 193.479,160.813Z" style="fill:rgb(211,169,101);fill-rule:nonzero;"/>
        <path d="M130.804,164.251C129.688,163.151 128.633,162.047 127.6,160.947C127.554,160.901 127.504,160.859 127.458,160.813C126.987,168.626 128.663,169.551 127.812,177.892C126.854,187.305 125.712,196.351 124.421,205.013C139.071,221.747 140.358,241.53 158.162,240.434L158.162,180.33C157.725,180.305 157.333,180.272 157.096,180.23C147.687,178.567 138.354,171.642 130.804,164.251Z" style="fill:rgb(226,180,118);fill-rule:nonzero;"/>
        <path d="M106.762,67.526C106.246,70.555 105.937,73.688 105.867,76.897C104.342,87.913 107.125,118.942 107.137,119.592C107.412,133.572 113.387,146.626 122.367,157.234C123.658,158.763 125.096,160.347 126.6,161.947C127.633,163.047 128.688,164.151 129.804,165.251C137.354,172.642 146.687,179.567 156.096,181.23C156.333,181.272 156.725,181.305 157.162,181.33L157.162,32.905C126.175,34.93 111.179,41.805 106.762,67.526Z" style="fill:rgb(241,209,160);fill-rule:nonzero;"/>
        <path d="M213.167,67.526C208.621,41.022 192.896,34.522 159.967,32.717C159,32.772 158.1,32.842 157.162,32.905L157.162,181.33C157.942,181.38 158.938,181.401 159.967,181.401C161.575,181.401 163.179,181.347 163.837,181.23C173.083,179.592 182.263,172.876 189.742,165.617C190.992,164.405 192.167,163.18 193.317,161.963C194.829,160.363 196.267,158.767 197.567,157.234C206.546,146.626 212.517,133.572 212.796,119.592C212.808,118.942 215.588,87.913 214.067,76.897C213.996,73.688 213.688,70.555 213.167,67.526Z" style="fill:rgb(226,180,118);fill-rule:nonzero;"/>
        <path d="M159.833,299.501L159.804,233.559C159.804,233.559 150.775,252.892 140.433,247.742L124.471,207.876L110.408,214.342L94.058,221.897L89.025,223.451L75.658,227.63L41.679,238.172C37.846,239.372 34.396,241.505 31.646,244.409L18.592,258.238C15.529,261.492 13.438,265.522 12.625,269.938C11.775,274.517 10.521,291.251 9,299.501L159.833,299.501Z" style="fill:rgb(165,216,232);fill-rule:nonzero;"/>
        <path d="M160.833,299.501L160.804,233.559C160.804,233.559 138.529,236.426 133.608,242.559L125.471,207.876L111.408,214.342L95.058,221.897L90.025,223.451C92.125,238.755 96.708,274.772 105.671,299.501L160.833,299.501Z" style="fill:rgb(165,216,232);fill-rule:nonzero;"/>
        <path d="M77.871,259.659C77.95,261.597 77.987,263.538 78.025,265.551C78.104,270.934 78.104,286.601 78.067,292.451C78.067,294.763 78.033,297.134 78.008,299.501L134.288,299.501C132.596,297.017 130.979,294.442 129.517,291.676C124.171,281.717 120.179,260.28 117.196,249.084C115.917,244.28 114.796,239.513 113.9,234.942C113.475,233.084 113.125,231.226 112.817,229.442C111.771,223.901 110.996,218.751 110.417,214.334L100.612,218.867L94.067,221.888L75.667,227.622C76.283,231.73 76.75,236.572 77.138,241.955C77.483,247.301 77.758,253.272 77.871,259.659Z" style="fill:rgb(15,153,168);fill-rule:nonzero;"/>
        <path d="M125.225,199.417L106.408,215.792C109.938,222.788 114.425,230.572 120.125,238.688C127.563,249.276 135.225,257.813 142.079,264.517C142.079,264.517 147.246,243.855 160.804,233.567C140.142,226.509 125.225,199.417 125.225,199.417Z" style="fill:white;fill-rule:nonzero;"/>
        <path d="M310.921,299.501C309.396,291.251 308.146,274.517 307.292,269.938C306.483,265.522 304.387,261.492 301.329,258.238L288.271,244.409C285.521,241.505 282.075,239.372 278.237,238.172L244.263,227.63L230.896,223.451L225.858,221.897L209.508,214.342L195.446,207.876L179.483,247.742C169.142,252.892 160.117,233.559 160.117,233.559L160.088,299.501L310.921,299.501Z" style="fill:rgb(123,194,214);fill-rule:nonzero;"/>
        <path d="M215.25,299.501C224.208,274.772 228.792,238.755 230.896,223.451L225.858,221.897L209.508,214.342L195.446,207.876L187.312,242.559C182.387,236.426 160.117,233.559 160.117,233.559L160.088,299.501L215.25,299.501Z" style="fill:rgb(123,194,214);fill-rule:nonzero;"/>
        <path d="M241.912,299.501C241.879,296.567 241.842,293.63 241.825,290.784C241.825,284.897 241.867,269.23 241.946,263.847C241.946,263.497 241.946,263.147 241.983,262.838C242.063,256.563 242.292,250.676 242.6,245.288C242.992,238.547 243.533,232.58 244.267,227.622L225.867,221.888L221.721,219.988L209.517,214.334C208.821,219.68 207.813,226.072 206.458,233.005L206.417,233.042C205.529,237.617 204.442,242.459 203.2,247.342C200.296,258.534 196.383,280.13 191.154,290.284C189.471,293.551 187.613,296.605 185.629,299.501L241.912,299.501Z" style="fill:rgb(19,141,147);fill-rule:nonzero;"/>
        <path d="M209.517,214.334C208.821,219.68 207.813,226.072 206.458,233.005L221.721,219.988L209.517,214.334Z" style="fill:rgb(98,99,99);fill-rule:nonzero;"/>
        <path d="M159.804,233.567C173.362,243.855 178.529,264.517 178.529,264.517C185.383,257.813 193.046,249.276 200.483,238.688C206.183,230.572 210.667,222.788 214.2,215.792L195.467,199.417C195.467,199.417 180.467,226.509 159.804,233.567Z" style="fill:rgb(210,211,212);fill-rule:nonzero;"/>
        <path d="M210.638,299.501L231.446,271.788L241.825,290.784C241.825,284.897 241.867,269.23 241.946,263.847L241.362,263.342L241.983,262.838C242.063,256.563 242.292,250.676 242.6,245.288L231.483,254.78L206.417,233.042C205.529,237.617 204.442,242.459 203.2,247.342L221.567,263.263L196.346,294.776L191.154,290.284C189.471,293.551 187.613,296.605 185.629,299.501L210.638,299.501Z" style="fill:rgb(98,99,99);fill-rule:nonzero;"/>
        <path d="M81.358,262.684L78.025,265.551C78.104,270.934 78.104,286.601 78.067,292.451L91.237,271.242L112.329,299.501L134.288,299.501C132.596,297.017 130.979,294.442 129.517,291.676L126.221,294.463L101.154,262.759L117.196,249.084C115.917,244.28 114.796,239.517 113.9,234.942L91.279,254.234L77.138,241.955C77.483,247.301 77.758,253.272 77.871,259.659L81.358,262.684Z" style="fill:rgb(98,99,99);fill-rule:nonzero;"/>
        <path d="M105.962,24.755C93.171,39.705 94.1,55.48 98,74.017C99.033,78.926 101.771,96.547 105.408,110.68C105.958,112.817 108.725,111.197 110.121,111.401C111.963,105.638 110.062,78.634 111.504,71.213C112.879,64.122 114.467,51.313 120.258,46.692C124.55,43.263 130.333,42.255 135.821,42.472C141.308,42.684 146.687,43.992 152.133,44.692C154.167,44.959 156.287,44.917 158.454,44.709L158.454,3.384C156.071,3.517 153.696,3.692 151.325,3.93C134.242,5.634 117.371,11.43 105.962,24.755Z" style="fill:rgb(138,78,59);fill-rule:nonzero;"/>
        <path d="M208.446,-0.466C191.854,3.588 174.533,2.426 157.454,3.384L157.454,44.709C167.7,43.742 179.092,38.83 188.271,41.88C198.567,45.305 204.187,64.851 206.483,74.338C209.208,85.588 208.275,96.63 208.637,108.147C210.287,107.884 211.933,107.622 213.579,107.359C216.492,91.226 225.867,77.492 226.637,60.184C226.792,56.717 226.688,53.255 226.363,49.813C225.921,45.097 214.517,-1.945 208.446,-0.466Z" style="fill:rgb(123,55,27);fill-rule:nonzero;"/>
        <path d="M130.442,119.426C125.817,118.922 119.746,117.984 116.675,114.43C115.388,112.938 114.658,111.134 114.121,109.322C113.187,106.197 112.3,101.438 113.654,97.884C114.075,96.78 114.708,95.797 115.625,95.009C119.262,91.884 125.504,91.655 130.167,91.776C140.821,92.051 151.083,93.309 151.9,100.863C151.642,105.33 147.633,121.305 130.442,119.426ZM104.921,92.697C103.429,94.509 104.908,97.155 104.917,97.167C104.967,97.255 106.092,97.542 106.233,97.605C107.321,98.105 109.058,98.947 109.579,100.013C110.121,101.122 109.954,102.942 110.142,104.172C110.492,106.463 110.921,108.776 111.683,110.988C112.671,113.847 114.533,117.03 117.379,118.722C123.321,122.242 135.796,121.776 141.979,120.251C148.808,118.134 154.604,105.567 155.25,101.676C155.7,99.292 158.487,98.759 160.133,98.647L160.133,94.617C158.775,94.572 156.446,94.447 153.963,94.101C127.679,82.755 105.183,92.376 104.921,92.697Z" style="fill:rgb(76,75,76);fill-rule:nonzero;"/>
        <path d="M206.408,109.322C205.867,111.134 205.142,112.938 203.85,114.43C200.779,117.984 194.708,118.922 190.087,119.426C172.896,121.305 168.883,105.33 168.629,100.863C169.442,93.309 179.708,92.051 190.358,91.776C195.025,91.655 201.267,91.884 204.9,95.009C205.817,95.797 206.45,96.78 206.871,97.884C208.225,101.438 207.338,106.197 206.408,109.322ZM166.562,94.101C164.004,94.459 161.6,94.58 160.263,94.622C160.221,94.622 160.175,94.617 160.133,94.617L160.133,98.647C160.175,98.647 160.221,98.638 160.263,98.638C161.883,98.726 164.817,99.23 165.275,101.676C165.921,105.567 171.721,118.134 178.546,120.251C184.729,121.776 197.208,122.242 203.146,118.722C205.992,117.03 207.854,113.847 208.842,110.988C209.608,108.776 210.033,106.463 210.383,104.172C210.571,102.942 210.404,101.122 210.946,100.013C211.467,98.947 213.204,98.105 214.292,97.605C214.433,97.542 215.563,97.255 215.608,97.167C215.617,97.155 217.1,94.509 215.604,92.697C215.342,92.376 192.85,82.755 166.562,94.101Z" style="fill:rgb(55,52,52);fill-rule:nonzero;"/>
    </g>
</svg>
