<?xml version="1.0" encoding="UTF-8" standalone="no"?>
<!DOCTYPE svg PUBLIC "-//W3C//DTD SVG 1.1//EN" "http://www.w3.org/Graphics/SVG/1.1/DTD/svg11.dtd">
<svg width="320px" height="300px" version="1.1" xmlns="http://www.w3.org/2000/svg" xmlns:xlink="http://www.w3.org/1999/xlink" xml:space="preserve" xmlns:serif="http://www.serif.com/" style="fill-rule:evenodd;clip-rule:evenodd;stroke-linejoin:round;stroke-miterlimit:2;">
    <g>
        <path d="M217.342,140.492C222.75,156.971 226.829,195.05 218.142,210.479C242.133,167.867 239.163,118.6 237.075,71.671C235.404,34.163 204.067,1.842 166.192,0.067C152.571,-0.567 136.667,3.213 130.988,15.613C118.608,12.221 105.133,18.008 96.137,27.163C50.025,74.1 95.033,154.85 120.758,199.892C113.533,187.246 116.454,168.571 113.196,154.775C110.183,142.021 108.042,133.704 115.683,121.179C116.363,120.071 117.158,118.929 118.367,118.45C120.146,117.742 122.229,118.767 123.354,120.313C124.475,121.863 124.863,123.804 125.225,125.683C128.408,142.117 131.888,167.042 143.171,180.238C153.4,192.2 173.479,194.4 180.496,178.513C188.4,160.625 201.029,144.671 208.429,125.933C210.142,124.721 212.154,127 212.979,128.929C214.604,132.717 216.058,136.579 217.342,140.492Z" style="fill:rgb(65,64,67);fill-rule:nonzero;"/>
        <path d="M108.608,111.346C107.6,108.671 107.775,106.129 105.913,103.688C104.217,101.467 101.567,99.908 98.775,99.846C89.879,99.658 88.825,110.517 92.183,116.45C93.858,119.417 96.35,121.871 97.917,124.896C100.571,130.021 101.371,137.463 108.529,138.254C112.687,138.713 114.946,137.242 115.979,134.867C117.95,130.342 115.471,122.542 113.175,118.608C111.796,116.242 109.579,113.913 108.608,111.346Z" style="fill:rgb(226,180,118);fill-rule:nonzero;"/>
        <path d="M126.092,143.004C128.875,160.488 132.563,181.738 126.638,196.921C119.875,214.263 111.325,217.733 95.821,223.729C103.042,233.579 109.846,243.813 118.333,252.596C126.821,261.375 137.279,268.742 149.233,271.258C152.883,272.033 156.683,272.217 160.438,271.933L160.438,142.563C147.067,142.154 126.383,141.783 126.092,143.004Z" style="fill:rgb(211,169,101);fill-rule:nonzero;"/>
        <path d="M112.842,52.721C97.813,73.617 98.292,102.738 107.346,125.913C114.658,144.617 137.75,176.621 160.438,175.95L160.438,29.371C142.454,28.563 123.221,38.279 112.842,52.721Z" style="fill:rgb(226,180,118);fill-rule:nonzero;"/>
        <path d="M160.425,300L160.425,264.579C124.85,261.763 108.45,240.933 95.821,223.746C59.021,237.621 52.5,240.554 40.158,259.05C39.142,260.571 38.317,262.192 37.679,263.9C35.821,268.908 31.992,280.738 29,300L160.425,300Z" style="fill:rgb(106,62,152);fill-rule:nonzero;"/>
        <path d="M222.1,99.846C219.308,99.908 216.658,101.467 214.963,103.688C213.096,106.129 213.271,108.671 212.263,111.346C211.296,113.913 209.079,116.242 207.696,118.608C205.404,122.542 202.921,130.342 204.892,134.867C205.929,137.242 208.188,138.713 212.346,138.254C219.5,137.463 220.3,130.021 222.958,124.896C224.525,121.871 227.013,119.417 228.692,116.45C232.046,110.517 230.992,99.658 222.1,99.846Z" style="fill:rgb(236,191,136);fill-rule:nonzero;"/>
        <path d="M193.233,196.921C187.308,181.738 190.996,160.488 193.783,143.004C193.492,141.783 172.808,142.154 159.438,142.563L159.438,271.933C163.188,272.217 166.983,272.033 170.638,271.258C182.592,268.742 193.046,261.375 201.537,252.596C210.025,243.813 216.829,233.579 224.054,223.729C208.55,217.733 199.996,214.263 193.233,196.921Z" style="fill:rgb(226,180,118);fill-rule:nonzero;"/>
        <path d="M159.438,29.371L159.017,175.95C181.7,176.621 205.213,144.617 212.525,125.913C221.583,102.738 222.058,73.617 207.033,52.721C196.65,38.279 177.413,28.563 159.438,29.371Z" style="fill:rgb(236,191,136);fill-rule:nonzero;"/>
        <path d="M290.875,300C287.879,280.738 284.054,268.908 282.192,263.9C281.554,262.192 280.729,260.571 279.717,259.05C267.371,240.554 260.854,237.621 224.054,223.746C211.421,240.933 195.025,261.763 159.45,264.579L159.45,300L290.875,300Z" style="fill:rgb(93,57,143);fill-rule:nonzero;"/>
        <path d="M218.417,43.792C216.688,42.408 188.738,24.813 186.667,24.467C184.596,24.121 136.279,25.158 134.9,26.538C133.521,27.917 101.767,50.346 99.354,50.692L99.354,98.317L103.558,109.363C103.558,109.363 101.425,90.725 106.946,77.95C112.717,64.617 126.412,55.558 134.554,43.567C127.054,54.617 167.771,65.7 171.167,66.883C187.733,72.675 197.042,91.696 199.567,107.925C204.008,136.446 203.729,165.692 198.746,194.121C209.9,176.604 218.013,156.275 220.958,135.654C223.225,119.8 226.071,98.329 224.458,82.704C223.712,75.446 224.217,48.433 218.417,43.792Z" style="fill:rgb(65,64,67);fill-rule:nonzero;"/>
    </g>
</svg>
