<?xml version="1.0" encoding="UTF-8" standalone="no"?>
<!DOCTYPE svg PUBLIC "-//W3C//DTD SVG 1.1//EN" "http://www.w3.org/Graphics/SVG/1.1/DTD/svg11.dtd">
<svg width="320px" height="300px" version="1.1" xmlns="http://www.w3.org/2000/svg" xmlns:xlink="http://www.w3.org/1999/xlink" xml:space="preserve" xmlns:serif="http://www.serif.com/" style="fill-rule:evenodd;clip-rule:evenodd;stroke-linejoin:round;stroke-miterlimit:2;">
    <g>
        <path d="M207.375,155.488L207.558,159.1C208.55,178.638 205.379,190.338 220.758,204.538C227.05,210.35 233.529,217.913 232.112,226.363C230.783,234.271 222.813,239.454 214.983,241.204C207.15,242.959 198.958,242.296 191.071,243.788C181.858,245.525 173.092,250.188 163.721,249.825C152.296,249.388 142.567,241.609 134.438,233.567C126.308,225.521 118.417,216.542 107.717,212.504C105.758,211.771 103.258,210.45 103.733,208.409C103.929,207.554 104.638,206.925 105.304,206.346C124.337,189.846 127.467,179.392 126.246,155.267L207.375,155.488Z" style="fill:rgb(205,167,147);fill-rule:nonzero;"/>
        <path d="M160.608,42.425C165.4,43.721 171.892,37.55 174.988,35.034C180.596,30.471 186.967,26.838 193.754,24.35C198.721,22.534 204.192,21.325 209.283,22.763C216.763,24.888 221.7,32.413 223.087,40.067C225.913,55.654 218.079,71.784 220.588,87.396C220.938,89.579 221.538,94.529 225.021,92.146C226.463,91.154 225.542,88.479 227.083,87.296C230.496,84.675 232.167,88.854 232.433,91.375C233.383,100.363 232.496,110.271 228.625,118.659C226.383,123.517 222.988,125.042 219.696,128.642C216.05,132.634 217.062,140.042 215.875,144.854C215.067,148.121 213.738,151.134 211.875,153.796C207.892,159.488 200.625,162.417 196.008,167.638C191.679,172.534 187.692,177.396 181.571,180.721C177.883,182.725 172.608,183.025 167.746,183.05C167.113,183.113 166.475,183.163 165.833,183.217L158.667,41.996C159.312,42.142 159.983,42.254 160.608,42.425Z" style="fill:rgb(250,208,180);fill-rule:nonzero;"/>
        <path d="M94.113,98.396C94.121,95.859 95.363,91.529 99.021,93.792C100.675,94.813 100.029,97.571 101.562,98.409C105.271,100.429 105.367,95.442 105.492,93.234C105.979,84.834 101.542,77.013 102.196,68.746C102.8,61.171 102.029,53.375 104.417,45.946C106.488,39.504 110.575,33.571 116.388,30.113C121.763,26.913 128.454,26.017 134.479,27.679C139.788,29.15 143.471,32.354 147.042,36.35C150.929,40.704 152.767,40.659 158.667,41.996L165.833,183.217C161.55,183.546 157.121,183.542 153.754,182.129C147.329,179.442 142.871,175.009 138.071,170.579C132.946,165.85 125.421,163.671 120.883,158.413C118.758,155.95 117.133,153.092 116,149.921C114.325,145.254 114.583,137.779 110.554,134.184C106.917,130.934 103.387,129.759 100.663,125.154C95.963,117.2 94.071,107.434 94.113,98.396Z" style="fill:rgb(226,187,161);fill-rule:nonzero;"/>
        <path d="M228.496,80.842C227.137,87.217 225.579,93.229 224.271,98.442C223.667,100.846 223.146,103.529 222.379,105.834C222.046,106.838 222.004,107.721 221.254,108.609C221.083,108.817 218.371,110.667 218.421,110.179C219.325,101.142 220.312,92.567 219.346,83.5C217.888,69.904 221.367,35.146 200.725,33.479C193.317,32.879 187.329,39.004 180.712,42.396C173.158,46.271 164.117,46.621 155.883,44.559C144.158,41.621 122.008,20.8 111.683,36.854C110.562,38.6 109.858,40.588 109.283,42.579C107.046,50.342 108.108,57.517 107.483,65.354C106.817,73.775 106.15,82.279 106.817,90.717C107.096,94.204 108.304,97.288 108.771,100.717C108.962,102.167 111.342,112.313 110.583,112.988C110.008,113.5 109.2,112.717 108.846,112.034C96.638,88.646 88.6,56.604 103.188,31.404C116.267,8.809 147.658,-0.321 172.058,0.009C176.808,0.071 181.625,0.446 186.088,2.084C193.25,4.713 199.904,8.975 206.942,11.738C218.846,16.413 225.129,28.859 227.817,40.667C229.183,46.659 229.467,52.784 230.75,58.759C232.363,66.246 230.071,73.454 228.496,80.842Z" style="fill:rgb(114,142,151);fill-rule:nonzero;"/>
        <path d="M136.688,294.054C137.1,295.992 137.571,297.913 138,299.846L186.213,299.846C191.908,288.109 197.113,276.246 203.525,264.609C210.504,251.884 220.229,240.834 226.379,227.604C229.021,221.917 231.529,215.329 230.383,208.95C228.804,200.175 215.917,196.734 215.917,196.734C211.146,201.242 196.129,214.275 173.054,216.325C140.321,219.238 118.2,197.659 115.038,194.471C114.017,204.871 114.133,216.417 118.254,226.175C127.596,248.259 131.804,271.213 136.688,294.054Z" style="fill:rgb(65,64,67);fill-rule:nonzero;"/>
        <path d="M174.996,90.688L174.996,101.813C174.996,101.813 194.142,91.171 212.092,90.688C212.092,83.917 174.996,90.688 174.996,90.688Z" style="fill:rgb(114,142,151);fill-rule:nonzero;"/>
        <path d="M153.588,90.688L153.588,101.813C153.588,101.813 134.438,91.171 116.492,90.688C116.492,83.917 153.588,90.688 153.588,90.688Z" style="fill:rgb(114,142,151);fill-rule:nonzero;"/>
        <path d="M208.625,154.846C206.192,157.817 203.629,161.688 200.554,163.992C193.192,169.513 185.258,174.788 177.071,178.888C175.825,179.509 174.5,180.154 173.113,180.038C169.25,179.734 166.771,169.809 163.225,176.275C162.471,177.65 162,179.288 160.733,180.209C154.038,185.071 139.688,171.567 134.838,168.013C132.55,166.329 130.283,164.604 128.321,162.559C122.646,156.629 119.725,149.038 115.025,142.471C113.638,149.213 117.746,154.746 120.858,160.488C121.908,162.429 122.967,164.375 124.242,166.175C130.017,174.329 140.421,178.388 148.308,184.163C152.625,187.321 158.296,189.542 164.137,190.404C169.896,189.542 175.621,187.292 180.075,184.042L198.229,171.688C200.321,169.95 202.142,167.925 203.854,165.817C206.783,162.209 210.254,158.934 213.067,155.246C215.662,151.85 216.213,146.871 216.096,142.729C213.992,146.992 211.638,151.159 208.625,154.846Z" style="fill:rgb(114,142,151);fill-rule:nonzero;"/>
        <path d="M170.308,144.979C168.517,144.463 166.596,144.192 164.808,144.679C163.021,144.192 161.1,144.463 159.312,144.979C149.917,147.692 142.817,156.946 142.633,166.725C142.521,172.721 145.537,179.359 151.296,181.025C150.283,176.938 149.263,172.821 149.112,168.613C148.963,164.409 149.746,160.059 152.075,156.554C152.937,155.259 154.029,154.071 155.425,153.384C158.15,152.046 161.4,152.834 164.287,153.784C164.454,153.838 164.633,153.884 164.808,153.929C164.983,153.884 165.163,153.838 165.333,153.784C168.217,152.834 171.467,152.046 174.192,153.384C175.588,154.071 176.683,155.259 177.542,156.554C179.871,160.059 180.654,164.409 180.504,168.613C180.354,172.821 179.337,176.938 178.321,181.025C184.079,179.359 187.096,172.721 186.983,166.725C186.804,156.946 179.704,147.692 170.308,144.979Z" style="fill:rgb(114,142,151);fill-rule:nonzero;"/>
        <path d="M146.988,299.846L130.892,249.846C130.892,249.846 115.992,194.117 115.038,194.471C106.958,197.475 54.496,216.988 46.05,221.584C37.733,224.538 28.646,228.125 23.729,234.896C14.071,248.192 8.325,270.338 4.467,286.038C3.313,290.738 2.158,295.35 1,300L71.6,300C71.6,299.95 71.604,299.896 71.604,299.846L146.988,299.846Z" style="fill:rgb(22,117,188);fill-rule:nonzero;"/>
        <path d="M307.658,257.529C303.721,240.542 296.75,230.921 276.429,220.113C276.45,219.946 254.579,210.071 244.967,207.296C239.137,205.617 213.529,195.484 213.529,195.484C213.529,195.484 193.125,256.879 187.25,271.209C185.542,275.379 180.625,286.475 174.992,299.846L318.021,299.846C314.408,285.596 310.883,271.421 307.658,257.529Z" style="fill:rgb(22,117,188);fill-rule:nonzero;"/>
    </g>
</svg>
