<?xml version="1.0" encoding="UTF-8" standalone="no"?>
<!DOCTYPE svg PUBLIC "-//W3C//DTD SVG 1.1//EN" "http://www.w3.org/Graphics/SVG/1.1/DTD/svg11.dtd">
<svg width="320px" height="300px" version="1.1" xmlns="http://www.w3.org/2000/svg" xmlns:xlink="http://www.w3.org/1999/xlink" xml:space="preserve" xmlns:serif="http://www.serif.com/" style="fill-rule:evenodd;clip-rule:evenodd;stroke-linejoin:round;stroke-miterlimit:2;">
    <g>
        <path d="M197.963,152.578L198.138,156.036L199.587,184.611L159.2,221.365L145.075,208.449L122.171,187.503L120.388,152.369L197.963,152.578Z" style="fill:rgb(226,167,125);fill-rule:nonzero;"/>
        <path d="M152.25,44.474C156.825,45.707 163.038,39.807 165.996,37.399C171.358,33.04 177.446,29.565 183.938,27.186C188.692,25.449 193.921,24.29 198.787,25.669C205.942,27.699 210.658,34.894 211.987,42.215C214.688,57.119 207.2,72.54 209.6,87.469C209.933,89.557 210.504,94.294 213.837,92.011C215.217,91.065 214.333,88.507 215.812,87.374C219.071,84.869 220.671,88.865 220.921,91.278C221.833,99.874 220.983,109.344 217.283,117.365C215.142,122.011 211.892,123.469 208.742,126.911C205.258,130.728 206.229,137.811 205.092,142.411C204.317,145.54 203.046,148.415 201.267,150.961C197.458,156.403 190.508,159.207 186.092,164.199C181.954,168.878 178.146,173.528 172.288,176.707C168.763,178.624 163.721,178.911 159.071,178.932C158.463,178.99 157.858,179.049 157.242,179.09L150.392,44.057C151.008,44.194 151.646,44.311 152.25,44.474Z" style="fill:rgb(252,193,143);fill-rule:nonzero;"/>
        <path d="M89.663,97.986C89.671,95.561 90.854,91.424 94.354,93.586C95.938,94.561 95.321,97.199 96.788,97.999C100.333,99.932 100.421,95.165 100.542,93.053C101.008,85.019 96.767,77.544 97.396,69.64C97.967,62.39 97.233,54.94 99.517,47.832C101.496,41.678 105.404,36.003 110.958,32.694C116.1,29.64 122.5,28.778 128.263,30.374C133.342,31.774 136.858,34.84 140.275,38.661C143.992,42.824 145.75,42.782 151.392,44.057L158.242,179.09C154.146,179.407 149.913,179.403 146.692,178.057C140.546,175.486 136.288,171.244 131.692,167.007C126.796,162.486 119.6,160.403 115.263,155.378C113.229,153.02 111.675,150.286 110.592,147.257C108.992,142.794 109.238,135.644 105.388,132.207C101.908,129.099 98.529,127.978 95.925,123.574C91.433,115.969 89.625,106.632 89.663,97.986Z" style="fill:rgb(240,183,132);fill-rule:nonzero;"/>
        <path d="M217.933,81.028C216.883,85.936 216.15,90.836 216.296,95.707L210.125,96.019C210,94.815 210.004,93.669 210.004,92.965C210.025,89.653 209.758,87.036 209.408,83.749C207.879,69.419 213.029,22.103 183.554,37.003C179.225,39.186 175.408,42.274 171.179,44.64C158.958,51.453 143.283,51.619 130.929,45.057C124.046,41.403 113.058,32.932 105.842,40.699C101.133,45.769 102.917,59.136 102.517,65.357C101.967,73.986 101.117,81.836 101.813,90.649C102.096,94.211 103.017,97.653 103.117,101.253C93.625,104.803 95.667,94.265 93.829,88.782C90.783,79.686 90.079,71.349 89.583,62.011C89.096,52.878 85.883,42.903 88.75,33.811C94.388,15.994 118.321,6.145 134.921,2.457C152.838,-1.526 172.538,-0.606 190.063,4.778C197.313,7.003 208.479,10.486 213.583,16.515C218.742,22.599 219.263,33.861 220.675,41.628C223.042,54.64 220.658,68.269 217.933,81.028Z" style="fill:rgb(42,17,11);fill-rule:nonzero;"/>
        <path d="M122.629,180.407L103.088,197.099C106.754,204.232 111.413,212.17 117.333,220.444C125.054,231.24 133.017,239.944 140.138,246.778C140.138,246.778 145.5,225.711 159.588,215.224C138.129,208.028 122.629,180.407 122.629,180.407Z" style="fill:white;fill-rule:nonzero;"/>
        <path d="M159.621,299.999L159.588,215.215C159.588,215.215 150.213,234.928 139.467,229.674L122.888,189.028L108.279,195.624L91.296,203.328L86.063,204.907L72.179,209.174L52.304,215.224C38.204,219.515 25.433,227.349 15.213,237.974L12.9,240.378C9.725,243.699 7.55,247.803 6.704,252.311C5.742,257.394 4.279,290.524 2.5,299.999L159.621,299.999Z" style="fill:rgb(65,64,67);fill-rule:nonzero;"/>
        <path d="M317.008,299.999C315.225,290.524 313.763,257.394 312.8,252.311C311.958,247.803 309.779,243.699 306.604,240.378C294.867,228.178 280.204,219.182 264.008,214.253L247.325,209.174L233.438,204.907L228.208,203.328L211.225,195.624L196.617,189.028L180.038,229.674C169.288,234.928 159.908,215.215 159.908,215.215L159.883,299.999L317.008,299.999Z" style="fill:rgb(34,30,31);fill-rule:nonzero;"/>
        <path d="M192.629,299.999L201.25,251.978L163.729,210.882L158.683,210.882C158.683,210.882 119.225,251.569 119.508,254.528L128.029,299.999L192.629,299.999Z" style="fill:rgb(185,209,221);fill-rule:nonzero;"/>
        <path d="M153.125,238.219L144.954,299.999L175.692,299.999L167.521,238.219C167.096,236.328 167.371,234.353 168.296,232.644L173.358,223.299C173.592,222.732 173.45,222.09 173.017,221.661C171.063,219.761 169.112,217.857 167.163,215.957C165.838,214.661 164.246,213.449 163.467,211.757C162.921,210.54 161.408,207.824 159.65,208.978C158.113,209.986 157.596,211.569 156.6,212.911C155.604,214.249 154.05,215.399 152.854,216.565C151.113,218.265 149.371,219.965 147.629,221.661C147.192,222.09 147.058,222.732 147.283,223.299L152.35,232.644C153.275,234.353 153.55,236.328 153.125,238.219Z" style="fill:rgb(61,88,114);fill-rule:nonzero;"/>
        <path d="M161.329,207.532C160.763,208.078 159.888,208.078 159.308,207.532L121.621,171.707L113.2,197.711L129.488,254.528L159.083,210.636C159.692,209.74 160.95,209.74 161.554,210.636L191.158,254.528L207.446,197.711L199.021,171.707L161.329,207.532Z" style="fill:rgb(229,244,253);fill-rule:nonzero;"/>
        <path d="M214.183,299.999L245.533,237.844L212.725,229.049L248.704,217.265C243.537,211.165 240.196,208.319 232.317,202.678C217.733,194.165 207.85,189.986 204.633,189.028L188.146,249.111L179.375,299.999L214.183,299.999Z" style="fill:rgb(65,64,67);fill-rule:nonzero;"/>
        <path d="M75.125,237.844L106.271,299.999L140.988,299.999L127.4,234.29L116.008,189.028C112.792,189.961 99.5,192.794 88.317,201.615C81.971,206.161 77.288,210.882 71.929,217.265L107.904,229.049L75.125,237.844Z" style="fill:rgb(34,30,31);fill-rule:nonzero;"/>
        <path d="M189.321,111.253L188.538,111.269C186.767,111.269 185.004,111.086 183.313,110.719C176.154,109.169 170.325,104.453 167.338,97.774C166.696,96.344 166.796,95.086 167.642,93.819C170.254,89.919 179.104,86.861 188.679,86.557C196.538,86.307 203.121,87.986 206.3,91.049C207.9,92.59 208.621,94.436 208.517,96.694C208.075,105.865 198.525,110.961 189.321,111.253ZM147.179,98.415C144.621,105.274 139.108,110.353 132.063,112.357C130.396,112.828 128.654,113.124 126.883,113.24L126.1,113.274C116.892,113.569 107.038,109.09 106.017,99.969C105.763,97.724 106.367,95.836 107.863,94.194C110.842,90.936 117.308,88.836 125.167,88.59C134.738,88.278 143.762,90.765 146.621,94.494C147.55,95.703 147.725,96.949 147.179,98.415ZM219.054,85.553L217.304,81.219C217.304,81.219 197.913,81.394 188.525,81.694C179.325,81.99 168.371,84.84 163.875,90.52L163.733,90.286C161.133,91.653 158.904,92.169 157.071,92.24C155.229,92.286 152.975,91.911 150.292,90.711L150.175,90.957C145.321,85.578 134.204,83.432 125.008,83.728C115.621,84.028 92.688,87.307 92.688,87.307L91.363,93.265L100.913,98.069C100.85,98.861 100.846,99.674 100.938,100.499C102.288,112.561 114.7,118.503 126.254,118.132C126.575,118.124 126.888,118.111 127.2,118.09C129.354,117.953 131.475,117.59 133.508,117.015C142.142,114.565 148.875,108.378 151.988,100.032C152.421,98.878 152.617,97.736 152.588,96.619C154.275,97.007 155.829,97.165 157.225,97.128C158.625,97.078 160.163,96.819 161.821,96.324C161.867,97.44 162.133,98.565 162.638,99.694C166.279,107.819 173.396,113.565 182.163,115.461C184.229,115.907 186.371,116.132 188.529,116.132C188.842,116.128 189.158,116.124 189.475,116.115C201.033,115.745 213.033,109.028 213.612,96.899C213.654,96.065 213.596,95.257 213.483,94.474L219.054,85.553Z" style="fill:rgb(3,4,5);fill-rule:nonzero;"/>
    </g>
</svg>
