<?xml version="1.0" encoding="UTF-8" standalone="no"?>
<!DOCTYPE svg PUBLIC "-//W3C//DTD SVG 1.1//EN" "http://www.w3.org/Graphics/SVG/1.1/DTD/svg11.dtd">
<svg width="66px" height="66px" version="1.1" xmlns="http://www.w3.org/2000/svg" xmlns:xlink="http://www.w3.org/1999/xlink" xml:space="preserve" xmlns:serif="http://www.serif.com/" style="fill-rule:evenodd;clip-rule:evenodd;stroke-linecap:round;stroke-linejoin:round;stroke-miterlimit:1.5;">
    <g id="Heizung">
        <rect x="1" y="1" width="64" height="64" style="fill:rgb(255,204,128);stroke:black;stroke-width:2px;"/>
        <g>
            <path d="M44.671,35.764L43.443,35.764L43.443,28.393L44.671,28.393L44.671,25.943C44.671,23.225 46.877,21.021 49.586,21.021C52.3,21.021 54.5,23.217 54.5,25.943L54.5,48.043C54.5,50.761 52.294,52.964 49.586,52.964C46.874,52.964 44.675,50.772 44.671,48.05L43.443,48.05L43.443,40.679L44.671,40.679L44.671,35.764ZM33.614,35.764L32.386,35.764L32.386,28.393L33.614,28.393L33.614,25.943C33.614,23.225 35.82,21.021 38.529,21.021C41.243,21.021 43.443,23.217 43.443,25.943L43.443,48.043C43.443,50.761 41.237,52.964 38.529,52.964C35.817,52.964 33.618,50.772 33.614,48.05L32.386,48.05L32.386,40.679L33.614,40.679L33.614,35.764ZM22.557,35.764L21.329,35.764L21.329,28.393L22.557,28.393L22.557,25.943C22.557,23.225 24.763,21.021 27.471,21.021C30.186,21.021 32.386,23.217 32.386,25.943L32.386,48.043C32.386,50.761 30.18,52.964 27.471,52.964C24.76,52.964 22.561,50.772 22.557,48.05L21.329,48.05L21.329,40.679L22.557,40.679L22.557,35.764ZM43.315,16.708C43.401,16.993 43.449,17.276 43.442,17.523C43.438,17.682 43.393,17.79 43.223,18.073C43.219,18.081 43.219,18.081 43.214,18.088C42.94,18.545 42.83,18.82 42.829,19.259C42.828,19.705 42.9,19.965 43.182,20.643C43.313,20.956 43.672,21.105 43.986,20.974C44.299,20.844 44.447,20.484 44.317,20.171C44.092,19.632 44.057,19.504 44.057,19.262C44.058,19.105 44.1,19 44.268,18.72C44.272,18.713 44.272,18.713 44.277,18.705C44.548,18.253 44.658,17.988 44.67,17.558C44.682,17.161 44.612,16.754 44.491,16.353C44.425,16.133 44.357,15.959 44.308,15.852C44.167,15.543 43.803,15.407 43.494,15.549C43.185,15.69 43.05,16.054 43.191,16.363C43.219,16.423 43.266,16.546 43.315,16.708ZM16.414,21.021C19.128,21.021 21.329,23.217 21.329,25.943L21.329,48.043C21.329,50.761 19.123,52.964 16.414,52.964C13.7,52.964 11.5,50.769 11.5,48.043L11.5,25.943C11.5,23.225 13.706,21.021 16.414,21.021ZM13.957,48.043C13.957,49.409 15.055,50.507 16.414,50.507C17.767,50.507 18.871,49.402 18.871,48.043L18.871,25.943C18.871,24.577 17.774,23.479 16.414,23.479C15.061,23.479 13.957,24.583 13.957,25.943L13.957,48.043ZM25.014,48.043C25.014,49.409 26.112,50.507 27.471,50.507C28.825,50.507 29.929,49.402 29.929,48.043L29.929,25.943C29.929,24.577 28.831,23.479 27.471,23.479C26.118,23.479 25.014,24.583 25.014,25.943L25.014,48.043ZM36.071,48.043C36.071,49.409 37.169,50.507 38.529,50.507C39.882,50.507 40.986,49.402 40.986,48.043L40.986,25.943C40.986,24.577 39.888,23.479 38.529,23.479C37.175,23.479 36.071,24.583 36.071,25.943L36.071,48.043ZM47.129,48.043C47.129,49.409 48.226,50.507 49.586,50.507C50.939,50.507 52.043,49.402 52.043,48.043L52.043,25.943C52.043,24.577 50.945,23.479 49.586,23.479C48.233,23.479 47.129,24.583 47.129,25.943L47.129,48.043ZM20.894,16.353C20.773,16.754 20.704,17.161 20.715,17.558C20.728,17.988 20.838,18.253 21.109,18.705C21.114,18.713 21.114,18.713 21.118,18.72C21.286,19 21.328,19.105 21.329,19.262C21.329,19.504 21.294,19.632 21.069,20.171C20.939,20.484 21.087,20.844 21.4,20.974C21.713,21.105 22.073,20.956 22.203,20.643C22.486,19.965 22.558,19.705 22.557,19.259C22.556,18.82 22.445,18.545 22.172,18.088C22.167,18.081 22.167,18.081 22.163,18.073C21.993,17.79 21.948,17.682 21.944,17.523C21.936,17.276 21.985,16.993 22.07,16.708C22.119,16.546 22.167,16.423 22.195,16.363C22.336,16.054 22.2,15.69 21.892,15.549C21.583,15.407 21.219,15.543 21.078,15.852C21.028,15.959 20.961,16.133 20.894,16.353ZM32.733,14.535C32.913,15.004 33.014,15.468 32.999,15.88C32.988,16.176 32.88,16.381 32.511,16.863C32.502,16.875 32.502,16.875 32.493,16.887C31.975,17.566 31.773,17.96 31.771,18.604C31.77,19.272 31.905,19.655 32.456,20.695C32.615,20.995 32.987,21.109 33.287,20.95C33.586,20.791 33.701,20.419 33.542,20.12C33.079,19.245 32.999,19.02 33,18.607C33.001,18.314 33.106,18.11 33.47,17.633C33.479,17.621 33.479,17.621 33.488,17.609C34.003,16.935 34.203,16.554 34.226,15.925C34.248,15.324 34.114,14.705 33.88,14.095C33.752,13.76 33.622,13.5 33.53,13.341C33.359,13.048 32.983,12.948 32.69,13.119C32.397,13.29 32.297,13.666 32.468,13.959C32.53,14.065 32.631,14.268 32.733,14.535Z"/>
        </g>
    </g>
</svg>
