<?xml version="1.0" encoding="UTF-8" standalone="no"?>
<!DOCTYPE svg PUBLIC "-//W3C//DTD SVG 1.1//EN" "http://www.w3.org/Graphics/SVG/1.1/DTD/svg11.dtd">
<svg width="66px" height="66px" version="1.1" xmlns="http://www.w3.org/2000/svg" xmlns:xlink="http://www.w3.org/1999/xlink" xml:space="preserve" xmlns:serif="http://www.serif.com/" style="fill-rule:evenodd;clip-rule:evenodd;stroke-linecap:round;stroke-linejoin:round;stroke-miterlimit:1.5;">
    <g id="Motor">
        <rect x="1" y="1" width="64" height="64" style="fill:rgb(255,204,128);stroke:black;stroke-width:2px;"/>
        <path d="M33,25C37.389,25 41,28.611 41,33C41,37.389 37.389,41 33,41C28.611,41 25,37.389 25,33C25,28.611 28.611,25 33,25M33,29C30.806,29 29,30.806 29,33C29,35.194 30.806,37 33,37C35.194,37 37,35.194 37,33C37,30.806 35.194,29 33,29M29,53C28.5,53 28.08,52.64 28,52.16L27.26,46.86C26,46.36 24.92,45.68 23.88,44.88L18.9,46.9C18.46,47.06 17.92,46.9 17.68,46.46L13.68,39.54C13.42,39.1 13.54,38.56 13.92,38.26L18.14,34.94L18,33L18.14,31L13.92,27.74C13.54,27.44 13.42,26.9 13.68,26.46L17.68,19.54C17.92,19.1 18.46,18.92 18.9,19.1L23.88,21.1C24.92,20.32 26,19.64 27.26,19.14L28,13.84C28.08,13.36 28.5,13 29,13L37,13C37.5,13 37.92,13.36 38,13.84L38.74,19.14C40,19.64 41.08,20.32 42.12,21.1L47.1,19.1C47.54,18.92 48.08,19.1 48.32,19.54L52.32,26.46C52.58,26.9 52.46,27.44 52.08,27.74L47.86,31L48,33L47.86,35L52.08,38.26C52.46,38.56 52.58,39.1 52.32,39.54L48.32,46.46C48.08,46.9 47.54,47.08 47.1,46.9L42.12,44.9C41.08,45.68 40,46.36 38.74,46.86L38,52.16C37.92,52.64 37.5,53 37,53L29,53M31.5,17L30.76,22.22C28.36,22.72 26.24,24 24.7,25.78L19.88,23.7L18.38,26.3L22.6,29.4C21.8,31.74 21.8,34.28 22.6,36.6L18.36,39.72L19.86,42.32L24.72,40.24C26.26,42 28.36,43.28 30.74,43.76L31.48,49L34.52,49L35.26,43.78C37.64,43.28 39.74,42 41.28,40.24L46.14,42.32L47.64,39.72L43.4,36.62C44.2,34.28 44.2,31.74 43.4,29.4L47.62,26.3L46.12,23.7L41.3,25.78C39.76,24 37.64,22.72 35.24,22.24L34.5,17L31.5,17Z" style="fill-rule:nonzero;"/>
    </g>
</svg>
