<?xml version="1.0" encoding="UTF-8" standalone="no"?>
<!DOCTYPE svg PUBLIC "-//W3C//DTD SVG 1.1//EN" "http://www.w3.org/Graphics/SVG/1.1/DTD/svg11.dtd">
<svg width="66px" height="66px" version="1.1" xmlns="http://www.w3.org/2000/svg" xmlns:xlink="http://www.w3.org/1999/xlink" xml:space="preserve" xmlns:serif="http://www.serif.com/" style="fill-rule:evenodd;clip-rule:evenodd;stroke-linecap:round;stroke-linejoin:round;stroke-miterlimit:1.5;">
    <g id="Lichtsensor">
        <rect x="1" y="1" width="64" height="64" style="fill:rgb(144,202,249);stroke:black;stroke-width:2px;"/>
        <g>
            <path d="M33,21.194C33.731,21.194 34.324,20.601 34.324,19.87L34.324,14.574C34.324,13.843 33.731,13.25 33,13.25C32.269,13.25 31.676,13.843 31.676,14.574L31.676,19.87C31.676,20.601 32.269,21.194 33,21.194Z" style="fill-rule:nonzero;"/>
            <path d="M31.676,46.13L31.676,51.426C31.676,52.157 32.269,52.75 33,52.75C33.731,52.75 34.324,52.157 34.324,51.426L34.324,46.13C34.324,45.399 33.731,44.806 33,44.806C32.269,44.806 31.676,45.399 31.676,46.13Z" style="fill-rule:nonzero;"/>
            <path d="M51.426,31.676L46.13,31.676C45.399,31.676 44.806,32.269 44.806,33C44.806,33.731 45.399,34.324 46.13,34.324L51.426,34.324C52.157,34.324 52.75,33.731 52.75,33C52.75,32.269 52.157,31.676 51.426,31.676Z" style="fill-rule:nonzero;"/>
            <path d="M21.194,33C21.194,32.269 20.601,31.676 19.87,31.676L14.574,31.676C13.843,31.676 13.25,32.269 13.25,33C13.25,33.731 13.843,34.324 14.574,34.324L19.87,34.324C20.601,34.324 21.194,33.731 21.194,33Z" style="fill-rule:nonzero;"/>
            <path d="M42.284,25.04C42.623,25.04 42.962,24.91 43.221,24.652L46.965,20.907C47.483,20.39 47.483,19.551 46.965,19.035C46.449,18.517 45.61,18.517 45.093,19.035L41.348,22.779C40.831,23.296 40.831,24.135 41.348,24.652C41.607,24.91 41.946,25.04 42.284,25.04Z" style="fill-rule:nonzero;"/>
            <path d="M22.779,41.348L19.035,45.093C18.517,45.61 18.517,46.448 19.035,46.965C19.293,47.224 19.632,47.353 19.971,47.353C20.309,47.353 20.649,47.224 20.907,46.965L24.652,43.22C25.169,42.703 25.169,41.865 24.652,41.348C24.135,40.831 23.296,40.831 22.779,41.348Z" style="fill-rule:nonzero;"/>
            <path d="M41.348,41.348C40.831,41.865 40.831,42.704 41.348,43.221L45.093,46.965C45.351,47.224 45.691,47.353 46.029,47.353C46.368,47.353 46.707,47.224 46.965,46.965C47.483,46.449 47.483,45.61 46.965,45.093L43.221,41.348C42.704,40.831 41.865,40.831 41.348,41.348Z" style="fill-rule:nonzero;"/>
            <path d="M22.779,24.652C23.038,24.91 23.377,25.04 23.716,25.04C24.054,25.04 24.393,24.91 24.652,24.652C25.169,24.135 25.169,23.296 24.652,22.779L20.907,19.035C20.39,18.517 19.551,18.517 19.035,19.035C18.517,19.551 18.517,20.39 19.035,20.907L22.779,24.652Z" style="fill-rule:nonzero;"/>
            <path d="M32.945,22.904C27.378,22.904 22.849,27.433 22.849,33C22.849,38.567 27.378,43.096 32.945,43.096C38.511,43.096 43.041,38.567 43.041,33C43.041,27.433 38.511,22.904 32.945,22.904ZM32.945,40.224C28.961,40.224 25.721,36.984 25.721,33C25.721,29.016 28.961,25.776 32.945,25.776C36.928,25.776 40.169,29.016 40.169,33C40.169,36.984 36.928,40.224 32.945,40.224Z" style="fill-rule:nonzero;"/>
        </g>
    </g>
</svg>
