<?xml version="1.0" encoding="UTF-8" standalone="no"?>
<!DOCTYPE svg PUBLIC "-//W3C//DTD SVG 1.1//EN" "http://www.w3.org/Graphics/SVG/1.1/DTD/svg11.dtd">
<svg width="352px" height="96px" version="1.1" xmlns="http://www.w3.org/2000/svg" xmlns:xlink="http://www.w3.org/1999/xlink" xml:space="preserve" xmlns:serif="http://www.serif.com/" style="fill-rule:evenodd;clip-rule:evenodd;stroke-miterlimit:1.5;">
    <path d="M80,48L112,48" style="fill:none;stroke:black;stroke-width:2px;"/>
    <path d="M240,48L272,48" style="fill:none;stroke:black;stroke-width:2px;"/>
    <text x="160.953px" y="62.531px" style="font-family:'Helvetica';font-size:40px;">?</text>
    <g id="Feuchtigkeitssensor">
        <rect x="16" y="16" width="64" height="64" style="fill:rgb(144,202,249);stroke:black;stroke-width:2px;stroke-linecap:round;stroke-linejoin:round;"/>
        <path d="M48,31.54L46.5,33.22C46.5,33.22 43.94,36.12 41.36,39.88C38.78,43.64 36,48.14 36,52.46C36,59.043 41.417,64.46 48,64.46C54.583,64.46 60,59.043 60,52.46C60,48.14 57.22,43.64 54.64,39.88C52.06,36.12 49.5,33.22 49.5,33.22L48,31.54M48,37.8C48.88,38.84 49.68,39.7 51.36,42.14C53.78,45.66 56,50.14 56,52.46C56,56.9 52.44,60.46 48,60.46C43.56,60.46 40,56.9 40,52.46C40,50.14 42.22,45.66 44.64,42.14C46.32,39.7 47.12,38.84 48,37.8Z" style="fill-rule:nonzero;"/>
    </g>
    <g id="Motor">
        <rect x="272" y="16" width="64" height="64" style="fill:rgb(255,204,128);stroke:black;stroke-width:2px;stroke-linecap:round;stroke-linejoin:round;"/>
        <path d="M304,40C308.389,40 312,43.611 312,48C312,52.389 308.389,56 304,56C299.611,56 296,52.389 296,48C296,43.611 299.611,40 304,40M304,44C301.806,44 300,45.806 300,48C300,50.194 301.806,52 304,52C306.194,52 308,50.194 308,48C308,45.806 306.194,44 304,44M300,68C299.5,68 299.08,67.64 299,67.16L298.26,61.86C297,61.36 295.92,60.68 294.88,59.88L289.9,61.9C289.46,62.06 288.92,61.9 288.68,61.46L284.68,54.54C284.42,54.1 284.54,53.56 284.92,53.26L289.14,49.94L289,48L289.14,46L284.92,42.74C284.54,42.44 284.42,41.9 284.68,41.46L288.68,34.54C288.92,34.1 289.46,33.92 289.9,34.1L294.88,36.1C295.92,35.32 297,34.64 298.26,34.14L299,28.84C299.08,28.36 299.5,28 300,28L308,28C308.5,28 308.92,28.36 309,28.84L309.74,34.14C311,34.64 312.08,35.32 313.12,36.1L318.1,34.1C318.54,33.92 319.08,34.1 319.32,34.54L323.32,41.46C323.58,41.9 323.46,42.44 323.08,42.74L318.86,46L319,48L318.86,50L323.08,53.26C323.46,53.56 323.58,54.1 323.32,54.54L319.32,61.46C319.08,61.9 318.54,62.08 318.1,61.9L313.12,59.9C312.08,60.68 311,61.36 309.74,61.86L309,67.16C308.92,67.64 308.5,68 308,68L300,68M302.5,32L301.76,37.22C299.36,37.72 297.24,39 295.7,40.78L290.88,38.7L289.38,41.3L293.6,44.4C292.8,46.74 292.8,49.28 293.6,51.6L289.36,54.72L290.86,57.32L295.72,55.24C297.26,57 299.36,58.28 301.74,58.76L302.48,64L305.52,64L306.26,58.78C308.64,58.28 310.74,57 312.28,55.24L317.14,57.32L318.64,54.72L314.4,51.62C315.2,49.28 315.2,46.74 314.4,44.4L318.62,41.3L317.12,38.7L312.3,40.78C310.76,39 308.64,37.72 306.24,37.24L305.5,32L302.5,32Z" style="fill-rule:nonzero;"/>
    </g>
</svg>
