<?xml version="1.0" encoding="UTF-8" standalone="no"?>
<!DOCTYPE svg PUBLIC "-//W3C//DTD SVG 1.1//EN" "http://www.w3.org/Graphics/SVG/1.1/DTD/svg11.dtd">
<svg width="352px" height="96px" version="1.1" xmlns="http://www.w3.org/2000/svg" xmlns:xlink="http://www.w3.org/1999/xlink" xml:space="preserve" xmlns:serif="http://www.serif.com/" style="fill-rule:evenodd;clip-rule:evenodd;stroke-miterlimit:1.5;">
    <path d="M80,48L144,48" style="fill:none;stroke:black;stroke-width:2px;"/>
    <path d="M208,48L272,48" style="fill:none;stroke:black;stroke-width:2px;"/>
    <g id="Temperatursensor">
        <rect x="16" y="16" width="64" height="64" style="fill:rgb(144,202,249);stroke:black;stroke-width:2px;stroke-linecap:round;stroke-linejoin:round;"/>
        <g>
            <path d="M49.561,57.644L49.561,29.09C49.561,26.32 47.295,24.054 44.525,24.054C41.755,24.054 39.489,26.32 39.489,29.09L39.489,57.644C37.626,59.155 36.468,61.471 36.468,63.888C36.468,68.32 40.094,71.946 44.525,71.946C48.957,71.946 52.532,68.32 52.532,63.888C52.532,61.471 51.424,59.155 49.561,57.644ZM44.525,70.234C41.05,70.234 38.23,67.413 38.23,63.939C38.23,61.723 39.389,59.709 41.252,58.55L41.252,29.14C41.252,27.328 42.712,25.817 44.576,25.817C46.389,25.817 47.899,27.277 47.899,29.14L47.899,58.55C49.712,59.709 50.921,61.723 50.921,63.939C50.82,67.413 48,70.234 44.525,70.234Z" style="fill-rule:nonzero;"/>
            <path d="M46.086,59.608L46.086,29.14C46.086,28.284 45.381,27.579 44.525,27.579C43.669,27.579 42.964,28.284 42.964,29.14L42.964,59.608C41.202,60.262 39.943,61.924 39.943,63.888C39.943,66.406 42.007,68.471 44.525,68.471C47.043,68.471 49.108,66.406 49.108,63.888C49.108,61.924 47.849,60.262 46.086,59.608Z" style="fill-rule:nonzero;"/>
            <rect x="51.324" y="29.191" width="8.209" height="1.712"/>
            <rect x="51.324" y="34.881" width="3.878" height="1.712"/>
            <rect x="51.324" y="40.622" width="8.209" height="1.712"/>
            <rect x="51.324" y="46.313" width="3.878" height="1.712"/>
            <rect x="51.324" y="52.004" width="8.209" height="1.712"/>
        </g>
    </g>
    <g id="Heizung">
        <rect x="272" y="16" width="64" height="64" style="fill:rgb(255,204,128);stroke:black;stroke-width:2px;stroke-linecap:round;stroke-linejoin:round;"/>
        <g>
            <path d="M315.671,50.764L314.443,50.764L314.443,43.393L315.671,43.393L315.671,40.943C315.671,38.225 317.877,36.021 320.586,36.021C323.3,36.021 325.5,38.217 325.5,40.943L325.5,63.043C325.5,65.761 323.294,67.964 320.586,67.964C317.874,67.964 315.675,65.772 315.671,63.05L314.443,63.05L314.443,55.679L315.671,55.679L315.671,50.764ZM304.614,50.764L303.386,50.764L303.386,43.393L304.614,43.393L304.614,40.943C304.614,38.225 306.82,36.021 309.529,36.021C312.243,36.021 314.443,38.217 314.443,40.943L314.443,63.043C314.443,65.761 312.237,67.964 309.529,67.964C306.817,67.964 304.618,65.772 304.614,63.05L303.386,63.05L303.386,55.679L304.614,55.679L304.614,50.764ZM293.557,50.764L292.329,50.764L292.329,43.393L293.557,43.393L293.557,40.943C293.557,38.225 295.763,36.021 298.471,36.021C301.186,36.021 303.386,38.217 303.386,40.943L303.386,63.043C303.386,65.761 301.18,67.964 298.471,67.964C295.76,67.964 293.561,65.772 293.557,63.05L292.329,63.05L292.329,55.679L293.557,55.679L293.557,50.764ZM314.315,31.708C314.401,31.993 314.449,32.276 314.442,32.523C314.438,32.682 314.393,32.79 314.223,33.073C314.219,33.081 314.219,33.081 314.214,33.088C313.94,33.545 313.83,33.82 313.829,34.259C313.828,34.705 313.9,34.965 314.182,35.643C314.313,35.956 314.672,36.105 314.986,35.974C315.299,35.844 315.447,35.484 315.317,35.171C315.092,34.632 315.057,34.504 315.057,34.262C315.058,34.105 315.1,34 315.268,33.72C315.272,33.713 315.272,33.713 315.277,33.705C315.548,33.253 315.658,32.988 315.67,32.558C315.682,32.161 315.612,31.754 315.491,31.353C315.425,31.133 315.357,30.959 315.308,30.852C315.167,30.543 314.803,30.407 314.494,30.549C314.185,30.69 314.05,31.054 314.191,31.363C314.219,31.423 314.266,31.546 314.315,31.708ZM287.414,36.021C290.128,36.021 292.329,38.217 292.329,40.943L292.329,63.043C292.329,65.761 290.123,67.964 287.414,67.964C284.7,67.964 282.5,65.769 282.5,63.043L282.5,40.943C282.5,38.225 284.706,36.021 287.414,36.021ZM284.957,63.043C284.957,64.409 286.055,65.507 287.414,65.507C288.767,65.507 289.871,64.402 289.871,63.043L289.871,40.943C289.871,39.577 288.774,38.479 287.414,38.479C286.061,38.479 284.957,39.583 284.957,40.943L284.957,63.043ZM296.014,63.043C296.014,64.409 297.112,65.507 298.471,65.507C299.825,65.507 300.929,64.402 300.929,63.043L300.929,40.943C300.929,39.577 299.831,38.479 298.471,38.479C297.118,38.479 296.014,39.583 296.014,40.943L296.014,63.043ZM307.071,63.043C307.071,64.409 308.169,65.507 309.529,65.507C310.882,65.507 311.986,64.402 311.986,63.043L311.986,40.943C311.986,39.577 310.888,38.479 309.529,38.479C308.175,38.479 307.071,39.583 307.071,40.943L307.071,63.043ZM318.129,63.043C318.129,64.409 319.226,65.507 320.586,65.507C321.939,65.507 323.043,64.402 323.043,63.043L323.043,40.943C323.043,39.577 321.945,38.479 320.586,38.479C319.233,38.479 318.129,39.583 318.129,40.943L318.129,63.043ZM291.894,31.353C291.773,31.754 291.704,32.161 291.715,32.558C291.728,32.988 291.838,33.253 292.109,33.705C292.114,33.713 292.114,33.713 292.118,33.72C292.286,34 292.328,34.105 292.329,34.262C292.329,34.504 292.294,34.632 292.069,35.171C291.939,35.484 292.087,35.844 292.4,35.974C292.713,36.105 293.073,35.956 293.203,35.643C293.486,34.965 293.558,34.705 293.557,34.259C293.556,33.82 293.445,33.545 293.172,33.088C293.167,33.081 293.167,33.081 293.163,33.073C292.993,32.79 292.948,32.682 292.944,32.523C292.936,32.276 292.985,31.993 293.07,31.708C293.119,31.546 293.167,31.423 293.195,31.363C293.336,31.054 293.2,30.69 292.892,30.549C292.583,30.407 292.219,30.543 292.078,30.852C292.028,30.959 291.961,31.133 291.894,31.353ZM303.733,29.535C303.913,30.004 304.014,30.468 303.999,30.88C303.988,31.176 303.88,31.381 303.511,31.863C303.502,31.875 303.502,31.875 303.493,31.887C302.975,32.566 302.773,32.96 302.771,33.604C302.77,34.272 302.905,34.655 303.456,35.695C303.615,35.995 303.987,36.109 304.287,35.95C304.586,35.791 304.701,35.419 304.542,35.12C304.079,34.245 303.999,34.02 304,33.607C304.001,33.314 304.106,33.11 304.47,32.633C304.479,32.621 304.479,32.621 304.488,32.609C305.003,31.935 305.203,31.554 305.226,30.925C305.248,30.324 305.114,29.705 304.88,29.095C304.752,28.76 304.622,28.5 304.53,28.341C304.359,28.048 303.983,27.948 303.69,28.119C303.397,28.29 303.297,28.666 303.468,28.959C303.53,29.065 303.631,29.268 303.733,29.535Z"/>
        </g>
    </g>
    <g id="Inverter">
        <path d="M144,32L192,48L144,64L144,32Z" style="fill:white;fill-rule:nonzero;stroke:black;stroke-width:2px;stroke-linecap:square;stroke-miterlimit:10;"/>
        <path d="M208,48C208,52.389 204.389,56 200,56C195.611,56 192,52.389 192,48C192,43.611 195.611,40 200,40C204.386,40 207.996,43.606 208,47.992" style="fill:white;fill-rule:nonzero;stroke:black;stroke-width:2px;stroke-miterlimit:10;"/>
    </g>
</svg>
