<?xml version="1.0" encoding="UTF-8" standalone="no"?>
<!DOCTYPE svg PUBLIC "-//W3C//DTD SVG 1.1//EN" "http://www.w3.org/Graphics/SVG/1.1/DTD/svg11.dtd">
<svg width="368px" height="192px" version="1.1" xmlns="http://www.w3.org/2000/svg" xmlns:xlink="http://www.w3.org/1999/xlink" xml:space="preserve" xmlns:serif="http://www.serif.com/" style="fill-rule:evenodd;clip-rule:evenodd;stroke-linejoin:round;stroke-miterlimit:1.5;">
    <path d="M80,144L112,144" style="fill:none;stroke:black;stroke-width:2px;"/>
    <path d="M80,48L112,48" style="fill:none;stroke:black;stroke-width:2px;"/>
    <path d="M256,96L288,96" style="fill:none;stroke:black;stroke-width:2px;"/>
    <g id="Motor">
        <rect x="288" y="64" width="64" height="64" style="fill:rgb(255,204,128);stroke:black;stroke-width:2px;stroke-linecap:round;"/>
        <path d="M320,88C324.389,88 328,91.611 328,96C328,100.389 324.389,104 320,104C315.611,104 312,100.389 312,96C312,91.611 315.611,88 320,88M320,92C317.806,92 316,93.806 316,96C316,98.194 317.806,100 320,100C322.194,100 324,98.194 324,96C324,93.806 322.194,92 320,92M316,116C315.5,116 315.08,115.64 315,115.16L314.26,109.86C313,109.36 311.92,108.68 310.88,107.88L305.9,109.9C305.46,110.06 304.92,109.9 304.68,109.46L300.68,102.54C300.42,102.1 300.54,101.56 300.92,101.26L305.14,97.94L305,96L305.14,94L300.92,90.74C300.54,90.44 300.42,89.9 300.68,89.46L304.68,82.54C304.92,82.1 305.46,81.92 305.9,82.1L310.88,84.1C311.92,83.32 313,82.64 314.26,82.14L315,76.84C315.08,76.36 315.5,76 316,76L324,76C324.5,76 324.92,76.36 325,76.84L325.74,82.14C327,82.64 328.08,83.32 329.12,84.1L334.1,82.1C334.54,81.92 335.08,82.1 335.32,82.54L339.32,89.46C339.58,89.9 339.46,90.44 339.08,90.74L334.86,94L335,96L334.86,98L339.08,101.26C339.46,101.56 339.58,102.1 339.32,102.54L335.32,109.46C335.08,109.9 334.54,110.08 334.1,109.9L329.12,107.9C328.08,108.68 327,109.36 325.74,109.86L325,115.16C324.92,115.64 324.5,116 324,116L316,116M318.5,80L317.76,85.22C315.36,85.72 313.24,87 311.7,88.78L306.88,86.7L305.38,89.3L309.6,92.4C308.8,94.74 308.8,97.28 309.6,99.6L305.36,102.72L306.86,105.32L311.72,103.24C313.26,105 315.36,106.28 317.74,106.76L318.48,112L321.52,112L322.26,106.78C324.64,106.28 326.74,105 328.28,103.24L333.14,105.32L334.64,102.72L330.4,99.62C331.2,97.28 331.2,94.74 330.4,92.4L334.62,89.3L333.12,86.7L328.3,88.78C326.76,87 324.64,85.72 322.24,85.24L321.5,80L318.5,80Z" style="fill-rule:nonzero;"/>
    </g>
    <g id="Bewegungssensor">
        <rect x="16" y="16" width="64" height="64" style="fill:rgb(144,202,249);stroke:black;stroke-width:2px;stroke-linecap:round;"/>
        <path d="M57,34.5C59.194,34.5 61,32.694 61,30.5C61,28.306 59.194,26.5 57,26.5C54.806,26.5 53,28.306 53,30.5C53,32.694 54.806,34.5 57,34.5M49.8,62.3L51.8,53.5L56,57.5L56,69.5L60,69.5L60,54.5L55.8,50.5L57,44.5C59.78,47.68 63.78,49.5 68,49.5L68,45.5C64.48,45.56 61.2,43.72 59.4,40.7L57.4,37.5C56.68,36.3 55.4,35.5 54,35.5C53.4,35.5 53,35.7 52.4,35.7L42,40.1L42,49.5L46,49.5L46,42.7L49.6,41.3L46.4,57.5L36.6,55.5L35.8,59.5L49.8,62.3M32,41.5C30.903,41.5 30,40.597 30,39.5C30,38.403 30.903,37.5 32,37.5L38,37.5L38,41.5L32,41.5M34,33.5C32.903,33.5 32,32.597 32,31.5C32,30.403 32.903,29.5 34,29.5L44,29.5L44,33.5L34,33.5M30,49.5C28.903,49.5 28,48.597 28,47.5C28,46.403 28.903,45.5 30,45.5L38,45.5L38,49.5L30,49.5Z" style="fill-rule:nonzero;"/>
    </g>
    <g id="Schalter">
        <rect x="16" y="112" width="64" height="64" style="fill:rgb(144,202,249);stroke:black;stroke-width:2px;stroke-linecap:round;"/>
        <g>
            <path d="M48,151.876C50.208,151.876 52,153.661 52,155.861C52,158.06 50.208,159.846 48,159.846C45.792,159.846 44,158.06 44,155.861C44,153.661 45.792,151.876 48,151.876ZM48,153.868C49.104,153.868 50,154.761 50,155.861C50,156.961 49.104,157.853 48,157.853C46.896,157.853 46,156.961 46,155.861C46,154.761 46.896,153.868 48,153.868Z"/>
            <path d="M36,119.939L36,168.061L60,168.061L60,143.991L64,125.939L60,119.939L36,119.939ZM40,163.939L56,163.939L56,147.939L40,147.939L40,163.939ZM40,143.939L56,143.939L59,129.939L43,129.939L40,143.939ZM41,122.939L43,125.939L60,125.939L58,122.939L41,122.939Z"/>
            <path d="M49.646,133.734C49.762,133.189 50.294,132.839 50.834,132.954C51.374,133.069 51.718,133.605 51.602,134.15L50.354,140.019L50.353,140.026C50.234,140.567 49.704,140.914 49.166,140.8C48.626,140.685 48.282,140.149 48.398,139.603L49.646,133.734Z"/>
        </g>
    </g>
</svg>
