<?xml version="1.0" encoding="UTF-8" standalone="no"?>
<!DOCTYPE svg PUBLIC "-//W3C//DTD SVG 1.1//EN" "http://www.w3.org/Graphics/SVG/1.1/DTD/svg11.dtd">
<svg width="400px" height="192px" version="1.1" xmlns="http://www.w3.org/2000/svg" xmlns:xlink="http://www.w3.org/1999/xlink" xml:space="preserve" xmlns:serif="http://www.serif.com/" style="fill-rule:evenodd;clip-rule:evenodd;stroke-linejoin:round;stroke-miterlimit:1.5;">
    <path d="M288,96L320,96" style="fill:none;stroke:black;stroke-width:2px;"/>
    <g id="Motor">
        <rect x="320" y="64" width="64" height="64" style="fill:rgb(255,204,128);stroke:black;stroke-width:2px;stroke-linecap:round;"/>
        <path d="M352,88C356.389,88 360,91.611 360,96C360,100.389 356.389,104 352,104C347.611,104 344,100.389 344,96C344,91.611 347.611,88 352,88M352,92C349.806,92 348,93.806 348,96C348,98.194 349.806,100 352,100C354.194,100 356,98.194 356,96C356,93.806 354.194,92 352,92M348,116C347.5,116 347.08,115.64 347,115.16L346.26,109.86C345,109.36 343.92,108.68 342.88,107.88L337.9,109.9C337.46,110.06 336.92,109.9 336.68,109.46L332.68,102.54C332.42,102.1 332.54,101.56 332.92,101.26L337.14,97.94L337,96L337.14,94L332.92,90.74C332.54,90.44 332.42,89.9 332.68,89.46L336.68,82.54C336.92,82.1 337.46,81.92 337.9,82.1L342.88,84.1C343.92,83.32 345,82.64 346.26,82.14L347,76.84C347.08,76.36 347.5,76 348,76L356,76C356.5,76 356.92,76.36 357,76.84L357.74,82.14C359,82.64 360.08,83.32 361.12,84.1L366.1,82.1C366.54,81.92 367.08,82.1 367.32,82.54L371.32,89.46C371.58,89.9 371.46,90.44 371.08,90.74L366.86,94L367,96L366.86,98L371.08,101.26C371.46,101.56 371.58,102.1 371.32,102.54L367.32,109.46C367.08,109.9 366.54,110.08 366.1,109.9L361.12,107.9C360.08,108.68 359,109.36 357.74,109.86L357,115.16C356.92,115.64 356.5,116 356,116L348,116M350.5,80L349.76,85.22C347.36,85.72 345.24,87 343.7,88.78L338.88,86.7L337.38,89.3L341.6,92.4C340.8,94.74 340.8,97.28 341.6,99.6L337.36,102.72L338.86,105.32L343.72,103.24C345.26,105 347.36,106.28 349.74,106.76L350.48,112L353.52,112L354.26,106.78C356.64,106.28 358.74,105 360.28,103.24L365.14,105.32L366.64,102.72L362.4,99.62C363.2,97.28 363.2,94.74 362.4,92.4L366.62,89.3L365.12,86.7L360.3,88.78C358.76,87 356.64,85.72 354.24,85.24L353.5,80L350.5,80Z" style="fill-rule:nonzero;"/>
    </g>
    <g id="Taster">
        <rect x="16" y="112" width="64" height="64" style="fill:rgb(144,202,249);stroke:black;stroke-width:2px;stroke-linecap:round;"/>
        <g>
            <path d="M64,142.5L70.5,142.5L72.5,156.5L23.5,156.5L26.5,142.5L32,142.5" style="fill:none;stroke:black;stroke-width:4px;stroke-linecap:square;"/>
            <path d="M64,148C64,150.208 56.831,152 48,152C39.169,152 32,150.208 32,148" style="fill:none;stroke:black;stroke-width:4px;stroke-linecap:round;"/>
            <path d="M32,148L32,137" style="fill:none;stroke:black;stroke-width:4px;stroke-linecap:round;"/>
            <path d="M64,148L64,137" style="fill:none;stroke:black;stroke-width:4px;stroke-linecap:round;"/>
            <ellipse cx="48" cy="136" rx="16" ry="4" style="fill:none;stroke:black;stroke-width:4px;stroke-linecap:round;"/>
        </g>
    </g>
    <g id="Taster1" serif:id="Taster">
        <rect x="16" y="16" width="64" height="64" style="fill:rgb(144,202,249);stroke:black;stroke-width:2px;stroke-linecap:round;"/>
        <g>
            <path d="M64,46.5L70.5,46.5L72.5,60.5L23.5,60.5L26.5,46.5L32,46.5" style="fill:none;stroke:black;stroke-width:4px;stroke-linecap:square;"/>
            <path d="M64,52C64,54.208 56.831,56 48,56C39.169,56 32,54.208 32,52" style="fill:none;stroke:black;stroke-width:4px;stroke-linecap:round;"/>
            <path d="M32,52L32,41" style="fill:none;stroke:black;stroke-width:4px;stroke-linecap:round;"/>
            <path d="M64,52L64,41" style="fill:none;stroke:black;stroke-width:4px;stroke-linecap:round;"/>
            <ellipse cx="48" cy="40" rx="16" ry="4" style="fill:none;stroke:black;stroke-width:4px;stroke-linecap:round;"/>
        </g>
    </g>
    <path id="OR" d="M208,64C224,64 248,80 256,96C248,112 224,128 208,128C224,96 224,96 208,64Z" style="fill:white;fill-rule:nonzero;stroke:black;stroke-width:2px;stroke-linejoin:miter;stroke-miterlimit:10;"/>
    <path d="M80,48L112,48L112,80L216,80" style="fill:none;stroke:black;stroke-width:2px;"/>
    <path d="M112,144L112,112L216,112" style="fill:none;stroke:black;stroke-width:2px;"/>
    <path d="M112,144L80,144" style="fill:none;stroke:black;stroke-width:2px;stroke-linecap:round;"/>
    <path d="M256,96L288,96" style="fill:none;stroke:black;stroke-width:2px;"/>
</svg>
