<?xml version="1.0" encoding="UTF-8" standalone="no"?>
<!DOCTYPE svg PUBLIC "-//W3C//DTD SVG 1.1//EN" "http://www.w3.org/Graphics/SVG/1.1/DTD/svg11.dtd">
<svg width="400px" height="192px" version="1.1" xmlns="http://www.w3.org/2000/svg" xmlns:xlink="http://www.w3.org/1999/xlink" xml:space="preserve" xmlns:serif="http://www.serif.com/" style="fill-rule:evenodd;clip-rule:evenodd;stroke-linejoin:round;stroke-miterlimit:1.5;">
    <path d="M288,96L320,96" style="fill:none;stroke:black;stroke-width:2px;"/>
    <path d="M80,144L112,144" style="fill:none;stroke:black;stroke-width:2px;stroke-linecap:round;"/>
    <path d="M80,48L112,48" style="fill:none;stroke:black;stroke-width:2px;"/>
    <g id="Licht">
        <rect x="320" y="64" width="64" height="64" style="fill:rgb(255,204,128);stroke:black;stroke-width:2px;stroke-linecap:round;"/>
        <path d="M340,86.8L335.74,82.56L338.56,79.74L342.8,84L340,86.8M354,75L354,81L350,81L350,75L354,75M368.26,82.56L364,86.8L361.2,84L365.44,79.74L368.26,82.56M337,94L337,98L331,98L331,94L337,94M367,94L373,94L373,98L367,98L367,94M340,113L364,113C366.194,113 368,114.806 368,117L336,117C336,114.806 337.806,113 340,113M352,83C358.583,83 364,88.417 364,95L364,111L340,111L340,95C340,88.417 345.417,83 352,83M352,87C347.611,87 344,90.611 344,95L344,107L360,107L360,95C360,90.611 356.389,87 352,87Z" style="fill-rule:nonzero;"/>
    </g>
    <g id="Taster">
        <rect x="16" y="113" width="64" height="64" style="fill:rgb(144,202,249);stroke:black;stroke-width:2px;stroke-linecap:round;"/>
        <g>
            <path d="M64,143.5L70.5,143.5L72.5,157.5L23.5,157.5L26.5,143.5L32,143.5" style="fill:none;stroke:black;stroke-width:4px;stroke-linecap:square;"/>
            <path d="M64,149C64,151.208 56.831,153 48,153C39.169,153 32,151.208 32,149" style="fill:none;stroke:black;stroke-width:4px;stroke-linecap:round;"/>
            <path d="M32,149L32,138" style="fill:none;stroke:black;stroke-width:4px;stroke-linecap:round;"/>
            <path d="M64,149L64,138" style="fill:none;stroke:black;stroke-width:4px;stroke-linecap:round;"/>
            <ellipse cx="48" cy="137" rx="16" ry="4" style="fill:none;stroke:black;stroke-width:4px;stroke-linecap:round;"/>
        </g>
    </g>
    <g id="Taster1" serif:id="Taster">
        <rect x="16" y="16" width="64" height="64" style="fill:rgb(144,202,249);stroke:black;stroke-width:2px;stroke-linecap:round;"/>
        <g>
            <path d="M64,46.5L70.5,46.5L72.5,60.5L23.5,60.5L26.5,46.5L32,46.5" style="fill:none;stroke:black;stroke-width:4px;stroke-linecap:square;"/>
            <path d="M64,52C64,54.208 56.831,56 48,56C39.169,56 32,54.208 32,52" style="fill:none;stroke:black;stroke-width:4px;stroke-linecap:round;"/>
            <path d="M32,52L32,41" style="fill:none;stroke:black;stroke-width:4px;stroke-linecap:round;"/>
            <path d="M64,52L64,41" style="fill:none;stroke:black;stroke-width:4px;stroke-linecap:round;"/>
            <ellipse cx="48" cy="40" rx="16" ry="4" style="fill:none;stroke:black;stroke-width:4px;stroke-linecap:round;"/>
        </g>
    </g>
    <g id="Lösung">
        <path d="M176,144L192,144L192,112L216,112" style="fill:none;stroke:black;stroke-width:2px;"/>
        <path d="M176,48L192,48L192,80L216,80" style="fill:none;stroke:black;stroke-width:2px;"/>
        <path d="M256,96L288,96" style="fill:none;stroke:black;stroke-width:2px;"/>
        <path id="OR" d="M208,64C224,64 248,80 256,96C248,112 224,128 208,128C224,96 224,96 208,64Z" style="fill:white;fill-rule:nonzero;stroke:black;stroke-width:2px;stroke-linejoin:miter;stroke-miterlimit:10;"/>
        <g id="Inverter">
            <path d="M112,128L160,144L112,160L112,128Z" style="fill:white;fill-rule:nonzero;stroke:black;stroke-width:2px;stroke-linecap:square;stroke-linejoin:miter;stroke-miterlimit:10;"/>
            <path d="M176,144C176,148.389 172.389,152 168,152C163.611,152 160,148.389 160,144C160,139.611 163.611,136 168,136C172.386,136 175.996,139.606 176,143.992" style="fill:white;fill-rule:nonzero;stroke:black;stroke-width:2px;stroke-linejoin:miter;stroke-miterlimit:10;"/>
        </g>
        <g id="Inverter1" serif:id="Inverter">
            <path d="M112,32L160,48L112,64L112,32Z" style="fill:white;fill-rule:nonzero;stroke:black;stroke-width:2px;stroke-linecap:square;stroke-linejoin:miter;stroke-miterlimit:10;"/>
            <path d="M176,48C176,52.389 172.389,56 168,56C163.611,56 160,52.389 160,48C160,43.611 163.611,40 168,40C172.386,40 175.996,43.606 176,47.992" style="fill:white;fill-rule:nonzero;stroke:black;stroke-width:2px;stroke-linejoin:miter;stroke-miterlimit:10;"/>
        </g>
    </g>
</svg>
