<?xml version="1.0" encoding="UTF-8" standalone="no"?>
<!DOCTYPE svg PUBLIC "-//W3C//DTD SVG 1.1//EN" "http://www.w3.org/Graphics/SVG/1.1/DTD/svg11.dtd">
<svg width="400px" height="192px" version="1.1" xmlns="http://www.w3.org/2000/svg" xmlns:xlink="http://www.w3.org/1999/xlink" xml:space="preserve" xmlns:serif="http://www.serif.com/" style="fill-rule:evenodd;clip-rule:evenodd;stroke-linecap:round;stroke-linejoin:round;stroke-miterlimit:1.5;">
    <path d="M80,144L112,144" style="fill:none;stroke:black;stroke-width:2px;"/>
    <path d="M80,48L128,48L128,128L236,128" style="fill:none;stroke:black;stroke-width:2px;stroke-linecap:butt;"/>
    <g id="Lautsprecher">
        <rect x="320" y="112" width="64" height="64" style="fill:rgb(255,204,128);stroke:black;stroke-width:2px;"/>
        <path d="M356,126.46L356,130.58C361.78,132.3 366,137.66 366,144C366,150.34 361.78,155.68 356,157.4L356,161.54C364,159.72 370,152.56 370,144C370,135.44 364,128.28 356,126.46M361,144C361,140.46 359,137.42 356,135.94L356,152C359,150.58 361,147.52 361,144M334,138L334,150L342,150L352,160L352,128L342,138L334,138Z" style="fill-rule:nonzero;"/>
    </g>
    <g id="Licht">
        <rect x="320" y="16" width="64" height="64" style="fill:rgb(255,204,128);stroke:black;stroke-width:2px;"/>
        <path d="M340,38.8L335.74,34.56L338.56,31.74L342.8,36L340,38.8M354,27L354,33L350,33L350,27L354,27M368.26,34.56L364,38.8L361.2,36L365.44,31.74L368.26,34.56M337,46L337,50L331,50L331,46L337,46M367,46L373,46L373,50L367,50L367,46M340,65L364,65C366.194,65 368,66.806 368,69L336,69C336,66.806 337.806,65 340,65M352,35C358.583,35 364,40.417 364,47L364,63L340,63L340,47C340,40.417 345.417,35 352,35M352,39C347.611,39 344,42.611 344,47L344,59L360,59L360,47C360,42.611 356.389,39 352,39Z" style="fill-rule:nonzero;"/>
    </g>
    <g id="XOR-Gatter">
        <path d="M224,112C234.166,119.386 240,131.434 240,144C240,156.566 234.166,168.614 224,176" style="fill:none;fill-rule:nonzero;stroke:black;stroke-width:2px;stroke-linecap:butt;stroke-linejoin:miter;stroke-miterlimit:10;"/>
        <path id="OR" d="M240,112C256,112 280,128 288,144C280,160 256,176 240,176C256,144 256,144 240,112Z" style="fill:white;fill-rule:nonzero;stroke:black;stroke-width:2px;stroke-linecap:butt;stroke-linejoin:miter;stroke-miterlimit:10;"/>
    </g>
    <path id="OR1" serif:id="OR" d="M240,16C256,16 280,32 288,48C280,64 256,80 240,80C256,48 256,48 240,16Z" style="fill:white;fill-rule:nonzero;stroke:black;stroke-width:2px;stroke-linecap:butt;stroke-linejoin:miter;stroke-miterlimit:10;"/>
    <path d="M288,48L320,48" style="fill:none;stroke:black;stroke-width:2px;stroke-linecap:butt;"/>
    <path d="M288,144L320,144" style="fill:none;stroke:black;stroke-width:2px;stroke-linecap:butt;"/>
    <path d="M112,144L112,64L248,64" style="fill:none;stroke:black;stroke-width:2px;stroke-linecap:butt;"/>
    <path d="M128,48L128,32L248,32" style="fill:none;stroke:black;stroke-width:2px;stroke-linecap:butt;"/>
    <path d="M112,144L112,160L237,160" style="fill:none;stroke:black;stroke-width:2px;stroke-linecap:butt;"/>
    <g id="Schalter">
        <rect x="16" y="112" width="64" height="64" style="fill:rgb(144,202,249);stroke:black;stroke-width:2px;"/>
        <g>
            <path d="M48,151.876C50.208,151.876 52,153.661 52,155.861C52,158.06 50.208,159.846 48,159.846C45.792,159.846 44,158.06 44,155.861C44,153.661 45.792,151.876 48,151.876ZM48,153.868C49.104,153.868 50,154.761 50,155.861C50,156.961 49.104,157.853 48,157.853C46.896,157.853 46,156.961 46,155.861C46,154.761 46.896,153.868 48,153.868Z"/>
            <path d="M36,119.939L36,168.061L60,168.061L60,143.991L64,125.939L60,119.939L36,119.939ZM40,163.939L56,163.939L56,147.939L40,147.939L40,163.939ZM40,143.939L56,143.939L59,129.939L43,129.939L40,143.939ZM41,122.939L43,125.939L60,125.939L58,122.939L41,122.939Z"/>
            <path d="M49.646,133.734C49.762,133.189 50.294,132.839 50.834,132.954C51.374,133.069 51.718,133.605 51.602,134.15L50.354,140.019L50.353,140.026C50.234,140.567 49.704,140.914 49.166,140.8C48.626,140.685 48.282,140.149 48.398,139.603L49.646,133.734Z"/>
        </g>
    </g>
    <g id="Schalter1" serif:id="Schalter">
        <rect x="16" y="16" width="64" height="64" style="fill:rgb(144,202,249);stroke:black;stroke-width:2px;"/>
        <g>
            <path d="M48,55.876C50.208,55.876 52,57.661 52,59.861C52,62.06 50.208,63.846 48,63.846C45.792,63.846 44,62.06 44,59.861C44,57.661 45.792,55.876 48,55.876ZM48,57.868C49.104,57.868 50,58.761 50,59.861C50,60.961 49.104,61.853 48,61.853C46.896,61.853 46,60.961 46,59.861C46,58.761 46.896,57.868 48,57.868Z"/>
            <path d="M36,23.939L36,72.061L60,72.061L60,47.991L64,29.939L60,23.939L36,23.939ZM40,67.939L56,67.939L56,51.939L40,51.939L40,67.939ZM40,47.939L56,47.939L59,33.939L43,33.939L40,47.939ZM41,26.939L43,29.939L60,29.939L58,26.939L41,26.939Z"/>
            <path d="M49.646,37.734C49.762,37.189 50.294,36.839 50.834,36.954C51.374,37.069 51.718,37.605 51.602,38.15L50.354,44.019L50.353,44.026C50.234,44.567 49.704,44.914 49.166,44.8C48.626,44.685 48.282,44.149 48.398,43.603L49.646,37.734Z"/>
        </g>
    </g>
</svg>
