<?xml version="1.0" encoding="UTF-8" standalone="no"?>
<!DOCTYPE svg PUBLIC "-//W3C//DTD SVG 1.1//EN" "http://www.w3.org/Graphics/SVG/1.1/DTD/svg11.dtd">
<svg width="400px" height="192px" version="1.1" xmlns="http://www.w3.org/2000/svg" xmlns:xlink="http://www.w3.org/1999/xlink" xml:space="preserve" xmlns:serif="http://www.serif.com/" style="fill-rule:evenodd;clip-rule:evenodd;stroke-linecap:round;stroke-linejoin:round;stroke-miterlimit:1.5;">
    <path d="M80,144L112,144L112,112L140,112" style="fill:none;stroke:black;stroke-width:2px;"/>
    <path d="M192,96L224,96" style="fill:none;stroke:black;stroke-width:2px;stroke-linecap:butt;"/>
    <path d="M80,48L112,48" style="fill:none;stroke:black;stroke-width:2px;stroke-linecap:butt;"/>
    <g id="Licht">
        <rect x="320" y="64" width="64" height="64" style="fill:rgb(255,204,128);stroke:black;stroke-width:2px;"/>
        <path d="M340,86.8L335.74,82.56L338.56,79.74L342.8,84L340,86.8M354,75L354,81L350,81L350,75L354,75M368.26,82.56L364,86.8L361.2,84L365.44,79.74L368.26,82.56M337,94L337,98L331,98L331,94L337,94M367,94L373,94L373,98L367,98L367,94M340,113L364,113C366.194,113 368,114.806 368,117L336,117C336,114.806 337.806,113 340,113M352,83C358.583,83 364,88.417 364,95L364,111L340,111L340,95C340,88.417 345.417,83 352,83M352,87C347.611,87 344,90.611 344,95L344,107L360,107L360,95C360,90.611 356.389,87 352,87Z" style="fill-rule:nonzero;"/>
    </g>
    <g id="XOR-Gatter">
        <path d="M128,64C138.166,71.386 144,83.434 144,96C144,108.566 138.166,120.614 128,128" style="fill:none;fill-rule:nonzero;stroke:black;stroke-width:2px;stroke-linecap:butt;stroke-linejoin:miter;stroke-miterlimit:10;"/>
        <path id="OR" d="M144,64C160,64 184,80 192,96C184,112 160,128 144,128C160,96 160,96 144,64Z" style="fill:white;fill-rule:nonzero;stroke:black;stroke-width:2px;stroke-linecap:butt;stroke-linejoin:miter;stroke-miterlimit:10;"/>
    </g>
    <path d="M288,96L320,96" style="fill:none;stroke:black;stroke-width:2px;stroke-linecap:butt;"/>
    <path d="M112,48L112,80L140,80" style="fill:none;stroke:black;stroke-width:2px;stroke-linecap:butt;"/>
    <g id="Schalter">
        <rect x="16" y="16" width="64" height="64" style="fill:rgb(144,202,249);stroke:black;stroke-width:2px;"/>
        <g>
            <path d="M48,55.876C50.208,55.876 52,57.661 52,59.861C52,62.06 50.208,63.846 48,63.846C45.792,63.846 44,62.06 44,59.861C44,57.661 45.792,55.876 48,55.876ZM48,57.868C49.104,57.868 50,58.761 50,59.861C50,60.961 49.104,61.853 48,61.853C46.896,61.853 46,60.961 46,59.861C46,58.761 46.896,57.868 48,57.868Z"/>
            <path d="M36,23.939L36,72.061L60,72.061L60,47.991L64,29.939L60,23.939L36,23.939ZM40,67.939L56,67.939L56,51.939L40,51.939L40,67.939ZM40,47.939L56,47.939L59,33.939L43,33.939L40,47.939ZM41,26.939L43,29.939L60,29.939L58,26.939L41,26.939Z"/>
            <path d="M49.646,37.734C49.762,37.189 50.294,36.839 50.834,36.954C51.374,37.069 51.718,37.605 51.602,38.15L50.354,44.019L50.353,44.026C50.234,44.567 49.704,44.914 49.166,44.8C48.626,44.685 48.282,44.149 48.398,43.603L49.646,37.734Z"/>
        </g>
    </g>
    <g id="Schalter1" serif:id="Schalter">
        <rect x="16" y="112" width="64" height="64" style="fill:rgb(144,202,249);stroke:black;stroke-width:2px;"/>
        <g>
            <path d="M48,151.876C50.208,151.876 52,153.661 52,155.861C52,158.06 50.208,159.846 48,159.846C45.792,159.846 44,158.06 44,155.861C44,153.661 45.792,151.876 48,151.876ZM48,153.868C49.104,153.868 50,154.761 50,155.861C50,156.961 49.104,157.853 48,157.853C46.896,157.853 46,156.961 46,155.861C46,154.761 46.896,153.868 48,153.868Z"/>
            <path d="M36,119.939L36,168.061L60,168.061L60,143.991L64,125.939L60,119.939L36,119.939ZM40,163.939L56,163.939L56,147.939L40,147.939L40,163.939ZM40,143.939L56,143.939L59,129.939L43,129.939L40,143.939ZM41,122.939L43,125.939L60,125.939L58,122.939L41,122.939Z"/>
            <path d="M49.646,133.734C49.762,133.189 50.294,132.839 50.834,132.954C51.374,133.069 51.718,133.605 51.602,134.15L50.354,140.019L50.353,140.026C50.234,140.567 49.704,140.914 49.166,140.8C48.626,140.685 48.282,140.149 48.398,139.603L49.646,133.734Z"/>
        </g>
    </g>
    <g id="Inverter">
        <path d="M224,80L272,96L224,112L224,80Z" style="fill:white;fill-rule:nonzero;stroke:black;stroke-width:2px;stroke-linecap:square;stroke-linejoin:miter;stroke-miterlimit:10;"/>
        <path d="M288,96C288,100.389 284.389,104 280,104C275.611,104 272,100.389 272,96C272,91.611 275.611,88 280,88C284.386,88 287.996,91.606 288,95.992" style="fill:white;fill-rule:nonzero;stroke:black;stroke-width:2px;stroke-linecap:butt;stroke-linejoin:miter;stroke-miterlimit:10;"/>
    </g>
</svg>
