<?xml version="1.0" encoding="UTF-8" standalone="no"?>
<!DOCTYPE svg PUBLIC "-//W3C//DTD SVG 1.1//EN" "http://www.w3.org/Graphics/SVG/1.1/DTD/svg11.dtd">
<svg width="480px" height="272px" version="1.1" xmlns="http://www.w3.org/2000/svg" xmlns:xlink="http://www.w3.org/1999/xlink" xml:space="preserve" xmlns:serif="http://www.serif.com/" style="fill-rule:evenodd;clip-rule:evenodd;stroke-linecap:round;stroke-linejoin:round;stroke-miterlimit:1.5;">
    <path d="M80,224L112,224" style="fill:none;stroke:black;stroke-width:2px;"/>
    <path d="M80,144L112,144" style="fill:none;stroke:black;stroke-width:2px;"/>
    <path d="M80,48L112,48" style="fill:none;stroke:black;stroke-width:2px;"/>
    <path d="M368,160L400,160" style="fill:none;stroke:black;stroke-width:2px;stroke-linecap:butt;"/>
    <path d="M368,64L400,64" style="fill:none;stroke:black;stroke-width:2px;stroke-linecap:butt;"/>
    <g id="Licht">
        <rect x="400" y="32" width="64" height="64" style="fill:rgb(255,204,128);stroke:black;stroke-width:2px;"/>
        <path d="M420,54.8L415.74,50.56L418.56,47.74L422.8,52L420,54.8M434,43L434,49L430,49L430,43L434,43M448.26,50.56L444,54.8L441.2,52L445.44,47.74L448.26,50.56M417,62L417,66L411,66L411,62L417,62M447,62L453,62L453,66L447,66L447,62M420,81L444,81C446.194,81 448,82.806 448,85L416,85C416,82.806 417.806,81 420,81M432,51C438.583,51 444,56.417 444,63L444,79L420,79L420,63C420,56.417 425.417,51 432,51M432,55C427.611,55 424,58.611 424,63L424,75L440,75L440,63C440,58.611 436.389,55 432,55Z" style="fill-rule:nonzero;"/>
    </g>
    <g id="Licht1" serif:id="Licht">
        <rect x="400" y="128" width="64" height="64" style="fill:rgb(255,204,128);stroke:black;stroke-width:2px;"/>
        <path d="M420,150.8L415.74,146.56L418.56,143.74L422.8,148L420,150.8M434,139L434,145L430,145L430,139L434,139M448.26,146.56L444,150.8L441.2,148L445.44,143.74L448.26,146.56M417,158L417,162L411,162L411,158L417,158M447,158L453,158L453,162L447,162L447,158M420,177L444,177C446.194,177 448,178.806 448,181L416,181C416,178.806 417.806,177 420,177M432,147C438.583,147 444,152.417 444,159L444,175L420,175L420,159C420,152.417 425.417,147 432,147M432,151C427.611,151 424,154.611 424,159L424,171L440,171L440,159C440,154.611 436.389,151 432,151Z" style="fill-rule:nonzero;"/>
    </g>
    <g id="Taster">
        <rect x="16" y="192" width="64" height="64" style="fill:rgb(144,202,249);stroke:black;stroke-width:2px;"/>
        <g>
            <path d="M64,222.5L70.5,222.5L72.5,236.5L23.5,236.5L26.5,222.5L32,222.5" style="fill:none;stroke:black;stroke-width:4px;stroke-linecap:square;"/>
            <path d="M64,228C64,230.208 56.831,232 48,232C39.169,232 32,230.208 32,228" style="fill:none;stroke:black;stroke-width:4px;"/>
            <path d="M32,228L32,217" style="fill:none;stroke:black;stroke-width:4px;"/>
            <path d="M64,228L64,217" style="fill:none;stroke:black;stroke-width:4px;"/>
            <ellipse cx="48" cy="216" rx="16" ry="4" style="fill:none;stroke:black;stroke-width:4px;"/>
        </g>
    </g>
    <g id="Schalter">
        <rect x="16" y="16" width="64" height="64" style="fill:rgb(144,202,249);stroke:black;stroke-width:2px;"/>
        <g>
            <path d="M48,55.876C50.208,55.876 52,57.661 52,59.861C52,62.06 50.208,63.846 48,63.846C45.792,63.846 44,62.06 44,59.861C44,57.661 45.792,55.876 48,55.876ZM48,57.868C49.104,57.868 50,58.761 50,59.861C50,60.961 49.104,61.853 48,61.853C46.896,61.853 46,60.961 46,59.861C46,58.761 46.896,57.868 48,57.868Z"/>
            <path d="M36,23.939L36,72.061L60,72.061L60,47.991L64,29.939L60,23.939L36,23.939ZM40,67.939L56,67.939L56,51.939L40,51.939L40,67.939ZM40,47.939L56,47.939L59,33.939L43,33.939L40,47.939ZM41,26.939L43,29.939L60,29.939L58,26.939L41,26.939Z"/>
            <path d="M49.646,37.734C49.762,37.189 50.294,36.839 50.834,36.954C51.374,37.069 51.718,37.605 51.602,38.15L50.354,44.019L50.353,44.026C50.234,44.567 49.704,44.914 49.166,44.8C48.626,44.685 48.282,44.149 48.398,43.603L49.646,37.734Z"/>
        </g>
    </g>
    <g id="Schalter1" serif:id="Schalter">
        <rect x="16" y="112" width="64" height="64" style="fill:rgb(144,202,249);stroke:black;stroke-width:2px;"/>
        <g>
            <path d="M48,151.876C50.208,151.876 52,153.661 52,155.861C52,158.06 50.208,159.846 48,159.846C45.792,159.846 44,158.06 44,155.861C44,153.661 45.792,151.876 48,151.876ZM48,153.868C49.104,153.868 50,154.761 50,155.861C50,156.961 49.104,157.853 48,157.853C46.896,157.853 46,156.961 46,155.861C46,154.761 46.896,153.868 48,153.868Z"/>
            <path d="M36,119.939L36,168.061L60,168.061L60,143.991L64,125.939L60,119.939L36,119.939ZM40,163.939L56,163.939L56,147.939L40,147.939L40,163.939ZM40,143.939L56,143.939L59,129.939L43,129.939L40,143.939ZM41,122.939L43,125.939L60,125.939L58,122.939L41,122.939Z"/>
            <path d="M49.646,133.734C49.762,133.189 50.294,132.839 50.834,132.954C51.374,133.069 51.718,133.605 51.602,134.15L50.354,140.019L50.353,140.026C50.234,140.567 49.704,140.914 49.166,140.8C48.626,140.685 48.282,140.149 48.398,139.603L49.646,133.734Z"/>
        </g>
    </g>
</svg>
