<?xml version="1.0" encoding="UTF-8" standalone="no"?>
<!DOCTYPE svg PUBLIC "-//W3C//DTD SVG 1.1//EN" "http://www.w3.org/Graphics/SVG/1.1/DTD/svg11.dtd">
<svg width="400px" height="192px" version="1.1" xmlns="http://www.w3.org/2000/svg" xmlns:xlink="http://www.w3.org/1999/xlink" xml:space="preserve" xmlns:serif="http://www.serif.com/" style="fill-rule:evenodd;clip-rule:evenodd;stroke-linecap:round;stroke-linejoin:round;stroke-miterlimit:1.5;">
    <path d="M80,144L112,144" style="fill:none;stroke:black;stroke-width:2px;"/>
    <path d="M80,48L112,48" style="fill:none;stroke:black;stroke-width:2px;"/>
    <path d="M288,144L320,144" style="fill:none;stroke:black;stroke-width:2px;stroke-linecap:butt;"/>
    <path d="M288,48L320,48" style="fill:none;stroke:black;stroke-width:2px;stroke-linecap:butt;"/>
    <g id="Licht">
        <rect x="320" y="16" width="64" height="64" style="fill:rgb(255,204,128);stroke:black;stroke-width:2px;"/>
        <path d="M340,38.8L335.74,34.56L338.56,31.74L342.8,36L340,38.8M354,27L354,33L350,33L350,27L354,27M368.26,34.56L364,38.8L361.2,36L365.44,31.74L368.26,34.56M337,46L337,50L331,50L331,46L337,46M367,46L373,46L373,50L367,50L367,46M340,65L364,65C366.194,65 368,66.806 368,69L336,69C336,66.806 337.806,65 340,65M352,35C358.583,35 364,40.417 364,47L364,63L340,63L340,47C340,40.417 345.417,35 352,35M352,39C347.611,39 344,42.611 344,47L344,59L360,59L360,47C360,42.611 356.389,39 352,39Z" style="fill-rule:nonzero;"/>
    </g>
    <g id="Licht1" serif:id="Licht">
        <rect x="320" y="112" width="64" height="64" style="fill:rgb(255,204,128);stroke:black;stroke-width:2px;"/>
        <path d="M340,134.8L335.74,130.56L338.56,127.74L342.8,132L340,134.8M354,123L354,129L350,129L350,123L354,123M368.26,130.56L364,134.8L361.2,132L365.44,127.74L368.26,130.56M337,142L337,146L331,146L331,142L337,142M367,142L373,142L373,146L367,146L367,142M340,161L364,161C366.194,161 368,162.806 368,165L336,165C336,162.806 337.806,161 340,161M352,131C358.583,131 364,136.417 364,143L364,159L340,159L340,143C340,136.417 345.417,131 352,131M352,135C347.611,135 344,138.611 344,143L344,155L360,155L360,143C360,138.611 356.389,135 352,135Z" style="fill-rule:nonzero;"/>
    </g>
    <g id="Schalter">
        <rect x="16" y="16" width="64" height="64" style="fill:rgb(144,202,249);stroke:black;stroke-width:2px;"/>
        <g>
            <path d="M48,55.876C50.208,55.876 52,57.661 52,59.861C52,62.06 50.208,63.846 48,63.846C45.792,63.846 44,62.06 44,59.861C44,57.661 45.792,55.876 48,55.876ZM48,57.868C49.104,57.868 50,58.761 50,59.861C50,60.961 49.104,61.853 48,61.853C46.896,61.853 46,60.961 46,59.861C46,58.761 46.896,57.868 48,57.868Z"/>
            <path d="M36,23.939L36,72.061L60,72.061L60,47.991L64,29.939L60,23.939L36,23.939ZM40,67.939L56,67.939L56,51.939L40,51.939L40,67.939ZM40,47.939L56,47.939L59,33.939L43,33.939L40,47.939ZM41,26.939L43,29.939L60,29.939L58,26.939L41,26.939Z"/>
            <path d="M49.646,37.734C49.762,37.189 50.294,36.839 50.834,36.954C51.374,37.069 51.718,37.605 51.602,38.15L50.354,44.019L50.353,44.026C50.234,44.567 49.704,44.914 49.166,44.8C48.626,44.685 48.282,44.149 48.398,43.603L49.646,37.734Z"/>
        </g>
    </g>
    <g id="Schalter1" serif:id="Schalter">
        <rect x="16" y="112" width="64" height="64" style="fill:rgb(144,202,249);stroke:black;stroke-width:2px;"/>
        <g>
            <path d="M48,151.876C50.208,151.876 52,153.661 52,155.861C52,158.06 50.208,159.846 48,159.846C45.792,159.846 44,158.06 44,155.861C44,153.661 45.792,151.876 48,151.876ZM48,153.868C49.104,153.868 50,154.761 50,155.861C50,156.961 49.104,157.853 48,157.853C46.896,157.853 46,156.961 46,155.861C46,154.761 46.896,153.868 48,153.868Z"/>
            <path d="M36,119.939L36,168.061L60,168.061L60,143.991L64,125.939L60,119.939L36,119.939ZM40,163.939L56,163.939L56,147.939L40,147.939L40,163.939ZM40,143.939L56,143.939L59,129.939L43,129.939L40,143.939ZM41,122.939L43,125.939L60,125.939L58,122.939L41,122.939Z"/>
            <path d="M49.646,133.734C49.762,133.189 50.294,132.839 50.834,132.954C51.374,133.069 51.718,133.605 51.602,134.15L50.354,140.019L50.353,140.026C50.234,140.567 49.704,140.914 49.166,140.8C48.626,140.685 48.282,140.149 48.398,139.603L49.646,133.734Z"/>
        </g>
    </g>
</svg>
