<?xml version="1.0" encoding="UTF-8" standalone="no"?>
<!DOCTYPE svg PUBLIC "-//W3C//DTD SVG 1.1//EN" "http://www.w3.org/Graphics/SVG/1.1/DTD/svg11.dtd">
<svg width="320px" height="96px" version="1.1" xmlns="http://www.w3.org/2000/svg" xmlns:xlink="http://www.w3.org/1999/xlink" xml:space="preserve" xmlns:serif="http://www.serif.com/" style="fill-rule:evenodd;clip-rule:evenodd;stroke-miterlimit:10;">
    <g id="NAND-Gatter">
        <path d="M128,48C128,52.389 124.389,56 120,56C115.611,56 112,52.389 112,48C112,43.611 115.611,40 120,40C124.386,40 127.996,43.606 128,47.992" style="fill:white;fill-rule:nonzero;stroke:black;stroke-width:2px;"/>
        <path id="AND-Gatter" d="M64,16L80,16C97.555,16 112,30.445 112,48C112,65.555 97.555,80 80,80L64,80L64,16Z" style="fill:white;fill-rule:nonzero;stroke:black;stroke-width:2px;"/>
    </g>
    <path d="M32,32L64,32" style="fill:none;stroke:black;stroke-width:2px;stroke-linecap:round;stroke-linejoin:round;stroke-miterlimit:1.5;"/>
    <g id="NAND-Gatter1" serif:id="NAND-Gatter">
        <path d="M256,48C256,52.389 252.389,56 248,56C243.611,56 240,52.389 240,48C240,43.611 243.611,40 248,40C252.386,40 255.996,43.606 256,47.992" style="fill:white;fill-rule:nonzero;stroke:black;stroke-width:2px;"/>
        <path id="AND-Gatter1" serif:id="AND-Gatter" d="M192,16L208,16C225.555,16 240,30.445 240,48C240,65.555 225.555,80 208,80L192,80L192,16Z" style="fill:white;fill-rule:nonzero;stroke:black;stroke-width:2px;"/>
    </g>
    <path d="M160,48L160,32L192,32" style="fill:none;stroke:black;stroke-width:2px;stroke-linejoin:round;stroke-miterlimit:1.5;"/>
    <path d="M160,48L160,64L192,64" style="fill:none;stroke:black;stroke-width:2px;stroke-linejoin:round;stroke-miterlimit:1.5;"/>
    <text x="15.824px" y="36.304px" style="font-family:'Helvetica';font-size:12px;">A</text>
    <path d="M256,48L288,48" style="fill:none;stroke:black;stroke-width:2px;stroke-linecap:round;stroke-linejoin:round;stroke-miterlimit:1.5;"/>
    <text x="295.824px" y="52.304px" style="font-family:'Helvetica';font-size:12px;">Y</text>
    <path d="M128,48L160,48" style="fill:none;stroke:black;stroke-width:2px;stroke-linejoin:round;stroke-miterlimit:1.5;"/>
    <path d="M32,64.304L64,64.304" style="fill:none;stroke:black;stroke-width:2px;stroke-linecap:round;stroke-linejoin:round;stroke-miterlimit:1.5;"/>
    <text x="15.824px" y="68.607px" style="font-family:'Helvetica';font-size:12px;">B</text>
    <circle cx="160" cy="48" r="4"/>
</svg>
