<!--?xml version="1.0" standalone="no"?-->
<svg id="ofi_fcd69fed_4ed9_4706_954e_c49cf1c8b764_svg" width="210" height="188.205078125" xmlns="http://www.w3.org/2000/svg" viewBox="195,71.794921875,210,188.205078125">
<g transform="translate(250 250)">
<line x1="0" y1="0" x2="0" y2="0" style="stroke: black; stroke-width: 1;"></line>
<line x1="0" y1="0" x2="10" y2="0" style="stroke: black; stroke-width: 1;"></line>
<line x1="10" y1="0" x2="15" y2="-8.660254037844386" style="stroke: black; stroke-width: 1;"></line>
<line x1="15" y1="-8.660254037844386" x2="10.000000000000002" y2="-17.32050807568877" style="stroke: black; stroke-width: 1;"></line>
<line x1="10.000000000000002" y1="-17.32050807568877" x2="1.7763568394002505e-15" y2="-17.32050807568877" style="stroke: black; stroke-width: 1;"></line>
<line x1="1.7763568394002505e-15" y1="-17.32050807568877" x2="-5.000000000000003" y2="-8.660254037844386" style="stroke: black; stroke-width: 1;"></line>
<line x1="-5.000000000000003" y1="-8.660254037844386" x2="-1.7763568394002505e-15" y2="0" style="stroke: black; stroke-width: 1;"></line>
<line x1="-1.7763568394002505e-15" y1="0" x2="20" y2="4.898587196589413e-15" style="stroke: black; stroke-width: 1;"></line>
<line x1="20" y1="4.898587196589413e-15" x2="29.999999999999993" y2="-17.320508075688775" style="stroke: black; stroke-width: 1;"></line>
<line x1="29.999999999999993" y1="-17.320508075688775" x2="20.000000000000007" y2="-34.641016151377556" style="stroke: black; stroke-width: 1;"></line>
<line x1="20.000000000000007" y1="-34.641016151377556" x2="7.105427357601002e-15" y2="-34.64101615137756" style="stroke: black; stroke-width: 1;"></line>
<line x1="7.105427357601002e-15" y1="-34.64101615137756" x2="-9.99999999999999" y2="-17.32050807568879" style="stroke: black; stroke-width: 1;"></line>
<line x1="-9.99999999999999" y1="-17.32050807568879" x2="-7.105427357601002e-15" y2="-7.105427357601002e-15" style="stroke: black; stroke-width: 1;"></line>
<line x1="-7.105427357601002e-15" y1="-7.105427357601002e-15" x2="29.999999999999993" y2="7.590334232167238e-15" style="stroke: black; stroke-width: 1;"></line>
<line x1="29.999999999999993" y1="7.590334232167238e-15" x2="44.99999999999999" y2="-25.980762113533153" style="stroke: black; stroke-width: 1;"></line>
<line x1="44.99999999999999" y1="-25.980762113533153" x2="29.99999999999998" y2="-51.961524227066306" style="stroke: black; stroke-width: 1;"></line>
<line x1="29.99999999999998" y1="-51.961524227066306" x2="-2.1316282072803006e-14" y2="-51.96152422706633" style="stroke: black; stroke-width: 1;"></line>
<line x1="-2.1316282072803006e-14" y1="-51.96152422706633" x2="-15.000000000000068" y2="-25.980762113533196" style="stroke: black; stroke-width: 1;"></line>
<line x1="-15.000000000000068" y1="-25.980762113533196" x2="-5.3290705182007514e-14" y2="-4.263256414560601e-14" style="stroke: black; stroke-width: 1;"></line>
<line x1="-5.3290705182007514e-14" y1="-4.263256414560601e-14" x2="39.99999999999994" y2="-1.3241040966069538e-14" style="stroke: black; stroke-width: 1;"></line>
<line x1="39.99999999999994" y1="-1.3241040966069538e-14" x2="60.000000000000014" y2="-34.64101615137752" style="stroke: black; stroke-width: 1;"></line>
<line x1="60.000000000000014" y1="-34.64101615137752" x2="40" y2="-69.28203230275506" style="stroke: black; stroke-width: 1;"></line>
<line x1="40" y1="-69.28203230275506" x2="0" y2="-69.28203230275508" style="stroke: black; stroke-width: 1;"></line>
<line x1="0" y1="-69.28203230275508" x2="-20.00000000000007" y2="-34.64101615137758" style="stroke: black; stroke-width: 1;"></line>
<line x1="-20.00000000000007" y1="-34.64101615137758" x2="-6.394884621840902e-14" y2="-3.552713678800501e-14" style="stroke: black; stroke-width: 1;"></line>
<line x1="-6.394884621840902e-14" y1="-3.552713678800501e-14" x2="49.999999999999936" y2="1.345873517788912e-14" style="stroke: black; stroke-width: 1;"></line>
<line x1="49.999999999999936" y1="1.345873517788912e-14" x2="75.00000000000003" y2="-43.30127018922186" style="stroke: black; stroke-width: 1;"></line>
<line x1="75.00000000000003" y1="-43.30127018922186" x2="50.00000000000002" y2="-86.60254037844379" style="stroke: black; stroke-width: 1;"></line>
<line x1="50.00000000000002" y1="-86.60254037844379" x2="2.1316282072803006e-14" y2="-86.60254037844385" style="stroke: black; stroke-width: 1;"></line>
<line x1="2.1316282072803006e-14" y1="-86.60254037844385" x2="-24.999999999999925" y2="-43.30127018922188" style="stroke: black; stroke-width: 1;"></line>
<line x1="-24.999999999999925" y1="-43.30127018922188" x2="7.460698725481052e-14" y2="4.973799150320701e-14" style="stroke: black; stroke-width: 1;"></line>
<line x1="7.460698725481052e-14" y1="4.973799150320701e-14" x2="60.00000000000007" y2="1.232167994520482e-13" style="stroke: black; stroke-width: 1;"></line>
<line x1="60.00000000000007" y1="1.232167994520482e-13" x2="90.0000000000002" y2="-51.96152422706612" style="stroke: black; stroke-width: 1;"></line>
<line x1="90.0000000000002" y1="-51.96152422706612" x2="60.000000000000384" y2="-103.92304845413256" style="stroke: black; stroke-width: 1;"></line>
<line x1="60.000000000000384" y1="-103.92304845413256" x2="3.836930773104541e-13" y2="-103.92304845413243" style="stroke: black; stroke-width: 1;"></line>
<line x1="3.836930773104541e-13" y1="-103.92304845413243" x2="-29.999999999999567" y2="-51.96152422706608" style="stroke: black; stroke-width: 1;"></line>
<line x1="-29.999999999999567" y1="-51.96152422706608" x2="4.192202140984591e-13" y2="2.4868995751603507e-13" style="stroke: black; stroke-width: 1;"></line>
<line x1="4.192202140984591e-13" y1="2.4868995751603507e-13" x2="70.00000000000043" y2="3.5156028864441274e-13" style="stroke: black; stroke-width: 1;"></line>
<line x1="70.00000000000043" y1="3.5156028864441274e-13" x2="105.0000000000006" y2="-60.62177826491026" style="stroke: black; stroke-width: 1;"></line>
<line x1="105.0000000000006" y1="-60.62177826491026" x2="70.00000000000082" y2="-121.2435565298211" style="stroke: black; stroke-width: 1;"></line>
<line x1="70.00000000000082" y1="-121.2435565298211" x2="8.242295734817162e-13" y2="-121.24355652982096" style="stroke: black; stroke-width: 1;"></line>
<line x1="8.242295734817162e-13" y1="-121.24355652982096" x2="-34.99999999999913" y2="-60.62177826491023" style="stroke: black; stroke-width: 1;"></line>
<line x1="-34.99999999999913" y1="-60.62177826491023" x2="8.384404281969182e-13" y2="4.902744876744691e-13" style="stroke: black; stroke-width: 1;"></line>
<line x1="8.384404281969182e-13" y1="4.902744876744691e-13" x2="80.00000000000084" y2="6.274349291789727e-13" style="stroke: black; stroke-width: 1;"></line>
<line x1="80.00000000000084" y1="6.274349291789727e-13" x2="120.00000000000105" y2="-69.28203230275435" style="stroke: black; stroke-width: 1;"></line>
<line x1="120.00000000000105" y1="-69.28203230275435" x2="80.00000000000134" y2="-138.5640646055096" style="stroke: black; stroke-width: 1;"></line>
<line x1="80.00000000000134" y1="-138.5640646055096" x2="1.3358203432289883e-12" y2="-138.56406460550946" style="stroke: black; stroke-width: 1;"></line>
<line x1="1.3358203432289883e-12" y1="-138.56406460550946" x2="-39.99999999999863" y2="-69.28203230275435" style="stroke: black; stroke-width: 1;"></line>
<line x1="-39.99999999999863" y1="-69.28203230275435" x2="1.3216094885137863e-12" y2="7.815970093361102e-13" style="stroke: black; stroke-width: 1;"></line>
<line x1="1.3216094885137863e-12" y1="7.815970093361102e-13" x2="90.00000000000132" y2="9.57946148413329e-13" style="stroke: black; stroke-width: 1;"></line>
<line x1="90.00000000000132" y1="9.57946148413329e-13" x2="135.00000000000156" y2="-77.94228634059839" style="stroke: black; stroke-width: 1;"></line>
<line x1="135.00000000000156" y1="-77.94228634059839" x2="90.0000000000019" y2="-155.88457268119805" style="stroke: black; stroke-width: 1;"></line>
<line x1="90.0000000000019" y1="-155.88457268119805" x2="1.9042545318370685e-12" y2="-155.8845726811979" style="stroke: black; stroke-width: 1;"></line>
<line x1="1.9042545318370685e-12" y1="-155.8845726811979" x2="-44.999999999998074" y2="-77.94228634059841" style="stroke: black; stroke-width: 1;"></line>
<line x1="-44.999999999998074" y1="-77.94228634059841" x2="1.8474111129762605e-12" y2="1.1084466677857563e-12" style="stroke: black; stroke-width: 1;"></line>
<line x1="1.8474111129762605e-12" y1="1.1084466677857563e-12" x2="100.00000000000185" y2="1.3288830916322798e-12" style="stroke: black; stroke-width: 1;"></line>
<line x1="100.00000000000185" y1="1.3288830916322798e-12" x2="150.00000000000216" y2="-86.60254037844236" style="stroke: black; stroke-width: 1;"></line>
<line x1="150.00000000000216" y1="-86.60254037844236" x2="100.00000000000195" y2="-173.2050807568861" style="stroke: black; stroke-width: 1;"></line>
<line x1="100.00000000000195" y1="-173.2050807568861" x2="1.9468870959826745e-12" y2="-173.205080756886" style="stroke: black; stroke-width: 1;"></line>
<line x1="1.9468870959826745e-12" y1="-173.205080756886" x2="-49.99999999999805" y2="-86.60254037844213" style="stroke: black; stroke-width: 1;"></line>
<line x1="-49.99999999999805" y1="-86.60254037844213" x2="1.8403056856186595e-12" y2="1.8047785488306545e-12" style="stroke: black; stroke-width: 1;"></line>
</g>
<g transform="translate(250 250)">
<polygon points="0,0 ,-5,-9 ,0,-7 ,5,-9 " stroke="black" fill="black" stroke-width="1" opacity="1" transform="translate(1.8403056856186595e-12,1.8047785488306545e-12) rotate(-3690,0,0)"></polygon>
</g>
<metadata><raw>from turtle import *

def sechseck(size):
    for i in range(6):
        forward(size)
        left(60)

sechseck(10)
sechseck(20)
sechseck(30)
sechseck(40)
sechseck(50)
sechseck(60)
sechseck(70)
sechseck(80)
sechseck(90)
sechseck(100)</raw></metadata></svg>