<?xml version="1.0" encoding="utf-8"?>
<svg viewBox="0 0 255.353 160.766" xmlns="http://www.w3.org/2000/svg" xmlns:bx="https://boxy-svg.com">
  <defs>
    <marker id="marker-0" viewBox="0 0 100 100" overflow="visible" orient="auto" refX="50" refY="50" markerWidth="15" markerHeight="15" bx:pinned="true">
      <title>Arrow</title>
      <path d="M 9.72 -55.043 L 59.717 44.95 L -40.277 44.95 L 9.72 -55.043 Z" style="fill: rgb(255, 0, 0);" transform="matrix(-0.000068, 1, -1, -0.000062, 44.954273, 40.279476)" bx:shape="triangle -40.277 -55.043 99.994 99.993 0.5 0 1@f4ab8835"/>
    </marker>
  </defs>
  <path d="M 76.529 60.205 C 77.281 60.092 78.031 59.95 78.79 59.897 C 81.955 66.832 85.083 73.783 88.237 80.724 C 88.212 80.742 88.161 80.775 88.137 80.792 C 66.12 84.613 44.1 88.418 22.086 92.248 C 22.065 92.231 22.021 92.2 22.001 92.183 C 21.978 92.014 21.934 91.85 21.878 91.69 C 19.882 85.967 17.888 80.244 15.896 74.519 C 15.321 72.849 14.71 71.19 14.172 69.508 C 18.556 68.823 22.949 68.202 27.335 67.534 C 43.734 65.094 60.13 62.644 76.529 60.205 Z" fill="#E0C8B0" stroke="#E0C8B0" style="" stroke-width=".0938"/>
  <path d="M 105.716 59.88 C 111.085 64.376 116.434 68.902 121.792 73.414 C 124.659 75.816 127.515 78.232 130.374 80.643 C 130.601 80.781 130.321 80.983 130.236 81.121 C 124.356 88.222 118.485 95.331 112.603 102.429 C 112.517 102.371 112.433 102.315 112.35 102.258 C 112.201 102.359 112.037 102.445 111.924 102.588 C 111.766 102.833 111.723 103.148 111.494 103.347 C 111.334 103.49 111.238 103.68 111.182 103.884 C 104.394 97.047 97.616 90.197 90.814 83.371 C 90.276 82.806 89.714 82.265 89.175 81.703 C 88.86 81.402 88.581 81.061 88.23 80.802 L 88.141 80.792 C 88.166 80.775 88.215 80.742 88.24 80.724 C 88.65 80.341 88.964 79.866 89.343 79.452 C 93.99 73.887 98.64 68.326 103.286 62.762 C 104.098 61.802 104.888 60.825 105.716 59.88 Z" fill="#D5B699" stroke="#D5B699" style="" stroke-width=".0938"/>
  <path d="M 0 80.162 C 1.232 80.764 2.418 81.463 3.625 82.113 C 9.56 85.358 15.493 88.603 21.426 91.849 C 21.622 91.953 21.819 92.054 22.002 92.183 C 22.024 92.2 22.067 92.231 22.087 92.248 C 22.112 92.267 22.16 92.306 22.184 92.325 C 25.383 97.85 28.63 103.347 31.838 108.866 C 33.073 111.034 34.359 113.176 35.607 115.339 C 36.262 116.429 36.877 117.541 37.545 118.624 C 37.138 118.608 36.826 118.304 36.483 118.124 C 31.734 115.417 26.969 112.733 22.231 110.006 C 22.212 110.183 22.195 110.362 22.185 110.542 C 22.166 110.384 22.151 110.225 22.137 110.068 C 19.609 108.566 17.051 107.109 14.524 105.606 C 14.09 105.016 13.796 104.327 13.405 103.705 C 9.853 97.475 6.299 91.247 2.746 85.019 C 1.835 83.398 0.883 81.798 0 80.162 Z" fill="#D3B9A0" stroke="#D3B9A0" style="" stroke-width=".0938"/>
  <path d="M 22.087 92.248 C 44.102 88.418 66.122 84.613 88.139 80.792 L 88.228 80.802 C 87.944 90.144 87.562 99.481 87.279 108.821 C 70.927 112.112 54.573 115.396 38.222 118.692 C 38.059 118.721 37.896 118.75 37.733 118.775 C 37.704 118.77 37.648 118.756 37.62 118.75 C 37.594 118.705 37.569 118.664 37.545 118.624 C 36.877 117.541 36.262 116.429 35.607 115.339 C 34.359 113.176 33.073 111.034 31.838 108.866 C 31.9 108.693 31.887 108.509 31.772 108.363 C 31.239 107.545 30.794 106.676 30.291 105.84 C 29.827 104.92 29.252 104.063 28.758 103.16 C 28.134 102.125 27.609 101.034 26.975 100.004 C 26.255 98.845 25.595 97.647 24.938 96.452 C 24.191 95.188 23.479 93.901 22.735 92.633 C 22.633 92.42 22.378 92.402 22.184 92.325 C 22.16 92.306 22.112 92.267 22.087 92.248 Z" fill="#A08165" stroke="#A08165" style="" stroke-width=".0938"/>
  <path d="M 88.232 80.802 C 88.585 81.061 88.863 81.402 89.179 81.703 C 89.717 82.265 90.278 82.806 90.816 83.371 C 90.638 89.254 90.425 95.137 90.25 101.022 C 90.166 102.139 90.201 103.261 90.123 104.379 C 90.079 105.678 90.08 106.977 89.996 108.274 C 89.092 108.454 88.188 108.639 87.284 108.821 C 87.566 99.481 87.948 90.144 88.232 80.802 Z" fill="#78492D" stroke="#78492D" style="" stroke-width=".0938"/>
  <path d="M 90.811 83.371 C 97.614 90.197 104.392 97.047 111.18 103.884 C 111.173 103.921 111.157 103.992 111.149 104.028 C 104.093 105.423 97.045 106.865 89.993 108.274 C 90.076 106.977 90.074 105.678 90.119 104.379 C 90.197 103.261 90.16 102.139 90.246 101.022 C 90.419 95.137 90.633 89.254 90.811 83.371 Z" fill="#916945" stroke="#916945" style="" stroke-width=".0938"/>
  <path d="M 22.184 92.325 C 22.378 92.402 22.633 92.42 22.735 92.633 C 23.479 93.901 24.191 95.188 24.938 96.452 C 25.595 97.647 26.255 98.845 26.975 100.004 C 27.609 101.034 28.134 102.125 28.758 103.16 C 29.252 104.063 29.827 104.92 30.291 105.84 C 30.794 106.676 31.239 107.545 31.772 108.363 C 31.887 108.509 31.9 108.693 31.838 108.866 C 28.63 103.347 25.383 97.85 22.184 92.325 Z" fill="#927153" stroke="#927153" style="" stroke-width=".0938"/>
  <path d="M 22.231 110.006 C 26.969 112.733 31.734 115.417 36.483 118.124 C 36.826 118.304 37.138 118.608 37.545 118.624 C 37.569 118.664 37.594 118.705 37.62 118.75 C 37.632 118.82 37.655 118.961 37.667 119.032 C 38.479 132.945 39.28 146.857 40.107 160.766 C 34.521 151.137 28.959 141.495 23.38 131.861 C 23.268 131.692 23.278 131.482 23.269 131.288 C 22.916 124.373 22.531 117.457 22.185 110.542 C 22.195 110.362 22.212 110.183 22.231 110.006 Z" fill="#C1A389" stroke="#C1A389" style="" stroke-width=".0938"/>
  <path style="stroke-width: 1px; fill: rgba(216, 216, 216, 0); paint-order: stroke; marker-end: url(#marker-0); stroke: rgb(255, 0, 0);" d="M 229.047 60.672 C 150.116 20.289 94.126 19.334 61.077 57.807" stroke-width=".0938" transform="matrix(0.93067, -0.36586, 0.36586, 0.93067, -6.465651, 56.203434)"/>
  <text style="white-space: pre; fill: rgb(51, 51, 51); font-family: Arial, sans-serif; font-size: 20.5px;" x="232.553" y="33.68">12</text>
  <text style="white-space: pre; fill: rgb(51, 51, 51); font-family: Arial, sans-serif; font-size: 40.4px;" x="42.691" y="119.341">12</text>
  <path d="M 111.925 102.588 C 112.038 102.445 112.202 102.359 112.351 102.258 C 112.433 102.315 112.519 102.371 112.604 102.429 C 112.213 102.968 111.715 103.426 111.363 103.991 C 115.848 104.514 120.334 105.022 124.818 105.543 C 124.888 105.539 124.947 105.565 124.994 105.619 C 120.888 106.478 116.78 107.334 112.673 108.194 C 112.155 108.309 111.633 108.404 111.12 108.539 C 109.393 108.842 107.686 109.252 105.964 109.591 C 87.375 113.477 68.785 117.362 50.195 121.243 C 49.378 121.393 48.572 121.623 47.751 121.725 C 44.935 120.945 42.132 120.101 39.321 119.292 C 38.797 119.103 38.23 119.038 37.736 118.775 C 37.898 118.75 38.062 118.721 38.224 118.692 C 54.577 115.396 70.93 112.112 87.282 108.821 C 88.186 108.639 89.09 108.454 89.995 108.274 C 97.048 106.865 104.095 105.423 111.151 104.028 C 111.159 103.992 111.175 103.921 111.183 103.884 C 111.239 103.68 111.335 103.49 111.495 103.347 C 111.724 103.148 111.767 102.833 111.925 102.588 Z" fill="#D5B79D" stroke="#D5B79D" style="" stroke-width=".0938"/>
  <path d="M 105.963 109.591 C 107.684 109.252 109.391 108.842 111.118 108.539 C 110.636 120.325 110.149 132.113 109.667 143.9 C 109.657 144.191 109.658 144.485 109.613 144.775 C 86.444 150.1 63.277 155.437 40.108 160.766 C 39.281 146.857 38.48 132.945 37.668 119.032 C 37.656 118.961 37.633 118.82 37.621 118.75 C 37.649 118.756 37.706 118.77 37.734 118.775 C 38.229 119.038 38.795 119.103 39.32 119.292 C 42.131 120.101 44.934 120.945 47.749 121.725 C 48.57 121.623 49.377 121.393 50.193 121.243 C 68.784 117.362 87.373 113.477 105.963 109.591 Z" fill="#AF8B67" stroke="#AF8B67" style="" stroke-width=".0938"/>
  <text style="white-space: pre; fill: rgb(51, 51, 51); font-family: Arial, sans-serif; font-size: 12.9px;" x="3049.73" y="1628.527" transform="matrix(0.981374, -0.192109, 0.192109, 0.981374, -3246.98877, -871.700256)" stroke-width=".0938">anzahl</text>
</svg>