<!--?xml version="1.0" standalone="no"?-->
<svg id="ofi_bba6ac60_a2c0_4ab0_b6f8_a4e507a7f40e_svg" width="256" height="187" xmlns="http://www.w3.org/2000/svg" viewBox="156,88,256,187">
<g transform="translate(250 250)">
<line x1="0" y1="0" x2="0" y2="0" style="stroke: black; stroke-width: 1;"></line>
<line x1="0" y1="0" x2="18" y2="0" style="stroke: black; stroke-width: 2;"></line>
<line x1="18" y1="0" x2="9.000000000000004" y2="-15.588457268119896" style="stroke: black; stroke-width: 2;"></line>
<line x1="9.000000000000004" y1="-15.588457268119896" x2="-3.552713678800501e-15" y2="-3.552713678800501e-15" style="stroke: black; stroke-width: 2;"></line>
<line x1="-3.552713678800501e-15" y1="-3.552713678800501e-15" x2="-20" y2="-3.552713678800501e-15" opacity="0" style="stroke: black; stroke-width: 2;"></line>
<line x1="-20" y1="-30" x2="7" y2="-29.999999999999993" style="stroke: black; stroke-width: 5;" stroke-linecap="round"></line>
<line x1="7" y1="-29.999999999999993" x2="7.000000000000008" y2="-56.99999999999999" style="stroke: black; stroke-width: 5;" stroke-linecap="round"></line>
<line x1="7.000000000000008" y1="-56.99999999999999" x2="-19.999999999999993" y2="-57" style="stroke: black; stroke-width: 5;" stroke-linecap="round"></line>
<line x1="-19.999999999999993" y1="-57" x2="-20.000000000000004" y2="-30" style="stroke: black; stroke-width: 5;" stroke-linecap="round"></line>
<line x1="-20.000000000000004" y1="-30" x2="30" y2="-30" opacity="0" style="stroke: black; stroke-width: 5;"></line>
<line x1="30" y1="-10" x2="43" y2="-9.999999999999993" style="stroke: black; stroke-width: 5;" stroke-linecap="round"></line>
<line x1="43" y1="-9.999999999999993" x2="47.01722092687432" y2="-22.363734711836987" style="stroke: black; stroke-width: 5;" stroke-linecap="round"></line>
<line x1="47.01722092687432" y1="-22.363734711836987" x2="36.500000000000014" y2="-30.004942991639144" style="stroke: black; stroke-width: 5;" stroke-linecap="round"></line>
<line x1="36.500000000000014" y1="-30.004942991639144" x2="25.98277907312569" y2="-22.363734711837" style="stroke: black; stroke-width: 5;" stroke-linecap="round"></line>
<line x1="25.98277907312569" y1="-22.363734711837" x2="30" y2="-10.000000000000002" style="stroke: black; stroke-width: 5;" stroke-linecap="round"></line>
<line x1="30" y1="-10.000000000000002" x2="80" y2="-10.000000000000002" opacity="0" style="stroke: black; stroke-width: 5;"></line>
<line x1="80" y1="-80" x2="157" y2="-79.99999999999994" style="stroke: black; stroke-width: 3;" stroke-linecap="round"></line>
<line x1="157" y1="-79.99999999999994" x2="156.99999999999991" y2="-156.99999999999994" style="stroke: black; stroke-width: 3;" stroke-linecap="round"></line>
<line x1="156.99999999999991" y1="-156.99999999999994" x2="79.99999999999991" y2="-157" style="stroke: black; stroke-width: 3;" stroke-linecap="round"></line>
<line x1="79.99999999999991" y1="-157" x2="79.99999999999999" y2="-80" style="stroke: black; stroke-width: 3;" stroke-linecap="round"></line>
<line x1="79.99999999999999" y1="-80" x2="-40" y2="-80" opacity="0" style="stroke: black; stroke-width: 3;"></line>
<line x1="-40" y1="20" x2="-17" y2="20.00000000000002" style="stroke: black; stroke-width: 3;" stroke-linecap="round"></line>
<line x1="-17" y1="20.00000000000002" x2="-9.892609129376186" y2="-1.8742998747885018" style="stroke: black; stroke-width: 3;" stroke-linecap="round"></line>
<line x1="-9.892609129376186" y1="-1.8742998747885018" x2="-28.49999999999996" y2="-15.393360677515405" style="stroke: black; stroke-width: 3;" stroke-linecap="round"></line>
<line x1="-28.49999999999996" y1="-15.393360677515405" x2="-47.10739087062377" y2="-1.8742998747885427" style="stroke: black; stroke-width: 3;" stroke-linecap="round"></line>
<line x1="-47.10739087062377" y1="-1.8742998747885427" x2="-40" y2="20" style="stroke: black; stroke-width: 3;" stroke-linecap="round"></line>
<line x1="-40" y1="20" x2="-80" y2="20" opacity="0" style="stroke: black; stroke-width: 3;"></line>
<line x1="-80" y1="-80" x2="-36" y2="-79.99999999999994" style="stroke: black; stroke-width: 7;" stroke-linecap="round"></line>
<line x1="-36" y1="-79.99999999999994" x2="-57.99999999999986" y2="-118.10511776651532" style="stroke: black; stroke-width: 7;" stroke-linecap="round"></line>
<line x1="-57.99999999999986" y1="-118.10511776651532" x2="-79.99999999999983" y2="-80" style="stroke: black; stroke-width: 7;" stroke-linecap="round"></line>
</g>
<g transform="translate(250 250)">
<polygon points="0,0 ,-5,-9 ,0,-7 ,5,-9 " stroke="black" fill="black" stroke-width="1" opacity="1" transform="translate(-79.99999999999983,-80.0) rotate(-2250,0,0)"></polygon>
</g>
<metadata><raw>from turtle import *

def move(x, y):
    penup()
    goto(x, y)
    pendown()

pensize(2)
for i in range(3):
    forward(18)
    left(120)
move(-20, 30)

pensize(5)
for i in range(4):
    forward(27)
    left(90)

move(30, 10)
for i in range(5):
    forward(13)
    left(72)

move(80, 80)
pensize(3)
for i in range(4):
    forward(77)
    left(90)

move(-40, -20)
for i in range(5):
    forward(23)
    left(72)

move(-80, 80)
pensize(7)
for i in range(3):
    forward(44)
    left(120) </raw></metadata></svg>