<?xml version="1.0" encoding="iso-8859-1"?>
<!DOCTYPE svg PUBLIC "-//W3C//DTD SVG 1.1//EN" "http://www.w3.org/Graphics/SVG/1.1/DTD/svg11.dtd">
<svg  version="1.1" id="&#x30EC;&#x30A4;&#x30E4;&#x30FC;_1" xmlns="http://www.w3.org/2000/svg" xmlns:xlink="http://www.w3.org/1999/xlink" width="700" height="250">
<g style="fill:#CD171C;stroke:#CD171C;">
	<path d="M610.843,73.259c-0.561,1.857-1.077,3.064-1.676,4.554h5.666c-0.253-0.533-1.113-2.697-1.674-4.554,c-0.602-1.987-1.012-3.79-1.159-4.958C611.853,69.47,611.442,71.272,610.843,73.259z"/>
	<path d="M173.909,33.804c-1.497,4.96-2.877,8.184-4.477,12.163h15.135c-0.677-1.424-2.977-7.203-4.474-12.163,c-1.605-5.309-2.701-10.122-3.094-13.244C176.607,23.682,175.512,28.496,173.909,33.804z"/>
	<path d="M430.843,73.259c-0.561,1.857-1.077,3.064-1.676,4.554h5.666c-0.253-0.533-1.113-2.697-1.674-4.554,c-0.602-1.987-1.012-3.79-1.159-4.958C431.853,69.47,431.442,71.272,430.843,73.259z"/>
	<path d="M567.85,47.101c-1.89,0.444-3.192,0.599-4.781,0.825l2.832,4.908c0.335-0.485,1.779-2.313,3.107-3.727,c1.42-1.515,2.775-2.771,3.714-3.483C571.636,46.081,569.871,46.625,567.85,47.101z"/>
	<path d="M474.993,49.105c1.328,1.414,2.115,2.465,3.106,3.728l2.833-4.907c-0.589-0.047-2.893-0.384-4.781-0.828,c-2.022-0.473-3.788-1.019-4.874-1.475C472.216,46.336,473.571,47.592,474.993,49.105z"/>
</g>
<g style="stroke-width:2;stroke-linecap:round;stroke-linejoin:round;">
	<g style="fill:#CD171C;stroke:#CD171C;">
		<line x1="611.993" y1="90.89" x2="611.993" y2="75.913"/>
		<line x1="176.982" y1="80.89" x2="176.982" y2="40.89"/>
		<line x1="431.993" y1="90.89" x2="431.993" y2="75.913"/>
		<line x1="553.155" y1="56.913" x2="566.127" y2="49.424"/>
		<line x1="490.837" y1="56.924" x2="477.866" y2="49.436"/>
	</g>
	<g style="fill:none;stroke:#000000;">
		<path d="M417,217.89h-10 M407,217.89l-5-8.66 M397,217.89h-10 M402,209.229l-5,8.66 M657,217.89h-10 M647,217.89l-5-8.66 M637,217.89h-10 M642,209.229l-5,8.66 M597,217.89h-10 M587,217.89l-5-8.66 M577,217.89h-10 M582,209.229l-5,8.66 M477,217.89h-10 M467,217.89l-5-8.66 M457,217.89h-10 M462,209.229l-5,8.66 M507,165.927h-10 M497,165.927l-5-8.66 M487,165.927h-10 M492,157.267l-5,8.66 M566.999,165.929h-10 M556.999,165.929l-5-8.66 M546.999,165.929h-10 M551.999,157.269l-5,8.66 M477,165.929l5,8.66 M482,174.589l-5,8.66 M487,183.249l4.999,8.658 M477,183.249h10 M537,165.929l-5-8.66 M532,157.269l5-8.66 M527,148.608l-5-8.66 M537,148.608h-10 M627,217.89l-5-8.66 M622,209.229l5-8.66 M617,200.569l-5-8.66 M627,200.569h-10 M551.999,191.909l5-8.66 M556.999,183.249l9.999-0.002 M561.999,174.589l5-8.66 M566.998,183.247l-4.999-8.658 M522,139.946l-5,8.66 M517,148.606h-10 M512,157.267l-5,8.66 M507,148.606l5,8.66 M612,191.909l-5,8.66 M607,200.569h-10 M602,209.229l-5,8.66 M597,200.569l5,8.66 M492,191.909l-5,8.66 M487,200.569h-10 M482,209.229l-5,8.66 M477,200.569l5,8.66 M567,217.89l-5-8.66 M562,209.229l5-8.66 M557,200.569l-5-8.66 M567,200.569h-10 M447,217.89l-5-8.66 M442,209.229l5-8.66 M437,200.569l-5-8.66 M447,200.569h-10 M432,191.909l-5,8.66 M427,200.569h-10 M422,209.229l-5,8.66 M417,200.569l5,8.66"/>
		<path d="M87,191.909l15,25.98 M102,217.89h30 M72,217.89l15-25.98 M42,217.89h30 M267,191.909l15,25.98 M282,217.89h30 M252,217.89l15-25.98 M222,217.89h30 M222,165.929l-15,25.98 M207,191.909l15,25.98 M192,165.929h30 M177,139.948l15,25.98 M132,165.928h30 M162,165.928l15-25.98 M147,191.908l-15-25.98 M132,217.89l15-25.981"/>
		<path d="M567,100.89h90 M387,100.89h90 M522,22.947l44.999,77.943 M477,100.89l45-77.942"/>
		<line x1="42" y1="100.89" x2="312" y2="100.89"/>
	</g>
</g>
</svg>
