<!--?xml version="1.0" standalone="no"?-->
<svg id="ofi_55956c5b_fd40_464c_beca_c5d801a0170c_svg" width="165.30775451660156" height="187.6538848876953" xmlns="http://www.w3.org/2000/svg" viewBox="167.3461151123047,67.34611511230469,165.30775451660156,187.6538848876953">
<g transform="translate(250 250)">
<line x1="0" y1="0" x2="0" y2="0" style="stroke: black; stroke-width: 1;"></line>
<line x1="0" y1="0" x2="6.123233995736766e-15" y2="-100" style="stroke: black; stroke-width: 1;"></line>
<line x1="6.123233995736766e-15" y1="-100" x2="-35.35533905932736" y2="-135.35533905932738" style="stroke: black; stroke-width: 1;"></line>
<line x1="-35.35533905932736" y1="-135.35533905932738" x2="-60.35533905932736" y2="-135.35533905932738" style="stroke: black; stroke-width: 1;"></line>
<line x1="-60.35533905932736" y1="-135.35533905932738" x2="-69.19417382415921" y2="-126.51650429449553" style="stroke: black; stroke-width: 1;"></line>
<line x1="-69.19417382415921" y1="-126.51650429449553" x2="-69.19417382415921" y2="-120.26650429449553" style="stroke: black; stroke-width: 1;"></line>
<line x1="-69.19417382415921" y1="-120.26650429449553" x2="-66.98446513295124" y2="-118.05679560328757" style="stroke: black; stroke-width: 1;"></line>
<line x1="-66.98446513295124" y1="-118.05679560328757" x2="-69.19417382415921" y2="-120.26650429449553" style="stroke: black; stroke-width: 1;"></line>
<line x1="-69.19417382415921" y1="-120.26650429449553" x2="-71.40388251536717" y2="-118.05679560328757" style="stroke: black; stroke-width: 1;"></line>
<line x1="-71.40388251536717" y1="-118.05679560328757" x2="-69.19417382415921" y2="-120.26650429449553" style="stroke: black; stroke-width: 1;"></line>
<line x1="-69.19417382415921" y1="-120.26650429449553" x2="-69.19417382415921" y2="-126.51650429449553" style="stroke: black; stroke-width: 1;"></line>
<line x1="-69.19417382415921" y1="-126.51650429449553" x2="-75.44417382415921" y2="-126.51650429449553" style="stroke: black; stroke-width: 1;"></line>
<line x1="-75.44417382415921" y1="-126.51650429449553" x2="-77.65388251536717" y2="-124.30679560328757" style="stroke: black; stroke-width: 1;"></line>
<line x1="-77.65388251536717" y1="-124.30679560328757" x2="-75.44417382415921" y2="-126.51650429449553" style="stroke: black; stroke-width: 1;"></line>
<line x1="-75.44417382415921" y1="-126.51650429449553" x2="-77.65388251536717" y2="-128.72621298570348" style="stroke: black; stroke-width: 1;"></line>
<line x1="-77.65388251536717" y1="-128.72621298570348" x2="-75.44417382415921" y2="-126.51650429449552" style="stroke: black; stroke-width: 1;"></line>
<line x1="-75.44417382415921" y1="-126.51650429449552" x2="-69.19417382415921" y2="-126.51650429449552" style="stroke: black; stroke-width: 1;"></line>
<line x1="-69.19417382415921" y1="-126.51650429449552" x2="-60.35533905932736" y2="-135.35533905932735" style="stroke: black; stroke-width: 1;"></line>
<line x1="-60.35533905932736" y1="-135.35533905932735" x2="-69.19417382415921" y2="-144.19417382415918" style="stroke: black; stroke-width: 1;"></line>
<line x1="-69.19417382415921" y1="-144.19417382415918" x2="-75.44417382415921" y2="-144.19417382415918" style="stroke: black; stroke-width: 1;"></line>
<line x1="-75.44417382415921" y1="-144.19417382415918" x2="-77.65388251536717" y2="-141.98446513295121" style="stroke: black; stroke-width: 1;"></line>
<line x1="-77.65388251536717" y1="-141.98446513295121" x2="-75.44417382415921" y2="-144.19417382415918" style="stroke: black; stroke-width: 1;"></line>
<line x1="-75.44417382415921" y1="-144.19417382415918" x2="-77.65388251536717" y2="-146.40388251536714" style="stroke: black; stroke-width: 1;"></line>
<line x1="-77.65388251536717" y1="-146.40388251536714" x2="-75.44417382415921" y2="-144.19417382415918" style="stroke: black; stroke-width: 1;"></line>
<line x1="-75.44417382415921" y1="-144.19417382415918" x2="-69.19417382415921" y2="-144.19417382415918" style="stroke: black; stroke-width: 1;"></line>
<line x1="-69.19417382415921" y1="-144.19417382415918" x2="-69.19417382415921" y2="-150.44417382415918" style="stroke: black; stroke-width: 1;"></line>
<line x1="-69.19417382415921" y1="-150.44417382415918" x2="-71.40388251536717" y2="-152.65388251536714" style="stroke: black; stroke-width: 1;"></line>
<line x1="-71.40388251536717" y1="-152.65388251536714" x2="-69.19417382415921" y2="-150.44417382415918" style="stroke: black; stroke-width: 1;"></line>
<line x1="-69.19417382415921" y1="-150.44417382415918" x2="-66.98446513295124" y2="-152.65388251536714" style="stroke: black; stroke-width: 1;"></line>
<line x1="-66.98446513295124" y1="-152.65388251536714" x2="-69.19417382415921" y2="-150.44417382415918" style="stroke: black; stroke-width: 1;"></line>
<line x1="-69.19417382415921" y1="-150.44417382415918" x2="-69.19417382415921" y2="-144.19417382415918" style="stroke: black; stroke-width: 1;"></line>
<line x1="-69.19417382415921" y1="-144.19417382415918" x2="-60.35533905932736" y2="-135.35533905932732" style="stroke: black; stroke-width: 1;"></line>
<line x1="-60.35533905932736" y1="-135.35533905932732" x2="-35.35533905932736" y2="-135.35533905932732" style="stroke: black; stroke-width: 1;"></line>
<line x1="-35.35533905932736" y1="-135.35533905932732" x2="-35.35533905932736" y2="-160.35533905932732" style="stroke: black; stroke-width: 1;"></line>
<line x1="-35.35533905932736" y1="-160.35533905932732" x2="-44.19417382415921" y2="-169.19417382415918" style="stroke: black; stroke-width: 1;"></line>
<line x1="-44.19417382415921" y1="-169.19417382415918" x2="-50.44417382415921" y2="-169.19417382415918" style="stroke: black; stroke-width: 1;"></line>
<line x1="-50.44417382415921" y1="-169.19417382415918" x2="-52.65388251536717" y2="-166.98446513295121" style="stroke: black; stroke-width: 1;"></line>
<line x1="-52.65388251536717" y1="-166.98446513295121" x2="-50.44417382415921" y2="-169.19417382415918" style="stroke: black; stroke-width: 1;"></line>
<line x1="-50.44417382415921" y1="-169.19417382415918" x2="-52.653882515367165" y2="-171.40388251536714" style="stroke: black; stroke-width: 1;"></line>
<line x1="-52.653882515367165" y1="-171.40388251536714" x2="-50.44417382415921" y2="-169.19417382415918" style="stroke: black; stroke-width: 1;"></line>
<line x1="-50.44417382415921" y1="-169.19417382415918" x2="-44.19417382415921" y2="-169.19417382415918" style="stroke: black; stroke-width: 1;"></line>
<line x1="-44.19417382415921" y1="-169.19417382415918" x2="-44.19417382415921" y2="-175.44417382415918" style="stroke: black; stroke-width: 1;"></line>
<line x1="-44.19417382415921" y1="-175.44417382415918" x2="-46.403882515367165" y2="-177.65388251536714" style="stroke: black; stroke-width: 1;"></line>
<line x1="-46.403882515367165" y1="-177.65388251536714" x2="-44.19417382415921" y2="-175.44417382415918" style="stroke: black; stroke-width: 1;"></line>
<line x1="-44.19417382415921" y1="-175.44417382415918" x2="-41.98446513295124" y2="-177.65388251536714" style="stroke: black; stroke-width: 1;"></line>
<line x1="-41.98446513295124" y1="-177.65388251536714" x2="-44.19417382415921" y2="-175.44417382415918" style="stroke: black; stroke-width: 1;"></line>
<line x1="-44.19417382415921" y1="-175.44417382415918" x2="-44.19417382415921" y2="-169.19417382415918" style="stroke: black; stroke-width: 1;"></line>
<line x1="-44.19417382415921" y1="-169.19417382415918" x2="-35.35533905932736" y2="-160.35533905932732" style="stroke: black; stroke-width: 1;"></line>
<line x1="-35.35533905932736" y1="-160.35533905932732" x2="-26.51650429449552" y2="-169.19417382415915" style="stroke: black; stroke-width: 1;"></line>
<line x1="-26.51650429449552" y1="-169.19417382415915" x2="-26.51650429449552" y2="-175.44417382415915" style="stroke: black; stroke-width: 1;"></line>
<line x1="-26.51650429449552" y1="-175.44417382415915" x2="-28.72621298570348" y2="-177.65388251536712" style="stroke: black; stroke-width: 1;"></line>
<line x1="-28.72621298570348" y1="-177.65388251536712" x2="-26.51650429449552" y2="-175.44417382415915" style="stroke: black; stroke-width: 1;"></line>
<line x1="-26.51650429449552" y1="-175.44417382415915" x2="-24.306795603287558" y2="-177.65388251536712" style="stroke: black; stroke-width: 1;"></line>
<line x1="-24.306795603287558" y1="-177.65388251536712" x2="-26.51650429449552" y2="-175.44417382415915" style="stroke: black; stroke-width: 1;"></line>
<line x1="-26.51650429449552" y1="-175.44417382415915" x2="-26.51650429449552" y2="-169.19417382415915" style="stroke: black; stroke-width: 1;"></line>
<line x1="-26.51650429449552" y1="-169.19417382415915" x2="-20.26650429449552" y2="-169.19417382415915" style="stroke: black; stroke-width: 1;"></line>
<line x1="-20.26650429449552" y1="-169.19417382415915" x2="-18.056795603287558" y2="-171.40388251536712" style="stroke: black; stroke-width: 1;"></line>
<line x1="-18.056795603287558" y1="-171.40388251536712" x2="-20.26650429449552" y2="-169.19417382415915" style="stroke: black; stroke-width: 1;"></line>
<line x1="-20.26650429449552" y1="-169.19417382415915" x2="-18.056795603287558" y2="-166.9844651329512" style="stroke: black; stroke-width: 1;"></line>
<line x1="-18.056795603287558" y1="-166.9844651329512" x2="-20.26650429449552" y2="-169.19417382415915" style="stroke: black; stroke-width: 1;"></line>
<line x1="-20.26650429449552" y1="-169.19417382415915" x2="-26.51650429449552" y2="-169.19417382415915" style="stroke: black; stroke-width: 1;"></line>
<line x1="-26.51650429449552" y1="-169.19417382415915" x2="-35.35533905932736" y2="-160.35533905932732" style="stroke: black; stroke-width: 1;"></line>
<line x1="-35.35533905932736" y1="-160.35533905932732" x2="-35.35533905932736" y2="-135.35533905932732" style="stroke: black; stroke-width: 1;"></line>
<line x1="-35.35533905932736" y1="-135.35533905932732" x2="7.105427357601002e-15" y2="-99.99999999999994" style="stroke: black; stroke-width: 1;"></line>
<line x1="7.105427357601002e-15" y1="-99.99999999999994" x2="35.355339059327385" y2="-135.35533905932732" style="stroke: black; stroke-width: 1;"></line>
<line x1="35.355339059327385" y1="-135.35533905932732" x2="35.355339059327385" y2="-160.35533905932732" style="stroke: black; stroke-width: 1;"></line>
<line x1="35.355339059327385" y1="-160.35533905932732" x2="26.51650429449554" y2="-169.19417382415918" style="stroke: black; stroke-width: 1;"></line>
<line x1="26.51650429449554" y1="-169.19417382415918" x2="20.26650429449554" y2="-169.19417382415918" style="stroke: black; stroke-width: 1;"></line>
<line x1="20.26650429449554" y1="-169.19417382415918" x2="18.05679560328758" y2="-166.98446513295121" style="stroke: black; stroke-width: 1;"></line>
<line x1="18.05679560328758" y1="-166.98446513295121" x2="20.26650429449554" y2="-169.19417382415918" style="stroke: black; stroke-width: 1;"></line>
<line x1="20.26650429449554" y1="-169.19417382415918" x2="18.05679560328758" y2="-171.40388251536714" style="stroke: black; stroke-width: 1;"></line>
<line x1="18.05679560328758" y1="-171.40388251536714" x2="20.26650429449554" y2="-169.19417382415918" style="stroke: black; stroke-width: 1;"></line>
<line x1="20.26650429449554" y1="-169.19417382415918" x2="26.51650429449554" y2="-169.19417382415918" style="stroke: black; stroke-width: 1;"></line>
<line x1="26.51650429449554" y1="-169.19417382415918" x2="26.51650429449554" y2="-175.44417382415918" style="stroke: black; stroke-width: 1;"></line>
<line x1="26.51650429449554" y1="-175.44417382415918" x2="24.30679560328758" y2="-177.65388251536714" style="stroke: black; stroke-width: 1;"></line>
<line x1="24.30679560328758" y1="-177.65388251536714" x2="26.51650429449554" y2="-175.44417382415918" style="stroke: black; stroke-width: 1;"></line>
<line x1="26.51650429449554" y1="-175.44417382415918" x2="28.7262129857035" y2="-177.65388251536714" style="stroke: black; stroke-width: 1;"></line>
<line x1="28.7262129857035" y1="-177.65388251536714" x2="26.51650429449554" y2="-175.44417382415918" style="stroke: black; stroke-width: 1;"></line>
<line x1="26.51650429449554" y1="-175.44417382415918" x2="26.51650429449554" y2="-169.19417382415918" style="stroke: black; stroke-width: 1;"></line>
<line x1="26.51650429449554" y1="-169.19417382415918" x2="35.355339059327385" y2="-160.35533905932732" style="stroke: black; stroke-width: 1;"></line>
<line x1="35.355339059327385" y1="-160.35533905932732" x2="44.19417382415923" y2="-169.19417382415915" style="stroke: black; stroke-width: 1;"></line>
<line x1="44.19417382415923" y1="-169.19417382415915" x2="44.19417382415923" y2="-175.44417382415915" style="stroke: black; stroke-width: 1;"></line>
<line x1="44.19417382415923" y1="-175.44417382415915" x2="41.98446513295127" y2="-177.65388251536712" style="stroke: black; stroke-width: 1;"></line>
<line x1="41.98446513295127" y1="-177.65388251536712" x2="44.19417382415923" y2="-175.44417382415915" style="stroke: black; stroke-width: 1;"></line>
<line x1="44.19417382415923" y1="-175.44417382415915" x2="46.40388251536719" y2="-177.65388251536712" style="stroke: black; stroke-width: 1;"></line>
<line x1="46.40388251536719" y1="-177.65388251536712" x2="44.19417382415922" y2="-175.44417382415915" style="stroke: black; stroke-width: 1;"></line>
<line x1="44.19417382415922" y1="-175.44417382415915" x2="44.19417382415922" y2="-169.19417382415915" style="stroke: black; stroke-width: 1;"></line>
<line x1="44.19417382415922" y1="-169.19417382415915" x2="50.44417382415922" y2="-169.19417382415915" style="stroke: black; stroke-width: 1;"></line>
<line x1="50.44417382415922" y1="-169.19417382415915" x2="52.65388251536719" y2="-171.40388251536712" style="stroke: black; stroke-width: 1;"></line>
<line x1="52.65388251536719" y1="-171.40388251536712" x2="50.44417382415922" y2="-169.19417382415915" style="stroke: black; stroke-width: 1;"></line>
<line x1="50.44417382415922" y1="-169.19417382415915" x2="52.65388251536719" y2="-166.9844651329512" style="stroke: black; stroke-width: 1;"></line>
<line x1="52.65388251536719" y1="-166.9844651329512" x2="50.44417382415922" y2="-169.19417382415915" style="stroke: black; stroke-width: 1;"></line>
<line x1="50.44417382415922" y1="-169.19417382415915" x2="44.19417382415922" y2="-169.19417382415915" style="stroke: black; stroke-width: 1;"></line>
<line x1="44.19417382415922" y1="-169.19417382415915" x2="35.35533905932738" y2="-160.35533905932732" style="stroke: black; stroke-width: 1;"></line>
<line x1="35.35533905932738" y1="-160.35533905932732" x2="35.35533905932738" y2="-135.35533905932732" style="stroke: black; stroke-width: 1;"></line>
<line x1="35.35533905932738" y1="-135.35533905932732" x2="60.35533905932738" y2="-135.35533905932732" style="stroke: black; stroke-width: 1;"></line>
<line x1="60.35533905932738" y1="-135.35533905932732" x2="69.19417382415922" y2="-144.19417382415915" style="stroke: black; stroke-width: 1;"></line>
<line x1="69.19417382415922" y1="-144.19417382415915" x2="69.19417382415922" y2="-150.44417382415915" style="stroke: black; stroke-width: 1;"></line>
<line x1="69.19417382415922" y1="-150.44417382415915" x2="66.98446513295126" y2="-152.65388251536712" style="stroke: black; stroke-width: 1;"></line>
<line x1="66.98446513295126" y1="-152.65388251536712" x2="69.19417382415922" y2="-150.44417382415915" style="stroke: black; stroke-width: 1;"></line>
<line x1="69.19417382415922" y1="-150.44417382415915" x2="71.40388251536719" y2="-152.65388251536712" style="stroke: black; stroke-width: 1;"></line>
<line x1="71.40388251536719" y1="-152.65388251536712" x2="69.19417382415922" y2="-150.44417382415915" style="stroke: black; stroke-width: 1;"></line>
<line x1="69.19417382415922" y1="-150.44417382415915" x2="69.19417382415922" y2="-144.19417382415915" style="stroke: black; stroke-width: 1;"></line>
<line x1="69.19417382415922" y1="-144.19417382415915" x2="75.44417382415922" y2="-144.19417382415915" style="stroke: black; stroke-width: 1;"></line>
<line x1="75.44417382415922" y1="-144.19417382415915" x2="77.65388251536719" y2="-146.40388251536712" style="stroke: black; stroke-width: 1;"></line>
<line x1="77.65388251536719" y1="-146.40388251536712" x2="75.44417382415922" y2="-144.19417382415915" style="stroke: black; stroke-width: 1;"></line>
<line x1="75.44417382415922" y1="-144.19417382415915" x2="77.65388251536719" y2="-141.9844651329512" style="stroke: black; stroke-width: 1;"></line>
<line x1="77.65388251536719" y1="-141.9844651329512" x2="75.44417382415922" y2="-144.19417382415915" style="stroke: black; stroke-width: 1;"></line>
<line x1="75.44417382415922" y1="-144.19417382415915" x2="69.19417382415922" y2="-144.19417382415915" style="stroke: black; stroke-width: 1;"></line>
<line x1="69.19417382415922" y1="-144.19417382415915" x2="60.35533905932738" y2="-135.35533905932732" style="stroke: black; stroke-width: 1;"></line>
<line x1="60.35533905932738" y1="-135.35533905932732" x2="69.19417382415922" y2="-126.51650429449548" style="stroke: black; stroke-width: 1;"></line>
<line x1="69.19417382415922" y1="-126.51650429449548" x2="75.44417382415922" y2="-126.51650429449548" style="stroke: black; stroke-width: 1;"></line>
<line x1="75.44417382415922" y1="-126.51650429449548" x2="77.65388251536719" y2="-128.72621298570343" style="stroke: black; stroke-width: 1;"></line>
<line x1="77.65388251536719" y1="-128.72621298570343" x2="75.44417382415922" y2="-126.51650429449546" style="stroke: black; stroke-width: 1;"></line>
<line x1="75.44417382415922" y1="-126.51650429449546" x2="77.65388251536719" y2="-124.3067956032875" style="stroke: black; stroke-width: 1;"></line>
<line x1="77.65388251536719" y1="-124.3067956032875" x2="75.44417382415922" y2="-126.51650429449546" style="stroke: black; stroke-width: 1;"></line>
<line x1="75.44417382415922" y1="-126.51650429449546" x2="69.19417382415922" y2="-126.51650429449546" style="stroke: black; stroke-width: 1;"></line>
<line x1="69.19417382415922" y1="-126.51650429449546" x2="69.19417382415922" y2="-120.26650429449546" style="stroke: black; stroke-width: 1;"></line>
<line x1="69.19417382415922" y1="-120.26650429449546" x2="71.40388251536719" y2="-118.0567956032875" style="stroke: black; stroke-width: 1;"></line>
<line x1="71.40388251536719" y1="-118.0567956032875" x2="69.19417382415922" y2="-120.26650429449546" style="stroke: black; stroke-width: 1;"></line>
<line x1="69.19417382415922" y1="-120.26650429449546" x2="66.98446513295126" y2="-118.0567956032875" style="stroke: black; stroke-width: 1;"></line>
<line x1="66.98446513295126" y1="-118.0567956032875" x2="69.19417382415922" y2="-120.26650429449546" style="stroke: black; stroke-width: 1;"></line>
<line x1="69.19417382415922" y1="-120.26650429449546" x2="69.19417382415922" y2="-126.51650429449546" style="stroke: black; stroke-width: 1;"></line>
<line x1="69.19417382415922" y1="-126.51650429449546" x2="60.35533905932738" y2="-135.3553390593273" style="stroke: black; stroke-width: 1;"></line>
<line x1="60.35533905932738" y1="-135.3553390593273" x2="35.35533905932738" y2="-135.3553390593273" style="stroke: black; stroke-width: 1;"></line>
<line x1="35.35533905932738" y1="-135.3553390593273" x2="0" y2="-99.99999999999991" style="stroke: black; stroke-width: 1;"></line>
</g>
<g transform="translate(250 250)">
<polygon points="0,0 ,-5,-9 ,0,-7 ,5,-9 " stroke="black" fill="black" stroke-width="1" opacity="1" transform="translate(0.0,-99.99999999999991) rotate(-180,0,0)"></polygon>
</g>
<metadata><raw>from turtle import *

speed(100)
left(90)
def baum(grösse):
    if grösse &lt; 5:
        forward(grösse)
    else:
        forward(grösse)
        left(45)
        baum(grösse / 2)
        backward(grösse / 2)
        right(90)
        baum(grösse / 2)
        backward(grösse / 2)
        left(45)
baum(100) </raw></metadata></svg>