<!--?xml version="1.0" standalone="no"?-->
<svg id="ofi_65b9f38d_cb5e_4932_a04a_bab80d3f57d5_svg" width="255.350830078125" height="251.85128784179688" xmlns="http://www.w3.org/2000/svg" viewBox="142.3245849609375,10.648712158203125,255.350830078125,251.85128784179688">
<g transform="translate(250 250)">
<line x1="0" y1="0" x2="0" y2="0" style="stroke: black; stroke-width: 1;"></line>
<line x1="0" y1="0" x2="40" y2="0" style="stroke: teal; stroke-width: 1;"></line>
<circle cx="40" cy="0" r="7.5" fill="teal" style=""></circle>
<line x1="40" y1="0" x2="77.58770483143634" y2="-13.680805733026748" style="stroke: teal; stroke-width: 1;"></line>
<circle cx="77.58770483143634" cy="-13.680805733026748" r="7.5" fill="teal" style=""></circle>
<line x1="77.58770483143634" y1="-13.680805733026748" x2="108.22948255619546" y2="-39.39231012048832" style="stroke: teal; stroke-width: 1;"></line>
<circle cx="108.22948255619546" cy="-39.39231012048832" r="7.5" fill="teal" style=""></circle>
<line x1="108.22948255619546" y1="-39.39231012048832" x2="128.22948255619548" y2="-74.03332627186586" style="stroke: teal; stroke-width: 1;"></line>
<circle cx="128.22948255619548" cy="-74.03332627186586" r="7.5" fill="teal" style=""></circle>
<line x1="128.22948255619548" y1="-74.03332627186586" x2="135.17540966287268" y2="-113.42563639235418" style="stroke: teal; stroke-width: 1;"></line>
<circle cx="135.17540966287268" cy="-113.42563639235418" r="7.5" fill="teal" style=""></circle>
<line x1="135.17540966287268" y1="-113.42563639235418" x2="128.22948255619548" y2="-152.8179465128425" style="stroke: teal; stroke-width: 1;"></line>
<circle cx="128.22948255619548" cy="-152.8179465128425" r="7.5" fill="teal" style=""></circle>
<line x1="128.22948255619548" y1="-152.8179465128425" x2="108.22948255619548" y2="-187.45896266422005" style="stroke: teal; stroke-width: 1;"></line>
<circle cx="108.22948255619548" cy="-187.45896266422005" r="7.5" fill="teal" style=""></circle>
<line x1="108.22948255619548" y1="-187.45896266422005" x2="77.58770483143635" y2="-213.17046705168164" style="stroke: teal; stroke-width: 1;"></line>
<circle cx="77.58770483143635" cy="-213.17046705168164" r="7.5" fill="teal" style=""></circle>
<line x1="77.58770483143635" y1="-213.17046705168164" x2="40.00000000000002" y2="-226.85127278470839" style="stroke: teal; stroke-width: 1;"></line>
<circle cx="40.00000000000002" cy="-226.85127278470839" r="7.5" fill="teal" style=""></circle>
<line x1="40.00000000000002" y1="-226.85127278470839" x2="2.1316282072803006e-14" y2="-226.85127278470839" style="stroke: teal; stroke-width: 1;"></line>
<circle cx="2.1316282072803006e-14" cy="-226.85127278470839" r="7.5" fill="teal" style=""></circle>
<line x1="2.1316282072803006e-14" y1="-226.85127278470839" x2="-37.58770483143632" y2="-213.17046705168164" style="stroke: teal; stroke-width: 1;"></line>
<circle cx="-37.58770483143632" cy="-213.17046705168164" r="7.5" fill="teal" style=""></circle>
<line x1="-37.58770483143632" y1="-213.17046705168164" x2="-68.22948255619545" y2="-187.45896266422008" style="stroke: teal; stroke-width: 1;"></line>
<circle cx="-68.22948255619545" cy="-187.45896266422008" r="7.5" fill="teal" style=""></circle>
<line x1="-68.22948255619545" y1="-187.45896266422008" x2="-88.22948255619546" y2="-152.81794651284252" style="stroke: teal; stroke-width: 1;"></line>
<circle cx="-88.22948255619546" cy="-152.81794651284252" r="7.5" fill="teal" style=""></circle>
<line x1="-88.22948255619546" y1="-152.81794651284252" x2="-95.17540966287268" y2="-113.4256363923542" style="stroke: teal; stroke-width: 1;"></line>
<circle cx="-95.17540966287268" cy="-113.4256363923542" r="7.5" fill="teal" style=""></circle>
<line x1="-95.17540966287268" y1="-113.4256363923542" x2="-88.22948255619548" y2="-74.03332627186589" style="stroke: teal; stroke-width: 1;"></line>
<circle cx="-88.22948255619548" cy="-74.03332627186589" r="7.5" fill="teal" style=""></circle>
<line x1="-88.22948255619548" y1="-74.03332627186589" x2="-68.22948255619548" y2="-39.39231012048835" style="stroke: teal; stroke-width: 1;"></line>
<circle cx="-68.22948255619548" cy="-39.39231012048835" r="7.5" fill="teal" style=""></circle>
<line x1="-68.22948255619548" y1="-39.39231012048835" x2="-37.58770483143637" y2="-13.680805733026762" style="stroke: teal; stroke-width: 1;"></line>
<circle cx="-37.58770483143637" cy="-13.680805733026762" r="7.5" fill="teal" style=""></circle>
<line x1="-37.58770483143637" y1="-13.680805733026762" x2="-2.842170943040401e-14" y2="-1.7763568394002505e-14" style="stroke: teal; stroke-width: 1;"></line>
<circle cx="-2.842170943040401e-14" cy="-1.7763568394002505e-14" r="7.5" fill="teal" style=""></circle>
<line x1="-2.842170943040401e-14" y1="-1.7763568394002505e-14" x2="-2.842170943040401e-14" y2="-1.7763568394002505e-14" style="stroke: teal; stroke-width: 1;"></line>
</g>
<g transform="translate(250 250)">
<polygon points="0,0 ,-5,-9 ,0,-7 ,5,-9 " stroke="teal" fill="black" stroke-width="1" opacity="0" transform="translate(-2.842170943040401e-14,-1.7763568394002505e-14) rotate(-450,0,0)"></polygon>
</g>
<metadata><raw>from turtle import *

pencolor('teal')
for i in range(18):
    forward(40)
    dot(15)
    left(360/18)
hideturtle()</raw></metadata></svg>
