<!--?xml version="1.0" standalone="no"?-->
<svg id="schneestern_py_svg" width="210" height="183.205078125" xmlns="http://www.w3.org/2000/svg" viewBox="145,158.3974609375,210,183.205078125">
<g transform="translate(250 250)">
<line x1="0" y1="0" x2="0" y2="0" style="stroke: black; stroke-width: 1;"></line>
<line x1="0" y1="0" x2="100" y2="0" style="stroke: black; stroke-width: 1;"></line>
<line x1="100" y1="0" x2="0" y2="0" style="stroke: black; stroke-width: 1;"></line>
<line x1="0" y1="0" x2="50.000000000000014" y2="-86.60254037844386" style="stroke: black; stroke-width: 1;"></line>
<line x1="50.000000000000014" y1="-86.60254037844386" x2="0" y2="0" style="stroke: black; stroke-width: 1;"></line>
<line x1="0" y1="0" x2="-49.99999999999998" y2="-86.60254037844388" style="stroke: black; stroke-width: 1;"></line>
<line x1="-49.99999999999998" y1="-86.60254037844388" x2="0" y2="0" style="stroke: black; stroke-width: 1;"></line>
<line x1="0" y1="0" x2="-100" y2="-1.2246467991473532e-14" style="stroke: black; stroke-width: 1;"></line>
<line x1="-100" y1="-1.2246467991473532e-14" x2="0" y2="0" style="stroke: black; stroke-width: 1;"></line>
<line x1="0" y1="0" x2="-50.00000000000004" y2="86.60254037844385" style="stroke: black; stroke-width: 1;"></line>
<line x1="-50.00000000000004" y1="86.60254037844385" x2="0" y2="0" style="stroke: black; stroke-width: 1;"></line>
<line x1="0" y1="0" x2="50.000000000000014" y2="86.60254037844386" style="stroke: black; stroke-width: 1;"></line>
<line x1="50.000000000000014" y1="86.60254037844386" x2="0" y2="0" style="stroke: black; stroke-width: 1;"></line>
</g>
<g transform="translate(250 250)">
<polygon points="0,0 ,-5,-9 ,0,-7 ,5,-9 " stroke="black" fill="black" stroke-width="1" opacity="1" transform="translate(0.0,-0.0) rotate(-450,0,0)"></polygon>
</g>
<metadata><raw>from turtle import *
for i in range(6):
    forward(100)
    backward(100)
    left(60)</raw></metadata></svg>