<!--?xml version="1.0" standalone="no"?-->
<svg id="ofi_6d4c82e3_ecaa_486e_a756_3a1a1a8a70fc_svg" width="205.6295166015625" height="208.90438842773438" xmlns="http://www.w3.org/2000/svg" viewBox="147.18524169921875,145.54782104492188,205.6295166015625,208.90438842773438">
<g transform="translate(250 250)">
<line x1="0" y1="0" x2="0" y2="0" style="stroke: black; stroke-width: 1;"></line>
<line x1="0" y1="0" x2="50" y2="0" style="stroke: black; stroke-width: 1;"></line>
<line x1="50" y1="0" x2="75" y2="-43.30127018922193" style="stroke: black; stroke-width: 1;"></line>
<line x1="75" y1="-43.30127018922193" x2="50.000000000000014" y2="-86.60254037844388" style="stroke: black; stroke-width: 1;"></line>
<line x1="50.000000000000014" y1="-86.60254037844388" x2="1.4210854715202004e-14" y2="-86.60254037844388" style="stroke: black; stroke-width: 1;"></line>
<line x1="1.4210854715202004e-14" y1="-86.60254037844388" x2="-25.000000000000007" y2="-43.30127018922195" style="stroke: black; stroke-width: 1;"></line>
<line x1="-25.000000000000007" y1="-43.30127018922195" x2="0" y2="-2.1316282072803006e-14" style="stroke: black; stroke-width: 1;"></line>
<line x1="0" y1="-2.1316282072803006e-14" x2="40.45084971874738" y2="-29.389262614623668" style="stroke: black; stroke-width: 1;"></line>
<line x1="40.45084971874738" y1="-29.389262614623668" x2="35.22442655536469" y2="-79.11535738303733" style="stroke: black; stroke-width: 1;"></line>
<line x1="35.22442655536469" y1="-79.11535738303733" x2="-10.45284632676534" y2="-99.45218953682739" style="stroke: black; stroke-width: 1;"></line>
<line x1="-10.45284632676534" y1="-99.45218953682739" x2="-50.903696045512724" y2="-70.06292692220376" style="stroke: black; stroke-width: 1;"></line>
<line x1="-50.903696045512724" y1="-70.06292692220376" x2="-45.67727288213004" y2="-20.33683215379009" style="stroke: black; stroke-width: 1;"></line>
<line x1="-45.67727288213004" y1="-20.33683215379009" x2="-2.1316282072803006e-14" y2="-3.197442310920451e-14" style="stroke: black; stroke-width: 1;"></line>
<line x1="-2.1316282072803006e-14" y1="-3.197442310920451e-14" x2="15.450849718747376" y2="-47.552825814757696" style="stroke: black; stroke-width: 1;"></line>
<line x1="15.450849718747376" y1="-47.552825814757696" x2="-18.005680599195536" y2="-84.71006708862741" style="stroke: black; stroke-width: 1;"></line>
<line x1="-18.005680599195536" y1="-84.71006708862741" x2="-66.91306063588581" y2="-74.31448254773942" style="stroke: black; stroke-width: 1;"></line>
<line x1="-66.91306063588581" y1="-74.31448254773942" x2="-82.36391035463322" y2="-26.76165673298175" style="stroke: black; stroke-width: 1;"></line>
<line x1="-82.36391035463322" y1="-26.76165673298175" x2="-48.90738003669038" y2="10.395584540888024" style="stroke: black; stroke-width: 1;"></line>
<line x1="-48.90738003669038" y1="10.395584540888024" x2="-9.947598300641403e-14" y2="3.552713678800501e-14" style="stroke: black; stroke-width: 1;"></line>
<line x1="-9.947598300641403e-14" y1="3.552713678800501e-14" x2="-15.450849718747433" y2="-47.55282581475766" style="stroke: black; stroke-width: 1;"></line>
<line x1="-15.450849718747433" y1="-47.55282581475766" x2="-64.35822975543769" y2="-57.94841035564573" style="stroke: black; stroke-width: 1;"></line>
<line x1="-64.35822975543769" y1="-57.94841035564573" x2="-97.8147600733806" y2="-20.791169081776005" style="stroke: black; stroke-width: 1;"></line>
<line x1="-97.8147600733806" y1="-20.791169081776005" x2="-82.36391035463328" y2="26.76165673298169" style="stroke: black; stroke-width: 1;"></line>
<line x1="-82.36391035463328" y1="26.76165673298169" x2="-33.45653031794301" y2="37.157241273869765" style="stroke: black; stroke-width: 1;"></line>
<line x1="-33.45653031794301" y1="37.157241273869765" x2="-1.1368683772161603e-13" y2="4.973799150320701e-14" style="stroke: black; stroke-width: 1;"></line>
<line x1="-1.1368683772161603e-13" y1="4.973799150320701e-14" x2="-40.450849718747456" y2="-29.38926261462365" style="stroke: black; stroke-width: 1;"></line>
<line x1="-40.450849718747456" y1="-29.38926261462365" x2="-86.12812260087748" y2="-9.05243046083358" style="stroke: black; stroke-width: 1;"></line>
<line x1="-86.12812260087748" y1="-9.05243046083358" x2="-91.35454576426015" y2="40.67366430758008" style="stroke: black; stroke-width: 1;"></line>
<line x1="-91.35454576426015" y1="40.67366430758008" x2="-50.90369604551282" y2="70.06292692220379" style="stroke: black; stroke-width: 1;"></line>
<line x1="-50.90369604551282" y1="70.06292692220379" x2="-5.2264231633827976" y2="49.726094768413724" style="stroke: black; stroke-width: 1;"></line>
<line x1="-5.2264231633827976" y1="49.726094768413724" x2="-1.1901590823981678e-13" y2="5.684341886080802e-14" style="stroke: black; stroke-width: 1;"></line>
<line x1="-1.1901590823981678e-13" y1="5.684341886080802e-14" x2="-50.00000000000012" y2="1.6712352884772863e-13" style="stroke: black; stroke-width: 1;"></line>
<line x1="-50.00000000000012" y1="1.6712352884772863e-13" x2="-75.00000000000009" y2="43.30127018922213" style="stroke: black; stroke-width: 1;"></line>
<line x1="-75.00000000000009" y1="43.30127018922213" x2="-50.0000000000001" y2="86.60254037844408" style="stroke: black; stroke-width: 1;"></line>
<line x1="-50.0000000000001" y1="86.60254037844408" x2="-9.947598300641403e-14" y2="86.60254037844415" style="stroke: black; stroke-width: 1;"></line>
<line x1="-9.947598300641403e-14" y1="86.60254037844415" x2="25.000000000000018" y2="43.301270189222286" style="stroke: black; stroke-width: 1;"></line>
<line x1="25.000000000000018" y1="43.301270189222286" x2="1.8829382497642655e-13" y2="2.5579538487363607e-13" style="stroke: black; stroke-width: 1;"></line>
<line x1="1.8829382497642655e-13" y1="2.5579538487363607e-13" x2="-40.450849718747236" y2="29.389262614623846" style="stroke: black; stroke-width: 1;"></line>
<line x1="-40.450849718747236" y1="29.389262614623846" x2="-35.2244265553647" y2="79.11535738303752" style="stroke: black; stroke-width: 1;"></line>
<line x1="-35.2244265553647" y1="79.11535738303752" x2="10.452846326765261" y2="99.45218953682772" style="stroke: black; stroke-width: 1;"></line>
<line x1="10.452846326765261" y1="99.45218953682772" x2="50.903696045512575" y2="70.06292692220399" style="stroke: black; stroke-width: 1;"></line>
<line x1="50.903696045512575" y1="70.06292692220399" x2="45.67727288212987" y2="20.33683215379032" style="stroke: black; stroke-width: 1;"></line>
<line x1="45.67727288212987" y1="20.33683215379032" x2="-1.6342482922482304e-13" y2="2.8066438062523957e-13" style="stroke: black; stroke-width: 1;"></line>
<line x1="-1.6342482922482304e-13" y1="2.8066438062523957e-13" x2="-15.450849718747456" y2="47.55282581475798" style="stroke: black; stroke-width: 1;"></line>
<line x1="-15.450849718747456" y1="47.55282581475798" x2="18.005680599195472" y2="84.71006708862768" style="stroke: black; stroke-width: 1;"></line>
<line x1="18.005680599195472" y1="84.71006708862768" x2="66.91306063588576" y2="74.31448254773976" style="stroke: black; stroke-width: 1;"></line>
<line x1="66.91306063588576" y1="74.31448254773976" x2="82.36391035463322" y2="26.76165673298211" style="stroke: black; stroke-width: 1;"></line>
<line x1="82.36391035463322" y1="26.76165673298211" x2="48.90738003669043" y2="-10.395584540887704" style="stroke: black; stroke-width: 1;"></line>
<line x1="48.90738003669043" y1="-10.395584540887704" x2="1.7053025658242404e-13" y2="3.9257486150745535e-13" style="stroke: black; stroke-width: 1;"></line>
<line x1="1.7053025658242404e-13" y1="3.9257486150745535e-13" x2="15.45084971874744" y2="47.5528258147581" style="stroke: black; stroke-width: 1;"></line>
<line x1="15.45084971874744" y1="47.5528258147581" x2="64.35822975543769" y2="57.94841035564623" style="stroke: black; stroke-width: 1;"></line>
<line x1="64.35822975543769" y1="57.94841035564623" x2="97.81476007338051" y2="20.791169081776438" style="stroke: black; stroke-width: 1;"></line>
<line x1="97.81476007338051" y1="20.791169081776438" x2="82.36391035463308" y2="-26.761656732981223" style="stroke: black; stroke-width: 1;"></line>
<line x1="82.36391035463308" y1="-26.761656732981223" x2="33.45653031794279" y2="-37.15724127386919" style="stroke: black; stroke-width: 1;"></line>
<line x1="33.45653031794279" y1="-37.15724127386919" x2="-1.6342482922482304e-13" y2="4.831690603168681e-13" style="stroke: black; stroke-width: 1;"></line>
<line x1="-1.6342482922482304e-13" y1="4.831690603168681e-13" x2="40.45084971874724" y2="29.389262614624094" style="stroke: black; stroke-width: 1;"></line>
<line x1="40.45084971874724" y1="29.389262614624094" x2="86.12812260087729" y2="9.052430460834088" style="stroke: black; stroke-width: 1;"></line>
<line x1="86.12812260087729" y1="9.052430460834088" x2="91.35454576425968" y2="-40.67366430757961" style="stroke: black; stroke-width: 1;"></line>
<line x1="91.35454576425968" y1="-40.67366430757961" x2="50.90369604551239" y2="-70.06292692220336" style="stroke: black; stroke-width: 1;"></line>
<line x1="50.90369604551239" y1="-70.06292692220336" x2="5.226423163382414" y2="-49.7260947684132" style="stroke: black; stroke-width: 1;"></line>
<line x1="5.226423163382414" y1="-49.7260947684132" x2="-5.080380560684716e-13" y2="4.476419235288631e-13" style="stroke: black; stroke-width: 1;"></line>
</g>
<g transform="translate(250 250)">
<polygon points="0,0 ,-5,-9 ,0,-7 ,5,-9 " stroke="black" fill="black" stroke-width="1" opacity="1" transform="translate(-5.080380560684716e-13,4.476419235288631e-13) rotate(-4050,0,0)"></polygon>
</g>
<metadata><raw>from turtle import *

def sechseck():
    for i in range(6):
        forward(50)
        left(60)

for i in range(10):
    sechseck()
    left(36)</raw></metadata></svg>