<!--?xml version="1.0" standalone="no"?-->
<svg id="ofi_2f51d3d8_4037_4ed1_b402_1c33f85f94ca_svg" width="325" height="328.30126953125" xmlns="http://www.w3.org/2000/svg" viewBox="95,51.69873046875,325,328.30126953125">
<g transform="translate(250 250)">
<line x1="0" y1="0" x2="0" y2="0" style="stroke: black; stroke-width: 1;"></line>
<line x1="0" y1="0" x2="50" y2="0" opacity="0" style="stroke: black; stroke-width: 1;"></line>
<line x1="50" y1="30" x2="100" y2="30" style="stroke: black; stroke-width: 1;"></line>
<line x1="100" y1="30" x2="75.00000000000001" y2="-13.301270189221938" style="stroke: black; stroke-width: 1;"></line>
<line x1="75.00000000000001" y1="-13.301270189221938" x2="49.99999999999999" y2="29.999999999999986" style="stroke: black; stroke-width: 1;"></line>
<polygon points="50,30 100.0,30.0 75.00000000000001,-13.301270189221938 49.99999999999999,29.999999999999986" style="display: block; fill: red; stroke: black; stroke-width: 1;" display="block" transform="translate(0,0) rotate(0,0,0)"></polygon>
<line x1="49.99999999999999" y1="29.999999999999986" x2="-100" y2="29.999999999999986" opacity="0" style="stroke: black; stroke-width: 1;"></line>
<line x1="-100" y1="-30" x2="-50" y2="-29.99999999999999" style="stroke: black; stroke-width: 1;"></line>
<line x1="-50" y1="-29.99999999999999" x2="-74.99999999999996" y2="-73.30127018922195" style="stroke: black; stroke-width: 1;"></line>
<line x1="-74.99999999999996" y1="-73.30127018922195" x2="-99.99999999999994" y2="-30.000000000000014" style="stroke: black; stroke-width: 1;"></line>
<polygon points="-100,-30 -50.0,-29.99999999999999 -74.99999999999996,-73.30127018922195 -99.99999999999994,-30.000000000000014" style="display: block; fill: green; stroke: black; stroke-width: 1;" display="block" transform="translate(0,0) rotate(0,0,0)"></polygon>
<line x1="-99.99999999999994" y1="-30.000000000000014" x2="-25" y2="-30.000000000000014" opacity="0" style="stroke: black; stroke-width: 1;"></line>
<line x1="-25" y1="-150" x2="25" y2="-149.99999999999997" style="stroke: black; stroke-width: 1;"></line>
<line x1="25" y1="-149.99999999999997" x2="-2.842170943040401e-14" y2="-193.3012701892219" style="stroke: black; stroke-width: 1;"></line>
<line x1="-2.842170943040401e-14" y1="-193.3012701892219" x2="-25.000000000000107" y2="-150" style="stroke: black; stroke-width: 1;"></line>
<polygon points="-25,-150 25.0,-149.99999999999997 -2.842170943040401e-14,-193.3012701892219 -25.000000000000107,-150.0" style="display: block; fill: blue; stroke: black; stroke-width: 1;" display="block" transform="translate(0,0) rotate(0,0,0)"></polygon>
<line x1="-25.000000000000107" y1="-150" x2="-150" y2="-150" opacity="0" style="stroke: black; stroke-width: 1;"></line>
<line x1="-150" y1="120" x2="-120" y2="120.00000000000003" style="stroke: black; stroke-width: 1;"></line>
<line x1="-120" y1="120.00000000000003" x2="-120.00000000000003" y2="90.00000000000003" style="stroke: black; stroke-width: 1;"></line>
<line x1="-120.00000000000003" y1="90.00000000000003" x2="-150.00000000000003" y2="90" style="stroke: black; stroke-width: 1;"></line>
<line x1="-150.00000000000003" y1="90" x2="-150" y2="120" style="stroke: black; stroke-width: 1;"></line>
<polygon points="-150,120 -120.0,120.00000000000003 -120.00000000000003,90.00000000000003 -150.00000000000003,90.0 -150.0,120.0" style="display: block; fill: black; stroke: black; stroke-width: 1;" display="block" transform="translate(0,0) rotate(0,0,0)"></polygon>
<line x1="-150" y1="120" x2="-15" y2="120" opacity="0" style="stroke: black; stroke-width: 1;"></line>
<line x1="-15" y1="120" x2="15" y2="120.00000000000003" style="stroke: black; stroke-width: 1;"></line>
<line x1="15" y1="120.00000000000003" x2="14.999999999999979" y2="90.00000000000003" style="stroke: black; stroke-width: 1;"></line>
<line x1="14.999999999999979" y1="90.00000000000003" x2="-15.000000000000021" y2="90" style="stroke: black; stroke-width: 1;"></line>
<line x1="-15.000000000000021" y1="90" x2="-15.000000000000004" y2="120" style="stroke: black; stroke-width: 1;"></line>
<polygon points="-15,120 15.0,120.00000000000003 14.999999999999979,90.00000000000003 -15.000000000000021,90.0 -15.000000000000004,120.0" style="display: block; fill: black; stroke: black; stroke-width: 1;" display="block" transform="translate(0,0) rotate(0,0,0)"></polygon>
<line x1="-15.000000000000004" y1="120" x2="135" y2="120" opacity="0" style="stroke: black; stroke-width: 1;"></line>
<line x1="135" y1="120" x2="165" y2="120.00000000000004" style="stroke: black; stroke-width: 1;"></line>
<line x1="165" y1="120.00000000000004" x2="164.99999999999997" y2="90.00000000000004" style="stroke: black; stroke-width: 1;"></line>
<line x1="164.99999999999997" y1="90.00000000000004" x2="134.99999999999997" y2="90.00000000000011" style="stroke: black; stroke-width: 1;"></line>
<line x1="134.99999999999997" y1="90.00000000000011" x2="134.9999999999999" y2="120.00000000000011" style="stroke: black; stroke-width: 1;"></line>
<polygon points="135,120 165.0,120.00000000000004 164.99999999999997,90.00000000000004 134.99999999999997,90.00000000000011 134.9999999999999,120.00000000000011" style="display: block; fill: black; stroke: black; stroke-width: 1;" display="block" transform="translate(0,0) rotate(0,0,0)"></polygon>
</g>
<g transform="translate(250 250)">
<polygon points="0,0 ,-5,-9 ,0,-7 ,5,-9 " stroke="black" fill="black" stroke-width="1" opacity="1" transform="translate(134.9999999999999,120.00000000000011) rotate(-2250,0,0)"></polygon>
</g>
<metadata><raw>from turtle import *
speed(100)
penup()
goto(50, -30)
pendown()

fillcolor('red')
begin_fill()
for i in range(3):
    forward(50)
    left(120)
end_fill()

penup()
goto(-100, 30)
pendown()

fillcolor('green')
begin_fill()
for i in range(3):
    forward(50)
    left(120)
end_fill()

penup()
goto(-25, 150)
pendown()

fillcolor('blue')
begin_fill()
for i in range(3):
    forward(50)
    left(120)
end_fill()


penup()
goto(-150, -120)
pendown()

fillcolor('black')
begin_fill()
for i in range(4):
    forward(30)
    left(90)
end_fill()

penup()
goto(-15, -120)
pendown()

begin_fill()
for i in range(4):
    forward(30)
    left(90)
end_fill()

penup()
goto(135, -120)
pendown()

begin_fill()
for i in range(4):
    forward(30)
    left(90)
end_fill() </raw></metadata></svg>