<!--?xml version="1.0" standalone="no"?-->
<svg id="python__playground_py_svg" width="113.5355224609375" height="163.53553771972656" xmlns="http://www.w3.org/2000/svg" viewBox="245,95,113.5355224609375,163.53553771972656">
<g transform="translate(250 250)">
<line x1="0" y1="0" x2="0" y2="0" style="stroke: black; stroke-width: 1;"></line>
<line x1="0" y1="0" x2="100" y2="0" style="stroke: black; stroke-width: 1;"></line>
<line x1="100" y1="0" x2="100" y2="-100" style="stroke: black; stroke-width: 1;"></line>
<line x1="100" y1="-100" x2="50" y2="-150" style="stroke: black; stroke-width: 1;"></line>
<line x1="50" y1="-150" x2="-1.4210854715202004e-14" y2="-100" style="stroke: black; stroke-width: 1;"></line>
<line x1="-1.4210854715202004e-14" y1="-100" x2="-3.25805567024123e-14" y2="0" style="stroke: black; stroke-width: 1;"></line>
<line x1="-3.25805567024123e-14" y1="0" x2="100" y2="-99.99999999999999" style="stroke: black; stroke-width: 1;"></line>
<line x1="100" y1="-99.99999999999999" x2="0" y2="-100.00000000000003" style="stroke: black; stroke-width: 1;"></line>
<line x1="0" y1="-100.00000000000003" x2="100.00000000000004" y2="-7.105427357601002e-14" style="stroke: black; stroke-width: 1;"></line>
<line x1="100.00000000000004" y1="-7.105427357601002e-14" x2="100.00000000000004" y2="-7.105427357601002e-14" style="stroke: black; stroke-width: 1;"></line>
</g>
<g transform="translate(250 250)">
<polygon points="0,0 ,-5,-9 ,0,-7 ,5,-9 " stroke="black" fill="black" stroke-width="1" opacity="0" transform="translate(100.00000000000004,-7.105427357601002e-14) rotate(-765,0,0)"></polygon>
</g>
</svg>