<!--?xml version="1.0" standalone="no"?-->
<svg id="vogel_py_svg" width="229.56210327148438" height="36.6129150390625" xmlns="http://www.w3.org/2000/svg" viewBox="245,218.3870849609375,229.56210327148438,36.6129150390625">
<g transform="translate(250 250)">
<line x1="0" y1="0" x2="0" y2="0" style="stroke: black; stroke-width: 1;"></line>
<line x1="0" y1="0" x2="2.8284271247461903" y2="-2.82842712474619" style="stroke: black; stroke-width: 1;"></line>
<line x1="2.8284271247461903" y1="-2.82842712474619" x2="5.801006426655768" y2="-5.504949550181623" style="stroke: black; stroke-width: 1;"></line>
<line x1="5.801006426655768" y1="-5.504949550181623" x2="8.909590272483651" y2="-8.022231114380972" style="stroke: black; stroke-width: 1;"></line>
<line x1="8.909590272483651" y1="-8.022231114380972" x2="12.145658249983441" y2="-10.373372123550865" style="stroke: black; stroke-width: 1;"></line>
<line x1="12.145658249983441" y1="-10.373372123550865" x2="15.500340521765137" y2="-12.551928263610973" style="stroke: black; stroke-width: 1;"></line>
<line x1="15.500340521765137" y1="-12.551928263610973" x2="18.964442136902893" y2="-14.551928263610973" style="stroke: black; stroke-width: 1;"></line>
<line x1="18.964442136902893" y1="-14.551928263610973" x2="22.528468233656366" y2="-16.367890262569162" style="stroke: black; stroke-width: 1;"></line>
<line x1="22.528468233656366" y1="-16.367890262569162" x2="26.18265006422677" y2="-17.994836834872363" style="stroke: black; stroke-width: 1;"></line>
<line x1="26.18265006422677" y1="-17.994836834872363" x2="29.91697177021558" y2="-19.428308633053565" style="stroke: black; stroke-width: 1;"></line>
<line x1="29.91697177021558" y1="-19.428308633053565" x2="33.72119783539619" y2="-20.664376610553354" style="stroke: black; stroke-width: 1;"></line>
<line x1="33.72119783539619" y1="-20.664376610553354" x2="37.58490114055246" y2="-21.699652790963437" style="stroke: black; stroke-width: 1;"></line>
<line x1="37.58490114055246" y1="-21.699652790963437" x2="41.49749154348768" y2="-22.531299554234476" style="stroke: black; stroke-width: 1;"></line>
<line x1="41.49749154348768" y1="-22.531299554234476" x2="45.448244905868236" y2="-23.1570374143954" style="stroke: black; stroke-width: 1;"></line>
<line x1="45.448244905868236" y1="-23.1570374143954" x2="49.42633248734133" y2="-23.575151267466016" style="stroke: black; stroke-width: 1;"></line>
<line x1="49.42633248734133" y1="-23.575151267466016" x2="53.42085062635962" y2="-23.78449509243779" style="stroke: black; stroke-width: 1;"></line>
<line x1="53.42085062635962" y1="-23.78449509243779" x2="57.42085062635962" y2="-23.78449509243779" style="stroke: black; stroke-width: 1;"></line>
<line x1="57.42085062635962" y1="-23.78449509243779" x2="61.41536876537792" y2="-23.575151267466016" style="stroke: black; stroke-width: 1;"></line>
<line x1="61.41536876537792" y1="-23.575151267466016" x2="65.39345634685101" y2="-23.1570374143954" style="stroke: black; stroke-width: 1;"></line>
<line x1="65.39345634685101" y1="-23.1570374143954" x2="69.34420970923156" y2="-22.531299554234476" style="stroke: black; stroke-width: 1;"></line>
<line x1="69.34420970923156" y1="-22.531299554234476" x2="73.25680011216679" y2="-21.699652790963437" style="stroke: black; stroke-width: 1;"></line>
<line x1="73.25680011216679" y1="-21.699652790963437" x2="77.12050341732306" y2="-20.664376610553354" style="stroke: black; stroke-width: 1;"></line>
<line x1="77.12050341732306" y1="-20.664376610553354" x2="80.92472948250368" y2="-19.428308633053565" style="stroke: black; stroke-width: 1;"></line>
<line x1="80.92472948250368" y1="-19.428308633053565" x2="84.65905118849248" y2="-17.994836834872363" style="stroke: black; stroke-width: 1;"></line>
<line x1="84.65905118849248" y1="-17.994836834872363" x2="88.31323301906289" y2="-16.367890262569162" style="stroke: black; stroke-width: 1;"></line>
<line x1="88.31323301906289" y1="-16.367890262569162" x2="91.87725911581636" y2="-14.551928263610975" style="stroke: black; stroke-width: 1;"></line>
<line x1="91.87725911581636" y1="-14.551928263610975" x2="95.34136073095411" y2="-12.551928263610975" style="stroke: black; stroke-width: 1;"></line>
<line x1="95.34136073095411" y1="-12.551928263610975" x2="98.6960430027358" y2="-10.373372123550867" style="stroke: black; stroke-width: 1;"></line>
<line x1="98.6960430027358" y1="-10.373372123550867" x2="101.93211098023559" y2="-8.022231114380975" style="stroke: black; stroke-width: 1;"></line>
<line x1="101.93211098023559" y1="-8.022231114380975" x2="105.04069482606347" y2="-5.504949550181626" style="stroke: black; stroke-width: 1;"></line>
<line x1="105.04069482606347" y1="-5.504949550181626" x2="108.01327412797305" y2="-2.8284271247461934" style="stroke: black; stroke-width: 1;"></line>
<line x1="108.01327412797305" y1="-2.8284271247461934" x2="110.84170125271923" y2="-5.656854249492383" style="stroke: black; stroke-width: 1;"></line>
<line x1="110.84170125271923" y1="-5.656854249492383" x2="113.81428055462881" y2="-8.333376674927816" style="stroke: black; stroke-width: 1;"></line>
<line x1="113.81428055462881" y1="-8.333376674927816" x2="116.92286440045669" y2="-10.850658239127165" style="stroke: black; stroke-width: 1;"></line>
<line x1="116.92286440045669" y1="-10.850658239127165" x2="120.15893237795648" y2="-13.201799248297057" style="stroke: black; stroke-width: 1;"></line>
<line x1="120.15893237795648" y1="-13.201799248297057" x2="123.51361464973817" y2="-15.380355388357165" style="stroke: black; stroke-width: 1;"></line>
<line x1="123.51361464973817" y1="-15.380355388357165" x2="126.97771626487592" y2="-17.380355388357163" style="stroke: black; stroke-width: 1;"></line>
<line x1="126.97771626487592" y1="-17.380355388357163" x2="130.5417423616294" y2="-19.19631738731535" style="stroke: black; stroke-width: 1;"></line>
<line x1="130.5417423616294" y1="-19.19631738731535" x2="134.19592419219978" y2="-20.82326395961855" style="stroke: black; stroke-width: 1;"></line>
<line x1="134.19592419219978" y1="-20.82326395961855" x2="137.9302458981886" y2="-22.256735757799753" style="stroke: black; stroke-width: 1;"></line>
<line x1="137.9302458981886" y1="-22.256735757799753" x2="141.7344719633692" y2="-23.492803735299542" style="stroke: black; stroke-width: 1;"></line>
<line x1="141.7344719633692" y1="-23.492803735299542" x2="145.59817526852547" y2="-24.528079915709625" style="stroke: black; stroke-width: 1;"></line>
<line x1="145.59817526852547" y1="-24.528079915709625" x2="149.5107656714607" y2="-25.359726678980664" style="stroke: black; stroke-width: 1;"></line>
<line x1="149.5107656714607" y1="-25.359726678980664" x2="153.46151903384123" y2="-25.98546453914159" style="stroke: black; stroke-width: 1;"></line>
<line x1="153.46151903384123" y1="-25.98546453914159" x2="157.43960661531432" y2="-26.403578392212204" style="stroke: black; stroke-width: 1;"></line>
<line x1="157.43960661531432" y1="-26.403578392212204" x2="161.4341247543326" y2="-26.61292221718398" style="stroke: black; stroke-width: 1;"></line>
<line x1="161.4341247543326" y1="-26.61292221718398" x2="165.4341247543326" y2="-26.61292221718398" style="stroke: black; stroke-width: 1;"></line>
<line x1="165.4341247543326" y1="-26.61292221718398" x2="169.42864289335088" y2="-26.403578392212204" style="stroke: black; stroke-width: 1;"></line>
<line x1="169.42864289335088" y1="-26.403578392212204" x2="173.40673047482397" y2="-25.98546453914159" style="stroke: black; stroke-width: 1;"></line>
<line x1="173.40673047482397" y1="-25.98546453914159" x2="177.3574838372045" y2="-25.359726678980664" style="stroke: black; stroke-width: 1;"></line>
<line x1="177.3574838372045" y1="-25.359726678980664" x2="181.27007424013973" y2="-24.528079915709625" style="stroke: black; stroke-width: 1;"></line>
<line x1="181.27007424013973" y1="-24.528079915709625" x2="185.133777545296" y2="-23.492803735299542" style="stroke: black; stroke-width: 1;"></line>
<line x1="185.133777545296" y1="-23.492803735299542" x2="188.9380036104766" y2="-22.256735757799753" style="stroke: black; stroke-width: 1;"></line>
<line x1="188.9380036104766" y1="-22.256735757799753" x2="192.67232531646542" y2="-20.82326395961855" style="stroke: black; stroke-width: 1;"></line>
<line x1="192.67232531646542" y1="-20.82326395961855" x2="196.3265071470358" y2="-19.19631738731535" style="stroke: black; stroke-width: 1;"></line>
<line x1="196.3265071470358" y1="-19.19631738731535" x2="199.8905332437893" y2="-17.380355388357163" style="stroke: black; stroke-width: 1;"></line>
<line x1="199.8905332437893" y1="-17.380355388357163" x2="203.35463485892706" y2="-15.380355388357163" style="stroke: black; stroke-width: 1;"></line>
<line x1="203.35463485892706" y1="-15.380355388357163" x2="206.70931713070874" y2="-13.201799248297055" style="stroke: black; stroke-width: 1;"></line>
<line x1="206.70931713070874" y1="-13.201799248297055" x2="209.94538510820854" y2="-10.850658239127164" style="stroke: black; stroke-width: 1;"></line>
<line x1="209.94538510820854" y1="-10.850658239127164" x2="213.05396895403643" y2="-8.333376674927814" style="stroke: black; stroke-width: 1;"></line>
<line x1="213.05396895403643" y1="-8.333376674927814" x2="216.026548255946" y2="-5.6568542494923815" style="stroke: black; stroke-width: 1;"></line>
<line x1="216.026548255946" y1="-5.6568542494923815" x2="216.026548255946" y2="-5.6568542494923815" style="stroke: black; stroke-width: 1;"></line>
</g>
<g transform="translate(250 250)">
<polygon points="0,0 ,-5,-9 ,0,-7 ,5,-9 " stroke="black" fill="black" stroke-width="1" opacity="0" transform="translate(216.026548255946,-5.6568542494923815) rotate(-45,0,0)"></polygon>
</g>
<metadata><raw>from turtle import *

left(45)
for i in range(30):
    forward(4)
    right(3)
left(90)

for i in range(30):
    forward(4)
    right(3)

hideturtle()
</raw></metadata></svg>