<!--?xml version="1.0" standalone="no"?-->
<svg id="ofi_blog_Programmieren_1_Turtlegrafik_intro__Stift_und_Punkte_svg" width="90" height="94" xmlns="http://www.w3.org/2000/svg" viewBox="245,161,90,94">
<g transform="translate(250 250)">
<line x1="0" y1="0" x2="0" y2="0" style="stroke: black; stroke-width: 1;"></line>
<circle cx="0" cy="0" r="5" fill="black" style=""></circle>
<line x1="0" y1="0" x2="40" y2="0" opacity="0" style="stroke: black; stroke-width: 1;"></line>
<line x1="40" y1="0" x2="40" y2="0" opacity="0" style="stroke: black; stroke-width: 1;"></line>
<circle cx="40" cy="-40" r="5" fill="black" style=""></circle>
<line x1="40" y1="-40" x2="40" y2="-40" opacity="0" style="stroke: black; stroke-width: 1;"></line>
<line x1="40" y1="0" x2="80" y2="0" opacity="0" style="stroke: black; stroke-width: 1;"></line>
<circle cx="80" cy="0" r="5" fill="black" style=""></circle>
<line x1="80" y1="0" x2="80" y2="0" opacity="0" style="stroke: black; stroke-width: 1;"></line>
<circle cx="80" cy="-80" r="5" fill="black" style=""></circle>
<line x1="80" y1="-80" x2="0" y2="-80" opacity="0" style="stroke: black; stroke-width: 1;"></line>
<circle cx="0" cy="-80.00000000000001" r="5" fill="black" style=""></circle>
<line x1="0" y1="-80.00000000000001" x2="0" y2="-80.00000000000001" opacity="0" style="stroke: black; stroke-width: 1;"></line>
</g>
<g transform="translate(250 250)">
<polygon points="0,0 ,-5,-9 ,0,-7 ,5,-9 " stroke="black" fill="black" stroke-width="1" opacity="0" transform="translate(0.0,-80.00000000000001) rotate(-360,0,0)"></polygon>
</g>
<metadata><raw>from turtle import *

penup()
dot(10)
forward(40)
left(90)

forward(40)
dot(10)
right(180)
forward(40)
left(90)
forward(40)
dot(10)
left(90)
forward(80)
dot(10)
left(90)
forward(80)
dot(10)
left(90)
hideturtle()</raw></metadata></svg>