<?xml version="1.0" encoding="UTF-8" standalone="no"?>
<!-- Created with Inkscape (http://www.inkscape.org/) -->

<svg
   version="1.1"
   id="svg1"
   width="397.918"
   height="246.735"
   viewBox="0 0 397.918 246.735"
   xmlns="http://www.w3.org/2000/svg"
   xmlns:svg="http://www.w3.org/2000/svg">
  <defs
     id="defs1" />
  <g
     id="g1"
     transform="translate(-198.28333,-166.39902)">
    <path
       id="path1"
       d="M 0,0 V 184.25424 H 297.6415 V 0 Z"
       style="fill:#ffffff;fill-opacity:1;fill-rule:nonzero;stroke:#000000;stroke-width:0.79701;stroke-linecap:butt;stroke-linejoin:miter;stroke-miterlimit:10;stroke-dasharray:none;stroke-opacity:1"
       transform="matrix(1.3333333,0,0,-1.3333333,198.81467,412.60267)" />
    <path
       id="path2"
       d="m 14.17339,56.69362 v 85.04042 H 56.69362 V 56.69362 Z"
       style="fill:#000000;fill-opacity:0.5;fill-rule:nonzero;stroke:none"
       transform="matrix(1.3333333,0,0,-1.3333333,202.04259,415.83059)" />
    <path
       id="path3"
       d="m 14.17339,56.69362 v 85.04042 H 56.69362 V 56.69362 Z"
       style="fill:#d5d5d5;fill-opacity:1;fill-rule:nonzero;stroke:#000000;stroke-width:0.79701;stroke-linecap:butt;stroke-linejoin:miter;stroke-miterlimit:10;stroke-dasharray:none;stroke-opacity:1"
       transform="matrix(1.3333333,0,0,-1.3333333,198.81467,412.60267)" />
    <path
       id="path4"
       d="m 85.04042,127.56062 v 28.34682 h 141.73406 v -28.34682 z"
       style="fill:#000000;fill-opacity:0.5;fill-rule:nonzero;stroke:none"
       transform="matrix(1.3333333,0,0,-1.3333333,202.04259,415.83059)" />
    <path
       id="path5"
       d="m 85.04042,127.56062 v 28.34682 h 141.73406 v -28.34682 z"
       style="fill:#d5d5d5;fill-opacity:1;fill-rule:nonzero;stroke:#000000;stroke-width:0.79701;stroke-linecap:butt;stroke-linejoin:miter;stroke-miterlimit:10;stroke-dasharray:none;stroke-opacity:1"
       transform="matrix(1.3333333,0,0,-1.3333333,198.81467,412.60267)" />
    <path
       id="path6"
       d="M 85.04042,28.3468 V 56.69362 H 226.77448 V 28.3468 Z"
       style="fill:#000000;fill-opacity:0.5;fill-rule:nonzero;stroke:none"
       transform="matrix(1.3333333,0,0,-1.3333333,202.04259,415.83059)" />
    <path
       id="path7"
       d="M 85.04042,28.3468 V 56.69362 H 226.77448 V 28.3468 Z"
       style="fill:#d5d5d5;fill-opacity:1;fill-rule:nonzero;stroke:#000000;stroke-width:0.79701;stroke-linecap:butt;stroke-linejoin:miter;stroke-miterlimit:10;stroke-dasharray:none;stroke-opacity:1"
       transform="matrix(1.3333333,0,0,-1.3333333,198.81467,412.60267)" />
    <path
       id="path8"
       d="m 85.04042,85.04042 v 14.1734 h 14.1734 v -14.1734 z"
       style="fill:#000000;fill-opacity:0.5;fill-rule:nonzero;stroke:none"
       transform="matrix(1.3333333,0,0,-1.3333333,202.04259,415.83059)" />
    <path
       id="path9"
       d="m 85.04042,85.04042 v 14.1734 h 14.1734 v -14.1734 z"
       style="fill:#d5d5d5;fill-opacity:1;fill-rule:nonzero;stroke:#000000;stroke-width:0.79701;stroke-linecap:butt;stroke-linejoin:miter;stroke-miterlimit:10;stroke-dasharray:none;stroke-opacity:1"
       transform="matrix(1.3333333,0,0,-1.3333333,198.81467,412.60267)" />
    <path
       id="path10"
       d="m 113.38724,85.04042 v 14.1734 h 14.17338 v -14.1734 z"
       style="fill:#000000;fill-opacity:0.5;fill-rule:nonzero;stroke:none"
       transform="matrix(1.3333333,0,0,-1.3333333,202.04259,415.83059)" />
    <path
       id="path11"
       d="m 113.38724,85.04042 v 14.1734 h 14.17338 v -14.1734 z"
       style="fill:#d5d5d5;fill-opacity:1;fill-rule:nonzero;stroke:#000000;stroke-width:0.79701;stroke-linecap:butt;stroke-linejoin:miter;stroke-miterlimit:10;stroke-dasharray:none;stroke-opacity:1"
       transform="matrix(1.3333333,0,0,-1.3333333,198.81467,412.60267)" />
    <text
       id="text11"
       xml:space="preserve"
       transform="matrix(1.3333333,0,0,1.3333333,409.16267,290.48267)"><tspan
         style="font-variant:normal;font-weight:normal;font-size:9.9626px;font-family:'Source Sans Pro';writing-mode:lr-tb;fill:#000000;fill-opacity:1;fill-rule:nonzero;stroke:none"
         x="0"
         y="0"
         id="tspan11">...</tspan></text>
    <path
       id="path12"
       d="m 198.42766,85.04042 v 14.1734 h 14.1734 v -14.1734 z"
       style="fill:#000000;fill-opacity:0.5;fill-rule:nonzero;stroke:none"
       transform="matrix(1.3333333,0,0,-1.3333333,202.04259,415.83059)" />
    <path
       id="path13"
       d="m 198.42766,85.04042 v 14.1734 h 14.1734 v -14.1734 z"
       style="fill:#d5d5d5;fill-opacity:1;fill-rule:nonzero;stroke:#000000;stroke-width:0.79701;stroke-linecap:butt;stroke-linejoin:miter;stroke-miterlimit:10;stroke-dasharray:none;stroke-opacity:1"
       transform="matrix(1.3333333,0,0,-1.3333333,198.81467,412.60267)" />
    <path
       id="path14"
       d="M 92.1271,56.69362 V 76.73564"
       style="fill:none;stroke:#000000;stroke-width:0.3985;stroke-linecap:butt;stroke-linejoin:miter;stroke-miterlimit:10;stroke-dasharray:none;stroke-opacity:1"
       transform="matrix(1.3333333,0,0,-1.3333333,198.81467,412.60267)" />
    <path
       id="path15"
       d="M 7.48325,0 C 6.56427,0.22145 2.52473,1.47641 0,2.84209 V -2.84209 C 2.52473,-1.47641 6.56427,-0.22145 7.48325,0 Z"
       style="fill:#000000;fill-opacity:1;fill-rule:nonzero;stroke:#000000;stroke-width:0.3985;stroke-linecap:butt;stroke-linejoin:miter;stroke-miterlimit:10;stroke-dasharray:none;stroke-opacity:1"
       transform="matrix(0,-1.3333333,-1.3333333,0,321.6508,310.28848)" />
    <path
       id="path16"
       d="M 120.47392,56.69362 V 76.73564"
       style="fill:none;stroke:#000000;stroke-width:0.3985;stroke-linecap:butt;stroke-linejoin:miter;stroke-miterlimit:10;stroke-dasharray:none;stroke-opacity:1"
       transform="matrix(1.3333333,0,0,-1.3333333,198.81467,412.60267)" />
    <path
       id="path17"
       d="M 7.48325,0 C 6.56427,0.22145 2.52473,1.47641 0,2.84209 V -2.84209 C 2.52473,-1.47641 6.56427,-0.22145 7.48325,0 Z"
       style="fill:#000000;fill-opacity:1;fill-rule:nonzero;stroke:#000000;stroke-width:0.3985;stroke-linecap:butt;stroke-linejoin:miter;stroke-miterlimit:10;stroke-dasharray:none;stroke-opacity:1"
       transform="matrix(0,-1.3333333,-1.3333333,0,359.44656,310.28848)" />
    <path
       id="path18"
       d="M 205.51436,56.69362 V 76.73564"
       style="fill:none;stroke:#000000;stroke-width:0.3985;stroke-linecap:butt;stroke-linejoin:miter;stroke-miterlimit:10;stroke-dasharray:none;stroke-opacity:1"
       transform="matrix(1.3333333,0,0,-1.3333333,198.81467,412.60267)" />
    <path
       id="path19"
       d="M 7.48325,0 C 6.56427,0.22145 2.52473,1.47641 0,2.84209 V -2.84209 C 2.52473,-1.47641 6.56427,-0.22145 7.48325,0 Z"
       style="fill:#000000;fill-opacity:1;fill-rule:nonzero;stroke:#000000;stroke-width:0.3985;stroke-linecap:butt;stroke-linejoin:miter;stroke-miterlimit:10;stroke-dasharray:none;stroke-opacity:1"
       transform="matrix(0,-1.3333333,-1.3333333,0,472.83381,310.28848)" />
    <path
       id="path20"
       d="M 92.1271,127.56062 V 107.5186"
       style="fill:none;stroke:#000000;stroke-width:0.3985;stroke-linecap:butt;stroke-linejoin:miter;stroke-miterlimit:10;stroke-dasharray:none;stroke-opacity:1"
       transform="matrix(1.3333333,0,0,-1.3333333,198.81467,412.60267)" />
    <path
       id="path21"
       d="M 7.48325,0 C 6.56427,0.22145 2.52473,1.47641 0,2.84209 V -2.84209 C 2.52473,-1.47641 6.56427,-0.22145 7.48325,0 Z"
       style="fill:#000000;fill-opacity:1;fill-rule:nonzero;stroke:#000000;stroke-width:0.3985;stroke-linecap:butt;stroke-linejoin:miter;stroke-miterlimit:10;stroke-dasharray:none;stroke-opacity:1"
       transform="matrix(0,1.3333333,1.3333333,0,321.6508,269.24453)" />
    <path
       id="path22"
       d="M 120.47392,127.56062 V 107.5186"
       style="fill:none;stroke:#000000;stroke-width:0.3985;stroke-linecap:butt;stroke-linejoin:miter;stroke-miterlimit:10;stroke-dasharray:none;stroke-opacity:1"
       transform="matrix(1.3333333,0,0,-1.3333333,198.81467,412.60267)" />
    <path
       id="path23"
       d="M 7.48325,0 C 6.56427,0.22145 2.52473,1.47641 0,2.84209 V -2.84209 C 2.52473,-1.47641 6.56427,-0.22145 7.48325,0 Z"
       style="fill:#000000;fill-opacity:1;fill-rule:nonzero;stroke:#000000;stroke-width:0.3985;stroke-linecap:butt;stroke-linejoin:miter;stroke-miterlimit:10;stroke-dasharray:none;stroke-opacity:1"
       transform="matrix(0,1.3333333,1.3333333,0,359.44656,269.24453)" />
    <path
       id="path24"
       d="M 205.51436,127.56062 V 107.5186"
       style="fill:none;stroke:#000000;stroke-width:0.3985;stroke-linecap:butt;stroke-linejoin:miter;stroke-miterlimit:10;stroke-dasharray:none;stroke-opacity:1"
       transform="matrix(1.3333333,0,0,-1.3333333,198.81467,412.60267)" />
    <path
       id="path25"
       d="M 7.48325,0 C 6.56427,0.22145 2.52473,1.47641 0,2.84209 V -2.84209 C 2.52473,-1.47641 6.56427,-0.22145 7.48325,0 Z"
       style="fill:#000000;fill-opacity:1;fill-rule:nonzero;stroke:#000000;stroke-width:0.3985;stroke-linecap:butt;stroke-linejoin:miter;stroke-miterlimit:10;stroke-dasharray:none;stroke-opacity:1"
       transform="matrix(0,1.3333333,1.3333333,0,472.83381,269.24453)" />
    <text
       id="text25"
       xml:space="preserve"
       transform="matrix(1.3333333,0,0,1.3333333,404.19733,936.84667)"><tspan
         style="font-variant:normal;font-weight:normal;font-size:9.9626px;font-family:'Source Sans Pro';writing-mode:lr-tb;fill:#000000;fill-opacity:1;fill-rule:nonzero;stroke:none"
         x="0"
         y="0"
         id="tspan25">1</tspan></text>
    <g
       id="g6"
       transform="translate(-22.522161)">
      <text
         xml:space="preserve"
         style="font-size:13.2835px;line-height:1;font-family:'Veteran Typewriter';-inkscape-font-specification:'Veteran Typewriter';text-align:start;text-anchor:start"
         x="245.98628"
         y="278.34775"
         id="text1"><tspan
           x="245.98628"
           y="278.34775"
           id="tspan2"
           style="font-style:normal;font-variant:normal;font-weight:normal;font-stretch:normal;font-size:13.2835px;line-height:1;font-family:'Noto Sans';-inkscape-font-specification:'Noto Sans';text-align:start;text-anchor:start">Steuer-</tspan></text>
      <text
         xml:space="preserve"
         style="font-size:13.2835px;line-height:1;font-family:'Veteran Typewriter';-inkscape-font-specification:'Veteran Typewriter';text-align:start;text-anchor:start"
         x="253.31213"
         y="291.77179"
         id="text1-9"><tspan
           x="253.31213"
           y="291.77179"
           id="tspan2-4"
           style="font-style:normal;font-variant:normal;font-weight:normal;font-stretch:normal;font-size:13.2835px;line-height:1;font-family:'Noto Sans';-inkscape-font-specification:'Noto Sans';text-align:start;text-anchor:start">werk</tspan></text>
    </g>
    <text
       xml:space="preserve"
       style="font-size:13.2835px;line-height:1.25;font-family:'Noto Sans';-inkscape-font-specification:'Noto Sans'"
       x="387.76227"
       y="228.29976"
       id="text3"><tspan
         id="tspan3"
         x="387.76227"
         y="228.29976">Daten</tspan></text>
    <text
       xml:space="preserve"
       style="font-size:13.2835px;line-height:1.25;font-family:'Noto Sans';-inkscape-font-specification:'Noto Sans'"
       x="491.57236"
       y="294.65076"
       id="text4"><tspan
         id="tspan4"
         x="491.57236"
         y="294.65076">Rechenwerke</tspan></text>
    <text
       xml:space="preserve"
       style="font-size:13.2835px;line-height:1.25;font-family:'Noto Sans';-inkscape-font-specification:'Noto Sans'"
       x="382.72784"
       y="360.92358"
       id="text5"><tspan
         id="tspan5"
         x="382.72784"
         y="360.92358">Befehle</tspan></text>
  </g>
</svg>
