<?xml version="1.0" encoding="UTF-8" standalone="no"?>
<!-- Generator: Adobe Illustrator 12.0.1, SVG Export Plug-In . SVG Version: 6.00 Build 51448)  -->

<svg
   xmlns:dc="http://purl.org/dc/elements/1.1/"
   xmlns:cc="http://creativecommons.org/ns#"
   xmlns:rdf="http://www.w3.org/1999/02/22-rdf-syntax-ns#"
   xmlns:svg="http://www.w3.org/2000/svg"
   xmlns="http://www.w3.org/2000/svg"
   xmlns:sodipodi="http://sodipodi.sourceforge.net/DTD/sodipodi-0.dtd"
   xmlns:inkscape="http://www.inkscape.org/namespaces/inkscape"
   version="1.1"
   width="550"
   height="346"
   viewBox="0 0 550 346"
   style="overflow:visible;enable-background:new 0 0 550 346;"
   xml:space="preserve"
   id="svg2"
   inkscape:version="0.92.4 (5da689c313, 2019-01-14)"
   sodipodi:docname="colour-vision.svg"><metadata
   id="metadata170"><rdf:RDF><cc:Work
       rdf:about=""><dc:format>image/svg+xml</dc:format><dc:type
         rdf:resource="http://purl.org/dc/dcmitype/StillImage" /><dc:title></dc:title></cc:Work></rdf:RDF></metadata><defs
   id="defs168">
	
	
	
	
	
	
	
	
	
	
	
	
	
	
	
	
	
	
	
	
	
	
	
	
	
	
	
	
	
	
	
	
	
	
	
	
	
	
	
	
	
	
	
	
	
	
	
	
	
	
	
	
	
	
	
	
	
	
	
	
	
	
	
	
	
	
	
	
	
	
	
</defs><sodipodi:namedview
   pagecolor="#ffffff"
   bordercolor="#666666"
   borderopacity="1"
   objecttolerance="10"
   gridtolerance="10"
   guidetolerance="10"
   inkscape:pageopacity="0"
   inkscape:pageshadow="2"
   inkscape:window-width="1920"
   inkscape:window-height="1055"
   id="namedview166"
   showgrid="false"
   inkscape:zoom="1.8439306"
   inkscape:cx="348.74238"
   inkscape:cy="136.12226"
   inkscape:window-x="0"
   inkscape:window-y="0"
   inkscape:window-maximized="1"
   inkscape:current-layer="svg2" />
<g
   id="Layer_1">
</g>
<line
   id="line6"
   y2="272.70001"
   x2="57.5"
   y1="8.6999998"
   x1="57.5"
   style="fill:none;stroke:#000000" /><line
   id="line8"
   y2="272.70001"
   x2="536.5"
   y1="272.70001"
   x1="57.5"
   style="fill:none;stroke:#000000" /><line
   id="line10"
   y2="280.70001"
   x2="66.5"
   y1="272.70001"
   x1="66.5"
   style="fill:none;stroke:#000000;stroke-width:0.75" /><line
   id="line12"
   y2="280.70001"
   x2="118.9"
   y1="272.70001"
   x1="118.9"
   style="fill:none;stroke:#000000;stroke-width:0.75" /><line
   id="line14"
   y2="280.70001"
   x2="186.89999"
   y1="272.70001"
   x1="186.89999"
   style="fill:none;stroke:#000000;stroke-width:0.75" /><line
   id="line16"
   y2="280.70001"
   x2="226.2"
   y1="272.70001"
   x1="226.2"
   style="fill:none;stroke:#000000;stroke-width:0.75" /><line
   id="line18"
   y2="280.70001"
   x2="244.89999"
   y1="272.70001"
   x1="244.89999"
   style="fill:none;stroke:#000000;stroke-width:0.75" /><line
   id="line20"
   y2="280.70001"
   x2="279.5"
   y1="272.70001"
   x1="279.5"
   style="fill:none;stroke:#000000;stroke-width:0.75" /><line
   id="line22"
   y2="280.70001"
   x2="312.20001"
   y1="272.70001"
   x1="312.20001"
   style="fill:none;stroke:#000000;stroke-width:0.75" /><line
   id="line24"
   y2="280.70001"
   x2="354.20001"
   y1="272.70001"
   x1="354.20001"
   style="fill:none;stroke:#000000;stroke-width:0.75" /><line
   id="line26"
   y2="280.70001"
   x2="381.5"
   y1="272.70001"
   x1="381.5"
   style="fill:none;stroke:#000000;stroke-width:0.75" /><line
   id="line28"
   y2="280.70001"
   x2="405.5"
   y1="272.70001"
   x1="405.5"
   style="fill:none;stroke:#000000;stroke-width:0.75" /><line
   id="line30"
   y2="280.70001"
   x2="459.5"
   y1="272.70001"
   x1="459.5"
   style="fill:none;stroke:#000000;stroke-width:0.75" /><line
   id="line32"
   y2="283.89999"
   x2="536.90002"
   y1="273.10001"
   x1="536.90002"
   style="fill:none;stroke:#000000;stroke-width:0.75" /><line
   id="line34"
   y2="280.70001"
   x2="528.90002"
   y1="272.70001"
   x1="528.90002"
   style="fill:none;stroke:#000000;stroke-width:0.75" /><line
   id="line36"
   y2="280.70001"
   x2="520.20001"
   y1="272.70001"
   x1="520.20001"
   style="fill:none;stroke:#000000;stroke-width:0.75" /><line
   id="line38"
   y2="280.70001"
   x2="503.5"
   y1="272.70001"
   x1="503.5"
   style="fill:none;stroke:#000000;stroke-width:0.75" /><line
   id="line40"
   y2="280.70001"
   x2="427.5"
   y1="272.70001"
   x1="427.5"
   style="fill:none;stroke:#000000;stroke-width:0.75" /><line
   id="line42"
   y2="280.70001"
   x2="262.89999"
   y1="272.70001"
   x1="262.89999"
   style="fill:none;stroke:#000000;stroke-width:0.75" /><line
   id="line44"
   y2="280.70001"
   x2="296.20001"
   y1="272.70001"
   x1="296.20001"
   style="fill:none;stroke:#000000;stroke-width:0.75" /><line
   id="line46"
   y2="280.70001"
   x2="340.89999"
   y1="272.70001"
   x1="340.89999"
   style="fill:none;stroke:#000000;stroke-width:0.75" /><line
   id="line48"
   y2="280.70001"
   x2="368.20001"
   y1="272.70001"
   x1="368.20001"
   style="fill:none;stroke:#000000;stroke-width:0.75" /><line
   id="line50"
   y2="280.70001"
   x2="392.89999"
   y1="272.70001"
   x1="392.89999"
   style="fill:none;stroke:#000000;stroke-width:0.75" /><line
   id="line52"
   y2="283.89999"
   x2="449.5"
   y1="273.10001"
   x1="449.5"
   style="fill:none;stroke:#000000;stroke-width:0.75" /><line
   id="line54"
   y2="280.70001"
   x2="495.5"
   y1="272.70001"
   x1="495.5"
   style="fill:none;stroke:#000000;stroke-width:0.75" /><line
   id="line56"
   y2="280.70001"
   x2="478.89999"
   y1="272.70001"
   x1="478.89999"
   style="fill:none;stroke:#000000;stroke-width:0.75" /><line
   id="line58"
   y2="280.70001"
   x2="512.90002"
   y1="272.70001"
   x1="512.90002"
   style="fill:none;stroke:#000000;stroke-width:0.75" /><line
   id="line60"
   y2="280.70001"
   x2="468.89999"
   y1="272.70001"
   x1="468.89999"
   style="fill:none;stroke:#000000;stroke-width:0.75" /><line
   id="line62"
   y2="280.70001"
   x2="416.89999"
   y1="272.70001"
   x1="416.89999"
   style="fill:none;stroke:#000000;stroke-width:0.75" /><line
   id="line64"
   y2="280.70001"
   x2="438.20001"
   y1="272.70001"
   x1="438.20001"
   style="fill:none;stroke:#000000;stroke-width:0.75" /><line
   id="line66"
   y2="280.70001"
   x2="486.89999"
   y1="272.70001"
   x1="486.89999"
   style="fill:none;stroke:#000000;stroke-width:0.75" /><line
   id="line68"
   y2="283.89999"
   x2="326.20001"
   y1="273.10001"
   x1="326.20001"
   style="fill:none;stroke:#000000;stroke-width:0.75" /><line
   id="line70"
   y2="280.70001"
   x2="165.5"
   y1="272.70001"
   x1="165.5"
   style="fill:none;stroke:#000000;stroke-width:0.75" /><line
   id="line72"
   y2="280.70001"
   x2="206.89999"
   y1="272.70001"
   x1="206.89999"
   style="fill:none;stroke:#000000;stroke-width:0.75" /><line
   id="line74"
   y2="280.70001"
   x2="94.900002"
   y1="272.70001"
   x1="94.900002"
   style="fill:none;stroke:#000000;stroke-width:0.75" /><line
   id="line76"
   y2="283.89999"
   x2="142.89999"
   y1="273.10001"
   x1="142.89999"
   style="fill:none;stroke:#000000;stroke-width:0.75" /><line
   id="line78"
   y2="272.70001"
   x2="46.799999"
   y1="272.70001"
   x1="57.5"
   style="fill:none;stroke:#000000;stroke-width:0.75" /><line
   id="line80"
   y2="163"
   x2="46.799999"
   y1="163"
   x1="57.5"
   style="fill:none;stroke:#000000;stroke-width:0.75" /><line
   id="line82"
   y2="53.299999"
   x2="46.799999"
   y1="53.299999"
   x1="57.5"
   style="fill:none;stroke:#000000;stroke-width:0.75" /><text
   id="text84"
   style="font-style:normal;font-variant:normal;font-weight:normal;font-stretch:normal;font-size:16px;line-height:0%;font-family:'Linux Biolinum O';-inkscape-font-specification:'Linux Biolinum O'"
   x="132.36079"
   y="299.8862">400</text>

<text
   id="text86"
   x="119.3262"
   y="315.5415"
   style="font-style:normal;font-variant:normal;font-weight:normal;font-stretch:normal;font-size:16px;line-height:0%;font-family:'Linux Biolinum O';-inkscape-font-specification:'Linux Biolinum O'"><tspan
     id="tspan88"
     style="font-style:normal;font-variant:normal;font-weight:normal;font-stretch:normal;font-size:16px;font-family:'Linux Biolinum O';-inkscape-font-specification:'Linux Biolinum O';letter-spacing:-1"
     y="315.5415"
     x="119.3262">lila</tspan></text>

<text
   id="text92"
   style="font-style:normal;font-variant:normal;font-weight:normal;font-stretch:normal;font-size:16px;line-height:0%;font-family:'Linux Biolinum O';-inkscape-font-specification:'Linux Biolinum O'"
   x="200.0322"
   y="315.5415">blau</text>

<text
   id="text94"
   style="font-style:normal;font-variant:normal;font-weight:normal;font-stretch:normal;font-size:16px;line-height:0%;font-family:'Linux Biolinum O';-inkscape-font-specification:'Linux Biolinum O'"
   x="274.0845"
   y="315.5415">cyan</text>

<text
   id="text96"
   x="341.62299"
   y="315.5415"
   style="font-style:normal;font-variant:normal;font-weight:normal;font-stretch:normal;font-size:16px;line-height:0%;font-family:'Linux Biolinum O';-inkscape-font-specification:'Linux Biolinum O'"><tspan
     id="tspan100"
     style="font-style:normal;font-variant:normal;font-weight:normal;font-stretch:normal;font-size:16px;font-family:'Linux Biolinum O';-inkscape-font-specification:'Linux Biolinum O'"
     y="315.5415"
     x="351.72299">grün</tspan></text>

<text
   id="text104"
   x="401.1113"
   y="315.5415"
   style="font-style:normal;font-variant:normal;font-weight:normal;font-stretch:normal;font-size:16px;line-height:0%;font-family:'Linux Biolinum O';-inkscape-font-specification:'Linux Biolinum O'"><tspan
     id="tspan108"
     style="font-style:normal;font-variant:normal;font-weight:normal;font-stretch:normal;font-size:16px;font-family:'Linux Biolinum O';-inkscape-font-specification:'Linux Biolinum O'"
     y="315.5415"
     x="407.6113">gelb</tspan></text>

<text
   id="text110"
   style="font-style:normal;font-variant:normal;font-weight:normal;font-stretch:normal;font-size:16px;line-height:0%;font-family:'Linux Biolinum O';-inkscape-font-specification:'Linux Biolinum O'"
   x="478.64551"
   y="315.5415">rot</text>

<text
   id="text112"
   style="font-style:normal;font-variant:normal;font-weight:normal;font-stretch:normal;font-size:16px;line-height:0%;font-family:'Linux Biolinum O';-inkscape-font-specification:'Linux Biolinum O'"
   x="35.776402"
   y="278.67719">0</text>

<text
   id="text114"
   style="font-style:normal;font-variant:normal;font-weight:normal;font-stretch:normal;font-size:16px;line-height:0%;font-family:'Linux Biolinum O';-inkscape-font-specification:'Linux Biolinum O'"
   x="29.31872"
   y="166.30011">50</text>

<text
   id="text116"
   style="font-style:normal;font-variant:normal;font-weight:normal;font-stretch:normal;font-size:16px;line-height:0%;font-family:'Linux Biolinum O';-inkscape-font-specification:'Linux Biolinum O'"
   x="26.114958"
   y="55.549461">100</text>

<line
   id="line118"
   y2="47.900002"
   x2="188.2"
   y1="38.099998"
   x1="188.2"
   style="fill:none;stroke:#000000;stroke-width:0.75" /><text
   id="text120"
   style="font-style:normal;font-variant:normal;font-weight:normal;font-stretch:normal;font-size:16px;line-height:0%;font-family:'Linux Biolinum O';-inkscape-font-specification:'Linux Biolinum O'"
   x="177.69431"
   y="35.2192">420</text>

<text
   id="text122"
   style="font-size:18px;line-height:0%;fill:#0000b8"
   x="317.8555"
   y="236.5522">S</text>


<text
   id="text126"
   style="font-size:18px;line-height:0%;fill:#00a400"
   x="464.8584"
   y="236.5522">M</text>

<text
   id="text128"
   style="font-size:18px;line-height:0%;fill:#b80000"
   x="499.69339"
   y="236.5522">L</text>

<line
   id="line130"
   y2="47.900002"
   x2="374.89999"
   y1="38.099998"
   x1="374.89999"
   style="fill:none;stroke:#000000;stroke-width:0.75" /><text
   id="text132"
   style="font-style:normal;font-variant:normal;font-weight:normal;font-stretch:normal;font-size:16px;line-height:0%;font-family:'Linux Biolinum O';-inkscape-font-specification:'Linux Biolinum O'"
   x="364.36041"
   y="35.2192">534</text>


<line
   id="line138"
   y2="47.900002"
   x2="409.5"
   y1="38.099998"
   x1="409.5"
   style="fill:none;stroke:#000000;stroke-width:0.75" /><text
   id="text140"
   style="font-style:normal;font-variant:normal;font-weight:normal;font-stretch:normal;font-size:16px;line-height:0%;font-family:'Linux Biolinum O';-inkscape-font-specification:'Linux Biolinum O'"
   x="399.0293"
   y="35.2192">564</text>

<text
   id="text142"
   style="font-style:normal;font-variant:normal;font-weight:normal;font-stretch:normal;font-size:16px;line-height:0%;font-family:'Linux Biolinum O';-inkscape-font-specification:'Linux Biolinum O'"
   x="315.69431"
   y="299.8862">500</text>

<text
   id="text144"
   x="245.15919"
   y="336.55319"
   style="font-style:normal;font-variant:normal;font-weight:normal;font-stretch:normal;line-height:0%;font-family:'Linux Biolinum O';-inkscape-font-specification:'Linux Biolinum O'"><tspan
     id="tspan148"
     style="font-style:normal;font-variant:normal;font-weight:normal;font-stretch:normal;font-size:17px;font-family:'Linux Biolinum O';-inkscape-font-specification:'Linux Biolinum O'"
     y="336.55319"
     x="259.85919">Wellenlänge (nm)</tspan></text>

<text
   id="text150"
   style="font-style:normal;font-variant:normal;font-weight:normal;font-stretch:normal;font-size:17px;line-height:0%;font-family:'Linux Biolinum O';-inkscape-font-specification:'Linux Biolinum O'"
   transform="rotate(-90.000003)"
   x="-248.94479"
   y="18.947289">relative Empfindlichkeit</text>

<text
   id="text152"
   style="font-style:normal;font-variant:normal;font-weight:normal;font-stretch:normal;font-size:16px;line-height:0%;font-family:'Linux Biolinum O';-inkscape-font-specification:'Linux Biolinum O'"
   x="439.02731"
   y="299.8862">600</text>

<text
   id="text154"
   style="font-style:normal;font-variant:normal;font-weight:normal;font-stretch:normal;font-size:16px;line-height:0%;font-family:'Linux Biolinum O';-inkscape-font-specification:'Linux Biolinum O'"
   x="526.36041"
   y="299.8862">700</text>

<path
   inkscape:connector-curvature="0"
   id="path156"
   d="m 68,143.2 c 37.7,-25.4 42.3,-37.2 69.5,-59.5 22,-18 26.9,-30.3 50.7,-30.3 12.7,0 34.2,19.7 41.9,32.1 12.5,20.2 18.2,45.7 29,68.7 10.8,23 15.5,32 25,45.5 9.8,14 13.7,20.4 26.8,32.7 13.1,12.3 40.4,27.6 57.7,36.2"
   style="fill:none;stroke:#0000b8;stroke-width:2" /><path
   inkscape:connector-curvature="0"
   id="path160"
   d="m 142.5,194.7 c 16,0.5 48,3.5 61,3.5 22,0 39,-2.5 62.5,-21.5 27.3,-22.1 46.5,-51.5 59,-71.5 12.5,-20 31.3,-51.8 49.8,-51.8 18.5,0 23.2,23.3 27.2,31.3 4,8 18,49 22,62 4,13 17.5,45 21,53 6,13.5 18,47 49.5,65.5"
   style="fill:none;stroke:#00a400;stroke-width:2" /><path
   inkscape:connector-curvature="0"
   id="path162"
   d="m 144,191.7 c 22,3.5 46.5,12 58.5,14.5 12,2.5 25.5,5 38,5 19,0 36.2,-7.7 64.5,-36 30.5,-30.5 45.5,-59 53,-70.5 7.5,-11.5 31.5,-51.3 51.5,-51.3 12,0 23,19.8 25.5,25.8 2.5,6 8,13.5 12.5,28 4.5,14.5 14,39.5 22,65 8,25.5 25,61.5 29,69.5 4,8 14.5,17 19.5,21.5"
   style="fill:none;stroke:#b80000;stroke-width:2" /><rect
   y="0"
   x="0"
   id="rect164"
   height="346"
   width="550"
   style="fill:none" />
</svg>