<?xml version="1.0" encoding="UTF-8" standalone="no"?>
<svg
   xmlns:dc="http://purl.org/dc/elements/1.1/"
   xmlns:cc="http://creativecommons.org/ns#"
   xmlns:rdf="http://www.w3.org/1999/02/22-rdf-syntax-ns#"
   xmlns:svg="http://www.w3.org/2000/svg"
   xmlns="http://www.w3.org/2000/svg"
   xmlns:sodipodi="http://sodipodi.sourceforge.net/DTD/sodipodi-0.dtd"
   xmlns:inkscape="http://www.inkscape.org/namespaces/inkscape"
   width="420"
   height="400"
   version="1.1"
   id="svg55"
   sodipodi:docname="colour-cmy.svg"
   inkscape:version="0.92.1 r15371">
  <metadata
     id="metadata61">
    <rdf:RDF>
      <cc:Work
         rdf:about="">
        <dc:format>image/svg+xml</dc:format>
        <dc:type
           rdf:resource="http://purl.org/dc/dcmitype/StillImage" />
        <dc:title></dc:title>
      </cc:Work>
    </rdf:RDF>
  </metadata>
  <defs
     id="defs59" />
  <sodipodi:namedview
     pagecolor="#ffffff"
     bordercolor="#666666"
     borderopacity="1"
     objecttolerance="10"
     gridtolerance="10"
     guidetolerance="10"
     inkscape:pageopacity="0"
     inkscape:pageshadow="2"
     inkscape:window-width="640"
     inkscape:window-height="480"
     id="namedview57"
     showgrid="false"
     inkscape:zoom="1.7025"
     inkscape:cx="40.543319"
     inkscape:cy="200"
     inkscape:current-layer="svg55" />
  <rect
     id="background"
     fill="#FFFFFF"
     width="100%"
     height="100%" />
  <path
     d="M 340,144 A 130,130 0 0 0 80,144"
     id="path3"
     inkscape:connector-curvature="0"
     style="fill:#ff00ff;stroke-width:130;fill-opacity:1" />
  <path
     d="m 210,144 a 130,130 0 0 0 -130,0 130,130 0 0 0 65,112.5833"
     id="path5"
     inkscape:connector-curvature="0"
     style="fill:#cc006b;stroke-width:130" />
  <path
     d="m 210,144 a 130,130 0 0 0 -65,112.5833 130,130 0 0 0 130,0 A 130,130 0 0 0 210,144"
     id="path7"
     inkscape:connector-curvature="0"
     style="fill:#cc006b;stroke-width:130" />
  <path
     d="M 275,256.5833 A 130,130 0 0 0 340,144 130,130 0 0 0 210,144"
     id="path9"
     inkscape:connector-curvature="0"
     style="fill:#cc006b;stroke-width:130" />
  <path
     d="M 80,144 A 130,130 0 0 0 210,369.1666"
     id="path12"
     inkscape:connector-curvature="0"
     style="fill:#ffff00;stroke-width:130;fill-opacity:1" />
  <path
     d="m 210,144 a 130,130 0 0 0 -130,0 130,130 0 0 0 65,112.5833"
     id="path14"
     inkscape:connector-curvature="0"
     style="fill:#fff10c;stroke-width:130" />
  <path
     d="m 210,144 a 130,130 0 0 0 -65,112.5833 130,130 0 0 0 130,0 A 130,130 0 0 0 210,144"
     id="path16"
     inkscape:connector-curvature="0"
     style="fill:#fff10c;stroke-width:130" />
  <path
     d="m 145,256.5833 a 130,130 0 0 0 65,112.5833 130,130 0 0 0 65,-112.5833"
     id="path18"
     inkscape:connector-curvature="0"
     style="fill:#fff10c;stroke-width:130" />
  <path
     d="M 275,256.5833 A 130,130 0 0 0 340,144 130,130 0 0 0 210,144"
     id="path21"
     inkscape:connector-curvature="0"
     style="fill:#0093d3;stroke-width:130" />
  <path
     d="m 210,144 a 130,130 0 0 0 -65,112.5833 130,130 0 0 0 130,0 A 130,130 0 0 0 210,144"
     id="path23"
     inkscape:connector-curvature="0"
     style="fill:#0093d3;stroke-width:130" />
  <path
     d="M 210,369.1666 A 130,130 0 0 0 340,144"
     id="path25"
     inkscape:connector-curvature="0"
     style="fill:#00ffff;stroke-width:130;fill-opacity:1" />
  <path
     d="m 145,256.5833 a 130,130 0 0 0 65,112.5833 130,130 0 0 0 65,-112.5833"
     id="path27"
     inkscape:connector-curvature="0"
     style="fill:#0093d3;stroke-width:130" />
  <g
     id="Magenta+Cyan"
     transform="matrix(130,0,0,130,210,144)">
    <path
       style="fill:#1c1e66"
       inkscape:connector-curvature="0"
       id="path30"
       d="M 0.5,0.8660254 A 1,1 0 0 0 1,0 1,1 0 0 0 0,0" />
    <path
       style="fill:#1c1e66"
       inkscape:connector-curvature="0"
       id="path32"
       d="m 0,0 a 1,1 0 0 0 -0.5,0.8660254 1,1 0 0 0 1,0 A 1,1 0 0 0 0,0" />
  </g>
  <g
     id="Jaune+Magenta"
     transform="matrix(130,0,0,130,210,144)">
    <path
       style="fill:#cc0a21"
       inkscape:connector-curvature="0"
       id="path35"
       d="m 0,0 a 1,1 0 0 0 -1,0 1,1 0 0 0 0.5,0.8660254" />
    <path
       style="fill:#cc0a21"
       inkscape:connector-curvature="0"
       id="path37"
       d="m 0,0 a 1,1 0 0 0 -0.5,0.8660254 1,1 0 0 0 1,0 A 1,1 0 0 0 0,0" />
  </g>
  <g
     id="Cyan+Jaune"
     transform="matrix(130,0,0,130,210,144)">
    <path
       style="fill:#008c3a"
       inkscape:connector-curvature="0"
       id="path40"
       d="M -0.5,0.8660254 A 1,1 0 0 0 0,1.7320508 1,1 0 0 0 0.5,0.8660254" />
    <path
       style="fill:#008c3a"
       inkscape:connector-curvature="0"
       id="path42"
       d="m 0,0 a 1,1 0 0 0 -0.5,0.8660254 1,1 0 0 0 1,0 A 1,1 0 0 0 0,0" />
  </g>
  <path
     d="m 145,256.5833 a 130,130 0 0 0 65,112.5833 130,130 0 0 0 65,-112.5833"
     id="path45"
     inkscape:connector-curvature="0"
     style="fill:#00ff00;stroke-width:130;fill-opacity:1" />
  <path
     d="M 275,256.5833 A 130,130 0 0 0 340,144 130,130 0 0 0 210,144"
     id="path47"
     inkscape:connector-curvature="0"
     style="fill:#0000ff;stroke-width:130;fill-opacity:1" />
  <path
     d="m 210,144 a 130,130 0 0 0 -130,0 130,130 0 0 0 65,112.5833"
     id="path49"
     inkscape:connector-curvature="0"
     style="fill:#ff0000;stroke-width:130;fill-opacity:1" />
  <path
     d="m 210,144 a 130,130 0 0 0 -65,112.5833 130,130 0 0 0 130,0 A 130,130 0 0 0 210,144"
     id="path51"
     inkscape:connector-curvature="0"
     style="fill:#000000;stroke-width:130;fill-opacity:1" />
</svg>
